<?xml version="1.0" encoding="utf-8"?>
<!-- Generator: Adobe Illustrator 20.1.0, SVG Export Plug-In . SVG Version: 6.00 Build 0)  -->
<svg version="1.1" id="Layer_1" xmlns="http://www.w3.org/2000/svg" xmlns:xlink="http://www.w3.org/1999/xlink" x="0px" y="0px"
	 viewBox="0 0 500 673.6" style="enable-background:new 0 0 500 673.6;" xml:space="preserve">
<style type="text/css">
	.st0{fill:#839295;}
	.st1{fill:#515D5F;}
	.st2{fill:#ABB4B7;}
	.st3{fill:#97A4A7;}
	.st4{fill:#C8CFD1;}
	.st5{fill:url(#SVGID_1_);}
	.st6{fill:#6C7D80;}
	.st7{fill:#8D9497;}
	.st8{fill:#6C7274;}
	.st9{fill:#54585B;}
</style>
<g transform="matrix( 1, 0, 0, 1, 0,0) ">
	<g>
		<g id="Layer0_0_MEMBER_0_FILL">
			<path class="st0" d="M214.7,183.5c4.3-0.2,10.6-4.2,19.1-12.1c4.3-3.9,8.1-7.8,11.4-11.7c-3.1-3-6.7-5.4-10.9-7.4
				c-8.3-3.9-15.2-3.4-20.6,1.5c-4.3,3.8-5.3,9.9-3.3,18.3C211.4,176.3,212.9,180.1,214.7,183.5z"/>
		</g>
	</g>
</g>
<g transform="matrix( 1, 0, 0, 1, 0,0) ">
	<g>
		<g id="Layer0_0_MEMBER_1_FILL">
			<path class="st1" d="M220.2,173.3c-2.8-0.3-4.9-1.3-6.1-3c-1.8-2.4-2.9-6.7-3.2-12.8c-2,4.3-2,9.8,0.1,16.7
				c1,3.5,2.3,6.5,3.7,9.2l9.5-10.2C223,173.5,221.7,173.5,220.2,173.3z"/>
		</g>
	</g>
</g>
<g transform="matrix( 1, 0, 0, 1, 0,0) ">
	<g>
		<g id="Layer0_0_MEMBER_2_FILL">
			<path class="st2" d="M213.9,155.7c1.4,0.1,2.2-0.2,2.5-0.9c0.2-0.3,0.2-0.6,0.1-1l-39-38.6l-2.3,2.1L213.9,155.7z"/>
		</g>
	</g>
</g>
<g transform="matrix( 1, 0, 0, 1, 0,0) ">
	<g>
		<g id="Layer0_0_MEMBER_3_FILL">
			<path class="st0" d="M174.1,105.9c-2.3-0.1-4.2,0.7-5.9,2.3c-3.2,3.2-3.3,6.9-0.3,11.2c3,4.3,6.6,4.4,10.8,0.4
				c4.3-4.1,4.5-8,0.7-11.6C178,106.8,176.2,106,174.1,105.9z"/>
		</g>
	</g>
</g>
<g transform="matrix( 1, 0, 0, 1, 0,0) ">
	<g>
		<g id="Layer0_0_MEMBER_5_FILL">
			<path class="st3" d="M227.9,153c-4.6-1-7.3-0.7-8,0.9l2.6,0.6c1.9,0.5,3.3,1.1,4.2,1.6c1.4,1,2.4,1.7,2.9,2.2l5.1-3.4
				C232.5,154.2,230.2,153.6,227.9,153z"/>
		</g>
	</g>
</g>
<g transform="matrix( 1, 0, 0, 1, 0,0) ">
	<g>
		<g id="Layer0_0_MEMBER_6_FILL">
			<path class="st4" d="M175.8,108.9c-1.7-0.6-2.8-0.6-3.5,0.1c-0.8,0.8-0.4,1.7,1.3,2.7c1.6,1,2.8,0.9,3.6-0.2
				C177.9,110.4,177.4,109.5,175.8,108.9z"/>
		</g>
	</g>
</g>
<g transform="matrix( 1, 0, 0, 1, 0,0) ">
	<g>
		<g id="Layer0_0_MEMBER_7_MEMBER_0_FILL">
			<path class="st1" d="M178.6,114.9c-1.4,1.1-3.1,1.6-5.1,1.6c-2,0.1-3.5-1-4.6-3.1c-0.7-1.4-1.1-2.8-1.3-4.4
				c-2.5,3.4-2.3,7,0.7,10.7c3,3.8,6.5,3.8,10.5,0c3.2-3.1,4-6.3,2.2-9.5C180.7,112.2,179.9,113.7,178.6,114.9z"/>
		</g>
	</g>
</g>
<g transform="matrix( 1, 0, 0, 1, 0,0) ">
	<g>
		<g id="Layer0_0_MEMBER_8_MEMBER_0_FILL">
			<path class="st1" d="M213.9,155.7l1.1-0.1l-36.2-35.9l-1.1,0.2L213.9,155.7z"/>
		</g>
	</g>
</g>
<g transform="matrix( 1, 0, 0, 1, 0,0) ">
	<g>
		<g id="Layer0_0_MEMBER_9_FILL">
			<path class="st4" d="M185,124.5l-5-4.4l33.5,33.4l-18.9-19.6l3.2,2.6L180.6,119L185,124.5z"/>
		</g>
	</g>
</g>
<g transform="matrix( 1, 0, 0, 1, 0,0) ">
	<g>
		<g id="Layer0_0_MEMBER_10_FILL">
			
				<linearGradient id="SVGID_1_" gradientUnits="userSpaceOnUse" x1="427.7247" y1="419.4662" x2="155.5728" y2="12.4468" gradientTransform="matrix(1 0 0 -1 0 668)">
				<stop  offset="7.843137e-03" style="stop-color:#B5BDBF"/>
				<stop  offset="1" style="stop-color:#99A5A8"/>
			</linearGradient>
			<path class="st5" d="M255.7,124.3l-21.3,43.5l-44.5,6.8l-2.9,59.9l-66.7,38.7l1.9,131.5l-37.7,17.4L73,489.8l-20.3,19.3l-30,85.1
				l34.8,24.2l69.6,1.9l97.6,30l75.4-17.4l101.5,19.3l77.3-45.4l-55.1-184.7L393,400.8l-20.3-148.9L334,241.3l-40.6-116L255.7,124.3
				z"/>
		</g>
	</g>
</g>
<g transform="matrix( 1, 0, 0, 1, 0,0) ">
	<g>
		<g id="Layer0_0_MEMBER_11_MEMBER_0_FILL">
			<path class="st0" d="M234.5,167.8l-44.5,6.8l-2.9,59.9l-66.7,38.7l1.9,131.5l-37.7,17.4L73,489.8l-20.3,19.3l-30,85.1l34.8,24.2
				l69.6,1.9l97.6,30l75.4-17.4l101.5,19.3l77.3-45.4l-79.3,38.7l-96.7-24.2l-39.6-14.5l1-78.3l-26.1-23.2l14.5-161.5l-27.1-25.1
				l-5.8-87l29-29l19.3-59.9l-12.6-18.4L234.5,167.8z"/>
		</g>
	</g>
</g>
<g transform="matrix( 1, 0, 0, 1, 0,0) ">
	<g>
		<g id="Layer0_0_MEMBER_11_MEMBER_1_MEMBER_0_FILL">
			<path class="st6" d="M234.5,167.8l-44.5,6.8l-2.9,59.9l-66.7,38.7l1.9,131.5l-37.7,17.4L73,489.8l-20.3,19.3l-30,85.1l34.8,24.2
				l69.6,1.9l97.6,30l75.4-17.4l101.5,19.3l-104.4-27.1l-61.9,12.6l-5.8-17.4l-58-13.5l1-41.6l-38.7,1l-10.6-40.6l37.7-79.3
				l22.2,1.9l1,68.6l30.9-5.8l2.9-96.7l-19.3-1.9l3.9-47.4l-40.6,1.9l5.8-71.5l30.9-28l4.8-74.4l33.8-11.6l14.5-33.8l16.4-4.8
				l-12.6-18.4L234.5,167.8z"/>
		</g>
	</g>
</g>
<g transform="matrix( 1, 0, 0, 1, 0,0) ">
	<g>
		<g id="Layer0_0_MEMBER_12_FILL">
			<path class="st6" d="M248,544.9L188,529.4l-28,9.7l5.8,11.6l31.9-5.8l1.9,52.2l17.4,4.8l1.9-21.3l23.2,11.6L248,544.9z"/>
		</g>
	</g>
</g>
<g transform="matrix( 1, 0, 0, 1, 0,0) ">
	<g>
		<g id="Layer0_0_MEMBER_13_FILL">
			<path class="st0" d="M282.8,527.5l18.4-6.8l10.6-36.7l54.1-15.5c1.9,37.4,2.6,57,1.9,59s8.1,0.6,26.1-3.9l-2.9,86l25.1-15.5
				l-5.8-96.7l21.3-13.5l18.4,48.3L423,430.8l-31.9,27.1l-15.7-11.4l-84.9,27.8l5.8,36.7L282.8,527.5z"/>
		</g>
	</g>
</g>
<g transform="matrix( 1, 0, 0, 1, 0,0) ">
	<g>
		<g id="Layer0_0_MEMBER_14_FILL">
			<path class="st3" d="M369.8,395l-4.8-88.9l3.9-42.5l-41.6,65.7l-25.1,10.6l-31.9,7.7l17.4,12.6l10.6,16.4l21.3,1.9l9.7-23.2
				l26.1,10.6l1.9,39.6L369.8,395z"/>
		</g>
	</g>
</g>
<g transform="matrix( 1, 0, 0, 1, 0,0) ">
	<g>
		<g id="Layer0_0_MEMBER_15_FILL">
			<path class="st3" d="M264.4,233.6l-4.8,30.9l11.6,1.9l9.7-26.1l29,9.7l4.8-11.6l-28-9.7l-35.8-19.3l-24.2,22.2L264.4,233.6z"/>
		</g>
	</g>
</g>
<g transform="matrix( 1, 0, 0, 1, 0,0) ">
	<g>
		<g id="Layer0_0_MEMBER_16_FILL">
			<path class="st6" d="M216.1,280l-25.1,20.3l-7.7,38.7l14.5,2.9l2.9-35.8l10.6-1l1,25.1l8.7-1.9L216.1,280z"/>
		</g>
	</g>
</g>
<g transform="matrix( 1, 0, 0, 1, 0,0) ">
	<g>
		<g id="Layer0_0_MEMBER_17_FILL">
			<path class="st1" d="M63.3,552.6l15.5,31.9l24.2,4.8l-3.9,18.4l-33.8,4.8l61.9,2.9l32.9,11.6l2.9-50.3l-43.5-1l-12.6-56.1
				l-44.5-4.8l-29,70.6l11.6,3.9L63.3,552.6z"/>
		</g>
	</g>
</g>
<g transform="matrix( 1, 0, 0, 1, 0,0) ">
	<g>
		<g id="Layer0_0_MEMBER_18_FILL">
			<path class="st1" d="M160,380.5l7.6,6.4c5,5.3,7.3,10.6,6.9,15.9c-0.4,5.2-2,11.2-4.7,17.8c-1.4,3.3-2.7,6.1-4,8.3l30,4.8
				l10.6,55.1l1-63.8l-22.2-4.8l-5.8-34.8L160,380.5z"/>
		</g>
	</g>
</g>
<g transform="matrix( 1, 0, 0, 1, 0,0) ">
	<g>
		<g id="Layer0_0_MEMBER_19_FILL">
			<path class="st1" d="M141.6,315.8l2.9,65.7l10.6-79.3L130,288.7L141.6,315.8z"/>
		</g>
	</g>
</g>
<g transform="matrix( 1, 0, 0, 1, 0,0) ">
	<g>
		<g id="Layer0_0_MEMBER_20_FILL">
			<path class="st4" d="M264.4,128.2l8.7,13.5l17.4,6.8l-7.7,16.4l43.5,64.8L295.4,162l2.4-16l-7.3-16.9L264.4,128.2z"/>
		</g>
	</g>
</g>
<g transform="matrix( 1, 0, 0, 1, 0,0) ">
	<g>
		<g id="Layer0_0_MEMBER_21_FILL">
			<path class="st4" d="M372.7,296.4l-1.9,56.1l8.7,48.3l-59.9,33.8l51.2-4.8l15.5,20.3l29-25.1l-26.1-16.4L372.7,296.4z"/>
		</g>
	</g>
</g>
<g transform="matrix( 1, 0, 0, 1, 0,0) ">
	<g>
		<g id="Layer0_0_MEMBER_22_FILL">
			<path class="st4" d="M238.3,317.7l17.4,21.3l72.5-21.3l27.1-52.2l-35.8,36.7l-44.5,14.5L238.3,317.7z"/>
		</g>
	</g>
</g>
<g transform="matrix( 1, 0, 0, 1, 0,0) ">
	<g>
		<g id="Layer0_0_MEMBER_23_FILL">
			<path class="st3" d="M284.7,586.5l16.4-24.2l21.3-8.7l2.9,30.9l30.9-1.9L364,630l12.6,5.8l-2.9-63.8l-24.2-4.8l-9.7-29l-44.5,7.7
				L284.7,586.5z"/>
		</g>
	</g>
</g>
<g transform="matrix( 1, 0, 0, 1, 0,0) ">
	<g>
		<g id="Layer0_0_MEMBER_24_FILL">
			<path class="st0" d="M264.4,128.2l0.8,3.3c1.2,2.8,3.5,5.8,7,8.8c3.4,3,8.5,4.8,15.2,5.4c3.4,0.3,6.3,0.2,9-0.1
				c3.1-5.1,5.3-10.5,6.8-16.1c2.9-11.5,0.3-18.8-7.7-22c-8.2-3.3-15.9-0.8-22.9,7.4c-2.2,2.6-4.2,5.6-6,9L264.4,128.2z"/>
		</g>
	</g>
</g>
<g transform="matrix( 1, 0, 0, 1, 0,0) ">
	<g>
		<g id="Layer0_0_MEMBER_25_FILL">
			<path class="st2" d="M315.7,60c-1,1.3-4.3,1.5-9.7,0.8c-5.2-0.8-8.4-0.1-9.7,2.1c-1.1,2.1,0.3,5.8,4.1,11.2
				c3.8,5.3,5,9.2,3.7,11.5l-12.6,23.2c0.6,1.8,1.5,2.8,2.7,3.1c0.6,0.1,1.2,0.1,1.6-0.2c7.4-13.2,11.8-21.8,13.1-25.6
				c0.7-2.1-0.6-5.9-3.9-11.5c-3.2-5.3-4.4-8.4-3.9-9.3c0.6-0.8,3.1-1.1,7.6-0.7c4.9,0.5,8.3-0.1,10.2-1.7c2.2-1.8,2.1-8.5-0.4-20
				c-1.3-5.7-2.8-11.3-4.4-16.7h-4.4c1.5,4.9,2.9,10,4.2,15.3C316.5,52,317.1,58.2,315.7,60z"/>
		</g>
	</g>
</g>
<g transform="matrix( 1, 0, 0, 1, 0,0) ">
	<g>
		<g id="Layer0_0_MEMBER_26_FILL">
			<path class="st0" d="M321.9,21.7c-0.3-2.5-1.5-4.5-3.5-5.9c-2.3-1.7-5.1-2.2-8.5-1.6c-4.3,0.7-6.5,3.7-6.5,8.9c0,5.3,3.1,8,9.4,8
				c3.2,0,5.6-1,7.3-3C321.6,26.2,322.2,24.1,321.9,21.7z"/>
		</g>
	</g>
</g>
<g transform="matrix( 1, 0, 0, 1, 0,0) ">
	<g>
		<g id="Layer0_0_MEMBER_27_MEMBER_0_FILL">
			<path class="st1" d="M287.6,106.2l-0.3-0.1c-6.1,0.5-11.8,4.4-16.9,11.5l-6,10.6l0.8,3.3c1.2,2.8,3.5,5.8,7,8.8
				c3.4,3,8.5,4.8,15.2,5.4c3.4,0.3,6.3,0.2,9-0.1c-5-0.3-9.4-1.2-13.2-2.7c-3.9-1.4-6.8-3.5-8.8-6.2c-2.7-3.6-3-7.7-0.9-12.2
				c2-4.3,5-8.6,8.9-13C284.3,109.3,286.1,107.5,287.6,106.2z"/>
		</g>
	</g>
</g>
<g transform="matrix( 1, 0, 0, 1, 0,0) ">
	<g>
		<g id="Layer0_0_MEMBER_28_FILL">
			<path class="st3" d="M300.4,129.3c1.3-6.8,0.5-11.4-2.3-13.9c-0.5-0.5-1,1.1-1.5,4.6c-0.5,4.6-1.3,7.7-2.2,9.4
				c-1.1,2-2.2,3.9-3.3,5.6l-1.3,1.9l2.5,1c1.9,0.6,3.2,1,4,1C297.7,138.8,299.1,135.6,300.4,129.3z"/>
		</g>
	</g>
</g>
<g transform="matrix( 1, 0, 0, 1, 0,0) ">
	<g>
		<g id="Layer0_0_MEMBER_29_MEMBER_0_FILL">
			<path class="st1" d="M315.7,60c-1,1.3-4.3,1.5-9.7,0.8c-5.2-0.8-8.4-0.1-9.7,2.1c-1.1,2.1,0.3,5.8,4.1,11.2
				c3.8,5.3,5,9.2,3.7,11.5l-12.6,23.2c0.3,0.9,0.6,1.5,1,1.8c9-16,13.6-24.8,14-26.3c0.6-1.8-0.6-4.9-3.5-9.3
				c-3.2-4.9-4.8-7.8-4.9-8.8c-0.2-1.9,0.2-3.2,1.1-3.8c0.7-0.4,2.1-0.6,4.3-0.6c1.2,0,4,0.3,8.2,0.8c3.7,0.2,5.7-0.5,6-2
				c0.4-1.7,0.5-3.3,0.5-4.9c-0.1-1.2-0.3-3.3-0.7-6.2c-0.3-2.1-1.3-6.3-2.8-12.8l-2.3-9l-1.7,0.6c1.9,6.1,3.4,11.8,4.4,17.1
				C316.7,53.7,316.9,58.5,315.7,60z"/>
		</g>
	</g>
</g>
<g transform="matrix( 1, 0, 0, 1, 0,0) ">
	<g>
		<g id="Layer0_0_MEMBER_30_MEMBER_0_FILL">
			<path class="st1" d="M312.9,27.2c-3-1.5-4.5-3.5-4.6-6.1c-0.1-2.9,1.3-5.3,4.4-7.2l-2.7,0.2c-4.3,0.7-6.5,3.7-6.5,8.9
				c0,5.3,3.1,8,9.4,8c4.1,0,6.9-1.6,8.4-4.7l-0.2,0.1C318.7,28.5,316,28.7,312.9,27.2z"/>
		</g>
	</g>
</g>
<g transform="matrix( 1, 0, 0, 1, 0,0) ">
	<g>
		<g id="Layer0_0_MEMBER_31_FILL">
			<path class="st4" d="M318.2,19.9c-0.7-2.1-1.6-3-2.7-2.7c-0.9,0.2-1.1,1.3-0.7,3.4c0.5,2.1,1.3,3,2.6,2.7
				C318.7,23,319,21.9,318.2,19.9z"/>
		</g>
	</g>
</g>
<g transform="matrix( 1, 0, 0, 1, 0,0) ">
	<g>
		<g id="Layer0_0_MEMBER_32_FILL">
			<path class="st4" d="M299.5,127.9c0.6-4.5,0.6-6.8,0-7c-0.8-0.1-1.6,2.1-2.5,6.6c-0.8,4.5-0.8,6.8,0.1,7
				C298,134.5,298.8,132.4,299.5,127.9z"/>
		</g>
	</g>
</g>
<g transform="matrix( 1, 0, 0, 1, 0,0) ">
	<g>
		<g id="Layer0_0_MEMBER_33_FILL">
			<path class="st4" d="M294.9,108.8l1.5,0.1c3.7-6.2,6.1-10.3,7-12.4c1.3-2.5,2.3-4.5,3-6.1c1.4-3,2-5.3,2-7.1
				c0-1.7-1.3-4.6-3.9-8.7l-3.9-5.7l1.5,3.2c1.2,2.3,2,3.7,2.4,4.4c0.8,1,1.5,2.4,2.2,4.3c0.8,2.1,0.9,3.7,0.5,4.6
				C306.6,86.8,302.5,94.6,294.9,108.8z"/>
		</g>
	</g>
</g>
<g transform="matrix( 1, 0, 0, 1, 0,0) ">
	<g>
		<g id="Layer0_0_MEMBER_34_FILL">
			<path class="st4" d="M317.1,41.3l-2.2-7.5l1.8,8c1.2,5.6,1.9,9,2,10.1c0.2,1.8,0.3,3.9,0.2,6.3c0.6-2.3,0.8-4.5,0.6-6.8
				C319.4,49.9,318.6,46.6,317.1,41.3z"/>
		</g>
	</g>
</g>
<g transform="matrix( 1, 0, 0, 1, 0,0) ">
	<g>
		<g id="Layer0_0_MEMBER_35_MEMBER_0_MEMBER_0_FILL">
			<path class="st7" d="M275.1,189.9c-0.2-1-0.9-1.3-2-1.1c-0.7,0.1-1,0.6-0.9,1.4c0.1,0.8,0.7,1.2,1.6,1.2
				C274.8,191.3,275.3,190.8,275.1,189.9z"/>
		</g>
	</g>
</g>
<g transform="matrix( 1, 0, 0, 1, 0,0) ">
	<g>
		<g id="Layer0_0_MEMBER_36_MEMBER_0_MEMBER_0_FILL">
			<path class="st7" d="M274.9,169.1c-1.5,0.1-2.7,0.9-3.4,2.6c-0.4,2,0.3,3,1.9,2.9c0.3,0,1.3-0.3,3-0.9c0.5-0.5,0.7-1.6,0.6-3.3
				C277,169.5,276.3,169.1,274.9,169.1z"/>
		</g>
	</g>
</g>
<g transform="matrix( 1, 0, 0, 1, 0,0) ">
	<g>
		<g id="Layer0_0_MEMBER_37_MEMBER_0_MEMBER_0_FILL">
			<path class="st7" d="M311.6,225.6c-1.5-1-2.7-1.2-3.6-0.4c-0.9,0.5-1.3,1.4-1.1,2.7c0.3,1.4,1.6,1.8,3.9,1.3
				C312.8,227.9,313.1,226.7,311.6,225.6z"/>
		</g>
	</g>
</g>
<g transform="matrix( 1, 0, 0, 1, 0,0) ">
	<g>
		<g id="Layer0_0_MEMBER_38_MEMBER_0_MEMBER_0_FILL">
			<path class="st8" d="M290.1,458.7c-3.1-1.2-5.3-0.9-6.5,1.1c-1.6,1-1.8,2.7-0.6,5.3c1.2,2.6,3.7,2.7,7.5,0.4
				C293.3,462.2,293.2,459.9,290.1,458.7z"/>
		</g>
	</g>
</g>
<g transform="matrix( 1, 0, 0, 1, 0,0) ">
	<g>
		<g id="Layer0_0_MEMBER_39_MEMBER_0_MEMBER_0_FILL">
			<path class="st8" d="M270.9,386.8c-1.9-2.8-4.7-2.4-8.3,1.2c-1.6,2.3-1.2,4.1,1.3,5.3c2.4,1.2,4.4,1.1,6-0.4
				c1-0.4,1.6-1.3,1.8-2.6C271.9,389.1,271.6,387.9,270.9,386.8z"/>
		</g>
	</g>
</g>
<g transform="matrix( 1, 0, 0, 1, 0,0) ">
	<g>
		<g id="Layer0_0_MEMBER_40_MEMBER_0_MEMBER_0_FILL">
			<path class="st8" d="M443.2,567.7c-0.5-2.6-2.1-3.7-4.6-3.4c-1.7,0.1-2.7,1.2-3,3.2c-0.3,2.1,1.1,3.4,4.1,4
				C442.6,571.5,443.8,570.3,443.2,567.7z"/>
		</g>
	</g>
</g>
<g transform="matrix( 1, 0, 0, 1, 0,0) ">
	<g>
		<g id="Layer0_0_MEMBER_41_MEMBER_0_MEMBER_0_FILL">
			<path class="st8" d="M431.7,621.2c-1,0.2-1.5,0.2-1.4,0c-0.5,0.2-0.6,0.6-0.5,1.2c0.1,0.6,0.7,0.9,1.6,0.8
				C432.5,621.9,432.5,621.2,431.7,621.2z"/>
		</g>
	</g>
</g>
<g transform="matrix( 1, 0, 0, 1, 0,0) ">
	<g>
		<g id="Layer0_0_MEMBER_42_MEMBER_0_MEMBER_0_FILL">
			<path class="st8" d="M319.6,603.7c-0.3-1.5-0.8-2.4-1.7-2.5c-0.9-0.3-1.7,0.1-2.3,1c-0.6,1-0.2,1.9,1.4,2.9
				C318.9,605.6,319.8,605.1,319.6,603.7z"/>
		</g>
	</g>
</g>
<g transform="matrix( 1, 0, 0, 1, 0,0) ">
	<g>
		<g id="Layer0_0_MEMBER_43_MEMBER_0_MEMBER_0_FILL">
			<path class="st8" d="M345.4,501.2c-1.5-1.7-3.4-1.6-5.4,0.4c-1,1.2-1,2.5,0,4c1.2,1.5,2.8,1.5,4.9,0.1
				C346.8,504.4,346.9,502.9,345.4,501.2z"/>
		</g>
	</g>
</g>
<g transform="matrix( 1, 0, 0, 1, 0,0) ">
	<g>
		<g id="Layer0_0_MEMBER_44_MEMBER_0_MEMBER_0_FILL">
			<path class="st8" d="M406.4,466.5c-0.8-0.5-1.5-0.3-2,0.6c-0.4,0.6-0.3,1.1,0.4,1.5c0.6,0.5,1.2,0.4,1.7-0.3
				C407.3,467.6,407.2,467,406.4,466.5z"/>
		</g>
	</g>
</g>
<g transform="matrix( 1, 0, 0, 1, 0,0) ">
	<g>
		<g id="Layer0_0_MEMBER_45_MEMBER_0_MEMBER_0_FILL">
			<path class="st8" d="M344.4,370.6c-1.9-2.3-4.1-2.4-6.6-0.3c-1.5,1.2-1.7,2.8-0.7,4.8c1.1,2,3.1,2.3,6.1,1
				C345.9,374.6,346.2,372.8,344.4,370.6z"/>
		</g>
	</g>
</g>
<g transform="matrix( 1, 0, 0, 1, 0,0) ">
	<g>
		<g id="Layer0_0_MEMBER_47_MEMBER_0_MEMBER_0_FILL">
			<path class="st8" d="M356.2,309.8c-0.6-1.3-1.7-1.4-3.5-0.2c-0.8,0.7-0.8,1.5-0.2,2.4c0.7,1,1.7,1.1,3,0.4
				C356.5,312,356.7,311.1,356.2,309.8z"/>
		</g>
	</g>
</g>
<g transform="matrix( 1, 0, 0, 1, 0,0) ">
	<g>
		<g id="Layer0_0_MEMBER_48_MEMBER_0_MEMBER_0_FILL">
			<path class="st8" d="M256.7,294.2c-0.4-1.6-1.5-2.2-3.4-1.7c-1.1,0.2-1.5,0.9-1.4,2.2c0.2,1.3,1.1,1.9,2.6,1.9
				C256.3,296.6,257,295.8,256.7,294.2z"/>
		</g>
	</g>
</g>
<g transform="matrix( 1, 0, 0, 1, 0,0) ">
	<g>
		<g id="Layer0_0_MEMBER_50_MEMBER_0_MEMBER_0_FILL">
			<path class="st8" d="M307,416.2c-1.5-0.8-2.2-1.2-2.2-1.3c-0.8,0-1.4,0.5-1.6,1.5c-0.3,1,0.4,1.8,2.2,2.3
				C307.4,418,307.9,417.1,307,416.2z"/>
		</g>
	</g>
</g>
<g transform="matrix( 1, 0, 0, 1, 0,0) ">
	<g>
		<g id="Layer0_0_MEMBER_51_MEMBER_0_MEMBER_0_FILL">
			<path class="st8" d="M256.7,491.6c-1,0.2-1.5,0.2-1.4,0c-0.5,0.2-0.6,0.6-0.5,1.2c0.1,0.6,0.7,0.9,1.6,0.8
				C257.5,492.3,257.5,491.7,256.7,491.6z"/>
		</g>
	</g>
</g>
<g transform="matrix( 1, 0, 0, 1, 0,0) ">
	<g>
		<g id="Layer0_0_MEMBER_52_MEMBER_0_MEMBER_0_FILL">
			<path class="st8" d="M249.7,600.7c-1.4-1.7-3.1-1.7-5.1-0.2c-1.2,1-1.3,2.3-0.3,3.7c1,1.4,2.5,1.6,4.4,0.7
				C250.7,603.8,251.1,602.4,249.7,600.7z"/>
		</g>
	</g>
</g>
<g transform="matrix( 1, 0, 0, 1, 0,0) ">
	<g>
		<g id="Layer0_0_MEMBER_53_MEMBER_0_MEMBER_0_FILL">
			<path class="st8" d="M185.1,592.1c-0.2-1-0.9-1.3-2-1.1c-0.7,0.1-1,0.6-0.9,1.4c0.1,0.8,0.7,1.2,1.6,1.2
				C184.9,593.5,185.3,593,185.1,592.1z"/>
		</g>
	</g>
</g>
<g transform="matrix( 1, 0, 0, 1, 0,0) ">
	<g>
		<g id="Layer0_0_MEMBER_54_MEMBER_0_MEMBER_0_FILL">
			<path class="st8" d="M163.9,500.1c-0.4-1.6-1.5-2.2-3.4-1.7c-1.1,0.2-1.5,0.9-1.4,2.2c0.2,1.3,1.1,1.9,2.6,1.9
				C163.5,502.5,164.2,501.7,163.9,500.1z"/>
		</g>
	</g>
</g>
<g transform="matrix( 1, 0, 0, 1, 0,0) ">
	<g>
		<g id="Layer0_0_MEMBER_55_MEMBER_0_MEMBER_0_FILL">
			<path class="st8" d="M145.5,529.2c-0.3-1.1-1.2-1.3-2.7-0.5c-0.7,0.6-0.7,1.2,0,1.7c0.6,0.6,1.2,0.7,1.6,0.4
				C145.5,530.9,145.8,530.4,145.5,529.2z"/>
		</g>
	</g>
</g>
<g transform="matrix( 1, 0, 0, 1, 0,0) ">
	<g>
		<g id="Layer0_0_MEMBER_56_MEMBER_0_MEMBER_0_FILL">
			<path class="st8" d="M231.3,387.8c-2.2-2.8-4.9-3-8.1-0.7c-1.1,0.7-1.5,1.5-1.4,2.4v1c0,0.8,0.3,1.3,0.9,1.5
				c-0.1,0.6-0.2,0.7-0.4,0.5c-0.4-0.4-0.6-0.5-0.8-0.3c1.4,2.9,3.9,3.7,7.7,2.4C232.8,392.9,233.5,390.6,231.3,387.8z"/>
		</g>
	</g>
</g>
<g transform="matrix( 1, 0, 0, 1, 0,0) ">
	<g>
		<g id="Layer0_0_MEMBER_57_MEMBER_0_MEMBER_0_FILL">
			<path class="st8" d="M238.1,447.1c-1.5-0.9-2.7-0.4-3.7,1.5c-0.5,1.2,0,2.1,1.3,2.5c1.2,0.4,2.2,0,2.9-1.1
				C239.8,449,239.6,448,238.1,447.1z"/>
		</g>
	</g>
</g>
<g transform="matrix( 1, 0, 0, 1, 0,0) ">
	<g>
		<g id="Layer0_0_MEMBER_58_MEMBER_0_MEMBER_0_FILL">
			<path class="st8" d="M221.9,211c-0.3-1.4-1.5-1.6-3.5-0.8c-1,0.7-1.1,1.4-0.2,2.1c0.8,0.7,1.6,1,2.2,0.9
				C221.8,213.3,222.3,212.5,221.9,211z"/>
		</g>
	</g>
</g>
<g transform="matrix( 1, 0, 0, 1, 0,0) ">
	<g>
		<g id="Layer0_0_MEMBER_59_MEMBER_0_MEMBER_0_FILL">
			<path class="st8" d="M247.6,178.3c-0.2-0.2-0.6-0.4-1.2-0.5l-0.8-0.1l-0.4,0.1H245c0,0.2,0,0.6,0,1.1c0,0.9,0,2.2,0,4v0.1h0.3
				l0.4,0.1h0.7c1,0,1.7-0.3,2.2-1c0.5-0.5,0.6-1.2,0.4-1.9C248.8,179.3,248.3,178.7,247.6,178.3z"/>
		</g>
	</g>
</g>
<g transform="matrix( 1, 0, 0, 1, 0,0) ">
	<g>
		<g id="Layer0_0_MEMBER_60_MEMBER_0_MEMBER_0_FILL">
			<path class="st8" d="M173.5,356.3c-0.2-1-0.7-1.5-1.5-1.5c-0.6-0.1-1.1,0.2-1.5,0.8c-0.5,0.7,0,1.4,1.4,2.1
				C173.2,357.7,173.7,357.2,173.5,356.3z"/>
		</g>
	</g>
</g>
<g transform="matrix( 1, 0, 0, 1, 0,0) ">
	<g>
		<g id="Layer0_0_MEMBER_61_MEMBER_0_MEMBER_0_FILL">
			<path class="st9" d="M96.1,472.2c-0.9-1.2-2.1-1.3-3.5-0.2c-1,0.8-1,1.7-0.1,2.5c0.9,0.7,1.8,0.8,2.7,0.4
				C96.7,474.3,97,473.4,96.1,472.2z"/>
		</g>
	</g>
</g>
<g transform="matrix( 1, 0, 0, 1, 0,0) ">
	<g>
		<g id="Layer0_0_MEMBER_62_MEMBER_0_MEMBER_0_FILL">
			<path class="st9" d="M143.1,417.9c-3.5-1.4-6.1-0.3-7.9,3.5c-1.3,2.5-0.6,4.4,2.1,5.7c2.7,1.3,5.1,0.6,7.2-2
				C147,421.8,146.6,419.4,143.1,417.9z"/>
		</g>
	</g>
</g>
<g transform="matrix( 1, 0, 0, 1, 0,0) ">
	<g>
		<g id="Layer0_0_MEMBER_63_MEMBER_0_MEMBER_0_FILL">
			<path class="st9" d="M199.6,624.8c-1.2-1.7-2.4-2.3-3.5-1.8c-1.2,0.2-1.9,1-2.2,2.4c-0.5,1.5,0.7,2.5,3.5,3
				C200,627.7,200.7,626.5,199.6,624.8z"/>
		</g>
	</g>
</g>
<g transform="matrix( 1, 0, 0, 1, 0,0) ">
	<g>
		<g id="Layer0_0_MEMBER_64_MEMBER_0_MEMBER_0_FILL">
			<path class="st9" d="M121.2,502.2c-1.2-0.8-2.2-0.9-3-0.1c-0.7,0.5-0.9,1.3-0.7,2.3c0.2,1.2,1.3,1.4,3.4,0.8
				C122.3,504,122.4,503,121.2,502.2z"/>
		</g>
	</g>
</g>
<g transform="matrix( 1, 0, 0, 1, 0,0) ">
	<g>
		<g id="Layer0_0_MEMBER_65_MEMBER_0_MEMBER_0_FILL">
			<path class="st9" d="M174.3,263.4c-1.5-1-2.7-1.2-3.6-0.4c-0.9,0.5-1.3,1.4-1.1,2.7c0.3,1.4,1.6,1.8,3.9,1.3
				C175.5,265.6,175.8,264.4,174.3,263.4z"/>
		</g>
	</g>
</g>
<g transform="matrix( 1, 0, 0, 1, 0,0) ">
	<g>
		<g id="Layer0_0_MEMBER_66_MEMBER_0_MEMBER_0_FILL">
			<path class="st9" d="M132.8,319.5c-0.9-0.7-1.6-0.8-2-0.4c-0.6,0.2-0.9,0.7-0.7,1.5c0.1,0.9,0.8,1.2,2.1,1
				C133.5,320.9,133.7,320.2,132.8,319.5z"/>
		</g>
	</g>
</g>
<g transform="matrix( 1, 0, 0, 1, 0,0) ">
	<g>
		<g id="Layer0_0_MEMBER_67_MEMBER_0_MEMBER_0_FILL">
			<path class="st9" d="M209.3,180.1c-0.5-1.9-1.8-2.7-4.1-2.2c-1.4,0.3-1.9,1.3-1.6,2.8c0.2,1.5,1.3,2.3,3.2,2.3
				C208.9,183,209.8,182,209.3,180.1z"/>
		</g>
	</g>
</g>
</svg>
