
<svg xmlns="http://www.w3.org/2000/svg" version="1.1" xmlns:xlink="http://www.w3.org/1999/xlink" preserveAspectRatio="none" x="0px" y="0px" width="790px" height="458px" viewBox="0 0 790 458">
<defs>
<radialGradient id="Gradient_1" gradientUnits="userSpaceOnUse" cx="0" cy="0" r="549" fx="0" fy="0" gradientTransform="matrix( 1, 0, 0, -1, 1620,520.5) " spreadMethod="pad">
<stop  offset="0%" stop-color="#4D6F23"/>

<stop  offset="0%" stop-color="#4E7025"/>

<stop  offset="0%" stop-color="#51752B"/>

<stop  offset="0%" stop-color="#567D36"/>

<stop  offset="0%" stop-color="#5E8846"/>

<stop  offset="0%" stop-color="#68975C"/>

<stop  offset="0%" stop-color="#74A978"/>

<stop  offset="0%" stop-color="#82BE99"/>

<stop  offset="0%" stop-color="#93D7BF"/>

<stop  offset="0%" stop-color="#A6F2EA"/>

<stop  offset="0%" stop-color="#AFFFFE"/>

<stop  offset="100%" stop-color="#71A5A5" stop-opacity="0"/>
</radialGradient>

<radialGradient id="Gradient_2" gradientUnits="userSpaceOnUse" cx="0" cy="0" r="85.65800185184106" fx="0" fy="0" gradientTransform="matrix( 0.9516040327556162, -0.3073268046286348, -0.3073268046286348, -0.9516040327556162, 1674.55,473.4) " spreadMethod="pad">
<stop  offset="0%" stop-color="#4D6F23"/>

<stop  offset="0%" stop-color="#4E7025"/>

<stop  offset="0%" stop-color="#51752B"/>

<stop  offset="0%" stop-color="#567D36"/>

<stop  offset="0%" stop-color="#5E8846"/>

<stop  offset="0%" stop-color="#68975C"/>

<stop  offset="0%" stop-color="#74A978"/>

<stop  offset="0%" stop-color="#82BE99"/>

<stop  offset="0%" stop-color="#93D7BF"/>

<stop  offset="0%" stop-color="#A6F2EA"/>

<stop  offset="0%" stop-color="#AFFFFE"/>

<stop  offset="100%" stop-color="#71A5A5" stop-opacity="0"/>
</radialGradient>

<radialGradient id="Gradient_3" gradientUnits="userSpaceOnUse" cx="0" cy="0" r="118.53531383094234" fx="0" fy="0" gradientTransform="matrix( 0.9516151461907617, -0.30729239095743344, -0.30729239095743344, -0.9516151461907617, 1510.05,515.75) " spreadMethod="pad">
<stop  offset="0%" stop-color="#87F6FE"/>

<stop  offset="100%" stop-color="#87F6FE" stop-opacity="0"/>
</radialGradient>

<radialGradient id="Gradient_4" gradientUnits="userSpaceOnUse" cx="0" cy="0" r="209.32447935263096" fx="0" fy="0" gradientTransform="matrix( 0.9516326070226353, -0.30723831344951424, -0.30723831344951424, -0.9516326070226353, 1320.1,603) " spreadMethod="pad">
<stop  offset="0%" stop-color="#87F6FE"/>

<stop  offset="100%" stop-color="#87F6FE" stop-opacity="0"/>
</radialGradient>

<radialGradient id="Gradient_5" gradientUnits="userSpaceOnUse" cx="0" cy="0" r="75.27155007039518" fx="0" fy="0" gradientTransform="matrix( 0.9243200111454106, 0.38161828703057016, 0.38161828703057016, -0.9243200111454106, 1799.75,493.25) " spreadMethod="pad">
<stop  offset="0%" stop-color="#87F6FE"/>

<stop  offset="100%" stop-color="#87F6FE" stop-opacity="0"/>
</radialGradient>

<radialGradient id="Gradient_6" gradientUnits="userSpaceOnUse" cx="0" cy="0" r="23.7751182962356" fx="0" fy="0" gradientTransform="matrix( 0.9242856218923371, 0.38170157081560674, 0.38170157081560674, -0.9242856218923371, 1886.4,544.45) " spreadMethod="pad">
<stop  offset="0%" stop-color="#87F6FE"/>

<stop  offset="100%" stop-color="#87F6FE" stop-opacity="0"/>
</radialGradient>

<radialGradient id="Gradient_7" gradientUnits="userSpaceOnUse" cx="0" cy="0" r="35.80885234477635" fx="0" fy="0" gradientTransform="matrix( 0.9243524389250217, 0.38153973404269215, 0.38153973404269215, -0.9243524389250217, 1902.8,563.1) " spreadMethod="pad">
<stop  offset="0%" stop-color="#87F6FE"/>

<stop  offset="100%" stop-color="#87F6FE" stop-opacity="0"/>
</radialGradient>

<radialGradient id="Gradient_8" gradientUnits="userSpaceOnUse" cx="0" cy="0" r="86.36252442465995" fx="0" fy="0" gradientTransform="matrix( 0.6105078603393037, 0.7920101971969346, 1.443334372523361, -1.1121722140462802, 1450.15,696.55) " spreadMethod="pad">
<stop  offset="0%" stop-color="#2FEBFA" stop-opacity="0.3686274509803922"/>

<stop  offset="100%" stop-color="#2CEBFD" stop-opacity="0"/>
</radialGradient>

<radialGradient id="Gradient_9" gradientUnits="userSpaceOnUse" cx="0" cy="0" r="70.94632764456523" fx="0" fy="0" gradientTransform="matrix( 0.9646376672639883, -0.2635795342880231, -0.11998506875009608, -0.4394166834988834, 1708.7,516.6) " spreadMethod="pad">
<stop  offset="0%" stop-color="#2FEBFA" stop-opacity="0.3686274509803922"/>

<stop  offset="100%" stop-color="#2CEBFD" stop-opacity="0"/>
</radialGradient>

<radialGradient id="Gradient_10" gradientUnits="userSpaceOnUse" cx="0" cy="0" r="62.88673473992743" fx="0" fy="0" gradientTransform="matrix( 0.9747683713188564, 0.22321877671106766, 0.10733583207834063, -0.4688985701348251, 1858.6,571.6) " spreadMethod="pad">
<stop  offset="0%" stop-color="#2FEBFA" stop-opacity="0.3686274509803922"/>

<stop  offset="100%" stop-color="#2CEBFD" stop-opacity="0"/>
</radialGradient>

<g id="Layer0_0_FILL">
<path fill="#437879" stroke="none" d="
M 1965 371.5
Q 1971.65546875 363.3654296875 1976.85 356.2 1975.671484375 357.7486328125 1970.35 362.65 1963.6 368.9 1956 374.9 1934.1 392.15 1920 396 1913.8 397.7 1897.75 400.65 1876.15 404.6 1868.9 406.15 1831.55 413.85 1820 423 1814.05 427.7 1803.55 437.9 1790.9 450.45 1784.25 456.9 1759.25 481.15 1747 487 1740.55 490.05 1717.45 497.7 1687.9 507.3 1672 512.65 1610.65 533.15 1603 542 1594.55 551.75 1555.75 574.75 1534.8 587.2 1495 609 1485.35 614.3 1474.9 627.75 1462.75 644.7 1455.5 653.9 1442.6 670.25 1428.65 680.6 1410.25 694.15 1386 701 1336.55 714.95 1295.25 740.75 1277.7 751.7 1265.05 762.9 1253 773.5 1248 782
L 1231 811 1436 811
Q 1441 794 1448.4 774.9 1463.15 736.65 1475 726 1485.8 716.35 1500.5 684.5 1507.75 668.4 1511 661.6 1516.5 650.15 1520 646 1523.55 641.8 1535.2 634.65 1537.25 633.4 1558.25 621.25 1589.2 603.35 1592 595 1596.6 581.2 1609.9 568.75 1626.9 552.8 1654 544 1695.85 530.4 1724.5 519 1765.7 502.6 1771 494 1777.15 484 1801.9 459.5 1826.95 434.65 1835 431 1840.5 428.5 1860.25 419.25 1880.2 410.9 1896 409 1913.6 406.9 1924.9 402.9 1934.15 399.6 1944 393 1951.5 388 1965 371.5 Z"/>
</g>

<g id="Layer0_1_FILL">
<path fill="url(#Gradient_1)" stroke="none" d="
M 1964.05 372.65
Q 1970.6 364.7 1976.85 356.15 1972.3 362.05 1955.4 375.35 1933.9 392.2 1920 396 1913.8 397.7 1897.75 400.65 1876.15 404.6 1868.9 406.15 1831.55 413.85 1820 423 1814.05 427.7 1803.55 437.9 1790.9 450.45 1784.25 456.9 1759.25 481.15 1747 487 1740.55 490.05 1717.45 497.7 1687.9 507.3 1672 512.65 1610.65 533.15 1603 542 1594.55 551.75 1555.75 574.75 1534.8 587.2 1495 609 1485.35 614.3 1474.9 627.75 1462.75 644.7 1455.5 653.9 1442.6 670.25 1428.65 680.6 1410.25 694.15 1386 701 1336.55 714.95 1295.25 740.75 1277.7 751.7 1265.05 762.9 1253 773.5 1248 782
L 1231 811 1436 811
Q 1441 794 1448.4 774.9 1463.15 736.65 1475 726 1485.8 716.35 1500.5 684.5 1507.75 668.4 1511 661.6 1516.5 650.15 1520 646 1523.55 641.8 1535.2 634.65 1537.25 633.4 1558.25 621.25 1589.2 603.35 1592 595 1596.6 581.2 1609.9 568.75 1626.9 552.8 1654 544 1695.85 530.4 1724.5 519 1765.7 502.6 1771 494 1777.15 484 1801.9 459.5 1826.95 434.65 1835 431 1840.5 428.5 1860.25 419.25 1880.2 410.9 1896 409 1913.6 406.9 1924.9 402.9 1934.15 399.6 1944 393 1951.2 388.2 1964.05 372.65
M 1558.25 575.6
Q 1595.95 553.15 1604.5 543.3 1609.8 537.15 1641.6 525.35 1660.2 518.45 1700.55 505.3 1721.25 498.55 1729.4 495.8 1742.8 491.2 1747.85 488.8 1756.75 484.5 1770.8 472.15 1779.1 464.8 1795.7 448.4 1813.75 430.45 1821.2 424.55 1829.85 417.75 1852.3 411.95 1865.5 408.55 1893.4 403.45 1913.6 399.8 1920.5 397.9 1936.2 393.6 1960.45 373.75 1949.35 387 1942.85 391.3 1933 397.85 1923.9 401.1 1913.05 404.9 1895.75 407 1881.85 408.65 1865 415.15 1855.2 418.95 1840.65 426.05 1836.05 428.3 1834.15 429.15 1825.75 432.95 1800.35 458.15 1775.45 482.85 1769.25 492.95 1765.05 499.8 1734.7 512.65 1704.4 525.5 1653.35 542.05 1622.6 552.05 1604.85 570.9 1594.05 582.4 1590.1 594.35 1588.35 599.55 1575.7 608.15 1568.15 613.25 1550.15 623.55 1536.2 631.55 1531 634.9 1521.7 640.8 1518.45 644.7 1515.35 648.35 1511.15 656.65 1508.55 661.8 1502.95 674.25 1494.1 693.8 1489.25 702.75 1481 717.95 1473.65 724.5 1462.25 734.7 1448.5 768.95 1440.6 788.65 1434.5 809
L 1234.45 809 1249.7 783
Q 1254.35 775.1 1265.8 764.9 1278.1 753.95 1295.1 743.15 1336.3 717.05 1386.5 702.9 1416.75 694.4 1438.4 675.15 1451.1 663.85 1467.95 640.45 1476.8 628.15 1481.3 623.05 1488.6 614.75 1495.95 610.75
L 1497.05 610.1
Q 1536.65 588.45 1558.25 575.6 Z"/>
</g>

<g id="Layer0_2_FILL">
<path fill="#75B5B4" stroke="none" d="
M 1770.7 494
Q 1773.55 491.75 1774.5 488 1775.45 484.25 1774.05 480
L 1772.5 476.5 1772.5 479.5
Q 1772.5 481.6 1770.7 487.65 1769.05 493.35 1768 495.5
L 1770.7 494 Z"/>
</g>

<g id="Layer0_3_FILL">
<path fill="#75B5B4" stroke="none" d="
M 1757.25 486.65
Q 1750.75 486.9 1744.5 490 1741.9 491.3 1749.55 489.35 1759 487 1760 487
L 1762.5 487
Q 1760.5 486.5 1757.25 486.65 Z"/>
</g>

<g id="Layer0_4_FILL">
<path fill="#75B5B4" stroke="none" d="
M 1632 541.5
L 1631.5 544
Q 1631 546.5 1628.7 550.4 1625.85 555.15 1622.5 557.5
L 1625.9 556.15
Q 1629.65 554.4 1631.5 552.5 1633.4 550.65 1632.9 545.9
L 1632 541.5 Z"/>
</g>

<g id="Layer0_5_FILL">
<path fill="#ACF9F5" stroke="none" d="
M 1615.5 539.5
Q 1612.4 538.8 1609.05 539.65 1606.5 540.25 1603 542
L 1596.5 549 1603 545
Q 1607.05 542.5 1613.95 541.25 1617.4 540.65 1620 540.5
L 1615.5 539.5 Z"/>
</g>

<g id="Layer0_6_FILL">
<path fill="#3C6162" stroke="none" d="
M 1584.95 593.05
Q 1586.25 587.5 1587.5 584.5 1589.45 579.8 1594.4 573.25 1599.5 566.4 1603.5 563.5 1607.15 560.85 1625.5 548 1630 544.85 1634.2 542.65 1639.45 539.85 1642.5 539.5 1645.3 539.2 1654.05 536.2 1658.65 534.65 1664.5 532.5 1665.25 532.25 1669.05 528.7 1672.6 525.4 1677 524.5 1684.85 522.95 1693 520.5 1703.7 517.3 1706 515 1708.45 512.55 1715.45 510.25 1721.55 508.25 1729 507 1733.05 506.3 1737.75 502.8 1742.1 499.55 1748 499 1754.9 498.4 1760.65 493.65 1763.5 491.25 1765 489 1763.65 490.4 1761.65 491.95 1757.65 495.05 1754.5 496 1752.45 496.6 1747.65 497.05 1744.1 497.4 1743 498.5 1742 499.5 1741.9 499.45 1741.5 499.25 1740 500 1736.4 501.8 1734.15 502.65 1729.35 504.35 1721.5 506 1716.85 506.95 1698 513.95 1681.6 520 1676 520 1670.4 520 1660.4 526.2 1648.3 533.65 1644 535 1634 537.75 1630.2 539 1623.95 541.05 1620.5 544.5 1618.5 546.5 1608.25 554.2 1599.1 561.05 1596 565 1591 572.25 1588.65 575.7 1584.4 581.8 1580.5 584.5 1576.55 587.25 1565.15 590.5 1552.75 593.75 1549 595 1544.75 596.4 1543.7 598.4 1541.7 602 1539.5 604 1535.05 608.1 1531.55 610.15 1528.15 612.1 1522.5 614 1518 615.5 1517.25 616.2 1513.85 619.25 1513.5 619.5 1509.7 622.25 1500.65 625.7 1492.7 628.7 1487 630 1482.9 630.95 1482.2 634.3 1481.75 636.4 1481.5 642 1480.5 648 1479.5 653
L 1477.5 650
Q 1476.25 648.15 1473.5 646.4
L 1471 645 1472 650.5
Q 1472.65 654.15 1471.4 658.3 1470.65 660.75 1468.5 665 1466.5 669 1459.5 684.5 1456.35 691.25 1446.95 697.95 1437.3 704.9 1434.5 701.5 1430.45 696.5 1424.3 700.25 1422.4 701.4 1420.5 703.35
L 1419 705 1422.5 703.5
Q 1425.55 702.2 1428.3 704.45 1431.6 707.1 1433 714 1434.15 719.75 1433.65 719.75 1433.15 719.55 1432.85 719.65 1432.3 719.75 1432 721 1431.05 724.8 1430 726.55 1427.9 730.1 1420.5 738.5 1414 745.85 1415.65 747.55 1416.15 748.1 1417.7 749.1 1419 750.35 1419 752.5
L 1419 770.5
Q 1419 777.1 1415.4 779.55 1409 782.75 1403.5 787.5 1396.65 793.45 1370.9 795.55 1362.8 796.25 1353.85 796.45
L 1346.5 796.5 1351 797
Q 1357.5 797.5 1367.5 797.5 1372.35 797.5 1376.4 798.25 1378.6 798.7 1382.7 799.55 1390.75 800.8 1409.5 797.5 1420.55 795.55 1425.9 791.75 1430.4 788.55 1431.75 783.25 1432.4 780.7 1432.7 772.9 1433 765.8 1434.5 761.5 1437.75 752 1438.45 750.05 1439.15 748.15 1443.5 737.5 1446.95 729.05 1447.25 726 1447.45 723.55 1451 716 1455.3 706.75 1458.2 705 1458.6 704.75 1461.9 703.35 1464.9 702.05 1468 700 1474.2 695.9 1477.7 689.5 1483.9 678.2 1485.5 676 1490.6 669 1492.45 662.8 1493.75 656.25 1494.5 653 1495.85 647.15 1499.5 643.55 1504.3 638.85 1513.5 637.5 1521.6 636.3 1533.05 627.4 1534.2 626.5 1541.15 620.75 1545.25 617.4 1547 616.5 1550.15 614.95 1551.3 615.05 1552.4 615.2 1554.5 614 1555.95 613.2 1561.9 607.7 1566.85 603.1 1570 602.5 1574.15 601.75 1575.45 601.3 1576.75 600.9 1580.5 599 1583.55 597.5 1584.95 593.05 Z"/>
</g>

<g id="Layer0_7_FILL">
<path fill="#75B5B4" stroke="none" d="
M 1555.65 581.3
L 1546 586.3
Q 1524 597.3 1518 601.3 1514.5 603.65 1504.65 608.45 1494.85 613.3 1494.3 613.65 1485.8 619.4 1483.65 623
L 1481.65 626.3 1485.4 621.9
Q 1489.9 617.35 1493.65 616.3 1497.4 615.25 1505.2 611.2 1509.4 608.95 1516 605.3 1521 602.65 1522.65 602 1521.3 605.3 1519.3 606.65
L 1517.3 608 1522.65 605.25
Q 1528.3 602.25 1530 601 1531.35 600 1538 594.25 1544.7 588.8 1548 588 1550.65 587.35 1557.45 585.8 1563.35 584.3 1565.65 582.65 1567.75 581.1 1572.95 575.9 1579.9 568.95 1581.3 567.65 1586.3 563 1592 559.65 1588.85 560.9 1584.95 562.65 1577.2 566.15 1573.65 568.65 1568.1 572.9 1565.15 575.1 1559.9 579.1 1555.65 581.3 Z"/>
</g>

<g id="Layer0_8_FILL">
<path fill="#75B5B4" stroke="none" d="
M 1339.25 754.25
Q 1339.0193359375 755.8384765625 1340 755.6 1340.9 755.4 1342.3 754 1340.9373046875 754.140625 1339.25 754.25
M 1438.65 686.65
Q 1445.35 681.8 1449.4 677.45 1456.15 670.2 1459.65 661 1454.9 666.35 1447.25 672.85 1431.9 685.95 1417.3 692 1407.6 696.05 1387 705.45 1371.1 712.7 1362.65 715.65 1352.5 719.2 1337.55 728.2 1325.55 735.45 1320 740 1316.25 743.75 1315.1 744.8 1313.4 746.45 1310 746.65 1306.45 746.85 1302.85 746.95
L 1300 747 1301.15 748.35
Q 1301.65 750.15 1298.3 752.65 1293.9 755.75 1292.35 756.95 1289.95 758.85 1287.65 762 1284.6 766.15 1283.65 768 1282.35 770.55 1281.65 774.3 1281.05 777.65 1283.45 782.8 1284.65 785.4 1286 787.3
L 1291.15 777.4
Q 1297.3 766.55 1302.3 762 1308.35 756.45 1310.8 755.55 1313.35 754.65 1323 754.65 1333.1880859375 754.65 1339.25 754.25 1339.4751953125 752.84296875 1340.65 750 1343.7 742.6 1349.25 735.4 1354.9 728.05 1358.3 727.3 1361 726.7 1363.45 725.5 1367.6 723.35 1369.3 722.65 1375 720.3 1377.3 719 1375.5 719.25 1373.8 719.25 1370.5 719.25 1371.3 718 1372.25 716.55 1376.3 715.15 1380.05 713.8 1384 713.3 1385.15 713.15 1388.7 712.5 1389.85 712.25 1390.65 712.65 1392 713.3 1394 713.65 1393.9 712.8 1393.55 711.95 1392.75 710.15 1391.3 709.95
L 1389 709.65 1393.55 707.75
Q 1398.75 705.4 1402.3 703.3 1410.25 698.7 1422.65 693.65 1425.5 692.5 1430.5 690.9 1435 689.25 1438.65 686.65 Z"/>
</g>

<g id="Layer0_9_FILL">
<path fill="#75B5B4" stroke="none" d="
M 1831.65 423.65
Q 1837.65 420.95 1852.65 415.65 1849.3 415.65 1845.65 417 1844.35 417.45 1840.15 419.25 1836.7 420.75 1834.65 421.3 1831.9 422.05 1831.05 422.2 1830.15 422.4 1827.65 422.65 1825.85 422.8 1825.2 423.85 1824.05 425.85 1822.3 427.3 1820.2 429.05 1819.5 430 1818.55 431.25 1816.65 433 1814.75 434.7 1806.3 442 1797.95 449.2 1795.65 451.3 1792.95 453.8 1786.35 461.3
L 1780.3 468.3 1780.65 469.3 1786.35 462.75
Q 1792.75 455.7 1796.3 453 1799.15 450.85 1806.55 445.3 1812.9 440.3 1815 437.3 1817.55 433.7 1822.3 429.75 1827.3 425.6 1831.65 423.65 Z"/>
</g>

<g id="Layer0_10_FILL">
<path fill="url(#Gradient_2)" stroke="none" d="
M 1758.5 493.45
Q 1755 493.65 1754 493.65 1750.55 493.65 1745.9 494.5 1737.95 495.9 1730.3 499.3 1719.1 504.3 1708.6 507.95 1694.8 512.75 1684.65 514.3 1675.6 515.7 1658.75 522.85 1640.5 531 1633.3 533.65
L 1626.65 537 1630.65 537.65
Q 1632.65 538 1636.35 538.75 1640.45 538.75 1648.3 535.3 1657.5 531.35 1675.15 525.15 1692.65 519 1706 515 1718.25 511.3 1734.85 504.85 1749.75 499.1 1756 496 1760.6 493.65 1758.5 493.45 Z"/>
</g>

<g id="Layer0_11_FILL">
<path fill="url(#Gradient_3)" stroke="none" d="
M 1601.7 556.25
L 1610 553.3 1604.65 555
Q 1603.2849609375 555.4228515625 1601.7 556.25
M 1571 571.65
Q 1553.85 583.5 1550.65 585 1545.1 587.6 1527.6 597.6 1510.6 607.35 1509 608 1499.1 612.1 1496.95 613.15 1487.4 617.85 1484.65 622.3
L 1480.3 629.3 1485.7 625.95
Q 1491.95 622.2 1496.3 620.3
L 1503.3 617.3
Q 1500.75 618.9 1497.8 621 1492 625.3 1490.3 628
L 1486 634.65 1494.55 627
Q 1504.55 618.8 1511.65 616.3 1514.5 615.3 1522.45 612.8 1524.4244140625 612.1748046875 1526.2 611.3 1524.9591796875 612.0818359375 1523.65 612.95 1514.15 619.2 1510 624 1505.8 628.8 1502.15 633.7
L 1499.3 637.65 1501.7 634.65
Q 1504.85 630.95 1508.5 627.6 1520.15 616.75 1532.65 613 1551.35 607.4 1561.95 602.4 1577 595.3 1584 586.3 1584.3 585.95 1595.65 570.15 1600.55 563.4 1604.3 561 1608.136328125 558.5833984375 1610.25 557.5
L 1596.3 563.3
Q 1593.15 564.65 1589.9 566.65 1589.1 567.15 1589.1 567.1 1589.1 567 1590 566 1592.4 563.2 1596.2 560.1 1599.216015625 557.637890625 1601.7 556.25
L 1593.3 559.3
Q 1586.05 561.2 1571 571.65 Z"/>
</g>

<g id="Layer0_12_FILL">
<path fill="url(#Gradient_4)" stroke="none" d="
M 1444.65 677
Q 1442.3 679.65 1437.85 683.25 1428.95 690.4 1418.3 695 1399.15 703 1388.75 707.5 1370.1 715.65 1360.65 721.3 1351.65 726.7 1332.05 736.35 1301.55 751.4 1301 751.65 1289.55 757.5 1277.6 777.35 1273.9 783.55 1270.6 790.4 1268.9 793.8 1268 796
L 1274 788.3
Q 1277.75 783.5 1287.4 777.6 1292.25 774.65 1296.3 772.65 1295 774.65 1290 779 1286.9 781.7 1282.3 790.1
L 1278.3 798 1293.65 782.3
Q 1297.6 778.35 1314.85 771.1 1323.5 767.5 1331.3 764.65 1331.3 765.15 1330.15 766.85 1327.8 770.25 1322 776.3 1316.15 782.35 1306.5 787.6
L 1298 791.65 1306.3 790.3
Q 1313.5 789.15 1330.95 778.8 1349.7 767.7 1354.3 760.3 1358.5 753.65 1374 743.15 1381.75 737.9 1388.65 734
L 1380 743
Q 1374.55 748.6 1369.85 757.8 1366.5 765.3 1367 764.3 1368.15 761.95 1374.3 755.25 1382.25 746.6 1391.65 739 1398.8 733.15 1423.75 723.7 1447.45 714.65 1452.3 709.65 1458.35 703.4 1466.1 682.4
L 1471.6 665.8
Q 1470.834765625 667.75078125 1469.65 670.3 1468 673.85 1463 679.1
L 1458.3 683.65
Q 1459.55 682.3 1461.15 679.25 1464.3 673.05 1466 664.3 1467.65 655.55 1471.8 646.25
L 1475.65 638.65
Q 1471.65 643.3 1469.3 646.3 1468.65 647.15 1465.1 653.15 1461.95 658.5 1459.65 661 1455.15 666.3 1452.55 669.35 1447.7 674.95 1444.65 677 Z"/>
</g>

<g id="Layer0_13_FILL">
<path fill="#437879" stroke="none" d="
M 1976 546
Q 1962.95 548.3 1948.8 548.2 1946.55 548.15 1919 547 1906.6 546.45 1876.2 555.45 1860.35 560.1 1854.95 561.4 1844.3 564 1839 563.5 1827.65 562.45 1805.2 551.8 1784.05 541.8 1775.5 534.5 1767 527.2 1753.4 520.7 1738.5 513.55 1727.5 512.5 1717.6 511.55 1712.8 514.35 1711.15 515.3 1709.4 517.1 1707 519.6 1706.5 520 1704.35 521.8 1707.3 523.65 1710 525.3 1716 526.5 1719.55 527.2 1732.25 531.55 1746.4 536.4 1754.5 538.5 1761.55 540.3 1780.7 551.3 1800.25 562.55 1812.5 566 1828.15 570.45 1849.2 575.05 1866.05 578.8 1881 581.5 1892.3 583.55 1904.15 589.55 1913.1 594.15 1925 602.5 1936.35 610.5 1945.65 614 1957.1 618.35 1970 618 1981.55 617.7 1987.45 612.3 1990.4 609.65 1991 607 1990 609.15 1986.2 611.2 1978.55 615.3 1964.5 615 1951.05 614.7 1926.4 596.9 1924.95 595.85 1909.25 583.9 1900.8 577.55 1898 576.5 1892.05 574.3 1875.45 572.2
L 1860 570.5 1868.55 567.75
Q 1878.7 564.25 1886.5 560.5 1895.5 556.2 1905.4 553.8 1914.6 551.6 1920.5 552 1937.9 553.15 1943.5 553.4 1962 554.1 1968 552.5 1980 549.35 1984.55 548.3 1994.8 546 2000 546 2005 546 2013.75 548.5 2018.15 549.75 2021.5 551
L 2015.5 547.5
Q 2010.65 544.65 2001 544.15 1990.2 543.5 1976 546 Z"/>
</g>

<g id="Layer0_14_FILL">
<path fill="#75B5B4" stroke="none" d="
M 1967.7 551.5
Q 1963.75 552.55 1953.7 552.55 1942.45 552.55 1923.25 551.15 1921.25 551 1920.55 551 1919.45 550.9 1918.75 550.9 1912.75 550.9 1904.35 553 1894.8 555.35 1886.05 559.55 1878.35 563.25 1868.3 566.7 1859.8 569.5 1859.7 569.5
L 1854.5 571 1859.9 571.45
Q 1860.05 571.5 1875.4 573.15 1891.85 575.3 1897.65 577.4 1899.6 578.15 1903.95 581.25 1906.65 583.2 1913.1 588.15 1929.6 600.8 1938.6 606.3 1954.2 615.75 1964.45 616
L 1966.35 616
Q 1978.3 616 1985.45 612.65 1979.9 616.7 1969.95 617
L 1968 617
Q 1956 617 1945.25 612.8 1936.45 609.3 1925.55 601.65 1913.75 593.35 1904.8 588.8 1892.7 582.6 1881.15 580.5 1865.9 577.75 1848.7 573.9 1828.1 569.35 1812.75 565 1804.6 562.7 1795 557.95 1789.25 555.1 1778.9 549.1 1770.35 544.2 1766.3 542.15 1759.6 538.75 1754.75 537.5 1747.15 535.55 1731.5 530.25 1719.65 526.15 1716.15 525.5 1711.55 524.55 1709.25 523.45
L 1706.8 523.25
Q 1709.4 525.15 1716 526.5 1719.55 527.2 1732.25 531.55 1746.4 536.4 1754.5 538.5 1761.55 540.3 1780.7 551.3 1800.25 562.55 1812.5 566 1828.15 570.45 1849.2 575.05 1866.05 578.8 1881 581.5 1892.3 583.55 1904.15 589.55 1913.1 594.15 1925 602.5 1935.9 610.15 1944.85 613.7 1955.8 618 1968 618
L 1970 618
Q 1981.55 617.7 1987.45 612.3 1990.4 609.65 1991 607 1990.05 609 1986.5 611 1979.4 615 1966.35 615
L 1964.5 615
Q 1951.05 614.7 1926.4 596.9 1924.95 595.85 1909.25 583.9 1900.8 577.55 1898 576.5 1892.05 574.3 1875.45 572.2
L 1860 570.5 1868.55 567.75
Q 1878.7 564.25 1886.5 560.5 1894.85 556.45 1904.05 554.1 1912.6 551.9 1918.75 551.9 1919.4 551.9 1920.5 552 1923.05 552.15 1934.3 552.9 1945.85 553.55 1953.7 553.55 1963.95 553.55 1968 552.5 1980 549.35 1984.55 548.3 1994.8 546 2000 546 2005 546 2013.75 548.5 2018.15 549.75 2021.5 551
L 2015.5 547.5
Q 2009.55 544 1996.7 544 1987.3 544 1976 546 1963.6 548.15 1950.2 548.15 1944.55 548.15 1935.75 547.75 1925.2 547.25 1919 547
L 1917.15 546.95
Q 1905 546.95 1876.7 555.25 1848.45 563.55 1840.9 563.55
L 1839 563.5
Q 1827.65 562.45 1805.2 551.8 1784.05 541.8 1775.5 534.5 1767 527.2 1753.4 520.7 1738.5 513.55 1727.5 512.5 1724.75 512.2 1722.6 512.2 1717.9 512.2 1714.65 513.45
L 1717.75 513.6
Q 1719.9 513.2 1722.6 513.2 1724.5 513.2 1727.4 513.45 1738.05 514.5 1752.6 521.4 1766.15 527.85 1774.8 535.25 1783.5 542.7 1804.7 552.7 1827.35 563.4 1838.9 564.45 1839.5 564.55 1840.9 564.55 1846.15 564.55 1855.45 562.3 1861.15 560.9 1873.7 557.2 1888.65 552.75 1896.35 550.95 1909.1 547.95 1917.15 547.95
L 1929.35 548.45
Q 1942.85 549.15 1950.2 549.15 1963.75 549.15 1976.15 546.95 1987.4 545 1996.7 545
L 1998.65 545
Q 1993.55 545.25 1984.75 547.2 1979.45 548.4 1969.85 550.95
L 1967.7 551.5 Z"/>
</g>

<g id="Layer0_15_FILL">
<path fill="#3C6162" stroke="none" d="
M 1800.4 555.15
Q 1793.65 552.5 1791.75 551.75 1788.25 550.35 1778.3 545.5 1767.35 540.2 1765 538.5 1762.6 536.8 1760.25 535.8 1758.7 535.15 1755.5 534.25 1746.75 531.75 1742.25 529.5 1738.45 527.6 1737.75 527.3 1735.55 526.4 1733.25 526.25 1731.9 526.15 1728.1 524.05 1724.45 522 1721.25 522 1713.222265625 522 1711.3 520.5
L 1712 521.45
Q 1714 523.2 1717.75 523.5 1720.6 523.75 1730.2 527.95 1740.2 532.35 1744.75 533 1750.45 533.8 1759.15 537.65 1763.5 539.6 1772 544 1775.4 545.75 1790.1 553.5 1804.15 560.7 1809.5 562.25 1815.6 564.05 1828.4 567.35 1840.7 570.5 1845.25 571.5
L 1851 572.75
Q 1842.45 570.55 1833.15 567.9 1814.5 562.6 1810.75 560.25 1806.95 557.9 1800.4 555.15 Z"/>
</g>

<g id="Layer0_16_FILL">
<path fill="url(#Gradient_5)" stroke="none" d="
M 1790.4 550.7
Q 1803.3 557.3 1812 560.75 1819.25 563.65 1824.05 565.65 1825.8 566.25 1831 566.75
L 1841 567.75
Q 1836.45 566.35 1829.8 564.1 1816.5 559.6 1806 555.25 1789.65 548.45 1777.65 539.7 1767.75 531.5 1765 529.75 1759.1 526 1749.4 521.95 1736.85 516.75 1728.75 516.25 1725.1 515.9 1723.2 515.8 1719.85 515.6 1717.5 516.25 1715.15 516.9 1713.6 517.9
L 1712.5 518.75 1721.2 518.95
Q 1730.55 519.45 1733.5 521
L 1737.15 522.95
Q 1736.81484375 522.81015625 1736.45 522.65 1732.3 520.75 1729.5 520.75
L 1722.5 520.75 1725.65 522
Q 1729.5 523.75 1733.25 526.25 1736.6 528.5 1752.3 534.15 1770 540.45 1773.25 542
L 1790.4 550.7 Z"/>
</g>

<g id="Layer0_17_FILL">
<path fill="url(#Gradient_6)" stroke="none" d="
M 1852.5 565.75
L 1853.75 565.95
Q 1855.4 566.15 1857.25 566 1860.25 565.75 1865.45 564.3 1872.1 562.4 1877.25 559.75 1882.1 557.25 1892.8 553.9 1898.15 552.2 1902.5 551
L 1899.25 551
Q 1896.65 551 1889.5 552.95 1881.9 555.05 1875.25 557.75 1869.45 560.1 1860.4 563.15
L 1852.5 565.75 Z"/>
</g>

<g id="Layer0_18_FILL">
<path fill="url(#Gradient_7)" stroke="none" d="
M 1857.5 573.5
L 1862.25 573.75
Q 1866.65 574 1881.45 577.4 1897.5 581.15 1901.75 583.5 1908 587 1924.25 597.5
L 1922.75 596.25
Q 1919.7 594.3 1916.75 592.45 1910.9 588.7 1907 585.25 1902.75 581.5 1897.25 579.45 1894.55 578.45 1888.25 577 1884.8 576.2 1874.95 574.9
L 1865.75 573.75 1857.5 573.5 Z"/>
</g>

<g id="Layer0_19_FILL">
<path fill="url(#Gradient_8)" stroke="none" d="
M 1544.55 581.3
Q 1525.6 576.35 1501.05 580.15 1476.45 584 1450.05 596.05 1422.75 608.55 1397.35 628.1 1372 647.65 1352.95 670.9 1334.6 693.35 1324.65 716.15 1314.65 738.9 1314.65 758.5 1314.65 778.8 1325.4 792.7 1336.15 806.65 1355.75 811.8 1374.7 816.8 1399.25 813 1423.8 809.15 1450.2 797.1 1477.5 784.6 1502.9 765.05 1528.3 745.5 1547.3 722.25 1565.7 699.8 1575.65 677 1585.65 654.2 1585.65 634.65 1585.65 614.35 1574.9 600.4 1564.15 586.5 1544.55 581.3 Z"/>
</g>

<g id="Layer0_20_FILL">
<path fill="url(#Gradient_9)" stroke="none" d="
M 1654.25 507.8
Q 1636.7 522.4 1640.2 535.35 1643.75 548.25 1666.3 551.9 1688.85 555.55 1717.2 547.8 1745.6 540.1 1763.15 525.45 1780.75 510.85 1777.2 497.9 1773.7 485 1751.1 481.35 1728.55 477.7 1700.15 485.4 1671.8 493.15 1654.25 507.8 Z"/>
</g>

<g id="Layer0_21_FILL">
<path fill="url(#Gradient_10)" stroke="none" d="
M 1797.25 557.55
Q 1794.5 569.8 1810.45 582.55 1826.45 595.3 1851.85 601.1 1877.3 606.9 1897.25 602.4 1917.2 597.85 1919.95 585.65 1922.75 573.45 1906.8 560.65 1890.8 547.9 1865.4 542.05 1840 536.25 1820 540.8 1800.05 545.3 1797.25 557.55 Z"/>
</g>
</defs>

<g transform="matrix( 1, 0, 0, 1, -1231,-356.15) ">
<use xlink:href="#Layer0_0_FILL"/>
</g>

<g transform="matrix( 1, 0, 0, 1, -1231,-356.15) ">
<use xlink:href="#Layer0_1_FILL"/>
</g>

<g transform="matrix( 1, 0, 0, 1, -1231,-356.15) ">
<use xlink:href="#Layer0_2_FILL"/>
</g>

<g transform="matrix( 1, 0, 0, 1, -1231,-356.15) ">
<use xlink:href="#Layer0_3_FILL"/>
</g>

<g transform="matrix( 1, 0, 0, 1, -1231,-356.15) ">
<use xlink:href="#Layer0_4_FILL"/>
</g>

<g transform="matrix( 1, 0, 0, 1, -1231,-356.15) ">
<use xlink:href="#Layer0_5_FILL"/>
</g>

<g transform="matrix( 1, 0, 0, 1, -1231,-356.15) ">
<use xlink:href="#Layer0_6_FILL"/>
</g>

<g transform="matrix( 1, 0, 0, 1, -1231,-356.15) ">
<use xlink:href="#Layer0_7_FILL"/>
</g>

<g transform="matrix( 1, 0, 0, 1, -1231,-356.15) ">
<use xlink:href="#Layer0_8_FILL"/>
</g>

<g transform="matrix( 1, 0, 0, 1, -1231,-356.15) ">
<use xlink:href="#Layer0_9_FILL"/>
</g>

<g transform="matrix( 1, 0, 0, 1, -1231,-356.15) ">
<use xlink:href="#Layer0_10_FILL"/>
</g>

<g transform="matrix( 1, 0, 0, 1, -1231,-356.15) ">
<use xlink:href="#Layer0_11_FILL"/>
</g>

<g transform="matrix( 1, 0, 0, 1, -1231,-356.15) ">
<use xlink:href="#Layer0_12_FILL"/>
</g>

<g transform="matrix( 1, 0, 0, 1, -1231,-356.15) ">
<use xlink:href="#Layer0_13_FILL"/>
</g>

<g transform="matrix( 1, 0, 0, 1, -1231,-356.15) ">
<use xlink:href="#Layer0_14_FILL"/>
</g>

<g transform="matrix( 1, 0, 0, 1, -1231,-356.15) ">
<use xlink:href="#Layer0_15_FILL"/>
</g>

<g transform="matrix( 1, 0, 0, 1, -1231,-356.15) ">
<use xlink:href="#Layer0_16_FILL"/>
</g>

<g transform="matrix( 1, 0, 0, 1, -1231,-356.15) ">
<use xlink:href="#Layer0_17_FILL"/>
</g>

<g transform="matrix( 1, 0, 0, 1, -1231,-356.15) ">
<use xlink:href="#Layer0_18_FILL"/>
</g>

<g transform="matrix( 1, 0, 0, 1, -1231,-356.15) ">
<use xlink:href="#Layer0_19_FILL"/>
</g>

<g transform="matrix( 1, 0, 0, 1, -1231,-356.15) ">
<use xlink:href="#Layer0_20_FILL"/>
</g>

<g transform="matrix( 1, 0, 0, 1, -1231,-356.15) ">
<use xlink:href="#Layer0_21_FILL"/>
</g>
</svg>
