
<svg xmlns="http://www.w3.org/2000/svg" version="1.1" xmlns:xlink="http://www.w3.org/1999/xlink" preserveAspectRatio="none" x="0px" y="0px" width="1282px" height="805px" viewBox="0 0 1282 805">
<defs>
<radialGradient id="Gradient_1" gradientUnits="userSpaceOnUse" cx="0" cy="0" r="28.387500000000003" fx="0" fy="0" gradientTransform="matrix( 1, 0, 0, -0.9392338177014531, 28.4,26.65) " spreadMethod="pad">
<stop  offset="0%" stop-color="#4D6F23"/>

<stop  offset="0%" stop-color="#4C7125"/>

<stop  offset="0%" stop-color="#48782A"/>

<stop  offset="0%" stop-color="#428535"/>

<stop  offset="0%" stop-color="#399744"/>

<stop  offset="0%" stop-color="#2DAE59"/>

<stop  offset="0%" stop-color="#22CB73"/>

<stop  offset="0%" stop-color="#1AED91"/>

<stop  offset="0%" stop-color="#18FEA0"/>

<stop  offset="100%" stop-color="#19FFA2" stop-opacity="0"/>
</radialGradient>

<radialGradient id="Gradient_2" gradientUnits="userSpaceOnUse" cx="0" cy="0" r="18.862500000000004" fx="0" fy="0" gradientTransform="matrix( 0.9999999999999999, 0, 0, -0.9390324718356526, 18.9,17.75) " spreadMethod="pad">
<stop  offset="0%" stop-color="#4D6F23"/>

<stop  offset="0%" stop-color="#4C7125"/>

<stop  offset="0%" stop-color="#48782A"/>

<stop  offset="0%" stop-color="#428535"/>

<stop  offset="0%" stop-color="#399744"/>

<stop  offset="0%" stop-color="#2DAE59"/>

<stop  offset="0%" stop-color="#22CB73"/>

<stop  offset="0%" stop-color="#1AED91"/>

<stop  offset="0%" stop-color="#18FEA0"/>

<stop  offset="100%" stop-color="#19FFA2" stop-opacity="0"/>
</radialGradient>

<radialGradient id="Gradient_3" gradientUnits="userSpaceOnUse" cx="0" cy="0" r="10.8875" fx="0" fy="0" gradientTransform="matrix( 1.0000000000000002, 0, 0, -0.9391504018369692, 10.95,10.25) " spreadMethod="pad">
<stop  offset="0%" stop-color="#4D6F23"/>

<stop  offset="0%" stop-color="#4C7125"/>

<stop  offset="0%" stop-color="#48782A"/>

<stop  offset="0%" stop-color="#428535"/>

<stop  offset="0%" stop-color="#399744"/>

<stop  offset="0%" stop-color="#2DAE59"/>

<stop  offset="0%" stop-color="#22CB73"/>

<stop  offset="0%" stop-color="#1AED91"/>

<stop  offset="0%" stop-color="#18FEA0"/>

<stop  offset="100%" stop-color="#19FFA2" stop-opacity="0"/>
</radialGradient>

<radialGradient id="Gradient_4" gradientUnits="userSpaceOnUse" cx="0" cy="0" r="7.887500000000001" fx="0" fy="0" gradientTransform="matrix( 0.9999999999999999, 0, 0, -0.9381933438985736, 7.9,7.4) " spreadMethod="pad">
<stop  offset="0%" stop-color="#4D6F23"/>

<stop  offset="0%" stop-color="#4C7125"/>

<stop  offset="0%" stop-color="#48782A"/>

<stop  offset="0%" stop-color="#428535"/>

<stop  offset="0%" stop-color="#399744"/>

<stop  offset="0%" stop-color="#2DAE59"/>

<stop  offset="0%" stop-color="#22CB73"/>

<stop  offset="0%" stop-color="#1AED91"/>

<stop  offset="0%" stop-color="#18FEA0"/>

<stop  offset="100%" stop-color="#19FFA2" stop-opacity="0"/>
</radialGradient>

<radialGradient id="Gradient_5" gradientUnits="userSpaceOnUse" cx="0" cy="0" r="31.4" fx="0" fy="0" gradientTransform="matrix( 1, 0, 0, -0.9390923566878981, 31.4,29.45) " spreadMethod="pad">
<stop  offset="0%" stop-color="#4D6F23"/>

<stop  offset="0%" stop-color="#4C7125"/>

<stop  offset="0%" stop-color="#48782A"/>

<stop  offset="0%" stop-color="#428535"/>

<stop  offset="0%" stop-color="#399744"/>

<stop  offset="0%" stop-color="#2DAE59"/>

<stop  offset="0%" stop-color="#22CB73"/>

<stop  offset="0%" stop-color="#1AED91"/>

<stop  offset="0%" stop-color="#18FEA0"/>

<stop  offset="100%" stop-color="#19FFA2" stop-opacity="0"/>
</radialGradient>

<radialGradient id="Gradient_6" gradientUnits="userSpaceOnUse" cx="0" cy="0" r="40.6875" fx="0" fy="0" gradientTransform="matrix( 1, 0, 0, -0.9391705069124424, 40.75,38.25) " spreadMethod="pad">
<stop  offset="0%" stop-color="#4D6F23"/>

<stop  offset="0%" stop-color="#4C7125"/>

<stop  offset="0%" stop-color="#48782A"/>

<stop  offset="0%" stop-color="#428535"/>

<stop  offset="0%" stop-color="#399744"/>

<stop  offset="0%" stop-color="#2DAE59"/>

<stop  offset="0%" stop-color="#22CB73"/>

<stop  offset="0%" stop-color="#1AED91"/>

<stop  offset="0%" stop-color="#18FEA0"/>

<stop  offset="100%" stop-color="#19FFA2" stop-opacity="0"/>
</radialGradient>

<filter id="Filter_1" x="-20%" y="-20%" width="140%" height="140%" color-interpolation-filters="sRGB">
<feColorMatrix in="SourceGraphic" type="matrix" values="1 0 0 0 0 0 1 0 0 0 0 0 1 0 0 0 0 0 0.2 0" result="result1"/>
</filter>

<filter id="Filter_2" x="-20%" y="-20%" width="140%" height="140%" color-interpolation-filters="sRGB">
<feColorMatrix in="SourceGraphic" type="matrix" values="1 0 0 0 0 0 1 0 0 0 0 0 1 0 0 0 0 0 0.5 0" result="result1"/>
</filter>

<filter id="Filter_3" x="-20%" y="-20%" width="140%" height="140%" color-interpolation-filters="sRGB">
<feColorMatrix in="SourceGraphic" type="matrix" values="1 0 0 0 0 0 1 0 0 0 0 0 1 0 0 0 0 0 0.22 0" result="result1"/>
</filter>

<filter id="Filter_4" x="-20%" y="-20%" width="140%" height="140%" color-interpolation-filters="sRGB">
<feColorMatrix in="SourceGraphic" type="matrix" values="1 0 0 0 0 0 1 0 0 0 0 0 1 0 0 0 0 0 0.08 0" result="result1"/>
</filter>

<g id="FlashAICB_Layer_25__Path__10_0_Layer0_0_FILL">
<path fill="#022629" stroke="none" d="
M 5.65 8.75
Q 12.4 15.25 18 24 23.05 31.8 41.9 93.25 64.75 167.85 71 185 81.25 213.25 129 349.75 162.35 445.1 187 516 198.2 548.25 208.2 583.25 218 580.1 229.85 576.85 219.95 563.8 208.85 544.2 194.4 518.7 184 492 175.8 471.05 133.5 347.4 90.85 222.7 77 187 60.75 145.15 44.25 68.4 36 30 31 0
L 0 4
Q 2.25 5.5 5.65 8.75 Z"/>
</g>

<g id="FlashAICB_Layer_25__Group__0_Layer0_0_MEMBER_0_FILL">
<path fill="#022629" stroke="none" d="
M 72.55 8
Q 72.55 15 71.55 38 70.5 62.15 55.8 191.5 39.15 338.25 26.55 417 11.05 514.15 0 585.85
L 11.5 587.1 11.55 587
Q 12.1 577.25 24.3 488.75 40.95 368 47.55 317 62.55 201 86.55 8
L 72.55 8 Z"/>
</g>

<g id="FlashAICB_Layer_25__Group__0_Layer0_0_MEMBER_1_FILL">
<path fill="#022629" stroke="none" d="
M 119.55 1
L 119.55 11
Q 119.55 15.15 103.55 117.25 85.95 229.5 81.55 267 77.2 303.8 56.05 425.75 43.2 499.7 27 589
L 41.25 590.85
Q 53 493.05 56.55 453 59.1 423.5 84.95 265.75 104.4 146.7 115.55 83 122.55 43 130.55 0
L 119.55 1 Z"/>
</g>

<g id="FlashAICB_Layer_25__Path__9_0_Layer0_0_FILL">
<path fill="#022629" stroke="none" d="
M 1020 17
L 972 19
Q 970 44 969 63 968.45 73.1 951.25 173.25 929.85 297.75 923 342 914.6 396.5 899.5 475.15 884.65 552.6 882 570 877.75 597.6 864.45 616.65 818.5 604.1 754.75 594.25 692.75 584.65 640 581.6
L 640 563
Q 640 546 643.7 523.4 644.6 517.7 652.25 477.75 665.7 407.5 669 340 672.75 263.35 688.4 184.9 693.15 160.8 701.5 125 710.4 86.7 713 74 721.15 34.65 729.9 14.9 734.25 5 737 3
L 688 2
Q 689 5.5 690.15 11.25 692.4 22.75 693 34 693.8 48.55 693 78 692.15 109.7 690 131 688.15 149.4 668.5 298.25 658 377.75 641 506 635.2 550.15 628.6 581 602.15 579.9 584 581 550.1 582.55 528.35 583.65 487.9 585.7 456.2 588.7 449.45 562.65 448.1 503.7 447.85 443.4 447 429 445.3 400.65 444 305.75 442.6 203.35 444 157 446 90 450 0
L 413 4
Q 417 12 421 22.9 429 44.65 429 59 429 70.65 432 139.9 435 209.15 435 220 435 225.4 437.5 278.15 440 330.9 440 370 440 434.3 441.75 590.2 412.95 593.3 387.45 597.6 381.05 586.7 373.2 566.15 365.35 545.45 361 528 345.25 457.5 332 401.15 306.3 291.7 297 275 286 255.2 251.15 160.9 216.6 67.55 212 46 209.3 33.55 210.35 27.35 211.1 22.9 213.6 22
L 166 22 170.5 24.75
Q 177.5 29.75 190 41 197.4 47.65 215.05 84.8 232.25 121 253.15 173.25 302.45 296.7 326 388 342.55 452.15 352.25 517.5 359.2 564.4 361.45 602.45 301.05 614.85 256 635 186 666.25 86 737.75 36 773.5 0 803
L 1282 805
Q 1266.5 797.5 1245.4 786.25 1203.15 763.75 1175 745 1144.65 724.75 1050.25 685.1 960.2 647.25 893 625.35 893.1 594 894 563 894.55 544.65 908.5 466.65 924.75 375.8 929 341 935.9 284.45 952.9 197.4 970.2 108.6 982 71 992 39.15 1007 24.9 1014.5 17.75 1020 17 Z"/>
</g>

<g id="FlashAICB_Layer_25__Path__8_0_Layer0_0_FILL">
<path fill="url(#Gradient_1)" stroke="none" d="
M 56.8 26.65
Q 56.8 15.6 48.5 7.8 40.15 0 28.4 0 16.65 0 8.35 7.8 0 15.65 0 26.65 0 37.7 8.35 45.55 16.65 53.35 28.4 53.35 40.15 53.35 48.5 45.55 56.8 37.7 56.8 26.65 Z"/>
</g>

<g id="FlashAICB_Layer_25__Path__7_0_Layer0_0_FILL">
<path fill="url(#Gradient_2)" stroke="none" d="
M 37.8 17.75
Q 37.8 10.4 32.25 5.2 26.75 0 18.9 0 11.1 0 5.55 5.2 0 10.4 0 17.75 0 25.1 5.55 30.3 11.1 35.5 18.9 35.5 26.75 35.5 32.25 30.3 37.8 25.1 37.8 17.75 Z"/>
</g>

<g id="FlashAICB_Layer_25__Path__6_0_Layer0_0_FILL">
<path fill="url(#Gradient_2)" stroke="none" d="
M 37.8 17.75
Q 37.8 10.4 32.25 5.2 26.75 0 18.9 0 11.1 0 5.55 5.2 0 10.4 0 17.75 0 25.1 5.55 30.3 11.1 35.5 18.9 35.5 26.75 35.5 32.25 30.3 37.8 25.1 37.8 17.75 Z"/>
</g>

<g id="FlashAICB_Layer_25__Path__5_0_Layer0_0_FILL">
<path fill="url(#Gradient_3)" stroke="none" d="
M 21.85 10.25
Q 21.85 6 18.65 3 15.45 0 10.95 0 6.4 0 3.2 3 0 6 0 10.25 0 14.5 3.2 17.5 6.4 20.5 10.95 20.5 15.45 20.5 18.65 17.5 21.85 14.5 21.85 10.25 Z"/>
</g>

<g id="FlashAICB_Layer_25__Path__4_0_Layer0_0_FILL">
<path fill="url(#Gradient_2)" stroke="none" d="
M 37.8 17.75
Q 37.8 10.4 32.25 5.2 26.75 0 18.9 0 11.1 0 5.55 5.2 0 10.4 0 17.75 0 25.1 5.55 30.3 11.1 35.5 18.9 35.5 26.75 35.5 32.25 30.3 37.8 25.1 37.8 17.75 Z"/>
</g>

<g id="FlashAICB_Layer_25__Path__3_0_Layer0_0_FILL">
<path fill="url(#Gradient_4)" stroke="none" d="
M 15.8 7.4
Q 15.8 4.3 13.5 2.15 11.2 0 7.9 0 4.65 0 2.3 2.15 0 4.35 0 7.4 0 10.45 2.3 12.65 4.65 14.8 7.9 14.8 11.2 14.8 13.5 12.65 15.8 10.5 15.8 7.4 Z"/>
</g>

<g id="FlashAICB_Layer_25__Path__2_0_Layer0_0_FILL">
<path fill="url(#Gradient_2)" stroke="none" d="
M 37.8 17.75
Q 37.8 10.4 32.25 5.2 26.75 0 18.9 0 11.1 0 5.55 5.2 0 10.4 0 17.75 0 25.1 5.55 30.3 11.1 35.5 18.9 35.5 26.75 35.5 32.25 30.3 37.8 25.1 37.8 17.75 Z"/>
</g>

<g id="FlashAICB_Layer_25__Path__1_0_Layer0_0_FILL">
<path fill="url(#Gradient_5)" stroke="none" d="
M 62.8 29.5
Q 62.8 17.3 53.6 8.65 44.4 0 31.4 0 18.4 0 9.2 8.65 0 17.3 0 29.5 0 41.7 9.2 50.3 18.4 58.95 31.4 58.95 44.4 58.95 53.6 50.3 62.8 41.7 62.8 29.5 Z"/>
</g>

<g id="FlashAICB_Layer_25__Path__0_Layer0_0_FILL">
<path fill="url(#Gradient_6)" stroke="none" d="
M 69.55 11.2
Q 57.65 0 40.75 0 23.85 0 11.95 11.2 0 22.4 0 38.25 0 54.1 11.95 65.3 23.9 76.5 40.75 76.5 57.6 76.5 69.55 65.3 81.45 54.1 81.45 38.25 81.45 22.4 69.55 11.2 Z"/>
</g>
</defs>

<g transform="matrix( 1, 0, 0, 1, 92,35) ">
<g transform="matrix( 1, 0, 0, 1, 0,0) ">
<use filter="url(#Filter_1)" xlink:href="#FlashAICB_Layer_25__Path__10_0_Layer0_0_FILL"/>
</g>
</g>

<g transform="matrix( 1, 0, 0, 1, 690.45,0) ">
<g transform="matrix( 1, 0, 0, 1, 0,0) ">
<use filter="url(#Filter_1)" xlink:href="#FlashAICB_Layer_25__Group__0_Layer0_0_MEMBER_0_FILL"/>
</g>

<g transform="matrix( 1, 0, 0, 1, 0,0) ">
<use filter="url(#Filter_1)" xlink:href="#FlashAICB_Layer_25__Group__0_Layer0_0_MEMBER_1_FILL"/>
</g>
</g>

<g transform="matrix( 1, 0, 0, 1, 0,0) ">
<g transform="matrix( 1, 0, 0, 1, 0,0) ">
<use filter="url(#Filter_2)" xlink:href="#FlashAICB_Layer_25__Path__9_0_Layer0_0_FILL"/>
</g>
</g>

<g transform="matrix( 1, 0, 0, 1, 284.1,300.55) ">
<g transform="matrix( 1, 0, 0, 1, 0,0) ">
<use filter="url(#Filter_3)" xlink:href="#FlashAICB_Layer_25__Path__8_0_Layer0_0_FILL"/>
</g>
</g>

<g transform="matrix( 1, 0, 0, 1, 342.1,525.55) ">
<g transform="matrix( 1, 0, 0, 1, 0,0) ">
<use filter="url(#Filter_3)" xlink:href="#FlashAICB_Layer_25__Path__7_0_Layer0_0_FILL"/>
</g>
</g>

<g transform="matrix( 1, 0, 0, 1, 420.1,202.55) ">
<g transform="matrix( 1, 0, 0, 1, 0,0) ">
<use filter="url(#Filter_3)" xlink:href="#FlashAICB_Layer_25__Path__6_0_Layer0_0_FILL"/>
</g>
</g>

<g transform="matrix( 1, 0, 0, 1, 899.1,417.55) ">
<g transform="matrix( 1, 0, 0, 1, 0,0) ">
<use filter="url(#Filter_3)" xlink:href="#FlashAICB_Layer_25__Path__5_0_Layer0_0_FILL"/>
</g>
</g>

<g transform="matrix( 1, 0, 0, 1, 534.1,289.55) ">
<g transform="matrix( 1, 0, 0, 1, 0,0) ">
<use filter="url(#Filter_3)" xlink:href="#FlashAICB_Layer_25__Path__4_0_Layer0_0_FILL"/>
</g>
</g>

<g transform="matrix( 1, 0, 0, 1, 385.1,331.55) ">
<g transform="matrix( 1, 0, 0, 1, 0,0) ">
<use filter="url(#Filter_3)" xlink:href="#FlashAICB_Layer_25__Path__3_0_Layer0_0_FILL"/>
</g>
</g>

<g transform="matrix( 1, 0, 0, 1, 800.1,360.55) ">
<g transform="matrix( 1, 0, 0, 1, 0,0) ">
<use filter="url(#Filter_4)" xlink:href="#FlashAICB_Layer_25__Path__2_0_Layer0_0_FILL"/>
</g>
</g>

<g transform="matrix( 1, 0, 0, 1, 709.1,203.55) ">
<g transform="matrix( 1, 0, 0, 1, 0,0) ">
<use filter="url(#Filter_4)" xlink:href="#FlashAICB_Layer_25__Path__1_0_Layer0_0_FILL"/>
</g>
</g>

<g transform="matrix( 1, 0, 0, 1, 288.1,191.55) ">
<g transform="matrix( 1, 0, 0, 1, 0,0) ">
<use filter="url(#Filter_4)" xlink:href="#FlashAICB_Layer_25__Path__0_Layer0_0_FILL"/>
</g>
</g>
</svg>
