
<svg xmlns="http://www.w3.org/2000/svg" version="1.1" xmlns:xlink="http://www.w3.org/1999/xlink" preserveAspectRatio="none" x="0px" y="0px" width="477px" height="255px" viewBox="0 0 477 255">
<defs>
<radialGradient id="Gradient_1" gradientUnits="userSpaceOnUse" cx="0" cy="0" r="75.8387186732476" fx="0" fy="0" gradientTransform="matrix( 0.8659824578914875, 0.5000743770922674, 0.5340280098150779, -1.0235536854788994, 1570.15,-114.75) " spreadMethod="pad">
<stop  offset="0%" stop-color="#4D6F23"/>

<stop  offset="0%" stop-color="#4E7025"/>

<stop  offset="0%" stop-color="#51752B"/>

<stop  offset="0%" stop-color="#567D36"/>

<stop  offset="0%" stop-color="#5E8846"/>

<stop  offset="0%" stop-color="#68975C"/>

<stop  offset="0%" stop-color="#74A978"/>

<stop  offset="0%" stop-color="#82BE99"/>

<stop  offset="0%" stop-color="#93D7BF"/>

<stop  offset="0%" stop-color="#A6F2EA"/>

<stop  offset="0%" stop-color="#AFFFFE"/>

<stop  offset="100%" stop-color="#71A5A5" stop-opacity="0"/>
</radialGradient>

<radialGradient id="Gradient_2" gradientUnits="userSpaceOnUse" cx="0" cy="0" r="52.5587320290359" fx="0" fy="0" gradientTransform="matrix( 0.8659360346603637, 0.5001547599260492, 0.5341643322843111, -1.0236167792304876, 1695,-6.55) " spreadMethod="pad">
<stop  offset="0%" stop-color="#4D6F23"/>

<stop  offset="0%" stop-color="#4E7025"/>

<stop  offset="0%" stop-color="#51752B"/>

<stop  offset="0%" stop-color="#567D36"/>

<stop  offset="0%" stop-color="#5E8846"/>

<stop  offset="0%" stop-color="#68975C"/>

<stop  offset="0%" stop-color="#74A978"/>

<stop  offset="0%" stop-color="#82BE99"/>

<stop  offset="0%" stop-color="#93D7BF"/>

<stop  offset="0%" stop-color="#A6F2EA"/>

<stop  offset="0%" stop-color="#AFFFFE"/>

<stop  offset="100%" stop-color="#71A5A5" stop-opacity="0"/>
</radialGradient>

<radialGradient id="Gradient_3" gradientUnits="userSpaceOnUse" cx="0" cy="0" r="33.08662871916698" fx="0" fy="0" gradientTransform="matrix( 0.865908710227801, 0.5002020647214697, 0.5342037156466451, -1.0234496928477805, 1808.6,27.25) " spreadMethod="pad">
<stop  offset="0%" stop-color="#4D6F23"/>

<stop  offset="0%" stop-color="#4E7025"/>

<stop  offset="0%" stop-color="#51752B"/>

<stop  offset="0%" stop-color="#567D36"/>

<stop  offset="0%" stop-color="#5E8846"/>

<stop  offset="0%" stop-color="#68975C"/>

<stop  offset="0%" stop-color="#74A978"/>

<stop  offset="0%" stop-color="#82BE99"/>

<stop  offset="0%" stop-color="#93D7BF"/>

<stop  offset="0%" stop-color="#A6F2EA"/>

<stop  offset="0%" stop-color="#AFFFFE"/>

<stop  offset="100%" stop-color="#71A5A5" stop-opacity="0"/>
</radialGradient>

<filter id="Filter_1" x="-20%" y="-20%" width="140%" height="140%" color-interpolation-filters="sRGB">
<feGaussianBlur in="SourceGraphic" stdDeviation="2,2" result="result1"/>
</filter>

<g id="Symbol_1_0_Layer0_0_FILL">
<path fill="#437879" stroke="none" d="
M 1442.75 -144.6
L 1429.65 -147.9
Q 1483.55 -130.2 1516.35 -110 1525.45 -104.4 1537.45 -95.6 1548.3 -87.65 1553.15 -84.9 1566.6 -77.35 1586.2 -57.85 1599.75 -44.4 1612.95 -28.7 1621.05 -19.2 1632.4 -11.55 1640.55 -6.05 1649.6 -2.05 1654.75 0.25 1688.1 7.25 1723.7 14.7 1727.6 15.9 1735.95 18.5 1741.8 20.8 1748.35 23.4 1754.45 26.6 1765.1 32.2 1788.8 32.2 1798.85 32.25 1812.2 37.1 1826.7 42.35 1833.9 49.7 1837.7 53.55 1853 74.7 1866.6 93.55 1873.05 98.15 1880.25 103.3 1894.45 105.95 1901.5 107.3 1907.15 107.6
L 1884.6 101.8
Q 1871.4 98.45 1855.2 73.9 1847.1 61.05 1843.5 55.5 1837.35 46.05 1833.6 43.05 1815.15 28.2 1780.4 27.75 1765.6 27.6 1754.85 22.6 1751.45 21 1747.05 18.2 1742.05 15.05 1740.55 14.25 1737.95 12.85 1726.15 10.25 1710.1 6.85 1700.55 4.7 1662.4 -3.9 1646.15 -12.4 1636.85 -17.3 1629.2 -24.45 1624.8 -28.55 1614.7 -39.9 1591.25 -66.4 1562.85 -88.45 1528.6 -115.05 1475.7 -134.15 1459.2 -140.1 1442.75 -144.6 Z"/>
</g>

<g id="Symbol_1_0_Layer0_1_FILL">
<path fill="#75B5B4" stroke="none" d="
M 1429.65 -147.9
Q 1443.15 -143.4 1454.2 -139.3 1494.6 -124.25 1521.45 -106.8 1528.1 -102.5 1539.2 -94.3 1548.35 -87.6 1553.15 -84.9 1566.6 -77.35 1586.2 -57.85 1599.75 -44.4 1612.95 -28.7 1621.05 -19.2 1632.4 -11.55 1640.55 -6.05 1649.6 -2.05
L 1650.5 -1.65
Q 1656.9 0.7 1689.5 7.55 1723.55 14.65 1727.6 15.9 1734.8 18.2 1739.55 19.95 1747.4 22.9 1754.45 26.6 1755.9 27.35 1758.1 28.2 1768.95 32.2 1788.8 32.2 1793.6 32.25 1800 33.6 1806.45 34.95 1812.9 37.35 1827.05 42.7 1833.9 49.7 1837.7 53.55 1853 74.7 1866.6 93.55 1873.05 98.15 1876.35 100.55 1881.65 102.55 1888.85 105.25 1898.75 106.7 1903.65 107.4 1907.15 107.6
L 1884.6 101.8
Q 1883.1 101.4 1882.35 101.1 1869.9 96.45 1854.35 72.6 1846.6 60.25 1843.15 54.95 1837.25 46 1833.6 43.05 1826.35 37.25 1816.8 33.7 1801.65 28.05 1780.4 27.75 1768.05 27.6 1758.6 24.15 1753.75 22.35 1748.4 19.05 1741 14.5 1740.55 14.25
L 1739.15 13.6
Q 1736.1 12.45 1705.55 5.8 1674.9 -0.9 1658.55 -7 1651.35 -9.7 1646.15 -12.4 1636.85 -17.3 1629.2 -24.45 1624.8 -28.55 1614.7 -39.9 1591.25 -66.4 1562.85 -88.45 1530.35 -113.75 1480.2 -132.5 1462.25 -139.2 1444.15 -144.2
L 1429.65 -147.9
M 1454.5 -140.15
L 1453.85 -140.4
Q 1466.25 -136.7 1479.85 -131.65 1529.65 -113.05 1562.35 -87.7 1581.05 -73.15 1595.35 -59.2 1603.5 -51.2 1615.25 -38 1624.45 -27.55 1629.15 -23.2 1636.65 -16.35 1645.75 -11.6 1650.7 -8.95 1658.25 -6.15 1669.85 -1.85 1687.35 2.5 1697.9 5.1 1715.95 8.95 1734.75 12.95 1738.8 14.45
L 1740.15 15.05
Q 1741.9 15.95 1745.3 18.15 1749.2 20.6 1751.1 21.65 1754.7 23.7 1758.25 25 1768 28.6 1780.3 28.65 1801.55 28.95 1816.45 34.55 1826.05 38.1 1833.1 43.8 1835.95 46.05 1839.9 51.75 1842.15 54.95 1847.75 63.85 1856.2 77.4 1861.25 84 1869.65 95 1877.3 99.65 1875.2 98.6 1873.55 97.4 1869.15 94.25 1862.25 85.6 1858 80.25 1850 69 1843.95 60.65 1841.65 57.6 1837.3 51.85 1834.5 49 1827.35 41.75 1813.25 36.5 1806.7 34.1 1800.25 32.7 1793.8 31.35 1788.9 31.3 1769.05 31.3 1758.4 27.35 1756.9 26.75 1754.85 25.75 1747.4 21.85 1739.85 19.1 1734.85 17.2 1727.85 15.05 1723.3 13.6 1696.95 8.15 1675.2 3.6 1669.4 2.3 1655.1 -0.9 1650.8 -2.5
L 1649.95 -2.85
Q 1627.5 -12.85 1613.6 -29.35 1601.25 -43.95 1588.6 -56.65 1567.7 -77.7 1553.55 -85.7 1548.55 -88.55 1538.75 -95.8 1522.1 -108 1509.1 -115.4 1486.35 -128.3 1454.5 -140.15 Z"/>
</g>

<g id="Symbol_1_0_Layer0_2_FILL">
<path fill="url(#Gradient_1)" stroke="none" d="
M 1505.05 -119.8
Q 1507.29375 -118.687109375 1509.45 -117.45 1528.45 -106.7 1537.85 -101.05 1542 -98.5 1551.95 -91.1 1566.8 -79.95 1569.2 -78.25 1576.25 -73.2 1593.5 -56.5 1602.15 -48.15 1609.35 -40.8 1608.15 -42.9 1603.65 -48.15 1600.2 -52.2 1594 -58.4 1587.6 -64.85 1583.85 -67.9 1545 -99.65 1539.1 -102.2 1535.5 -103.75 1524.45 -109.9
L 1514.15 -115.75 1505.05 -119.8 Z"/>
</g>

<g id="Symbol_1_0_Layer0_3_FILL">
<path fill="url(#Gradient_2)" stroke="none" d="
M 1644.2 -10.9
L 1637.45 -15.35 1638.5 -14.25
Q 1639.75 -12.9 1640.8 -11.5 1641.75 -10.2 1645.15 -8.5 1649.4 -6.35 1650.35 -5.65 1652.65 -4.05 1658.55 -2.1 1664.7 -0.1 1668.65 0.15 1671.3 0.35 1682.4 3.25 1694.4 6.35 1699.45 7.05 1709.35 8.45 1742.4 16.85
L 1738.7 15.5
Q 1733.6 13.55 1732.55 13.25 1728.45 11.9 1723.95 11.3 1721.15 10.9 1709.5 8.15 1698.25 5.5 1692.7 4.85 1687.15 4.25 1679.45 1.75 1670 -1.3 1665.9 -2.15 1659.4 -3.55 1651.15 -7.35
L 1644.2 -10.9 Z"/>
</g>

<g id="Symbol_1_0_Layer0_4_FILL">
<path fill="url(#Gradient_3)" stroke="none" d="
M 1831.4 43.25
Q 1834.4 45.4 1835.4 46.8 1835.3 46.4 1834.7 45.7 1833.6 44.3 1831.4 42.9 1827.35 40.25 1826.75 39.9 1823.8 38.25 1817.3 35.5 1810.9 32.8 1800.9 31.1 1794.85 30.05 1788.7 29.55 1785.95 29.35 1778.2 29.1
L 1771 28.85
Q 1774.15 29.7 1786.3 30.3
L 1795.5 30.75
Q 1805.1 31.8 1815.25 35.4 1825.35 38.95 1831.4 43.25 Z"/>
</g>
</defs>

<g filter="url(#Filter_1)" transform="matrix( 1, 0, 0, 1, 0,0) ">
<g transform="matrix( 1, 0, 0, 1, 0,0) ">
<g transform="matrix( 1, 0, 0, 1, -1429.65,147.9) ">
<use xlink:href="#Symbol_1_0_Layer0_0_FILL"/>
</g>

<g transform="matrix( 1, 0, 0, 1, -1429.65,147.9) ">
<use xlink:href="#Symbol_1_0_Layer0_1_FILL"/>
</g>

<g transform="matrix( 1, 0, 0, 1, -1429.65,147.9) ">
<use xlink:href="#Symbol_1_0_Layer0_2_FILL"/>
</g>

<g transform="matrix( 1, 0, 0, 1, -1429.65,147.9) ">
<use xlink:href="#Symbol_1_0_Layer0_3_FILL"/>
</g>

<g transform="matrix( 1, 0, 0, 1, -1429.65,147.9) ">
<use xlink:href="#Symbol_1_0_Layer0_4_FILL"/>
</g>
</g>
</g>
</svg>
