
<svg xmlns="http://www.w3.org/2000/svg" version="1.1" xmlns:xlink="http://www.w3.org/1999/xlink" preserveAspectRatio="none" x="0px" y="0px" width="178px" height="242px" viewBox="0 0 178 242">
<defs>
<radialGradient id="Gradient_1" gradientUnits="userSpaceOnUse" cx="0" cy="0" r="31.948985214713783" fx="0" fy="0" gradientTransform="matrix( -0.9957280266087786, -0.09233470109220894, 0.0938996960259752, -1.0098129810126748, 81.55,93.9) " spreadMethod="pad">
<stop  offset="0%" stop-color="#859698"/>

<stop  offset="28.235294117647058%" stop-color="#6C7988"/>

<stop  offset="54.90196078431372%" stop-color="#5A657D"/>

<stop  offset="72.54901960784314%" stop-color="#545E79"/>

<stop  offset="78.82352941176471%" stop-color="#4F5872"/>

<stop  offset="87.45098039215686%" stop-color="#42465E"/>

<stop  offset="97.6470588235294%" stop-color="#2C283E"/>

<stop  offset="100%" stop-color="#262136"/>
</radialGradient>

<radialGradient id="Gradient_2" gradientUnits="userSpaceOnUse" cx="0" cy="0" r="25.91138745802702" fx="0" fy="0" gradientTransform="matrix( -0.9957012159921019, -0.09262336892949785, 0.1070957703247319, -1.1553800447195175, 97.6,122.95) " spreadMethod="pad">
<stop  offset="0%" stop-color="#859698"/>

<stop  offset="28.235294117647058%" stop-color="#6C7988"/>

<stop  offset="54.90196078431372%" stop-color="#5A657D"/>

<stop  offset="72.54901960784314%" stop-color="#545E79"/>

<stop  offset="78.82352941176471%" stop-color="#4F5872"/>

<stop  offset="87.45098039215686%" stop-color="#42465E"/>

<stop  offset="97.6470588235294%" stop-color="#2C283E"/>

<stop  offset="100%" stop-color="#262136"/>
</radialGradient>

<radialGradient id="Gradient_3" gradientUnits="userSpaceOnUse" cx="0" cy="0" r="37.95039937207512" fx="0" fy="0" gradientTransform="matrix( -0.9957075715994973, -0.09255502071434295, 0.0764155331164682, -0.8224551128957807, 128.55,71.35) " spreadMethod="pad">
<stop  offset="0%" stop-color="#859698"/>

<stop  offset="28.235294117647058%" stop-color="#6C7988"/>

<stop  offset="54.90196078431372%" stop-color="#5A657D"/>

<stop  offset="72.54901960784314%" stop-color="#545E79"/>

<stop  offset="78.82352941176471%" stop-color="#4F5872"/>

<stop  offset="87.45098039215686%" stop-color="#42465E"/>

<stop  offset="97.6470588235294%" stop-color="#2C283E"/>

<stop  offset="100%" stop-color="#262136"/>
</radialGradient>

<radialGradient id="Gradient_4" gradientUnits="userSpaceOnUse" cx="0" cy="0" r="57.96508917012032" fx="0" fy="0" gradientTransform="matrix( -0.9900355683327742, 0.14081751821418026, -0.16928292771536216, -1.24579295976006, 173.75,113.3) " spreadMethod="pad">
<stop  offset="0%" stop-color="#859698"/>

<stop  offset="28.235294117647058%" stop-color="#6C7988"/>

<stop  offset="54.90196078431372%" stop-color="#5A657D"/>

<stop  offset="72.54901960784314%" stop-color="#545E79"/>

<stop  offset="78.82352941176471%" stop-color="#4F5872"/>

<stop  offset="87.45098039215686%" stop-color="#42465E"/>

<stop  offset="97.6470588235294%" stop-color="#2C283E"/>

<stop  offset="100%" stop-color="#262136"/>
</radialGradient>

<radialGradient id="Gradient_5" gradientUnits="userSpaceOnUse" cx="0" cy="0" r="59.91892699723518" fx="0" fy="0" gradientTransform="matrix( -0.9957204340917686, -0.09241654144199737, 0.09366823274820953, -1.0096976536778042, 128.8,154.8) " spreadMethod="pad">
<stop  offset="0%" stop-color="#859698"/>

<stop  offset="28.235294117647058%" stop-color="#6C7988"/>

<stop  offset="54.90196078431372%" stop-color="#5A657D"/>

<stop  offset="72.54901960784314%" stop-color="#545E79"/>

<stop  offset="78.82352941176471%" stop-color="#4F5872"/>

<stop  offset="87.45098039215686%" stop-color="#42465E"/>

<stop  offset="97.6470588235294%" stop-color="#2C283E"/>

<stop  offset="100%" stop-color="#262136"/>
</radialGradient>

<radialGradient id="Gradient_6" gradientUnits="userSpaceOnUse" cx="0" cy="0" r="81.92594979614212" fx="0" fy="0" gradientTransform="matrix( -0.9957162559968437, -0.09246154629697935, 0.09368216076954673, -1.0097533224313686, 141.95,199.8) " spreadMethod="pad">
<stop  offset="0%" stop-color="#859698"/>

<stop  offset="28.235294117647058%" stop-color="#6C7988"/>

<stop  offset="54.90196078431372%" stop-color="#5A657D"/>

<stop  offset="72.54901960784314%" stop-color="#545E79"/>

<stop  offset="78.82352941176471%" stop-color="#4F5872"/>

<stop  offset="87.45098039215686%" stop-color="#42465E"/>

<stop  offset="97.6470588235294%" stop-color="#2C283E"/>

<stop  offset="100%" stop-color="#262136"/>
</radialGradient>

<radialGradient id="Gradient_7" gradientUnits="userSpaceOnUse" cx="0" cy="0" r="57.59668501745564" fx="0" fy="0" gradientTransform="matrix( -0.9957170275098146, -0.09245323751507868, 0.09375539578993895, -1.009823742154134, 159.1,221.4) " spreadMethod="pad">
<stop  offset="0%" stop-color="#859698"/>

<stop  offset="28.235294117647058%" stop-color="#6C7988"/>

<stop  offset="54.90196078431372%" stop-color="#5A657D"/>

<stop  offset="72.54901960784314%" stop-color="#545E79"/>

<stop  offset="78.82352941176471%" stop-color="#4F5872"/>

<stop  offset="87.45098039215686%" stop-color="#42465E"/>

<stop  offset="97.6470588235294%" stop-color="#2C283E"/>

<stop  offset="100%" stop-color="#262136"/>
</radialGradient>

<radialGradient id="Gradient_8" gradientUnits="userSpaceOnUse" cx="0" cy="0" r="40.08739281245414" fx="0" fy="0" gradientTransform="matrix( -0.9993790363825704, 0.035235516727373, -0.035235516727373, -1.1166228796524134, 176.2,147.65) " spreadMethod="pad">
<stop  offset="0%" stop-color="#859698"/>

<stop  offset="28.235294117647058%" stop-color="#6C7988"/>

<stop  offset="54.90196078431372%" stop-color="#5A657D"/>

<stop  offset="72.54901960784314%" stop-color="#545E79"/>

<stop  offset="78.82352941176471%" stop-color="#4F5872"/>

<stop  offset="87.45098039215686%" stop-color="#42465E"/>

<stop  offset="97.6470588235294%" stop-color="#2C283E"/>

<stop  offset="100%" stop-color="#262136"/>
</radialGradient>

<radialGradient id="Gradient_9" gradientUnits="userSpaceOnUse" cx="0" cy="0" r="49.1734573347248" fx="0" fy="0" gradientTransform="matrix( -0.9957099348681383, -0.09252959313045757, 0.09380060402510672, -1.0096910547092788, 140.85,117.5) " spreadMethod="pad">
<stop  offset="0%" stop-color="#859698"/>

<stop  offset="28.235294117647058%" stop-color="#6C7988"/>

<stop  offset="54.90196078431372%" stop-color="#5A657D"/>

<stop  offset="72.54901960784314%" stop-color="#545E79"/>

<stop  offset="78.82352941176471%" stop-color="#4F5872"/>

<stop  offset="87.45098039215686%" stop-color="#42465E"/>

<stop  offset="97.6470588235294%" stop-color="#2C283E"/>

<stop  offset="100%" stop-color="#262136"/>
</radialGradient>

<radialGradient id="Gradient_10" gradientUnits="userSpaceOnUse" cx="0" cy="0" r="42.87101657880298" fx="0" fy="0" gradientTransform="matrix( -0.9957193322331032, -0.09242841239176976, 0.08543067769964839, -0.9204936842927985, 171.35,201.85) " spreadMethod="pad">
<stop  offset="0%" stop-color="#859698"/>

<stop  offset="28.235294117647058%" stop-color="#6C7988"/>

<stop  offset="54.90196078431372%" stop-color="#5A657D"/>

<stop  offset="72.54901960784314%" stop-color="#545E79"/>

<stop  offset="78.82352941176471%" stop-color="#4F5872"/>

<stop  offset="87.45098039215686%" stop-color="#42465E"/>

<stop  offset="97.6470588235294%" stop-color="#2C283E"/>

<stop  offset="100%" stop-color="#262136"/>
</radialGradient>

<radialGradient id="Gradient_11" gradientUnits="userSpaceOnUse" cx="0" cy="0" r="28.058223504883554" fx="0" fy="0" gradientTransform="matrix( -0.9956973931417098, -0.09266445537963117, 0.1144940626565635, -1.2344865666199902, 95.7,65.55) " spreadMethod="pad">
<stop  offset="0%" stop-color="#859698"/>

<stop  offset="28.235294117647058%" stop-color="#6C7988"/>

<stop  offset="54.90196078431372%" stop-color="#5A657D"/>

<stop  offset="72.54901960784314%" stop-color="#545E79"/>

<stop  offset="78.82352941176471%" stop-color="#4F5872"/>

<stop  offset="87.45098039215686%" stop-color="#42465E"/>

<stop  offset="97.6470588235294%" stop-color="#2C283E"/>

<stop  offset="100%" stop-color="#262136"/>
</radialGradient>

<radialGradient id="Gradient_12" gradientUnits="userSpaceOnUse" cx="0" cy="0" r="26.04945416894565" fx="0" fy="0" gradientTransform="matrix( -0.9957022451134844, -0.09261230520814578, 0.11468570437692664, -1.2341909274370515, 81.1,45.15) " spreadMethod="pad">
<stop  offset="0%" stop-color="#859698"/>

<stop  offset="20%" stop-color="#6C7988"/>

<stop  offset="38.8235294117647%" stop-color="#5A657D"/>

<stop  offset="51.76470588235294%" stop-color="#545E79"/>

<stop  offset="61.96078431372549%" stop-color="#4F5872"/>

<stop  offset="77.6470588235294%" stop-color="#42465E"/>

<stop  offset="96.07843137254902%" stop-color="#2C283E"/>

<stop  offset="100%" stop-color="#262136"/>
</radialGradient>

<radialGradient id="Gradient_13" gradientUnits="userSpaceOnUse" cx="0" cy="0" r="13.206934731420466" fx="0" fy="0" gradientTransform="matrix( -0.995689027576928, -0.09275430104804082, 0.1145231676205402, -1.2342000874147472, 82.5,22.85) " spreadMethod="pad">
<stop  offset="0%" stop-color="#859698"/>

<stop  offset="20%" stop-color="#6C7988"/>

<stop  offset="38.8235294117647%" stop-color="#5A657D"/>

<stop  offset="51.76470588235294%" stop-color="#545E79"/>

<stop  offset="61.96078431372549%" stop-color="#4F5872"/>

<stop  offset="77.6470588235294%" stop-color="#42465E"/>

<stop  offset="96.07843137254902%" stop-color="#2C283E"/>

<stop  offset="100%" stop-color="#262136"/>
</radialGradient>

<radialGradient id="Gradient_14" gradientUnits="userSpaceOnUse" cx="0" cy="0" r="28.497316211355763" fx="0" fy="0" gradientTransform="matrix( -0.995707798922236, -0.09255257514211093, 0.0965003153140493, -1.0413261297979683, 49.4,70.85) " spreadMethod="pad">
<stop  offset="0%" stop-color="#859698"/>

<stop  offset="28.235294117647058%" stop-color="#6C7988"/>

<stop  offset="54.90196078431372%" stop-color="#5A657D"/>

<stop  offset="72.54901960784314%" stop-color="#545E79"/>

<stop  offset="78.82352941176471%" stop-color="#4F5872"/>

<stop  offset="87.45098039215686%" stop-color="#42465E"/>

<stop  offset="97.6470588235294%" stop-color="#2C283E"/>

<stop  offset="100%" stop-color="#262136"/>
</radialGradient>

<radialGradient id="Gradient_15" gradientUnits="userSpaceOnUse" cx="0" cy="0" r="44.05138512294478" fx="0" fy="0" gradientTransform="matrix( -0.9957121638191943, -0.09250560427616339, 0.09364064236544146, -1.0099001399351701, 30.6,62.2) " spreadMethod="pad">
<stop  offset="0%" stop-color="#859698"/>

<stop  offset="28.235294117647058%" stop-color="#6C7988"/>

<stop  offset="54.90196078431372%" stop-color="#5A657D"/>

<stop  offset="72.54901960784314%" stop-color="#545E79"/>

<stop  offset="78.82352941176471%" stop-color="#4F5872"/>

<stop  offset="87.45098039215686%" stop-color="#42465E"/>

<stop  offset="97.6470588235294%" stop-color="#2C283E"/>

<stop  offset="100%" stop-color="#262136"/>
</radialGradient>

<radialGradient id="Gradient_16" gradientUnits="userSpaceOnUse" cx="0" cy="0" r="20.1612135361441" fx="0" fy="0" gradientTransform="matrix( -0.9957237923208572, -0.09238035184047803, 0.18476070368095607, -1.9926875893644054, 46.7,60.15) " spreadMethod="pad">
<stop  offset="0%" stop-color="#859698"/>

<stop  offset="28.235294117647058%" stop-color="#6C7988"/>

<stop  offset="54.90196078431372%" stop-color="#5A657D"/>

<stop  offset="72.54901960784314%" stop-color="#545E79"/>

<stop  offset="78.82352941176471%" stop-color="#4F5872"/>

<stop  offset="87.45098039215686%" stop-color="#42465E"/>

<stop  offset="97.6470588235294%" stop-color="#2C283E"/>

<stop  offset="100%" stop-color="#262136"/>
</radialGradient>

<radialGradient id="Gradient_17" gradientUnits="userSpaceOnUse" cx="0" cy="0" r="41.74158972176311" fx="0" fy="0" gradientTransform="matrix( -0.9957095615438495, -0.09253361038106751, 0.06498315033233544, -0.6992426544977108, 61.95,40.85) " spreadMethod="pad">
<stop  offset="0%" stop-color="#859698"/>

<stop  offset="28.235294117647058%" stop-color="#6C7988"/>

<stop  offset="54.90196078431372%" stop-color="#5A657D"/>

<stop  offset="72.54901960784314%" stop-color="#545E79"/>

<stop  offset="78.82352941176471%" stop-color="#4F5872"/>

<stop  offset="87.45098039215686%" stop-color="#42465E"/>

<stop  offset="97.6470588235294%" stop-color="#2C283E"/>

<stop  offset="100%" stop-color="#262136"/>
</radialGradient>

<radialGradient id="Gradient_18" gradientUnits="userSpaceOnUse" cx="0" cy="0" r="34.220845255487184" fx="0" fy="0" gradientTransform="matrix( -0.9431385975138888, -0.33239973808584, 0.4076462722019752, -1.1809322562983744, 27.4,119.65) " spreadMethod="pad">
<stop  offset="0%" stop-color="#859698"/>

<stop  offset="17.647058823529413%" stop-color="#74838D"/>

<stop  offset="55.294117647058826%" stop-color="#545E79"/>

<stop  offset="61.568627450980394%" stop-color="#4C546E"/>

<stop  offset="86.66666666666667%" stop-color="#312F46"/>

<stop  offset="100%" stop-color="#262136"/>
</radialGradient>

<radialGradient id="Gradient_19" gradientUnits="userSpaceOnUse" cx="0" cy="0" r="16.2692962355475" fx="0" fy="0" gradientTransform="matrix( -0.9957406740559501, -0.09219821056073613, 0.08989325529671773, -0.9719228029944267, 89.3,91.9) " spreadMethod="pad">
<stop  offset="0%" stop-color="#545E79"/>

<stop  offset="21.568627450980394%" stop-color="#4F5872"/>

<stop  offset="53.72549019607843%" stop-color="#42465E"/>

<stop  offset="91.76470588235294%" stop-color="#2C283E"/>

<stop  offset="100%" stop-color="#262136"/>
</radialGradient>

<radialGradient id="Gradient_20" gradientUnits="userSpaceOnUse" cx="0" cy="0" r="21.69239498073" fx="0" fy="0" gradientTransform="matrix( -0.9957406740559501, -0.09219821056073613, 0.10718041977685575, -1.15478258727322, 76.8,103.15) " spreadMethod="pad">
<stop  offset="0%" stop-color="#859698"/>

<stop  offset="28.235294117647058%" stop-color="#6C7988"/>

<stop  offset="54.90196078431372%" stop-color="#5A657D"/>

<stop  offset="72.54901960784314%" stop-color="#545E79"/>

<stop  offset="78.82352941176471%" stop-color="#4F5872"/>

<stop  offset="87.45098039215686%" stop-color="#42465E"/>

<stop  offset="97.6470588235294%" stop-color="#2C283E"/>

<stop  offset="100%" stop-color="#262136"/>
</radialGradient>

<radialGradient id="Gradient_21" gradientUnits="userSpaceOnUse" cx="0" cy="0" r="69.56101862753304" fx="0" fy="0" gradientTransform="matrix( -0.9957085357083186, -0.09254464823854613, 0.10296715231201346, -1.108020002017234, 51.05,177.45) " spreadMethod="pad">
<stop  offset="0%" stop-color="#859698"/>

<stop  offset="21.176470588235293%" stop-color="#6C7988"/>

<stop  offset="41.568627450980394%" stop-color="#5A657D"/>

<stop  offset="55.294117647058826%" stop-color="#545E79"/>

<stop  offset="66.66666666666667%" stop-color="#515B75"/>

<stop  offset="77.25490196078431%" stop-color="#4A506A"/>

<stop  offset="87.84313725490196%" stop-color="#3C3F57"/>

<stop  offset="98.03921568627452%" stop-color="#2A263C"/>

<stop  offset="100%" stop-color="#262136"/>
</radialGradient>

<radialGradient id="Gradient_22" gradientUnits="userSpaceOnUse" cx="0" cy="0" r="65.92034136933758" fx="0" fy="0" gradientTransform="matrix( -0.9957093461067977, -0.09253592856600977, 0.07205666568664695, -0.7753676473492089, 94.7,198.95) " spreadMethod="pad">
<stop  offset="0%" stop-color="#859698"/>

<stop  offset="21.176470588235293%" stop-color="#6C7988"/>

<stop  offset="41.568627450980394%" stop-color="#5A657D"/>

<stop  offset="55.294117647058826%" stop-color="#545E79"/>

<stop  offset="66.66666666666667%" stop-color="#515B75"/>

<stop  offset="77.25490196078431%" stop-color="#4A506A"/>

<stop  offset="87.84313725490196%" stop-color="#3C3F57"/>

<stop  offset="98.03921568627452%" stop-color="#2A263C"/>

<stop  offset="100%" stop-color="#262136"/>
</radialGradient>

<radialGradient id="Gradient_23" gradientUnits="userSpaceOnUse" cx="0" cy="0" r="29.451336981536173" fx="0" fy="0" gradientTransform="matrix( -0.9957103142171313, -0.0925255108692816, 0.12053782149943107, -1.2966304390167673, 39.45,142.5) " spreadMethod="pad">
<stop  offset="0%" stop-color="#859698"/>

<stop  offset="21.176470588235293%" stop-color="#6C7988"/>

<stop  offset="41.568627450980394%" stop-color="#5A657D"/>

<stop  offset="55.294117647058826%" stop-color="#545E79"/>

<stop  offset="66.66666666666667%" stop-color="#515B75"/>

<stop  offset="77.25490196078431%" stop-color="#4A506A"/>

<stop  offset="87.84313725490196%" stop-color="#3C3F57"/>

<stop  offset="98.03921568627452%" stop-color="#2A263C"/>

<stop  offset="100%" stop-color="#262136"/>
</radialGradient>

<radialGradient id="Gradient_24" gradientUnits="userSpaceOnUse" cx="0" cy="0" r="35.95516739635626" fx="0" fy="0" gradientTransform="matrix( -0.9480556612136499, -0.3181044847856581, 0.3904167611085181, -1.1868947661838654, 24,161.1) " spreadMethod="pad">
<stop  offset="0%" stop-color="#859698"/>

<stop  offset="17.647058823529413%" stop-color="#74838D"/>

<stop  offset="55.294117647058826%" stop-color="#545E79"/>

<stop  offset="61.568627450980394%" stop-color="#4C546E"/>

<stop  offset="86.66666666666667%" stop-color="#312F46"/>

<stop  offset="100%" stop-color="#262136"/>
</radialGradient>

<radialGradient id="Gradient_25" gradientUnits="userSpaceOnUse" cx="0" cy="0" r="54.10652109496599" fx="0" fy="0" gradientTransform="matrix( -0.9957210131000729, -0.09241030283991396, 0.10280646190940428, -1.1079995310505684, -5.05,214.45) " spreadMethod="pad">
<stop  offset="0%" stop-color="#859698"/>

<stop  offset="21.176470588235293%" stop-color="#6C7988"/>

<stop  offset="41.568627450980394%" stop-color="#5A657D"/>

<stop  offset="55.294117647058826%" stop-color="#545E79"/>

<stop  offset="66.66666666666667%" stop-color="#515B75"/>

<stop  offset="77.25490196078431%" stop-color="#4A506A"/>

<stop  offset="87.84313725490196%" stop-color="#3C3F57"/>

<stop  offset="98.03921568627452%" stop-color="#2A263C"/>

<stop  offset="100%" stop-color="#262136"/>
</radialGradient>

<radialGradient id="Gradient_26" gradientUnits="userSpaceOnUse" cx="0" cy="0" r="49.28663136439739" fx="0" fy="0" gradientTransform="matrix( -0.9957061101856871, -0.0925707412679001, 0.10296909850621216, -1.1080590920533029, 83,259.1) " spreadMethod="pad">
<stop  offset="0%" stop-color="#859698"/>

<stop  offset="21.176470588235293%" stop-color="#6C7988"/>

<stop  offset="41.568627450980394%" stop-color="#5A657D"/>

<stop  offset="55.294117647058826%" stop-color="#545E79"/>

<stop  offset="66.66666666666667%" stop-color="#515B75"/>

<stop  offset="77.25490196078431%" stop-color="#4A506A"/>

<stop  offset="87.84313725490196%" stop-color="#3C3F57"/>

<stop  offset="98.03921568627452%" stop-color="#2A263C"/>

<stop  offset="100%" stop-color="#262136"/>
</radialGradient>

<radialGradient id="Gradient_27" gradientUnits="userSpaceOnUse" cx="0" cy="0" r="35.38936325013492" fx="0" fy="0" gradientTransform="matrix( -0.9957087882858605, -0.09254193066012609, 0.12397793000650481, -1.3362065789589963, 67.8,156.15) " spreadMethod="pad">
<stop  offset="0%" stop-color="#859698"/>

<stop  offset="28.235294117647058%" stop-color="#6C7988"/>

<stop  offset="54.90196078431372%" stop-color="#5A657D"/>

<stop  offset="72.54901960784314%" stop-color="#545E79"/>

<stop  offset="78.82352941176471%" stop-color="#4F5872"/>

<stop  offset="87.45098039215686%" stop-color="#42465E"/>

<stop  offset="97.6470588235294%" stop-color="#2C283E"/>

<stop  offset="100%" stop-color="#262136"/>
</radialGradient>

<radialGradient id="Gradient_28" gradientUnits="userSpaceOnUse" cx="0" cy="0" r="31.145477701425612" fx="0" fy="0" gradientTransform="matrix( -0.9957304330760185, -0.0923087463149876, 0.12802821771513498, -1.3798150862214236, 62.05,221.65) " spreadMethod="pad">
<stop  offset="0%" stop-color="#859698"/>

<stop  offset="28.235294117647058%" stop-color="#6C7988"/>

<stop  offset="54.90196078431372%" stop-color="#5A657D"/>

<stop  offset="72.54901960784314%" stop-color="#545E79"/>

<stop  offset="78.82352941176471%" stop-color="#4F5872"/>

<stop  offset="87.45098039215686%" stop-color="#42465E"/>

<stop  offset="97.6470588235294%" stop-color="#2C283E"/>

<stop  offset="100%" stop-color="#262136"/>
</radialGradient>

<radialGradient id="Gradient_29" gradientUnits="userSpaceOnUse" cx="0" cy="0" r="9.94311948032407" fx="0" fy="0" gradientTransform="matrix( -0.9956633850765451, -0.09302915466624284, 0.12822937535076717, -1.3803515111288467, 72.6,232.7) " spreadMethod="pad">
<stop  offset="0%" stop-color="#859698"/>

<stop  offset="28.235294117647058%" stop-color="#6C7988"/>

<stop  offset="54.90196078431372%" stop-color="#5A657D"/>

<stop  offset="72.54901960784314%" stop-color="#545E79"/>

<stop  offset="78.82352941176471%" stop-color="#4F5872"/>

<stop  offset="87.45098039215686%" stop-color="#42465E"/>

<stop  offset="97.6470588235294%" stop-color="#2C283E"/>

<stop  offset="100%" stop-color="#262136"/>
</radialGradient>

<radialGradient id="Gradient_30" gradientUnits="userSpaceOnUse" cx="0" cy="0" r="11.876052584929052" fx="0" fy="0" gradientTransform="matrix( -0.9957012159921018, -0.09262336892949784, 0.17156374017622897, -1.848257225456798, 101.5,151.55) " spreadMethod="pad">
<stop  offset="0%" stop-color="#859698"/>

<stop  offset="28.235294117647058%" stop-color="#6C7988"/>

<stop  offset="54.90196078431372%" stop-color="#5A657D"/>

<stop  offset="72.54901960784314%" stop-color="#545E79"/>

<stop  offset="78.82352941176471%" stop-color="#4F5872"/>

<stop  offset="87.45098039215686%" stop-color="#42465E"/>

<stop  offset="97.6470588235294%" stop-color="#2C283E"/>

<stop  offset="100%" stop-color="#262136"/>
</radialGradient>

<radialGradient id="Gradient_31" gradientUnits="userSpaceOnUse" cx="0" cy="0" r="47.842575508118294" fx="0" fy="0" gradientTransform="matrix( -0.9957135353617514, -0.09249084007296247, 0.12123093162105816, -1.304800156283544, 77.3,213.75) " spreadMethod="pad">
<stop  offset="0%" stop-color="#859698"/>

<stop  offset="28.235294117647058%" stop-color="#6C7988"/>

<stop  offset="54.90196078431372%" stop-color="#5A657D"/>

<stop  offset="72.54901960784314%" stop-color="#545E79"/>

<stop  offset="78.82352941176471%" stop-color="#4F5872"/>

<stop  offset="87.45098039215686%" stop-color="#42465E"/>

<stop  offset="97.6470588235294%" stop-color="#2C283E"/>

<stop  offset="100%" stop-color="#262136"/>
</radialGradient>

<radialGradient id="Gradient_32" gradientUnits="userSpaceOnUse" cx="0" cy="0" r="49.612550390501" fx="0" fy="0" gradientTransform="matrix( -0.9957157939104518, -0.09246652235959915, 0.09372628424460731, -1.0098251270225433, 184.8,196.95) " spreadMethod="pad">
<stop  offset="0%" stop-color="#859698"/>

<stop  offset="28.235294117647058%" stop-color="#6C7988"/>

<stop  offset="54.90196078431372%" stop-color="#5A657D"/>

<stop  offset="72.54901960784314%" stop-color="#545E79"/>

<stop  offset="78.82352941176471%" stop-color="#4F5872"/>

<stop  offset="87.45098039215686%" stop-color="#42465E"/>

<stop  offset="97.6470588235294%" stop-color="#2C283E"/>

<stop  offset="100%" stop-color="#262136"/>
</radialGradient>

<radialGradient id="Gradient_33" gradientUnits="userSpaceOnUse" cx="0" cy="0" r="61.714950832436045" fx="0" fy="0" gradientTransform="matrix( -0.9957068614839308, -0.092562659824686, 0.08547361585561815, -0.9205629954118116, 206.55,204.45) " spreadMethod="pad">
<stop  offset="0%" stop-color="#859698"/>

<stop  offset="28.235294117647058%" stop-color="#6C7988"/>

<stop  offset="54.90196078431372%" stop-color="#5A657D"/>

<stop  offset="72.54901960784314%" stop-color="#545E79"/>

<stop  offset="78.82352941176471%" stop-color="#4F5872"/>

<stop  offset="87.45098039215686%" stop-color="#42465E"/>

<stop  offset="97.6470588235294%" stop-color="#2C283E"/>

<stop  offset="100%" stop-color="#262136"/>
</radialGradient>

<radialGradient id="Gradient_34" gradientUnits="userSpaceOnUse" cx="0" cy="0" r="76.20182494533842" fx="0" fy="0" gradientTransform="matrix( -0.9957110614401578, -0.09251746930020575, 0.08546383245639574, -0.9205816271502744, 219.85,243.55) " spreadMethod="pad">
<stop  offset="0%" stop-color="#859698"/>

<stop  offset="19.607843137254903%" stop-color="#6C7988"/>

<stop  offset="38.03921568627451%" stop-color="#5A657D"/>

<stop  offset="50.588235294117645%" stop-color="#545E79"/>

<stop  offset="61.568627450980394%" stop-color="#4F5872"/>

<stop  offset="77.25490196078431%" stop-color="#42465E"/>

<stop  offset="96.07843137254902%" stop-color="#2C283E"/>

<stop  offset="100%" stop-color="#262136"/>
</radialGradient>

<g id="Layer0_0_MEMBER_0_FILL">
<path fill="#646D80" stroke="none" d="
M 103.65 54.15
Q 98.35 55.75 87.7 90.45 85.55 97.45 84.4 99.05 83.3 100.55 81.45 99.2 79.85 98 76.7 82.05 74 68.1 72.5 56.35 71.4 47.7 72.45 37.95 74 24.15 74.05 20.7 74.15 15.75 75.2 6.2 75.7 1.35 74.4 0.35 73.9 -0.05 64.8 18.1 53.95 39.75 51.25 44.35 48.35 49.4 46.5 51.75 44.9 53.85 43.1 55.25 42.15 57.85 42.35 61.55 42.5 63.7 42.95 68 43.9 82.55 39.85 97.15 36 110.95 27.95 123.9 24.55 129.45 24.95 138.25 25.05 140.65 25.4 145.55 25.65 149.85 25.15 153 24.25 159.1 21 167.85 19.8 171.3 17.95 175.6 17.25 177.3 15.8 180.05 14.05 183.4 13.55 184.5 12.25 187.25 11.45 191.05 11.45 191.1 10.25 197.85 8.65 206.5 7.3 211.75 5.65 217.8 4.95 230.55 4.6 236.95 4.6 242.15 39.85 241.1 79.15 240.65 157.85 239.75 178.3 242.95 176.55 237.1 174.6 223.9 172.4 207.7 171.2 199.55 166.85 168.75 162 164.8 160.65 163.7 157 169.5 153.55 174.95 151.65 172 149.3 168.45 144.75 152.15 142.05 142.5 137.45 124.2 134.45 110.4 132.65 104.75 129.8 95.8 122.9 85.55 118.7 79.3 111.25 63.35 106.55 53.25 103.65 54.15 Z"/>
</g>

<g id="Layer0_0_MEMBER_1_FILL">
<path fill="url(#Gradient_1)" stroke="none" d="
M 105.75 96.5
L 102.6 84.7
Q 100.35 82.5 98.75 80.95 95.75 77.95 94.8 76.55 93.8 75.2 93.35 74.15
L 93.05 73.35 91.4 77.55
Q 89.6 82.4 88.65 85.7 87.45 89.9 85.8 94.4 84.05 99.25 83.5 99.75 84.45 100.7 85.15 101.65 85.7 102.35 88.3 106.2 89.45 107.95 90.9 111.8 92.2 115.3 92.35 116.45 92.45 117.7 97.7 118.1
L 105.75 96.5 Z"/>
</g>

<g id="Layer0_0_MEMBER_2_FILL">
<path fill="url(#Gradient_2)" stroke="none" d="
M 77.7 99.1
L 77.85 99.15
Q 80.5162109375 92.5265625 79.4 95.05 78.85 96.35 77.7 99.1
M 77.85 99.15
Q 77.783984375 99.389453125 77.7 99.6 74.85 106.75 72.55 115.5 71.45 119.9 70.85 122.85 72.4 129.4 76.75 137.25 82.25 147.3 86.85 146.7 91.25 146.15 94 135
L 95.9 123.9 86.45 103.75 77.85 99.15 Z"/>
</g>

<g id="Layer0_0_MEMBER_3_FILL">
<path fill="url(#Gradient_3)" stroke="none" d="
M 104.05 52.5
Q 102.85 52.4 98 61.3 93.1 70.3 93.05 73.35 93.05 76.45 99.2 81.75 105.15 86.95 112.95 90.9 119.25 94.1 126.15 95.45 129.6 96.1 131.75 96.1 125 87.4 121.75 81.75 118.25 75.9 116.55 72.95 113.5 67.75 112.4 64.8 110.85 60.75 108.4 56.95 105.65 52.65 104.05 52.5 Z"/>
</g>

<g id="Layer0_0_MEMBER_4_FILL">
<path fill="url(#Gradient_4)" stroke="none" d="
M 121.4 93.35
L 112.95 90.9 117.5 106.45
Q 122.65 123.6 125.45 131.5 128.1 139.05 134.4 152.35 140.85 166.15 141.05 166.7 142.05 169.3 141.6 164 141.45 162.3 140.2 151.65 139.4 144.85 139.05 139.85 138.65 134.65 138.45 126.7 132.05 100.25 131.8 95.7 130.15 95.8 121.4 93.35 Z"/>
</g>

<g id="Layer0_0_MEMBER_5_FILL">
<path fill="url(#Gradient_5)" stroke="none" d="
M 119.85 120
Q 114.6 111.35 114.15 110.55 112.6 107.85 110.2 101.15 108.25 95.75 107.3 95.25 106.2 94.7 104.15 99.95 103 102.95 100.25 110 97.9 115.1 97.35 118.05 96.65 121.7 97.55 126.65
L 104.05 162.5
Q 104.55 165.25 106.3 159.95 106.4 159.6 110.05 146.95 111.65 141.3 117.8 133.7 123.35 126.85 123.3 126.35 123.15 125.45 119.85 120 Z"/>
</g>

<g id="Layer0_0_MEMBER_6_FILL">
<path fill="url(#Gradient_6)" stroke="none" d="
M 119.75 130.8
Q 114.85 134.6 113 139.2 110.55 145.25 108.3 152.25 105.8 159.95 105.55 162.6 105.3 165.15 109.9 184.2 113.9 200.65 116.9 211.2 120.85 224.95 121.55 227.25 124.05 235.1 125.2 235.7 126.4 236.3 127.6 227.75 128.25 223.1 129.3 211.95 129.8 206.5 131.7 200.5 134.45 191.6 135.3 188 137.45 178.7 138.55 174.6 140.05 169.35 140.9 168.6 141.7 167.9 139.3 162.2 138.15 159.6 133.95 150.7 126.35 134.85 124.25 127.95 122.2 128.9 119.75 130.8 Z"/>
</g>

<g id="Layer0_0_MEMBER_7_FILL">
<path fill="url(#Gradient_7)" stroke="none" d="
M 138.05 177.15
L 134.25 189.3
Q 130.25 202.65 129.35 208.75 127.9 218.6 126.85 241
L 143.95 241.05
Q 154.25 227.95 155.8 225.05 150.85 218.2 147.3 210.7 144.05 203.8 142.65 199.9 140.9 194.95 139.9 189.2 139.05 184.3 138.55 180.35 138.15 177.45 138.05 177.15 Z"/>
</g>

<g id="Layer0_0_MEMBER_8_FILL">
<path fill="url(#Gradient_8)" stroke="none" d="
M 143.05 142.65
Q 138.5 126.2 138.5 126.4 138.4 129.7 139.15 142.25 139.9 154.45 140.65 162.8 141.3 169.6 143.85 174.8 145.2 177.55 147.1 180.3 147.75 181.65 150.55 179.15 152.4 177.45 153.85 175.55 153.6 175 152.35 172.7 151.25 170.8 150.8 169.4 148.3 161.7 143.05 142.65 Z"/>
</g>

<g id="Layer0_0_MEMBER_9_FILL">
<path fill="url(#Gradient_9)" stroke="none" d="
M 102.75 88.3
Q 102.75 90.4 104.8 95.3 106.55 99.5 108.45 102.85 115.2 114.65 124.25 127.95
L 112.95 90.9
Q 112.35 90.25 108 87.95 103.55 85.6 102.6 84.7 101.95 84.1 101.85 84.1 101.8 84.15 102 84.7 102.8 86.75 102.75 88.3 Z"/>
</g>

<g id="Layer0_0_MEMBER_10_FILL">
<path fill="#859698" stroke="none" d="
M 163.75 171.35
Q 165.7 170.25 167.8 169.15 168.3 168.6 165.35 166.55 161.45 163.8 161.25 163.6 159.8 164.15 155.9 168.55 154 170.75 152.35 172.85
L 152.75 173.45
Q 153.25 174.35 153.55 175.9 154.2 175.5 155.5 175.3 157.1 175.05 158.75 175.35 159.95 173.45 163.75 171.35 Z"/>
</g>

<g id="Layer0_0_MEMBER_11_FILL">
<path fill="url(#Gradient_10)" stroke="none" d="
M 170.65 195.25
Q 169.3 185.5 168.6 175.45 168.15 168.65 167.85 168.4
L 158.7 174.95 158.7 179.1
Q 159.35 184.9 162.65 193.35 164.65 198.5 168.9 205.15 171.05 208.45 172.75 210.75
L 170.65 195.25 Z"/>
</g>

<g id="Layer0_0_MEMBER_12_FILL">
<path fill="url(#Gradient_11)" stroke="none" d="
M 79.85 95.4
Q 78.3 86.75 76.55 75.75 73.05 53.65 72.1 41.7
L 69.95 51.9
Q 68 63.8 69.25 72.4 70.5 80.95 75.3 89.05 77.7 93.1 79.85 95.4 Z"/>
</g>

<g id="Layer0_0_MEMBER_13_FILL">
<path fill="url(#Gradient_12)" stroke="none" d="
M 72.1 41.7
Q 72.75 38.95 72.7 34.55 72.65 30.95 72.25 28.1 71.95 26.15 72.25 21.55
L 72.6 17.3 70.05 21
Q 67.8 24.35 66.2 29.65 64.25 36.1 64.55 41.95 64.8 47.3 67 53.05 68.05 55.9 69.1 57.7 69.5 54.85 70.85 48
L 72.1 41.7 Z"/>
</g>

<g id="Layer0_0_MEMBER_14_FILL">
<path fill="url(#Gradient_13)" stroke="none" d="
M 74.35 15.35
Q 74.5 12.8 75 8.05 73.65 11.1 73 14.35 72.05 18.9 71.9 22.75 71.8 23.95 71.9 26.05 71.95 28.35 72.15 29.3 72.5 30.65 72.75 36.4 73.15 34.05 73.75 29.4 74.5 23.65 74.35 22.8 74.25 22 74.3 18.6
L 74.35 15.35 Z"/>
</g>

<g id="Layer0_0_MEMBER_15_FILL">
<path fill="url(#Gradient_14)" stroke="none" d="
M 61.65 41.35
L 60.45 44.6
Q 58.95 48.45 57.55 51.5 56.1 54.75 53.55 59.5 51.3 63.75 51.05 64 50.85 64.15 50.75 66 50.6 68 50.75 69.95 50.95 72.75 50.85 78.2
L 51.75 79.75
Q 52.9 81.6 53.95 83.1 54.9 84.5 57.15 89.65 59.3 94.65 59.4 94.8 59.65 95.1 59.75 94.55 60.1 93.05 60.8 91.3 61.65 89.15 63.45 86.45 65.3 83.75 65.9 82.7 66.75 81.1 68.15 77.35 69.5 73.55 69.4 73.05 69 70.3 68.9 67.9 68.85 66.5 68.95 61.95
L 69.1 57.7 61.65 41.35 Z"/>
</g>

<g id="Layer0_0_MEMBER_16_FILL">
<path fill="#859698" stroke="none" d="
M 97.6 117.25
Q 96.5 117.6 92.45 116.75
L 92.55 118.4
Q 92.75 120.15 93.2 120.75 93.95 121.8 97.45 125.65 97.15 123.9 97.35 120.4
L 97.6 117.25 Z"/>
</g>

<g id="Layer0_0_MEMBER_17_FILL">
<path fill="url(#Gradient_15)" stroke="none" d="
M 44 97.2
Q 50.2 90.2 50.65 82.8 51.4 70.2 46.9 63.55 45.45 61.45 43.7 60.2
L 42.2 59.4
Q 42.1 60.55 42.5 65.9 42.95 71.5 42.85 73.25 42.3 83.75 40.1 94.3 38.95 99.55 37.95 102.7 40.95 100.7 44 97.2 Z"/>
</g>

<g id="Layer0_0_MEMBER_18_FILL">
<path fill="#859698" stroke="none" d="
M 43.6 53.85
Q 42.65 56.3 42.2 59.4 47.55 61.95 49.7 70.35 50.8 74.6 50.8 78.3
L 51.05 64
Q 50.4 63.5 48.85 62 45.5 58.85 44.2 56.05
L 43.6 53.85 Z"/>
</g>

<g id="Layer0_0_MEMBER_19_FILL">
<path fill="url(#Gradient_16)" stroke="none" d="
M 60.2 24.75
Q 56.6 34.65 49.75 45.25 46.3 50.55 43.6 53.85 44.15 57.3 47.65 61 49.4 62.85 51.05 64 52.3 62.35 54.05 59.4 57.6 53.4 60.2 46.7 62.85 40 61.8 31.7
L 60.2 24.75 Z"/>
</g>

<g id="Layer0_0_MEMBER_20_FILL">
<path fill="url(#Gradient_17)" stroke="none" d="
M 65.55 16.15
Q 64.9 18 63.1 21.2 62.3 22.5 61.1 23.85
L 60.05 24.9
Q 61.85 30.15 61.9 36.3 61.95 39.35 61.65 41.35
L 66.9 52.65
Q 66.25 50.85 65.6 48 64.35 42.35 64.65 37.35 64.85 34.4 66.1 30.15
L 67.35 26.45 65.55 16.15 Z"/>
</g>

<g id="Layer0_0_MEMBER_21_FILL">
<path fill="#859698" stroke="none" d="
M 75.5 5.5
Q 75.8 3.5 75.4 1.8 75 0.2 74.3 0 73.1 -0.3 69.2 7.9 67.25 12 65.55 16.15
L 67.35 26.45
Q 68.15 24 70.4 20.65 71.5 18.95 72.45 17.75 72.6 15.05 73.8 11.25 74.4 9.4 75 8.05 75 8.35 75.5 5.5 Z"/>
</g>

<g id="Layer0_0_MEMBER_22_FILL">
<path fill="url(#Gradient_18)" stroke="none" d="
M 44.85 130.7
Q 50.3 126.55 53.85 121.55 58.35 115.2 58.2 109.55 58 102.8 51.3 100.85 45.25 99.1 39.25 102.05
L 37.95 102.7 33.85 110.95
Q 29.35 119.7 27.55 122.4 24.9 126.4 24.55 133 24.55 133.25 25.05 138.15 25.55 142.7 25.4 142.8 27.1 141.6 33.65 138.05 39.6 134.7 44.85 130.7 Z"/>
</g>

<g id="Layer0_0_MEMBER_23_FILL">
<path fill="#859698" stroke="none" d="
M 52.15 80
L 50.8 78.3
Q 50.95 88.7 44.45 96.75 41.2 100.75 37.95 102.7 48.55 98.4 54 103.15 56.35 105.15 56.85 105.1 56.75 102.65 58.25 100.25 59.65 98.05 60.55 98.15 61.25 98.2 61 97.25 60.75 96.35 59.8 95 59.1 94 55.55 86.9
L 52.15 80 Z"/>
</g>

<g id="Layer0_0_MEMBER_24_FILL">
<path fill="#859698" stroke="none" d="
M 24.75 151.45
Q 23.7 156.3 22.9 158.9 22.2 161.2 21.05 163.15 19.8 165.2 19.4 166.5 18.6 169.2 16.9 175.2 15.05 181.6 15.15 181.45 19.55 173.15 22.15 170.85 24.05 169.2 25.65 167.35 27.2 165.6 27.1 165.3 27 164.9 25.65 147.15
L 24.75 151.45 Z"/>
</g>

<g id="Layer0_0_MEMBER_25_FILL">
<path fill="#859698" stroke="none" d="
M 106.05 53.65
L 104.05 52.5
Q 99.75 57.25 96.8 63.15 95.3 66.1 94.7 68.1 96.15 65.4 101.25 59.25 103.8 56.2 106.05 53.65 Z"/>
</g>

<g id="Layer0_0_MEMBER_26_FILL">
<path fill="#859698" stroke="none" d="
M 85.9 101.9
L 86.05 105.25 86.9 109.15 92.35 116.45
Q 91.7 112.4 91.4 111.4 91.25 110.8 89.95 107.7
L 88.65 104.7
Q 87.35 103 86.5 102.25
L 85.9 101.9 Z"/>
</g>

<g id="Layer0_0_MEMBER_27_FILL">
<path fill="url(#Gradient_19)" stroke="none" d="
M 80.5 97.1
L 79.85 95.4 75.95 89.85 76.55 94.85
Q 77.45 100.3 79.05 102.4 80.6 104.55 83.5 105.1 84.95 105.4 86.05 105.25
L 85.9 101.9 83.45 99.85
Q 81.5 99 80.5 97.1 Z"/>
</g>

<g id="Layer0_0_MEMBER_28_FILL">
<path fill="url(#Gradient_20)" stroke="none" d="
M 76 90.35
Q 73.3 85.15 71.15 78.85
L 69.55 73.55
Q 67.8 79 62.95 86.45 60.85 89.7 60.1 92.7 59.75 94.15 59.8 95 61 96.65 61.1 97.45 61.15 97.9 60.95 97.95 62.55 100.4 65.85 109.55 67.5 114.15 68.95 118.3
L 71.8 123.45
Q 72.3 116.95 75.05 107.65
L 77.7 99.6
Q 77.25 98.25 76.55 94.15
L 76 90.35 Z"/>
</g>

<g id="Layer0_0_MEMBER_29_FILL">
<path fill="url(#Gradient_21)" stroke="none" d="
M 70.2 118
Q 69.05 114.85 65.65 107.05 61.6 97.9 60.95 97.95 59.1 98.1 57.55 101.65 56.859375 103.26171875 56.45 104.85 56.5255859375 104.8203125 56.7 105.3 57.3 106.95 58.9 114.7 59.7 118.6 59.25 123.6 59 126.7 57.9 132.45 57.4 135.2 56 140.85 55.1 145.85 56.05 149.35 56.75 151.9 58.2 156.95 59.35 161.35 59.65 164.75 60.05 168.7 59.75 174.3 59.6 177.5 59.2 183.9 61.2 182.15 62.35 181.3 64.4 179.75 65.85 180.55 66.85 178.55 67.5 175.15 68.1 171.4 68.5 169.6 69.9 163.95 72.45 155.25 76 143.15 76.6 141.05 77.3 138.7 76.4 135.3 75.9 133.45 74.35 129.8 73.4 127.55 72.2 123.95 70.6 119.05 70.2 118 Z"/>
</g>

<g id="Layer0_0_MEMBER_30_FILL">
<path fill="url(#Gradient_22)" stroke="none" d="
M 58.05 156.15
L 54.75 160.4
Q 50.85 165.65 47.8 171 38 188.15 40.3 199.35 42.6 210.6 52.2 223.45 57.05 229.95 61.8 234.65 62.1 235.1 62.65 227.1 63.3 217.05 63.7 214.15 64.3 210.2 65.1 195.2
L 65.8 181 58.05 156.15 Z"/>
</g>

<g id="Layer0_0_MEMBER_31_FILL">
<path fill="url(#Gradient_23)" stroke="none" d="
M 57.65 108.85
L 52.95 120.3 51.95 125.15
Q 50.9 130.95 50.75 135.8 50.55 141.8 50.95 146.9 51.35 152.15 52.1 152.4 53.05 152.75 55.65 146.75 56.4 141.3 57.05 138.3 57.5 136.15 58.75 129.15 59.95 122.3 60.05 121.2 60.15 119.85 57.65 108.85 Z"/>
</g>

<g id="Layer0_0_MEMBER_32_FILL">
<path fill="url(#Gradient_24)" stroke="none" d="
M 51.6 136.1
L 52.3 123.95
Q 45.45 130.5 34.75 137.3 29.4 140.7 25.4 142.8
L 27.1 165.3
Q 30.95 170.45 40.65 190.3 40.85 186.85 43.6 180
L 46.35 173.8
Q 45.3 167.1 48.6 159.1
L 52.1 152.4
Q 51.15 148.95 51.6 136.1 Z"/>
</g>

<g id="Layer0_0_MEMBER_33_FILL">
<path fill="#859698" stroke="none" d="
M 52.1 152.4
L 50.45 154.55
Q 48.45 157.75 46.95 162.8 45.5 167.85 45.75 171.35 45.9 173.1 46.35 173.8 47.3 171.6 52.8 163.65
L 58.05 156.15 55.65 146.75 52.1 152.4 Z"/>
</g>

<g id="Layer0_0_MEMBER_34_FILL">
<path fill="url(#Gradient_25)" stroke="none" d="
M 32.15 172.65
L 27.1 165.3
Q 22.55 168.7 16.25 178.45 13.15 183.35 10.9 187.55 10.15 197.35 5 220.9 2.45 232.7 0 242.5
L 41.75 241.2
Q 43.4 233.5 44.1 221.55
L 44.5 211.1
Q 41.05 204.4 40.5 196.65
L 40.65 190.3
Q 37.8 181.75 32.15 172.65 Z"/>
</g>

<g id="Layer0_0_MEMBER_35_FILL">
<path fill="url(#Gradient_26)" stroke="none" d="
M 41.45 240.95
L 66.75 240.85 61.8 234.65
Q 58.35 230.65 54.5 225.7 46.7 215.8 44.5 211.1
L 43.65 223.15
Q 42.55 236.15 41.45 240.95 Z"/>
</g>

<g id="Layer0_0_MEMBER_36_FILL">
<path fill="#859698" stroke="none" d="
M 39.85 187.45
L 39.35 186.7 40.45 191.9 40.85 188.4
Q 40.45 188.2 39.85 187.45 Z"/>
</g>

<g id="Layer0_0_MEMBER_37_FILL">
<path fill="url(#Gradient_27)" stroke="none" d="
M 79.4 141.55
L 76.9 137.35 67.05 175.5 78.2 196.7
Q 78.5 195 82.8 187.6 85.5 183 92.85 175
L 99.65 167.95
Q 99.4 165 99.4 155.45 99.4 144.95 99.25 140.7 98.9 130.3 97.65 125.6
L 95.9 124.1 93.15 135.8
Q 89.7 147.35 86.15 146.65 82.6 145.95 79.4 141.55 Z"/>
</g>

<g id="Layer0_0_MEMBER_38_FILL">
<path fill="url(#Gradient_28)" stroke="none" d="
M 67.05 175.5
L 65.85 180.55
Q 66.2 186.5 64.55 219.75 65.65 222 66.3 231.65 66.65 236.5 66.75 240.85
L 92.85 240.4
Q 87.15 231.85 82.1 213.4
L 78.2 196.7 67.05 175.5 Z"/>
</g>

<g id="Layer0_0_MEMBER_39_FILL">
<path fill="url(#Gradient_29)" stroke="none" d="
M 64.55 219.75
L 62.95 220.55 61.8 234.65 66.75 240.85
Q 67.25 236.7 65.95 227.8
L 64.55 219.75 Z"/>
</g>

<g id="Layer0_0_MEMBER_40_FILL">
<path fill="url(#Gradient_30)" stroke="none" d="
M 99.35 135.6
L 98.9 134.7 99.65 167.95 104.5 163.65
Q 103.9 161.05 101.55 148.05
L 99.35 135.6 Z"/>
</g>

<g id="Layer0_0_MEMBER_41_FILL">
<path fill="url(#Gradient_31)" stroke="none" d="
M 102.5 164.7
Q 98.75 167.55 95.2 171.05 83.7 182.4 78.2 196.7
L 81.55 212.35
Q 86.25 230.05 92.85 240.4
L 126.85 241
Q 122.35 225.85 117.4 208.45 107.6 173.65 105.55 162.6
L 102.5 164.7 Z"/>
</g>

<g id="Layer0_0_MEMBER_42_FILL">
<path fill="url(#Gradient_32)" stroke="none" d="
M 141.25 167.2
Q 139.45 171.2 138.6 174.6 138.15 176.25 138.05 177.15 138.35 191.85 147.1 209.95 151.5 218.95 155.8 225.05 159.15 227.9 167.8 229.85 172.1 230.8 175.75 231.2 174.85 226.35 173.7 218.05
L 172.75 210.75
Q 158.8 199.25 148.6 182.1 145.45 176.7 143.05 171.4
L 141.25 167.2 Z"/>
</g>

<g id="Layer0_0_MEMBER_43_FILL">
<path fill="url(#Gradient_33)" stroke="none" d="
M 147.7 180.45
L 154.5 191.25
Q 163.2 203.4 172.65 210.35 169.95 204.6 166.85 197.25 160.65 182.65 158.7 174.95 157.9 174.9 156.9 175 154.8 175.2 153.55 175.9 153.2966796875 176.0392578125 153.1 176.15
L 147.7 180.45 Z"/>
</g>

<g id="Layer0_0_MEMBER_44_FILL">
<path fill="url(#Gradient_34)" stroke="none" d="
M 155.8 225.05
Q 153.9 228.35 143.95 241.05 150.4 241 178.3 242.95
L 175.75 231.2
Q 169.55 230.05 162.05 227.45
L 155.8 225.05 Z"/>
</g>
</defs>

<g transform="matrix( 1, 0, 0, 1, 0,0) ">
<use xlink:href="#Layer0_0_MEMBER_0_FILL"/>
</g>

<g transform="matrix( 1, 0, 0, 1, 0,0) ">
<use xlink:href="#Layer0_0_MEMBER_1_FILL"/>
</g>

<g transform="matrix( 1, 0, 0, 1, 0,0) ">
<use xlink:href="#Layer0_0_MEMBER_2_FILL"/>
</g>

<g transform="matrix( 1, 0, 0, 1, 0,0) ">
<use xlink:href="#Layer0_0_MEMBER_3_FILL"/>
</g>

<g transform="matrix( 1, 0, 0, 1, 0,0) ">
<use xlink:href="#Layer0_0_MEMBER_4_FILL"/>
</g>

<g transform="matrix( 1, 0, 0, 1, 0,0) ">
<use xlink:href="#Layer0_0_MEMBER_5_FILL"/>
</g>

<g transform="matrix( 1, 0, 0, 1, 0,0) ">
<use xlink:href="#Layer0_0_MEMBER_6_FILL"/>
</g>

<g transform="matrix( 1, 0, 0, 1, 0,0) ">
<use xlink:href="#Layer0_0_MEMBER_7_FILL"/>
</g>

<g transform="matrix( 1, 0, 0, 1, 0,0) ">
<use xlink:href="#Layer0_0_MEMBER_8_FILL"/>
</g>

<g transform="matrix( 1, 0, 0, 1, 0,0) ">
<use xlink:href="#Layer0_0_MEMBER_9_FILL"/>
</g>

<g transform="matrix( 1, 0, 0, 1, 0,0) ">
<use xlink:href="#Layer0_0_MEMBER_10_FILL"/>
</g>

<g transform="matrix( 1, 0, 0, 1, 0,0) ">
<use xlink:href="#Layer0_0_MEMBER_11_FILL"/>
</g>

<g transform="matrix( 1, 0, 0, 1, 0,0) ">
<use xlink:href="#Layer0_0_MEMBER_12_FILL"/>
</g>

<g transform="matrix( 1, 0, 0, 1, 0,0) ">
<use xlink:href="#Layer0_0_MEMBER_13_FILL"/>
</g>

<g transform="matrix( 1, 0, 0, 1, 0,0) ">
<use xlink:href="#Layer0_0_MEMBER_14_FILL"/>
</g>

<g transform="matrix( 1, 0, 0, 1, 0,0) ">
<use xlink:href="#Layer0_0_MEMBER_15_FILL"/>
</g>

<g transform="matrix( 1, 0, 0, 1, 0,0) ">
<use xlink:href="#Layer0_0_MEMBER_16_FILL"/>
</g>

<g transform="matrix( 1, 0, 0, 1, 0,0) ">
<use xlink:href="#Layer0_0_MEMBER_17_FILL"/>
</g>

<g transform="matrix( 1, 0, 0, 1, 0,0) ">
<use xlink:href="#Layer0_0_MEMBER_18_FILL"/>
</g>

<g transform="matrix( 1, 0, 0, 1, 0,0) ">
<use xlink:href="#Layer0_0_MEMBER_19_FILL"/>
</g>

<g transform="matrix( 1, 0, 0, 1, 0,0) ">
<use xlink:href="#Layer0_0_MEMBER_20_FILL"/>
</g>

<g transform="matrix( 1, 0, 0, 1, 0,0) ">
<use xlink:href="#Layer0_0_MEMBER_21_FILL"/>
</g>

<g transform="matrix( 1, 0, 0, 1, 0,0) ">
<use xlink:href="#Layer0_0_MEMBER_22_FILL"/>
</g>

<g transform="matrix( 1, 0, 0, 1, 0,0) ">
<use xlink:href="#Layer0_0_MEMBER_23_FILL"/>
</g>

<g transform="matrix( 1, 0, 0, 1, 0,0) ">
<use xlink:href="#Layer0_0_MEMBER_24_FILL"/>
</g>

<g transform="matrix( 1, 0, 0, 1, 0,0) ">
<use xlink:href="#Layer0_0_MEMBER_25_FILL"/>
</g>

<g transform="matrix( 1, 0, 0, 1, 0,0) ">
<use xlink:href="#Layer0_0_MEMBER_26_FILL"/>
</g>

<g transform="matrix( 1, 0, 0, 1, 0,0) ">
<use xlink:href="#Layer0_0_MEMBER_27_FILL"/>
</g>

<g transform="matrix( 1, 0, 0, 1, 0,0) ">
<use xlink:href="#Layer0_0_MEMBER_28_FILL"/>
</g>

<g transform="matrix( 1, 0, 0, 1, 0,0) ">
<use xlink:href="#Layer0_0_MEMBER_29_FILL"/>
</g>

<g transform="matrix( 1, 0, 0, 1, 0,0) ">
<use xlink:href="#Layer0_0_MEMBER_30_FILL"/>
</g>

<g transform="matrix( 1, 0, 0, 1, 0,0) ">
<use xlink:href="#Layer0_0_MEMBER_31_FILL"/>
</g>

<g transform="matrix( 1, 0, 0, 1, 0,0) ">
<use xlink:href="#Layer0_0_MEMBER_32_FILL"/>
</g>

<g transform="matrix( 1, 0, 0, 1, 0,0) ">
<use xlink:href="#Layer0_0_MEMBER_33_FILL"/>
</g>

<g transform="matrix( 1, 0, 0, 1, 0,0) ">
<use xlink:href="#Layer0_0_MEMBER_34_FILL"/>
</g>

<g transform="matrix( 1, 0, 0, 1, 0,0) ">
<use xlink:href="#Layer0_0_MEMBER_35_FILL"/>
</g>

<g transform="matrix( 1, 0, 0, 1, 0,0) ">
<use xlink:href="#Layer0_0_MEMBER_36_FILL"/>
</g>

<g transform="matrix( 1, 0, 0, 1, 0,0) ">
<use xlink:href="#Layer0_0_MEMBER_37_FILL"/>
</g>

<g transform="matrix( 1, 0, 0, 1, 0,0) ">
<use xlink:href="#Layer0_0_MEMBER_38_FILL"/>
</g>

<g transform="matrix( 1, 0, 0, 1, 0,0) ">
<use xlink:href="#Layer0_0_MEMBER_39_FILL"/>
</g>

<g transform="matrix( 1, 0, 0, 1, 0,0) ">
<use xlink:href="#Layer0_0_MEMBER_40_FILL"/>
</g>

<g transform="matrix( 1, 0, 0, 1, 0,0) ">
<use xlink:href="#Layer0_0_MEMBER_41_FILL"/>
</g>

<g transform="matrix( 1, 0, 0, 1, 0,0) ">
<use xlink:href="#Layer0_0_MEMBER_42_FILL"/>
</g>

<g transform="matrix( 1, 0, 0, 1, 0,0) ">
<use xlink:href="#Layer0_0_MEMBER_43_FILL"/>
</g>

<g transform="matrix( 1, 0, 0, 1, 0,0) ">
<use xlink:href="#Layer0_0_MEMBER_44_FILL"/>
</g>
</svg>
