<?xml version="1.0" encoding="utf-8"?>
<!-- Generator: Adobe Illustrator 20.1.0, SVG Export Plug-In . SVG Version: 6.00 Build 0)  -->
<svg version="1.1" id="Layer_1" xmlns="http://www.w3.org/2000/svg" xmlns:xlink="http://www.w3.org/1999/xlink" x="0px" y="0px"
	 viewBox="0 0 456 436" style="enable-background:new 0 0 456 436;" xml:space="preserve">
<style type="text/css">
	.st0{fill:#3E3A31;}
	.st1{fill:#5D5646;}
	.st2{fill:#4F4A3C;}
	.st3{fill:#595243;}
	.st4{fill:#7C705A;}
</style>
<g transform="matrix( 1, 0, 0, 1, 0.85,0) ">
	<g>
		<g id="Layer0_0_MEMBER_0_FILL">
			<path class="st0" d="M288.4,104.3l-11-44.5c1,9.1,1.2,18.3,0.6,27.5c-1,18.5-5.2,28.1-12.6,28.8c-7.4,0.7-16.6-16.6-27.6-51.8
				c-5.5-17.6-10.2-35.2-14.3-52.9c3.4,19.7,5.7,39.5,7,59.4c2.7,39.7-1,59.9-11,60.5c-10,0.7-22.8-19.2-38.5-59.8
				c-7.7-20.2-14.5-40.6-20.3-60.9c-0.9,10.5-2.3,21.5-4.2,33c-3.7,23.1-7.9,37.3-12.7,42.7c-4.7,5.4-11.3-2-19.9-22.1
				c-4.2-10.1-8-20.7-11.4-31.8c0.9,4.9,1.8,11.2,2.5,18.7c1.4,15.2,1.7,29.3,0.7,42.4c-1,12.2-4.6,27.6-10.7,46.2
				c-5.5,16.3-8.1,24.7-7.8,25.4c12.8,29.9,54,42.7,123.7,38.6c34.9-2.1,68.5-7.2,100.8-15.2c-5.3-8.5-10.7-17.9-16-28.1
				C302.2,154,296.5,135.3,288.4,104.3z"/>
		</g>
	</g>
</g>
<g transform="matrix( 1, 0, 0, 1, 0.85,0) ">
	<g>
		<g id="Layer0_0_MEMBER_1_FILL">
			<path class="st1" d="M340.1,244.3l6.5-28.4l-19.3-111.1l-9.7,36.2l-49.1-70c-0.3,8.6-1.3,17-3.1,25.3c-3.6,16.5-9.2,23.9-17,22.2
				c-7.7-1.7-15.6-11.7-23.8-30.1l-10-27l-16,34.7l-13.8-52.3l-28.9,86.1l-15.3-28.2c-4.8,8.1-10,15.7-15.4,22.8
				c-10.9,14.4-17.8,19.4-20.8,15c-3-4.4-3.4-16.4-1.1-36.1c1.1-9.9,2.5-19.3,4.3-28.3L65.8,186.9c27.3,48.3,41,73.2,41,74.8
				c0,0.8-3.2,11-9.7,30.4c-6.7,21.6-10.7,37.8-12,48.5c-1.4,11.1-12.2,23.9-32.6,38.6c-10.2,7.3-20.2,13.5-30.2,18.6
				c37-4.3,60.8-6.7,71.6-7.2c6.7-0.3,9.8,4.1,9.3,13.4c-0.3,4.6-1.2,9.3-2.8,14c5.4-3.8,11.8-7.8,19.1-12
				c14.8-8.4,27.2-13.8,37.2-16.1c10-2.3,23.9-7.6,41.7-15.8c8.9-4.1,16.7-8,23.5-11.6l12.4,3.7c10.2,2.3,20,3.4,29.4,3
				c9.4-0.3,22.8,5.9,40.2,18.6c8.7,6.3,16.5,12.7,23.3,19c0.7-1.4,1.8-2.9,3.4-4.7c3.3-3.5,7.2-6.2,11.9-8.2
				c8.5-3.6,25.8-1.4,51.9,6.7c13,4.1,25.2,8.6,36.5,13.4c-10.7-7-23.3-15.8-37.8-26.6c-12.5-9.2-24.7-25.3-36.5-48
				c-10.8-20.6-17.9-39.8-21.4-57.4C334.3,276.8,335.9,264.3,340.1,244.3z"/>
		</g>
	</g>
</g>
<g transform="matrix( 1, 0, 0, 1, 0.85,0) ">
	<g>
		<g id="Layer0_0_MEMBER_2_MEMBER_0_FILL">
			<path class="st2" d="M103.3,103.3c1.1-9.9,2.5-19.3,4.3-28.3L65.8,186.9c27.3,48.3,41,73.2,41,74.8c0,0.8-3.2,11-9.7,30.4
				c-6.7,21.6-10.7,37.8-12,48.5c-1.4,11.1-12.2,23.9-32.6,38.6c-10.2,7.3-20.2,13.5-30.2,18.6c37-4.3,60.8-6.7,71.6-7.2
				c6.7-0.3,9.8,4.1,9.3,13.4c-0.3,4.6-1.2,9.3-2.8,14c5.4-3.8,11.8-7.8,19.1-12c14.8-8.4,27.2-13.8,37.2-16.1
				c4.3-27.4,7.5-50.2,9.7-68.4c1.4-11.5,1.1-25.3-0.9-41.3c-1-8.6-2.4-16.5-4-23.8c-0.5-2.7-4-17.5-10.4-44.3
				c1.6-2.9,3.4-6.5,5.2-10.7c3.6-8.5,5.9-15.9,6.9-22.3l21.7-135.1l-28.9,86.1l-15.3-28.2c-4.8,8.1-10,15.7-15.4,22.8
				c-10.9,14.4-17.8,19.4-20.8,15C101.4,135.1,101,123.1,103.3,103.3z"/>
		</g>
	</g>
</g>
<g transform="matrix( 1, 0, 0, 1, 0.85,0) ">
	<g>
		<g id="Layer0_0_MEMBER_3_FILL">
			<path class="st0" d="M96,133.7L95.6,112l-21.8,74.1l45.1,71.6l-7.1,44.2c-5.8,31.1-11.2,50.7-16.2,58.8
				c-5,8.1-18.7,16.7-41.1,25.8c-11.2,4.6-21.9,8.3-32.1,11.2c7-1.3,14.9-2.6,23.9-4c18-2.7,32-4,42.1-4c10,0,15,4.7,15,14.1
				c0,4.7-1,9.4-3,14.1c4.8-6.7,9.9-14.4,15.3-23c10.7-17.3,17.4-30.8,20.1-40.5c2.7-9.7,3.7-30.3,3.2-61.9l-1.7-44.3L118,183.7
				l24.2-71.7c-2.9,6.1-6.5,12.3-10.8,18.6c-8.6,12.7-16.2,19.9-22.9,21.6C101.7,153.9,97.6,147.8,96,133.7z"/>
		</g>
	</g>
</g>
<g transform="matrix( 1, 0, 0, 1, 0.85,0) ">
	<g>
		<g id="Layer0_0_MEMBER_4_FILL">
			<path class="st3" d="M374.7,380.8c-10.8-7.4-22.4-23.3-34.7-47.8c-8.7-17.5-15.7-34.3-20.8-50.3c-2.7-8.4,0-22.3,8-41.8
				l12.9-26.7L324,149.1l-8.9,18.5L275.8,96l-2.8,12.2c-2.9,8.9-7.1,15-12.5,18.4c-5.3,3.3-14.3,0.3-26.9-9.1l-17.3-15l11.1,13.8
				c8.9,11.4,17.2,22.5,24.8,33.3c24.2,34.6,37.2,59.9,38.9,76c1.7,16.1,1.5,30.2-0.5,42.3c-1,6.1-2.1,10.5-3.5,13.3l14.9,19.3
				c10.6,15.8,17.4,31.1,20.5,45.9c4.8,23.6,8.3,41.5,10.4,53.9l5.4-2.9c4.7-2,9.9-3.2,15.5-3.5c5.7-0.3,20.3,2.9,43.7,9.8
				c11.7,3.5,22.9,6.9,33.5,10.4c-5.2-2.7-11.5-6.1-18.7-10.2C397.7,395.5,385.1,387.9,374.7,380.8z"/>
		</g>
	</g>
</g>
<g transform="matrix( 1, 0, 0, 1, 0.85,0) ">
	<g>
		<g id="Layer0_0_MEMBER_5_FILL">
			<path class="st2" d="M343.4,396.2c4.7-4,14.4-4.2,29.2-0.5c7.4,1.9,14.3,4.2,20.7,6.8c-4.8-3.2-10.1-6.8-15.8-10.9
				c-11.4-8.1-19.3-14.4-23.6-18.7c-4.9-4.9-11.5-17.6-19.9-38.1c-7.6-18.7-13.9-36.6-18.7-53.7c-3.6-13-2.9-27.3,2.1-43.2
				c1.5-4.6,3.5-9.8,6.2-15.5c2.3-5.2,3.6-8.2,3.8-8.9c0.7-2.7,0.1-9.2-1.8-19.7l-3-14.9l-7.3,41.1c-0.1-1.9-0.7-4.5-1.7-7.8
				c-2-6.6-5.2-13.4-9.6-20.4c-4.4-7-14-18.1-28.9-33.3l-21-20.6l18.6,23.3c13.3,18,22.1,33,26.5,45.1c4.4,12,6.2,28.3,5.6,48.6
				c-0.3,10.2-1.1,19.2-2.3,26.9l12.3,24c9.1,18.9,16,35.6,20.7,50c4.7,14.5,7.4,25.5,8.2,33.2C344,392.9,343.9,395.2,343.4,396.2z"
				/>
		</g>
	</g>
</g>
<g transform="matrix( 1, 0, 0, 1, 0.85,0) ">
	<g>
		<g id="Layer0_0_MEMBER_6_FILL">
			<path class="st4" d="M303.9,174l8.1-30.6l-40.3-60.3l26.6,65.1c2.3,5.7,4,11.7,5,18.1C303.7,169.4,303.9,172,303.9,174z"/>
		</g>
	</g>
</g>
<g transform="matrix( 1, 0, 0, 1, 0.85,0) ">
	<g>
		<g id="Layer0_0_MEMBER_7_FILL">
			<path class="st4" d="M325.7,125.8L324,170l16.1,44.2L325.7,125.8z"/>
		</g>
	</g>
</g>
<g transform="matrix( 1, 0, 0, 1, 0.85,0) ">
	<g>
		<g id="Layer0_0_MEMBER_8_FILL">
			<path class="st4" d="M216,83.9l-3.7-9.7l1,13.6c1,9.8,2.6,16.6,4.6,20.2c3.3,5.9,12.7,17.7,28.2,35.4c-3.2-4.6-6.6-9.6-10.2-15.2
				c-7.1-11.3-11.5-19.6-13.2-25C221,97.9,218.8,91.4,216,83.9z"/>
		</g>
	</g>
</g>
<g transform="matrix( 1, 0, 0, 1, 0.85,0) ">
	<g>
		<g id="Layer0_0_MEMBER_9_FILL">
			<path class="st4" d="M269.4,201.4l-28.2-32.1l33,67.6L269.4,201.4z"/>
		</g>
	</g>
</g>
<g transform="matrix( 1, 0, 0, 1, 0.85,0) ">
	<g>
		<g id="Layer0_0_MEMBER_10_FILL">
			<path class="st3" d="M184.1,150.1l-1.7-28.4l-4.3,32.7c-3.4,22.4-6.2,35.1-8.6,38.2c-3.8,4.8-7.6,10.4-11.3,16.9l20.1-12.1
				c-4.2,14.9-6.9,23.9-8.1,27c2.5-3.4,4.9-6.8,7.4-10.4c5.3-7.7,8-15.2,8-22.4C185.7,184.3,185.2,170.5,184.1,150.1z"/>
		</g>
	</g>
</g>
<g transform="matrix( 1, 0, 0, 1, 0.85,0) ">
	<g>
		<g id="Layer0_0_MEMBER_11_MEMBER_1_FILL">
			<path class="st2" d="M200.7,154.1c0.7,17.2,0.8,30.6,0.4,40.1c-0.4,9.6-3,21-7.9,34.3c-2.5,6.6-4.9,12.3-7.2,17l1.5,16.5
				c1.2,12,2.1,20.3,2.9,25c0.8,4.7,0.2,21.5-2,50.6c-1,14.5-2.2,28.6-3.4,42.2c5.1-2.1,10.5-4.5,16.4-7.3
				c4.4-12.4,6.4-25.4,6.1-39.1c-0.4-12.4-1.9-30.8-4.5-55.1l-3.8-32.8l7.3-39.1l16.6,43l10.7-7.8l-2.7,26.9
				c-1.6,19.4-1.6,32.7-0.2,40c1.7,9,11.9,29.3,30.7,60.6l2.1-0.1c4-0.2,9.1,1,15.2,3.6c-11.5-19.1-20.5-36.9-27-53.4
				c-4.6-11.3-5.1-23.9-1.8-37.8c1.9-7.8,4.6-14.8,8.2-21.1c-0.7-0.3-2.1-2.1-4-5.6c-5.5-8.1-10.3-15.3-14.3-21.6
				c-7.5-12.1-12.3-22.5-14.5-31.1c-2.2-8.7-5-20.5-8.4-35.2l-4.3-19.4l-2.4,40l-10.7-56.1L200.7,154.1z"/>
		</g>
	</g>
</g>
<g transform="matrix( 1, 0, 0, 1, 0.85,0) ">
	<g>
		<g id="Layer0_0_MEMBER_11_MEMBER_2_FILL">
			<path class="st3" d="M231.1,268.4l2.7-26.9l-10.7,7.8l-16.6-43l-7.3,39.1l3.8,32.8c2.6,24.3,4.1,42.6,4.5,55.1
				c0.4,13.7-1.6,26.7-6.1,39.1c7.8-3.6,14.6-7,20.5-10.2l11.7,3.5c9.6,2.3,18.9,3.4,27.9,3.3c-18.7-31.4-29-51.6-30.7-60.6
				C229.5,301.2,229.5,287.8,231.1,268.4z"/>
		</g>
	</g>
</g>
</svg>
