<?xml version="1.0" encoding="utf-8"?>
<!-- Generator: Adobe Illustrator 20.1.0, SVG Export Plug-In . SVG Version: 6.00 Build 0)  -->
<svg version="1.1" id="Layer_1" xmlns="http://www.w3.org/2000/svg" xmlns:xlink="http://www.w3.org/1999/xlink" x="0px" y="0px"
	 viewBox="0 0 490.7 444" style="enable-background:new 0 0 490.7 444;" xml:space="preserve">
<style type="text/css">
	.st0{fill:#DC8D68;}
	.st1{fill:#CB7857;}
	.st2{fill:#CD6C49;}
	.st3{fill:#E9BB99;}
	.st4{fill:url(#SVGID_1_);}
	.st5{fill:#C46544;}
	.st6{fill:#E4AD84;}
	.st7{fill:#AD5E40;}
	.st8{fill:#7F4A34;}
	.st9{fill:#D98560;}
	.st10{fill:#1F362F;}
	.st11{fill:#4B7466;}
	.st12{fill:#9FCABA;}
	.st13{fill:#5B907C;}
	.st14{fill:#79A596;}
	.st15{fill:#486E61;}
	.st16{fill:#538171;}
</style>
<g transform="matrix( 1, 0, 0, 1, -0.25,0.05) ">
	<g>
		<g id="Layer0_0_MEMBER_0_FILL">
			<path class="st0" d="M158.4,80.6c13.8,7.9,26.2,16.4,37.3,25.4c-1-1.1-1.8-2.7-2.5-4.8c-2.4-6.6-1.3-15.2,3.4-25.7
				c4.7-10.5,12.7-17.7,24-21.5c5.6-1.9,10.8-2.7,15.5-2.5c-23-14.1-48.4-25.4-76.2-33.9C104.3,0.7,64.8,6.3,41.2,34.6
				c-21.8,26.4-20.3,68.1,4.5,125.4c6.6,15.2,16.9,37.7,31.1,67.5c10.7,25.2,16.3,45.2,16.7,59.9c0.6,29.4-3.3,57-11.6,83
				c-4,13-8.1,23-12.4,29.9c15.2,12.4,35.4,17,60.4,13.8c12.4-1.5,23.3-4.2,32.8-8.2c0.9-17.5,0.8-37.7-0.6-60.7
				c-2.3-45.9-8.7-82.6-19.2-110.1c-7.2-18.8-16.5-40.4-28-64.7c-13.7-29-21.5-45.6-23.2-49.7c-12.6-29.7-12-48.1,1.7-55.1
				C107.6,58.7,129.2,63.6,158.4,80.6z"/>
		</g>
	</g>
</g>
<g transform="matrix( 1, 0, 0, 1, -0.25,0.05) ">
	<g>
		<g id="Layer0_0_MEMBER_1_MEMBER_0_FILL">
			<path class="st1" d="M41.2,64.2C46.5,43.1,54.4,28.1,64.9,19c5.5-4.5,10.3-6.9,14.4-7.1l-0.8-0.6c-15.2,4-27.7,11.7-37.3,23.2
				c-21.8,26.4-20.3,68.1,4.5,125.4c6.6,15.2,16.9,37.7,31.1,67.5c10.7,25.2,16.3,45.2,16.7,59.9c0.6,34.6-4.4,65.4-15,92.3
				l34.7,3.7c4.9-8.7,8.7-20.4,11.3-35.3c5.3-29.6,2-59.7-9.9-90.4c-5.6-14.9-14-32.8-25.1-53.9c-12.4-23.2-21.4-40.2-26.8-51.1
				C43.3,114,36.1,84.5,41.2,64.2z"/>
		</g>
	</g>
</g>
<g transform="matrix( 1, 0, 0, 1, -0.25,0.05) ">
	<g>
		<g id="Layer0_0_MEMBER_1_MEMBER_2_FILL">
			<path class="st1" d="M98.8,54C90.5,58.6,86.4,64.2,86.4,71c1.7-1.9,4-3.7,7.1-5.4c13-6.4,32.6-2.5,58.7,11.6
				c14.1,7.7,28.8,17.6,44,29.6c-5.5-6-5.8-15.2-1.1-27.7c-9.4-7.2-16.6-12.1-21.5-15c-8.3-5.1-17.1-8.8-26.5-11.3
				C126.4,47.5,110.3,47.8,98.8,54z"/>
		</g>
	</g>
</g>
<g transform="matrix( 1, 0, 0, 1, -0.25,0.05) ">
	<g>
		<g id="Layer0_0_MEMBER_2_FILL">
			<path class="st2" d="M161.5,415.2c7-3.2,12-6.5,15.2-9.9c0-12.8-1.4-21.6-4.2-26.3l-9.3-14.1c-14.5,5.6-29.7,8.9-45.7,9.9
				c-10,0.6-18.7-0.7-26.3-3.7l-8.5-4.8l-5.6,5.6c-4.1,4.7-7.4,9.4-9.9,14.1c-3.8,7.5-5.4,14.9-4.8,22l11.6,7.6
				c10.7,5.3,23.8,8.1,39.2,8.5C131.5,424.8,147.6,421.8,161.5,415.2z"/>
		</g>
	</g>
</g>
<g transform="matrix( 1, 0, 0, 1, -0.25,0.05) ">
	<g>
		<g id="Layer0_0_MEMBER_3_FILL">
			<path class="st3" d="M217.4,51.5c-6.2,2.6-11.1,6.2-14.7,10.7c-7.3,9-11.3,18-11.9,26.8c-0.6,8.1,1.8,14.4,7.1,18.9
				c5.1,4.3,11.2,5.5,18.4,3.4c7.3-2.1,14.1-7,20.3-14.7c6.6-8.1,10.1-16.1,10.4-24c0.2-8.5-3.5-15.5-11-21.2
				C231.3,48.1,225.1,48.1,217.4,51.5z"/>
		</g>
	</g>
</g>
<g transform="matrix( 1, 0, 0, 1, -0.25,0.05) ">
	<g>
		<g id="Layer0_0_MEMBER_4_FILL">
			
				<linearGradient id="SVGID_1_" gradientUnits="userSpaceOnUse" x1="217.8052" y1="760.1279" x2="221.3348" y2="724.127" gradientTransform="matrix(1 0 0 -1 -0.25 821.2833)">
				<stop  offset="0" style="stop-color:#893342"/>
				<stop  offset="1" style="stop-color:#2D1D1E"/>
			</linearGradient>
			<path class="st4" d="M230.4,92.4c10.9-12.6,12.3-22.7,4.2-30.2c-6.4-6-14.9-2.4-25.4,10.7c-10.5,13.2-12.4,22.8-5.6,28.8
				C210.5,108,219.5,104.9,230.4,92.4z"/>
		</g>
	</g>
</g>
<g transform="matrix( 1, 0, 0, 1, -0.25,0.05) ">
	<g>
		<g id="Layer0_0_MEMBER_5_FILL">
			<path class="st5" d="M90.9,225.4c-16-29.2-27.2-50-33.6-62.4c-13.7-26.7-22.2-50.8-25.4-72.3c-1.5-10.7-1.7-18.8-0.6-24.3
				c-2.4,7.9-2.7,18.4-0.8,31.6c1.3,8.8,4.8,21.3,10.4,37.3c4.3,12.8,9.1,25.1,14.4,37c2.8,6.4,10.9,22.7,24.3,48.8
				c12,25.8,18.5,44.8,19.5,57c1.3,19.8-1,49.1-7.1,88.1c3.8,4.3,10.4,5.6,19.8,3.7c1.1-7.2,2.1-15.9,2.8-26.3
				c1.5-20.9,1.2-39.2-0.8-55.1C111.7,272.7,104.1,251.6,90.9,225.4z"/>
		</g>
	</g>
</g>
<g transform="matrix( 1, 0, 0, 1, -0.25,0.05) ">
	<g>
		<g id="Layer0_0_MEMBER_6_FILL">
			<path class="st5" d="M187.2,91c-0.6-5.3-0.3-8.8,0.8-10.4c-3-2.6-7.2-5.5-12.7-8.5c-10.7-6-22-10.1-33.9-12.1
				c-11.7-2.1-21.6-2.5-29.6-1.4l-8.5,2.3c16,0.9,31.1,4.7,45.2,11.3c14.1,6.6,27.5,15.2,40.1,26C188.1,95.8,187.6,93.5,187.2,91z"
				/>
		</g>
	</g>
</g>
<g transform="matrix( 1, 0, 0, 1, -0.25,0.05) ">
	<g>
		<g id="Layer0_0_MEMBER_7_FILL">
			<path class="st3" d="M196.8,56c4.1-4.5,8.9-7.6,14.4-9.3c-7.5-3.6-16.3-7.3-26.3-11.3c-20.1-7.9-36.5-12.6-49.1-14.1
				s-24.8-0.8-36.7,2.3L85,28.4l20.6-1.4c16.9,0,32.8,2.8,47.7,8.5c15.1,5.5,26.1,11.6,33,18.4c3.6,3.4,5.6,6.2,5.9,8.5L196.8,56z"
				/>
		</g>
	</g>
</g>
<g transform="matrix( 1, 0, 0, 1, -0.25,0.05) ">
	<g>
		<g id="Layer0_0_MEMBER_8_FILL">
			<path class="st6" d="M81,151.7c20.6,37.6,35.5,69.6,44.9,96c6.4,18.3,10.4,41.6,11.9,70c0.6,14.3,0.6,26.7,0,37.3l15.5-0.6
				c0.6-11.7,0.3-25.1-0.8-40.4c-1.9-30.3-6.5-54-13.8-71.2L96.3,139.9c5.6,23,6.6,34,2.8,33c-3.6-0.8-8.8-6.5-15.8-17.2L81,151.7z"
				/>
		</g>
	</g>
</g>
<g transform="matrix( 1, 0, 0, 1, -0.25,0.05) ">
	<g>
		<g id="Layer0_0_MEMBER_9_MEMBER_0_FILL">
			<path class="st7" d="M160.9,415.5l0.3-0.3c-5.8,1.5-12.1,2.5-18.9,3.1c-13.2,1.5-21.7,0.5-25.7-3.1c-3.8-3.6-4.7-11.4-2.8-23.4
				l3.7-16.9c-10,0.6-18.7-0.7-26.3-3.7l-8.5-4.8l-5.6,5.6c-4.1,4.7-7.4,9.4-9.9,14.1c-3.8,7.5-5.4,14.9-4.8,22l11.6,7.6
				c10.7,5.3,23.8,8.1,39.2,8.5C131.5,425,147.4,422.1,160.9,415.5z"/>
		</g>
	</g>
</g>
<g transform="matrix( 1, 0, 0, 1, -0.25,0.05) ">
	<g>
		<g id="Layer0_0_MEMBER_10_FILL">
			<path class="st8" d="M101.9,384.1L86.4,379l-4.2,6.2c-2.8,4.9-4.5,8.9-5.1,12.1c-0.9,5.3-0.5,9.5,1.4,12.7l20.6,6.5
				c-2.8-4.7-3.1-11.3-0.8-19.8L101.9,384.1z"/>
		</g>
	</g>
</g>
<g transform="matrix( 1, 0, 0, 1, -0.25,0.05) ">
	<g>
		<g id="Layer0_0_MEMBER_11_FILL">
			<path class="st9" d="M164.6,381.9c-5.1-5.5-11.4-7.1-18.9-4.8l4.2,7.3c2.8,5.3,4.2,8.9,4.2,11v11.3l7.6-0.3
				c5.1-1.1,7.9-3.9,8.5-8.2C171,392.2,169.1,386.8,164.6,381.9z"/>
		</g>
	</g>
</g>
<g transform="matrix( 1, 0, 0, 1, -0.25,0.05) ">
	<g>
		<g id="Layer0_0_MEMBER_12_FILL">
			<path class="st10" d="M258.6,96.4c20,8.1,43.5,15,70.6,20.6l6.5-24.3c-5.8,0.8-13.3,1.1-22.3,1.1c-18.1,0-35.4-2-52-5.9
				c-16.4-4-28.3-7.8-35.9-11.6l-6.5-4.5c-3.2,0.8-5.3,2-6.2,3.7l-0.6,2L258.6,96.4z"/>
		</g>
	</g>
</g>
<g transform="matrix( 1, 0, 0, 1, -0.25,0.05) ">
	<g>
		<g id="Layer0_0_MEMBER_13_FILL">
			<path class="st10" d="M254.7,111.1c13.2,7.5,33.4,18.2,60.7,31.9l4.8-13.6c-19.8-4.7-36.4-9.9-50-15.5
				c-8.3-3.6-20.5-10-36.7-19.2l-21.5-13c-1.7,0-3,0.5-4,1.4l-0.8,1.1L254.7,111.1z"/>
		</g>
	</g>
</g>
<g transform="matrix( 1, 0, 0, 1, -0.25,0.05) ">
	<g>
		<g id="Layer0_0_MEMBER_14_FILL">
			<path class="st11" d="M289.7,145.2l-31.1,2l46,34.7l33.9-17.8L289.7,145.2z"/>
		</g>
	</g>
</g>
<g transform="matrix( 1, 0, 0, 1, -0.25,0.05) ">
	<g>
		<g id="Layer0_0_MEMBER_15_FILL">
			<path class="st12" d="M336.6,10.8l31.1,59.3l27.4-9.6l-29.1-40.4L336.6,10.8z"/>
		</g>
	</g>
</g>
<g transform="matrix( 1, 0, 0, 1, -0.25,0.05) ">
	<g>
		<g id="Layer0_0_MEMBER_16_FILL">
			<path class="st13" d="M372.4,59.7l-35.9-48.8l-33.9,152.5l-44-16.1l43.2,92.3L412,201.7l-48.8-29.9l85.6-124.2L372.4,59.7z"/>
		</g>
	</g>
</g>
<g transform="matrix( 1, 0, 0, 1, -0.25,0.05) ">
	<g>
		<g id="Layer0_0_MEMBER_17_FILL">
			<path class="st14" d="M448.7,47.6l-85.6,124.2h24.3l86.7-124.2H448.7z"/>
		</g>
	</g>
</g>
<g transform="matrix( 1, 0, 0, 1, -0.25,0.05) ">
	<g>
		<g id="Layer0_0_MEMBER_18_FILL">
			<path class="st12" d="M387.4,171.8h-24.3l48.8,29.9l23.4-5.6L387.4,171.8z"/>
		</g>
	</g>
</g>
<g transform="matrix( 1, 0, 0, 1, -0.25,0.05) ">
	<g>
		<g id="Layer0_0_MEMBER_19_FILL">
			<path class="st15" d="M302.1,197.8l1.7-9.3c-0.5,2.6-1.3,4.6-2.5,6.2c-2.4,3.6-5.4,3.1-8.8-1.4l-26-37.3l37.6,78.2l23.2-9
				c-1.5,0.5-3.1,0.8-4.8,0.8c-7,0.6-12.2-2.1-15.8-7.9C303.1,212.3,301.6,205.5,302.1,197.8z"/>
		</g>
	</g>
</g>
<g transform="matrix( 1, 0, 0, 1, -0.25,0.05) ">
	<g>
		<g id="Layer0_0_MEMBER_20_FILL">
			<path class="st14" d="M364.5,57.7c-0.9-6.6-9.6-18.1-26-34.4c13.2,21.1,19.1,34.4,17.8,40.1c-1.1,5.6-3.3,11.6-6.5,17.8l7.9-7.9
				C362.8,67,365.1,61.9,364.5,57.7z"/>
		</g>
	</g>
</g>
<g transform="matrix( 1, 0, 0, 1, -0.25,0.05) ">
	<g>
		<g id="Layer0_0_MEMBER_21_FILL">
			<path class="st14" d="M384.6,62.8l30.2,2.5c4,0.4,1.6,6-7.1,16.9l-14.1,16.4c28.8-26.9,42.3-41.2,40.4-42.9
				C432.1,54.2,415.6,56.6,384.6,62.8z"/>
		</g>
	</g>
</g>
<g transform="matrix( 1, 0, 0, 1, -0.25,0.05) ">
	<g>
		<g id="Layer0_0_MEMBER_22_FILL">
			<path class="st16" d="M307.5,160.8l33.9-62.7c-13.2,17.9-19.1,23-17.8,15.2l14.1-71.2L307.5,160.8z"/>
		</g>
	</g>
</g>
<g transform="matrix( 1, 0, 0, 1, -0.25,0.05) ">
	<g>
		<g id="Layer0_0_MEMBER_23_FILL">
			<path class="st16" d="M343.6,221.5l51.4-22c-0.8-0.2-5.1,0.8-13,2.8c-9.4,2.6-14.8,4-16.1,4.2l-28.8,5.6
				c11.7-0.8,17.1-0.5,16.4,0.8C352.8,214.7,349.5,217.5,343.6,221.5z"/>
		</g>
	</g>
</g>
<g transform="matrix( 1, 0, 0, 1, -0.25,0.05) ">
	<g>
		<g id="Layer0_0_MEMBER_24_FILL">
			<path class="st14" d="M357.8,172.9l-5.1,4l38.1,17.2L357.8,172.9z"/>
		</g>
	</g>
</g>
</svg>
