<?xml version="1.0" encoding="utf-8"?>
<!-- Generator: Adobe Illustrator 20.1.0, SVG Export Plug-In . SVG Version: 6.00 Build 0)  -->
<svg version="1.1" id="Layer_1" xmlns="http://www.w3.org/2000/svg" xmlns:xlink="http://www.w3.org/1999/xlink" x="0px" y="0px"
	 viewBox="0 0 306.9 500" style="enable-background:new 0 0 306.9 500;" xml:space="preserve">
<style type="text/css">
	.st0{fill:#81836F;}
</style>
<g transform="matrix( 1, 0, 0, 1, 0,0) ">
	<g>
		<g id="Layer0_0_FILL">
			<path class="st0" d="M237.2,115.8c1.2,16.9,6.7,45.1,16.4,84.4c5.5,32.1,0,50.2-16.4,54.2c-16.9,4.2-28.8,5-35.5,2.2l-5.2-5.6
				c-0.5-38.8-2.6-77.6-6.3-116.2c-7.2-77.4-18.6-115.4-34-113.9c-15.7,1.5-22.7,28.5-20.9,81.1c0.7,26.1,3.1,52.2,7.1,78.1
				c-6.7,4-14.6,7.2-23.5,9.7c-17.9,5-32.6,4-44.1-3c-11.2-7-17.9-27.6-20.2-62c-1-17.2-1-33.7,0-49.7c-5,1.2-10,3.7-14.9,7.5
				c-10.2,8-15.3,19-15.3,33.2c0,25.9,3.5,50.4,10.5,73.6c9.7,32.1,24.2,48.2,43.3,48.2c29.4,0,53-3.4,71-10.1l5.6,67.2
				c3,48.8,2.2,83.8-2.2,105c-4.2,21.2-13.3,39.3-27.3,54.5c-7,7.7-13.6,13.2-19.8,16.4l22-6c15.7-3.2,26.4-3.5,32.1-0.7
				c9,4.5,14.6,11.2,16.8,20.2c4-4,8.5-7.8,13.4-11.6c10.2-8,18.1-12,23.5-12c5.7,0,12,4,18.7,12c2.7,2.9,5.1,5.9,7.1,9
				c-4.1-6.9-8.6-16.2-13.4-27.6c-10.7-25.9-18.2-52.9-22.4-81.1c-6.7-45.1-9-75.6-6.7-91.5l25,9c18.7,4,32.9,1,42.6-9
				c10-9.7,12.5-46.4,7.5-110.2c-2.7-31.9-6.3-62.8-10.8-92.6c-4.5-2.2-8.8-2.4-13.1-0.4C239.2,82,235.8,94.6,237.2,115.8z"/>
		</g>
	</g>
</g>
</svg>
