<?xml version="1.0" encoding="utf-8"?>
<!-- Generator: Adobe Illustrator 20.1.0, SVG Export Plug-In . SVG Version: 6.00 Build 0)  -->
<svg version="1.1" id="Layer_1" xmlns="http://www.w3.org/2000/svg" xmlns:xlink="http://www.w3.org/1999/xlink" x="0px" y="0px"
	 viewBox="0 0 765.3 761.3" style="enable-background:new 0 0 765.3 761.3;" xml:space="preserve">
<style type="text/css">
	.st0{fill:#2F5D60;}
	.st1{fill:#FFFFFF;}
</style>
<g transform="matrix( 1, 0, 0, 1, 0.35,-4.25) ">
	<g>
		<g id="Layer0_0_MEMBER_0_FILL">
			<path class="st0" d="M547.6,695.1l-0.2-30.4l-7.1,28.9l-15.8-15.8l13.8,25.6l-23.9,14.9l30.7-7.8l7.8,27.5l-2.6-31l16.5,9
				l-13.4-15.3l12.2-16.5L547.6,695.1z"/>
		</g>
	</g>
</g>
<g transform="matrix( 1, 0, 0, 1, 0.35,-4.25) ">
	<g>
		<g id="Layer0_0_MEMBER_1_FILL">
			<path class="st1" d="M318,645.5l-13.1-12.1l11.2,15.8l-17.2,13.1l17.8-8.6l-2.8,20.4l5.5-18.8l13.5,10.1l-8.4-13l14.8-15
				l-16.8,11l-1.8-14.7L318,645.5z"/>
		</g>
	</g>
</g>
<g transform="matrix( 1, 0, 0, 1, 0.35,-4.25) ">
	<g>
		<g id="Layer0_0_MEMBER_2_FILL">
			<path class="st1" d="M386.3,725l-8.9,9l10.4-4.8l9.7,12.5l-6.5-13.7l11,0.2l-8.3-3.3l10.3-8.5l-12.9,6.7l-7.9-14.2l4.5,14.1
				l-14.9-4.2L386.3,725z"/>
		</g>
	</g>
</g>
<g transform="matrix( 1, 0, 0, 1, 0.35,-4.25) ">
	<g>
		<g id="Layer0_0_MEMBER_3_FILL">
			<path class="st1" d="M69.1,680.3l-14.5-3.6l12.9,6.3l-8.4,6.4l8.2-2.5l-2.7,12.3l5.6-12.6l14.2,5.8l-11.7-7.8l13.6-5.8l-13.6,3.5
				l1.2-12L69.1,680.3z"/>
		</g>
	</g>
</g>
<g transform="matrix( 1, 0, 0, 1, 0.35,-4.25) ">
	<g>
		<g id="Layer0_0_MEMBER_4_FILL">
			<path class="st1" d="M174.2,603.5c2,8.4,3,13,3.1,13.8c0.1,0.8-3.1,0.1-9.8-2.1l11.3,7.7l-13.9,10.6l15.8-7.9l-0.6,12.6l4.6-11.9
				l10.4,12.7l-8.3-16.5l15.4-6.2l-17,3l2.8-13.7l-6.6,12.5L174.2,603.5z"/>
		</g>
	</g>
</g>
<g transform="matrix( 1, 0, 0, 1, 0.35,-4.25) ">
	<g>
		<g id="Layer0_0_MEMBER_5_FILL">
			<path class="st1" d="M631.9,659.6l2.8,26.5l-26.9-14.2l29.1,20.2l-21.2,18.6l20.1-10.8l-0.7,24.8l10.2-25.5l26.4,20.7l-24.5-26.5
				l24.5-22.1l-26.4,15.3l0.7-35.7l-5.1,36.2L631.9,659.6z"/>
		</g>
	</g>
</g>
<g transform="matrix( 1, 0, 0, 1, 0.35,-4.25) ">
	<g>
		<g id="Layer0_0_MEMBER_6_FILL">
			<path class="st1" d="M158.1,717.1l11.2-6.4l-13.9,5.8l-1.9-11.8l-0.7,9.6l-8.8-5.8l6.8,9.4l-13.4,4.8l15.1-2.8l2.3,13.8l0.5-13
				l12.7,8.3l-11.8-10l11.9,3.1L158.1,717.1z"/>
		</g>
	</g>
</g>
<g transform="matrix( 1, 0, 0, 1, 0.35,-4.25) ">
	<g>
		<g id="Layer0_0_MEMBER_7_FILL">
			<path class="st0" d="M635.7,544.8l7.9-27.8l23,24.8l-20.3-28l24.2,13l-19.2-16.2l27.6-8l-33.1,5.4l2.2-26.6l-6.6,20.5l-15.8-17.4
				l9.8,24l-31.6,3.3l34.1,1.9L635.7,544.8z"/>
		</g>
	</g>
</g>
<g transform="matrix( 1, 0, 0, 1, 0.35,-4.25) ">
	<g>
		<g id="Layer0_0_MEMBER_8_FILL">
			<path class="st0" d="M461.7,573l6.1,24.6l-3.6-29.3l23.4,2.9l-17.9-6.5l15.8-13.3l-21.4,7.8l-1.8-27.8l-2.9,29.9l-27.3-3
				l24.2,7.9l-22.6,19.3l25.3-16.9l-12.2,20.9L461.7,573z"/>
		</g>
	</g>
</g>
<g transform="matrix( 1, 0, 0, 1, 0.35,-4.25) ">
	<g>
		<g id="Layer0_0_MEMBER_9_FILL">
			<path class="st0" d="M236.6,449.9l-13.8,13.2l5.2-14.2l-7.4,11.8l-6.5-14.6l5.4,17.8l-14.8,0.8l11.8,2l-8.3,10l12.4-7.2l4.2,17.1
				l-1.6-18.9l17.2-1.1l-15.9-2.2L236.6,449.9z"/>
		</g>
	</g>
</g>
<g transform="matrix( 1, 0, 0, 1, 0.35,-4.25) ">
	<g>
		<g id="Layer0_0_MEMBER_10_FILL">
			<path class="st0" d="M355.7,490.5l12.1-5.5l-2.6,15l5.1-17l12,7.2l-8.2-7.9l11.9-3.6l-13.6-0.8l5.7-15.7l-8.8,15.7l-14.2-8.2
				l11.4,10.1l-17,5.2l17.9-3.2L355.7,490.5z"/>
		</g>
	</g>
</g>
<g transform="matrix( 1, 0, 0, 1, 0.35,-4.25) ">
	<g>
		<g id="Layer0_0_MEMBER_11_FILL">
			<path class="st1" d="M576.2,549.4l-8.1,8.8l12.1-6l7.9,16.5l-4.2-16.9l12.2-5.4l-12.4,1.3l-3.5-17.8l-2,17l-10-5.5L576.2,549.4z"
				/>
		</g>
	</g>
</g>
<g transform="matrix( 1, 0, 0, 1, 0.35,-4.25) ">
	<g>
		<g id="Layer0_0_MEMBER_12_FILL">
			<path class="st1" d="M284.1,413.6l-26.4-0.6l24.4,5.7L281,438l6.4-16.8l25.2,7.2L292,414.8l13.7-9.3l-15.4,4.8l-6-16.1
				L284.1,413.6z"/>
		</g>
	</g>
</g>
<g transform="matrix( 1, 0, 0, 1, 0.35,-4.25) ">
	<g>
		<g id="Layer0_0_MEMBER_13_FILL">
			<path class="st1" d="M714.7,380.3l16-37l-22,31.3L681.9,362l20.1,18.7l-24.7,31.5l31.2-21.4l5.3,24.8l1.9-24.6l26.3,0.8
				L714.7,380.3z"/>
		</g>
	</g>
</g>
<g transform="matrix( 1, 0, 0, 1, 0.35,-4.25) ">
	<g>
		<g id="Layer0_0_MEMBER_14_FILL">
			<path class="st1" d="M687.6,566.6l8.8,30.4l-22,10.7l22.5-3.2l7.5,32.3l2.4-31.2l18.7,9.4l-14.9-14l14.2-16.5l-21.8,11.7
				L687.6,566.6z"/>
		</g>
	</g>
</g>
<g transform="matrix( 1, 0, 0, 1, 0.35,-4.25) ">
	<g>
		<g id="Layer0_0_MEMBER_15_FILL">
			<path class="st1" d="M358.6,322.4l4.9,20.8l-11.6,15.6l15.4-11.6l13,10.1l-8-15l14.5-9.8l-17.6,6.4L358.6,322.4z"/>
		</g>
	</g>
</g>
<g transform="matrix( 1, 0, 0, 1, 0.35,-4.25) ">
	<g>
		<g id="Layer0_0_MEMBER_16_FILL">
			<path class="st0" d="M596.3,317l-19.3-4.5l16.3,12.4l-11,18l16-15.9l19.9,12.9l-15.8-20.4l5-22.9L596.3,317z"/>
		</g>
	</g>
</g>
<g transform="matrix( 1, 0, 0, 1, 0.35,-4.25) ">
	<g>
		<g id="Layer0_0_MEMBER_17_FILL">
			<path class="st1" d="M134.4,538.4l20.1,9.1l5.3,19.3l0.3-19.9l16.4-4.2l-17.3-2.9l1.2-18l-5.8,18.4L134.4,538.4z"/>
		</g>
	</g>
</g>
<g transform="matrix( 1, 0, 0, 1, 0.35,-4.25) ">
	<g>
		<g id="Layer0_0_MEMBER_18_FILL">
			<path class="st1" d="M505.6,426l16.7,2.8l-14.7-10.6l19.9-21l-24.7,17.5l-7-20l-0.5,23.9l-28.5,4.5c18.5,1,28.4,2,29.6,2.9
				c0.8,0.6,0.3,4.7-1.5,12.5c-0.8,3.9-1.8,7.7-2.8,11.4L505.6,426z"/>
		</g>
	</g>
</g>
<g transform="matrix( 1, 0, 0, 1, 0.35,-4.25) ">
	<g>
		<g id="Layer0_0_MEMBER_19_FILL">
			<path class="st1" d="M104,257.5c0,0.7-3.4,2.1-10.1,4.2l12.2-0.7l3,6.9l0.4-8.1l12.8,2.4l-12.6-5.1l5.8-7.5l-9.1,5.6l-8.7-9.6
				C101.9,252.9,104,256.9,104,257.5z"/>
		</g>
	</g>
</g>
<g transform="matrix( 1, 0, 0, 1, 0.35,-4.25) ">
	<g>
		<g id="Layer0_0_MEMBER_20_FILL">
			<path class="st0" d="M197.4,324.6l-4.6,15.9c-3.2,10.8-5.3,16.5-6.1,17.2c-0.8,0.8-5.5-0.8-13.9-4.8l-12.4-6.1l23.8,21.5
				l-7.3,18.4l15.8-14.1l19.1,28L198,367.9l24.6-3l-27.2-6.6L197.4,324.6z"/>
		</g>
	</g>
</g>
<g transform="matrix( 1, 0, 0, 1, 0.35,-4.25) ">
	<g>
		<g id="Layer0_0_MEMBER_21_FILL">
			<path class="st1" d="M285.5,591.2l6.6-7.8l-19.5,13.1l-11.8-8.5l7.2,13.8l-23.5,8.6l25.9-4l-2.3,18.1l9.5-18.2l23.8,7.5
				c-3.5-2-7-4-10.5-6.1c-7.1-4.2-10.9-6.7-11.2-7.5C279.2,599.5,281.2,596.5,285.5,591.2z"/>
		</g>
	</g>
</g>
<g transform="matrix( 1, 0, 0, 1, 0.35,-4.25) ">
	<g>
		<g id="Layer0_0_MEMBER_22_FILL">
			<path class="st0" d="M340.4,91.9c3.8,0.6,7.5,1.2,11.2,1.9l-23.8-11.4l1.5-16.2l-9.2,14.8l-21.6-17.7L317,86l-18.8,8.1l23-1.2
				l6.3,27.1c-0.1-4.5-0.1-9-0.1-13.7c0.1-9.3,0.3-14.3,0.8-15.1C328.8,90.6,332.8,90.8,340.4,91.9z"/>
		</g>
	</g>
</g>
<g transform="matrix( 1, 0, 0, 1, 0.35,-4.25) ">
	<g>
		<g id="Layer0_0_MEMBER_23_FILL">
			<path class="st1" d="M698.3,53l14.7-5l-17.5,0.4l-0.8-15.8l-2.4,17l-7.8-6.9l5.3,9.9l-8.6,7.4l11-3.7l-3.7,16.3l7.4-14.7
				l6.5,10.4L698.3,53z"/>
		</g>
	</g>
</g>
<g transform="matrix( 1, 0, 0, 1, 0.35,-4.25) ">
	<g>
		<g id="Layer0_0_MEMBER_24_FILL">
			<path class="st0" d="M553.4,119.8l-3.5,18.2l11.1-21.5l21.3,9.6l-19.6-17.5L578,90.5l-20,16.2l-1.5-15.5l-4.4,16.3l-17-0.7
				l15.9,7.3l-20.9,14.3L553.4,119.8z"/>
		</g>
	</g>
</g>
<g transform="matrix( 1, 0, 0, 1, 0.35,-4.25) ">
	<g>
		<g id="Layer0_0_MEMBER_25_FILL">
			<path class="st0" d="M622.1,225.1l16.4,13.6l-15.4-22.9l21.2-16.1L616,209.7l-9.9-25.3l5.3,29l-16.4-7l14,13.3l-10,16.8l16-11.9
				l3,28.7L622.1,225.1z"/>
		</g>
	</g>
</g>
<g transform="matrix( 1, 0, 0, 1, 0.35,-4.25) ">
	<g>
		<g id="Layer0_0_MEMBER_26_FILL">
			<path class="st1" d="M92.1,91.9l27.8,8.2l-28-14.4l16.7-9.3l-20.4,3.2l-7.6-19.4l-0.4,21.3L54.1,65.3l21,21.8L53,92l29.4,1.9
				l-0.2,28.5L92.1,91.9z"/>
		</g>
	</g>
</g>
<g transform="matrix( 1, 0, 0, 1, 0.35,-4.25) ">
	<g>
		<g id="Layer0_0_MEMBER_27_FILL">
			<path class="st1" d="M267,195.1l22.9,6.5l-23.1-11.7l13.6-7.8l-16.7,2.8l-6.4-15.8l-0.1,17.5l-21.7-13.1l17.4,17.7l-18.1,4.3
				l24.2,1.3l0,23.4L267,195.1z"/>
		</g>
	</g>
</g>
<g transform="matrix( 1, 0, 0, 1, 0.35,-4.25) ">
	<g>
		<g id="Layer0_0_MEMBER_28_FILL">
			<path class="st1" d="M186.7,41.1l3.6,11.9l-0.6-12.2l8.1,4.4l-8.4-8.5l7.7-8.5L186,34.8l-6.2-10l4.6,11.9l-7.5-1.7l7,4.5
				l-2.9,7.9L186.7,41.1z"/>
		</g>
	</g>
</g>
<g transform="matrix( 1, 0, 0, 1, 0.35,-4.25) ">
	<g>
		<g id="Layer0_0_MEMBER_29_FILL">
			<path class="st0" d="M65.3,391.9l3.8-7.7l8.4,2l-7.2-5.2l11.8-5l-12.4,2l3.6-8.7l-7.7,9.5l-9.7-6.9l8,10.6l-9.4,7.5l11.6-6
				L65.3,391.9z"/>
		</g>
	</g>
</g>
<g transform="matrix( 1, 0, 0, 1, 0.35,-4.25) ">
	<g>
		<g id="Layer0_0_MEMBER_30_FILL">
			<path class="st0" d="M70.2,588l-16.1-21.5l10.1,24.2l-19.5-3l23.2,11l-9.3,23l17.8-21.6l19.9,15.5l-18-20.6l16.4-2.2l-17.5-3.9
				v-18.2L70.2,588z"/>
		</g>
	</g>
</g>
<g transform="matrix( 1, 0, 0, 1, 0.35,-4.25) ">
	<g>
		<g id="Layer0_0_MEMBER_31_FILL">
			<path class="st0" d="M38.1,185.8l-9.8-8.8l7.2,10.7l-9.6,0.4l12.2,3l-2.2,12l6.5-12.1l11,5.6l-10.6-8.2l7.6-2.6l-8.8-0.2
				l-1.8-8.7L38.1,185.8z"/>
		</g>
	</g>
</g>
<g transform="matrix( 1, 0, 0, 1, 0.35,-4.25) ">
	<g>
		<g id="Layer0_0_MEMBER_32_FILL">
			<path class="st1" d="M418.6,65l20.5,2.3l-16.8-8.5l6.3-25l-11,22.2l-10.9-14.5l4.2,14.1l-21.3-4.7l21.8,9.8l-10.2,24.5l13.5-20.1
				l9.7,23.3L418.6,65z"/>
		</g>
	</g>
</g>
<g transform="matrix( 1, 0, 0, 1, 0.35,-4.25) ">
	<g>
		<g id="Layer0_0_MEMBER_33_FILL">
			<path class="st1" d="M466.4,256l5.8-34.8l26.9,25.1l-21.7-27.5l28.7-9.4l-27.5-1.1l-6.7-37.1l-1.2,36l-23.2-12.7l14.1,16.2
				l-31.1,6.6l34.7-0.1L466.4,256z"/>
		</g>
	</g>
</g>
<g transform="matrix( 1, 0, 0, 1, 0.35,-4.25) ">
	<g>
		<g id="Layer0_0_MEMBER_34_FILL">
			<path class="st0" d="M415.1,380.6l20.2,7.9l-18.6,13.1l19.4-9.6l1.9,18.5l4.2-16.5l23.2,0.7l-21.6-5.4l10.6-12.4l-11.5,6.4
				l-0.1-19.6l-4.4,21L415.1,380.6z"/>
		</g>
	</g>
</g>
<g transform="matrix( 1, 0, 0, 1, 0.35,-4.25) ">
	<g>
		<g id="Layer0_0_MEMBER_35_FILL">
			<path class="st0" d="M703.1,151.2l20.9-5.8l-23.7,1.6l-4-22.9l-0.2,26.8l-15.8,11.8l18.7-8l7.8,9.2L703.1,151.2z"/>
		</g>
	</g>
</g>
<g transform="matrix( 1, 0, 0, 1, 0.35,-4.25) ">
	<g>
		<g id="Layer0_0_MEMBER_36_FILL">
			<path class="st0" d="M176,102.6l15.3-15.4L172.3,99l-9.9-8.8l5.9,13.2l-21.7,9.7l25.5-5.6l8.1,24.4L176,102.6z"/>
		</g>
	</g>
</g>
<g transform="matrix( 1, 0, 0, 1, 0.35,-4.25) ">
	<g>
		<g id="Layer0_0_MEMBER_37_FILL">
			<path class="st1" d="M508.5,70.7l15.1,20l-8.3-24.1l32,6.2l-33.7-14.6L529,29l-22,26.4l-13.4-24.5l6.1,27.5l-29.3-12.8
				c13.7,10.2,21.2,15.8,22.5,16.9c0.8,0.7-1.9,2.4-8,5.2l-9.5,4l27-2.8l-7.8,33.9L508.5,70.7z"/>
		</g>
	</g>
</g>
</svg>
