<?xml version="1.0" encoding="utf-8"?>
<!-- Generator: Adobe Illustrator 20.1.0, SVG Export Plug-In . SVG Version: 6.00 Build 0)  -->
<svg version="1.1" id="Layer_1" xmlns="http://www.w3.org/2000/svg" xmlns:xlink="http://www.w3.org/1999/xlink" x="0px" y="0px"
	 viewBox="0 0 590.3 202.8" style="enable-background:new 0 0 590.3 202.8;" xml:space="preserve">
<style type="text/css">
	.st0{opacity:0.75;fill:#FBDBA1;}
	.st1{opacity:0.8;fill:#F9D38B;}
	.st2{opacity:0.7;fill:#F9D38B;}
</style>
<g>
	<path class="st0" d="M427.8,114.3l27.1,1.3c21.4,0.8,40.3,1.1,56.9,1c53-0.6,71.9-6.2,56.9-16.7c-15-10.5-46.6-19.1-94.8-25.7
		c-15-2.1-30.8-3.9-47.4-5.3l-20.3-1.5c1.2-8.4,0.5-16.6-2.2-24.4c-5.4-15.6-17.9-22-37.5-19c-19.5,3-33.8,12.3-42.9,28
		c-2.8,4.9-5,10.1-6.4,15.7c-0.7,2.8-1.2,5.1-1.3,6.9c-4.8-4.2-10.7-8.4-17.6-12.6c-13.8-8.4-26-12.6-36.6-12.6
		c-21.1,0-45.5,9-73.2,27.1c-13.8,9-25.5,18.1-35.1,27.1c-10.8-4.8-23.3-8.9-37.4-12.2c-28.3-6.6-50.7-6.2-67.3,1.3
		c-9.7,4.4-16.3,9.6-19.7,15.6c-3.3,5.7-3.4,11.3-0.1,16.9c3.3,5.7,9.6,10.4,18.8,14.2c10,4.1,22.4,6.6,37.1,7.5
		c25.6,1.5,54.3-0.4,86.2-5.8c15.9-2.7,29.3-5.6,40.1-8.6l0.8,9.3c1,7.3,2.9,13.7,5.5,19.1c8.4,17.5,23.2,22.4,44.2,14.9
		c21.1-7.5,36.4-18.2,46-32c4.8-6.9,7.5-13.1,8.1-18.5l6.1,4.5c5.2,3.5,10.6,6.7,16,9.6c17.5,9,32.9,12.8,46.5,11.3
		c13.6-1.5,24.9-7.9,33.9-19.4C422.8,125.3,426,119.7,427.8,114.3z"/>
	<path class="st1" d="M193.1,128.5c8.4-4.2,14.7-8.3,18.8-12.3c-4.8,1.1-10.6,2.3-17.5,3.6c-13.7,2.6-25.6,4.3-35.9,5.3
		c-15,1.4-31.9,1.5-50.6,0.3c-22.3-1.4-36.3-4.4-41.9-9c-5.7-4.5-8.8-9.9-9.4-16.1c-0.2-2-0.1-3.9,0.2-5.8l0.5-2.2
		c-6.9,3.2-12.7,6.6-17.5,10.2c-9.1,6.8-12,13.8-8.7,20.9c3.9,8.1,15.8,13.9,36,17.2c18.1,3,40.9,3.7,68.4,2.3
		C157.1,141.7,176.3,137,193.1,128.5z"/>
	<path class="st2" d="M307.3,130.9c4.5-8.9,6.5-17.3,6.1-25.4c-3.2,4.9-7.6,10.3-13.1,16.1c-11,11.7-22.1,20-33.4,24.9
		c-11.3,4.9-22.5,4-33.6-2.6c-3.5-2.1-6.7-4.6-9.7-7.6l-3.6-3.9l-0.7,5.7c-0.4,4.6-0.2,8.9,0.6,13c2.4,12.9,9.7,20.3,22,22.3
		c7.5,1.2,15.7,0,24.5-3.8c8.3-3.5,16.1-8.7,23.5-15.7C297.3,146.9,303.1,139.2,307.3,130.9z"/>
	<path class="st2" d="M417.9,125.4c5.1-8.6,7.1-16.6,6.1-24c-0.8,4.9-2.5,9.8-5.3,15c-5.5,10.2-13.3,16-23.4,17.3s-25-5.8-44.8-21.4
		c-6.2-4.9-12.5-10.3-19-16.2l-7.8-7.5l-1.3,3.4c-1,2.8-1.7,5.6-2.2,8.4c-1.5,8.9-0.4,16.3,3.4,22c2.2,3.4,6.2,6.9,11.9,10.5
		c5.6,3.6,11.9,6.7,18.8,9.3c16.5,6.1,29.8,7.3,39.9,3.4C404.4,141.8,412.2,135,417.9,125.4z"/>
	<path class="st1" d="M543.7,112.2c5.9-0.8,10.3-1.7,13.3-2.6c-4.6,0.3-10.2,0.6-16.8,0.8c-13.1,0.5-24.6,0.6-34.4,0.4
		c-9.8-0.2-25.2-1.4-46.1-3.6l-28.5-3.1l-1.2,7.2l24.4,1.3c19.2,0.9,35.9,1.5,50.2,1.7C518.9,114.6,531.9,113.9,543.7,112.2z"/>
</g>
</svg>
