<?xml version="1.0" encoding="utf-8"?>
<!-- Generator: Adobe Illustrator 20.1.0, SVG Export Plug-In . SVG Version: 6.00 Build 0)  -->
<svg version="1.1" id="Layer_1" xmlns="http://www.w3.org/2000/svg" xmlns:xlink="http://www.w3.org/1999/xlink" x="0px" y="0px"
	 viewBox="0 0 865 305.3" style="enable-background:new 0 0 865 305.3;" xml:space="preserve">
<style type="text/css">
	.st0{opacity:0.75;fill:#FBDBA1;}
	.st1{opacity:0.8;fill:#F9D38B;}
	.st2{opacity:0.7;fill:#F9D38B;}
</style>
<g>
	<path class="st0" d="M661.1,128.8l-10.9,5.2c-4.2-10.9-10.9-22-20.1-33.3c-18.5-22.7-40.3-35.1-65.5-37.2
		c-25.2-2.1-49.5,5.7-73,23.3c-7.3,5.5-14.2,11.6-20.5,18.5l-7.2,8.6c-7.6-16.8-17.8-33.3-30.8-49.7c-26-32.7-52.7-48.1-80-46
		c-46.2,3.6-74.4,23.1-84.4,58.6c-3.1,11.1-4.3,23.1-3.4,36.1c0.4,6.5,1.2,11.9,2.3,16.1c-35.2,0-72,2.3-110.1,7
		C81,145.2,35.5,161.3,20.7,184.4c-14.7,23.1,8.6,35.1,69.9,35.9c30.6,0.4,62.7-1.5,96.3-5.7l7.6,11.7c6.8,9.2,14.6,17.5,23.2,24.8
		c27.7,23.5,59.4,33.2,95,29c35.7-4.2,62.4-18,80-41.5c8.8-11.7,14-23.1,15.7-34l2.6,8.3c2.6,6.5,6.2,12.2,10.7,16.9
		c14.3,15.1,35,18.5,62.3,10.1c27.3-8.4,48.1-21,62.4-37.8c7.1-8.4,11.5-15.9,13.2-22.7l10,7c8.7,5.6,18.2,10.6,28.5,15.1
		c32.7,14.3,66.9,20.3,102.6,18.2c20.9-1.2,42.9-6.2,66.1-15c22.2-8.4,40.5-18.3,54.7-29.6c15.1-12,22-22.9,20.8-32.6
		c-1.4-10.9-13.4-18.7-35.9-23.5c-39.8-8.4-77.8-8.4-113.9,0C681.1,121.5,670.7,124.9,661.1,128.8z"/>
	<path class="st1" d="M62.6,176.2c-1.8-5.4,0.5-10.5,7.1-15.3c-6.3,2-12.8,4.6-19.5,8c-13.4,6.7-21.2,13.6-23.3,20.6
		c-2.4,8.1,4.7,14.8,21.3,20c15.8,4.9,34.4,6.9,55.9,6c20.5-0.8,37.6-2,51.1-3.6c13.5-1.6,25-3.8,34.5-6.5
		c7.3-2.1,15.6-6.2,24.7-12.3c4.5-3.1,8.3-6,11.4-8.6c-6,2.8-14,5.7-24,8.6c-20,5.9-40,9.1-59.9,9.8c-11.7,0.4-23.5-0.6-35.3-3
		c-11.4-2.3-21.1-5.6-29-9.7C69.3,185.8,64.3,181.2,62.6,176.2z"/>
	<path class="st2" d="M403.8,192c-3.2,8.6-8,17.4-14.4,26.6c-12.9,18.3-27.4,29-43.5,32.1c-21.7,4.2-49-2.5-82-20.1
		c-10.4-5.5-20.6-11.7-30.8-18.8l-12.3-8.9l-0.8,10.1c0,8.1,1.3,15.6,4,22.6c8.5,22.2,28.7,34.5,60.5,37c25,1.9,45.3,0.3,60.9-5
		c12.7-4.3,24-11.6,33.9-21.9c7.3-7.7,13.6-18.9,18.8-33.7L403.8,192z"/>
	<path class="st2" d="M436.5,177.2c-6.6-10.8-10.5-20.4-11.7-28.9l-2.2,5.7c-1.7,4.8-3,9.6-4.1,14.4c-3.4,15.4-2.9,28,1.3,37.8
		c5,11.7,12.3,19.8,21.9,24.3c9.6,4.4,22.1,5.6,37.7,3.4c23.6-3.2,44.3-14.9,62.1-35.2c7.3-8.4,11.8-21.3,13.3-38.6
		c0.4-5.4,0.6-11,0.5-16.6l-0.4-6.9l-0.3,7c-0.4,5.8-1.3,11.4-2.7,16.9c-4.4,17.5-12.3,30.2-23.8,38.3
		c-12.6,8.8-26.5,12.7-41.7,11.8c-12.7-0.7-22.9-4.1-30.5-10.2C449.2,195.1,442.8,187.4,436.5,177.2z"/>
	<path class="st2" d="M804.1,181.1c10.1-5.6,18.6-11.7,25.5-18.5c3.4-3.4,5.8-6.2,7.2-8.4c-4.5,3.6-10.1,7.7-16.9,12.1
		c-13.6,8.8-26.2,15.1-37.7,19c-16.9,5.7-36.7,10.2-59.4,13.8c-27,4.3-46.4,4.7-58.1,1.3c-14.7-4.2-35.6-13.7-62.7-28.5l-36.3-21
		l-3.4,20.1l9,6.2c7.6,5,15.5,9.6,23.7,13.8c26.1,13.5,50.2,20.8,72.3,21.9c23.8,1.1,50.2-2.2,79.1-10
		C769.8,196.7,789,189.4,804.1,181.1z"/>
</g>
</svg>
