<?xml version="1.0" encoding="utf-8"?>
<!-- Generator: Adobe Illustrator 20.1.0, SVG Export Plug-In . SVG Version: 6.00 Build 0)  -->
<svg version="1.1" id="Layer_1" xmlns="http://www.w3.org/2000/svg" xmlns:xlink="http://www.w3.org/1999/xlink" x="0px" y="0px"
	 viewBox="0 0 786 147" style="enable-background:new 0 0 786 147;" xml:space="preserve">
<style type="text/css">
	.st0{fill:#ABA254;}
	.st1{fill:#918B4B;}
</style>
<g transform="matrix( 1, 0, 0, 1, 0,0) ">
	<g>
		<g id="Layer0_0_MEMBER_0_FILL">
			<path class="st0" d="M767.9,129.9v-110h-750v110H767.9z"/>
		</g>
	</g>
</g>
<g transform="matrix( 1, 0, 0, 1, 0,0) ">
	<g>
		<g id="Layer0_0_MEMBER_1_MEMBER_0_FILL">
			<path class="st1" d="M105.4,113l6.7-9.3l7.3,9.1l-7.3-13.9L105.4,113z"/>
		</g>
	</g>
</g>
<g transform="matrix( 1, 0, 0, 1, 0,0) ">
	<g>
		<g id="Layer0_0_MEMBER_2_MEMBER_0_FILL">
			<path class="st1" d="M149.3,117.3l5.3-7.3l5.7,7.1l-5.7-10.9L149.3,117.3z"/>
		</g>
	</g>
</g>
<g transform="matrix( 1, 0, 0, 1, 0,0) ">
	<g>
		<g id="Layer0_0_MEMBER_3_MEMBER_0_FILL">
			<path class="st1" d="M191.5,119.9l5.8-8.1l6.3,7.8l-6.3-12.1L191.5,119.9z"/>
		</g>
	</g>
</g>
<g transform="matrix( 1, 0, 0, 1, 0,0) ">
	<g>
		<g id="Layer0_0_MEMBER_4_MEMBER_0_FILL">
			<path class="st1" d="M222.8,107.4l6.3-8.8l6.8,8.5l-6.8-13L222.8,107.4z"/>
		</g>
	</g>
</g>
<g transform="matrix( 1, 0, 0, 1, 0,0) ">
	<g>
		<g id="Layer0_0_MEMBER_5_MEMBER_0_FILL">
			<path class="st1" d="M273,118.1l3.7-5.1l4.1,5l-4.1-7.7L273,118.1z"/>
		</g>
	</g>
</g>
<g transform="matrix( 1, 0, 0, 1, 0,0) ">
	<g>
		<g id="Layer0_0_MEMBER_6_MEMBER_0_FILL">
			<path class="st1" d="M311.8,107.3l6.2-8.6l6.7,8.3L318,94.3L311.8,107.3z"/>
		</g>
	</g>
</g>
<g transform="matrix( 1, 0, 0, 1, 0,0) ">
	<g>
		<g id="Layer0_0_MEMBER_7_MEMBER_0_FILL">
			<path class="st1" d="M347.7,124.3l6-8.3l6.5,8l-6.5-12.3L347.7,124.3z"/>
		</g>
	</g>
</g>
<g transform="matrix( 1, 0, 0, 1, 0,0) ">
	<g>
		<g id="Layer0_0_MEMBER_8_MEMBER_0_FILL">
			<path class="st1" d="M375,114.5l6.9-9.6l7.4,9.2l-7.4-14.2L375,114.5z"/>
		</g>
	</g>
</g>
<g transform="matrix( 1, 0, 0, 1, 0,0) ">
	<g>
		<g id="Layer0_0_MEMBER_9_MEMBER_0_FILL">
			<path class="st1" d="M433.5,114.4l5.4-7.4l5.8,7.2l-5.8-11.1L433.5,114.4z"/>
		</g>
	</g>
</g>
<g transform="matrix( 1, 0, 0, 1, 0,0) ">
	<g>
		<g id="Layer0_0_MEMBER_10_MEMBER_0_FILL">
			<path class="st1" d="M474.1,128.2l6.7-9.3l7.2,9.1l-7.2-13.9L474.1,128.2z"/>
		</g>
	</g>
</g>
<g transform="matrix( 1, 0, 0, 1, 0,0) ">
	<g>
		<g id="Layer0_0_MEMBER_11_MEMBER_0_FILL">
			<path class="st1" d="M519.2,128.3l3.8-5.3l4.2,5.1l-4.2-7.9L519.2,128.3z"/>
		</g>
	</g>
</g>
<g transform="matrix( 1, 0, 0, 1, 0,0) ">
	<g>
		<g id="Layer0_0_MEMBER_12_MEMBER_0_FILL">
			<path class="st1" d="M557.8,113.6l3.4-4.8l3.8,4.7l-3.8-7.2L557.8,113.6z"/>
		</g>
	</g>
</g>
<g transform="matrix( 1, 0, 0, 1, 0,0) ">
	<g>
		<g id="Layer0_0_MEMBER_13_MEMBER_0_FILL">
			<path class="st1" d="M587.5,121.8l7.1-9.8l7.6,9.4l-7.6-14.5L587.5,121.8z"/>
		</g>
	</g>
</g>
<g transform="matrix( 1, 0, 0, 1, 0,0) ">
	<g>
		<g id="Layer0_0_MEMBER_14_MEMBER_0_FILL">
			<path class="st1" d="M631.1,110.8l7.3-10.2l8,9.9l-8-15.1L631.1,110.8z"/>
		</g>
	</g>
</g>
<g transform="matrix( 1, 0, 0, 1, 0,0) ">
	<g>
		<g id="Layer0_0_MEMBER_15_MEMBER_0_FILL">
			<path class="st1" d="M666.7,128l6.2-8.6l6.7,8.3l-6.7-12.8L666.7,128z"/>
		</g>
	</g>
</g>
<g transform="matrix( 1, 0, 0, 1, 0,0) ">
	<g>
		<g id="Layer0_0_MEMBER_16_MEMBER_0_FILL">
			<path class="st1" d="M673,88.8l3.9-5.3l4.1,5.2l-4.1-7.8L673,88.8z"/>
		</g>
	</g>
</g>
<g transform="matrix( 1, 0, 0, 1, 0,0) ">
	<g>
		<g id="Layer0_0_MEMBER_17_MEMBER_0_FILL">
			<path class="st1" d="M634.2,82.5l3.4-4.8l3.8,4.6l-3.8-7.1L634.2,82.5z"/>
		</g>
	</g>
</g>
<g transform="matrix( 1, 0, 0, 1, 0,0) ">
	<g>
		<g id="Layer0_0_MEMBER_18_MEMBER_0_FILL">
			<path class="st1" d="M589.9,95.2l6-8.3l6.5,8.1l-6.5-12.3L589.9,95.2z"/>
		</g>
	</g>
</g>
<g transform="matrix( 1, 0, 0, 1, 0,0) ">
	<g>
		<g id="Layer0_0_MEMBER_19_MEMBER_0_FILL">
			<path class="st1" d="M545.8,81.9l6.5,8.2l-6.5-12.5l-6.1,12.8L545.8,81.9z"/>
		</g>
	</g>
</g>
<g transform="matrix( 1, 0, 0, 1, 0,0) ">
	<g>
		<g id="Layer0_0_MEMBER_20_MEMBER_0_FILL">
			<path class="st1" d="M507.9,85.4l4.9,6.1l-4.9-9.3l-4.5,9.5L507.9,85.4z"/>
		</g>
	</g>
</g>
<g transform="matrix( 1, 0, 0, 1, 0,0) ">
	<g>
		<g id="Layer0_0_MEMBER_21_MEMBER_0_FILL">
			<path class="st1" d="M473.4,99.1l3.5-4.8l3.8,4.7l-3.8-7.2L473.4,99.1z"/>
		</g>
	</g>
</g>
<g transform="matrix( 1, 0, 0, 1, 0,0) ">
	<g>
		<g id="Layer0_0_MEMBER_22_MEMBER_0_FILL">
			<path class="st1" d="M442.4,85.3l3.6-5l3.9,4.8l-3.9-7.4L442.4,85.3z"/>
		</g>
	</g>
</g>
<g transform="matrix( 1, 0, 0, 1, 0,0) ">
	<g>
		<g id="Layer0_0_MEMBER_23_MEMBER_0_FILL">
			<path class="st1" d="M401.4,98.7l4.5-6.2l4.8,6.1l-4.8-9.2L401.4,98.7z"/>
		</g>
	</g>
</g>
<g transform="matrix( 1, 0, 0, 1, 0,0) ">
	<g>
		<g id="Layer0_0_MEMBER_24_MEMBER_0_FILL">
			<path class="st1" d="M359.4,84.4l4.1-5.8l4.5,5.6l-4.5-8.6L359.4,84.4z"/>
		</g>
	</g>
</g>
<g transform="matrix( 1, 0, 0, 1, 0,0) ">
	<g>
		<g id="Layer0_0_MEMBER_25_MEMBER_0_FILL">
			<path class="st1" d="M316.3,81.2l6.5-9.1l7.1,8.8l-7.1-13.4L316.3,81.2z"/>
		</g>
	</g>
</g>
<g transform="matrix( 1, 0, 0, 1, 0,0) ">
	<g>
		<g id="Layer0_0_MEMBER_26_MEMBER_0_FILL">
			<path class="st1" d="M276,95.3l6.9-9.6l7.5,9.2l-7.5-14.2L276,95.3z"/>
		</g>
	</g>
</g>
<g transform="matrix( 1, 0, 0, 1, 0,0) ">
	<g>
		<g id="Layer0_0_MEMBER_27_MEMBER_0_FILL">
			<path class="st1" d="M244.4,92.3l6-8.3l6.5,8.1l-6.5-12.3L244.4,92.3z"/>
		</g>
	</g>
</g>
<g transform="matrix( 1, 0, 0, 1, 0,0) ">
	<g>
		<g id="Layer0_0_MEMBER_28_MEMBER_0_FILL">
			<path class="st1" d="M202.5,88.9l4.5-6.2l4.8,6l-4.8-9.2L202.5,88.9z"/>
		</g>
	</g>
</g>
<g transform="matrix( 1, 0, 0, 1, 0,0) ">
	<g>
		<g id="Layer0_0_MEMBER_29_MEMBER_0_FILL">
			<path class="st1" d="M155.7,79.6l6.2-8.7l6.8,8.4l-6.8-12.9L155.7,79.6z"/>
		</g>
	</g>
</g>
<g transform="matrix( 1, 0, 0, 1, 0,0) ">
	<g>
		<g id="Layer0_0_MEMBER_30_MEMBER_0_FILL">
			<path class="st1" d="M119.3,82.5l3.9-5.5l4.2,5.3l-4.2-8.1L119.3,82.5z"/>
		</g>
	</g>
</g>
<g transform="matrix( 1, 0, 0, 1, 0,0) ">
	<g>
		<g id="Layer0_0_MEMBER_31_MEMBER_0_FILL">
			<path class="st1" d="M105.9,55.3l8.1,10.1L105.9,50l-7.4,15.8L105.9,55.3z"/>
		</g>
	</g>
</g>
<g transform="matrix( 1, 0, 0, 1, 0,0) ">
	<g>
		<g id="Layer0_0_MEMBER_32_MEMBER_0_FILL">
			<path class="st1" d="M141.5,55.7l4.9-6.8l5.3,6.5l-5.3-10L141.5,55.7z"/>
		</g>
	</g>
</g>
<g transform="matrix( 1, 0, 0, 1, 0,0) ">
	<g>
		<g id="Layer0_0_MEMBER_33_MEMBER_0_FILL">
			<path class="st1" d="M183.1,36.3l4.2-5.9l4.6,5.7l-4.6-8.7L183.1,36.3z"/>
		</g>
	</g>
</g>
<g transform="matrix( 1, 0, 0, 1, 0,0) ">
	<g>
		<g id="Layer0_0_MEMBER_34_MEMBER_0_FILL">
			<path class="st1" d="M210.7,68.8l4.1-5.9l4.6,5.7l-4.6-8.6L210.7,68.8z"/>
		</g>
	</g>
</g>
<g transform="matrix( 1, 0, 0, 1, 0,0) ">
	<g>
		<g id="Layer0_0_MEMBER_35_MEMBER_0_FILL">
			<path class="st1" d="M269.1,71.8l3.5-4.9l3.8,4.7l-3.8-7.2L269.1,71.8z"/>
		</g>
	</g>
</g>
<g transform="matrix( 1, 0, 0, 1, 0,0) ">
	<g>
		<g id="Layer0_0_MEMBER_36_MEMBER_0_FILL">
			<path class="st1" d="M313.4,49.7l5.3-7.4l5.8,7.2l-5.8-11L313.4,49.7z"/>
		</g>
	</g>
</g>
<g transform="matrix( 1, 0, 0, 1, 0,0) ">
	<g>
		<g id="Layer0_0_MEMBER_37_MEMBER_0_FILL">
			<path class="st1" d="M346.4,68.5l6.4-9l7.1,8.7l-7.1-13.3L346.4,68.5z"/>
		</g>
	</g>
</g>
<g transform="matrix( 1, 0, 0, 1, 0,0) ">
	<g>
		<g id="Layer0_0_MEMBER_38_MEMBER_0_FILL">
			<path class="st1" d="M392.7,70.8l4.7-6.5l5.1,6.2l-5.1-9.6L392.7,70.8z"/>
		</g>
	</g>
</g>
<g transform="matrix( 1, 0, 0, 1, 0,0) ">
	<g>
		<g id="Layer0_0_MEMBER_39_MEMBER_0_FILL">
			<path class="st1" d="M425,70.4l6.4-9l6.9,8.7l-6.9-13.2L425,70.4z"/>
		</g>
	</g>
</g>
<g transform="matrix( 1, 0, 0, 1, 0,0) ">
	<g>
		<g id="Layer0_0_MEMBER_40_MEMBER_0_FILL">
			<path class="st1" d="M472.6,67.6l3.8-5.5l4.2,5.3l-4.2-8L472.6,67.6z"/>
		</g>
	</g>
</g>
<g transform="matrix( 1, 0, 0, 1, 0,0) ">
	<g>
		<g id="Layer0_0_MEMBER_41_MEMBER_0_FILL">
			<path class="st1" d="M511.7,59.4l6.1-8.5l6.7,8.3l-6.7-12.7L511.7,59.4z"/>
		</g>
	</g>
</g>
<g transform="matrix( 1, 0, 0, 1, 0,0) ">
	<g>
		<g id="Layer0_0_MEMBER_42_MEMBER_0_FILL">
			<path class="st1" d="M548.2,68.9l6.8-9.5l7.5,9.2L555,54.5L548.2,68.9z"/>
		</g>
	</g>
</g>
<g transform="matrix( 1, 0, 0, 1, 0,0) ">
	<g>
		<g id="Layer0_0_MEMBER_43_MEMBER_0_FILL">
			<path class="st1" d="M587.9,66.7l4.8,5.9l-4.8-9l-4.4,9.3L587.9,66.7z"/>
		</g>
	</g>
</g>
<g transform="matrix( 1, 0, 0, 1, 0,0) ">
	<g>
		<g id="Layer0_0_MEMBER_44_MEMBER_0_FILL">
			<path class="st1" d="M616.8,71.8l4.4-6.1l4.8,5.9l-4.8-9.1L616.8,71.8z"/>
		</g>
	</g>
</g>
<g transform="matrix( 1, 0, 0, 1, 0,0) ">
	<g>
		<g id="Layer0_0_MEMBER_45_MEMBER_0_FILL">
			<path class="st1" d="M660,70.7l5.7-7.9l6.1,7.6l-6.1-11.7L660,70.7z"/>
		</g>
	</g>
</g>
<g transform="matrix( 1, 0, 0, 1, 0,0) ">
	<g>
		<g id="Layer0_0_MEMBER_46_MEMBER_0_FILL">
			<path class="st1" d="M647.7,40.8l6.2-8.7l6.8,8.3l-6.8-12.7L647.7,40.8z"/>
		</g>
	</g>
</g>
<g transform="matrix( 1, 0, 0, 1, 0,0) ">
	<g>
		<g id="Layer0_0_MEMBER_47_MEMBER_0_FILL">
			<path class="st1" d="M609.1,46.6l4.1-5.7l4.4,5.5l-4.4-8.4L609.1,46.6z"/>
		</g>
	</g>
</g>
<g transform="matrix( 1, 0, 0, 1, 0,0) ">
	<g>
		<g id="Layer0_0_MEMBER_48_MEMBER_0_FILL">
			<path class="st1" d="M571.6,38.8l4.3-6.1l4.8,5.9l-4.8-9L571.6,38.8z"/>
		</g>
	</g>
</g>
<g transform="matrix( 1, 0, 0, 1, 0,0) ">
	<g>
		<g id="Layer0_0_MEMBER_49_MEMBER_0_FILL">
			<path class="st1" d="M538.4,34.9l3.7-5.1l4,5l-4-7.6L538.4,34.9z"/>
		</g>
	</g>
</g>
<g transform="matrix( 1, 0, 0, 1, 0,0) ">
	<g>
		<g id="Layer0_0_MEMBER_50_MEMBER_0_FILL">
			<path class="st1" d="M492,39.5l7-9.8l7.6,9.5l-7.6-14.5L492,39.5z"/>
		</g>
	</g>
</g>
<g transform="matrix( 1, 0, 0, 1, 0,0) ">
	<g>
		<g id="Layer0_0_MEMBER_51_MEMBER_0_FILL">
			<path class="st1" d="M455.4,45.7l7.1-9.9l7.7,9.6l-7.7-14.6L455.4,45.7z"/>
		</g>
	</g>
</g>
<g transform="matrix( 1, 0, 0, 1, 0,0) ">
	<g>
		<g id="Layer0_0_MEMBER_52_MEMBER_0_FILL">
			<path class="st1" d="M410.7,42.3l6.7-9.4l7.3,9l-7.3-13.8L410.7,42.3z"/>
		</g>
	</g>
</g>
<g transform="matrix( 1, 0, 0, 1, 0,0) ">
	<g>
		<g id="Layer0_0_MEMBER_53_MEMBER_0_FILL">
			<path class="st1" d="M375.4,52.5l6.5-9l7,8.8l-7-13.4L375.4,52.5z"/>
		</g>
	</g>
</g>
<g transform="matrix( 1, 0, 0, 1, 0,0) ">
	<g>
		<g id="Layer0_0_MEMBER_54_MEMBER_0_FILL">
			<path class="st1" d="M347.5,32.1l8.2,10.1l-8.2-15.4L340,42.6L347.5,32.1z"/>
		</g>
	</g>
</g>
<g transform="matrix( 1, 0, 0, 1, 0,0) ">
	<g>
		<g id="Layer0_0_MEMBER_55_MEMBER_0_FILL">
			<path class="st1" d="M292.3,61.6l5.1-7.2l5.5,6.9l-5.5-10.5L292.3,61.6z"/>
		</g>
	</g>
</g>
<g transform="matrix( 1, 0, 0, 1, 0,0) ">
	<g>
		<g id="Layer0_0_MEMBER_56_MEMBER_0_FILL">
			<path class="st1" d="M266.2,34.5l7.6,9.4l-7.6-14.5l-7.1,14.9L266.2,34.5z"/>
		</g>
	</g>
</g>
<g transform="matrix( 1, 0, 0, 1, 0,0) ">
	<g>
		<g id="Layer0_0_MEMBER_57_MEMBER_0_FILL">
			<path class="st1" d="M222.9,35.3l4.1-5.7l4.4,5.5l-4.4-8.4L222.9,35.3z"/>
		</g>
	</g>
</g>
<g transform="matrix( 1, 0, 0, 1, 0,0) ">
	<g>
		<g id="Layer0_0_MEMBER_58_MEMBER_0_FILL">
			<path class="st1" d="M193.4,55.5l5.4-7.6l5.9,7.3L198.9,44L193.4,55.5z"/>
		</g>
	</g>
</g>
<g transform="matrix( 1, 0, 0, 1, 0,0) ">
	<g>
		<g id="Layer0_0_MEMBER_59_MEMBER_0_FILL">
			<path class="st1" d="M151,33.6l4.2-5.9l4.6,5.7l-4.6-8.7L151,33.6z"/>
		</g>
	</g>
</g>
<g transform="matrix( 1, 0, 0, 1, 0,0) ">
	<g>
		<g id="Layer0_0_MEMBER_60_MEMBER_0_FILL">
			<path class="st1" d="M107.5,39.5l7.3-10.2l8,9.9l-8-15.2L107.5,39.5z"/>
		</g>
	</g>
</g>
</svg>
