<?xml version="1.0" encoding="utf-8"?>
<!-- Generator: Adobe Illustrator 20.1.0, SVG Export Plug-In . SVG Version: 6.00 Build 0)  -->
<svg version="1.1" id="Layer_1" xmlns="http://www.w3.org/2000/svg" xmlns:xlink="http://www.w3.org/1999/xlink" x="0px" y="0px"
	 viewBox="0 0 1517 74" style="enable-background:new 0 0 1517 74;" xml:space="preserve">
<style type="text/css">
	.st0{fill:#ABA254;}
	.st1{fill:#918B4B;}
</style>
<g transform="matrix( 1, 0, 0, 1, 0,0) ">
	<g>
		<g id="Layer0_0_MEMBER_0_FILL">
			<path class="st0" d="M258.5,54.3v-35H8.5v35H258.5z"/>
		</g>
	</g>
</g>
<g transform="matrix( 1, 0, 0, 1, 0,0) ">
	<g>
		<g id="Layer0_0_MEMBER_1_MEMBER_0_FILL">
			<path class="st1" d="M214,51.6l4.5-6.3l4.9,6.1l-4.9-9.3L214,51.6z"/>
		</g>
	</g>
</g>
<g transform="matrix( 1, 0, 0, 1, 0,0) ">
	<g>
		<g id="Layer0_0_MEMBER_2_MEMBER_0_FILL">
			<path class="st1" d="M184.2,50.6l4.9-6.8l5.3,6.5l-5.3-10L184.2,50.6z"/>
		</g>
	</g>
</g>
<g transform="matrix( 1, 0, 0, 1, 0,0) ">
	<g>
		<g id="Layer0_0_MEMBER_3_MEMBER_0_FILL">
			<path class="st1" d="M135.1,34.1l5.1-7.1l5.5,6.9l-5.5-10.5L135.1,34.1z"/>
		</g>
	</g>
</g>
<g transform="matrix( 1, 0, 0, 1, 0,0) ">
	<g>
		<g id="Layer0_0_MEMBER_4_MEMBER_0_FILL">
			<path class="st1" d="M101.9,48.9l3.6-5l3.9,4.9l-3.9-7.5L101.9,48.9z"/>
		</g>
	</g>
</g>
<g transform="matrix( 1, 0, 0, 1, 0,0) ">
	<g>
		<g id="Layer0_0_MEMBER_5_MEMBER_0_FILL">
			<path class="st1" d="M65.4,33.2l4.8-6.6l5.2,6.4l-5.2-9.8L65.4,33.2z"/>
		</g>
	</g>
</g>
<g transform="matrix( 1, 0, 0, 1, 0,0) ">
	<g>
		<g id="Layer0_0_MEMBER_6_MEMBER_0_FILL">
			<path class="st1" d="M32.2,48.4l3-4.2l3.3,4.2L35.2,42L32.2,48.4z"/>
		</g>
	</g>
</g>
<g transform="matrix( 1, 0, 0, 1, 0,0) ">
	<g>
		<g id="Layer0_0_MEMBER_7_MEMBER_0_FILL">
			<path class="st1" d="M53,50.7l5.2-7.2l5.6,7l-5.6-10.8L53,50.7z"/>
		</g>
	</g>
</g>
<g transform="matrix( 1, 0, 0, 1, 0,0) ">
	<g>
		<g id="Layer0_0_MEMBER_8_MEMBER_0_FILL">
			<path class="st1" d="M105.4,27.9l2.7-3.7l2.9,3.6l-2.9-5.6L105.4,27.9z"/>
		</g>
	</g>
</g>
<g transform="matrix( 1, 0, 0, 1, 0,0) ">
	<g>
		<g id="Layer0_0_MEMBER_9_MEMBER_0_FILL">
			<path class="st1" d="M130.4,50.1l3.1-4.3l3.4,4.2l-3.4-6.4L130.4,50.1z"/>
		</g>
	</g>
</g>
<g transform="matrix( 1, 0, 0, 1, 0,0) ">
	<g>
		<g id="Layer0_0_MEMBER_10_MEMBER_0_FILL">
			<path class="st1" d="M162.1,34.6l2.7-3.8l3,3.7l-3-5.7L162.1,34.6z"/>
		</g>
	</g>
</g>
<g transform="matrix( 1, 0, 0, 1, 0,0) ">
	<g>
		<g id="Layer0_0_MEMBER_11_MEMBER_0_FILL">
			<path class="st1" d="M17.3,31.1l2.8-3.9l3,3.7l-3-5.6L17.3,31.1z"/>
		</g>
	</g>
</g>
<g transform="matrix( 1, 0, 0, 1, 0,0) ">
	<g>
		<g id="Layer0_0_MEMBER_12_MEMBER_0_FILL">
			<path class="st1" d="M175.9,32l4.1-5.7l4.4,5.6l-4.4-8.5L175.9,32z"/>
		</g>
	</g>
</g>
<g transform="matrix( 1, 0, 0, 1, 0,0) ">
	<g>
		<g id="Layer0_0_MEMBER_13_MEMBER_0_FILL">
			<path class="st1" d="M251.9,26.1l4.9,6.1l-4.9-9.3l-4.5,9.5L251.9,26.1z"/>
		</g>
	</g>
</g>
<g transform="matrix( 1, 0, 0, 1, 0,0) ">
	<g>
		<g id="Layer0_0_MEMBER_14_MEMBER_0_FILL">
			<path class="st1" d="M247.3,50.5l3.1-4.2l3.3,4.1l-3.3-6.3L247.3,50.5z"/>
		</g>
	</g>
</g>
<g transform="matrix( 1, 0, 0, 1, 0,0) ">
	<g>
		<g id="Layer0_0_MEMBER_15_MEMBER_0_FILL">
			<path class="st1" d="M234.6,42.8l2.9-4l3.1,3.9l-3.1-5.9L234.6,42.8z"/>
		</g>
	</g>
</g>
<g transform="matrix( 1, 0, 0, 1, 0,0) ">
	<g>
		<g id="Layer0_0_MEMBER_16_MEMBER_0_FILL">
			<path class="st1" d="M14.1,51.3l2.9-4l3.1,3.9L17,45.2L14.1,51.3z"/>
		</g>
	</g>
</g>
<g transform="matrix( 1, 0, 0, 1, 0,0) ">
	<g>
		<g id="Layer0_0_MEMBER_17_MEMBER_0_FILL">
			<path class="st1" d="M201.2,34.7L206,28l5.2,6.5l-5.2-10L201.2,34.7z"/>
		</g>
	</g>
</g>
<g transform="matrix( 1, 0, 0, 1, 0,0) ">
	<g>
		<g id="Layer0_0_MEMBER_18_MEMBER_0_FILL">
			<path class="st1" d="M146.9,49.3l4.6-6.5l5.1,6.3l-5.1-9.7L146.9,49.3z"/>
		</g>
	</g>
</g>
<g transform="matrix( 1, 0, 0, 1, 0,0) ">
	<g>
		<g id="Layer0_0_MEMBER_19_MEMBER_0_FILL">
			<path class="st1" d="M119.1,39.4l4.7-6.5l5.1,6.3l-5.1-9.7L119.1,39.4z"/>
		</g>
	</g>
</g>
<g transform="matrix( 1, 0, 0, 1, 0,0) ">
	<g>
		<g id="Layer0_0_MEMBER_20_MEMBER_0_FILL">
			<path class="st1" d="M90.1,34.1l5.4,6.7l-5.4-10.2l-5,10.5L90.1,34.1z"/>
		</g>
	</g>
</g>
<g transform="matrix( 1, 0, 0, 1, 0,0) ">
	<g>
		<g id="Layer0_0_MEMBER_21_MEMBER_0_FILL">
			<path class="st1" d="M36,33.5l5.7-7.8l6.1,7.6l-6.1-11.6L36,33.5z"/>
		</g>
	</g>
</g>
<g transform="matrix( 1, 0, 0, 1, 249.95,0.45) ">
	<g>
		<g id="Layer0_1_MEMBER_0_FILL">
			<path class="st0" d="M258.5,54.3v-35H8.5v35H258.5z"/>
		</g>
	</g>
</g>
<g transform="matrix( 1, 0, 0, 1, 249.95,0.45) ">
	<g>
		<g id="Layer0_1_MEMBER_1_MEMBER_0_FILL">
			<path class="st1" d="M214,51.6l4.5-6.3l4.9,6.1l-4.9-9.3L214,51.6z"/>
		</g>
	</g>
</g>
<g transform="matrix( 1, 0, 0, 1, 249.95,0.45) ">
	<g>
		<g id="Layer0_1_MEMBER_2_MEMBER_0_FILL">
			<path class="st1" d="M184.2,50.6l4.9-6.8l5.3,6.5l-5.3-10L184.2,50.6z"/>
		</g>
	</g>
</g>
<g transform="matrix( 1, 0, 0, 1, 249.95,0.45) ">
	<g>
		<g id="Layer0_1_MEMBER_3_MEMBER_0_FILL">
			<path class="st1" d="M135.1,34.1l5.1-7.1l5.5,6.9l-5.5-10.5L135.1,34.1z"/>
		</g>
	</g>
</g>
<g transform="matrix( 1, 0, 0, 1, 249.95,0.45) ">
	<g>
		<g id="Layer0_1_MEMBER_4_MEMBER_0_FILL">
			<path class="st1" d="M101.9,48.9l3.6-5l3.9,4.9l-3.9-7.5L101.9,48.9z"/>
		</g>
	</g>
</g>
<g transform="matrix( 1, 0, 0, 1, 249.95,0.45) ">
	<g>
		<g id="Layer0_1_MEMBER_5_MEMBER_0_FILL">
			<path class="st1" d="M65.4,33.2l4.8-6.6l5.2,6.4l-5.2-9.8L65.4,33.2z"/>
		</g>
	</g>
</g>
<g transform="matrix( 1, 0, 0, 1, 249.95,0.45) ">
	<g>
		<g id="Layer0_1_MEMBER_6_MEMBER_0_FILL">
			<path class="st1" d="M32.2,48.4l3.1-4.2l3.3,4.2L35.2,42L32.2,48.4z"/>
		</g>
	</g>
</g>
<g transform="matrix( 1, 0, 0, 1, 249.95,0.45) ">
	<g>
		<g id="Layer0_1_MEMBER_7_MEMBER_0_FILL">
			<path class="st1" d="M53,50.7l5.2-7.2l5.6,7l-5.6-10.8L53,50.7z"/>
		</g>
	</g>
</g>
<g transform="matrix( 1, 0, 0, 1, 249.95,0.45) ">
	<g>
		<g id="Layer0_1_MEMBER_8_MEMBER_0_FILL">
			<path class="st1" d="M105.4,27.9l2.7-3.7l2.9,3.6l-2.9-5.6L105.4,27.9z"/>
		</g>
	</g>
</g>
<g transform="matrix( 1, 0, 0, 1, 249.95,0.45) ">
	<g>
		<g id="Layer0_1_MEMBER_9_MEMBER_0_FILL">
			<path class="st1" d="M130.4,50.1l3.1-4.3l3.4,4.2l-3.4-6.4L130.4,50.1z"/>
		</g>
	</g>
</g>
<g transform="matrix( 1, 0, 0, 1, 249.95,0.45) ">
	<g>
		<g id="Layer0_1_MEMBER_10_MEMBER_0_FILL">
			<path class="st1" d="M162.1,34.6l2.7-3.8l3,3.7l-3-5.7L162.1,34.6z"/>
		</g>
	</g>
</g>
<g transform="matrix( 1, 0, 0, 1, 249.95,0.45) ">
	<g>
		<g id="Layer0_1_MEMBER_11_MEMBER_0_FILL">
			<path class="st1" d="M17.3,31.1l2.8-3.9L23,31L20,25.3L17.3,31.1z"/>
		</g>
	</g>
</g>
<g transform="matrix( 1, 0, 0, 1, 249.95,0.45) ">
	<g>
		<g id="Layer0_1_MEMBER_12_MEMBER_0_FILL">
			<path class="st1" d="M175.9,32l4.1-5.7l4.4,5.6l-4.4-8.5L175.9,32z"/>
		</g>
	</g>
</g>
<g transform="matrix( 1, 0, 0, 1, 249.95,0.45) ">
	<g>
		<g id="Layer0_1_MEMBER_13_MEMBER_0_FILL">
			<path class="st1" d="M251.9,26.1l4.9,6.1l-4.9-9.3l-4.5,9.5L251.9,26.1z"/>
		</g>
	</g>
</g>
<g transform="matrix( 1, 0, 0, 1, 249.95,0.45) ">
	<g>
		<g id="Layer0_1_MEMBER_14_MEMBER_0_FILL">
			<path class="st1" d="M247.3,50.5l3.1-4.2l3.3,4.1l-3.3-6.3L247.3,50.5z"/>
		</g>
	</g>
</g>
<g transform="matrix( 1, 0, 0, 1, 249.95,0.45) ">
	<g>
		<g id="Layer0_1_MEMBER_15_MEMBER_0_FILL">
			<path class="st1" d="M234.6,42.8l2.9-4l3.1,3.9l-3.1-5.9L234.6,42.8z"/>
		</g>
	</g>
</g>
<g transform="matrix( 1, 0, 0, 1, 249.95,0.45) ">
	<g>
		<g id="Layer0_1_MEMBER_16_MEMBER_0_FILL">
			<path class="st1" d="M14.1,51.3l2.9-4l3.1,3.9L17,45.2L14.1,51.3z"/>
		</g>
	</g>
</g>
<g transform="matrix( 1, 0, 0, 1, 249.95,0.45) ">
	<g>
		<g id="Layer0_1_MEMBER_17_MEMBER_0_FILL">
			<path class="st1" d="M201.2,34.7L206,28l5.2,6.5l-5.2-10L201.2,34.7z"/>
		</g>
	</g>
</g>
<g transform="matrix( 1, 0, 0, 1, 249.95,0.45) ">
	<g>
		<g id="Layer0_1_MEMBER_18_MEMBER_0_FILL">
			<path class="st1" d="M146.9,49.3l4.6-6.5l5.1,6.3l-5.1-9.7L146.9,49.3z"/>
		</g>
	</g>
</g>
<g transform="matrix( 1, 0, 0, 1, 249.95,0.45) ">
	<g>
		<g id="Layer0_1_MEMBER_19_MEMBER_0_FILL">
			<path class="st1" d="M119.1,39.4l4.7-6.5l5.1,6.3l-5.1-9.7L119.1,39.4z"/>
		</g>
	</g>
</g>
<g transform="matrix( 1, 0, 0, 1, 249.95,0.45) ">
	<g>
		<g id="Layer0_1_MEMBER_20_MEMBER_0_FILL">
			<path class="st1" d="M90.1,34.1l5.4,6.7l-5.4-10.2l-5,10.5L90.1,34.1z"/>
		</g>
	</g>
</g>
<g transform="matrix( 1, 0, 0, 1, 249.95,0.45) ">
	<g>
		<g id="Layer0_1_MEMBER_21_MEMBER_0_FILL">
			<path class="st1" d="M36,33.5l5.7-7.8l6.1,7.6l-6.1-11.6L36,33.5z"/>
		</g>
	</g>
</g>
<g transform="matrix( 1, 0, 0, 1, 499.95,0.45) ">
	<g>
		<g id="Layer0_2_MEMBER_0_FILL">
			<path class="st0" d="M258.5,54.3v-35H8.5v35H258.5z"/>
		</g>
	</g>
</g>
<g transform="matrix( 1, 0, 0, 1, 499.95,0.45) ">
	<g>
		<g id="Layer0_2_MEMBER_1_MEMBER_0_FILL">
			<path class="st1" d="M214,51.6l4.5-6.3l4.9,6.1l-4.9-9.3L214,51.6z"/>
		</g>
	</g>
</g>
<g transform="matrix( 1, 0, 0, 1, 499.95,0.45) ">
	<g>
		<g id="Layer0_2_MEMBER_2_MEMBER_0_FILL">
			<path class="st1" d="M184.2,50.6l4.9-6.8l5.3,6.5l-5.3-10L184.2,50.6z"/>
		</g>
	</g>
</g>
<g transform="matrix( 1, 0, 0, 1, 499.95,0.45) ">
	<g>
		<g id="Layer0_2_MEMBER_3_MEMBER_0_FILL">
			<path class="st1" d="M135.1,34.1l5.1-7.1l5.5,6.9l-5.5-10.5L135.1,34.1z"/>
		</g>
	</g>
</g>
<g transform="matrix( 1, 0, 0, 1, 499.95,0.45) ">
	<g>
		<g id="Layer0_2_MEMBER_4_MEMBER_0_FILL">
			<path class="st1" d="M101.9,48.9l3.6-5l3.9,4.9l-3.9-7.5L101.9,48.9z"/>
		</g>
	</g>
</g>
<g transform="matrix( 1, 0, 0, 1, 499.95,0.45) ">
	<g>
		<g id="Layer0_2_MEMBER_5_MEMBER_0_FILL">
			<path class="st1" d="M65.4,33.2l4.8-6.6l5.2,6.4l-5.2-9.8L65.4,33.2z"/>
		</g>
	</g>
</g>
<g transform="matrix( 1, 0, 0, 1, 499.95,0.45) ">
	<g>
		<g id="Layer0_2_MEMBER_6_MEMBER_0_FILL">
			<path class="st1" d="M32.2,48.4l3-4.2l3.3,4.2L35.2,42L32.2,48.4z"/>
		</g>
	</g>
</g>
<g transform="matrix( 1, 0, 0, 1, 499.95,0.45) ">
	<g>
		<g id="Layer0_2_MEMBER_7_MEMBER_0_FILL">
			<path class="st1" d="M53,50.7l5.2-7.2l5.6,7l-5.6-10.8L53,50.7z"/>
		</g>
	</g>
</g>
<g transform="matrix( 1, 0, 0, 1, 499.95,0.45) ">
	<g>
		<g id="Layer0_2_MEMBER_8_MEMBER_0_FILL">
			<path class="st1" d="M105.4,27.9l2.7-3.7l2.9,3.6l-2.9-5.6L105.4,27.9z"/>
		</g>
	</g>
</g>
<g transform="matrix( 1, 0, 0, 1, 499.95,0.45) ">
	<g>
		<g id="Layer0_2_MEMBER_9_MEMBER_0_FILL">
			<path class="st1" d="M130.4,50.1l3.1-4.3l3.4,4.2l-3.4-6.4L130.4,50.1z"/>
		</g>
	</g>
</g>
<g transform="matrix( 1, 0, 0, 1, 499.95,0.45) ">
	<g>
		<g id="Layer0_2_MEMBER_10_MEMBER_0_FILL">
			<path class="st1" d="M162.1,34.6l2.7-3.8l3,3.7l-3-5.7L162.1,34.6z"/>
		</g>
	</g>
</g>
<g transform="matrix( 1, 0, 0, 1, 499.95,0.45) ">
	<g>
		<g id="Layer0_2_MEMBER_11_MEMBER_0_FILL">
			<path class="st1" d="M17.3,31.1l2.8-3.9l3,3.7l-3-5.6L17.3,31.1z"/>
		</g>
	</g>
</g>
<g transform="matrix( 1, 0, 0, 1, 499.95,0.45) ">
	<g>
		<g id="Layer0_2_MEMBER_12_MEMBER_0_FILL">
			<path class="st1" d="M175.9,32l4.1-5.7l4.4,5.6l-4.4-8.5L175.9,32z"/>
		</g>
	</g>
</g>
<g transform="matrix( 1, 0, 0, 1, 499.95,0.45) ">
	<g>
		<g id="Layer0_2_MEMBER_13_MEMBER_0_FILL">
			<path class="st1" d="M251.9,26.1l4.9,6.1l-4.9-9.3l-4.5,9.5L251.9,26.1z"/>
		</g>
	</g>
</g>
<g transform="matrix( 1, 0, 0, 1, 499.95,0.45) ">
	<g>
		<g id="Layer0_2_MEMBER_14_MEMBER_0_FILL">
			<path class="st1" d="M247.3,50.5l3.1-4.2l3.3,4.1l-3.3-6.3L247.3,50.5z"/>
		</g>
	</g>
</g>
<g transform="matrix( 1, 0, 0, 1, 499.95,0.45) ">
	<g>
		<g id="Layer0_2_MEMBER_15_MEMBER_0_FILL">
			<path class="st1" d="M234.6,42.8l2.9-4l3.1,3.9l-3.1-5.9L234.6,42.8z"/>
		</g>
	</g>
</g>
<g transform="matrix( 1, 0, 0, 1, 499.95,0.45) ">
	<g>
		<g id="Layer0_2_MEMBER_16_MEMBER_0_FILL">
			<path class="st1" d="M14.1,51.3l2.9-4l3.1,3.9L17,45.2L14.1,51.3z"/>
		</g>
	</g>
</g>
<g transform="matrix( 1, 0, 0, 1, 499.95,0.45) ">
	<g>
		<g id="Layer0_2_MEMBER_17_MEMBER_0_FILL">
			<path class="st1" d="M201.2,34.7L206,28l5.2,6.5l-5.2-10L201.2,34.7z"/>
		</g>
	</g>
</g>
<g transform="matrix( 1, 0, 0, 1, 499.95,0.45) ">
	<g>
		<g id="Layer0_2_MEMBER_18_MEMBER_0_FILL">
			<path class="st1" d="M146.9,49.3l4.6-6.5l5.1,6.3l-5.1-9.7L146.9,49.3z"/>
		</g>
	</g>
</g>
<g transform="matrix( 1, 0, 0, 1, 499.95,0.45) ">
	<g>
		<g id="Layer0_2_MEMBER_19_MEMBER_0_FILL">
			<path class="st1" d="M119.1,39.4l4.7-6.5l5.1,6.3l-5.1-9.7L119.1,39.4z"/>
		</g>
	</g>
</g>
<g transform="matrix( 1, 0, 0, 1, 499.95,0.45) ">
	<g>
		<g id="Layer0_2_MEMBER_20_MEMBER_0_FILL">
			<path class="st1" d="M90.1,34.1l5.4,6.7l-5.4-10.2l-5,10.5L90.1,34.1z"/>
		</g>
	</g>
</g>
<g transform="matrix( 1, 0, 0, 1, 499.95,0.45) ">
	<g>
		<g id="Layer0_2_MEMBER_21_MEMBER_0_FILL">
			<path class="st1" d="M36,33.5l5.7-7.8l6.1,7.6l-6.1-11.6L36,33.5z"/>
		</g>
	</g>
</g>
<g transform="matrix( 1, 0, 0, 1, 749.95,0.45) ">
	<g>
		<g id="Layer0_3_MEMBER_0_FILL">
			<path class="st0" d="M258.5,54.3v-35H8.5v35H258.5z"/>
		</g>
	</g>
</g>
<g transform="matrix( 1, 0, 0, 1, 749.95,0.45) ">
	<g>
		<g id="Layer0_3_MEMBER_1_MEMBER_0_FILL">
			<path class="st1" d="M214,51.6l4.5-6.3l4.9,6.1l-4.9-9.3L214,51.6z"/>
		</g>
	</g>
</g>
<g transform="matrix( 1, 0, 0, 1, 749.95,0.45) ">
	<g>
		<g id="Layer0_3_MEMBER_2_MEMBER_0_FILL">
			<path class="st1" d="M184.2,50.6l4.9-6.8l5.3,6.5l-5.3-10L184.2,50.6z"/>
		</g>
	</g>
</g>
<g transform="matrix( 1, 0, 0, 1, 749.95,0.45) ">
	<g>
		<g id="Layer0_3_MEMBER_3_MEMBER_0_FILL">
			<path class="st1" d="M135.1,34.1l5.1-7.1l5.5,6.9l-5.5-10.5L135.1,34.1z"/>
		</g>
	</g>
</g>
<g transform="matrix( 1, 0, 0, 1, 749.95,0.45) ">
	<g>
		<g id="Layer0_3_MEMBER_4_MEMBER_0_FILL">
			<path class="st1" d="M101.9,48.9l3.6-5l3.9,4.9l-3.9-7.5L101.9,48.9z"/>
		</g>
	</g>
</g>
<g transform="matrix( 1, 0, 0, 1, 749.95,0.45) ">
	<g>
		<g id="Layer0_3_MEMBER_5_MEMBER_0_FILL">
			<path class="st1" d="M65.4,33.2l4.8-6.6l5.2,6.4l-5.2-9.8L65.4,33.2z"/>
		</g>
	</g>
</g>
<g transform="matrix( 1, 0, 0, 1, 749.95,0.45) ">
	<g>
		<g id="Layer0_3_MEMBER_6_MEMBER_0_FILL">
			<path class="st1" d="M32.2,48.4l3-4.2l3.3,4.2L35.2,42L32.2,48.4z"/>
		</g>
	</g>
</g>
<g transform="matrix( 1, 0, 0, 1, 749.95,0.45) ">
	<g>
		<g id="Layer0_3_MEMBER_7_MEMBER_0_FILL">
			<path class="st1" d="M53,50.7l5.2-7.2l5.6,7l-5.6-10.8L53,50.7z"/>
		</g>
	</g>
</g>
<g transform="matrix( 1, 0, 0, 1, 749.95,0.45) ">
	<g>
		<g id="Layer0_3_MEMBER_8_MEMBER_0_FILL">
			<path class="st1" d="M105.4,27.9l2.7-3.7l2.9,3.6l-2.9-5.6L105.4,27.9z"/>
		</g>
	</g>
</g>
<g transform="matrix( 1, 0, 0, 1, 749.95,0.45) ">
	<g>
		<g id="Layer0_3_MEMBER_9_MEMBER_0_FILL">
			<path class="st1" d="M130.4,50.1l3.1-4.3l3.4,4.2l-3.4-6.4L130.4,50.1z"/>
		</g>
	</g>
</g>
<g transform="matrix( 1, 0, 0, 1, 749.95,0.45) ">
	<g>
		<g id="Layer0_3_MEMBER_10_MEMBER_0_FILL">
			<path class="st1" d="M162.1,34.6l2.7-3.8l3,3.7l-3-5.7L162.1,34.6z"/>
		</g>
	</g>
</g>
<g transform="matrix( 1, 0, 0, 1, 749.95,0.45) ">
	<g>
		<g id="Layer0_3_MEMBER_11_MEMBER_0_FILL">
			<path class="st1" d="M17.3,31.1l2.8-3.9l3,3.7l-3-5.6L17.3,31.1z"/>
		</g>
	</g>
</g>
<g transform="matrix( 1, 0, 0, 1, 749.95,0.45) ">
	<g>
		<g id="Layer0_3_MEMBER_12_MEMBER_0_FILL">
			<path class="st1" d="M175.9,32l4.1-5.7l4.4,5.6l-4.4-8.5L175.9,32z"/>
		</g>
	</g>
</g>
<g transform="matrix( 1, 0, 0, 1, 749.95,0.45) ">
	<g>
		<g id="Layer0_3_MEMBER_13_MEMBER_0_FILL">
			<path class="st1" d="M251.9,26.1l4.9,6.1l-4.9-9.3l-4.5,9.5L251.9,26.1z"/>
		</g>
	</g>
</g>
<g transform="matrix( 1, 0, 0, 1, 749.95,0.45) ">
	<g>
		<g id="Layer0_3_MEMBER_14_MEMBER_0_FILL">
			<path class="st1" d="M247.3,50.5l3.1-4.2l3.3,4.1l-3.3-6.3L247.3,50.5z"/>
		</g>
	</g>
</g>
<g transform="matrix( 1, 0, 0, 1, 749.95,0.45) ">
	<g>
		<g id="Layer0_3_MEMBER_15_MEMBER_0_FILL">
			<path class="st1" d="M234.6,42.8l2.9-4l3.1,3.9l-3.1-5.9L234.6,42.8z"/>
		</g>
	</g>
</g>
<g transform="matrix( 1, 0, 0, 1, 749.95,0.45) ">
	<g>
		<g id="Layer0_3_MEMBER_16_MEMBER_0_FILL">
			<path class="st1" d="M14.1,51.3l2.9-4l3.1,3.9L17,45.2L14.1,51.3z"/>
		</g>
	</g>
</g>
<g transform="matrix( 1, 0, 0, 1, 749.95,0.45) ">
	<g>
		<g id="Layer0_3_MEMBER_17_MEMBER_0_FILL">
			<path class="st1" d="M201.2,34.7L206,28l5.2,6.5l-5.2-10L201.2,34.7z"/>
		</g>
	</g>
</g>
<g transform="matrix( 1, 0, 0, 1, 749.95,0.45) ">
	<g>
		<g id="Layer0_3_MEMBER_18_MEMBER_0_FILL">
			<path class="st1" d="M146.9,49.3l4.6-6.5l5.1,6.3l-5.1-9.7L146.9,49.3z"/>
		</g>
	</g>
</g>
<g transform="matrix( 1, 0, 0, 1, 749.95,0.45) ">
	<g>
		<g id="Layer0_3_MEMBER_19_MEMBER_0_FILL">
			<path class="st1" d="M119.1,39.4l4.7-6.5l5.1,6.3l-5.1-9.7L119.1,39.4z"/>
		</g>
	</g>
</g>
<g transform="matrix( 1, 0, 0, 1, 749.95,0.45) ">
	<g>
		<g id="Layer0_3_MEMBER_20_MEMBER_0_FILL">
			<path class="st1" d="M90.1,34.1l5.4,6.7l-5.4-10.2l-5,10.5L90.1,34.1z"/>
		</g>
	</g>
</g>
<g transform="matrix( 1, 0, 0, 1, 749.95,0.45) ">
	<g>
		<g id="Layer0_3_MEMBER_21_MEMBER_0_FILL">
			<path class="st1" d="M36,33.5l5.7-7.8l6.1,7.6l-6.1-11.6L36,33.5z"/>
		</g>
	</g>
</g>
<g transform="matrix( 1, 0, 0, 1, 999.95,0.45) ">
	<g>
		<g id="Layer0_4_MEMBER_0_FILL">
			<path class="st0" d="M258.5,54.3v-35H8.5v35H258.5z"/>
		</g>
	</g>
</g>
<g transform="matrix( 1, 0, 0, 1, 999.95,0.45) ">
	<g>
		<g id="Layer0_4_MEMBER_1_MEMBER_0_FILL">
			<path class="st1" d="M214,51.6l4.5-6.3l4.9,6.1l-4.9-9.3L214,51.6z"/>
		</g>
	</g>
</g>
<g transform="matrix( 1, 0, 0, 1, 999.95,0.45) ">
	<g>
		<g id="Layer0_4_MEMBER_2_MEMBER_0_FILL">
			<path class="st1" d="M184.2,50.6l4.9-6.8l5.3,6.5l-5.3-10L184.2,50.6z"/>
		</g>
	</g>
</g>
<g transform="matrix( 1, 0, 0, 1, 999.95,0.45) ">
	<g>
		<g id="Layer0_4_MEMBER_3_MEMBER_0_FILL">
			<path class="st1" d="M135.1,34.1l5.1-7.1l5.5,6.9l-5.5-10.5L135.1,34.1z"/>
		</g>
	</g>
</g>
<g transform="matrix( 1, 0, 0, 1, 999.95,0.45) ">
	<g>
		<g id="Layer0_4_MEMBER_4_MEMBER_0_FILL">
			<path class="st1" d="M101.9,48.9l3.6-5l3.9,4.9l-3.9-7.5L101.9,48.9z"/>
		</g>
	</g>
</g>
<g transform="matrix( 1, 0, 0, 1, 999.95,0.45) ">
	<g>
		<g id="Layer0_4_MEMBER_5_MEMBER_0_FILL">
			<path class="st1" d="M65.4,33.2l4.8-6.6l5.2,6.4l-5.2-9.8L65.4,33.2z"/>
		</g>
	</g>
</g>
<g transform="matrix( 1, 0, 0, 1, 999.95,0.45) ">
	<g>
		<g id="Layer0_4_MEMBER_6_MEMBER_0_FILL">
			<path class="st1" d="M32.2,48.4l3-4.2l3.3,4.2L35.2,42L32.2,48.4z"/>
		</g>
	</g>
</g>
<g transform="matrix( 1, 0, 0, 1, 999.95,0.45) ">
	<g>
		<g id="Layer0_4_MEMBER_7_MEMBER_0_FILL">
			<path class="st1" d="M53,50.7l5.2-7.2l5.6,7l-5.6-10.8L53,50.7z"/>
		</g>
	</g>
</g>
<g transform="matrix( 1, 0, 0, 1, 999.95,0.45) ">
	<g>
		<g id="Layer0_4_MEMBER_8_MEMBER_0_FILL">
			<path class="st1" d="M105.4,27.9l2.7-3.7l2.9,3.6l-2.9-5.6L105.4,27.9z"/>
		</g>
	</g>
</g>
<g transform="matrix( 1, 0, 0, 1, 999.95,0.45) ">
	<g>
		<g id="Layer0_4_MEMBER_9_MEMBER_0_FILL">
			<path class="st1" d="M130.4,50.1l3.1-4.3l3.4,4.2l-3.4-6.4L130.4,50.1z"/>
		</g>
	</g>
</g>
<g transform="matrix( 1, 0, 0, 1, 999.95,0.45) ">
	<g>
		<g id="Layer0_4_MEMBER_10_MEMBER_0_FILL">
			<path class="st1" d="M162.1,34.6l2.7-3.8l3,3.7l-3-5.7L162.1,34.6z"/>
		</g>
	</g>
</g>
<g transform="matrix( 1, 0, 0, 1, 999.95,0.45) ">
	<g>
		<g id="Layer0_4_MEMBER_11_MEMBER_0_FILL">
			<path class="st1" d="M17.3,31.1l2.8-3.9l3,3.7l-3-5.6L17.3,31.1z"/>
		</g>
	</g>
</g>
<g transform="matrix( 1, 0, 0, 1, 999.95,0.45) ">
	<g>
		<g id="Layer0_4_MEMBER_12_MEMBER_0_FILL">
			<path class="st1" d="M175.9,32l4.1-5.7l4.4,5.6l-4.4-8.5L175.9,32z"/>
		</g>
	</g>
</g>
<g transform="matrix( 1, 0, 0, 1, 999.95,0.45) ">
	<g>
		<g id="Layer0_4_MEMBER_13_MEMBER_0_FILL">
			<path class="st1" d="M251.9,26.1l4.9,6.1l-4.9-9.3l-4.5,9.5L251.9,26.1z"/>
		</g>
	</g>
</g>
<g transform="matrix( 1, 0, 0, 1, 999.95,0.45) ">
	<g>
		<g id="Layer0_4_MEMBER_14_MEMBER_0_FILL">
			<path class="st1" d="M247.3,50.5l3.1-4.2l3.3,4.1l-3.3-6.3L247.3,50.5z"/>
		</g>
	</g>
</g>
<g transform="matrix( 1, 0, 0, 1, 999.95,0.45) ">
	<g>
		<g id="Layer0_4_MEMBER_15_MEMBER_0_FILL">
			<path class="st1" d="M234.6,42.8l2.9-4l3.1,3.9l-3.1-5.9L234.6,42.8z"/>
		</g>
	</g>
</g>
<g transform="matrix( 1, 0, 0, 1, 999.95,0.45) ">
	<g>
		<g id="Layer0_4_MEMBER_16_MEMBER_0_FILL">
			<path class="st1" d="M14.1,51.3l2.9-4l3.1,3.9L17,45.2L14.1,51.3z"/>
		</g>
	</g>
</g>
<g transform="matrix( 1, 0, 0, 1, 999.95,0.45) ">
	<g>
		<g id="Layer0_4_MEMBER_17_MEMBER_0_FILL">
			<path class="st1" d="M201.2,34.7L206,28l5.2,6.5l-5.2-10L201.2,34.7z"/>
		</g>
	</g>
</g>
<g transform="matrix( 1, 0, 0, 1, 999.95,0.45) ">
	<g>
		<g id="Layer0_4_MEMBER_18_MEMBER_0_FILL">
			<path class="st1" d="M146.9,49.3l4.6-6.5l5.1,6.3l-5.1-9.7L146.9,49.3z"/>
		</g>
	</g>
</g>
<g transform="matrix( 1, 0, 0, 1, 999.95,0.45) ">
	<g>
		<g id="Layer0_4_MEMBER_19_MEMBER_0_FILL">
			<path class="st1" d="M119.1,39.4l4.7-6.5l5.1,6.3l-5.1-9.7L119.1,39.4z"/>
		</g>
	</g>
</g>
<g transform="matrix( 1, 0, 0, 1, 999.95,0.45) ">
	<g>
		<g id="Layer0_4_MEMBER_20_MEMBER_0_FILL">
			<path class="st1" d="M90.1,34.1l5.4,6.7l-5.4-10.2l-5,10.5L90.1,34.1z"/>
		</g>
	</g>
</g>
<g transform="matrix( 1, 0, 0, 1, 999.95,0.45) ">
	<g>
		<g id="Layer0_4_MEMBER_21_MEMBER_0_FILL">
			<path class="st1" d="M36,33.5l5.7-7.8l6.1,7.6l-6.1-11.6L36,33.5z"/>
		</g>
	</g>
</g>
<g transform="matrix( 1, 0, 0, 1, 1249.9,0.45) ">
	<g>
		<g id="Layer0_5_MEMBER_0_FILL">
			<path class="st0" d="M258.5,54.3v-35H8.5v35H258.5z"/>
		</g>
	</g>
</g>
<g transform="matrix( 1, 0, 0, 1, 1249.9,0.45) ">
	<g>
		<g id="Layer0_5_MEMBER_1_MEMBER_0_FILL">
			<path class="st1" d="M214,51.6l4.5-6.3l4.9,6.1l-4.9-9.3L214,51.6z"/>
		</g>
	</g>
</g>
<g transform="matrix( 1, 0, 0, 1, 1249.9,0.45) ">
	<g>
		<g id="Layer0_5_MEMBER_2_MEMBER_0_FILL">
			<path class="st1" d="M184.2,50.6l4.9-6.8l5.3,6.5l-5.3-10L184.2,50.6z"/>
		</g>
	</g>
</g>
<g transform="matrix( 1, 0, 0, 1, 1249.9,0.45) ">
	<g>
		<g id="Layer0_5_MEMBER_3_MEMBER_0_FILL">
			<path class="st1" d="M135.1,34.1l5.1-7.1l5.5,6.9l-5.5-10.5L135.1,34.1z"/>
		</g>
	</g>
</g>
<g transform="matrix( 1, 0, 0, 1, 1249.9,0.45) ">
	<g>
		<g id="Layer0_5_MEMBER_4_MEMBER_0_FILL">
			<path class="st1" d="M101.9,48.9l3.6-5l3.9,4.9l-3.9-7.5L101.9,48.9z"/>
		</g>
	</g>
</g>
<g transform="matrix( 1, 0, 0, 1, 1249.9,0.45) ">
	<g>
		<g id="Layer0_5_MEMBER_5_MEMBER_0_FILL">
			<path class="st1" d="M65.4,33.2l4.8-6.6l5.2,6.4l-5.2-9.8L65.4,33.2z"/>
		</g>
	</g>
</g>
<g transform="matrix( 1, 0, 0, 1, 1249.9,0.45) ">
	<g>
		<g id="Layer0_5_MEMBER_6_MEMBER_0_FILL">
			<path class="st1" d="M32.2,48.4l3-4.2l3.3,4.2L35.2,42L32.2,48.4z"/>
		</g>
	</g>
</g>
<g transform="matrix( 1, 0, 0, 1, 1249.9,0.45) ">
	<g>
		<g id="Layer0_5_MEMBER_7_MEMBER_0_FILL">
			<path class="st1" d="M53,50.7l5.2-7.2l5.6,7l-5.6-10.8L53,50.7z"/>
		</g>
	</g>
</g>
<g transform="matrix( 1, 0, 0, 1, 1249.9,0.45) ">
	<g>
		<g id="Layer0_5_MEMBER_8_MEMBER_0_FILL">
			<path class="st1" d="M105.4,27.9l2.7-3.7l2.9,3.6l-2.9-5.6L105.4,27.9z"/>
		</g>
	</g>
</g>
<g transform="matrix( 1, 0, 0, 1, 1249.9,0.45) ">
	<g>
		<g id="Layer0_5_MEMBER_9_MEMBER_0_FILL">
			<path class="st1" d="M130.4,50.1l3.1-4.3l3.4,4.2l-3.4-6.4L130.4,50.1z"/>
		</g>
	</g>
</g>
<g transform="matrix( 1, 0, 0, 1, 1249.9,0.45) ">
	<g>
		<g id="Layer0_5_MEMBER_10_MEMBER_0_FILL">
			<path class="st1" d="M162.1,34.6l2.7-3.8l3,3.7l-3-5.7L162.1,34.6z"/>
		</g>
	</g>
</g>
<g transform="matrix( 1, 0, 0, 1, 1249.9,0.45) ">
	<g>
		<g id="Layer0_5_MEMBER_11_MEMBER_0_FILL">
			<path class="st1" d="M17.3,31.1l2.8-3.9l3,3.7l-3-5.6L17.3,31.1z"/>
		</g>
	</g>
</g>
<g transform="matrix( 1, 0, 0, 1, 1249.9,0.45) ">
	<g>
		<g id="Layer0_5_MEMBER_12_MEMBER_0_FILL">
			<path class="st1" d="M175.9,32l4.1-5.7l4.4,5.6l-4.4-8.5L175.9,32z"/>
		</g>
	</g>
</g>
<g transform="matrix( 1, 0, 0, 1, 1249.9,0.45) ">
	<g>
		<g id="Layer0_5_MEMBER_13_MEMBER_0_FILL">
			<path class="st1" d="M251.9,26.1l4.9,6.1l-4.9-9.3l-4.5,9.5L251.9,26.1z"/>
		</g>
	</g>
</g>
<g transform="matrix( 1, 0, 0, 1, 1249.9,0.45) ">
	<g>
		<g id="Layer0_5_MEMBER_14_MEMBER_0_FILL">
			<path class="st1" d="M247.3,50.5l3.1-4.2l3.3,4.1l-3.3-6.3L247.3,50.5z"/>
		</g>
	</g>
</g>
<g transform="matrix( 1, 0, 0, 1, 1249.9,0.45) ">
	<g>
		<g id="Layer0_5_MEMBER_15_MEMBER_0_FILL">
			<path class="st1" d="M234.6,42.8l2.9-4l3.1,3.9l-3.1-5.9L234.6,42.8z"/>
		</g>
	</g>
</g>
<g transform="matrix( 1, 0, 0, 1, 1249.9,0.45) ">
	<g>
		<g id="Layer0_5_MEMBER_16_MEMBER_0_FILL">
			<path class="st1" d="M14.1,51.3l2.9-4l3.1,3.9L17,45.2L14.1,51.3z"/>
		</g>
	</g>
</g>
<g transform="matrix( 1, 0, 0, 1, 1249.9,0.45) ">
	<g>
		<g id="Layer0_5_MEMBER_17_MEMBER_0_FILL">
			<path class="st1" d="M201.2,34.7L206,28l5.2,6.5l-5.2-10L201.2,34.7z"/>
		</g>
	</g>
</g>
<g transform="matrix( 1, 0, 0, 1, 1249.9,0.45) ">
	<g>
		<g id="Layer0_5_MEMBER_18_MEMBER_0_FILL">
			<path class="st1" d="M146.9,49.3l4.6-6.5l5.1,6.3l-5.1-9.7L146.9,49.3z"/>
		</g>
	</g>
</g>
<g transform="matrix( 1, 0, 0, 1, 1249.9,0.45) ">
	<g>
		<g id="Layer0_5_MEMBER_19_MEMBER_0_FILL">
			<path class="st1" d="M119.1,39.4l4.7-6.5l5.1,6.3l-5.1-9.7L119.1,39.4z"/>
		</g>
	</g>
</g>
<g transform="matrix( 1, 0, 0, 1, 1249.9,0.45) ">
	<g>
		<g id="Layer0_5_MEMBER_20_MEMBER_0_FILL">
			<path class="st1" d="M90.1,34.1l5.4,6.7l-5.4-10.2l-5,10.5L90.1,34.1z"/>
		</g>
	</g>
</g>
<g transform="matrix( 1, 0, 0, 1, 1249.9,0.45) ">
	<g>
		<g id="Layer0_5_MEMBER_21_MEMBER_0_FILL">
			<path class="st1" d="M36,33.5l5.7-7.8l6.1,7.6l-6.1-11.6L36,33.5z"/>
		</g>
	</g>
</g>
</svg>
