<?xml version="1.0" encoding="utf-8"?>
<!-- Generator: Adobe Illustrator 20.1.0, SVG Export Plug-In . SVG Version: 6.00 Build 0)  -->
<svg version="1.1" id="Layer_1" xmlns="http://www.w3.org/2000/svg" xmlns:xlink="http://www.w3.org/1999/xlink" x="0px" y="0px"
	 viewBox="0 0 532 133.3" style="enable-background:new 0 0 532 133.3;" xml:space="preserve">
<style type="text/css">
	.st0{fill:#ABA254;}
	.st1{fill:#918B4B;}
</style>
<g transform="matrix( 1, 0, 0, 1, 0,0) ">
	<g>
		<g id="Layer0_0_MEMBER_0_MEMBER_0_FILL">
			<path class="st0" d="M516,111.4V71.4c-14.1,0-33.6-2.6-58.6-8c-31.8-7.4-56.9-13.1-75.4-17.3C348,38.4,317.7,32.8,291,29
				c-36.3-5.1-71.3-7.4-104.9-7.1c-12.3,0.1-26.7,2.8-43,8c-10.2,3.2-24.9,8.9-44.3,17c-19.9,8.3-34.3,14-43.2,16.8
				C40.2,68.8,27,71.4,16,71.4v40.1H516z"/>
		</g>
	</g>
</g>
<g transform="matrix( 1, 0, 0, 1, 0,0) ">
	<g>
		<g id="Layer0_0_MEMBER_1_MEMBER_0_FILL">
			<path class="st1" d="M57.9,96.2l4.2,5.9l-4.2-9l-4.6,8.8L57.9,96.2z"/>
		</g>
	</g>
</g>
<g transform="matrix( 1, 0, 0, 1, 0,0) ">
	<g>
		<g id="Layer0_0_MEMBER_2_MEMBER_0_FILL">
			<path class="st1" d="M87.1,83l5.2,7.2l-5.2-10.8l-5.5,10.6L87.1,83z"/>
		</g>
	</g>
</g>
<g transform="matrix( 1, 0, 0, 1, 0,0) ">
	<g>
		<g id="Layer0_0_MEMBER_3_MEMBER_0_FILL">
			<path class="st1" d="M118.8,87.7l4.1,5.6l-4.1-8.5l-4.4,8.3L118.8,87.7z"/>
		</g>
	</g>
</g>
<g transform="matrix( 1, 0, 0, 1, 0,0) ">
	<g>
		<g id="Layer0_0_MEMBER_4_MEMBER_0_FILL">
			<path class="st1" d="M150.9,89l4.5,6.2l-4.5-9.4l-4.8,9.2L150.9,89z"/>
		</g>
	</g>
</g>
<g transform="matrix( 1, 0, 0, 1, 0,0) ">
	<g>
		<g id="Layer0_0_MEMBER_5_MEMBER_0_FILL">
			<path class="st1" d="M169.6,85.7l5.2-6.5l4.8,6.7l-4.8-10.2L169.6,85.7z"/>
		</g>
	</g>
</g>
<g transform="matrix( 1, 0, 0, 1, 0,0) ">
	<g>
		<g id="Layer0_0_MEMBER_6_MEMBER_0_FILL">
			<path class="st1" d="M210.4,89.9l2.8,3.9l-2.8-6l-3.1,5.9L210.4,89.9z"/>
		</g>
	</g>
</g>
<g transform="matrix( 1, 0, 0, 1, 0,0) ">
	<g>
		<g id="Layer0_0_MEMBER_7_MEMBER_0_FILL">
			<path class="st1" d="M241.5,79.2l4.8,6.6l-4.8-10l-5.1,9.8L241.5,79.2z"/>
		</g>
	</g>
</g>
<g transform="matrix( 1, 0, 0, 1, 0,0) ">
	<g>
		<g id="Layer0_0_MEMBER_8_MEMBER_0_FILL">
			<path class="st1" d="M268.2,92.2l4.6,6.3l-4.6-9.7l-5,9.4L268.2,92.2z"/>
		</g>
	</g>
</g>
<g transform="matrix( 1, 0, 0, 1, 0,0) ">
	<g>
		<g id="Layer0_0_MEMBER_9_MEMBER_0_FILL">
			<path class="st1" d="M289.5,83.9l5.2,7.2l-5.2-11.1L283.8,91L289.5,83.9z"/>
		</g>
	</g>
</g>
<g transform="matrix( 1, 0, 0, 1, 0,0) ">
	<g>
		<g id="Layer0_0_MEMBER_10_MEMBER_0_FILL">
			<path class="st1" d="M332.1,85.4l4.1,5.7l-4.1-8.7l-4.5,8.5L332.1,85.4z"/>
		</g>
	</g>
</g>
<g transform="matrix( 1, 0, 0, 1, 0,0) ">
	<g>
		<g id="Layer0_0_MEMBER_11_MEMBER_0_FILL">
			<path class="st1" d="M363.6,94.4l5.1,7.2l-5.1-10.8l-5.6,10.6L363.6,94.4z"/>
		</g>
	</g>
</g>
<g transform="matrix( 1, 0, 0, 1, 0,0) ">
	<g>
		<g id="Layer0_0_MEMBER_12_MEMBER_0_FILL">
			<path class="st1" d="M395.5,100.9l3,4.1l-3-6.2l-3.2,6.1L395.5,100.9z"/>
		</g>
	</g>
</g>
<g transform="matrix( 1, 0, 0, 1, 0,0) ">
	<g>
		<g id="Layer0_0_MEMBER_13_MEMBER_0_FILL">
			<path class="st1" d="M418.3,88.9l2.7,3.7l-2.7-5.6l-2.9,5.5L418.3,88.9z"/>
		</g>
	</g>
</g>
<g transform="matrix( 1, 0, 0, 1, 0,0) ">
	<g>
		<g id="Layer0_0_MEMBER_14_MEMBER_0_FILL">
			<path class="st1" d="M449,89.2l5.4,7.4L449,85.3l-5.8,11.1L449,89.2z"/>
		</g>
	</g>
</g>
<g transform="matrix( 1, 0, 0, 1, 0,0) ">
	<g>
		<g id="Layer0_0_MEMBER_15_MEMBER_0_FILL">
			<path class="st1" d="M481.9,80.7l5.6,7.8l-5.6-11.8l-6.1,11.6L481.9,80.7z"/>
		</g>
	</g>
</g>
<g transform="matrix( 1, 0, 0, 1, 0,0) ">
	<g>
		<g id="Layer0_0_MEMBER_16_MEMBER_0_FILL">
			<path class="st1" d="M507.6,94.8l4.7,6.6l-4.7-10l-5.1,9.8L507.6,94.8z"/>
		</g>
	</g>
</g>
<g transform="matrix( 1, 0, 0, 1, 0,0) ">
	<g>
		<g id="Layer0_0_MEMBER_17_MEMBER_0_FILL">
			<path class="st1" d="M238.4,98.4l5.4,7.4l-5.4-11.2l-5.8,11.1L238.4,98.4z"/>
		</g>
	</g>
</g>
<g transform="matrix( 1, 0, 0, 1, 0,0) ">
	<g>
		<g id="Layer0_0_MEMBER_18_MEMBER_0_FILL">
			<path class="st1" d="M469.2,101.4l3.1,4.2l-3.1-6.5l-3.3,6.3L469.2,101.4z"/>
		</g>
	</g>
</g>
<g transform="matrix( 1, 0, 0, 1, 0,0) ">
	<g>
		<g id="Layer0_0_MEMBER_19_MEMBER_0_FILL">
			<path class="st1" d="M180.4,97.4l5.2,7.2l-5.2-11l-5.6,10.8L180.4,97.4z"/>
		</g>
	</g>
</g>
<g transform="matrix( 1, 0, 0, 1, 0,0) ">
	<g>
		<g id="Layer0_0_MEMBER_20_MEMBER_0_FILL">
			<path class="st1" d="M492,105.5l2.9,4.1l-2.9-6.2l-3.1,6.1L492,105.5z"/>
		</g>
	</g>
</g>
<g transform="matrix( 1, 0, 0, 1, 0,0) ">
	<g>
		<g id="Layer0_0_MEMBER_21_MEMBER_0_FILL">
			<path class="st1" d="M496.6,79.8l2.9-3.6l2.6,3.7l-2.6-5.6L496.6,79.8z"/>
		</g>
	</g>
</g>
<g transform="matrix( 1, 0, 0, 1, 0,0) ">
	<g>
		<g id="Layer0_0_MEMBER_22_MEMBER_0_FILL">
			<path class="st1" d="M449.9,70.4l4.6,6.3l-4.6-9.6l-4.9,9.4L449.9,70.4z"/>
		</g>
	</g>
</g>
<g transform="matrix( 1, 0, 0, 1, 0,0) ">
	<g>
		<g id="Layer0_0_MEMBER_23_MEMBER_0_FILL">
			<path class="st1" d="M412.4,66.6L417,73l-4.6-9.8l-5.1,9.6L412.4,66.6z"/>
		</g>
	</g>
</g>
<g transform="matrix( 1, 0, 0, 1, 0,0) ">
	<g>
		<g id="Layer0_0_MEMBER_24_MEMBER_0_FILL">
			<path class="st1" d="M383.8,69.3l3.5,4.8l-3.5-7.3L380,74L383.8,69.3z"/>
		</g>
	</g>
</g>
<g transform="matrix( 1, 0, 0, 1, 0,0) ">
	<g>
		<g id="Layer0_0_MEMBER_25_MEMBER_0_FILL">
			<path class="st1" d="M360.5,75.9l2.7,3.7l-2.7-5.6l-2.9,5.5L360.5,75.9z"/>
		</g>
	</g>
</g>
<g transform="matrix( 1, 0, 0, 1, 0,0) ">
	<g>
		<g id="Layer0_0_MEMBER_26_MEMBER_0_FILL">
			<path class="st1" d="M334.3,69.1l3-3.7l2.7,3.8l-2.7-5.8L334.3,69.1z"/>
		</g>
	</g>
</g>
<g transform="matrix( 1, 0, 0, 1, 0,0) ">
	<g>
		<g id="Layer0_0_MEMBER_27_MEMBER_0_FILL">
			<path class="st1" d="M307.3,74.5l3.4,4.8l-3.4-7.2l-3.8,7L307.3,74.5z"/>
		</g>
	</g>
</g>
<g transform="matrix( 1, 0, 0, 1, 0,0) ">
	<g>
		<g id="Layer0_0_MEMBER_28_MEMBER_0_FILL">
			<path class="st1" d="M275.5,64.1l3.2,4.5l-3.2-6.7l-3.5,6.6L275.5,64.1z"/>
		</g>
	</g>
</g>
<g transform="matrix( 1, 0, 0, 1, 0,0) ">
	<g>
		<g id="Layer0_0_MEMBER_29_MEMBER_0_FILL">
			<path class="st1" d="M230.5,27.2l3.1,4.4l-3.1-6.7l-3.4,6.6L230.5,27.2z"/>
		</g>
	</g>
</g>
<g transform="matrix( 1, 0, 0, 1, 0,0) ">
	<g>
		<g id="Layer0_0_MEMBER_30_MEMBER_0_FILL">
			<path class="st1" d="M245.1,59.3l5,6.9l-5-10.5L239.6,66L245.1,59.3z"/>
		</g>
	</g>
</g>
<g transform="matrix( 1, 0, 0, 1, 0,0) ">
	<g>
		<g id="Layer0_0_MEMBER_31_MEMBER_0_FILL">
			<path class="st1" d="M215.2,69.5l5.2,7.3l-5.2-11.1l-5.8,10.9L215.2,69.5z"/>
		</g>
	</g>
</g>
<g transform="matrix( 1, 0, 0, 1, 0,0) ">
	<g>
		<g id="Layer0_0_MEMBER_32_MEMBER_0_FILL">
			<path class="st1" d="M190.8,68.2l4.6,6.4l-4.6-9.7l-5,9.4L190.8,68.2z"/>
		</g>
	</g>
</g>
<g transform="matrix( 1, 0, 0, 1, 0,0) ">
	<g>
		<g id="Layer0_0_MEMBER_33_MEMBER_0_FILL">
			<path class="st1" d="M158.1,67.2l3.4,4.8l-3.4-7.2l-3.8,7.1L158.1,67.2z"/>
		</g>
	</g>
</g>
<g transform="matrix( 1, 0, 0, 1, 0,0) ">
	<g>
		<g id="Layer0_0_MEMBER_34_MEMBER_0_FILL">
			<path class="st1" d="M124.4,58.4l4.7,6.6L124.4,55l-5.2,9.9L124.4,58.4z"/>
		</g>
	</g>
</g>
<g transform="matrix( 1, 0, 0, 1, 0,0) ">
	<g>
		<g id="Layer0_0_MEMBER_35_MEMBER_0_FILL">
			<path class="st1" d="M92,67l3.3-4.1l3,4.2l-3-6.4L92,67z"/>
		</g>
	</g>
</g>
<g transform="matrix( 1, 0, 0, 1, 0,0) ">
	<g>
		<g id="Layer0_0_MEMBER_36_MEMBER_0_FILL">
			<path class="st1" d="M26.6,75.4l3,4.2l-3-6.3l-3.2,6.2L26.6,75.4z"/>
		</g>
	</g>
</g>
<g transform="matrix( 1, 0, 0, 1, 0,0) ">
	<g>
		<g id="Layer0_0_MEMBER_37_MEMBER_0_FILL">
			<path class="st1" d="M68.3,66l5.5,7.7l-5.5-11.6l-5.9,11.4L68.3,66z"/>
		</g>
	</g>
</g>
<g transform="matrix( 1, 0, 0, 1, 0,0) ">
	<g>
		<g id="Layer0_0_MEMBER_38_MEMBER_0_FILL">
			<path class="st1" d="M45,80.2l4.2,5.8L45,77.2l-4.5,8.7L45,80.2z"/>
		</g>
	</g>
</g>
<g transform="matrix( 1, 0, 0, 1, 0,0) ">
	<g>
		<g id="Layer0_0_MEMBER_39_MEMBER_0_FILL">
			<path class="st1" d="M80,102.1l5.8,8L80,98l-6.2,11.8L80,102.1z"/>
		</g>
	</g>
</g>
<g transform="matrix( 1, 0, 0, 1, 0,0) ">
	<g>
		<g id="Layer0_0_MEMBER_40_MEMBER_0_FILL">
			<path class="st1" d="M113.5,47.7l3.7,5.2l-3.7-7.8l-4.1,7.6L113.5,47.7z"/>
		</g>
	</g>
</g>
<g transform="matrix( 1, 0, 0, 1, 0,0) ">
	<g>
		<g id="Layer0_0_MEMBER_41_MEMBER_0_FILL">
			<path class="st1" d="M207,105.7l3.2,4.5l-3.2-6.8l-3.5,6.7L207,105.7z"/>
		</g>
	</g>
</g>
<g transform="matrix( 1, 0, 0, 1, 0,0) ">
	<g>
		<g id="Layer0_0_MEMBER_42_MEMBER_0_FILL">
			<path class="st1" d="M164,52.4l3.2,4.5l-3.2-6.8l-3.4,6.6L164,52.4z"/>
		</g>
	</g>
</g>
<g transform="matrix( 1, 0, 0, 1, 0,0) ">
	<g>
		<g id="Layer0_0_MEMBER_43_MEMBER_0_FILL">
			<path class="st1" d="M207.3,55.4l2.6,3.8l-2.6-5.7l-2.9,5.5L207.3,55.4z"/>
		</g>
	</g>
</g>
<g transform="matrix( 1, 0, 0, 1, 0,0) ">
	<g>
		<g id="Layer0_0_MEMBER_44_MEMBER_0_FILL">
			<path class="st1" d="M187.2,46.4l2.6,3.8l-2.6-5.7l-2.9,5.5L187.2,46.4z"/>
		</g>
	</g>
</g>
<g transform="matrix( 1, 0, 0, 1, 0,0) ">
	<g>
		<g id="Layer0_0_MEMBER_45_MEMBER_0_FILL">
			<path class="st1" d="M33.5,102.9l2.7,3.8l-2.7-5.7l-3,5.5L33.5,102.9z"/>
		</g>
	</g>
</g>
<g transform="matrix( 1, 0, 0, 1, 0,0) ">
	<g>
		<g id="Layer0_0_MEMBER_46_MEMBER_0_FILL">
			<path class="st1" d="M241.9,37l4.1,5.6l-4.1-8.6l-4.4,8.4L241.9,37z"/>
		</g>
	</g>
</g>
<g transform="matrix( 1, 0, 0, 1, 0,0) ">
	<g>
		<g id="Layer0_0_MEMBER_47_MEMBER_0_FILL">
			<path class="st1" d="M267.6,49.8l5,6.9l-5-10.4l-5.4,10.2L267.6,49.8z"/>
		</g>
	</g>
</g>
<g transform="matrix( 1, 0, 0, 1, 0,0) ">
	<g>
		<g id="Layer0_0_MEMBER_48_MEMBER_0_FILL">
			<path class="st1" d="M301,53.4l3.5,5l-3.5-7.5l-3.9,7.4L301,53.4z"/>
		</g>
	</g>
</g>
<g transform="matrix( 1, 0, 0, 1, 0,0) ">
	<g>
		<g id="Layer0_0_MEMBER_49_MEMBER_0_FILL">
			<path class="st1" d="M326.5,51.3l4.9,6.8l-4.9-10.3l-5.3,10.1L326.5,51.3z"/>
		</g>
	</g>
</g>
<g transform="matrix( 1, 0, 0, 1, 0,0) ">
	<g>
		<g id="Layer0_0_MEMBER_50_MEMBER_0_FILL">
			<path class="st1" d="M360.2,51.9l3,4.1l-3-6.2l-3.2,6.1L360.2,51.9z"/>
		</g>
	</g>
</g>
<g transform="matrix( 1, 0, 0, 1, 0,0) ">
	<g>
		<g id="Layer0_0_MEMBER_51_MEMBER_0_FILL">
			<path class="st1" d="M388.5,52.6l4.7,6.5l-4.7-9.9l-5.1,9.7L388.5,52.6z"/>
		</g>
	</g>
</g>
<g transform="matrix( 1, 0, 0, 1, 0,0) ">
	<g>
		<g id="Layer0_0_MEMBER_52_MEMBER_0_FILL">
			<path class="st1" d="M333.6,109.3l3.6-4.6l3.4,4.7l-3.4-7.1L333.6,109.3z"/>
		</g>
	</g>
</g>
<g transform="matrix( 1, 0, 0, 1, 0,0) ">
	<g>
		<g id="Layer0_0_MEMBER_53_MEMBER_0_FILL">
			<path class="st1" d="M436.6,103.8l4.4,6l-4.4-9.1l-4.6,8.9L436.6,103.8z"/>
		</g>
	</g>
</g>
<g transform="matrix( 1, 0, 0, 1, 0,0) ">
	<g>
		<g id="Layer0_0_MEMBER_54_MEMBER_0_FILL">
			<path class="st1" d="M313.5,100.4l4.9,6.8l-4.9-10.4l-5.4,10.2L313.5,100.4z"/>
		</g>
	</g>
</g>
<g transform="matrix( 1, 0, 0, 1, 0,0) ">
	<g>
		<g id="Layer0_0_MEMBER_55_MEMBER_0_FILL">
			<path class="st1" d="M102.2,99.4l3.1,4.2l-3.1-6.5l-3.3,6.3L102.2,99.4z"/>
		</g>
	</g>
</g>
<g transform="matrix( 1, 0, 0, 1, 0,0) ">
	<g>
		<g id="Layer0_0_MEMBER_56_MEMBER_0_FILL">
			<path class="st1" d="M284,105.9l2.8,3.9l-2.8-5.9l-3,5.8L284,105.9z"/>
		</g>
	</g>
</g>
<g transform="matrix( 1, 0, 0, 1, 0,0) ">
	<g>
		<g id="Layer0_0_MEMBER_57_MEMBER_0_FILL">
			<path class="st1" d="M288.5,31.8l5,6.9l-5-10.5l-5.4,10.2L288.5,31.8z"/>
		</g>
	</g>
</g>
<g transform="matrix( 1, 0, 0, 1, 0,0) ">
	<g>
		<g id="Layer0_0_MEMBER_58_MEMBER_0_FILL">
			<path class="st1" d="M263.6,29.3l5.8,8l-5.8-12.1L257.5,37L263.6,29.3z"/>
		</g>
	</g>
</g>
<g transform="matrix( 1, 0, 0, 1, 0,0) ">
	<g>
		<g id="Layer0_0_MEMBER_59_MEMBER_0_FILL">
			<path class="st1" d="M225.9,46l3.9,5.5l-3.9-8.2l-4.2,8L225.9,46z"/>
		</g>
	</g>
</g>
<g transform="matrix( 1, 0, 0, 1, 0,0) ">
	<g>
		<g id="Layer0_0_MEMBER_60_MEMBER_0_FILL">
			<path class="st1" d="M205.6,27.7l5.4,7.5l-5.4-11.4L199.8,35L205.6,27.7z"/>
		</g>
	</g>
</g>
<g transform="matrix( 1, 0, 0, 1, 0,0) ">
	<g>
		<g id="Layer0_0_MEMBER_61_MEMBER_0_FILL">
			<path class="st1" d="M173.1,27.4l3.1,4.4l-3.1-6.6l-3.4,6.5L173.1,27.4z"/>
		</g>
	</g>
</g>
<g transform="matrix( 1, 0, 0, 1, 0,0) ">
	<g>
		<g id="Layer0_0_MEMBER_62_MEMBER_0_FILL">
			<path class="st1" d="M152.1,41.2l4.1,5.8l-4.1-8.8l-4.6,8.6L152.1,41.2z"/>
		</g>
	</g>
</g>
<g transform="matrix( 1, 0, 0, 1, 0,0) ">
	<g>
		<g id="Layer0_0_MEMBER_63_MEMBER_0_FILL">
			<path class="st1" d="M133.8,107.9l3.5-4.3l3.2,4.5l-3.2-6.8L133.8,107.9z"/>
		</g>
	</g>
</g>
</svg>
