<?xml version="1.0" encoding="utf-8"?>
<!-- Generator: Adobe Illustrator 20.1.0, SVG Export Plug-In . SVG Version: 6.00 Build 0)  -->
<svg version="1.1" id="Layer_1" xmlns="http://www.w3.org/2000/svg" xmlns:xlink="http://www.w3.org/1999/xlink" x="0px" y="0px"
	 viewBox="0 0 2600 208" style="enable-background:new 0 0 2600 208;" xml:space="preserve">
<style type="text/css">
	.st0{fill:#ABA254;}
	.st1{fill:#918B4B;}
</style>
<g transform="matrix( 1.0000152587890625, 0, 0, 1, 0,0) ">
	<g>
		<g id="Layer0_0_MEMBER_0_MEMBER_0_FILL">
			<path class="st0" d="M2550,89.2c-10.5,0-28-2.2-52.4-6.6c-31.7-6.1-56.7-10.9-74.8-14.3c-33.3-6.3-61.3-11-84-14
				c-31.2-4.1-57.9-6-80.1-5.5c-25.2,0.3-48.6,2.6-70.4,6.9c-15.1,3-32,7.6-50.8,13.8c-22.9,7.7-37,12.2-42.3,13.6
				c-15.5,4.1-30.6,6.1-45.2,6.1v70.1h500V89.2z"/>
		</g>
	</g>
</g>
<g transform="matrix( 1.0000152587890625, 0, 0, 1, 0,0) ">
	<g>
		<g id="Layer0_0_MEMBER_1_MEMBER_0_FILL">
			<path class="st1" d="M2091.9,144l4.2,5.9l-4.2-9l-4.6,8.8L2091.9,144z"/>
		</g>
	</g>
</g>
<g transform="matrix( 1.0000152587890625, 0, 0, 1, 0,0) ">
	<g>
		<g id="Layer0_0_MEMBER_2_MEMBER_0_FILL">
			<path class="st1" d="M2121.1,130.8l5.2,7.1l-5.2-10.8l-5.6,10.6L2121.1,130.8z"/>
		</g>
	</g>
</g>
<g transform="matrix( 1.0000152587890625, 0, 0, 1, 0,0) ">
	<g>
		<g id="Layer0_0_MEMBER_3_MEMBER_0_FILL">
			<path class="st1" d="M2148.4,141l4.4-5.4l4.1,5.6l-4.1-8.5L2148.4,141z"/>
		</g>
	</g>
</g>
<g transform="matrix( 1.0000152587890625, 0, 0, 1, 0,0) ">
	<g>
		<g id="Layer0_0_MEMBER_4_MEMBER_0_FILL">
			<path class="st1" d="M2184.9,136.9l4.5,6.2l-4.5-9.4l-4.8,9.2L2184.9,136.9z"/>
		</g>
	</g>
</g>
<g transform="matrix( 1.0000152587890625, 0, 0, 1, 0,0) ">
	<g>
		<g id="Layer0_0_MEMBER_5_MEMBER_0_FILL">
			<path class="st1" d="M2208.8,127l4.8,6.7l-4.8-10.2l-5.2,10L2208.8,127z"/>
		</g>
	</g>
</g>
<g transform="matrix( 1.0000152587890625, 0, 0, 1, 0,0) ">
	<g>
		<g id="Layer0_0_MEMBER_6_MEMBER_0_FILL">
			<path class="st1" d="M2244.3,137.8l2.8,3.9l-2.8-6l-3.1,5.9L2244.3,137.8z"/>
		</g>
	</g>
</g>
<g transform="matrix( 1.0000152587890625, 0, 0, 1, 0,0) ">
	<g>
		<g id="Layer0_0_MEMBER_7_MEMBER_0_FILL">
			<path class="st1" d="M2270.3,133.5l5.1-6.4l4.8,6.6l-4.8-10L2270.3,133.5z"/>
		</g>
	</g>
</g>
<g transform="matrix( 1.0000152587890625, 0, 0, 1, 0,0) ">
	<g>
		<g id="Layer0_0_MEMBER_8_MEMBER_0_FILL">
			<path class="st1" d="M2302.2,140l4.6,6.4l-4.6-9.7l-5,9.4L2302.2,140z"/>
		</g>
	</g>
</g>
<g transform="matrix( 1.0000152587890625, 0, 0, 1, 0,0) ">
	<g>
		<g id="Layer0_0_MEMBER_9_MEMBER_0_FILL">
			<path class="st1" d="M2323.4,131.8l5.2,7.2l-5.2-11.1l-5.7,10.9L2323.4,131.8z"/>
		</g>
	</g>
</g>
<g transform="matrix( 1.0000152587890625, 0, 0, 1, 0,0) ">
	<g>
		<g id="Layer0_0_MEMBER_10_MEMBER_0_FILL">
			<path class="st1" d="M2366.1,133.3l4.1,5.7l-4.1-8.6l-4.4,8.4L2366.1,133.3z"/>
		</g>
	</g>
</g>
<g transform="matrix( 1.0000152587890625, 0, 0, 1, 0,0) ">
	<g>
		<g id="Layer0_0_MEMBER_11_MEMBER_0_FILL">
			<path class="st1" d="M2397.6,142.2l5.1,7.2l-5.1-10.8l-5.6,10.6L2397.6,142.2z"/>
		</g>
	</g>
</g>
<g transform="matrix( 1.0000152587890625, 0, 0, 1, 0,0) ">
	<g>
		<g id="Layer0_0_MEMBER_12_MEMBER_0_FILL">
			<path class="st1" d="M2429.5,148.8l2.9,4.1l-2.9-6.2l-3.2,6.1L2429.5,148.8z"/>
		</g>
	</g>
</g>
<g transform="matrix( 1.0000152587890625, 0, 0, 1, 0,0) ">
	<g>
		<g id="Layer0_0_MEMBER_13_MEMBER_0_FILL">
			<path class="st1" d="M2452.3,136.7l2.6,3.7l-2.6-5.6l-2.9,5.4L2452.3,136.7z"/>
		</g>
	</g>
</g>
<g transform="matrix( 1.0000152587890625, 0, 0, 1, 0,0) ">
	<g>
		<g id="Layer0_0_MEMBER_14_MEMBER_0_FILL">
			<path class="st1" d="M2468.9,82.1l2.6,3.7l-2.6-5.6l-2.9,5.5L2468.9,82.1z"/>
		</g>
	</g>
</g>
<g transform="matrix( 1.0000152587890625, 0, 0, 1, 0,0) ">
	<g>
		<g id="Layer0_0_MEMBER_15_MEMBER_0_FILL">
			<path class="st1" d="M2483,137l5.4,7.4l-5.4-11.3l-5.8,11.1L2483,137z"/>
		</g>
	</g>
</g>
<g transform="matrix( 1.0000152587890625, 0, 0, 1, 0,0) ">
	<g>
		<g id="Layer0_0_MEMBER_16_MEMBER_0_FILL">
			<path class="st1" d="M2509.7,136l6.1-7.5l5.6,7.8l-5.6-11.8L2509.7,136z"/>
		</g>
	</g>
</g>
<g transform="matrix( 1.0000152587890625, 0, 0, 1, 0,0) ">
	<g>
		<g id="Layer0_0_MEMBER_17_MEMBER_0_FILL">
			<path class="st1" d="M2541.6,142.6l4.7,6.6l-4.7-10l-5.2,9.8L2541.6,142.6z"/>
		</g>
	</g>
</g>
<g transform="matrix( 1.0000152587890625, 0, 0, 1, 0,0) ">
	<g>
		<g id="Layer0_0_MEMBER_18_MEMBER_0_FILL">
			<path class="st1" d="M2272.4,146.3l5.4,7.4l-5.4-11.2l-5.8,11.1L2272.4,146.3z"/>
		</g>
	</g>
</g>
<g transform="matrix( 1.0000152587890625, 0, 0, 1, 0,0) ">
	<g>
		<g id="Layer0_0_MEMBER_19_MEMBER_0_FILL">
			<path class="st1" d="M2503.2,149.3l3.1,4.2l-3.1-6.4l-3.3,6.3L2503.2,149.3z"/>
		</g>
	</g>
</g>
<g transform="matrix( 1.0000152587890625, 0, 0, 1, 0,0) ">
	<g>
		<g id="Layer0_0_MEMBER_20_MEMBER_0_FILL">
			<path class="st1" d="M2214.4,145.3l5.2,7.2l-5.2-11l-5.6,10.8L2214.4,145.3z"/>
		</g>
	</g>
</g>
<g transform="matrix( 1.0000152587890625, 0, 0, 1, 0,0) ">
	<g>
		<g id="Layer0_0_MEMBER_21_MEMBER_0_FILL">
			<path class="st1" d="M2544.4,115.7l3,4.1l-3-6.2l-3.1,6L2544.4,115.7z"/>
		</g>
	</g>
</g>
<g transform="matrix( 1.0000152587890625, 0, 0, 1, 0,0) ">
	<g>
		<g id="Layer0_0_MEMBER_22_MEMBER_0_FILL">
			<path class="st1" d="M2515,111.3l2.6,3.7l-2.6-5.5l-2.9,5.4L2515,111.3z"/>
		</g>
	</g>
</g>
<g transform="matrix( 1.0000152587890625, 0, 0, 1, 0,0) ">
	<g>
		<g id="Layer0_0_MEMBER_23_MEMBER_0_FILL">
			<path class="st1" d="M2483.9,118.3l4.5,6.3l-4.5-9.6l-5,9.4L2483.9,118.3z"/>
		</g>
	</g>
</g>
<g transform="matrix( 1.0000152587890625, 0, 0, 1, 0,0) ">
	<g>
		<g id="Layer0_0_MEMBER_24_MEMBER_0_FILL">
			<path class="st1" d="M2446.3,114.4l4.6,6.5l-4.6-9.8l-5.1,9.5L2446.3,114.4z"/>
		</g>
	</g>
</g>
<g transform="matrix( 1.0000152587890625, 0, 0, 1, 0,0) ">
	<g>
		<g id="Layer0_0_MEMBER_25_MEMBER_0_FILL">
			<path class="st1" d="M2417.8,117.1l3.4,4.8l-3.4-7.3l-3.8,7.2L2417.8,117.1z"/>
		</g>
	</g>
</g>
<g transform="matrix( 1.0000152587890625, 0, 0, 1, 0,0) ">
	<g>
		<g id="Layer0_0_MEMBER_26_MEMBER_0_FILL">
			<path class="st1" d="M2394.5,123.8l2.7,3.7l-2.7-5.6l-2.9,5.5L2394.5,123.8z"/>
		</g>
	</g>
</g>
<g transform="matrix( 1.0000152587890625, 0, 0, 1, 0,0) ">
	<g>
		<g id="Layer0_0_MEMBER_27_MEMBER_0_FILL">
			<path class="st1" d="M2516.1,95.4l2.9-3.6l2.7,3.7l-2.7-5.6L2516.1,95.4z"/>
		</g>
	</g>
</g>
<g transform="matrix( 1.0000152587890625, 0, 0, 1, 0,0) ">
	<g>
		<g id="Layer0_0_MEMBER_28_MEMBER_0_FILL">
			<path class="st1" d="M2340.5,59.6l2.7,3.7l-2.7-5.6l-2.9,5.5L2340.5,59.6z"/>
		</g>
	</g>
</g>
<g transform="matrix( 1.0000152587890625, 0, 0, 1, 0,0) ">
	<g>
		<g id="Layer0_0_MEMBER_29_MEMBER_0_FILL">
			<path class="st1" d="M2371.3,113.3l2.8,3.8l-2.8-5.8l-3,5.7L2371.3,113.3z"/>
		</g>
	</g>
</g>
<g transform="matrix( 1.0000152587890625, 0, 0, 1, 0,0) ">
	<g>
		<g id="Layer0_0_MEMBER_30_MEMBER_0_FILL">
			<path class="st1" d="M2426.8,132.8l2.8,3.9l-2.8-5.8l-3,5.6L2426.8,132.8z"/>
		</g>
	</g>
</g>
<g transform="matrix( 1.0000152587890625, 0, 0, 1, 0,0) ">
	<g>
		<g id="Layer0_0_MEMBER_31_MEMBER_0_FILL">
			<path class="st1" d="M2341.3,122.4l3.4,4.8l-3.4-7.2l-3.8,7.1L2341.3,122.4z"/>
		</g>
	</g>
</g>
<g transform="matrix( 1.0000152587890625, 0, 0, 1, 0,0) ">
	<g>
		<g id="Layer0_0_MEMBER_32_MEMBER_0_FILL">
			<path class="st1" d="M2309.4,112l3.2,4.4l-3.2-6.7l-3.4,6.6L2309.4,112z"/>
		</g>
	</g>
</g>
<g transform="matrix( 1.0000152587890625, 0, 0, 1, 0,0) ">
	<g>
		<g id="Layer0_0_MEMBER_33_MEMBER_0_FILL">
			<path class="st1" d="M2314,58.6l3.2,4.4l-3.2-6.7l-3.4,6.5L2314,58.6z"/>
		</g>
	</g>
</g>
<g transform="matrix( 1.0000152587890625, 0, 0, 1, 0,0) ">
	<g>
		<g id="Layer0_0_MEMBER_34_MEMBER_0_FILL">
			<path class="st1" d="M2265.4,70.9l3.1,4.4l-3.1-6.7l-3.5,6.5L2265.4,70.9z"/>
		</g>
	</g>
</g>
<g transform="matrix( 1.0000152587890625, 0, 0, 1, 0,0) ">
	<g>
		<g id="Layer0_0_MEMBER_35_MEMBER_0_FILL">
			<path class="st1" d="M2245,153.1l3.2,4.4l-3.2-6.7l-3.4,6.6L2245,153.1z"/>
		</g>
	</g>
</g>
<g transform="matrix( 1.0000152587890625, 0, 0, 1, 0,0) ">
	<g>
		<g id="Layer0_0_MEMBER_36_MEMBER_0_FILL">
			<path class="st1" d="M2257,53.1l3.2,4.4l-3.2-6.7l-3.4,6.5L2257,53.1z"/>
		</g>
	</g>
</g>
<g transform="matrix( 1.0000152587890625, 0, 0, 1, 0,0) ">
	<g>
		<g id="Layer0_0_MEMBER_37_MEMBER_0_FILL">
			<path class="st1" d="M2279.1,107.1l5,6.9l-5-10.5l-5.4,10.3L2279.1,107.1z"/>
		</g>
	</g>
</g>
<g transform="matrix( 1.0000152587890625, 0, 0, 1, 0,0) ">
	<g>
		<g id="Layer0_0_MEMBER_38_MEMBER_0_FILL">
			<path class="st1" d="M2249.2,117.4l5.2,7.3l-5.2-11.1l-5.8,10.8L2249.2,117.4z"/>
		</g>
	</g>
</g>
<g transform="matrix( 1.0000152587890625, 0, 0, 1, 0,0) ">
	<g>
		<g id="Layer0_0_MEMBER_39_MEMBER_0_FILL">
			<path class="st1" d="M2224.8,116.1l4.6,6.3l-4.6-9.6l-5,9.4L2224.8,116.1z"/>
		</g>
	</g>
</g>
<g transform="matrix( 1.0000152587890625, 0, 0, 1, 0,0) ">
	<g>
		<g id="Layer0_0_MEMBER_40_MEMBER_0_FILL">
			<path class="st1" d="M2192.1,115l3.4,4.8l-3.4-7.2l-3.8,7.1L2192.1,115z"/>
		</g>
	</g>
</g>
<g transform="matrix( 1.0000152587890625, 0, 0, 1, 0,0) ">
	<g>
		<g id="Layer0_0_MEMBER_41_MEMBER_0_FILL">
			<path class="st1" d="M2460,152.1l3.4,4.8l-3.4-7.2l-3.7,7L2460,152.1z"/>
		</g>
	</g>
</g>
<g transform="matrix( 1.0000152587890625, 0, 0, 1, 0,0) ">
	<g>
		<g id="Layer0_0_MEMBER_42_MEMBER_0_FILL">
			<path class="st1" d="M2158.4,106.3l4.8,6.6l-4.8-10l-5.2,9.8L2158.4,106.3z"/>
		</g>
	</g>
</g>
<g transform="matrix( 1.0000152587890625, 0, 0, 1, 0,0) ">
	<g>
		<g id="Layer0_0_MEMBER_43_MEMBER_0_FILL">
			<path class="st1" d="M2129.3,110.8l3,4.2l-3-6.3l-3.3,6.2L2129.3,110.8z"/>
		</g>
	</g>
</g>
<g transform="matrix( 1.0000152587890625, 0, 0, 1, 0,0) ">
	<g>
		<g id="Layer0_0_MEMBER_44_MEMBER_0_FILL">
			<path class="st1" d="M2060.6,123.2l3,4.2l-3-6.3l-3.2,6.2L2060.6,123.2z"/>
		</g>
	</g>
</g>
<g transform="matrix( 1.0000152587890625, 0, 0, 1, 0,0) ">
	<g>
		<g id="Layer0_0_MEMBER_45_MEMBER_0_FILL">
			<path class="st1" d="M2102.3,113.9l5.5,7.7l-5.5-11.6l-5.9,11.3L2102.3,113.9z"/>
		</g>
	</g>
</g>
<g transform="matrix( 1.0000152587890625, 0, 0, 1, 0,0) ">
	<g>
		<g id="Layer0_0_MEMBER_46_MEMBER_0_FILL">
			<path class="st1" d="M2078.5,110.7l4.2,5.8l-4.2-8.8l-4.5,8.7L2078.5,110.7z"/>
		</g>
	</g>
</g>
<g transform="matrix( 1.0000152587890625, 0, 0, 1, 0,0) ">
	<g>
		<g id="Layer0_0_MEMBER_47_MEMBER_0_FILL">
			<path class="st1" d="M2064.8,91.6l4.4,6.1l-4.4-9.2l-4.8,9L2064.8,91.6z"/>
		</g>
	</g>
</g>
<g transform="matrix( 1.0000152587890625, 0, 0, 1, 0,0) ">
	<g>
		<g id="Layer0_0_MEMBER_48_MEMBER_0_FILL">
			<path class="st1" d="M2096.5,89l4.9,6.8l-4.9-10.2l-5.2,10.1L2096.5,89z"/>
		</g>
	</g>
</g>
<g transform="matrix( 1.0000152587890625, 0, 0, 1, 0,0) ">
	<g>
		<g id="Layer0_0_MEMBER_49_MEMBER_0_FILL">
			<path class="st1" d="M2116.5,94.5l5.7,7.9l-5.7-12l-6.2,11.8L2116.5,94.5z"/>
		</g>
	</g>
</g>
<g transform="matrix( 1.0000152587890625, 0, 0, 1, 0,0) ">
	<g>
		<g id="Layer0_0_MEMBER_50_MEMBER_0_FILL">
			<path class="st1" d="M2146.7,89.8l3.7,5.2l-3.7-7.9l-4,7.7L2146.7,89.8z"/>
		</g>
	</g>
</g>
<g transform="matrix( 1.0000152587890625, 0, 0, 1, 0,0) ">
	<g>
		<g id="Layer0_0_MEMBER_51_MEMBER_0_FILL">
			<path class="st1" d="M2177.4,75.9l3.2,4.5l-3.2-6.8l-3.6,6.7L2177.4,75.9z"/>
		</g>
	</g>
</g>
<g transform="matrix( 1.0000152587890625, 0, 0, 1, 0,0) ">
	<g>
		<g id="Layer0_0_MEMBER_52_MEMBER_0_FILL">
			<path class="st1" d="M2188.9,63.4l3.2,4.5l-3.2-6.8l-3.6,6.7L2188.9,63.4z"/>
		</g>
	</g>
</g>
<g transform="matrix( 1.0000152587890625, 0, 0, 1, 0,0) ">
	<g>
		<g id="Layer0_0_MEMBER_53_MEMBER_0_FILL">
			<path class="st1" d="M2198,100.3l3.2,4.4L2198,98l-3.4,6.6L2198,100.3z"/>
		</g>
	</g>
</g>
<g transform="matrix( 1.0000152587890625, 0, 0, 1, 0,0) ">
	<g>
		<g id="Layer0_0_MEMBER_54_MEMBER_0_FILL">
			<path class="st1" d="M2241.3,103.3l2.6,3.8l-2.6-5.7l-2.9,5.6L2241.3,103.3z"/>
		</g>
	</g>
</g>
<g transform="matrix( 1.0000152587890625, 0, 0, 1, 0,0) ">
	<g>
		<g id="Layer0_0_MEMBER_55_MEMBER_0_FILL">
			<path class="st1" d="M2221.2,94.3l2.7,3.8l-2.7-5.7l-2.9,5.6L2221.2,94.3z"/>
		</g>
	</g>
</g>
<g transform="matrix( 1.0000152587890625, 0, 0, 1, 0,0) ">
	<g>
		<g id="Layer0_0_MEMBER_56_MEMBER_0_FILL">
			<path class="st1" d="M2067.5,150.8l2.7,3.8l-2.7-5.6l-2.9,5.5L2067.5,150.8z"/>
		</g>
	</g>
</g>
<g transform="matrix( 1.0000152587890625, 0, 0, 1, 0,0) ">
	<g>
		<g id="Layer0_0_MEMBER_57_MEMBER_0_FILL">
			<path class="st1" d="M2271.5,90.3l4.4-5.5l4.1,5.7l-4.1-8.6L2271.5,90.3z"/>
		</g>
	</g>
</g>
<g transform="matrix( 1.0000152587890625, 0, 0, 1, 0,0) ">
	<g>
		<g id="Layer0_0_MEMBER_58_MEMBER_0_FILL">
			<path class="st1" d="M2287,59.5l4.1,5.7l-4.1-8.6l-4.4,8.4L2287,59.5z"/>
		</g>
	</g>
</g>
<g transform="matrix( 1.0000152587890625, 0, 0, 1, 0,0) ">
	<g>
		<g id="Layer0_0_MEMBER_59_MEMBER_0_FILL">
			<path class="st1" d="M2301.6,97.7l4.9,6.9l-4.9-10.4l-5.4,10.2L2301.6,97.7z"/>
		</g>
	</g>
</g>
<g transform="matrix( 1.0000152587890625, 0, 0, 1, 0,0) ">
	<g>
		<g id="Layer0_0_MEMBER_60_MEMBER_0_FILL">
			<path class="st1" d="M2334.9,101.2l3.6,5l-3.6-7.5l-3.9,7.4L2334.9,101.2z"/>
		</g>
	</g>
</g>
<g transform="matrix( 1.0000152587890625, 0, 0, 1, 0,0) ">
	<g>
		<g id="Layer0_0_MEMBER_61_MEMBER_0_FILL">
			<path class="st1" d="M2360.5,99.1l4.9,6.8l-4.9-10.3l-5.4,10.1L2360.5,99.1z"/>
		</g>
	</g>
</g>
<g transform="matrix( 1.0000152587890625, 0, 0, 1, 0,0) ">
	<g>
		<g id="Layer0_0_MEMBER_62_MEMBER_0_FILL">
			<path class="st1" d="M2394.2,99.7l3,4.1l-3-6.2l-3.2,6.2L2394.2,99.7z"/>
		</g>
	</g>
</g>
<g transform="matrix( 1.0000152587890625, 0, 0, 1, 0,0) ">
	<g>
		<g id="Layer0_0_MEMBER_63_MEMBER_0_FILL">
			<path class="st1" d="M2425.3,91.2l4.7,6.5l-4.7-9.9l-5.1,9.7L2425.3,91.2z"/>
		</g>
	</g>
</g>
<g transform="matrix( 1.0000152587890625, 0, 0, 1, 0,0) ">
	<g>
		<g id="Layer0_0_MEMBER_64_MEMBER_0_FILL">
			<path class="st1" d="M2453.3,97.6l5.2,7.3l-5.2-11.1l-5.7,10.9L2453.3,97.6z"/>
		</g>
	</g>
</g>
<g transform="matrix( 1.0000152587890625, 0, 0, 1, 0,0) ">
	<g>
		<g id="Layer0_0_MEMBER_65_MEMBER_0_FILL">
			<path class="st1" d="M2474.1,107.6l3.6-4.6l3.4,4.7l-3.4-7.1L2474.1,107.6z"/>
		</g>
	</g>
</g>
<g transform="matrix( 1.0000152587890625, 0, 0, 1, 0,0) ">
	<g>
		<g id="Layer0_0_MEMBER_66_MEMBER_0_FILL">
			<path class="st1" d="M2502.7,102.3l3.4,4.7l-3.4-7.1l-3.6,6.9L2502.7,102.3z"/>
		</g>
	</g>
</g>
<g transform="matrix( 1.0000152587890625, 0, 0, 1, 0,0) ">
	<g>
		<g id="Layer0_0_MEMBER_67_MEMBER_0_FILL">
			<path class="st1" d="M2536.2,100.2l4.3,6l-4.3-9.1l-4.7,8.9L2536.2,100.2z"/>
		</g>
	</g>
</g>
<g transform="matrix( 1.0000152587890625, 0, 0, 1, 0,0) ">
	<g>
		<g id="Layer0_0_MEMBER_68_MEMBER_0_FILL">
			<path class="st1" d="M2076,132.4l5.8,8l-5.8-12.1l-6.2,11.9L2076,132.4z"/>
		</g>
	</g>
</g>
<g transform="matrix( 1.0000152587890625, 0, 0, 1, 0,0) ">
	<g>
		<g id="Layer0_0_MEMBER_69_MEMBER_0_FILL">
			<path class="st1" d="M2105.7,157.7l6.2-7.8l5.8,8l-5.8-12.1L2105.7,157.7z"/>
		</g>
	</g>
</g>
<g transform="matrix( 1.0000152587890625, 0, 0, 1, 0,0) ">
	<g>
		<g id="Layer0_0_MEMBER_70_MEMBER_0_FILL">
			<path class="st1" d="M2318.5,152.5l3.6,5l-3.6-7.6l-3.9,7.4L2318.5,152.5z"/>
		</g>
	</g>
</g>
<g transform="matrix( 1.0000152587890625, 0, 0, 1, 0,0) ">
	<g>
		<g id="Layer0_0_MEMBER_71_MEMBER_0_FILL">
			<path class="st1" d="M2347.4,148.3l4.9,6.9l-4.9-10.4l-5.4,10.2L2347.4,148.3z"/>
		</g>
	</g>
</g>
<g transform="matrix( 1.0000152587890625, 0, 0, 1, 0,0) ">
	<g>
		<g id="Layer0_0_MEMBER_72_MEMBER_0_FILL">
			<path class="st1" d="M2136.2,147.3l3.1,4.2l-3.1-6.4l-3.3,6.3L2136.2,147.3z"/>
		</g>
	</g>
</g>
<g transform="matrix( 1.0000152587890625, 0, 0, 1, 0,0) ">
	<g>
		<g id="Layer0_0_MEMBER_73_MEMBER_0_FILL">
			<path class="st1" d="M2524,150l4.8,6.6l-4.8-10l-5.1,9.8L2524,150z"/>
		</g>
	</g>
</g>
<g transform="matrix( 1.0000152587890625, 0, 0, 1, 0,0) ">
	<g>
		<g id="Layer0_0_MEMBER_74_MEMBER_0_FILL">
			<path class="st1" d="M2496.2,85.7l3.2,4.3l-3.2-6.5l-3.3,6.4L2496.2,85.7z"/>
		</g>
	</g>
</g>
<g transform="matrix( 1.0000152587890625, 0, 0, 1, 0,0) ">
	<g>
		<g id="Layer0_0_MEMBER_75_MEMBER_0_FILL">
			<path class="st1" d="M2375.5,152.1l3.4,4.6l-3.4-7.1l-3.6,6.9L2375.5,152.1z"/>
		</g>
	</g>
</g>
<g transform="matrix( 1.0000152587890625, 0, 0, 1, 0,0) ">
	<g>
		<g id="Layer0_0_MEMBER_76_MEMBER_0_FILL">
			<path class="st1" d="M2446,81.1l2.8,4l-2.8-5.9l-3.1,5.8L2446,81.1z"/>
		</g>
	</g>
</g>
<g transform="matrix( 1.0000152587890625, 0, 0, 1, 0,0) ">
	<g>
		<g id="Layer0_0_MEMBER_77_MEMBER_0_FILL">
			<path class="st1" d="M2414,74.6l5.4,7.5l-5.4-11.3l-5.8,11.2L2414,74.6z"/>
		</g>
	</g>
</g>
<g transform="matrix( 1.0000152587890625, 0, 0, 1, 0,0) ">
	<g>
		<g id="Layer0_0_MEMBER_78_MEMBER_0_FILL">
			<path class="st1" d="M2383.5,73.6l5.4,7.6l-5.4-11.4l-5.9,11.2L2383.5,73.6z"/>
		</g>
	</g>
</g>
<g transform="matrix( 1.0000152587890625, 0, 0, 1, 0,0) ">
	<g>
		<g id="Layer0_0_MEMBER_79_MEMBER_0_FILL">
			<path class="st1" d="M2348.5,71.7l5.2,7.1l-5.2-10.8l-5.6,10.6L2348.5,71.7z"/>
		</g>
	</g>
</g>
<g transform="matrix( 1.0000152587890625, 0, 0, 1, 0,0) ">
	<g>
		<g id="Layer0_0_MEMBER_80_MEMBER_0_FILL">
			<path class="st1" d="M2322.5,79.7l5,6.9l-5-10.4l-5.4,10.2L2322.5,79.7z"/>
		</g>
	</g>
</g>
<g transform="matrix( 1.0000152587890625, 0, 0, 1, 0,0) ">
	<g>
		<g id="Layer0_0_MEMBER_81_MEMBER_0_FILL">
			<path class="st1" d="M2297.6,77.1l5.8,8l-5.8-12.1l-6.2,11.8L2297.6,77.1z"/>
		</g>
	</g>
</g>
<g transform="matrix( 1.0000152587890625, 0, 0, 1, 0,0) ">
	<g>
		<g id="Layer0_0_MEMBER_82_MEMBER_0_FILL">
			<path class="st1" d="M2259.9,93.9l3.9,5.4l-3.9-8.2l-4.2,8.1L2259.9,93.9z"/>
		</g>
	</g>
</g>
<g transform="matrix( 1.0000152587890625, 0, 0, 1, 0,0) ">
	<g>
		<g id="Layer0_0_MEMBER_83_MEMBER_0_FILL">
			<path class="st1" d="M2239.7,75.6l5.4,7.4l-5.4-11.3l-5.8,11.1L2239.7,75.6z"/>
		</g>
	</g>
</g>
<g transform="matrix( 1.0000152587890625, 0, 0, 1, 0,0) ">
	<g>
		<g id="Layer0_0_MEMBER_84_MEMBER_0_FILL">
			<path class="st1" d="M2207,75.2l3.1,4.4L2207,73l-3.4,6.5L2207,75.2z"/>
		</g>
	</g>
</g>
<g transform="matrix( 1.0000152587890625, 0, 0, 1, 0,0) ">
	<g>
		<g id="Layer0_0_MEMBER_85_MEMBER_0_FILL">
			<path class="st1" d="M2228.5,60.1l3.2,4.4l-3.2-6.6l-3.4,6.5L2228.5,60.1z"/>
		</g>
	</g>
</g>
<g transform="matrix( 1.0000152587890625, 0, 0, 1, 0,0) ">
	<g>
		<g id="Layer0_0_MEMBER_86_MEMBER_0_FILL">
			<path class="st1" d="M2186.1,89l4.1,5.8l-4.1-8.8l-4.6,8.6L2186.1,89z"/>
		</g>
	</g>
</g>
<g transform="matrix( 1.0000152587890625, 0, 0, 1, 0,0) ">
	<g>
		<g id="Layer0_0_MEMBER_87_MEMBER_0_FILL">
			<path class="st1" d="M2149.8,78.2l3.5-4.3l3.2,4.5l-3.2-6.8L2149.8,78.2z"/>
		</g>
	</g>
</g>
<g transform="matrix( 1.0000152587890625, 0, 0, 1, 0,0) ">
	<g>
		<g id="Layer0_0_MEMBER_88_MEMBER_0_FILL">
			<path class="st1" d="M2174.5,149.9l5.7,7.9l-5.7-11.9l-6.1,11.6L2174.5,149.9z"/>
		</g>
	</g>
</g>
<g transform="matrix( 1.0000152587890625, 0, 0, 1, 0,0) ">
	<g>
		<g id="Layer0_0_MEMBER_89_MEMBER_0_FILL">
			<path class="st1" d="M2132,77.6l3.4,4.8l-3.4-7.3l-3.8,7.1L2132,77.6z"/>
		</g>
	</g>
</g>
<g transform="matrix( 1.0000152587890625, 0, 0, 1, 0,0) ">
	<g>
		<g id="Layer0_0_MEMBER_90_MEMBER_0_FILL">
			<path class="st1" d="M2060.5,106l3.6,4.9l-3.6-7.5l-3.8,7.3L2060.5,106z"/>
		</g>
	</g>
</g>
<g transform="matrix( 1.0000152587890625, 0, 0, 1, 0,0) ">
	<g>
		<g id="Layer0_1_MEMBER_0_MEMBER_0_FILL">
			<path class="st0" d="M1050,159.3v-40.1c-10.7,0-29.3-1.2-55.7-3.5c-2.9-0.3-30-2.8-81.2-7.8c-78.4-7.5-135.1-11.2-170-11.2
				c-24.7,0-59.4-1.2-104.1-3.8c-44.7-2.5-74.4-3.8-89.1-3.8v70.1H1050z"/>
		</g>
	</g>
</g>
<g transform="matrix( 1.0000152587890625, 0, 0, 1, 0,0) ">
	<g>
		<g id="Layer0_1_MEMBER_1_MEMBER_0_FILL">
			<path class="st1" d="M591.9,144l4.2,5.9l-4.2-9l-4.6,8.8L591.9,144z"/>
		</g>
	</g>
</g>
<g transform="matrix( 1.0000152587890625, 0, 0, 1, 0,0) ">
	<g>
		<g id="Layer0_1_MEMBER_2_MEMBER_0_FILL">
			<path class="st1" d="M621.1,130.8l5.2,7.1l-5.2-10.8l-5.5,10.6L621.1,130.8z"/>
		</g>
	</g>
</g>
<g transform="matrix( 1.0000152587890625, 0, 0, 1, 0,0) ">
	<g>
		<g id="Layer0_1_MEMBER_3_MEMBER_0_FILL">
			<path class="st1" d="M652.9,135.5l4.1,5.6l-4.1-8.5l-4.4,8.3L652.9,135.5z"/>
		</g>
	</g>
</g>
<g transform="matrix( 1.0000152587890625, 0, 0, 1, 0,0) ">
	<g>
		<g id="Layer0_1_MEMBER_4_MEMBER_0_FILL">
			<path class="st1" d="M684.9,136.9l4.5,6.2l-4.5-9.4l-4.8,9.2L684.9,136.9z"/>
		</g>
	</g>
</g>
<g transform="matrix( 1.0000152587890625, 0, 0, 1, 0,0) ">
	<g>
		<g id="Layer0_1_MEMBER_5_MEMBER_0_FILL">
			<path class="st1" d="M708.8,127l4.8,6.7l-4.8-10.2l-5.2,10L708.8,127z"/>
		</g>
	</g>
</g>
<g transform="matrix( 1.0000152587890625, 0, 0, 1, 0,0) ">
	<g>
		<g id="Layer0_1_MEMBER_6_MEMBER_0_FILL">
			<path class="st1" d="M744.4,137.8l2.9,3.9l-2.9-6l-3.1,5.9L744.4,137.8z"/>
		</g>
	</g>
</g>
<g transform="matrix( 1.0000152587890625, 0, 0, 1, 0,0) ">
	<g>
		<g id="Layer0_1_MEMBER_7_MEMBER_0_FILL">
			<path class="st1" d="M770.4,133.5l5.2-6.4l4.8,6.6l-4.8-10L770.4,133.5z"/>
		</g>
	</g>
</g>
<g transform="matrix( 1.0000152587890625, 0, 0, 1, 0,0) ">
	<g>
		<g id="Layer0_1_MEMBER_8_MEMBER_0_FILL">
			<path class="st1" d="M802.3,140l4.6,6.4l-4.6-9.7l-5,9.4L802.3,140z"/>
		</g>
	</g>
</g>
<g transform="matrix( 1.0000152587890625, 0, 0, 1, 0,0) ">
	<g>
		<g id="Layer0_1_MEMBER_9_MEMBER_0_FILL">
			<path class="st1" d="M823.5,131.8l5.2,7.2l-5.2-11.1l-5.7,10.9L823.5,131.8z"/>
		</g>
	</g>
</g>
<g transform="matrix( 1.0000152587890625, 0, 0, 1, 0,0) ">
	<g>
		<g id="Layer0_1_MEMBER_10_MEMBER_0_FILL">
			<path class="st1" d="M866.1,133.3l4.1,5.7l-4.1-8.6l-4.4,8.4L866.1,133.3z"/>
		</g>
	</g>
</g>
<g transform="matrix( 1.0000152587890625, 0, 0, 1, 0,0) ">
	<g>
		<g id="Layer0_1_MEMBER_11_MEMBER_0_FILL">
			<path class="st1" d="M897.7,142.2l5.1,7.2l-5.1-10.8l-5.6,10.6L897.7,142.2z"/>
		</g>
	</g>
</g>
<g transform="matrix( 1.0000152587890625, 0, 0, 1, 0,0) ">
	<g>
		<g id="Layer0_1_MEMBER_12_MEMBER_0_FILL">
			<path class="st1" d="M929.5,148.8l3,4.1l-3-6.2l-3.2,6.1L929.5,148.8z"/>
		</g>
	</g>
</g>
<g transform="matrix( 1.0000152587890625, 0, 0, 1, 0,0) ">
	<g>
		<g id="Layer0_1_MEMBER_13_MEMBER_0_FILL">
			<path class="st1" d="M952.3,136.7l2.7,3.7l-2.7-5.6l-2.9,5.4L952.3,136.7z"/>
		</g>
	</g>
</g>
<g transform="matrix( 1.0000152587890625, 0, 0, 1, 0,0) ">
	<g>
		<g id="Layer0_1_MEMBER_14_MEMBER_0_FILL">
			<path class="st1" d="M983,137l5.3,7.4l-5.3-11.3l-5.8,11.1L983,137z"/>
		</g>
	</g>
</g>
<g transform="matrix( 1.0000152587890625, 0, 0, 1, 0,0) ">
	<g>
		<g id="Layer0_1_MEMBER_15_MEMBER_0_FILL">
			<path class="st1" d="M1015.9,128.5l5.6,7.8l-5.6-11.8l-6.1,11.5L1015.9,128.5z"/>
		</g>
	</g>
</g>
<g transform="matrix( 1.0000152587890625, 0, 0, 1, 0,0) ">
	<g>
		<g id="Layer0_1_MEMBER_16_MEMBER_0_FILL">
			<path class="st1" d="M1041.7,142.6l4.7,6.6l-4.7-10l-5.2,9.8L1041.7,142.6z"/>
		</g>
	</g>
</g>
<g transform="matrix( 1.0000152587890625, 0, 0, 1, 0,0) ">
	<g>
		<g id="Layer0_1_MEMBER_17_MEMBER_0_FILL">
			<path class="st1" d="M772.5,146.3l5.3,7.4l-5.3-11.2l-5.8,11.1L772.5,146.3z"/>
		</g>
	</g>
</g>
<g transform="matrix( 1.0000152587890625, 0, 0, 1, 0,0) ">
	<g>
		<g id="Layer0_1_MEMBER_18_MEMBER_0_FILL">
			<path class="st1" d="M1003.3,149.3l3.1,4.2l-3.1-6.4l-3.3,6.3L1003.3,149.3z"/>
		</g>
	</g>
</g>
<g transform="matrix( 1.0000152587890625, 0, 0, 1, 0,0) ">
	<g>
		<g id="Layer0_1_MEMBER_19_MEMBER_0_FILL">
			<path class="st1" d="M714.5,145.3l5.2,7.2l-5.2-11l-5.7,10.8L714.5,145.3z"/>
		</g>
	</g>
</g>
<g transform="matrix( 1.0000152587890625, 0, 0, 1, 0,0) ">
	<g>
		<g id="Layer0_1_MEMBER_20_MEMBER_0_FILL">
			<path class="st1" d="M1041,124.1l2.9,4.1l-2.9-6.2l-3.2,6.1L1041,124.1z"/>
		</g>
	</g>
</g>
<g transform="matrix( 1.0000152587890625, 0, 0, 1, 0,0) ">
	<g>
		<g id="Layer0_1_MEMBER_21_MEMBER_0_FILL">
			<path class="st1" d="M975.5,154.1l2.7,3.7l-2.7-5.6l-2.8,5.4L975.5,154.1z"/>
		</g>
	</g>
</g>
<g transform="matrix( 1.0000152587890625, 0, 0, 1, 0,0) ">
	<g>
		<g id="Layer0_1_MEMBER_22_MEMBER_0_FILL">
			<path class="st1" d="M983.9,118.3l4.5,6.3l-4.5-9.6l-5,9.4L983.9,118.3z"/>
		</g>
	</g>
</g>
<g transform="matrix( 1.0000152587890625, 0, 0, 1, 0,0) ">
	<g>
		<g id="Layer0_1_MEMBER_23_MEMBER_0_FILL">
			<path class="st1" d="M946.4,114.4l4.6,6.5l-4.6-9.8l-5,9.5L946.4,114.4z"/>
		</g>
	</g>
</g>
<g transform="matrix( 1.0000152587890625, 0, 0, 1, 0,0) ">
	<g>
		<g id="Layer0_1_MEMBER_24_MEMBER_0_FILL">
			<path class="st1" d="M917.8,117.1l3.5,4.8l-3.5-7.3l-3.8,7.2L917.8,117.1z"/>
		</g>
	</g>
</g>
<g transform="matrix( 1.0000152587890625, 0, 0, 1, 0,0) ">
	<g>
		<g id="Layer0_1_MEMBER_25_MEMBER_0_FILL">
			<path class="st1" d="M894.5,123.8l2.7,3.7l-2.7-5.6l-2.9,5.5L894.5,123.8z"/>
		</g>
	</g>
</g>
<g transform="matrix( 1.0000152587890625, 0, 0, 1, 0,0) ">
	<g>
		<g id="Layer0_1_MEMBER_26_MEMBER_0_FILL">
			<path class="st1" d="M871.3,113.3l2.8,3.8l-2.8-5.8l-3,5.7L871.3,113.3z"/>
		</g>
	</g>
</g>
<g transform="matrix( 1.0000152587890625, 0, 0, 1, 0,0) ">
	<g>
		<g id="Layer0_1_MEMBER_27_MEMBER_0_FILL">
			<path class="st1" d="M841.3,122.4l3.4,4.8l-3.4-7.2l-3.8,7.1L841.3,122.4z"/>
		</g>
	</g>
</g>
<g transform="matrix( 1.0000152587890625, 0, 0, 1, 0,0) ">
	<g>
		<g id="Layer0_1_MEMBER_28_MEMBER_0_FILL">
			<path class="st1" d="M809.5,112l3.2,4.4l-3.2-6.7l-3.4,6.6L809.5,112z"/>
		</g>
	</g>
</g>
<g transform="matrix( 1.0000152587890625, 0, 0, 1, 0,0) ">
	<g>
		<g id="Layer0_1_MEMBER_29_MEMBER_0_FILL">
			<path class="st1" d="M779.1,107.1l5,6.9l-5-10.5l-5.4,10.3L779.1,107.1z"/>
		</g>
	</g>
</g>
<g transform="matrix( 1.0000152587890625, 0, 0, 1, 0,0) ">
	<g>
		<g id="Layer0_1_MEMBER_30_MEMBER_0_FILL">
			<path class="st1" d="M749.2,117.4l5.2,7.3l-5.2-11.1l-5.8,10.8L749.2,117.4z"/>
		</g>
	</g>
</g>
<g transform="matrix( 1.0000152587890625, 0, 0, 1, 0,0) ">
	<g>
		<g id="Layer0_1_MEMBER_31_MEMBER_0_FILL">
			<path class="st1" d="M724.8,116.1l4.5,6.3l-4.5-9.6l-5,9.4L724.8,116.1z"/>
		</g>
	</g>
</g>
<g transform="matrix( 1.0000152587890625, 0, 0, 1, 0,0) ">
	<g>
		<g id="Layer0_1_MEMBER_32_MEMBER_0_FILL">
			<path class="st1" d="M692.2,115l3.4,4.8l-3.4-7.2l-3.8,7.1L692.2,115z"/>
		</g>
	</g>
</g>
<g transform="matrix( 1.0000152587890625, 0, 0, 1, 0,0) ">
	<g>
		<g id="Layer0_1_MEMBER_33_MEMBER_0_FILL">
			<path class="st1" d="M658.4,106.3l4.8,6.6l-4.8-10l-5.2,9.8L658.4,106.3z"/>
		</g>
	</g>
</g>
<g transform="matrix( 1.0000152587890625, 0, 0, 1, 0,0) ">
	<g>
		<g id="Layer0_1_MEMBER_34_MEMBER_0_FILL">
			<path class="st1" d="M629.3,110.8l3,4.2l-3-6.3l-3.3,6.2L629.3,110.8z"/>
		</g>
	</g>
</g>
<g transform="matrix( 1.0000152587890625, 0, 0, 1, 0,0) ">
	<g>
		<g id="Layer0_1_MEMBER_35_MEMBER_0_FILL">
			<path class="st1" d="M560.7,123.2l3,4.2l-3-6.3l-3.2,6.2L560.7,123.2z"/>
		</g>
	</g>
</g>
<g transform="matrix( 1.0000152587890625, 0, 0, 1, 0,0) ">
	<g>
		<g id="Layer0_1_MEMBER_36_MEMBER_0_FILL">
			<path class="st1" d="M602.4,113.9l5.5,7.7l-5.5-11.6l-5.9,11.3L602.4,113.9z"/>
		</g>
	</g>
</g>
<g transform="matrix( 1.0000152587890625, 0, 0, 1, 0,0) ">
	<g>
		<g id="Layer0_1_MEMBER_37_MEMBER_0_FILL">
			<path class="st1" d="M578.5,110.7l4.2,5.8l-4.2-8.8l-4.5,8.7L578.5,110.7z"/>
		</g>
	</g>
</g>
<g transform="matrix( 1.0000152587890625, 0, 0, 1, 0,0) ">
	<g>
		<g id="Layer0_1_MEMBER_38_MEMBER_0_FILL">
			<path class="st1" d="M564.9,91.6l4.4,6.1l-4.4-9.2l-4.7,9L564.9,91.6z"/>
		</g>
	</g>
</g>
<g transform="matrix( 1.0000152587890625, 0, 0, 1, 0,0) ">
	<g>
		<g id="Layer0_1_MEMBER_39_MEMBER_0_FILL">
			<path class="st1" d="M610.3,102.2l6.2-7.7l5.7,7.9l-5.7-12L610.3,102.2z"/>
		</g>
	</g>
</g>
<g transform="matrix( 1.0000152587890625, 0, 0, 1, 0,0) ">
	<g>
		<g id="Layer0_1_MEMBER_40_MEMBER_0_FILL">
			<path class="st1" d="M698,100.3l3.2,4.4L698,98l-3.5,6.6L698,100.3z"/>
		</g>
	</g>
</g>
<g transform="matrix( 1.0000152587890625, 0, 0, 1, 0,0) ">
	<g>
		<g id="Layer0_1_MEMBER_41_MEMBER_0_FILL">
			<path class="st1" d="M741.3,103.3l2.7,3.8l-2.7-5.7l-3,5.6L741.3,103.3z"/>
		</g>
	</g>
</g>
<g transform="matrix( 1.0000152587890625, 0, 0, 1, 0,0) ">
	<g>
		<g id="Layer0_1_MEMBER_42_MEMBER_0_FILL">
			<path class="st1" d="M741,152.2l2.7,3.7l-2.7-5.6l-2.9,5.6L741,152.2z"/>
		</g>
	</g>
</g>
<g transform="matrix( 1.0000152587890625, 0, 0, 1, 0,0) ">
	<g>
		<g id="Layer0_1_MEMBER_43_MEMBER_0_FILL">
			<path class="st1" d="M567.5,150.8l2.7,3.8l-2.7-5.6l-2.9,5.5L567.5,150.8z"/>
		</g>
	</g>
</g>
<g transform="matrix( 1.0000152587890625, 0, 0, 1, 0,0) ">
	<g>
		<g id="Layer0_1_MEMBER_44_MEMBER_0_FILL">
			<path class="st1" d="M797,105.5l5,6.8l-5-10.4l-5.3,10.2L797,105.5z"/>
		</g>
	</g>
</g>
<g transform="matrix( 1.0000152587890625, 0, 0, 1, 0,0) ">
	<g>
		<g id="Layer0_1_MEMBER_45_MEMBER_0_FILL">
			<path class="st1" d="M835,105.5l3.5,5L835,103l-3.9,7.4L835,105.5z"/>
		</g>
	</g>
</g>
<g transform="matrix( 1.0000152587890625, 0, 0, 1, 0,0) ">
	<g>
		<g id="Layer0_1_MEMBER_46_MEMBER_0_FILL">
			<path class="st1" d="M852.2,115.6l5.3-6.6l4.9,6.8l-4.9-10.3L852.2,115.6z"/>
		</g>
	</g>
</g>
<g transform="matrix( 1.0000152587890625, 0, 0, 1, 0,0) ">
	<g>
		<g id="Layer0_1_MEMBER_47_MEMBER_0_FILL">
			<path class="st1" d="M896.5,112.6l3,4.2l-3-6.3l-3.2,6.1L896.5,112.6z"/>
		</g>
	</g>
</g>
<g transform="matrix( 1.0000152587890625, 0, 0, 1, 0,0) ">
	<g>
		<g id="Layer0_1_MEMBER_48_MEMBER_0_FILL">
			<path class="st1" d="M871.4,151.7l4.7,6.6l-4.7-9.9l-5.1,9.7L871.4,151.7z"/>
		</g>
	</g>
</g>
<g transform="matrix( 1.0000152587890625, 0, 0, 1, 0,0) ">
	<g>
		<g id="Layer0_1_MEMBER_49_MEMBER_0_FILL">
			<path class="st1" d="M933.5,131l5.2,7.2l-5.2-11.1l-5.7,10.9L933.5,131z"/>
		</g>
	</g>
</g>
<g transform="matrix( 1.0000152587890625, 0, 0, 1, 0,0) ">
	<g>
		<g id="Layer0_1_MEMBER_50_MEMBER_0_FILL">
			<path class="st1" d="M945.8,152.6l3.4,4.7l-3.4-7.1l-3.6,7L945.8,152.6z"/>
		</g>
	</g>
</g>
<g transform="matrix( 1.0000152587890625, 0, 0, 1, 0,0) ">
	<g>
		<g id="Layer0_1_MEMBER_51_MEMBER_0_FILL">
			<path class="st1" d="M1026.5,151l4.3,6l-4.3-9.1l-4.7,8.9L1026.5,151z"/>
		</g>
	</g>
</g>
<g transform="matrix( 1.0000152587890625, 0, 0, 1, 0,0) ">
	<g>
		<g id="Layer0_1_MEMBER_52_MEMBER_0_FILL">
			<path class="st1" d="M847.5,148.3l4.9,6.9l-4.9-10.4l-5.4,10.2L847.5,148.3z"/>
		</g>
	</g>
</g>
<g transform="matrix( 1.0000152587890625, 0, 0, 1, 0,0) ">
	<g>
		<g id="Layer0_1_MEMBER_53_MEMBER_0_FILL">
			<path class="st1" d="M636.3,147.3l3.1,4.2l-3.1-6.4l-3.3,6.3L636.3,147.3z"/>
		</g>
	</g>
</g>
<g transform="matrix( 1.0000152587890625, 0, 0, 1, 0,0) ">
	<g>
		<g id="Layer0_1_MEMBER_54_MEMBER_0_FILL">
			<path class="st1" d="M717.5,104.1l3.2,4.4l-3.2-6.6l-3.4,6.5L717.5,104.1z"/>
		</g>
	</g>
</g>
<g transform="matrix( 1.0000152587890625, 0, 0, 1, 0,0) ">
	<g>
		<g id="Layer0_1_MEMBER_55_MEMBER_0_FILL">
			<path class="st1" d="M671.5,149.4l5.7,7.9l-5.7-11.9l-6.1,11.6L671.5,149.4z"/>
		</g>
	</g>
</g>
<g transform="matrix( 1.0000152587890625, 0, 0, 1, 0,0) ">
	<g>
		<g id="Layer0_1_MEMBER_56_MEMBER_0_FILL">
			<path class="st1" d="M612.7,158.3l3.8-4.8l3.5,4.9l-3.5-7.5L612.7,158.3z"/>
		</g>
	</g>
</g>
<g transform="matrix( 1.0000152587890625, 0, 0, 1, 0,0) ">
	<g>
		<g id="Layer0_2_MEMBER_0_MEMBER_0_FILL">
			<path class="st0" d="M1550,159.3v-40.1c-14.1,0-33.6-2.7-58.6-7.9c-31.8-7.4-56.9-13.2-75.4-17.3c-33.9-7.6-64.2-13.3-90.9-17.1
				c-36.3-5.1-71.3-7.4-104.9-7.1c-12.3,0.1-26.7,2.8-43,7.9c-10.1,3.2-24.9,8.9-44.2,17c-19.9,8.3-34.3,13.9-43.2,16.8
				c-15.5,5.1-28.7,7.7-39.7,7.7v40.1H1550z"/>
		</g>
	</g>
</g>
<g transform="matrix( 1.0000152587890625, 0, 0, 1, 0,0) ">
	<g>
		<g id="Layer0_2_MEMBER_1_MEMBER_0_FILL">
			<path class="st1" d="M1091.9,144l4.2,5.9l-4.2-9l-4.6,8.8L1091.9,144z"/>
		</g>
	</g>
</g>
<g transform="matrix( 1.0000152587890625, 0, 0, 1, 0,0) ">
	<g>
		<g id="Layer0_2_MEMBER_2_MEMBER_0_FILL">
			<path class="st1" d="M1121.1,130.8l5.2,7.1l-5.2-10.8l-5.5,10.6L1121.1,130.8z"/>
		</g>
	</g>
</g>
<g transform="matrix( 1.0000152587890625, 0, 0, 1, 0,0) ">
	<g>
		<g id="Layer0_2_MEMBER_3_MEMBER_0_FILL">
			<path class="st1" d="M1152.9,135.5l4.1,5.6l-4.1-8.5l-4.4,8.3L1152.9,135.5z"/>
		</g>
	</g>
</g>
<g transform="matrix( 1.0000152587890625, 0, 0, 1, 0,0) ">
	<g>
		<g id="Layer0_2_MEMBER_4_MEMBER_0_FILL">
			<path class="st1" d="M1184.9,136.9l4.5,6.2l-4.5-9.4l-4.8,9.2L1184.9,136.9z"/>
		</g>
	</g>
</g>
<g transform="matrix( 1.0000152587890625, 0, 0, 1, 0,0) ">
	<g>
		<g id="Layer0_2_MEMBER_5_MEMBER_0_FILL">
			<path class="st1" d="M1208.8,127l4.8,6.7l-4.8-10.2l-5.2,10L1208.8,127z"/>
		</g>
	</g>
</g>
<g transform="matrix( 1.0000152587890625, 0, 0, 1, 0,0) ">
	<g>
		<g id="Layer0_2_MEMBER_6_MEMBER_0_FILL">
			<path class="st1" d="M1244.4,137.8l2.8,3.9l-2.8-6l-3.1,5.9L1244.4,137.8z"/>
		</g>
	</g>
</g>
<g transform="matrix( 1.0000152587890625, 0, 0, 1, 0,0) ">
	<g>
		<g id="Layer0_2_MEMBER_7_MEMBER_0_FILL">
			<path class="st1" d="M1275.5,127.1l4.8,6.6l-4.8-10l-5.2,9.8L1275.5,127.1z"/>
		</g>
	</g>
</g>
<g transform="matrix( 1.0000152587890625, 0, 0, 1, 0,0) ">
	<g>
		<g id="Layer0_2_MEMBER_8_MEMBER_0_FILL">
			<path class="st1" d="M1297.3,146.2l5-6.1l4.6,6.4l-4.6-9.7L1297.3,146.2z"/>
		</g>
	</g>
</g>
<g transform="matrix( 1.0000152587890625, 0, 0, 1, 0,0) ">
	<g>
		<g id="Layer0_2_MEMBER_9_MEMBER_0_FILL">
			<path class="st1" d="M1323.5,131.8l5.2,7.2l-5.2-11.1l-5.7,10.9L1323.5,131.8z"/>
		</g>
	</g>
</g>
<g transform="matrix( 1.0000152587890625, 0, 0, 1, 0,0) ">
	<g>
		<g id="Layer0_2_MEMBER_10_MEMBER_0_FILL">
			<path class="st1" d="M1366.1,133.3l4.1,5.7l-4.1-8.6l-4.4,8.4L1366.1,133.3z"/>
		</g>
	</g>
</g>
<g transform="matrix( 1.0000152587890625, 0, 0, 1, 0,0) ">
	<g>
		<g id="Layer0_2_MEMBER_11_MEMBER_0_FILL">
			<path class="st1" d="M1397.7,142.2l5.1,7.2l-5.1-10.8l-5.6,10.6L1397.7,142.2z"/>
		</g>
	</g>
</g>
<g transform="matrix( 1.0000152587890625, 0, 0, 1, 0,0) ">
	<g>
		<g id="Layer0_2_MEMBER_12_MEMBER_0_FILL">
			<path class="st1" d="M1429.5,148.8l2.9,4.1l-2.9-6.2l-3.2,6.1L1429.5,148.8z"/>
		</g>
	</g>
</g>
<g transform="matrix( 1.0000152587890625, 0, 0, 1, 0,0) ">
	<g>
		<g id="Layer0_2_MEMBER_13_MEMBER_0_FILL">
			<path class="st1" d="M1452.3,136.7l2.6,3.7l-2.6-5.6l-2.9,5.4L1452.3,136.7z"/>
		</g>
	</g>
</g>
<g transform="matrix( 1.0000152587890625, 0, 0, 1, 0,0) ">
	<g>
		<g id="Layer0_2_MEMBER_14_MEMBER_0_FILL">
			<path class="st1" d="M1483,137l5.3,7.4l-5.3-11.3l-5.8,11.1L1483,137z"/>
		</g>
	</g>
</g>
<g transform="matrix( 1.0000152587890625, 0, 0, 1, 0,0) ">
	<g>
		<g id="Layer0_2_MEMBER_15_MEMBER_0_FILL">
			<path class="st1" d="M1515.9,128.5l5.6,7.8l-5.6-11.8l-6.1,11.5L1515.9,128.5z"/>
		</g>
	</g>
</g>
<g transform="matrix( 1.0000152587890625, 0, 0, 1, 0,0) ">
	<g>
		<g id="Layer0_2_MEMBER_16_MEMBER_0_FILL">
			<path class="st1" d="M1541.7,142.6l4.7,6.6l-4.7-10l-5.2,9.8L1541.7,142.6z"/>
		</g>
	</g>
</g>
<g transform="matrix( 1.0000152587890625, 0, 0, 1, 0,0) ">
	<g>
		<g id="Layer0_2_MEMBER_17_MEMBER_0_FILL">
			<path class="st1" d="M1272.5,146.3l5.4,7.4l-5.4-11.2l-5.8,11.1L1272.5,146.3z"/>
		</g>
	</g>
</g>
<g transform="matrix( 1.0000152587890625, 0, 0, 1, 0,0) ">
	<g>
		<g id="Layer0_2_MEMBER_18_MEMBER_0_FILL">
			<path class="st1" d="M1503.3,149.3l3.1,4.2l-3.1-6.4l-3.3,6.3L1503.3,149.3z"/>
		</g>
	</g>
</g>
<g transform="matrix( 1.0000152587890625, 0, 0, 1, 0,0) ">
	<g>
		<g id="Layer0_2_MEMBER_19_MEMBER_0_FILL">
			<path class="st1" d="M1214.5,145.3l5.2,7.2l-5.2-11l-5.6,10.8L1214.5,145.3z"/>
		</g>
	</g>
</g>
<g transform="matrix( 1.0000152587890625, 0, 0, 1, 0,0) ">
	<g>
		<g id="Layer0_2_MEMBER_20_MEMBER_0_FILL">
			<path class="st1" d="M1526,153.3l2.9,4.1l-2.9-6.2l-3.2,6.1L1526,153.3z"/>
		</g>
	</g>
</g>
<g transform="matrix( 1.0000152587890625, 0, 0, 1, 0,0) ">
	<g>
		<g id="Layer0_2_MEMBER_21_MEMBER_0_FILL">
			<path class="st1" d="M1533.5,124.1l2.7,3.7l-2.7-5.6l-2.8,5.4L1533.5,124.1z"/>
		</g>
	</g>
</g>
<g transform="matrix( 1.0000152587890625, 0, 0, 1, 0,0) ">
	<g>
		<g id="Layer0_2_MEMBER_22_MEMBER_0_FILL">
			<path class="st1" d="M1483.9,118.3l4.5,6.3l-4.5-9.6l-5,9.4L1483.9,118.3z"/>
		</g>
	</g>
</g>
<g transform="matrix( 1.0000152587890625, 0, 0, 1, 0,0) ">
	<g>
		<g id="Layer0_2_MEMBER_23_MEMBER_0_FILL">
			<path class="st1" d="M1446.4,114.4l4.6,6.5l-4.6-9.8l-5,9.5L1446.4,114.4z"/>
		</g>
	</g>
</g>
<g transform="matrix( 1.0000152587890625, 0, 0, 1, 0,0) ">
	<g>
		<g id="Layer0_2_MEMBER_24_MEMBER_0_FILL">
			<path class="st1" d="M1417.8,117.1l3.4,4.8l-3.4-7.3l-3.8,7.2L1417.8,117.1z"/>
		</g>
	</g>
</g>
<g transform="matrix( 1.0000152587890625, 0, 0, 1, 0,0) ">
	<g>
		<g id="Layer0_2_MEMBER_25_MEMBER_0_FILL">
			<path class="st1" d="M1394.5,123.8l2.7,3.7l-2.7-5.6l-2.9,5.5L1394.5,123.8z"/>
		</g>
	</g>
</g>
<g transform="matrix( 1.0000152587890625, 0, 0, 1, 0,0) ">
	<g>
		<g id="Layer0_2_MEMBER_26_MEMBER_0_FILL">
			<path class="st1" d="M1371.3,113.3l2.8,3.8l-2.8-5.8l-3,5.7L1371.3,113.3z"/>
		</g>
	</g>
</g>
<g transform="matrix( 1.0000152587890625, 0, 0, 1, 0,0) ">
	<g>
		<g id="Layer0_2_MEMBER_27_MEMBER_0_FILL">
			<path class="st1" d="M1341.3,122.4l3.4,4.8l-3.4-7.2l-3.8,7.1L1341.3,122.4z"/>
		</g>
	</g>
</g>
<g transform="matrix( 1.0000152587890625, 0, 0, 1, 0,0) ">
	<g>
		<g id="Layer0_2_MEMBER_28_MEMBER_0_FILL">
			<path class="st1" d="M1309.5,112l3.2,4.4l-3.2-6.7l-3.4,6.6L1309.5,112z"/>
		</g>
	</g>
</g>
<g transform="matrix( 1.0000152587890625, 0, 0, 1, 0,0) ">
	<g>
		<g id="Layer0_2_MEMBER_29_MEMBER_0_FILL">
			<path class="st1" d="M1261.1,79.3l3.4-4.2l3.2,4.4l-3.2-6.7L1261.1,79.3z"/>
		</g>
	</g>
</g>
<g transform="matrix( 1.0000152587890625, 0, 0, 1, 0,0) ">
	<g>
		<g id="Layer0_2_MEMBER_30_MEMBER_0_FILL">
			<path class="st1" d="M1279.1,107.1l5,6.9l-5-10.5l-5.4,10.3L1279.1,107.1z"/>
		</g>
	</g>
</g>
<g transform="matrix( 1.0000152587890625, 0, 0, 1, 0,0) ">
	<g>
		<g id="Layer0_2_MEMBER_31_MEMBER_0_FILL">
			<path class="st1" d="M1249.2,117.4l5.2,7.3l-5.2-11.1l-5.8,10.8L1249.2,117.4z"/>
		</g>
	</g>
</g>
<g transform="matrix( 1.0000152587890625, 0, 0, 1, 0,0) ">
	<g>
		<g id="Layer0_2_MEMBER_32_MEMBER_0_FILL">
			<path class="st1" d="M1224.8,116.1l4.5,6.3l-4.5-9.6l-5,9.4L1224.8,116.1z"/>
		</g>
	</g>
</g>
<g transform="matrix( 1.0000152587890625, 0, 0, 1, 0,0) ">
	<g>
		<g id="Layer0_2_MEMBER_33_MEMBER_0_FILL">
			<path class="st1" d="M1192.2,115l3.4,4.8l-3.4-7.2l-3.8,7.1L1192.2,115z"/>
		</g>
	</g>
</g>
<g transform="matrix( 1.0000152587890625, 0, 0, 1, 0,0) ">
	<g>
		<g id="Layer0_2_MEMBER_34_MEMBER_0_FILL">
			<path class="st1" d="M1158.4,106.3l4.8,6.6l-4.8-10l-5.2,9.8L1158.4,106.3z"/>
		</g>
	</g>
</g>
<g transform="matrix( 1.0000152587890625, 0, 0, 1, 0,0) ">
	<g>
		<g id="Layer0_2_MEMBER_35_MEMBER_0_FILL">
			<path class="st1" d="M1129.3,110.8l3,4.2l-3-6.3l-3.3,6.2L1129.3,110.8z"/>
		</g>
	</g>
</g>
<g transform="matrix( 1.0000152587890625, 0, 0, 1, 0,0) ">
	<g>
		<g id="Layer0_2_MEMBER_36_MEMBER_0_FILL">
			<path class="st1" d="M1057.4,127.3l3.2-4.1l3,4.2l-3-6.3L1057.4,127.3z"/>
		</g>
	</g>
</g>
<g transform="matrix( 1.0000152587890625, 0, 0, 1, 0,0) ">
	<g>
		<g id="Layer0_2_MEMBER_37_MEMBER_0_FILL">
			<path class="st1" d="M1096.4,121.3l5.9-7.4l5.5,7.7l-5.5-11.6L1096.4,121.3z"/>
		</g>
	</g>
</g>
<g transform="matrix( 1.0000152587890625, 0, 0, 1, 0,0) ">
	<g>
		<g id="Layer0_2_MEMBER_38_MEMBER_0_FILL">
			<path class="st1" d="M1079,128l4.2,5.8l-4.2-8.8l-4.6,8.6L1079,128z"/>
		</g>
	</g>
</g>
<g transform="matrix( 1.0000152587890625, 0, 0, 1, 0,0) ">
	<g>
		<g id="Layer0_2_MEMBER_39_MEMBER_0_FILL">
			<path class="st1" d="M1114,149.9l5.8,8l-5.8-12.1l-6.2,11.8L1114,149.9z"/>
		</g>
	</g>
</g>
<g transform="matrix( 1.0000152587890625, 0, 0, 1, 0,0) ">
	<g>
		<g id="Layer0_2_MEMBER_40_MEMBER_0_FILL">
			<path class="st1" d="M1147.5,95.5l3.7,5.2l-3.7-7.8l-4.1,7.7L1147.5,95.5z"/>
		</g>
	</g>
</g>
<g transform="matrix( 1.0000152587890625, 0, 0, 1, 0,0) ">
	<g>
		<g id="Layer0_2_MEMBER_41_MEMBER_0_FILL">
			<path class="st1" d="M1241,153.6l3.2,4.5l-3.2-6.9l-3.5,6.7L1241,153.6z"/>
		</g>
	</g>
</g>
<g transform="matrix( 1.0000152587890625, 0, 0, 1, 0,0) ">
	<g>
		<g id="Layer0_2_MEMBER_42_MEMBER_0_FILL">
			<path class="st1" d="M1198,100.3l3.2,4.4L1198,98l-3.4,6.6L1198,100.3z"/>
		</g>
	</g>
</g>
<g transform="matrix( 1.0000152587890625, 0, 0, 1, 0,0) ">
	<g>
		<g id="Layer0_2_MEMBER_43_MEMBER_0_FILL">
			<path class="st1" d="M1241.3,103.3l2.6,3.8l-2.6-5.7l-3,5.6L1241.3,103.3z"/>
		</g>
	</g>
</g>
<g transform="matrix( 1.0000152587890625, 0, 0, 1, 0,0) ">
	<g>
		<g id="Layer0_2_MEMBER_44_MEMBER_0_FILL">
			<path class="st1" d="M1221.3,94.3l2.7,3.8l-2.7-5.7l-2.9,5.6L1221.3,94.3z"/>
		</g>
	</g>
</g>
<g transform="matrix( 1.0000152587890625, 0, 0, 1, 0,0) ">
	<g>
		<g id="Layer0_2_MEMBER_45_MEMBER_0_FILL">
			<path class="st1" d="M1067.5,150.8l2.7,3.8l-2.7-5.6l-2.9,5.5L1067.5,150.8z"/>
		</g>
	</g>
</g>
<g transform="matrix( 1.0000152587890625, 0, 0, 1, 0,0) ">
	<g>
		<g id="Layer0_2_MEMBER_46_MEMBER_0_FILL">
			<path class="st1" d="M1276,84.8l4.1,5.7l-4.1-8.6l-4.4,8.4L1276,84.8z"/>
		</g>
	</g>
</g>
<g transform="matrix( 1.0000152587890625, 0, 0, 1, 0,0) ">
	<g>
		<g id="Layer0_2_MEMBER_47_MEMBER_0_FILL">
			<path class="st1" d="M1301.7,97.7l4.9,6.9l-4.9-10.4l-5.4,10.2L1301.7,97.7z"/>
		</g>
	</g>
</g>
<g transform="matrix( 1.0000152587890625, 0, 0, 1, 0,0) ">
	<g>
		<g id="Layer0_2_MEMBER_48_MEMBER_0_FILL">
			<path class="st1" d="M1335,101.2l3.6,5l-3.6-7.5l-3.9,7.4L1335,101.2z"/>
		</g>
	</g>
</g>
<g transform="matrix( 1.0000152587890625, 0, 0, 1, 0,0) ">
	<g>
		<g id="Layer0_2_MEMBER_49_MEMBER_0_FILL">
			<path class="st1" d="M1360.6,99.1l4.9,6.8l-4.9-10.3l-5.4,10.1L1360.6,99.1z"/>
		</g>
	</g>
</g>
<g transform="matrix( 1.0000152587890625, 0, 0, 1, 0,0) ">
	<g>
		<g id="Layer0_2_MEMBER_50_MEMBER_0_FILL">
			<path class="st1" d="M1394.2,99.7l3,4.1l-3-6.2l-3.2,6.2L1394.2,99.7z"/>
		</g>
	</g>
</g>
<g transform="matrix( 1.0000152587890625, 0, 0, 1, 0,0) ">
	<g>
		<g id="Layer0_2_MEMBER_51_MEMBER_0_FILL">
			<path class="st1" d="M1417.4,106.8l5.1-6.3l4.7,6.6l-4.7-9.9L1417.4,106.8z"/>
		</g>
	</g>
</g>
<g transform="matrix( 1.0000152587890625, 0, 0, 1, 0,0) ">
	<g>
		<g id="Layer0_2_MEMBER_52_MEMBER_0_FILL">
			<path class="st1" d="M1371.3,152.6l3.3,4.7l-3.3-7.1l-3.7,7L1371.3,152.6z"/>
		</g>
	</g>
</g>
<g transform="matrix( 1.0000152587890625, 0, 0, 1, 0,0) ">
	<g>
		<g id="Layer0_2_MEMBER_53_MEMBER_0_FILL">
			<path class="st1" d="M1470.7,151.7l4.3,6l-4.3-9.1l-4.7,8.9L1470.7,151.7z"/>
		</g>
	</g>
</g>
<g transform="matrix( 1.0000152587890625, 0, 0, 1, 0,0) ">
	<g>
		<g id="Layer0_2_MEMBER_54_MEMBER_0_FILL">
			<path class="st1" d="M1347.5,148.3l4.9,6.9l-4.9-10.4l-5.4,10.2L1347.5,148.3z"/>
		</g>
	</g>
</g>
<g transform="matrix( 1.0000152587890625, 0, 0, 1, 0,0) ">
	<g>
		<g id="Layer0_2_MEMBER_55_MEMBER_0_FILL">
			<path class="st1" d="M1136.3,147.3l3.1,4.2l-3.1-6.4l-3.3,6.3L1136.3,147.3z"/>
		</g>
	</g>
</g>
<g transform="matrix( 1.0000152587890625, 0, 0, 1, 0,0) ">
	<g>
		<g id="Layer0_2_MEMBER_56_MEMBER_0_FILL">
			<path class="st1" d="M1318,153.8l2.8,3.9l-2.8-5.9l-3.1,5.8L1318,153.8z"/>
		</g>
	</g>
</g>
<g transform="matrix( 1.0000152587890625, 0, 0, 1, 0,0) ">
	<g>
		<g id="Layer0_2_MEMBER_57_MEMBER_0_FILL">
			<path class="st1" d="M1322.5,79.7l5,6.9l-5-10.4l-5.4,10.2L1322.5,79.7z"/>
		</g>
	</g>
</g>
<g transform="matrix( 1.0000152587890625, 0, 0, 1, 0,0) ">
	<g>
		<g id="Layer0_2_MEMBER_58_MEMBER_0_FILL">
			<path class="st1" d="M1297.7,77.1l5.8,8l-5.8-12.1l-6.2,11.8L1297.7,77.1z"/>
		</g>
	</g>
</g>
<g transform="matrix( 1.0000152587890625, 0, 0, 1, 0,0) ">
	<g>
		<g id="Layer0_2_MEMBER_59_MEMBER_0_FILL">
			<path class="st1" d="M1260,93.9l3.9,5.4l-3.9-8.2l-4.2,8.1L1260,93.9z"/>
		</g>
	</g>
</g>
<g transform="matrix( 1.0000152587890625, 0, 0, 1, 0,0) ">
	<g>
		<g id="Layer0_2_MEMBER_60_MEMBER_0_FILL">
			<path class="st1" d="M1239.7,75.6l5.4,7.4l-5.4-11.3l-5.8,11.1L1239.7,75.6z"/>
		</g>
	</g>
</g>
<g transform="matrix( 1.0000152587890625, 0, 0, 1, 0,0) ">
	<g>
		<g id="Layer0_2_MEMBER_61_MEMBER_0_FILL">
			<path class="st1" d="M1207.1,75.2l3.1,4.4l-3.1-6.7l-3.4,6.5L1207.1,75.2z"/>
		</g>
	</g>
</g>
<g transform="matrix( 1.0000152587890625, 0, 0, 1, 0,0) ">
	<g>
		<g id="Layer0_2_MEMBER_62_MEMBER_0_FILL">
			<path class="st1" d="M1186.1,89l4.2,5.8l-4.2-8.8l-4.5,8.6L1186.1,89z"/>
		</g>
	</g>
</g>
<g transform="matrix( 1.0000152587890625, 0, 0, 1, 0,0) ">
	<g>
		<g id="Layer0_2_MEMBER_63_MEMBER_0_FILL">
			<path class="st1" d="M1171.3,151.4l3.2,4.5l-3.2-6.9l-3.5,6.7L1171.3,151.4z"/>
		</g>
	</g>
</g>
<g transform="matrix( 1.0000152587890625, 0, 0, 1, 0,0) ">
	<g>
		<g id="Layer0_3_MEMBER_0_MEMBER_0_FILL">
			<path class="st0" d="M2050,89.2c-10.5,0-28.4-2.1-53.7-6.2c-24.7-4-43.4-5.9-56.1-5.7c-28.3,0.6-63.2,3.1-104.8,7.6
				c-28.9,3.1-66.4,7.9-112.7,14.3c-56.9,7.9-90.8,12.5-101.5,13.8c-33,4.1-56.7,6.2-71.2,6.2v40.1H2050V89.2z"/>
		</g>
	</g>
</g>
<g transform="matrix( 1.0000152587890625, 0, 0, 1, 0,0) ">
	<g>
		<g id="Layer0_3_MEMBER_1_MEMBER_0_FILL">
			<path class="st1" d="M1591.9,144l4.2,5.9l-4.2-9l-4.6,8.8L1591.9,144z"/>
		</g>
	</g>
</g>
<g transform="matrix( 1.0000152587890625, 0, 0, 1, 0,0) ">
	<g>
		<g id="Layer0_3_MEMBER_2_MEMBER_0_FILL">
			<path class="st1" d="M1621.1,130.8l5.2,7.1l-5.2-10.8l-5.5,10.6L1621.1,130.8z"/>
		</g>
	</g>
</g>
<g transform="matrix( 1.0000152587890625, 0, 0, 1, 0,0) ">
	<g>
		<g id="Layer0_3_MEMBER_3_MEMBER_0_FILL">
			<path class="st1" d="M1652.9,135.5l4.1,5.6l-4.1-8.5l-4.4,8.3L1652.9,135.5z"/>
		</g>
	</g>
</g>
<g transform="matrix( 1.0000152587890625, 0, 0, 1, 0,0) ">
	<g>
		<g id="Layer0_3_MEMBER_4_MEMBER_0_FILL">
			<path class="st1" d="M1684.9,136.9l4.5,6.2l-4.5-9.4l-4.8,9.2L1684.9,136.9z"/>
		</g>
	</g>
</g>
<g transform="matrix( 1.0000152587890625, 0, 0, 1, 0,0) ">
	<g>
		<g id="Layer0_3_MEMBER_5_MEMBER_0_FILL">
			<path class="st1" d="M1703.6,133.5l5.2-6.5l4.8,6.7l-4.8-10.2L1703.6,133.5z"/>
		</g>
	</g>
</g>
<g transform="matrix( 1.0000152587890625, 0, 0, 1, 0,0) ">
	<g>
		<g id="Layer0_3_MEMBER_6_MEMBER_0_FILL">
			<path class="st1" d="M1744.4,137.8l2.8,3.9l-2.8-6l-3.1,5.9L1744.4,137.8z"/>
		</g>
	</g>
</g>
<g transform="matrix( 1.0000152587890625, 0, 0, 1, 0,0) ">
	<g>
		<g id="Layer0_3_MEMBER_7_MEMBER_0_FILL">
			<path class="st1" d="M1775.5,127.1l4.8,6.6l-4.8-10l-5.2,9.8L1775.5,127.1z"/>
		</g>
	</g>
</g>
<g transform="matrix( 1.0000152587890625, 0, 0, 1, 0,0) ">
	<g>
		<g id="Layer0_3_MEMBER_8_MEMBER_0_FILL">
			<path class="st1" d="M1802.3,140l4.6,6.4l-4.6-9.7l-5,9.4L1802.3,140z"/>
		</g>
	</g>
</g>
<g transform="matrix( 1.0000152587890625, 0, 0, 1, 0,0) ">
	<g>
		<g id="Layer0_3_MEMBER_9_MEMBER_0_FILL">
			<path class="st1" d="M1823.5,131.8l5.2,7.2l-5.2-11.1l-5.7,10.9L1823.5,131.8z"/>
		</g>
	</g>
</g>
<g transform="matrix( 1.0000152587890625, 0, 0, 1, 0,0) ">
	<g>
		<g id="Layer0_3_MEMBER_10_MEMBER_0_FILL">
			<path class="st1" d="M1866.1,133.3l4.1,5.7l-4.1-8.6l-4.4,8.4L1866.1,133.3z"/>
		</g>
	</g>
</g>
<g transform="matrix( 1.0000152587890625, 0, 0, 1, 0,0) ">
	<g>
		<g id="Layer0_3_MEMBER_11_MEMBER_0_FILL">
			<path class="st1" d="M1897.7,142.2l5.1,7.2l-5.1-10.8l-5.6,10.6L1897.7,142.2z"/>
		</g>
	</g>
</g>
<g transform="matrix( 1.0000152587890625, 0, 0, 1, 0,0) ">
	<g>
		<g id="Layer0_3_MEMBER_12_MEMBER_0_FILL">
			<path class="st1" d="M1929.5,148.8l2.9,4.1l-2.9-6.2l-3.2,6.1L1929.5,148.8z"/>
		</g>
	</g>
</g>
<g transform="matrix( 1.0000152587890625, 0, 0, 1, 0,0) ">
	<g>
		<g id="Layer0_3_MEMBER_13_MEMBER_0_FILL">
			<path class="st1" d="M1949.4,140.3l2.9-3.6l2.6,3.7l-2.6-5.6L1949.4,140.3z"/>
		</g>
	</g>
</g>
<g transform="matrix( 1.0000152587890625, 0, 0, 1, 0,0) ">
	<g>
		<g id="Layer0_3_MEMBER_14_MEMBER_0_FILL">
			<path class="st1" d="M1983,137l5.3,7.4l-5.3-11.3l-5.8,11.1L1983,137z"/>
		</g>
	</g>
</g>
<g transform="matrix( 1.0000152587890625, 0, 0, 1, 0,0) ">
	<g>
		<g id="Layer0_3_MEMBER_15_MEMBER_0_FILL">
			<path class="st1" d="M2015.9,128.5l5.6,7.8l-5.6-11.8l-6.1,11.5L2015.9,128.5z"/>
		</g>
	</g>
</g>
<g transform="matrix( 1.0000152587890625, 0, 0, 1, 0,0) ">
	<g>
		<g id="Layer0_3_MEMBER_16_MEMBER_0_FILL">
			<path class="st1" d="M2041.6,142.6l4.7,6.6l-4.7-10l-5.2,9.8L2041.6,142.6z"/>
		</g>
	</g>
</g>
<g transform="matrix( 1.0000152587890625, 0, 0, 1, 0,0) ">
	<g>
		<g id="Layer0_3_MEMBER_17_MEMBER_0_FILL">
			<path class="st1" d="M1772.5,146.3l5.4,7.4l-5.4-11.2l-5.8,11.1L1772.5,146.3z"/>
		</g>
	</g>
</g>
<g transform="matrix( 1.0000152587890625, 0, 0, 1, 0,0) ">
	<g>
		<g id="Layer0_3_MEMBER_18_MEMBER_0_FILL">
			<path class="st1" d="M2003.3,149.3l3.1,4.2l-3.1-6.4l-3.3,6.3L2003.3,149.3z"/>
		</g>
	</g>
</g>
<g transform="matrix( 1.0000152587890625, 0, 0, 1, 0,0) ">
	<g>
		<g id="Layer0_3_MEMBER_19_MEMBER_0_FILL">
			<path class="st1" d="M1714.5,145.3l5.2,7.2l-5.2-11l-5.6,10.8L1714.5,145.3z"/>
		</g>
	</g>
</g>
<g transform="matrix( 1.0000152587890625, 0, 0, 1, 0,0) ">
	<g>
		<g id="Layer0_3_MEMBER_20_MEMBER_0_FILL">
			<path class="st1" d="M2044.4,115.7l2.9,4.1l-2.9-6.2l-3.2,6L2044.4,115.7z"/>
		</g>
	</g>
</g>
<g transform="matrix( 1.0000152587890625, 0, 0, 1, 0,0) ">
	<g>
		<g id="Layer0_3_MEMBER_21_MEMBER_0_FILL">
			<path class="st1" d="M2015.1,111.3l2.6,3.7l-2.6-5.5l-2.9,5.4L2015.1,111.3z"/>
		</g>
	</g>
</g>
<g transform="matrix( 1.0000152587890625, 0, 0, 1, 0,0) ">
	<g>
		<g id="Layer0_3_MEMBER_22_MEMBER_0_FILL">
			<path class="st1" d="M1983.9,118.3l4.5,6.3l-4.5-9.6l-5,9.4L1983.9,118.3z"/>
		</g>
	</g>
</g>
<g transform="matrix( 1.0000152587890625, 0, 0, 1, 0,0) ">
	<g>
		<g id="Layer0_3_MEMBER_23_MEMBER_0_FILL">
			<path class="st1" d="M1946.4,114.4l4.6,6.5l-4.6-9.8l-5,9.5L1946.4,114.4z"/>
		</g>
	</g>
</g>
<g transform="matrix( 1.0000152587890625, 0, 0, 1, 0,0) ">
	<g>
		<g id="Layer0_3_MEMBER_24_MEMBER_0_FILL">
			<path class="st1" d="M1917.8,117.1l3.4,4.8l-3.4-7.3l-3.8,7.2L1917.8,117.1z"/>
		</g>
	</g>
</g>
<g transform="matrix( 1.0000152587890625, 0, 0, 1, 0,0) ">
	<g>
		<g id="Layer0_3_MEMBER_25_MEMBER_0_FILL">
			<path class="st1" d="M1894.5,123.8l2.7,3.7l-2.7-5.6l-2.9,5.5L1894.5,123.8z"/>
		</g>
	</g>
</g>
<g transform="matrix( 1.0000152587890625, 0, 0, 1, 0,0) ">
	<g>
		<g id="Layer0_3_MEMBER_26_MEMBER_0_FILL">
			<path class="st1" d="M1868.3,117l3-3.7l2.8,3.8l-2.8-5.8L1868.3,117z"/>
		</g>
	</g>
</g>
<g transform="matrix( 1.0000152587890625, 0, 0, 1, 0,0) ">
	<g>
		<g id="Layer0_3_MEMBER_27_MEMBER_0_FILL">
			<path class="st1" d="M1841.3,122.4l3.4,4.8l-3.4-7.2l-3.8,7.1L1841.3,122.4z"/>
		</g>
	</g>
</g>
<g transform="matrix( 1.0000152587890625, 0, 0, 1, 0,0) ">
	<g>
		<g id="Layer0_3_MEMBER_28_MEMBER_0_FILL">
			<path class="st1" d="M1809.5,112l3.2,4.4l-3.2-6.7l-3.4,6.6L1809.5,112z"/>
		</g>
	</g>
</g>
<g transform="matrix( 1.0000152587890625, 0, 0, 1, 0,0) ">
	<g>
		<g id="Layer0_3_MEMBER_29_MEMBER_0_FILL">
			<path class="st1" d="M1694.5,152l3.2,4.4l-3.2-6.7l-3.4,6.6L1694.5,152z"/>
		</g>
	</g>
</g>
<g transform="matrix( 1.0000152587890625, 0, 0, 1, 0,0) ">
	<g>
		<g id="Layer0_3_MEMBER_30_MEMBER_0_FILL">
			<path class="st1" d="M1779.1,107.1l5,6.9l-5-10.5l-5.4,10.3L1779.1,107.1z"/>
		</g>
	</g>
</g>
<g transform="matrix( 1.0000152587890625, 0, 0, 1, 0,0) ">
	<g>
		<g id="Layer0_3_MEMBER_31_MEMBER_0_FILL">
			<path class="st1" d="M1743.5,124.4l5.8-7l5.2,7.3l-5.2-11.1L1743.5,124.4z"/>
		</g>
	</g>
</g>
<g transform="matrix( 1.0000152587890625, 0, 0, 1, 0,0) ">
	<g>
		<g id="Layer0_3_MEMBER_32_MEMBER_0_FILL">
			<path class="st1" d="M1724.8,116.1l4.5,6.3l-4.5-9.6l-5,9.4L1724.8,116.1z"/>
		</g>
	</g>
</g>
<g transform="matrix( 1.0000152587890625, 0, 0, 1, 0,0) ">
	<g>
		<g id="Layer0_3_MEMBER_33_MEMBER_0_FILL">
			<path class="st1" d="M1692.2,115l3.4,4.8l-3.4-7.2l-3.8,7.1L1692.2,115z"/>
		</g>
	</g>
</g>
<g transform="matrix( 1.0000152587890625, 0, 0, 1, 0,0) ">
	<g>
		<g id="Layer0_3_MEMBER_34_MEMBER_0_FILL">
			<path class="st1" d="M1962.5,153.6l3.4,4.8l-3.4-7.2l-3.7,7L1962.5,153.6z"/>
		</g>
	</g>
</g>
<g transform="matrix( 1.0000152587890625, 0, 0, 1, 0,0) ">
	<g>
		<g id="Layer0_3_MEMBER_35_MEMBER_0_FILL">
			<path class="st1" d="M1660.4,121.9l5.2-6.4l4.8,6.6l-4.8-10L1660.4,121.9z"/>
		</g>
	</g>
</g>
<g transform="matrix( 1.0000152587890625, 0, 0, 1, 0,0) ">
	<g>
		<g id="Layer0_3_MEMBER_36_MEMBER_0_FILL">
			<path class="st1" d="M1636,118.4l3,4.2l-3-6.3l-3.2,6.2L1636,118.4z"/>
		</g>
	</g>
</g>
<g transform="matrix( 1.0000152587890625, 0, 0, 1, 0,0) ">
	<g>
		<g id="Layer0_3_MEMBER_37_MEMBER_0_FILL">
			<path class="st1" d="M1560.7,123.2l3,4.2l-3-6.3l-3.2,6.2L1560.7,123.2z"/>
		</g>
	</g>
</g>
<g transform="matrix( 1.0000152587890625, 0, 0, 1, 0,0) ">
	<g>
		<g id="Layer0_3_MEMBER_38_MEMBER_0_FILL">
			<path class="st1" d="M1576.5,149.4l5.5,7.7l-5.5-11.6l-5.9,11.4L1576.5,149.4z"/>
		</g>
	</g>
</g>
<g transform="matrix( 1.0000152587890625, 0, 0, 1, 0,0) ">
	<g>
		<g id="Layer0_3_MEMBER_39_MEMBER_0_FILL">
			<path class="st1" d="M1583,128.2l4.2,5.8l-4.2-8.8l-4.6,8.7L1583,128.2z"/>
		</g>
	</g>
</g>
<g transform="matrix( 1.0000152587890625, 0, 0, 1, 0,0) ">
	<g>
		<g id="Layer0_3_MEMBER_40_MEMBER_0_FILL">
			<path class="st1" d="M1601.5,123l4.8,6.8l-4.8-10.2l-5.2,10.1L1601.5,123z"/>
		</g>
	</g>
</g>
<g transform="matrix( 1.0000152587890625, 0, 0, 1, 0,0) ">
	<g>
		<g id="Layer0_3_MEMBER_41_MEMBER_0_FILL">
			<path class="st1" d="M1614,148.4l5.8,8l-5.8-12.1l-6.2,11.8L1614,148.4z"/>
		</g>
	</g>
</g>
<g transform="matrix( 1.0000152587890625, 0, 0, 1, 0,0) ">
	<g>
		<g id="Layer0_3_MEMBER_42_MEMBER_0_FILL">
			<path class="st1" d="M1704,105.1l3.2,4.5l-3.2-6.8l-3.4,6.6L1704,105.1z"/>
		</g>
	</g>
</g>
<g transform="matrix( 1.0000152587890625, 0, 0, 1, 0,0) ">
	<g>
		<g id="Layer0_3_MEMBER_43_MEMBER_0_FILL">
			<path class="st1" d="M1741.3,103.3l2.6,3.8l-2.6-5.7l-3,5.6L1741.3,103.3z"/>
		</g>
	</g>
</g>
<g transform="matrix( 1.0000152587890625, 0, 0, 1, 0,0) ">
	<g>
		<g id="Layer0_3_MEMBER_44_MEMBER_0_FILL">
			<path class="st1" d="M1560,149.6l2.7,3.8l-2.7-5.7l-2.9,5.6L1560,149.6z"/>
		</g>
	</g>
</g>
<g transform="matrix( 1.0000152587890625, 0, 0, 1, 0,0) ">
	<g>
		<g id="Layer0_3_MEMBER_45_MEMBER_0_FILL">
			<path class="st1" d="M1734.5,151.4l4.1,5.7l-4.1-8.6l-4.4,8.4L1734.5,151.4z"/>
		</g>
	</g>
</g>
<g transform="matrix( 1.0000152587890625, 0, 0, 1, 0,0) ">
	<g>
		<g id="Layer0_3_MEMBER_46_MEMBER_0_FILL">
			<path class="st1" d="M1801.7,97.7l4.9,6.9l-4.9-10.4l-5.4,10.2L1801.7,97.7z"/>
		</g>
	</g>
</g>
<g transform="matrix( 1.0000152587890625, 0, 0, 1, 0,0) ">
	<g>
		<g id="Layer0_3_MEMBER_47_MEMBER_0_FILL">
			<path class="st1" d="M1835,101.2l3.6,5l-3.6-7.5l-3.9,7.4L1835,101.2z"/>
		</g>
	</g>
</g>
<g transform="matrix( 1.0000152587890625, 0, 0, 1, 0,0) ">
	<g>
		<g id="Layer0_3_MEMBER_48_MEMBER_0_FILL">
			<path class="st1" d="M1860.6,99.1l4.9,6.8l-4.9-10.3l-5.4,10.1L1860.6,99.1z"/>
		</g>
	</g>
</g>
<g transform="matrix( 1.0000152587890625, 0, 0, 1, 0,0) ">
	<g>
		<g id="Layer0_3_MEMBER_49_MEMBER_0_FILL">
			<path class="st1" d="M1894.2,99.7l3,4.1l-3-6.2l-3.2,6.2L1894.2,99.7z"/>
		</g>
	</g>
</g>
<g transform="matrix( 1.0000152587890625, 0, 0, 1, 0,0) ">
	<g>
		<g id="Layer0_3_MEMBER_50_MEMBER_0_FILL">
			<path class="st1" d="M1925.4,91.2l4.7,6.5l-4.7-9.9l-5.1,9.7L1925.4,91.2z"/>
		</g>
	</g>
</g>
<g transform="matrix( 1.0000152587890625, 0, 0, 1, 0,0) ">
	<g>
		<g id="Layer0_3_MEMBER_51_MEMBER_0_FILL">
			<path class="st1" d="M1953.3,97.6l5.2,7.3l-5.2-11.1l-5.7,10.9L1953.3,97.6z"/>
		</g>
	</g>
</g>
<g transform="matrix( 1.0000152587890625, 0, 0, 1, 0,0) ">
	<g>
		<g id="Layer0_3_MEMBER_52_MEMBER_0_FILL">
			<path class="st1" d="M1977.8,103.1l3.3,4.7l-3.3-7.1l-3.7,6.9L1977.8,103.1z"/>
		</g>
	</g>
</g>
<g transform="matrix( 1.0000152587890625, 0, 0, 1, 0,0) ">
	<g>
		<g id="Layer0_3_MEMBER_53_MEMBER_0_FILL">
			<path class="st1" d="M2002.8,102.3l3.4,4.7l-3.4-7.1l-3.7,6.9L2002.8,102.3z"/>
		</g>
	</g>
</g>
<g transform="matrix( 1.0000152587890625, 0, 0, 1, 0,0) ">
	<g>
		<g id="Layer0_3_MEMBER_54_MEMBER_0_FILL">
			<path class="st1" d="M2036.2,100.2l4.3,6l-4.3-9.1l-4.7,8.9L2036.2,100.2z"/>
		</g>
	</g>
</g>
<g transform="matrix( 1.0000152587890625, 0, 0, 1, 0,0) ">
	<g>
		<g id="Layer0_3_MEMBER_55_MEMBER_0_FILL">
			<path class="st1" d="M1908.1,157.4l3.9-4.9l3.6,5l-3.6-7.6L1908.1,157.4z"/>
		</g>
	</g>
</g>
<g transform="matrix( 1.0000152587890625, 0, 0, 1, 0,0) ">
	<g>
		<g id="Layer0_3_MEMBER_56_MEMBER_0_FILL">
			<path class="st1" d="M1847.5,148.3l4.9,6.9l-4.9-10.4l-5.4,10.2L1847.5,148.3z"/>
		</g>
	</g>
</g>
<g transform="matrix( 1.0000152587890625, 0, 0, 1, 0,0) ">
	<g>
		<g id="Layer0_3_MEMBER_57_MEMBER_0_FILL">
			<path class="st1" d="M1636.3,147.3l3.1,4.2l-3.1-6.4l-3.3,6.3L1636.3,147.3z"/>
		</g>
	</g>
</g>
<g transform="matrix( 1.0000152587890625, 0, 0, 1, 0,0) ">
	<g>
		<g id="Layer0_3_MEMBER_58_MEMBER_0_FILL">
			<path class="st1" d="M2025,151l4.7,6.6l-4.7-10l-5.2,9.8L2025,151z"/>
		</g>
	</g>
</g>
<g transform="matrix( 1.0000152587890625, 0, 0, 1, 0,0) ">
	<g>
		<g id="Layer0_3_MEMBER_59_MEMBER_0_FILL">
			<path class="st1" d="M1995,88.6l3.1,4.4l-3.1-6.6l-3.4,6.5L1995,88.6z"/>
		</g>
	</g>
</g>
<g transform="matrix( 1.0000152587890625, 0, 0, 1, 0,0) ">
	<g>
		<g id="Layer0_3_MEMBER_60_MEMBER_0_FILL">
			<path class="st1" d="M1941,82.1l2.8,4l-2.8-5.9l-3.1,5.8L1941,82.1z"/>
		</g>
	</g>
</g>
<g transform="matrix( 1.0000152587890625, 0, 0, 1, 0,0) ">
	<g>
		<g id="Layer0_3_MEMBER_61_MEMBER_0_FILL">
			<path class="st1" d="M1874,149.9l5.4,7.5l-5.4-11.3l-5.8,11.1L1874,149.9z"/>
		</g>
	</g>
</g>
<g transform="matrix( 1.0000152587890625, 0, 0, 1, 0,0) ">
	<g>
		<g id="Layer0_3_MEMBER_62_MEMBER_0_FILL">
			<path class="st1" d="M1884,85.9l5.5,7.5L1884,82l-5.9,11.2L1884,85.9z"/>
		</g>
	</g>
</g>
<g transform="matrix( 1.0000152587890625, 0, 0, 1, 0,0) ">
	<g>
		<g id="Layer0_3_MEMBER_63_MEMBER_0_FILL">
			<path class="st1" d="M1847.5,90.2l5.2,7.1l-5.2-10.8l-5.6,10.6L1847.5,90.2z"/>
		</g>
	</g>
</g>
<g transform="matrix( 1.0000152587890625, 0, 0, 1, 0,0) ">
	<g>
		<g id="Layer0_3_MEMBER_64_MEMBER_0_FILL">
			<path class="st1" d="M1785.6,157.2l5.4-6.7l5,6.9l-5-10.5L1785.6,157.2z"/>
		</g>
	</g>
</g>
<g transform="matrix( 1.0000152587890625, 0, 0, 1, 0,0) ">
	<g>
		<g id="Layer0_3_MEMBER_65_MEMBER_0_FILL">
			<path class="st1" d="M1759.5,99.5l3.9,5.4l-3.9-8.2l-4.2,8.1L1759.5,99.5z"/>
		</g>
	</g>
</g>
<g transform="matrix( 1.0000152587890625, 0, 0, 1, 0,0) ">
	<g>
		<g id="Layer0_3_MEMBER_66_MEMBER_0_FILL">
			<path class="st1" d="M1660.2,155.7l5.8-7.2l5.4,7.5l-5.4-11.3L1660.2,155.7z"/>
		</g>
	</g>
</g>
<g transform="matrix( 1.0000152587890625, 0, 0, 1, 0,0) ">
	<g>
		<g id="Layer0_4_MEMBER_0_MEMBER_0_FILL">
			<path class="st0" d="M550,159.3V89.2c-11.7,0-25.8,0.9-42.4,2.7c-8,0.8-23.2,2.7-45.4,5.7c-39.9,5.2-69.5,7.4-88.7,6.8
				c-43,0.7-106.4-1.6-190-6.8c-40.5-2.7-68.6-4.6-84.3-5.6c-26.2-1.7-42.7-2.6-49.4-2.6v70.1H550z"/>
		</g>
	</g>
</g>
<g transform="matrix( 1.0000152587890625, 0, 0, 1, 0,0) ">
	<g>
		<g id="Layer0_4_MEMBER_1_MEMBER_0_FILL">
			<path class="st1" d="M91.9,144l4.2,5.9l-4.2-9l-4.6,8.8L91.9,144z"/>
		</g>
	</g>
</g>
<g transform="matrix( 1.0000152587890625, 0, 0, 1, 0,0) ">
	<g>
		<g id="Layer0_4_MEMBER_2_MEMBER_0_FILL">
			<path class="st1" d="M121.1,130.8l5.2,7.1l-5.2-10.8l-5.5,10.6L121.1,130.8z"/>
		</g>
	</g>
</g>
<g transform="matrix( 1.0000152587890625, 0, 0, 1, 0,0) ">
	<g>
		<g id="Layer0_4_MEMBER_3_MEMBER_0_FILL">
			<path class="st1" d="M152.9,135.5l4.1,5.6l-4.1-8.5l-4.4,8.3L152.9,135.5z"/>
		</g>
	</g>
</g>
<g transform="matrix( 1.0000152587890625, 0, 0, 1, 0,0) ">
	<g>
		<g id="Layer0_4_MEMBER_4_MEMBER_0_FILL">
			<path class="st1" d="M184.9,136.9l4.5,6.2l-4.5-9.4l-4.8,9.2L184.9,136.9z"/>
		</g>
	</g>
</g>
<g transform="matrix( 1.0000152587890625, 0, 0, 1, 0,0) ">
	<g>
		<g id="Layer0_4_MEMBER_5_MEMBER_0_FILL">
			<path class="st1" d="M203.6,133.5l5.3-6.5l4.8,6.7l-4.8-10.2L203.6,133.5z"/>
		</g>
	</g>
</g>
<g transform="matrix( 1.0000152587890625, 0, 0, 1, 0,0) ">
	<g>
		<g id="Layer0_4_MEMBER_6_MEMBER_0_FILL">
			<path class="st1" d="M244.4,137.8l2.8,3.9l-2.8-6l-3.1,5.9L244.4,137.8z"/>
		</g>
	</g>
</g>
<g transform="matrix( 1.0000152587890625, 0, 0, 1, 0,0) ">
	<g>
		<g id="Layer0_4_MEMBER_7_MEMBER_0_FILL">
			<path class="st1" d="M275.5,127.1l4.8,6.6l-4.8-10l-5.1,9.8L275.5,127.1z"/>
		</g>
	</g>
</g>
<g transform="matrix( 1.0000152587890625, 0, 0, 1, 0,0) ">
	<g>
		<g id="Layer0_4_MEMBER_8_MEMBER_0_FILL">
			<path class="st1" d="M302.3,140l4.6,6.4l-4.6-9.7l-5,9.4L302.3,140z"/>
		</g>
	</g>
</g>
<g transform="matrix( 1.0000152587890625, 0, 0, 1, 0,0) ">
	<g>
		<g id="Layer0_4_MEMBER_9_MEMBER_0_FILL">
			<path class="st1" d="M323.5,131.8l5.2,7.2l-5.2-11.1l-5.7,10.9L323.5,131.8z"/>
		</g>
	</g>
</g>
<g transform="matrix( 1.0000152587890625, 0, 0, 1, 0,0) ">
	<g>
		<g id="Layer0_4_MEMBER_10_MEMBER_0_FILL">
			<path class="st1" d="M366.1,133.3l4.1,5.7l-4.1-8.6l-4.5,8.4L366.1,133.3z"/>
		</g>
	</g>
</g>
<g transform="matrix( 1.0000152587890625, 0, 0, 1, 0,0) ">
	<g>
		<g id="Layer0_4_MEMBER_11_MEMBER_0_FILL">
			<path class="st1" d="M397.7,142.2l5.1,7.2l-5.1-10.8l-5.6,10.6L397.7,142.2z"/>
		</g>
	</g>
</g>
<g transform="matrix( 1.0000152587890625, 0, 0, 1, 0,0) ">
	<g>
		<g id="Layer0_4_MEMBER_12_MEMBER_0_FILL">
			<path class="st1" d="M429.5,148.8l3,4.1l-3-6.2l-3.2,6.1L429.5,148.8z"/>
		</g>
	</g>
</g>
<g transform="matrix( 1.0000152587890625, 0, 0, 1, 0,0) ">
	<g>
		<g id="Layer0_4_MEMBER_13_MEMBER_0_FILL">
			<path class="st1" d="M452.3,136.7l2.7,3.7l-2.7-5.6l-2.9,5.4L452.3,136.7z"/>
		</g>
	</g>
</g>
<g transform="matrix( 1.0000152587890625, 0, 0, 1, 0,0) ">
	<g>
		<g id="Layer0_4_MEMBER_14_MEMBER_0_FILL">
			<path class="st1" d="M483,137l5.4,7.4l-5.4-11.3l-5.9,11.1L483,137z"/>
		</g>
	</g>
</g>
<g transform="matrix( 1.0000152587890625, 0, 0, 1, 0,0) ">
	<g>
		<g id="Layer0_4_MEMBER_15_MEMBER_0_FILL">
			<path class="st1" d="M515.9,128.5l5.6,7.8l-5.6-11.8l-6.1,11.5L515.9,128.5z"/>
		</g>
	</g>
</g>
<g transform="matrix( 1.0000152587890625, 0, 0, 1, 0,0) ">
	<g>
		<g id="Layer0_4_MEMBER_16_MEMBER_0_FILL">
			<path class="st1" d="M541.7,142.6l4.7,6.6l-4.7-10l-5.2,9.8L541.7,142.6z"/>
		</g>
	</g>
</g>
<g transform="matrix( 1.0000152587890625, 0, 0, 1, 0,0) ">
	<g>
		<g id="Layer0_4_MEMBER_17_MEMBER_0_FILL">
			<path class="st1" d="M272.5,146.3l5.4,7.4l-5.4-11.2l-5.8,11.1L272.5,146.3z"/>
		</g>
	</g>
</g>
<g transform="matrix( 1.0000152587890625, 0, 0, 1, 0,0) ">
	<g>
		<g id="Layer0_4_MEMBER_18_MEMBER_0_FILL">
			<path class="st1" d="M503.3,149.3l3.1,4.2l-3.1-6.4l-3.3,6.3L503.3,149.3z"/>
		</g>
	</g>
</g>
<g transform="matrix( 1.0000152587890625, 0, 0, 1, 0,0) ">
	<g>
		<g id="Layer0_4_MEMBER_19_MEMBER_0_FILL">
			<path class="st1" d="M214.5,145.3l5.2,7.2l-5.2-11l-5.6,10.8L214.5,145.3z"/>
		</g>
	</g>
</g>
<g transform="matrix( 1.0000152587890625, 0, 0, 1, 0,0) ">
	<g>
		<g id="Layer0_4_MEMBER_20_MEMBER_0_FILL">
			<path class="st1" d="M544.5,115.7l3,4.1l-3-6.2l-3.2,6L544.5,115.7z"/>
		</g>
	</g>
</g>
<g transform="matrix( 1.0000152587890625, 0, 0, 1, 0,0) ">
	<g>
		<g id="Layer0_4_MEMBER_21_MEMBER_0_FILL">
			<path class="st1" d="M515.1,111.3l2.6,3.7l-2.6-5.5l-2.8,5.4L515.1,111.3z"/>
		</g>
	</g>
</g>
<g transform="matrix( 1.0000152587890625, 0, 0, 1, 0,0) ">
	<g>
		<g id="Layer0_4_MEMBER_22_MEMBER_0_FILL">
			<path class="st1" d="M483.9,118.3l4.6,6.3l-4.6-9.6l-4.9,9.4L483.9,118.3z"/>
		</g>
	</g>
</g>
<g transform="matrix( 1.0000152587890625, 0, 0, 1, 0,0) ">
	<g>
		<g id="Layer0_4_MEMBER_23_MEMBER_0_FILL">
			<path class="st1" d="M446.4,114.4l4.6,6.5l-4.6-9.8l-5.1,9.5L446.4,114.4z"/>
		</g>
	</g>
</g>
<g transform="matrix( 1.0000152587890625, 0, 0, 1, 0,0) ">
	<g>
		<g id="Layer0_4_MEMBER_24_MEMBER_0_FILL">
			<path class="st1" d="M417.8,117.1l3.5,4.8l-3.5-7.3l-3.8,7.2L417.8,117.1z"/>
		</g>
	</g>
</g>
<g transform="matrix( 1.0000152587890625, 0, 0, 1, 0,0) ">
	<g>
		<g id="Layer0_4_MEMBER_25_MEMBER_0_FILL">
			<path class="st1" d="M394.5,123.8l2.6,3.7l-2.6-5.6l-2.9,5.5L394.5,123.8z"/>
		</g>
	</g>
</g>
<g transform="matrix( 1.0000152587890625, 0, 0, 1, 0,0) ">
	<g>
		<g id="Layer0_4_MEMBER_26_MEMBER_0_FILL">
			<path class="st1" d="M368.3,117l3-3.7l2.8,3.8l-2.8-5.8L368.3,117z"/>
		</g>
	</g>
</g>
<g transform="matrix( 1.0000152587890625, 0, 0, 1, 0,0) ">
	<g>
		<g id="Layer0_4_MEMBER_27_MEMBER_0_FILL">
			<path class="st1" d="M341.3,122.4l3.4,4.8l-3.4-7.2l-3.8,7.1L341.3,122.4z"/>
		</g>
	</g>
</g>
<g transform="matrix( 1.0000152587890625, 0, 0, 1, 0,0) ">
	<g>
		<g id="Layer0_4_MEMBER_28_MEMBER_0_FILL">
			<path class="st1" d="M309.5,112l3.2,4.4l-3.2-6.7l-3.4,6.6L309.5,112z"/>
		</g>
	</g>
</g>
<g transform="matrix( 1.0000152587890625, 0, 0, 1, 0,0) ">
	<g>
		<g id="Layer0_4_MEMBER_29_MEMBER_0_FILL">
			<path class="st1" d="M279.1,107.1l5,6.9l-5-10.5l-5.5,10.3L279.1,107.1z"/>
		</g>
	</g>
</g>
<g transform="matrix( 1.0000152587890625, 0, 0, 1, 0,0) ">
	<g>
		<g id="Layer0_4_MEMBER_30_MEMBER_0_FILL">
			<path class="st1" d="M243.5,124.4l5.8-7l5.2,7.3l-5.2-11.1L243.5,124.4z"/>
		</g>
	</g>
</g>
<g transform="matrix( 1.0000152587890625, 0, 0, 1, 0,0) ">
	<g>
		<g id="Layer0_4_MEMBER_31_MEMBER_0_FILL">
			<path class="st1" d="M224.8,116.1l4.6,6.3l-4.6-9.6l-5,9.4L224.8,116.1z"/>
		</g>
	</g>
</g>
<g transform="matrix( 1.0000152587890625, 0, 0, 1, 0,0) ">
	<g>
		<g id="Layer0_4_MEMBER_32_MEMBER_0_FILL">
			<path class="st1" d="M192.2,115l3.4,4.8l-3.4-7.2l-3.8,7.1L192.2,115z"/>
		</g>
	</g>
</g>
<g transform="matrix( 1.0000152587890625, 0, 0, 1, 0,0) ">
	<g>
		<g id="Layer0_4_MEMBER_33_MEMBER_0_FILL">
			<path class="st1" d="M158.4,106.3l4.8,6.6l-4.8-10l-5.1,9.8L158.4,106.3z"/>
		</g>
	</g>
</g>
<g transform="matrix( 1.0000152587890625, 0, 0, 1, 0,0) ">
	<g>
		<g id="Layer0_4_MEMBER_34_MEMBER_0_FILL">
			<path class="st1" d="M126,114.9l3.3-4.1l3,4.2l-3-6.3L126,114.9z"/>
		</g>
	</g>
</g>
<g transform="matrix( 1.0000152587890625, 0, 0, 1, 0,0) ">
	<g>
		<g id="Layer0_4_MEMBER_35_MEMBER_0_FILL">
			<path class="st1" d="M60.7,123.2l3,4.2l-3-6.3l-3.2,6.2L60.7,123.2z"/>
		</g>
	</g>
</g>
<g transform="matrix( 1.0000152587890625, 0, 0, 1, 0,0) ">
	<g>
		<g id="Layer0_4_MEMBER_36_MEMBER_0_FILL">
			<path class="st1" d="M102.4,113.9l5.5,7.7l-5.5-11.6l-6,11.3L102.4,113.9z"/>
		</g>
	</g>
</g>
<g transform="matrix( 1.0000152587890625, 0, 0, 1, 0,0) ">
	<g>
		<g id="Layer0_4_MEMBER_37_MEMBER_0_FILL">
			<path class="st1" d="M78.5,110.7l4.2,5.8l-4.2-8.8l-4.6,8.7L78.5,110.7z"/>
		</g>
	</g>
</g>
<g transform="matrix( 1.0000152587890625, 0, 0, 1, 0,0) ">
	<g>
		<g id="Layer0_4_MEMBER_38_MEMBER_0_FILL">
			<path class="st1" d="M66.5,95.5l4.4,6l-4.4-9.2l-4.8,9L66.5,95.5z"/>
		</g>
	</g>
</g>
<g transform="matrix( 1.0000152587890625, 0, 0, 1, 0,0) ">
	<g>
		<g id="Layer0_4_MEMBER_39_MEMBER_0_FILL">
			<path class="st1" d="M91.5,101l4.8,6.8l-4.8-10.2l-5.2,10.1L91.5,101z"/>
		</g>
	</g>
</g>
<g transform="matrix( 1.0000152587890625, 0, 0, 1, 0,0) ">
	<g>
		<g id="Layer0_4_MEMBER_40_MEMBER_0_FILL">
			<path class="st1" d="M117.5,98.5l5.7,7.9l-5.7-12l-6.2,11.8L117.5,98.5z"/>
		</g>
	</g>
</g>
<g transform="matrix( 1.0000152587890625, 0, 0, 1, 0,0) ">
	<g>
		<g id="Layer0_4_MEMBER_41_MEMBER_0_FILL">
			<path class="st1" d="M152.5,153l3.7,5.2l-3.7-7.8l-4.1,7.6L152.5,153z"/>
		</g>
	</g>
</g>
<g transform="matrix( 1.0000152587890625, 0, 0, 1, 0,0) ">
	<g>
		<g id="Layer0_4_MEMBER_42_MEMBER_0_FILL">
			<path class="st1" d="M198,100.3l3.2,4.4L198,98l-3.4,6.6L198,100.3z"/>
		</g>
	</g>
</g>
<g transform="matrix( 1.0000152587890625, 0, 0, 1, 0,0) ">
	<g>
		<g id="Layer0_4_MEMBER_43_MEMBER_0_FILL">
			<path class="st1" d="M241.3,103.3l2.6,3.8l-2.6-5.7l-2.9,5.6L241.3,103.3z"/>
		</g>
	</g>
</g>
<g transform="matrix( 1.0000152587890625, 0, 0, 1, 0,0) ">
	<g>
		<g id="Layer0_4_MEMBER_44_MEMBER_0_FILL">
			<path class="st1" d="M194,154.1l2.7,3.8l-2.7-5.7l-2.9,5.6L194,154.1z"/>
		</g>
	</g>
</g>
<g transform="matrix( 1.0000152587890625, 0, 0, 1, 0,0) ">
	<g>
		<g id="Layer0_4_MEMBER_45_MEMBER_0_FILL">
			<path class="st1" d="M67.5,150.8l2.7,3.8l-2.7-5.6l-2.9,5.5L67.5,150.8z"/>
		</g>
	</g>
</g>
<g transform="matrix( 1.0000152587890625, 0, 0, 1, 0,0) ">
	<g>
		<g id="Layer0_4_MEMBER_46_MEMBER_0_FILL">
			<path class="st1" d="M245.2,158.6l5.4-6.7l4.9,6.9l-4.9-10.4L245.2,158.6z"/>
		</g>
	</g>
</g>
<g transform="matrix( 1.0000152587890625, 0, 0, 1, 0,0) ">
	<g>
		<g id="Layer0_4_MEMBER_47_MEMBER_0_FILL">
			<path class="st1" d="M316,153.2l3.5,5l-3.5-7.5l-3.9,7.3L316,153.2z"/>
		</g>
	</g>
</g>
<g transform="matrix( 1.0000152587890625, 0, 0, 1, 0,0) ">
	<g>
		<g id="Layer0_4_MEMBER_48_MEMBER_0_FILL">
			<path class="st1" d="M355.5,113l4.9,6.8l-4.9-10.3l-5.3,10.1L355.5,113z"/>
		</g>
	</g>
</g>
<g transform="matrix( 1.0000152587890625, 0, 0, 1, 0,0) ">
	<g>
		<g id="Layer0_4_MEMBER_49_MEMBER_0_FILL">
			<path class="st1" d="M455.5,153.6l3,4.1l-3-6.3l-3.2,6.2L455.5,153.6z"/>
		</g>
	</g>
</g>
<g transform="matrix( 1.0000152587890625, 0, 0, 1, 0,0) ">
	<g>
		<g id="Layer0_4_MEMBER_50_MEMBER_0_FILL">
			<path class="st1" d="M427.9,108.2l4.7,6.5l-4.7-9.9l-5.1,9.7L427.9,108.2z"/>
		</g>
	</g>
</g>
<g transform="matrix( 1.0000152587890625, 0, 0, 1, 0,0) ">
	<g>
		<g id="Layer0_4_MEMBER_51_MEMBER_0_FILL">
			<path class="st1" d="M458,103l5.2,7.2l-5.2-11l-5.7,10.8L458,103z"/>
		</g>
	</g>
</g>
<g transform="matrix( 1.0000152587890625, 0, 0, 1, 0,0) ">
	<g>
		<g id="Layer0_4_MEMBER_52_MEMBER_0_FILL">
			<path class="st1" d="M477.8,103.1l3.4,4.7l-3.4-7.1l-3.6,6.9L477.8,103.1z"/>
		</g>
	</g>
</g>
<g transform="matrix( 1.0000152587890625, 0, 0, 1, 0,0) ">
	<g>
		<g id="Layer0_4_MEMBER_53_MEMBER_0_FILL">
			<path class="st1" d="M502.8,102.3l3.4,4.7l-3.4-7.1l-3.6,6.9L502.8,102.3z"/>
		</g>
	</g>
</g>
<g transform="matrix( 1.0000152587890625, 0, 0, 1, 0,0) ">
	<g>
		<g id="Layer0_4_MEMBER_54_MEMBER_0_FILL">
			<path class="st1" d="M536.2,100.2l4.3,6l-4.3-9.1l-4.7,8.9L536.2,100.2z"/>
		</g>
	</g>
</g>
<g transform="matrix( 1.0000152587890625, 0, 0, 1, 0,0) ">
	<g>
		<g id="Layer0_4_MEMBER_55_MEMBER_0_FILL">
			<path class="st1" d="M347.5,148.3l4.9,6.9l-4.9-10.4l-5.4,10.2L347.5,148.3z"/>
		</g>
	</g>
</g>
<g transform="matrix( 1.0000152587890625, 0, 0, 1, 0,0) ">
	<g>
		<g id="Layer0_4_MEMBER_56_MEMBER_0_FILL">
			<path class="st1" d="M136.3,147.3l3.1,4.2l-3.1-6.4l-3.3,6.3L136.3,147.3z"/>
		</g>
	</g>
</g>
<g transform="matrix( 1.0000152587890625, 0, 0, 1, 0,0) ">
	<g>
		<g id="Layer0_4_MEMBER_57_MEMBER_0_FILL">
			<path class="st1" d="M527.5,152l4.8,6.6l-4.8-10l-5.1,9.8L527.5,152z"/>
		</g>
	</g>
</g>
<g transform="matrix( 1.0000152587890625, 0, 0, 1, 0,0) ">
	<g>
		<g id="Layer0_4_MEMBER_58_MEMBER_0_FILL">
			<path class="st1" d="M369.1,157.8l3.4-4.2l3.1,4.3l-3.1-6.6L369.1,157.8z"/>
		</g>
	</g>
</g>
<g transform="matrix( 1.0000152587890625, 0, 0, 1, 0,0) ">
	<g>
		<g id="Layer0_4_MEMBER_59_MEMBER_0_FILL">
			<path class="st1" d="M180.5,103l4.1,5.8l-4.1-8.8l-4.5,8.6L180.5,103z"/>
		</g>
	</g>
</g>
<g transform="matrix( 1.0000152587890625, 0, 0, 1, 0,0) ">
	<g>
		<g id="Layer0_4_MEMBER_60_MEMBER_0_FILL">
			<path class="st1" d="M111,149.4l5.7,7.9l-5.7-11.9l-6.1,11.6L111,149.4z"/>
		</g>
	</g>
</g>
<g transform="matrix( 1.0000152587890625, 0, 0, 1, 0,0) ">
	<g>
		<g id="Layer0_4_MEMBER_61_MEMBER_0_FILL">
			<path class="st1" d="M73,135.5l3.5,4.9L73,133l-3.9,7.4L73,135.5z"/>
		</g>
	</g>
</g>
</svg>
