
<svg xmlns="http://www.w3.org/2000/svg" version="1.1" xmlns:xlink="http://www.w3.org/1999/xlink" preserveAspectRatio="none" x="0px" y="0px" width="145px" height="60px" viewBox="0 0 145 60">
<defs>
<g id="Layer0_0_FILL">
<path fill="#5E5140" stroke="none" d="
M 16.35 38
Q 17.9 38.7 19.4 40.95 21.05 43.5 21.95 44.15 23.15 45.1 26.6 46.65 30 48.15 31.25 49.15 33.95 51.25 36.5 54.6 39.35 58.4 39.4 60.85 39.5 58.4 39 54.5 38.6 51.1 38.45 49.25
L 38.35 49.5
Q 37.35 46 34.85 43.5 33.3 41.95 27.25 40.3 20.7 38.75 17 37.8
L 16.35 38
M 45.05 43.75
Q 51.4 45 54.05 45.45 59.3 46.3 64.25 46.6 64.25 47 64.6 47.8 64.95 48.65 64.95 49 65.9 48.9 67.2 48.4 67.25 48.4 69.4 47.4 70.65 51 75.9 46.45 77.75 44.9 81.05 41.1 80.75 40.6 80.35 40.5 79.5 40.2 76.25 40.3 69.85 40.5 66.85 40.5 61.85 40.5 53.8 42.05 47.6 43.25 45.05 43.75
M 127.4 33.5
Q 125.5 33 123.35 33 120.15 33 111.8 33.75 103.4 34.5 101.35 34.5 98.2 34.5 93.5 36 89.25 37.35 86.35 39 84.15 40.25 82.8 43
L 81.85 45.5 81.65 43.2
Q 81.6 42.7 81.5 42.3 81.3 42.85 81.05 43.5 80.1 45.9 79.95 47.5 79.55 50.95 80.4 54.2 81 56.55 82.8 60.5 82.95 59.35 83.45 58.05 83.7 57.3 84.3 55.8 85.15 53.4 86.2 48.95 86.65 46.95 87.2 45.95 87.95 44.5 89.35 43.6 90.85 42.7 94.15 43.15 96.85 43.55 98.2 41.5 99.7 44.3 101.35 45.65 103.85 43 105.4 42.9 107.45 42.7 108.4 46.45 109.3 46.25 111.35 43.9 114.9 39.85 115.25 39.5 120.5 34.1 123.25 38 124.55 34.95 127.4 33.5
M 137.25 32.8
L 134.85 34.5
Q 134.6 35.8 134.3 36.95 134.3 38.05 133.75 39.35 133.7 39.5 133.65 39.65 133.5 39.95 133.4 40.25 132.9 41.45 132.8 42 132.45 44.15 133.1 46.4 133.5 47.75 134.85 50.45 134.85 48.95 134.7 46.1 134.8 43.7 135.8 42.15 136.25 41.45 137.85 40.7 139.1 40.1 139.4 38.6 142 38.95 143.15 37.2 144.1 35.75 143.9 33.05
L 145.3 32.85
Q 144.85 32 143.1 30.05 141.9 28.7 141.5 27.45 141.05 28.9 140.35 30 139.75 30.95 137.25 32.8 Z"/>

<path fill="#8E7B60" stroke="none" d="
M 134.85 34.5
L 137.25 32.8
Q 139.75 30.95 140.35 30 141.05 28.9 141.5 27.45 141.6 26.95 141.7 26.45 140.35 30.4 132.55 31.3 129.4 31.65 124.6 31.55 118.7 31.45 118.5 31.45 105.2 32 104.7 32 96.65 32.65 91.4 34.65 86.75 36.6 84.75 37.25 81.5 38.3 77.35 38.45 63.25 38.85 43.75 41.55 37.25 42.45 28.35 39.05 17.4 34.95 13.65 34.5 9.55 34.1 6.7 33.4 11.45 36.35 15.85 37.5 16.4 37.65 17 37.8 20.7 38.75 27.25 40.3 33.3 41.95 34.85 43.5 37.35 46 38.35 49.5
L 38.45 49.25 39 46.95
Q 40.25 44.3 43.35 44 43.7 43.95 45.05 43.75 47.6 43.25 53.8 42.05 61.85 40.5 66.85 40.5 69.85 40.5 76.25 40.3 79.5 40.2 80.35 40.5 80.75 40.6 81.05 41.1 81.3 41.55 81.5 42.3 81.6 42.7 81.65 43.2
L 81.85 45.5 82.8 43
Q 84.15 40.25 86.35 39 89.25 37.35 93.5 36 98.2 34.5 101.35 34.5 103.4 34.5 111.8 33.75 120.15 33 123.35 33 125.5 33 127.4 33.5 128.8 33.85 130.1 34.5 131.6 35.25 132.35 36 133.35 38.5 133.35 40 133.35 40.2 133.4 40.25 133.5 39.95 133.65 39.65 133.8 39 134.1 37.8 134.2 37.4 134.3 36.95 134.6 35.8 134.85 34.5
M 27.35 22.5
Q 24.75 22.5 23.45 22.5 21.3 22.55 19.8 23 20.5 23.9 23.65 25.1 26.85 26.3 28.2 26.05 30.5 25.65 30.1 24.35 29.65 23.1 27.35 23
L 27.35 22.5
M 58 12.25
Q 57.5 10.9 55.3 10.1 54 9.65 51.1 9.75 48.15 9.9 46.85 9.5
L 48.85 9
Q 45.5 8.5 44.9 10.4 44.25 12.3 47.35 13.55 48.2 13.9 51.95 14.35 55.75 14.8 56.35 14.55 58.5 13.7 58 12.25
M 81.3 25
Q 84.75 27.6 86.95 28.05 88.9 28.45 89.4 28.2 90 27.9 90.3 26.05 90.95 22.6 86.55 20.6 85.15 19.95 79.35 18.5
L 77.85 20.5
Q 77.5 22.2 81.3 25
M 98.35 10.5
L 92.85 10.5
Q 89.5 10.3 87.6 10.3 84.25 10.3 82.95 11.45 84.3 11.45 87.3 12.65 90.1 13.75 91.7 13.55 93.05 13.35 95.1 12.4 97.05 11.5 98.35 10.5 Z"/>

<path fill="#7E6C54" stroke="none" d="
M 140.75 21.35
Q 140.3 20.95 137.55 19.45 134.85 17.95 134.05 16.75 133.2 15 132.1 13.3 129.1 8.65 119.5 6.7 108.45 5.15 104.25 4.1 99.95 3.05 95 3.2 90.35 3.3 88.5 3.1 86.1 2.8 82.75 1.4 79.25 -0.1 74.45 0 71.85 0 65.9 0.8
L 57.3 1.95
Q 49.35 2.15 41.85 5.45 39.1 6.65 28.4 12.75 24.8 14.75 17.5 17.6 10 20.5 6.75 22.25 3.15 24.25 2 25.25 -0.7 27.55 0.25 29.75 1.25 32.05 6.7 33.4 9.55 34.1 13.65 34.5 17.4 34.95 28.35 39.05 37.25 42.45 43.75 41.55 63.25 38.85 77.35 38.45 81.5 38.3 84.75 37.25 86.75 36.6 91.4 34.65 96.65 32.65 104.7 32 105.2 32 118.5 31.45 118.7 31.45 124.6 31.55 129.4 31.65 132.55 31.3 140.35 30.4 141.7 26.45 142.05 25.45 142 24.25 141.9 22.3 140.75 21.35
M 92.85 10.5
L 98.35 10.5
Q 97.05 11.5 95.1 12.4 93.05 13.35 91.7 13.55 90.1 13.75 87.3 12.65 84.3 11.45 82.95 11.45 84.25 10.3 87.6 10.3 89.5 10.3 92.85 10.5
M 86.95 28.05
Q 84.75 27.6 81.3 25 77.5 22.2 77.85 20.5
L 79.35 18.5
Q 85.15 19.95 86.55 20.6 90.95 22.6 90.3 26.05 90 27.9 89.4 28.2 88.9 28.45 86.95 28.05
M 55.3 10.1
Q 57.5 10.9 58 12.25 58.5 13.7 56.35 14.55 55.75 14.8 51.95 14.35 48.2 13.9 47.35 13.55 44.25 12.3 44.9 10.4 45.5 8.5 48.85 9
L 46.85 9.5
Q 48.15 9.9 51.1 9.75 54 9.65 55.3 10.1
M 23.45 22.5
Q 24.75 22.5 27.35 22.5
L 27.35 23
Q 29.65 23.1 30.1 24.35 30.5 25.65 28.2 26.05 26.85 26.3 23.65 25.1 20.5 23.9 19.8 23 21.3 22.55 23.45 22.5 Z"/>
</g>
</defs>

<g transform="matrix( 1, 0, 0, 1, 0,0) ">
<use xlink:href="#Layer0_0_FILL"/>
</g>
</svg>
