
<svg xmlns="http://www.w3.org/2000/svg" version="1.1" xmlns:xlink="http://www.w3.org/1999/xlink" preserveAspectRatio="none" x="0px" y="0px" width="269px" height="69px" viewBox="0 0 269 69">
<defs>
<g id="Layer0_0_FILL">
<path fill="#5E5140" stroke="none" d="
M 33.15 51.45
Q 31 51.65 27.3 50.8 29 52.25 33.1 54.25 37.4 56.2 37.65 56.45 38.25 56.85 37.95 56.35
L 38.95 57.45
Q 41.7 60.55 43.95 61.8 44.6 62.15 45.95 62.4 47.05 62.75 47.65 63.8
L 50.65 69.45 49.8 61.15 49.4 59.1 49.3 58.8
Q 48.15 55.8 47.65 52.45 47.4 51.15 47.7 50.3 47.65 49.8 47.15 49.7 46.05 49.55 41.95 50.15 34.6 51.35 33.15 51.45
M 131.95 62
L 131.95 62.05 131.95 62.25
Q 132.1158203125 62.96796875 132.6 63.1
L 132.1 61.1
Q 131.95 61.45 131.95 62
M 100.85 47.2
L 99.1 48.1
Q 93.55 50.95 89.1 51.15 85.7 51.3 82.6 52.1 79.7 52.8 74 52.8
L 71.75 52.75
Q 70.4 53.2 68.1 53.45 67.2 53.55 66.05 53.45 68.1 54.3 69.25 55.15 70.45 56.15 70.1 56.8 69.6 57.85 69.1 61.15
L 69.95 64.45
Q 72.55 61.2 73.95 59.8 74.25 59.5 75.15 57.4 75.75 56.05 77.3 55.8 79.75 55.45 84.65 55.45 85.15 55.45 85.15 55.75 85.35 55.8 87.65 54.8 89.2 54.1 90.65 53.25 91.55 52.8 93.65 52.45 96.75 51.95 97.85 51.4 99.35 50.65 100.3 48.8
L 100.85 47.2
M 126.55 39.15
Q 125.2 38.8 124.8 38.8 123.15 38.65 121.05 39.1
L 124.65 39.05
Q 125.45 39.05 126.55 39.15
M 207.55 28.1
L 205.3 28.1
Q 198.15 28.1 185 27.6 177.5 27.35 171.3 28.1 164.4 28.9 151.7 32.7 140.85 35.95 134.35 38.7 133.65 39.85 133 41.35
L 132.95 41.45
Q 132.35 43.05 132.6 43.75
L 133.3 44.8
Q 133.5 45.25 133.1 47.7 132.65 50.65 132.65 52.1
L 132.65 59.85
Q 133.55 58.35 134.95 56.8 143.25 47.45 145.45 45.8 145.9 45.45 146.45 43.25 146.648046875 42.4828125 147.35 42 148.055078125 41.5537109375 149.3 41.45 152.2 41.2 153.2 40.5
L 156.3 37.8
Q 158.35 36.1 163.75 33.45
L 168.65 31.1 171.05 30.8
Q 173.85 30.45 176.95 30.45
L 184.85 30.6
Q 189.55 30.7 190.95 30.45 191.95 30.3 193.85 29.75 195.15 29.5 195.95 30.1 197.3 31.05 199.65 31.45
L 201.3 31.95
Q 203.1 32.3 203.95 31.45 204.9 30.5 207.65 29.5 209.5 28.85 210.6 28.75 208.4 28.25 207.55 28.1
M 268.3 22.8
Q 269.258984375 22.8 269.3 22.55 269.3525390625 22.41640625 269.1 22.2 268.05 21.35 267.65 20.8
L 267.35 20.5 263.65 16.45
Q 262.95 15.65 262.55 15.3 262.55 15.65 262.45 15.8 263.65 18.35 257.65 18.8 252.7 19.2 243.2 22.5 233.4 26 228.45 26.45
L 226.3 26.7 226.2 37.8
Q 227.15 39.4 227.2 39.4 227.25 39.4 226.45 37.8 226 36.85 227.15 33.15 228.45 29.1 229.95 28.45 234.05 26.75 236.65 27.1 237.7 27.35 238.35 27.85 239.1 28.15 241.3 27.1 245.5 25.2 251.3 23.1 251.85 22.3 252.7 21.75 254.55 20.5 256.65 21.1
L 256.85 21.15
Q 258.271875 21.6 259.35 22.35 260.05 22.8 261.3 22.8
L 268.3 22.8 Z"/>

<path fill="#74644D" stroke="none" d="
M 23.1 40.8
Q 21.7 42.1 21.3 43.15 21.05 43.75 21.1 43.95
L 21.3 46.1 21.65 46.5 21.7 46.55 22.35 47.35
Q 23.95 48.55 26.65 48.1 28.15 47.9 30.35 47.1 31.55 46.7 33.6 46.95 37.3 47.5 38.65 47.1 33.95 46.45 33.65 45.45
L 33.35 44.15
Q 33.15 43.55 32.3 43.1 31.25 42.65 27.2 41.7
L 23.1 40.8
M 43.65 43.45
Q 45.2 43.85 46.3 44.8 47.45 45.8 48.95 46.1 52.1 46.8 56.8 46.45 53.95 43.45 52.65 43.45 52 43.45 51.25 43.3 50.6 43.1 49.65 43.1
L 43.65 43.45
M 57.95 30.1
Q 57.3 30.1 56.65 29.75
L 55.3 29.1 49.3 27.8 49 28.2
Q 48.95 28.75 49.95 29.1 51.25 29.6 56.45 32.45
L 58.95 33.8
Q 60.2 34.45 67.65 36.1
L 71.65 33.8 69.3 32.45 64.8 30.45
Q 65.3 30.1 62.95 30.1
L 57.95 30.1
M 42.3 30.8
Q 42.95 30.6 43.25 30.2 43.85 29.55 41.95 29.1 40.7 28.9 38.8 28.2 37.45 27.8 36.65 27.8
L 32.95 27.8 25.95 28.8
Q 27.35 29.5 28.65 30.8
L 26.8 33.15 35.95 33.1
Q 37.45 33.1 38.45 32.55 39.25 32.15 40.1 32.45 41.25 32.85 41.9 31.85
L 42.3 30.8
M 74.5 20.6
Q 75.4 19.35 73.95 19.1
L 72.3 19.25
Q 70.65 19.5 70.65 20.1 70.65 21.1 73.3 21.8 74.05 21.2 74.5 20.6
M 87.95 43.8
Q 86.8 43.4 86.8 43.55 86.8 43.65 85.65 43.1 85.1 42.9 80.15 41.7 75.8 40.7 74.65 39.8 73.95 39.25 73.05 40.5 72.65 41.05 72.3 41.8
L 72.65 42.7
Q 73.25 43.75 73.95 44.1 76.05 45.25 77 45.85 79.3 47 80.3 46.8 80.55 46.75 81.45 46.3 81.85 46.1 83.65 46.1
L 89.65 46.1 91.7 46.5
Q 92.85 46.75 91.95 46.1
L 90.35 44.8
Q 89.4 44.15 87.95 43.8
M 87 35.35
Q 87.85 35.8 88.65 35.8
L 91.3 35.8 90.3 34.1 83.65 32.45 84.3 33.2
Q 85.15 34.15 85.65 34.45
L 87 35.35
M 98.3 5.1
Q 96.95 4.4 96.7 5.45 96.45 6.45 97.95 6.45 99.25 6.45 99.1 5.9 99 5.5 98.3 5.1
M 105.3 23.45
Q 103.95 23.45 102.05 23.8
L 100.3 24.1 99.95 25.3
Q 99.95 26.6 101.65 26.8 102.9 26.95 103.35 27.2 103.55 27.3 104.3 27.1 105.5 26.9 105.95 25.15 106.3 23.45 105.3 23.45
M 108.95 11.45
Q 108.6 10.95 107.65 10.4 106 9.35 103.65 9.1 101.05 8.9 100.5 8.9 99 9 99.65 9.8 100.3 10.65 101.5 11.3 102.45 11.8 103.3 11.8 104.6 11.8 108.95 11.45
M 126.95 22.45
L 122.45 19.15 120.95 19.45 121.6 21.35
Q 122.4 23.3 123.3 23.8
L 127.65 26.1 128.95 27.75
Q 130.15 29.65 129.95 30.45 129.65 31.8 129.65 33.1
L 131.85 33.35
Q 134.1 33.35 134.3 32.1 134.45 31.3 135.2 29.55 135.8 28.2 135.65 27.45 135.3 25.95 134.85 25.2 134 23.9 132.3 23.45
L 126.95 22.45
M 133.3 2.8
L 131.8 4.15 135.65 5.8
Q 134.7 3.1 133.3 2.8
M 165.3 21.45
Q 165.3 23.25 165.1 24.45
L 169.3 23.8
Q 170.6 23.45 172.95 22.45
L 168.95 19.8 161.3 18.1 163.9 19.65
Q 165.3 20.45 165.3 21.45
M 185.85 7.2
Q 186.4 8.1 186.65 9.45 186.95 11.45 186.8 12.8
L 187.7 12.9
Q 188.8 13 189.3 12.8 190.35 12.4 191.65 11.1
L 192.1 9.8 189.65 8.45
Q 185.85 7.15 185.4 6.55
L 185.85 7.2
M 210.65 16.45
L 211.9 17.3
Q 213.3 18.2 214.65 18.45
L 216.85 18.85
Q 217.6 18.9 218.3 18.45 219 18 218.4 17.2 217.9 16.45 217.3 16.45
L 210.65 16.45
M 220.3 10.95
L 219.3 10.45 211.95 7.8
Q 210.45 8.4 206.3 8.8
L 206.95 9.5
Q 207.65 10.2 208.3 10.45
L 215.3 12.8 216.25 13.5
Q 217.55 14.1 218.95 13.45 220.1 12.95 221 13.1 221.3 13.2 221.3 12.45 221.3 11.65 220.3 10.95
M 245.9 14.8
Q 245 15.1 244.3 15.1 244.3 15.8 240.95 16.45 251.55 16.8 253.3 16.1 254.8 15.5 260.65 14.1
L 257.95 14.45
Q 257.5 14.45 255.85 13.65 254.15 12.8 253.3 12.8
L 249.3 12.8
Q 249.95 14.4 248.65 14.8 248.15 14.9 245.95 14.8
L 245.9 14.8 Z"/>

<path fill="#7E6C54" stroke="none" d="
M 147.35 42
Q 146.648046875 42.4828125 146.45 43.25 145.9 45.45 145.45 45.8 143.25 47.45 134.95 56.8 133.55 58.35 132.65 59.85
L 132.65 62.95 133 62.95 133 59.85
Q 133 59.3 133.7 58.45 134.1 57.95 135.1 56.8 143.6 47.2 145.55 45.8 145.95 45.45 146.5 43.25 146.692578125 42.4798828125 147.35 42
M 262.45 15.8
Q 262.55 15.65 262.55 15.3 262.55 15 262.4 14.7 261.55 12.9 258 11.45 254.15 9.9 251.5 9 245.95 7.25 240 6.1 233.7 4.8 226.25 2.35
L 220 0.1
Q 200.45 0.1 188 0.8 176.45 1.45 154.65 1.45
L 133.65 0.55
Q 115.75 -0.25 106.65 0.1 95.75 0.65 74.45 7.35 54.9 13.6 41.3 20.1 33.25 23.95 21.3 26.85 12.4 29.05 9.3 32.1
L 4.85 35.8
Q 2.4 37.8 2 39.45 1.4986328125 41.4138671875 0.5 44.6
L 0.3 45.25
Q 0.1791015625 45.6578125 0.05 46.05
L 0 46.1 17.1 44.45 21.65 46.5 21.3 46.1 21.1 43.95
Q 21.05 43.75 21.3 43.15 21.7 42.1 23.1 40.8
L 27.2 41.7
Q 31.25 42.65 32.3 43.1 33.15 43.55 33.35 44.15
L 33.65 45.45
Q 33.95 46.45 38.65 47.1 37.3 47.5 33.6 46.95 31.55 46.7 30.35 47.1 28.15 47.9 26.65 48.1 30.25 49 32.5 48.8 34.35 48.65 41.3 47.45 46.65 46.7 46.95 47.3
L 47.1 47.8
Q 47.4 48.1 48.65 48.1 49.6 48.1 58.5 49.1 67.35 50.1 73.3 50.1 79.05 50.1 81.95 49.4 85.05 48.6 88.45 48.45 93.3 48.25 100.65 45.45 105.1 43.8 118.1 38.45 126.65 35.25 128.6 36.5 129.15 36.8 129.65 37.4 130.3 37.6 132 36.8 135.75 34.85 151.05 31.3 165.9 27.8 174.45 26.8 183.55 25.8 186.25 25.65 189.7 25.45 204.65 25.45 216.85 25.45 220.05 25
L 227.8 23.8
Q 232.55 23.25 242.75 20.5 252.4 17.85 257.3 17.45 261.8 17.1 262.45 15.8
M 243.3 10.8
Q 244.05 10.8 246.95 11.8 247.95 12.1 247.3 14.1 246.45 14.65 245.9 14.8
L 245.95 14.8
Q 248.15 14.9 248.65 14.8 249.95 14.4 249.3 12.8
L 253.3 12.8
Q 254.15 12.8 255.85 13.65 257.5 14.45 257.95 14.45
L 260.65 14.1
Q 254.8 15.5 253.3 16.1 251.55 16.8 240.95 16.45 244.3 15.8 244.3 15.1 240.3 15.1 237.95 16.45
L 235.65 17.8
Q 234.5 18.5 233.75 18.4 231.35 18.3 227.65 18.8 230.15 16.25 234.3 13.8
L 237.65 11.8
Q 238.35 11.35 240.5 11.05 242.4 10.8 243.3 10.8
M 226.3 7.1
Q 225.35 7.5 223.3 6.8 219.95 5.85 219.95 4.45 219.95 3.8 220.35 3.95 221.55 4.45 223.3 4.45
L 229.65 6.45
Q 227.05 6.85 226.3 7.1
M 219.3 10.45
L 220.3 10.95
Q 221.3 11.65 221.3 12.45 221.3 13.2 221 13.1 220.1 12.95 218.95 13.45 217.55 14.1 216.25 13.5
L 215.3 12.8 208.3 10.45
Q 207.65 10.2 206.95 9.5
L 206.3 8.8
Q 210.45 8.4 211.95 7.8
L 219.3 10.45
M 211.9 17.3
L 210.65 16.45 217.3 16.45
Q 217.9 16.45 218.4 17.2 219 18 218.3 18.45 217.6 18.9 216.85 18.85
L 214.65 18.45
Q 213.3 18.2 211.9 17.3
M 184.1 7.8
Q 185.25 8.5 184.65 10.1
L 184.95 12.45 179.3 12.1 177.3 10.8
Q 178.3 9.1 179.3 8.1 181.35 6.1 184.1 7.8
M 186.65 9.45
Q 186.4 8.1 185.85 7.2
L 185.4 6.55
Q 185.85 7.15 189.65 8.45
L 192.1 9.8 191.65 11.1
Q 190.35 12.4 189.3 12.8 188.8 13 187.7 12.9
L 186.8 12.8
Q 186.95 11.45 186.65 9.45
M 165.1 24.45
Q 165.3 23.25 165.3 21.45 165.3 20.45 163.9 19.65
L 161.3 18.1 168.95 19.8 172.95 22.45
Q 170.6 23.45 169.3 23.8
L 165.1 24.45
M 161.8 22.15
L 159.3 23.1
Q 155.45 20.85 153.45 20.45 152.35 20.25 152.7 19.5
L 153.3 18.8 154.9 18.45
Q 156.75 18.15 157.95 18.45 159.55 18.8 161.8 20.5 162.75 21.2 163.65 22.1
L 161.8 22.15
M 131.8 4.15
L 133.3 2.8
Q 134.7 3.1 135.65 5.8
L 131.8 4.15 130.3 5.8 126.65 4.8
Q 126.75 4.4 127.2 3.8 128 2.9 129.1 2.95
L 131.8 4.15
M 122.45 19.15
L 126.95 22.45 132.3 23.45
Q 134 23.9 134.85 25.2 135.3 25.95 135.65 27.45 135.8 28.2 135.2 29.55 134.45 31.3 134.3 32.1 134.1 33.35 131.85 33.35
L 129.65 33.1
Q 129.65 31.8 129.95 30.45 130.15 29.65 128.95 27.75
L 127.65 26.1 123.3 23.8
Q 122.4 23.3 121.6 21.35
L 120.95 19.45 122.45 19.15
M 121.5 28.8
Q 122.15 28.95 121.95 28.45 121.8 27.95 119.95 26.4 117.8 24.65 116.8 23.15 115.7 21.65 114.05 21.4
L 111.95 21.1
Q 111 20.45 108.65 20.45 107.7 20.45 106.35 20.05 105.15 19.7 104.3 19.1 103.7 18.7 101.25 18.2
L 98.95 17.8 110.3 17.8 113.9 18.75
Q 117.6 19.9 117.95 20.45 118.35 21 119.8 22.45 121.3 23.95 121.65 24.45 122.45 25.75 125.95 28.45 127.3 29.45 128.45 33.45
L 122.3 29.45
Q 121.35 28.8 121.5 28.8
M 107.65 10.4
Q 108.6 10.95 108.95 11.45 104.6 11.8 103.3 11.8 102.45 11.8 101.5 11.3 100.3 10.65 99.65 9.8 99 9 100.5 8.9 101.05 8.9 103.65 9.1 106 9.35 107.65 10.4
M 102.05 23.8
Q 103.95 23.45 105.3 23.45 106.3 23.45 105.95 25.15 105.5 26.9 104.3 27.1 103.55 27.3 103.35 27.2 102.9 26.95 101.65 26.8 99.95 26.6 99.95 25.3
L 100.3 24.1 102.05 23.8
M 96.7 5.45
Q 96.95 4.4 98.3 5.1 99 5.5 99.1 5.9 99.25 6.45 97.95 6.45 96.45 6.45 96.7 5.45
M 88.65 35.8
Q 87.85 35.8 87 35.35
L 85.65 34.45
Q 85.15 34.15 84.3 33.2
L 83.65 32.45 90.3 34.1 91.3 35.8 88.65 35.8
M 86.65 37.45
L 84.3 37.45 79.95 36.45 77.95 35.1
Q 78.25 34.7 78.65 34.35 79.55 33.5 81.3 32.8
L 86.65 37.45
M 86.8 43.55
Q 86.8 43.4 87.95 43.8 89.4 44.15 90.35 44.8
L 91.95 46.1
Q 92.85 46.75 91.7 46.5
L 89.65 46.1 83.65 46.1
Q 81.85 46.1 81.45 46.3 80.55 46.75 80.3 46.8 79.3 47 77 45.85 76.05 45.25 73.95 44.1 73.25 43.75 72.65 42.7
L 72.3 41.8
Q 72.65 41.05 73.05 40.5 73.95 39.25 74.65 39.8 75.8 40.7 80.15 41.7 85.1 42.9 85.65 43.1 86.8 43.65 86.8 43.55
M 73.95 19.1
Q 75.4 19.35 74.5 20.6 74.05 21.2 73.3 21.8 70.65 21.1 70.65 20.1 70.65 19.5 72.3 19.25
L 73.95 19.1
M 54.95 34.8
L 51.3 34.45
Q 47.05 32.85 45.3 31.8 44.3 31.2 43.8 31.15 43.2 31.1 42.3 30.8
L 41.9 31.85
Q 41.25 32.85 40.1 32.45 39.25 32.15 38.45 32.55 37.45 33.1 35.95 33.1
L 26.8 33.15 28.65 30.8
Q 27.35 29.5 25.95 28.8
L 32.95 27.8 36.65 27.8
Q 37.45 27.8 38.8 28.2 40.7 28.9 41.95 29.1
L 43.05 28.4
Q 44.35 27.7 45.65 27.45
L 54.95 34.8
M 56.65 29.75
Q 57.3 30.1 57.95 30.1
L 62.95 30.1
Q 65.3 30.1 64.8 30.45
L 69.3 32.45 71.65 33.8 67.65 36.1
Q 60.2 34.45 58.95 33.8
L 56.45 32.45
Q 51.25 29.6 49.95 29.1 48.95 28.75 49 28.2
L 49.3 27.8 55.3 29.1 56.65 29.75
M 46.3 44.8
Q 45.2 43.85 43.65 43.45
L 49.65 43.1
Q 50.6 43.1 51.25 43.3 52 43.45 52.65 43.45 53.95 43.45 56.8 46.45 52.1 46.8 48.95 46.1 47.45 45.8 46.3 44.8
M 17.65 32.45
Q 16.8 32.45 15.95 32 14.95 31.45 14.95 30.8 14.95 30.15 17.35 29.75 19.15 29.45 20.95 29.45 22.7 32.45 21.3 32.45
L 17.65 32.45
M 267.35 20.5
Q 266.6931640625 19.6642578125 265.4 18.25
L 263.65 16.45 267.35 20.5
M 269.3 22.55
Q 269.258984375 22.8 268.3 22.8
L 261.3 22.8
Q 260.05 22.8 259.35 22.35 258.271875 21.6 256.85 21.15 258.0525390625 21.56953125 259.35 22.45 260.1 22.95 261.3 22.95
L 268.3 22.95
Q 269.50859375 22.95 269.3 22.55 Z"/>

<path fill="#8E7B60" stroke="none" d="
M 257.65 18.8
Q 263.65 18.35 262.45 15.8 261.8 17.1 257.3 17.45 252.4 17.85 242.75 20.5 232.55 23.25 227.8 23.8
L 220.05 25
Q 216.85 25.45 204.65 25.45 189.7 25.45 186.25 25.65 183.55 25.8 174.45 26.8 165.9 27.8 151.05 31.3 135.75 34.85 132 36.8 130.3 37.6 129.65 37.4 129.15 36.8 128.6 36.5 126.65 35.25 118.1 38.45 105.1 43.8 100.65 45.45 93.3 48.25 88.45 48.45 85.05 48.6 81.95 49.4 79.05 50.1 73.3 50.1 67.35 50.1 58.5 49.1 49.6 48.1 48.65 48.1 47.4 48.1 47.1 47.8
L 46.95 47.3
Q 46.65 46.7 41.3 47.45 34.35 48.65 32.5 48.8 30.25 49 26.65 48.1 23.95 48.55 22.35 47.35
L 21.7 46.55 21.65 46.5 17.1 44.45 0 46.1 17.8 47.15 20.55 48.45
Q 24.15 50 27.3 50.8 31 51.65 33.15 51.45 34.6 51.35 41.95 50.15 46.05 49.55 47.15 49.7 47.65 49.8 47.7 50.3 47.4 51.15 47.65 52.45 48.15 55.8 49.3 58.8
L 49.4 59.1
Q 50.1 61.1 50.65 63.8
L 50.45 54.8
Q 50.55 54.3 50.75 53.75 51.25 52.7 52.3 52.45
L 54.4 52.05
Q 55.55 51.9 56.95 52.1
L 61.95 53.05
Q 64.45 53.45 66.05 53.45 67.2 53.55 68.1 53.45 70.4 53.2 71.75 52.75
L 74 52.8
Q 79.7 52.8 82.6 52.1 85.7 51.3 89.1 51.15 93.55 50.95 99.1 48.1
L 100.85 47.2
Q 109.3 43 114.3 41.1 118 39.65 121.05 39.1 123.15 38.65 124.8 38.8 125.2 38.8 126.55 39.15 128.75 39.35 129.15 39.9
L 129.3 40.45
Q 129.65 42.35 129.65 44.45
L 129.4 50.15
Q 129.25 51.2 129.65 52.45 129.9 53.4 129.85 53.9 129.75 54.35 130.45 55.8 131.15 57.25 132 60.8
L 132.1 61.1 132.6 63.1 132.65 63.1 132.65 62.95 132.65 59.85 132.65 52.1
Q 132.65 50.65 133.1 47.7 133.5 45.25 133.3 44.8
L 132.6 43.75
Q 132.35 43.05 132.95 41.45
L 133 41.35
Q 133.65 39.85 134.35 38.7 140.85 35.95 151.7 32.7 164.4 28.9 171.3 28.1 177.5 27.35 185 27.6 198.15 28.1 205.3 28.1
L 207.55 28.1
Q 208.4 28.25 210.6 28.75 212.45 29.2 215 30.15 219 31.65 219.95 32.8 220.55 33.55 222.05 34.45 223.3 35.2 223.65 36.1
L 224.3 38.05
Q 224.5 38.7 224.95 39.45
L 225.65 40.45
Q 226.05 39 226.2 37.8
L 226.3 26.7 228.45 26.45
Q 233.4 26 243.2 22.5 252.7 19.2 257.65 18.8
M 15.95 32
Q 16.8 32.45 17.65 32.45
L 21.3 32.45
Q 22.7 32.45 20.95 29.45 19.15 29.45 17.35 29.75 14.95 30.15 14.95 30.8 14.95 31.45 15.95 32
M 51.3 34.45
L 54.95 34.8 45.65 27.45
Q 44.35 27.7 43.05 28.4
L 41.95 29.1
Q 43.85 29.55 43.25 30.2 42.95 30.6 42.3 30.8 43.2 31.1 43.8 31.15 44.3 31.2 45.3 31.8 47.05 32.85 51.3 34.45
M 84.3 37.45
L 86.65 37.45 81.3 32.8
Q 79.55 33.5 78.65 34.35 78.25 34.7 77.95 35.1
L 79.95 36.45 84.3 37.45
M 121.95 28.45
Q 122.15 28.95 121.5 28.8 121.35 28.8 122.3 29.45
L 128.45 33.45
Q 127.3 29.45 125.95 28.45 122.45 25.75 121.65 24.45 121.3 23.95 119.8 22.45 118.35 21 117.95 20.45 117.6 19.9 113.9 18.75
L 110.3 17.8 98.95 17.8 101.25 18.2
Q 103.7 18.7 104.3 19.1 105.15 19.7 106.35 20.05 107.7 20.45 108.65 20.45 111 20.45 111.95 21.1
L 114.05 21.4
Q 115.7 21.65 116.8 23.15 117.8 24.65 119.95 26.4 121.8 27.95 121.95 28.45
M 126.65 4.8
L 130.3 5.8 131.8 4.15 129.1 2.95
Q 128 2.9 127.2 3.8 126.75 4.4 126.65 4.8
M 159.3 23.1
L 161.8 22.15 163.65 22.1
Q 162.75 21.2 161.8 20.5 159.55 18.8 157.95 18.45 156.75 18.15 154.9 18.45
L 153.3 18.8 152.7 19.5
Q 152.35 20.25 153.45 20.45 155.45 20.85 159.3 23.1
M 184.65 10.1
Q 185.25 8.5 184.1 7.8 181.35 6.1 179.3 8.1 178.3 9.1 177.3 10.8
L 179.3 12.1 184.95 12.45 184.65 10.1
M 223.3 6.8
Q 225.35 7.5 226.3 7.1 227.05 6.85 229.65 6.45
L 223.3 4.45
Q 221.55 4.45 220.35 3.95 219.95 3.8 219.95 4.45 219.95 5.85 223.3 6.8
M 246.95 11.8
Q 244.05 10.8 243.3 10.8 242.4 10.8 240.5 11.05 238.35 11.35 237.65 11.8
L 234.3 13.8
Q 230.15 16.25 227.65 18.8 231.35 18.3 233.75 18.4 234.5 18.5 235.65 17.8
L 237.95 16.45
Q 240.3 15.1 244.3 15.1 245 15.1 245.9 14.8 246.45 14.65 247.3 14.1 247.95 12.1 246.95 11.8 Z"/>
</g>
</defs>

<g transform="matrix( 1, 0, 0, 1, 0,0) ">
<use xlink:href="#Layer0_0_FILL"/>
</g>
</svg>
