<?xml version="1.0" encoding="utf-8"?>
<!-- Generator: Adobe Illustrator 20.1.0, SVG Export Plug-In . SVG Version: 6.00 Build 0)  -->
<svg version="1.1" id="Layer_1" xmlns="http://www.w3.org/2000/svg" xmlns:xlink="http://www.w3.org/1999/xlink" x="0px" y="0px"
	 viewBox="0 0 81 43.4" style="enable-background:new 0 0 81 43.4;" xml:space="preserve">
<style type="text/css">
	.st0{fill:url(#SVGID_1_);}
	.st1{fill:url(#SVGID_2_);}
	.st2{opacity:0.5;}
	.st3{fill:#633A1E;}
	.st4{fill:#4D260C;}
	.st5{fill:#915A27;}
	.st6{fill:#B67F38;}
</style>
<radialGradient id="SVGID_1_" cx="-15" cy="770.7749" r="11.9" gradientTransform="matrix(1 0 0 0.4527 29 -311.8038)" gradientUnits="userSpaceOnUse">
	<stop  offset="0" style="stop-color:#000000"/>
	<stop  offset="1" style="stop-color:#000000;stop-opacity:0"/>
</radialGradient>
<path class="st0" d="M28,37.1c0-1.8-1.4-3.3-4.1-4.5c-2.7-1.2-6-1.8-9.9-1.8s-7.2,0.6-9.9,1.8C1.4,33.9,0,35.4,0,37.1
	s1.4,3.2,4.1,4.5s6,1.8,9.9,1.8s7.2-0.6,9.9-1.8S28,38.9,28,37.1z"/>
<radialGradient id="SVGID_2_" cx="-15" cy="770.7749" r="11.9" gradientTransform="matrix(1 0 0 0.4527 82 -311.8038)" gradientUnits="userSpaceOnUse">
	<stop  offset="0" style="stop-color:#000000"/>
	<stop  offset="1" style="stop-color:#000000;stop-opacity:0"/>
</radialGradient>
<path class="st1" d="M81,37.1c0-1.8-1.4-3.3-4.1-4.5c-2.7-1.2-6-1.8-9.9-1.8s-7.2,0.6-9.9,1.8c-2.7,1.2-4.1,2.7-4.1,4.5
	c0,1.7,1.4,3.2,4.1,4.5s6,1.8,9.9,1.8s7.2-0.6,9.9-1.8C79.6,40.4,81,38.9,81,37.1z"/>
<path class="st2" d="M21.3,35.9c0.1-0.2,0.1-0.4,0.1-0.5c0-0.2-0.4-0.4-1.2-0.5c-0.1,0-1.4-0.2-3.8-0.6c-3.2-0.3-5-0.4-5.4-0.5
	c-0.7-0.1-1.5,0.1-2.2,0.5c-0.8,0.6-1.4,0.9-1.7,1c-0.2,0.1-0.5,0.2-0.7,0.3C6.3,35.8,6.3,36,6.4,36c0.3,0.3,0.2,0.5-0.4,0.3
	c-0.4-0.1-0.7,0-0.9,0.2c-0.3,0.2-0.4,0.5-0.2,0.8c0.1,0.3,0.2,0.4,0.3,0.3c0.3-0.1,0.6-0.1,0.8,0c0.3,0.1,0.6,0.1,0.9,0
	c0.2-0.1,0.5,0,0.8,0.2c0.2,0.1,0.5,0.4,0.8,0.9c0.2,0.3,0.5,0.5,0.8,0.5c0.4,0,1,0.1,1.7,0.2c0.1,0,0.3,0,0.7,0.1
	c0.3,0.1,0.6,0.2,0.8,0.2c0.4,0,0.9,0.1,1.6,0.2c0.2,0,0.3,0,0.5,0c0.1,0,0.4,0,0.9,0c1,0,1.9-0.2,2.6-0.5c0.2-0.1,0.5-0.2,0.8-0.3
	c0.2-0.1,0.4-0.2,0.5-0.3c0.1-0.1,0.6-0.3,1.4-0.5l1.1-0.2c0.6-0.2,0.8-0.4,0.6-0.6c-0.2-0.1-0.4-0.2-0.4-0.3
	c-0.1-0.1,0.1-0.1,0.4-0.2l0.9-0.2c0.1-0.3-0.1-0.5-0.6-0.6C21.9,36.2,21.4,36.1,21.3,35.9z"/>
<path class="st2" d="M74.4,36.6c0.7-0.1,0.8-0.2,0.3-0.3c-1.1-0.3-1.8-0.4-2.2-0.5c-0.3,0-1.3,0-3.1,0l-7.6-0.2
	c-0.5,0-0.9,0.2-1,0.5l-0.4,0.2c-0.2,0.3-0.5,0.4-0.7,0.4c-0.4,0-0.8,0-1,0.1c-0.4,0.1-0.6,0.2-0.5,0.4c0.1,0.3,0.4,0.5,1,0.5h1v0.2
	c0,0.2,0.1,0.3,0.2,0.4c0.2,0.1,0.4,0.1,0.6,0.1l-1,0.2c0,0.2,0.2,0.4,0.7,0.4h2.2l1.1,0.5c0.9,0.3,1.7,0.5,2.5,0.5h1.5
	c0.1,0,0.4,0,0.8-0.1c0.3,0,0.5,0,0.6,0.1c0.1,0.1,0.3,0.2,0.7,0.3c0.4,0,0.7,0,0.9,0l1-0.5c-0.1,0-0.2-0.1-0.2-0.1
	c-0.1-0.1,0.1-0.2,0.5-0.3c0.2-0.1,0.5-0.2,0.8-0.4c0.2-0.1,0.5-0.2,1-0.2s0.7-0.2,0.7-0.5c0-0.3,0.1-0.5,0.3-0.5c0.6,0,1,0,1.2-0.1
	c0.2-0.2,0.1-0.3-0.2-0.5L74.4,36.6z"/>
<g transform="matrix( 1, 0, 0, 1, 15,0) ">
	<g>
		<g id="Layer0_1_FILL">
			<path class="st3" d="M-5.6,0c-0.1,6.4-0.1,10.6-0.1,12.6c0.1,2.3,0,5.8-0.2,10.5c-0.3,5.2-0.4,8-0.4,8.4c0,2.1,0,3.7,0,4.8
				l0.8,1.4c1,0.9,2.5,1.4,4.6,1.4c2.1,0.1,3.8-0.3,4.9-1.2l1.1-1.4c-0.4-3.8-0.4-8.8-0.1-15c0.1-2.8,0.2-10,0.1-21.5H-5.6z"/>
		</g>
	</g>
</g>
<g transform="matrix( 1, 0, 0, 1, 15,0) ">
	<g>
		<g id="Layer0_2_FILL">
			<path class="st3" d="M47.1,0c-0.3,7.6-0.5,12.4-0.3,14.6c0,1.2,0,3.1-0.2,5.9c-0.1,2.8-0.2,4.4-0.2,5v11.1l0.9,1.2
				c1,0.8,2.6,1.2,4.8,1.3c2.2,0.1,3.8-0.3,4.9-1.2c0.5-0.4,0.8-0.9,0.9-1.3c-0.3-7.1-0.3-11.8-0.2-14.2c0.1-2.4,0.2-9.9,0.2-22.4
				H47.1z"/>
		</g>
	</g>
</g>
<g transform="matrix( 1, 0, 0, 1, 0,0) ">
	<g>
		<g id="Layer0_3_FILL">
			<path class="st4" d="M20.1,0h-4l-0.2,8.9c-0.1,2.6,0.1,8.6,0.6,17.8c0.3,5.2,0.3,8.8,0,10.8c-0.1,0.8-0.2,1.2-0.3,1.3
				c1.2,0,2.3-0.5,3.1-1.3l0.9-1.2c0.1-8.4,0.1-13.9,0-16.7C20.1,17,20.1,10.4,20.1,0z"/>
		</g>
	</g>
</g>
<g transform="matrix( 1, 0, 0, 1, 15,0) ">
	<g>
		<g id="Layer0_4_FILL">
			<path class="st4" d="M53.7,0C54,5.1,54.1,9.1,54,11.8c-0.1,2.8,0,6.8,0.2,12.2c0,2-0.2,7-0.6,15c1.4,0,2.5-0.4,3.3-1.2
				c0.4-0.4,0.7-0.8,0.8-1.2c-0.1-2.7-0.2-6.8-0.2-12.4V0H53.7z"/>
		</g>
	</g>
</g>
<g transform="matrix( 1, 0, 0, 1, 15,0) ">
	<g>
		<g id="Layer0_5_FILL">
			<path class="st5" d="M-2.8,17.2C-2.6,12.7-2.5,6.9-2.4,0h-3.8C-6,5.9-6,10.1-6.1,12.6c0,1.1,0,1.6,0,1.5c0-0.1,0,0.9-0.1,3
				c-0.1,3.8-0.1,10.2,0,19.3l0.5,0.8c0.5,0.6,1.3,1.1,2.2,1.4C-3.2,29.9-3,22.8-2.8,17.2z"/>
		</g>
	</g>
</g>
<g transform="matrix( 1, 0, 0, 1, 15,0) ">
	<g>
		<g id="Layer0_6_FILL">
			<path class="st5" d="M50.2,0h-3.8c0.1,1.6,0.1,3.9,0,6.7c0,0.3,0,1.9,0,4.8c0,2.6,0,4.6-0.1,6.1c-0.1,2.6-0.2,9-0.2,19.1l0.8,1
				c0.8,0.7,1.9,1.1,3.2,1.2c-0.3-1.5-0.4-5-0.3-10.4C50,20.3,50.2,10.8,50.2,0z"/>
		</g>
	</g>
</g>
<g transform="matrix( 1, 0, 0, 1, 15,0) ">
	<g>
		<g id="Layer0_7_MEMBER_0_FILL">
			<path class="st4" d="M47.2,13.9l-0.9,2.6l0.9,1.4c0.8,1,1.5,1.7,2.2,2.2c1.2,0.7,2.2,1.1,3,1.2c0.3-1.5,0.4-2.5,0.4-3.1
				c0-0.6,0.1-1,0.1-1.4c0-0.5-0.1-0.9-0.2-1.2c-0.2-0.3-0.5-1-1-2.1L51.1,12L47.2,13.9z"/>
		</g>
	</g>
</g>
<g transform="matrix( 1, 0, 0, 1, 15,0) ">
	<g>
		<g id="Layer0_7_MEMBER_1_FILL">
			<path class="st3" d="M51.3,17.4L51.1,12l-6.8-1l-31.2-0.6l-13,1.7L0,13.3c0,0.8,0,1.5,0.1,1.9c0.1,0.8,0.2,1.4,0.4,2
				c2.4,0.1,5.7,0.1,10,0.1c4.3,0,12.9,0,25.8,0.1C39.9,17.5,44.9,17.5,51.3,17.4z"/>
		</g>
	</g>
</g>
<g transform="matrix( 1, 0, 0, 1, 15,0) ">
	<g>
		<g id="Layer0_7_MEMBER_2_FILL">
			<path class="st4" d="M51.3,17.4L51.1,12l-6.8-1l-20.7-0.4L20.2,12c6.1,0.8,10.3,1.1,12.5,1.1c6.2,0,10.3,0.1,12.3,0.4
				c1.6,0.2,2.3,0.5,2.2,1c-0.1,0.3-1.6,0.5-4.6,0.7c-0.8,0-1.3,0.1-1.4,0.1c-0.1,0.1,0,0.2,0.2,0.4c0.2,0.2,0,0.4-0.8,0.6
				c-1,0.2-2.7,0.3-5,0.2c-2.2,0-5.2,0-9.1,0.1c-4.5,0.1-6.8,0.1-7,0.1c-1.1,0-1.8-0.1-2.1-0.3L17.3,16H11c-4,0-5.9,0-5.8,0.1
				L8,16.8c-4.2,0.1-6.5,0.1-7.1-0.2c-0.3-0.2-0.6-0.4-0.8-0.7l0.3,1.4c2.4,0.1,5.7,0.1,10,0.1c4.3,0,12.9,0,25.8,0.1
				C39.9,17.5,44.9,17.5,51.3,17.4z"/>
		</g>
	</g>
</g>
<g transform="matrix( 1, 0, 0, 1, 15,0) ">
	<g>
		<g id="Layer0_7_MEMBER_3_FILL">
			<path class="st5" d="M47.3,9.6l-0.9-0.9H5.2c-0.5,0.8-1.3,1.5-2.2,2l-2.9,1.4c15.2,0,26.1,0,32.5,0.1c4.1,0.1,7.7,0,10.7-0.1
				c3.2-0.1,5.8-0.1,7.8-0.1C49.9,11.6,48.7,10.8,47.3,9.6z"/>
		</g>
	</g>
</g>
<g transform="matrix( 1, 0, 0, 1, 0,0) ">
	<g>
		<g id="Layer0_7_MEMBER_4_FILL">
			<path class="st6" d="M57.2,11.2L51.7,11c-1.8,0-3.6-0.1-5.5-0.4c-1.2-0.1-2.3-0.2-3.5-0.2c-1.7,0-3.4,0-5-0.1
				c-1.8-0.1-3.4,0-4.9,0.2c-1.8,0.2-3.4,0.4-4.8,0.4c-2,0-3.8,0-5.3-0.1c-1.1-0.2-1.7-0.2-1.8-0.2s-0.2,0.1-0.2,0.2
				c0,0.1-0.1,0.2-0.1,0.2l0.6,0.3l3.4,0.2c2.5,0.1,4.4,0,5.7-0.2c2.5-0.4,5.3-0.5,8.5-0.3c0.9,0,2.1,0.1,3.8,0.1c1.5,0,2.8,0,4,0.1
				c2.2,0.2,3.5,0.2,4,0.2h2.8C54.9,11.4,56.2,11.3,57.2,11.2z"/>
		</g>
	</g>
</g>
<g transform="matrix( 1, 0, 0, 1, 0,0) ">
	<g>
		<g id="Layer0_7_MEMBER_5_FILL">
			<path class="st6" d="M25.7,9.6C32,9.6,36,9.5,37.7,9.6l10,0.1c-6-0.3-10.9-0.5-14.5-0.6l-13-0.3l0.1,0.8
				C19.7,9.7,21.5,9.7,25.7,9.6z"/>
		</g>
	</g>
</g>
<g transform="matrix( 1, 0, 0, 1, 15,0) ">
	<g>
		<g id="Layer0_7_MEMBER_6_FILL">
			<path class="st4" d="M0.1,12.1h11.8C10.9,12,10,11.7,9,11.2c-1-0.6-1.8-1-2.2-1.2C6.1,9.6,5.5,9.2,5.2,8.8
				c-0.5,0.8-1.3,1.5-2.2,2L0.1,12.1z"/>
		</g>
	</g>
</g>
<g transform="matrix( 1, 0, 0, 1, 15,0) ">
	<g>
		<g id="Layer0_7_MEMBER_7_FILL">
			<path class="st6" d="M43.9,9.9c-1-0.2-2-0.2-3-0.2c-4.7,0-6.8,0.1-6.4,0.4c0.4,0.2,1.1,0.4,2,0.5c0.8,0.1,1.6,0.1,2.3,0l2.5-0.1
				c-2.2-0.2-3.5-0.4-4-0.4c2.3-0.2,3.8-0.3,4.5-0.1l1.1,0.2l1.4-0.1C45,10.2,44.8,10.1,43.9,9.9z"/>
		</g>
	</g>
</g>
<g transform="matrix( 1, 0, 0, 1, 15,0) ">
	<g>
		<g id="Layer0_7_MEMBER_8_FILL">
			<path class="st4" d="M30.5,14.8c-0.4,0-1-0.1-1.6-0.1c-1-0.1-2-0.2-2.9-0.3c-1.6-0.2-3.2-0.3-4.8-0.3c-3.5-0.1-7.8,0-13,0.4
				c-2.5,0.2-4.4,0.1-5.6-0.1L1.5,14L2,14.4c0.4,0.3,1,0.5,1.8,0.7c0.7,0.1,1.6,0.2,2.8,0.1c1.7-0.2,3-0.3,3.9-0.3
				c2.3,0,5.7-0.1,10.4-0.2L30.5,14.8z"/>
		</g>
	</g>
</g>
<g transform="matrix( 1, 0, 0, 1, 15,0) ">
	<g>
		<g id="Layer0_8_FILL">
			<path class="st3" d="M56,3.8c-0.2-1.8-0.4-2.5-0.7-2c-0.3,0.4-0.5,1-0.6,1.5c-0.1,1,0,2.6,0.3,4.8c0.5,4,0.7,7.6,0.6,10.8
				l-0.1,2.2c0.3-5.6,0.5-9.6,0.6-12C56.2,7.2,56.2,5.4,56,3.8z"/>
		</g>
	</g>
</g>
<g transform="matrix( 1, 0, 0, 1, 15,0) ">
	<g>
		<g id="Layer0_9_FILL">
			<path class="st4" d="M53.2,10.7c0.1-2.7,0.1-4.3,0-4.9c-0.2-1.2-0.4-1.7-0.7-1.6c-0.2,0.1-0.3,0.5-0.5,1.2
				c-0.1,0.6-0.2,1.8-0.3,3.7c-0.1,2.2,0,3.7,0.2,4.7c0.2,0.8,0.3,3.5,0.3,8c0.1,4.9,0.1,7.6,0.2,8.1c0.1,0.8,0.1,1.5,0.1,2
				c0.3-7.3,0.5-12.1,0.5-14.6C53.1,14.4,53.1,12.2,53.2,10.7z"/>
		</g>
	</g>
</g>
<g transform="matrix( 1, 0, 0, 1, 15,0) ">
	<g>
		<g id="Layer0_10_FILL">
			<path class="st4" d="M0,5.8c0-3.1-0.3-3-0.9,0.1c-0.1,2.4-0.2,4.9-0.3,7.6c-0.2,5.3-0.2,8.7-0.1,10.1c0.3,2.5,0.5,5.4,0.6,8.9
				l0.1,1.2C-0.1,18.2,0.1,8.9,0,5.8z"/>
		</g>
	</g>
</g>
<g transform="matrix( 1, 0, 0, 1, 15,0) ">
	<g>
		<g id="Layer0_11_FILL">
			<path class="st3" d="M-4.6,20.3l0.5-15.5c-0.1-1-0.3-1.5-0.5-1.6c-0.2-0.1-0.3,0.4-0.3,1.5c0,0.7,0,1.8,0.1,3.1
				c0.1,1.3,0.1,2.5,0,3.7C-4.9,13.7-4.8,16.6-4.6,20.3z"/>
		</g>
	</g>
</g>
<g transform="matrix( 1, 0, 0, 1, 15,0) ">
	<g>
		<g id="Layer0_12_FILL">
			<path class="st3" d="M47.5,20.5l0.2,3.5c0.1,2.6,0.1,4.5,0,5.8c-0.3,4.2-0.3,6.5-0.2,6.8c0.2,0.4,0.5,0.7,0.7,0.9
				c0-2.7,0.1-4.8,0.3-6.4c0.2-1,0.3-2.8,0.3-5.3v-3.5l-1.1-1.3L47.5,20.5z"/>
		</g>
	</g>
</g>
<g transform="matrix( 1, 0, 0, 1, 15,0) ">
	<g>
		<g id="Layer0_13_FILL">
			<path class="st3" d="M-4.9,22.9l0.4,12.8l0.4-7.3c0.1-1,0-2.2-0.3-3.6L-4.9,22.9z"/>
		</g>
	</g>
</g>
</svg>
