<?xml version="1.0" encoding="iso-8859-1"?>
<!-- Generator: Adobe Illustrator 15.1.0, SVG Export Plug-In . SVG Version: 6.00 Build 0)  -->
<!DOCTYPE svg PUBLIC "-//W3C//DTD SVG 1.1//EN" "http://www.w3.org/Graphics/SVG/1.1/DTD/svg11.dtd">
<svg version="1.1" id="BarnacleBlisterContainer" xmlns="http://www.w3.org/2000/svg" xmlns:xlink="http://www.w3.org/1999/xlink"
	 x="0px" y="0px" width="43.3px" height="42.5px" viewBox="0 0 43.3 42.5" style="enable-background:new 0 0 43.3 42.5;"
	 xml:space="preserve">
<symbol  id="BarnacleBlisterContainer_1_" viewBox="-17.139 -19.539 33.228 41.196">
	<g id="BarnacleBlister_1_">
		<use xlink:href="#blister1"  width="33.228" height="41.196" x="-17.139" y="-19.539" style="overflow:visible;"/>
	</g>
</symbol>
<symbol  id="blister1" viewBox="-17.139 -19.539 33.228 41.196">
	<g id="flash0.ai_1_">
		<g>
			<path style="fill-rule:evenodd;clip-rule:evenodd;fill:#C9B5A0;" d="M2,13.3c-0.033,0-0.067,0-0.1,0l-0.65,0.9
				c0,0.2,0.017,0.4,0.05,0.6c0.3,0.233,0.55,0.1,0.75-0.4C2.25,13.933,2.233,13.567,2,13.3z M-3.65,15.9
				c0.967,0.1,1.917,0.067,2.85-0.1c-0.034-0.033-0.65-0.25-1.85-0.65c-0.4-0.167-1.317-0.6-2.75-1.3
				C-4.933,14.617-4.35,15.3-3.65,15.9z M-9.65,2.4c-0.067-0.066-0.133-0.117-0.2-0.15c-0.3,0.567-0.5,0.983-0.6,1.25
				c-0.133,0.467-0.15,0.9-0.05,1.3l0.35,1.05c0.033,0.033,0.2,0.1,0.5,0.2c0.033,0,0.066,0.034,0.1,0.1c0-0.1-0.017-0.2-0.05-0.3
				c0-0.333-0.033-0.567-0.1-0.7c-0.1-0.566-0.066-1.2,0.1-1.9C-9.567,3.083-9.533,2.9-9.5,2.7c0.033,0,0.083,0.017,0.15,0.05
				C-9.417,2.617-9.517,2.5-9.65,2.4z M3.2-10.95c0.2-0.333,0.383-0.533,0.55-0.6c-0.433-0.167-0.983-0.284-1.65-0.35
				c-0.367-0.033-0.9-0.117-1.6-0.25c-0.5-0.067-1-0.033-1.5,0.1c-0.033-0.034-0.517,0.083-1.45,0.35v0.05l0.025,0.1
				c0.012,0.029,0.021,0.063,0.025,0.1c0.021,0.029,0.038,0.063,0.05,0.1c0.033,0.1,0.067,0.167,0.1,0.2
				c0.033,0.133,0.067,0.25,0.1,0.35c0.833-0.467,1.7-0.684,2.6-0.65c0.066,0,0.15,0.017,0.25,0.05
				C1.209-11.397,2.043-11.248,3.2-10.95z M3.75-9.9c0.7,0.233,1.3,0.4,1.8,0.5c1.167,0.3,2.133,0.633,2.9,1
				c-0.1-0.2-0.2-0.417-0.3-0.65L7.9-9.4c-0.6-0.3-1.467-0.567-2.6-0.8c-1-0.167-1.75-0.25-2.25-0.25H3l-0.1,0.4
				C3.2-9.983,3.483-9.933,3.75-9.9z M4.2,5.75C4.4,5.883,4.567,6.033,4.7,6.2l0.85,0.65c0.233,0.2,0.434,0.383,0.6,0.55
				c0.333,0.333,0.6,0.65,0.8,0.95l0.5,1.15l0.5-0.9C7.717,7.8,7.267,7.167,6.6,6.7C5.967,6.233,5.5,5.933,5.2,5.8
				C4.9,5.7,4.567,5.683,4.2,5.75z M2.75,9.2H2.7c-0.1,0-0.284-0.017-0.55-0.05C1.85,9.083,1.683,9,1.65,8.9
				C1.583,8.7,1.6,8.567,1.7,8.5C1.9,8.3,2,8.167,2,8.1c0.133-0.367,0.25-0.65,0.35-0.85C2.417,7.083,2.533,6.967,2.7,6.9
				C2.433,6.967,2.117,7.117,1.75,7.35c-0.2,0.033-0.383,0.066-0.55,0.1c-0.1,0.033-0.217,0.167-0.35,0.4
				C0.517,8.383,0.733,8.833,1.5,9.2l1.1,0.15h0.05C2.683,9.283,2.717,9.233,2.75,9.2z M0.7,11.1c0.167-0.367,0.167-0.684,0-0.95
				c-0.2-0.267-0.467-0.267-0.8,0c-0.233,0.167-0.3,0.4-0.2,0.7c0.066,0.3,0.267,0.467,0.6,0.5c0.067-0.033,0.167-0.1,0.3-0.2
				L0.7,11.1z M0.65,10.5v0.2c-0.2,0.066-0.333,0.017-0.4-0.15c-0.1-0.1-0.083-0.25,0.05-0.45c0.133,0,0.233,0.033,0.3,0.1
				C0.6,10.267,0.617,10.367,0.65,10.5z M5.15,0.45c0.067,0.066,0.4,0.5,1,1.3c0.133,0.167,0.267,0.333,0.4,0.5
				c0.6,0.733,0.85,1.367,0.75,1.9l0.9-0.5l-0.65-1.4C6.917,1.25,6.117,0.65,5.15,0.45z M9.55-2.8H9.5c-0.1,0.033-0.25,0.033-0.45,0
				C9.117-2.433,9.133-1.967,9.1-1.4C9.033-0.767,8.917-0.35,8.75-0.15c0.133-0.067,0.267-0.167,0.4-0.3
				C9.417-0.75,9.567-1.167,9.6-1.7C9.667-2.1,9.65-2.467,9.55-2.8z M6.5-2.8c0.033,0,0.1-0.083,0.2-0.25l-0.35-0.1
				c-0.1-0.167-0.1-0.383,0-0.65C6.217-3.833,6.1-3.85,6-3.85c-0.067,0.133-0.083,0.267-0.05,0.4L6.1-3C6.267-2.767,6.4-2.7,6.5-2.8
				z M5.15-6.4C5.05-6.433,4.967-6.45,4.9-6.45C4.9-6.35,4.85-6.2,4.75-6C4.583-5.767,4.5-5.617,4.5-5.55
				C4.467-5.317,4.55-5.067,4.75-4.8c0.3,0.367,0.467,0.566,0.5,0.6l0.6-0.2c0.153,0,0.278,0.017,0.375,0.05
				C6.041-4.419,5.932-4.486,5.9-4.55C5.6-4.683,5.4-4.9,5.3-5.2C5.233-5.433,5.183-5.833,5.15-6.4z M3.3-8.7L3.25-8.6
				C2.783-8.633,2.167-8.783,1.4-9.05c-0.367-0.1-0.6-0.167-0.7-0.2c-0.233-0.167-0.333-0.367-0.3-0.6
				C0.42-9.909,0.453-9.959,0.5-10C0.332-9.898,0.165-9.765,0-9.6c-0.3,0.267-0.417,0.5-0.35,0.7c0.067,0.167,0.533,0.3,1.4,0.4
				c1,0.1,1.6,0.183,1.8,0.25l0.45-0.3C3.3-8.583,3.3-8.633,3.3-8.7z M-4.35-13.1c0.8,0.6,1.434,0.95,1.9,1.05h0.05l0.3-0.5
				c-0.1-0.133-0.3-0.233-0.6-0.3c-0.167-0.033-0.417-0.083-0.75-0.15l-0.7-0.15L-4.35-13.1z M-9.8,7.55
				C-9.633,7.583-9.383,7.6-9.05,7.6L-9,7.55C-9.3,7.517-9.567,7.517-9.8,7.55c-0.167,0.067-0.267,0.2-0.3,0.4
				c-0.033,0.1,0.117,0.55,0.45,1.35c0.333,0.767,0.533,1.184,0.6,1.25c0.2,0.167,0.517,0.267,0.95,0.3
				c-0.133-0.1-0.233-0.184-0.3-0.25c-0.067-0.1-0.2-0.333-0.4-0.7C-9.4,8.4-9.733,7.617-9.8,7.55z M-3.25-10.2
				c-0.133-0.066-0.3-0.1-0.5-0.1c-0.233,0-0.467,0.017-0.7,0.05C-5.083-10.117-5.467-9.933-5.6-9.7c-0.167,0.267-0.167,0.6,0,1
				c0.1,0.3,0.317,0.6,0.65,0.9H-5c0.567,0.2,1.133,0.017,1.7-0.55c-0.333,0.2-0.6,0.3-0.8,0.3c-0.267,0-0.5-0.167-0.7-0.5
				C-4.967-8.817-5-9.1-4.9-9.4l0.05-0.05c0.1-0.233,0.3-0.433,0.6-0.6c0.067-0.034,0.15-0.067,0.25-0.1
				c0.133-0.033,0.317-0.05,0.55-0.05C-3.35-10.2-3.283-10.2-3.25-10.2z"/>
			
				<radialGradient id="SVGID_1_" cx="-4.3999" cy="15.1001" r="3.4076" gradientTransform="matrix(-0.9792 -0.203 0.2844 -1.3723 -13.0044 34.9297)" gradientUnits="userSpaceOnUse">
				<stop  offset="0" style="stop-color:#918668"/>
				<stop  offset="1" style="stop-color:#6F654F"/>
			</radialGradient>
			<path style="fill-rule:evenodd;clip-rule:evenodd;fill:url(#SVGID_1_);" d="M1.25,14.2c-0.033,0.3,0,0.583,0.1,0.85
				c-3.233-0.433-5.684-1.233-7.35-2.4c0.2,0.434,0.4,0.833,0.6,1.2c1.433,0.7,2.35,1.133,2.75,1.3c1.2,0.4,1.816,0.617,1.85,0.65
				c-0.934,0.167-1.883,0.2-2.85,0.1c2.167,0.3,4.25-0.183,6.25-1.45l0.75-0.5c0.267-0.167,0.533-0.367,0.8-0.6
				c-1.1-0.1-1.816-0.117-2.15-0.05c0.233,0.267,0.25,0.633,0.05,1.1c-0.2,0.5-0.45,0.633-0.75,0.4C1.267,14.6,1.25,14.4,1.25,14.2z
				"/>
			
				<radialGradient id="SVGID_2_" cx="-0.6499" cy="0.0498" r="15.9472" gradientTransform="matrix(-0.979 -0.2037 0.2729 -1.3113 -1.3003 -0.0171)" gradientUnits="userSpaceOnUse">
				<stop  offset="0.1882" style="stop-color:#000000"/>
				<stop  offset="0.8392" style="stop-color:#000000;stop-opacity:0"/>
			</radialGradient>
			<path style="fill-rule:evenodd;clip-rule:evenodd;fill:url(#SVGID_2_);" d="M-3.65,15.9c-0.3-0.033-0.617-0.083-0.95-0.15
				c-3.133-0.633-5.517-2.633-7.15-6c-1.6-3.367-1.967-7.083-1.1-11.15c0.3-1.567,0.767-3.033,1.4-4.4v0.15l-0.05,0.1
				c0,0.167,0.067,0.367,0.2,0.6c0.167,0.267,0.233,0.45,0.2,0.55c0,0.2-0.1,0.4-0.3,0.6c-0.167,0.2-0.267,0.367-0.3,0.5
				c0.034,1.033-0.05,1.85-0.25,2.45c-0.066,0.367-0.283,0.684-0.65,0.95c-0.2,0.167-0.2,0.583,0,1.25
				c0.067,0.333,0.467,0.917,1.2,1.75V3.05c0-0.167,0.017-0.517,0.05-1.05l-0.05-0.05c-0.4-0.467-0.583-0.833-0.55-1.1
				c0-0.1,0.083-0.25,0.25-0.45c0.2-0.233,0.317-0.4,0.35-0.5c0.033-0.2,0.083-0.517,0.15-0.95c0.034-0.467,0.083-0.8,0.15-1
				c0.033-0.133,0.183-0.483,0.45-1.05c0.167-0.5,0.267-0.867,0.3-1.1c0-0.167-0.05-0.45-0.15-0.85c0-0.434,0.267-1.15,0.8-2.15
				c0.566-0.933,0.816-1.65,0.75-2.15l-0.9-0.3h-0.15C-9.517-9.683-9.133-9.7-8.8-9.7c0.466-0.5,0.95-1,1.45-1.5
				c1.833-1.533,3.717-2.45,5.65-2.75h2.6c0.233,0.034,0.483,0.083,0.75,0.15c0.1,0,0.2,0.017,0.3,0.05h0.1
				c0.034,0.033,0.083,0.05,0.15,0.05l5.7,4.3l0.25,0.35c0.2,0.4,0.417,0.816,0.65,1.25c1,2.1,1.534,4.283,1.6,6.55v0.75
				c-0.033,0.233-0.05,0.467-0.05,0.7L9.9,3.4C9.833,3.8,9.75,4.167,9.65,4.5L8.8,7.05c-1.033,2.4-2.517,4.434-4.45,6.1
				c-0.1,0.067-0.167,0.133-0.2,0.2c-0.267,0.233-0.533,0.433-0.8,0.6l-0.75,0.5C0.6,15.717-1.483,16.2-3.65,15.9z M15.5,4.4
				c1.167-5.633,0.6-10.733-1.7-15.3c-2.267-4.633-5.633-7.417-10.1-8.35c-4.4-0.9-8.583,0.3-12.55,3.6
				c-3.967,3.3-6.533,7.767-7.7,13.4c-1.167,5.6-0.6,10.683,1.7,15.25c2.333,4.667,5.7,7.45,10.1,8.35
				c4.467,0.933,8.65-0.267,12.55-3.6C11.767,14.45,14.333,10,15.5,4.4z"/>
			
				<radialGradient id="SVGID_3_" cx="4.9502" cy="6.7998" r="9.1173" gradientTransform="matrix(-0.9789 -0.2042 0.2866 -1.3738 7.8477 17.1509)" gradientUnits="userSpaceOnUse">
				<stop  offset="0" style="stop-color:#918668"/>
				<stop  offset="1" style="stop-color:#6F654F"/>
			</radialGradient>
			<path style="fill-rule:evenodd;clip-rule:evenodd;fill:url(#SVGID_3_);" d="M5.15,0.45c0.967,0.2,1.767,0.8,2.4,1.8l0.65,1.4
				l-0.9,0.5C6.8,4.217,6.1,4.5,5.2,5C4.833,5.2,4.45,5.433,4.05,5.7C4.117,5.733,4.167,5.75,4.2,5.75c0.367-0.067,0.7-0.05,1,0.05
				c0.3,0.133,0.767,0.434,1.4,0.9c0.667,0.466,1.117,1.1,1.35,1.9l-0.5,0.9C7.95,8.7,8.4,7.883,8.8,7.05L9.65,4.5
				c0.1-0.333,0.184-0.7,0.25-1.1l0.45-3.2c0-0.233,0.017-0.467,0.05-0.7v-0.75c-0.033-0.567-0.1-1.117-0.2-1.65
				C9.967-2.833,9.75-2.8,9.55-2.8c0.1,0.333,0.117,0.7,0.05,1.1C9.567-1.167,9.417-0.75,9.15-0.45
				c-0.133,0.133-0.267,0.233-0.4,0.3c-0.233,0.267-0.8,0.383-1.7,0.35c-0.2,0-0.417-0.017-0.65-0.05
				C5.833,0.183,5.417,0.283,5.15,0.45z"/>
			
				<radialGradient id="SVGID_4_" cx="1675.4058" cy="1394.7305" r="0.2672" gradientTransform="matrix(0.9823 0.1871 0.1871 -0.9823 -1906.3359 1067.0068)" gradientUnits="userSpaceOnUse">
				<stop  offset="0" style="stop-color:#918668"/>
				<stop  offset="1" style="stop-color:#6F654F"/>
			</radialGradient>
			<path style="fill-rule:evenodd;clip-rule:evenodd;fill:url(#SVGID_4_);" d="M0.65,10.5c-0.033-0.133-0.05-0.233-0.05-0.3
				c-0.067-0.067-0.167-0.1-0.3-0.1c-0.133,0.2-0.15,0.35-0.05,0.45c0.067,0.167,0.2,0.217,0.4,0.15V10.5z"/>
			
				<radialGradient id="SVGID_5_" cx="-9.2998" cy="13.8501" r="21.1812" gradientTransform="matrix(-0.979 -0.2037 0.3385 -1.6265 -23.0938 34.4814)" gradientUnits="userSpaceOnUse">
				<stop  offset="0.1882" style="stop-color:#000000;stop-opacity:0.4275"/>
				<stop  offset="0.8392" style="stop-color:#000000;stop-opacity:0"/>
			</radialGradient>
			<path style="fill-rule:evenodd;clip-rule:evenodd;fill:url(#SVGID_5_);" d="M-2.25-11.15c-0.533,0.233-1.033,0.517-1.5,0.85
				c0.2,0,0.367,0.033,0.5,0.1c0.267,0,0.467,0.05,0.6,0.15c0.167,0.1,0.217,0.367,0.15,0.8C-2.6-8.917-2.7-8.7-2.8-8.6
				c0.1-0.066,0.216-0.066,0.35,0c0.2,0.067,0.3,0.184,0.3,0.35l-0.5,0.75L-3.1-7.6c0-0.066,0.033-0.233,0.1-0.5
				c0-0.2,0.017-0.333,0.05-0.4L-3.2-8.4c-0.033,0.033-0.066,0.05-0.1,0.05C-3.867-7.783-4.433-7.6-5-7.8h0.05
				C-5.283-8.1-5.5-8.4-5.6-8.7c-1.033,1.167-1.883,2.5-2.55,4c0.066,0.034,0.133,0.05,0.2,0.05c0.233,0.033,0.367,0.15,0.4,0.35
				C-7.583-4.2-7.633-4-7.7-3.7l-0.45,0.65c-0.167-0.167-0.317-0.367-0.45-0.6c-0.267,0.8-0.483,1.617-0.65,2.45
				c-0.267,1.267-0.4,2.467-0.4,3.6c0.133,0.1,0.233,0.217,0.3,0.35C-9.117,2.85-9,3.083-9,3.45l0.05,1.05
				c0.034,0.067,0.217,0.283,0.55,0.65c0.233,0.333,0.333,0.6,0.3,0.8L-8.35,6.4c-0.033,0.033-0.2,0.083-0.5,0.15
				c-0.1,0-0.183,0-0.25,0C-9,6.917-8.883,7.267-8.75,7.6c0.133,0,0.233,0.017,0.3,0.05C-8.183,7.717-8,7.85-7.9,8.05
				c0.066,0.3,0.15,0.534,0.25,0.7c0.233,0.467,0.517,0.933,0.85,1.4c0.466,0.6,0.867,0.917,1.2,0.95l-0.75,0.05
				c0.667,0.5,1.434,0.833,2.3,1c1.5,0.367,2.95,0.1,4.35-0.8c-0.333-0.033-0.533-0.2-0.6-0.5c-0.1-0.3-0.034-0.533,0.2-0.7
				c0.333-0.267,0.6-0.267,0.8,0c0.167,0.267,0.167,0.583,0,0.95c0.466-0.367,0.933-0.767,1.4-1.2c0.133-0.167,0.3-0.35,0.5-0.55
				L1.5,9.2C0.733,8.833,0.517,8.383,0.85,7.85C0.983,7.617,1.1,7.483,1.2,7.45c0.167-0.034,0.35-0.067,0.55-0.1
				C2.117,7.117,2.433,6.967,2.7,6.9c0.066-0.1,0.183-0.167,0.35-0.2c0.733-0.1,1.034,0.167,0.9,0.8C4.217,7.1,4.467,6.667,4.7,6.2
				C4.567,6.033,4.4,5.883,4.2,5.75c-0.034,0-0.083-0.017-0.15-0.05C4.45,5.433,4.833,5.2,5.2,5c0.367-0.9,0.667-1.867,0.9-2.9
				c0-0.133,0.017-0.25,0.05-0.35c-0.6-0.8-0.933-1.233-1-1.3c0.267-0.167,0.684-0.267,1.25-0.3C6.533-0.817,6.567-1.8,6.5-2.8
				C6.4-2.7,6.267-2.767,6.1-3L5.95-3.45C5.917-3.583,5.933-3.717,6-3.85c0.1,0,0.217,0.017,0.35,0.05v-0.05
				c0-0.167-0.033-0.333-0.1-0.5H6.225C6.128-4.383,6.003-4.4,5.85-4.4l-0.6,0.2c-0.033-0.033-0.2-0.233-0.5-0.6
				C4.55-5.067,4.467-5.317,4.5-5.55C4.5-5.617,4.583-5.767,4.75-6C4.85-6.2,4.9-6.35,4.9-6.45c0.067,0,0.15,0.017,0.25,0.05
				C5.117-6.467,5.1-6.533,5.1-6.6c0.233,0,0.45,0.05,0.65,0.15c-0.033-0.1-0.067-0.216-0.1-0.35c-0.533-1.267-1.167-2.3-1.9-3.1
				C3.483-9.933,3.2-9.983,2.9-10.05l0.1-0.4h0.05c-0.633-0.433-1.35-0.733-2.15-0.9c-0.063-0.031-0.129-0.048-0.2-0.05
				c-0.1-0.033-0.184-0.05-0.25-0.05c-0.9-0.033-1.767,0.184-2.6,0.65C-2.183-10.9-2.217-11.017-2.25-11.15z M0.5-10
				c0.032-0.016,0.065-0.032,0.1-0.05c0.1-0.067,0.2-0.117,0.3-0.15c0.467-0.066,0.95,0.017,1.45,0.25C2.917-9.717,3.267-9.4,3.4-9
				L3.3-8.7c0,0.067,0,0.117,0,0.15l-0.45,0.3c-0.2-0.067-0.8-0.15-1.8-0.25c-0.867-0.1-1.333-0.233-1.4-0.4
				C-0.417-9.1-0.3-9.333,0-9.6C0.165-9.765,0.332-9.898,0.5-10z M-7.15-4.9l-0.4-0.25c-0.2-0.3-0.1-0.417,0.3-0.35
				C-6.883-5.467-6.85-5.267-7.15-4.9z M-1.3-8.3c0.466,0.267,0.417,0.383-0.15,0.35L-1.7-7.9C-1.867-8.333-1.733-8.467-1.3-8.3z"/>
			
				<radialGradient id="SVGID_6_" cx="1828.0107" cy="1495.0859" r="4.0082" gradientTransform="matrix(0.9792 0.2027 0.2027 -0.9792 -2092.627 1102.1426)" gradientUnits="userSpaceOnUse">
				<stop  offset="0" style="stop-color:#918668"/>
				<stop  offset="1" style="stop-color:#6F654F"/>
			</radialGradient>
			<path style="fill-rule:evenodd;clip-rule:evenodd;fill:url(#SVGID_6_);" d="M2.75,9.2L2.8,9.15h0.25c0.434-0.3,0.733-0.8,0.9-1.5
				c0-0.033,0-0.083,0-0.15c0.133-0.633-0.167-0.9-0.9-0.8C2.883,6.733,2.767,6.8,2.7,6.9C2.533,6.967,2.417,7.083,2.35,7.25
				C2.25,7.45,2.133,7.733,2,8.1c0,0.066-0.1,0.2-0.3,0.4C1.6,8.567,1.583,8.7,1.65,8.9c0.033,0.1,0.2,0.184,0.5,0.25
				C2.417,9.183,2.6,9.2,2.7,9.2H2.75z"/>
			
				<radialGradient id="SVGID_7_" cx="1830.564" cy="1481.3223" r="0.3702" gradientTransform="matrix(0.9793 0.2026 0.2026 -0.9793 -2086.0723 1076.2646)" gradientUnits="userSpaceOnUse">
				<stop  offset="0" style="stop-color:#918668"/>
				<stop  offset="1" style="stop-color:#6F654F"/>
			</radialGradient>
			<path style="fill-rule:evenodd;clip-rule:evenodd;fill:url(#SVGID_7_);" d="M6.35-3.85v0.05c-0.1,0.267-0.1,0.483,0,0.65
				l0.35,0.1L6.9-3C7-3.633,6.817-3.917,6.35-3.85z"/>
			
				<radialGradient id="SVGID_8_" cx="1839.3149" cy="1488.376" r="3.4346" gradientTransform="matrix(0.979 0.2038 0.2038 -0.979 -2100.3037 1077.4668)" gradientUnits="userSpaceOnUse">
				<stop  offset="0" style="stop-color:#918668"/>
				<stop  offset="1" style="stop-color:#6F654F"/>
			</radialGradient>
			<path style="fill-rule:evenodd;clip-rule:evenodd;fill:url(#SVGID_8_);" d="M5.75-6.45C5.55-6.55,5.333-6.6,5.1-6.6
				c0,0.067,0.017,0.133,0.05,0.2C5.183-5.833,5.233-5.433,5.3-5.2c0.1,0.3,0.3,0.517,0.6,0.65c0.032,0.064,0.141,0.13,0.325,0.2
				H6.25c0.033,0,0.067,0,0.1,0c0.033,0.033,0.1,0.05,0.2,0.05c0.034,0,0.083,0.017,0.15,0.05c-0.034-0.567-0.15-1.067-0.35-1.5
				C6.183-6.05,5.983-6.283,5.75-6.45z"/>
			
				<radialGradient id="SVGID_9_" cx="1849.8213" cy="1496.5674" r="3.6528" gradientTransform="matrix(0.9787 0.2053 0.2053 -0.9787 -2117.9365 1077.625)" gradientUnits="userSpaceOnUse">
				<stop  offset="0" style="stop-color:#918668"/>
				<stop  offset="1" style="stop-color:#6F654F"/>
			</radialGradient>
			<path style="fill-rule:evenodd;clip-rule:evenodd;fill:url(#SVGID_9_);" d="M3.3-8.7L3.4-9C3.267-9.4,2.917-9.717,2.35-9.95
				c-0.5-0.233-0.983-0.316-1.45-0.25c-0.1,0.034-0.2,0.083-0.3,0.15C0.565-10.032,0.532-10.016,0.5-10
				C0.453-9.959,0.42-9.909,0.4-9.85c-0.033,0.233,0.067,0.434,0.3,0.6c0.1,0.033,0.333,0.1,0.7,0.2
				C2.167-8.783,2.783-8.633,3.25-8.6L3.3-8.7z"/>
			
				<radialGradient id="SVGID_10_" cx="-1.8999" cy="-11.2002" r="3.6503" gradientTransform="matrix(-0.9793 -0.2024 0.2838 -1.3733 -0.5811 -26.9658)" gradientUnits="userSpaceOnUse">
				<stop  offset="0" style="stop-color:#918668"/>
				<stop  offset="1" style="stop-color:#6F654F"/>
			</radialGradient>
			<path style="fill-rule:evenodd;clip-rule:evenodd;fill:url(#SVGID_10_);" d="M3.05-10.45c0.5,0,1.25,0.083,2.25,0.25
				c1.133,0.233,2,0.5,2.6,0.8l-5.7-4.3c-0.067,0-0.117-0.017-0.15-0.05h-0.1c-0.1-0.033-0.2-0.05-0.3-0.05
				c-0.267-0.067-0.517-0.117-0.75-0.15h-2.6c-0.867,0.167-1.75,0.45-2.65,0.85l0.2-0.05l0.7,0.15
				c0.333,0.067,0.583,0.117,0.75,0.15c0.3,0.067,0.5,0.167,0.6,0.3l-0.3,0.5h-0.05c0,0.1,0,0.216,0,0.35
				c0.934-0.267,1.417-0.383,1.45-0.35c0.5-0.133,1-0.167,1.5-0.1c0.7,0.133,1.233,0.217,1.6,0.25
				c0.667,0.066,1.217,0.183,1.65,0.35c-0.167,0.066-0.35,0.267-0.55,0.6C3.167-10.75,3.117-10.583,3.05-10.45z"/>
			
				<radialGradient id="SVGID_11_" cx="-12.6499" cy="0.3501" r="9.5376" gradientTransform="matrix(-0.9568 -0.2908 0.4078 -1.342 -24.8955 -2.8594)" gradientUnits="userSpaceOnUse">
				<stop  offset="0" style="stop-color:#918668"/>
				<stop  offset="1" style="stop-color:#6F654F"/>
			</radialGradient>
			<path style="fill-rule:evenodd;clip-rule:evenodd;fill:url(#SVGID_11_);" d="M-11.4,1.95c0.167-1.167,0.583-2.883,1.25-5.15
				c1.1-3.533,2.3-5.583,3.6-6.15c-0.467-0.167-0.9-0.283-1.3-0.35c-0.233,0-0.55,0-0.95,0c-0.333,0-0.717,0.017-1.15,0.05h0.15
				l0.9,0.3c0.066,0.5-0.184,1.217-0.75,2.15c-0.533,1-0.8,1.717-0.8,2.15c0.1,0.4,0.15,0.683,0.15,0.85
				c-0.034,0.233-0.133,0.6-0.3,1.1c-0.267,0.567-0.417,0.917-0.45,1.05c-0.067,0.2-0.117,0.533-0.15,1
				c-0.066,0.433-0.117,0.75-0.15,0.95C-11.383,0-11.5,0.167-11.7,0.4c-0.167,0.2-0.25,0.35-0.25,0.45
				C-11.983,1.117-11.8,1.483-11.4,1.95z"/>
			
				<radialGradient id="SVGID_12_" cx="1825.1958" cy="1500.7637" r="2.0299" gradientTransform="matrix(0.9791 0.2032 0.2032 -0.9791 -2099.7402 1107.9375)" gradientUnits="userSpaceOnUse">
				<stop  offset="0" style="stop-color:#918668"/>
				<stop  offset="1" style="stop-color:#6F654F"/>
			</radialGradient>
			<path style="fill-rule:evenodd;clip-rule:evenodd;fill:url(#SVGID_12_);" d="M-9,7.55L-9.05,7.6c-0.333,0-0.583-0.017-0.75-0.05
				c0.066,0.067,0.4,0.85,1,2.35c0.2,0.367,0.333,0.6,0.4,0.7c0.066,0.066,0.167,0.15,0.3,0.25c0.067,0.066,0.167,0.133,0.3,0.2
				c0.466,0.167,0.933,0.184,1.4,0.05l0.05,0.05l0.75-0.05c-0.333-0.033-0.733-0.35-1.2-0.95c-0.333-0.467-0.617-0.933-0.85-1.4
				c-0.1-0.167-0.184-0.4-0.25-0.7c-0.1-0.2-0.283-0.333-0.55-0.4C-8.517,7.617-8.617,7.6-8.75,7.6C-8.85,7.567-8.933,7.55-9,7.55z"
				/>
			
				<radialGradient id="SVGID_13_" cx="1800.6558" cy="1481.6523" r="1.493" gradientTransform="matrix(0.9796 0.2009 0.2009 -0.9796 -2070.5078 1094.2988)" gradientUnits="userSpaceOnUse">
				<stop  offset="0" style="stop-color:#918668"/>
				<stop  offset="1" style="stop-color:#6F654F"/>
			</radialGradient>
			<path style="fill-rule:evenodd;clip-rule:evenodd;fill:url(#SVGID_13_);" d="M-9.35,2.75C-9.417,2.717-9.467,2.7-9.5,2.7
				c-0.033,0.2-0.067,0.383-0.1,0.55c-0.167,0.7-0.2,1.333-0.1,1.9c0.067,0.133,0.1,0.367,0.1,0.7c0.033,0.1,0.05,0.2,0.05,0.3
				c0.033,0.167,0.1,0.283,0.2,0.35C-9.283,6.533-9.2,6.55-9.1,6.55c0.067,0,0.15,0,0.25,0c0.3-0.066,0.467-0.117,0.5-0.15
				l0.25-0.45c0.033-0.2-0.066-0.467-0.3-0.8C-8.733,4.783-8.917,4.567-8.95,4.5L-9,3.45C-9,3.083-9.117,2.85-9.35,2.75z"/>
			
				<radialGradient id="SVGID_14_" cx="1851.5122" cy="1508.5713" r="2.1206" gradientTransform="matrix(0.9785 0.2063 0.2063 -0.9785 -2132.21 1090.7373)" gradientUnits="userSpaceOnUse">
				<stop  offset="0" style="stop-color:#918668"/>
				<stop  offset="1" style="stop-color:#6F654F"/>
			</radialGradient>
			<path style="fill-rule:evenodd;clip-rule:evenodd;fill:url(#SVGID_14_);" d="M-8.15-4.7c-0.167,0.067-0.3,0.167-0.4,0.3
				C-8.683-4.2-8.7-3.967-8.6-3.7v0.05c0.133,0.233,0.283,0.433,0.45,0.6L-7.7-3.7C-7.633-4-7.583-4.2-7.55-4.3
				c-0.034-0.2-0.167-0.317-0.4-0.35C-8.017-4.65-8.083-4.667-8.15-4.7z"/>
			
				<radialGradient id="SVGID_15_" cx="1794.0781" cy="1468.3252" r="1.1228" gradientTransform="matrix(0.9797 0.2004 0.2004 -0.9797 -2059.9814 1073.9141)" gradientUnits="userSpaceOnUse">
				<stop  offset="0" style="stop-color:#918668"/>
				<stop  offset="1" style="stop-color:#6F654F"/>
			</radialGradient>
			<path style="fill-rule:evenodd;clip-rule:evenodd;fill:url(#SVGID_15_);" d="M-7.15-4.9c0.3-0.367,0.267-0.567-0.1-0.6
				c-0.4-0.067-0.5,0.05-0.3,0.35L-7.15-4.9z"/>
			
				<radialGradient id="SVGID_16_" cx="1853.3047" cy="1501.2109" r="1.6992" gradientTransform="matrix(0.9785 0.206 0.206 -0.9785 -2126.3662 1079.46)" gradientUnits="userSpaceOnUse">
				<stop  offset="0" style="stop-color:#918668"/>
				<stop  offset="1" style="stop-color:#6F654F"/>
			</radialGradient>
			<path style="fill-rule:evenodd;clip-rule:evenodd;fill:url(#SVGID_16_);" d="M-2.8-8.6c-0.034,0.033-0.083,0.05-0.15,0.05v0.05
				C-2.983-8.433-3-8.3-3-8.1c-0.067,0.267-0.1,0.434-0.1,0.5l0.45,0.1l0.5-0.75c0-0.167-0.1-0.283-0.3-0.35
				C-2.583-8.667-2.7-8.667-2.8-8.6z"/>
			
				<radialGradient id="SVGID_17_" cx="1866.0811" cy="1508.1104" r="1.0861" gradientTransform="matrix(0.9783 0.2072 0.2072 -0.9783 -2140.1826 1080.7441)" gradientUnits="userSpaceOnUse">
				<stop  offset="0" style="stop-color:#918668"/>
				<stop  offset="1" style="stop-color:#6F654F"/>
			</radialGradient>
			<path style="fill-rule:evenodd;clip-rule:evenodd;fill:url(#SVGID_17_);" d="M-1.3-8.3c-0.434-0.167-0.567-0.034-0.4,0.4
				l0.25-0.05C-0.883-7.917-0.833-8.033-1.3-8.3z"/>
			
				<radialGradient id="SVGID_18_" cx="1835.251" cy="1489.4785" r="2.9369" gradientTransform="matrix(0.9789 0.2043 0.2043 -0.9789 -2105.3359 1074.5332)" gradientUnits="userSpaceOnUse">
				<stop  offset="0" style="stop-color:#918668"/>
				<stop  offset="1" style="stop-color:#6F654F"/>
			</radialGradient>
			<path style="fill-rule:evenodd;clip-rule:evenodd;fill:url(#SVGID_18_);" d="M-3.3-8.35c0.033,0,0.066-0.017,0.1-0.05l0.25-0.1
				v-0.05c0.067,0,0.117-0.017,0.15-0.05c0.1-0.1,0.2-0.316,0.3-0.65c0.067-0.433,0.017-0.7-0.15-0.8
				c-0.133-0.1-0.333-0.15-0.6-0.15c-0.033,0-0.1,0-0.2,0c-0.233,0-0.417,0.017-0.55,0.05c-0.1,0.033-0.183,0.066-0.25,0.1
				c-0.3,0.167-0.5,0.367-0.6,0.6L-4.9-9.4C-5-9.1-4.967-8.817-4.8-8.55c0.2,0.333,0.433,0.5,0.7,0.5C-3.9-8.05-3.633-8.15-3.3-8.35
				z"/>
		</g>
	</g>
	<g id="Layer_1_2_">
	</g>
</symbol>
<symbol  id="maincontainer" viewBox="-17.139 -19.539 33.228 41.196">
	<g id="Layer_1_3_">
		
			<use xlink:href="#BarnacleBlisterContainer_1_"  width="33.228" height="41.196" id="blistercontainer_x5F_mc_1_" x="-17.139" y="-19.539" style="overflow:visible;"/>
	</g>
</symbol>
<use xlink:href="#maincontainer"  width="33.228" height="41.196" id="maincontainer_x5F_mc" x="-17.139" y="-19.539" transform="matrix(1 0 0 -1 22 22)" style="overflow:visible;"/>
</svg>
