
<svg xmlns="http://www.w3.org/2000/svg" version="1.1" xmlns:xlink="http://www.w3.org/1999/xlink" preserveAspectRatio="none" x="0px" y="0px" width="277px" height="213px" viewBox="0 0 277 213">
<defs>
<g id="Layer0_0_FILL">
<path fill="#76664D" stroke="none" d="
M 208.55 210.4
Q 213.9 209.35 214.25 208.75 213.25 207.1 208.8 204.8 206.05 203.4 204.55 201.35 203.45 199.8 202.7 199.8 201.1 199.8 196.1 201.25 191.1 202.65 189.1 202.65 187.2 202.65 186.05 202.4 183.1 201.7 181.7 199.55 181.3 200.75 181.3 201.9 181.3 204.1 182.9 205.85 184.8 207.4 185.3 207.85
L 185.4 208.25
Q 184.7 208.45 182.45 208.5 180.55 208.9 180.55 210.85 180.55 212.8 184.7 213.5 184.75 213.5 184.8 213.5
L 190.65 213.45
Q 190.15 213.2 188.5 211.8 186.65 210.25 186.5 209.7
L 186.45 209.1
Q 189.35 211.1 190.55 211.35 191.6 211.55 197.95 211.55 202.65 211.55 208.55 210.4
M 137.2 206.7
L 136.75 206.75 136.15 206.85 137.2 206.7
M 147.85 159.8
Q 147.9 159.75 148.55 158.1 149.1 156.6 149.65 156.15 148.8 154.75 147.75 153.4 147.75 153.7 147.85 155.7 147.9 157.95 147.85 159.8
M 155.65 151
L 155.1 151.2 154.7 151.4 155.65 151
M 84 174.4
Q 84 174.55 84 174.7 84.05 174.7 84.1 174.75 84.05 174.55 84 174.4
M 66.75 183.7
L 67.25 183.2 66.7 183.7 66.75 183.7
M 79.6 173.95
Q 80.35 173.7 80.95 173.6
L 82.95 173.4 82.5 173.15
Q 81.95 172.85 81.3 172.85 80.6 172.85 80.35 173.05 80.2 173.15 79.6 173.95
M 77.1 177.75
L 77.05 177.2 72.35 183.45 70.85 185.8
Q 71.2 186.4 71.5 188.1 71.85 188.85 72.25 190.9
L 72.1 189.95
Q 74.05 192.25 76.35 192.25 79.35 192.25 80.15 190.9
L 80.25 190.55
Q 79.85 193.35 79.85 193.65 79.85 194.1 81.45 195.85 83.4 197.9 85.8 199.55 93.05 204.45 100.1 202.85 103.8 201.65 106.2 200.05 108.5 198.5 109.95 196.3 110.2 194.3 110.2 193.3 110.2 186.8 108.75 185.6 107.8 184.75 102.35 184.95 101.55 185.55 100.6 185.55 99.35 186.5 95.05 190.25 91.65 193.25 91.35 193.25 89.45 193.25 86.95 185.15 85.35 179.2 84.6 176.45 84.3 176.7 83.75 176.95 83 183.1 81.15 185.5 79.7 187.4 76.6 187.4
L 73.6 187.3
Q 73.35 185.6 73.35 184.6 73.35 182.6 74.3 181.4 76.75 178.25 77.1 177.8
L 77.1 177.75
M 93.1 195.65
Q 93.1 194.1 96.05 190.6 99.25 186.85 101.7 186.2 101.85 186.05 103.1 185.55 104.3 185.05 104.65 184.95
L 107.15 185.3 107.15 185.9
Q 108.25 186.65 108.85 187.4 109.3 187.95 109.3 188.1 109.3 193.55 104.9 196.4 101.5 198.6 97.2 198.6 93.1 198.6 93.1 195.65
M 17.85 185.65
Q 19 186.65 19.9 186.95
L 19.2 186.6 18.4 186
Q 17.4 185.25 16.7 184.5 17.1 185 17.85 185.65
M 12.95 176.05
L 14.4 177.3 13.75 176.6 12.95 176.05
M 25.5 160.25
L 26.75 158.75 26.3 158.75 25.5 160.25
M 26.15 158.55
L 26.2 158.5 26.25 158.4 26.15 158.55
M 30.6 151.75
L 30.65 152.3
Q 29.7 154 28.95 155.15 28.9 155.6 28.9 156.1
L 30.05 155.3 37.6 149.1
Q 40.05 146.7 42.4 145.8 37.8 146.5 34.25 148.6 30.85 150.55 29.6 153.1 30.15 152.4 30.6 151.75
M 47.4 145.65
Q 48.45 147.5 48.7 148.2 48.9 148.65 48.75 149.05 49 149.8 49 151.45 49 152.05 47.2 154.8 45.1 158 43.45 158 42.85 158 42.65 157.65 42.55 157.45 42.35 156.95 38.55 162.2 33.75 170.05 32 172.95 30.2 172.95 29.7 172.95 25.9 172.65 21.8 172.35 19.55 172.4
L 19.1 172.3
Q 19.1 172.15 20.05 169.6 20.95 167.3 21.25 166.6 19.55 169 18.25 173.95 17 178.55 15.3 180.55
L 16.4 184
Q 21.55 181.45 25.95 180.05 34.5 177.3 37.7 176.15 41.7 173.05 44.45 167.6 45.4 165.7 47.6 159.55 48.7 155.15 48.75 154.95 49.4 152.15 49.4 150.6 49.4 149.35 48.85 147.8 48.2 146.15 47.4 145.65
M 63.5 115.25
Q 63.5 118.25 62.15 119.05 61.15 119.65 58.4 119.35 49.95 118.45 45.15 120.6 40.25 122.75 31.8 127.2 28.95 128.7 25.4 128.7 25 128.7 23.45 127.4 22.5 129.25 20.5 136.85 18.6 144.1 17.8 145.95 18.85 143.7 20.05 143.7 20.6 143.7 22.5 143.95 24.65 144.25 25.1 144.3
L 25.35 146.6
Q 25.35 151.8 20.05 156.8 14.7 161.8 8 162.8
L 6.65 162.55
Q 6.65 162.5 6.45 162.25 6.3 162.1 6.3 161.8 5 163.3 3.55 165 0 169.1 0 169.9 0 173.4 10.85 175.1
L 8 174.25
Q 11.55 170.6 15.65 166.4 16.45 165.55 17.25 164.75 18.3 163.45 19.7 162.15 24.9 156.65 27.9 153.25 30.85 149.85 32.4 142.05 33.7 135.4 38.75 131.9
L 39.55 131.45 39.2 132.1
Q 37.35 134.15 37.1 134.15 36 134.15 35.05 137.2 34.55 138.75 34.3 140.35 34.3 142.2 36.05 143.8 37.45 145.1 37.95 145.1 39.3 145.1 42.95 143.1 46.6 141.05 48.8 140.95
L 49.35 140.8 46 140.3
Q 47.2 140.2 48.2 140.2 49.25 140.2 49.8 140.55 50.45 140.95 51.05 142.1
L 51.05 142.05
Q 51.8 143.2 56.15 146 61.1 149.15 63.65 149.15 64.95 149.15 70.9 145.8 77.7 141.95 79.65 138.7 79.35 134.2 78 132.15 77.8 131.85 77.55 131.55 76.7 130.45 74.9 128.65 74.25 128 73.5 127.25
L 73.15 126.85
Q 74.25 127.5 76.65 129.2 77.1 129.35 77.3 129.65 77.85 130 78.4 130.4 79.8 131.35 81.55 131.35 86.1 131.35 87 128.3 87.5 126.65 87.5 117.2 87.5 115.4 89.8 109.1 92.05 102.8 92.05 102.15 92.05 101.45 92 101.25 91.95 101.15 91.7 100.75
L 91.3 100.65
Q 89.45 101.55 88.15 105.3 87.5 107.2 86.8 109.6 84.85 112.75 83 113.85 84.1 114.25 85 114.9 87.45 116.65 87.45 119.15 87.45 121.65 85 123.4 82.55 125.15 79.1 125.15 75.65 125.15 73.2 123.4 70.75 121.65 70.75 119.15 70.75 116.65 73.2 114.9 75.55 113.25 78.8 113.15 75.3 112.95 69.1 111.45 62 109.75 54.8 109.75 53.35 109.75 52.65 109.95 51.95 110.15 47.75 111.3 55.85 111.6 59.55 112.5 63.5 113.45 63.5 115.25
M 161.55 93.25
L 161.7 93.55
Q 162.15 93.55 162.55 93.55 162 93.35 161.55 93.25
M 154.45 95.05
Q 154.95 96.15 154.35 98.1 155.85 94.5 157 93.15 156.7 93.25 155.65 94.05 154.65 94.8 154.45 95.05
M 118.05 161.8
L 117.1 161.9 119.4 161.75 118.05 161.8
M 135.65 70.5
Q 136.15 66.45 135.8 65.7
L 134.4 75.8
Q 135.15 74.75 135.65 70.5
M 111.25 66.95
Q 111.25 68.9 109.3 71 111.1 69.3 111.3 69 112.15 67.9 112.15 66.25 112.15 63.95 110.8 62.9 109.95 62.25 107.45 61.55 101.4 59.9 98.65 55.65
L 99 55.3
Q 98.1 56.15 97.15 56.9 97.5 58.95 97.5 60.7 97.5 61.2 90.9 68.05 87.6 71.45 84.3 74.75 81.55 74.75 80.2 73.4 79.25 72.45 77.85 69.15
L 79.25 68.35 75.55 70.2
Q 75.9 71 76.5 75.05 77.05 78.65 77.05 79.05 77.05 79.25 76.8 79.9 76.45 80.8 75.95 81.35 75.85 80.95 74.9 80.05 73.95 79.15 73.6 79.15 72.6 79.15 71.35 82.7 70.55 84.8 68.7 90.5 64.55 101.8 58.6 101.8 53.05 101.8 52.25 95.7
L 51.5 95.25
Q 48.25 101.45 46.3 105.95 48.95 101.75 49.8 100.95
L 50.05 100.8
Q 49.9 103.65 51.15 104.35 51.8 104.75 54.5 104.75 55.95 104.75 56.25 105.2 56.75 106 57.6 106.4 60.35 105.7 63.7 104.45 66.95 103.25 67.5 102.75 69.05 100.5 70.4 98.6 73.05 94.8 73.55 94.8 73.85 94.8 74.3 94.3 78.85 86.2 77.55 73.1 79.25 75.45 79.3 78.3 79.35 80.15 79.25 86.05 79.9 83.75 83.5 81.95 88.55 79.8 91.75 78.3 91.75 82.35 88.25 90.7 84.1 100.7 79.75 100.7 78.15 100.7 77.7 99.6 77.55 99.2 77.55 97.95
L 77.65 94.25
Q 77.05 95.7 76 99.75 74.8 104.5 74.8 106.3 74.8 107.9 76.3 108.55 77.5 109.1 80.1 109.1 84.45 109.1 87.1 101.85 90.2 91.25 92.6 84.55 93.95 86.75 95.1 91.6 95.9 95.25 96.95 95.25 98.4 95.25 99.45 91.1 101.2 84.15 101.65 83.05 104.5 75.85 108.35 71.95 106.4 73.65 103.15 75.45 96.2 79.4 93.85 79.4 92.85 79.4 93.1 79.25 92.75 77.7 92.75 75.65 92.75 73.55 94.65 70.75 97.05 67.25 101.45 64.5 102.05 64.15 102.55 64.15
L 105.5 64.2
Q 109.25 63.55 110.75 63.95 111.55 64.15 111.55 64.55 111.55 65.2 111.45 65.3 111.4 65.4 111.2 65.55
L 111.25 66.95
M 107.2 44.1
Q 110.2 38.85 111 37.5 108.15 41.95 102.65 51.1 104.25 49.05 107.2 44.1
M 133.7 18.85
Q 137.4 20.7 137.4 22.4 137.4 26.95 134.05 31.35 131.25 35.05 129.95 35.05 129.2 35.05 128.75 33.7 128.25 32.3 127.85 32.3 127.6 32.3 121.45 41.15 115.3 49.95 115.25 49.95 113.8 49.95 113.3 49.3 112.95 48.85 112.95 47.8 113.35 42.95 113.25 39.35 113.25 37.8 112.85 34.9
L 111.55 36.7
Q 111.55 37.05 111.05 39.8 110.55 42.55 110.55 47.45 110.55 54.6 110.55 54.7 111.3 60.15 115.15 60.15 117.05 60.15 118.95 59.7 122.7 58.85 123.75 56.8
L 124.3 55.95 124.4 59.1
Q 124.4 60.4 123.7 63.55 123.15 66.2 122.9 66.8 124.4 65.6 125.55 64.7 127.85 63 128.75 62.85
L 129.6 64.25 130.6 64.7
Q 130.35 65.9 130.8 71.65 130.55 77.05 126.35 78.4 122.1 79.75 120.4 86.95 119.95 88.7 119.3 91.65 118.65 93.7 117.65 93.7 114.05 93.7 112.9 88.25
L 112.5 82.8
Q 112.5 81.2 112.85 79.35
L 113.1 77.1
Q 111.25 79.1 106.1 89.85 101.6 99.15 100.6 101.95 106.75 102.4 114.85 102.35
L 114.85 104.2 114.4 104.2
Q 114.7 107.4 111.95 109.15 109.55 110.65 104.05 111.5 103.4 111.6 102.35 113.6 101.75 114.85 100.15 118.15 96.6 124.9 92.15 126.15 91.65 125.15 91.65 124.15 91.65 121.95 92.25 113.3 90.75 127.65 88.15 143.95 87.35 148.8 87.35 168.45 87.35 171.8 91.25 176.2 95.15 180.65 98.3 180.65 102.05 180.65 104.25 177.05 107.2 172.25 108.15 171.6 108.8 168.55 109.95 165.9 110 164.45 111.45 160.45 112.95 156.3 114.25 154.4
L 111.25 154.3
Q 108.35 155.25 105.35 158.45 101.4 162.55 101.15 162.75 103 161.75 104.6 160.2 106.6 158.15 108.05 156.7
L 108.4 156.3
Q 107.85 160.65 107.25 166.75 106.5 170.75 103.95 170.8 99.25 170.9 96.75 174.15 96.4 174.6 95.4 176.35 94.8 177.35 94.35 177.35 93.75 177.35 93.5 177.25 93.35 177.2 92.9 176.95 92.7 176.25 92.7 175.25 96.55 166.25 98.4 164.4 95.7 161.1 95.7 148.3 95.7 147.1 97 143.45 98.45 139.4 99.25 140.65 100.4 133.9 101.15 132.1 101.95 130.9 102.55 129.2 103.45 125.8 110.5 120.9 117.2 116.2 119.4 116.6
L 120.1 117.15 119.2 118.2 118.4 119.5
Q 113.7 128.7 113.4 135.7 113.35 137.85 113 138.2 112.5 138.75 110.15 138.75 109.05 138.75 108.2 137.2 107.35 135.65 105.55 135.65 103.25 135.65 102.8 137.85 101.6 143.4 99.8 147.4 98.75 145.8 98.75 144.5
L 98.95 142.1 97.9 146.75
Q 97.9 147.3 98.2 148.5
L 98.2 148.45
Q 98.65 148.9 100.05 149.9 101.5 151 102.15 151.35 103.3 151.3 107.7 150.45 111.1 149.85 114.2 149.8 118 149.8 120.7 145.7 123.4 141.6 123.4 135.8 123.1 130.15 122.2 124.2 121.45 119.1 121.45 116.85 121.45 115.8 121.75 115.3 123 113.05 124.95 108.4 124.95 112.05 124.05 117.1 125.55 112.2 125.55 109.4 125.55 108 124.4 107.7 123.7 107.55 121.65 107.65 117.25 107.55 115.75 102.5
L 115.85 100.55
Q 116.3 100.95 117.55 101.85 119.1 102.9 119.7 103.15
L 119.4 102.9
Q 120.6 103.15 123.35 101.9 126.4 100.55 127.55 98.8 130.2 92.95 130.2 90.05 129.65 86.6 129.65 83.15 129.65 80.3 132 77.45 134.35 74.55 134.35 74.05
L 134 64.7 132.75 65.95
Q 132.85 64.75 133.65 61.05 134.35 57.8 134.35 53.45 134.35 51.8 132.25 48.7 130.15 45.55 130.15 43.3 130.15 42.35 131.85 40.65 134.35 38.15 136.15 35 139.7 28.85 139.15 20.55 138.6 11.9 139.95 7.95 135.8 17 133.7 18.85
M 127.35 23.4
Q 127.2 23.5 127 23.6 123.65 25.65 122.45 26.5 122.75 26.45 124.85 25.05 126.7 23.85 127.35 23.4
M 250.7 115.35
Q 251.1 115.9 252.7 118.35 254.4 121 254.45 121.15
L 255.95 123.6
Q 252.55 117.6 250.7 115.35
M 223.85 194.6
Q 225.6 192.15 230.5 189.6 230.05 192.65 228.7 199.05 227.75 203.35 227.75 206.45 227.75 207.45 227.65 208.35 227.6 208.35 227.55 208.5 227.4 208.6 226.8 208.6 224.55 208.6 223.15 207.15 224.1 209 225.45 210.15 229.9 210.1 235.15 208 240.15 205.6 241.35 205.05
L 240.8 205.25
Q 239.35 196.25 238.5 194.15 236.15 188.7 230.2 188.7 226.15 188.7 223.1 193 221.55 195.2 220.85 197.45 220.85 200.45 221.6 203.25 221.6 197.65 223.85 194.6
M 206.55 197.3
Q 207.25 197.5 208.35 197.5 209.45 197.55 210 197.4
L 206.55 197.3
M 238 170.2
Q 238.6 172.9 238.6 173.05 239.4 175.95 240.7 178.95
L 240.2 177.5
Q 240.8 178.85 241.7 180.2 243.5 182.85 245.8 183.85
L 247 184
Q 246.85 182.1 246.65 180.4 245.1 176.35 245.1 175.7 245.1 174.85 245.6 173.7 245.55 173.4 245.5 173.15 243.7 165.15 238.5 164.6 238.25 165.45 238.1 167.2 237.95 168.95 238 170.2
M 177.65 167.2
Q 177.1 168 176.15 170 175 172.45 175 173.45 175 175.75 175.85 179.05 175.9 177.4 176.4 173.55 177.1 168.1 177.65 167.2
M 181.5 136.9
Q 180.3 136.15 178 134.25 176.8 135.5 176.75 140.9 176.7 146.5 175 148.8 175.85 148.6 176.85 148.6 177.3 148.6 178.05 148.75 178.8 148.9 179.65 148.9 171 157.1 170.85 157.1 169.35 157.1 168.2 156.2 167 155.3 167 154.1 167 152.25 168.9 151.15 171.35 150.1 172.35 149.65
L 171.05 149.7
Q 170.05 149.7 159.65 148.9 159.5 148.9 158 149.6 156.4 150.3 155.75 150.7 156.6 150.25 158.4 149.7 160 149.2 160.2 149.2 166 149.2 166 151.65 166 153.7 164.05 154.05 162.85 154.3 159.7 154.35 153.4 155.2 153.2 165.6 153.1 170.9 149.6 173.75 144.6 177.8 143.55 179.75 143.15 179.5 142.4 178.6 141.65 177.65 141.5 177.25 141.65 181.3 143.65 182.65 144.8 183.45 147.3 183.45 154.3 183.45 156.2 179.8 157.15 177.9 157.1 171.75 157.05 165.8 160.95 160.4 162.55 158.25 166.15 154.95 168.25 157.35 169.65 158.65 172.2 161.05 174.15 161.05 176.15 161.05 178.6 158 181.6 154.35 180.5 150.1
L 180.5 149.7
Q 182.1 152.05 183 153.65 184.7 156.6 184.1 158.7 184.7 158.3 186.4 157.85 184.95 162.5 182.45 165.95 182.05 166.5 178.55 170.45 176.65 172.65 176.3 174.6 175.85 177.15 177.35 181.4
L 177.1 182.4 176.9 182.65
Q 177.35 184.05 177.95 185.55 181.7 195.45 186.7 195.45 189.75 195.45 190.8 193.7 191.6 192.4 191.6 189.05 191.6 188 192.25 184.65
L 192.3 183.8
Q 193.95 185.1 194.4 187.25 194.65 188.45 194.75 191.05 195.3 195.85 201.45 197.6 199.2 193.7 199 187.85 198.85 181.35 198.3 180
L 197.8 179.05 199.35 181.25
Q 199.7 178.6 197 178.4 195.6 178.3 193.5 178.75 191.7 178.75 191.4 176.35 190.7 169.6 189.75 165.8
L 189.75 164.85
Q 190.55 165.55 192.35 168.4 193.6 170.35 195.1 170.35 197.65 170.35 198.25 166.9 198.7 161.15 199.15 156.55
L 199.2 155
Q 199.7 159.05 200.6 162.65 201.5 166.2 201.5 166.25 201.5 162.45 202.45 159.7 203.1 167.35 204.5 171.25 205.4 173.75 205.4 185.45 205.4 187.25 205.05 187.9 204.7 188.5 203.8 188.5 202.2 188.5 201.7 185.25 201.35 182.75 201.5 177.05 201.45 177.25 200.85 178.55 200.3 180.2 200.3 182.7 200.3 183.15 202.3 189.65 204.3 196.15 204.55 196.5
L 206.55 197.3
Q 211.65 196.35 212.25 196 212.5 195.7 213.4 194.2 214.25 192.8 214.4 192.5 215.05 188.1 218.3 183.5 221.75 178.7 222.8 173.25
L 223.4 170.8
Q 223.8 166.15 223.8 162.85 223.8 158.35 223.2 157 222.3 155 219.1 155 216.45 155 214.15 157.65 211.1 161.15 212 167.2 212.9 164 213.5 162.15 214.6 158.8 215.5 157.95 215.7 157.7 215.95 157.55 216.45 157.25 216.65 157.85 215.8 159.95 214.45 169.95 213 180.55 212.85 181.05
L 212.4 181.25
Q 211.85 180.15 211.45 178.85
L 211.25 179.75 210.85 180.6
Q 210 178.35 210.1 175.55 210.2 170.55 210.05 168.1
L 209.9 168.3
Q 209.05 161.85 209.05 161.15 209.05 159.7 210.55 155.9 211.9 152.55 212.25 152.1 212.25 151 212.9 150.25 213.55 149.5 214.5 149.5
L 215.35 148.55
Q 215.35 140.9 210.05 135.5 204.7 130.1 197.2 130.1 196.3 131.4 194.9 132.75 193.95 134.5 193.75 137.55 193.6 139.25 193.6 142.35
L 193.45 142.7
Q 183.25 138.05 181.5 136.9
M 192.85 152.9
Q 193.45 152.9 194.2 153.05 194.95 153.2 195.05 153.2
L 195.2 153.2
Q 193.45 154.2 192.95 157.55 192.6 159.6 192.35 165
L 192.15 165.1
Q 191.95 165.3 191.65 165.8 190.4 164.8 189.55 163.55 188.5 162.1 188.5 160.9 188.5 156.65 190.05 154.5 191.25 152.9 192.85 152.9
M 135.3 192.65
Q 134.9 194.35 134.9 195.45 134.9 200.35 140.3 203.1 145.8 204.85 145.85 204.85 151.7 204.85 153.1 201.8 153.6 200.7 153.6 195.55 153.6 192.85 152.55 192.1 151.65 191.5 147.25 189.75 148.8 191.15 150.05 191.15 147.45 192.95 144.35 196.85 143 198.6 138.35 198.6 137.25 198.6 136.35 197.3 135.25 195.75 135.25 193.15 135.25 192.9 135.3 192.65
M 140.6 182.75
Q 139.85 182.4 139.65 182.4 138.4 182.4 136.6 187.9 136.35 188.6 136.15 189.3 136.75 188.05 137.75 186.8 140.15 183.85 142.3 183.75 141.5 183.15 140.6 182.75
M 173.75 168.5
Q 173.7 168.45 173.6 168.4 173.2 168.9 173.7 168.9 174.45 168.9 173.75 168.5
M 158.5 170.7
Q 158.8 168.6 160.2 164.1 159.1 166.5 158.85 167.55 158.6 168.45 158.5 170.7
M 163.9 160.9
Q 164.05 161 164.3 161.2 163.65 160.35 163.1 159.5
L 162.15 161.2 163.9 160.9
M 171.5 169.2
Q 171.05 169.65 169.8 170.45 167.35 172.55 167.35 178.65 167.35 179.85 166.45 180.05 165.9 180.2 164.4 180.4 161.45 181.4 161.45 189.45 161.45 189.95 161.6 194.6 161.7 199.25 161.5 200.4 162.3 202.25 163.85 203.6 166.3 205.8 169.8 205.8 172.95 205.8 175.15 203.65 177.15 201.7 177.15 199.35 177.15 193.8 174.7 190.15 172.2 186.5 172.2 183.7 172.2 182.95 173.15 179.15 173.05 176.05 172.95 173.3 172.9 169.25 173.2 168.2 172.8 167.95 172.25 167.65 172.1 168.6 171.5 169.2
M 240.65 143.95
Q 242.05 144.45 242.85 144.75 245.35 145.9 248.2 149.55 250.55 152.55 251.15 154.25
L 251.65 155.1
Q 251.85 154.25 251.85 153.25 251.85 147.8 248.65 144.35 245.95 141.45 240.15 139.2 240.1 141.5 239.65 143.2 239.7 143.55 240.65 143.95
M 205.65 119.8
Q 206.35 122.3 206.45 122.4 208.35 124.05 211.9 127.3 215.7 127.3 218.4 131.4 221.1 135.45 221.1 141.2
L 226.05 146.35
Q 225.3 139.55 224.25 135.8 224 135.05 223.8 134.45 222.6 131 220.25 129.2 220.05 129.05 219.55 128.75 218.15 127.85 214.5 125.85 209.8 123.3 205.65 119.8
M 211.9 112
L 211.3 111.95
Q 211.65 112.35 216.95 116.9 222.3 121.5 223.75 123.2
L 228.35 128.6
Q 231.35 133.65 232 134.55 233.15 136.2 234.2 136.45 234.35 136.3 234.35 134.6 234.35 128.9 223.95 120.35 216.6 114.3 211.9 112
M 183.55 85.85
Q 183.5 85.9 183.3 86.15 183 86.55 183 87.15 183 88.15 183.1 88.75
L 183.55 85.85
M 185.75 83.55
Q 185.1 84.1 184.9 84.4
L 183.9 85.3
Q 186.25 88.5 186.9 90.35 187.35 91.65 187.35 94.15 187.35 95.35 187.1 95.95 186.8 96.8 185.8 97.5
L 186.65 98.5
Q 187.2 98.8 188.8 99.05 190.25 99.25 191.1 99.25 192.05 99.25 192.05 95.95 192.05 93.8 190.25 88.75 188.2 83 186.5 83 186.4 83 185.75 83.55
M 166 95.2
Q 166.05 95.65 166.05 96.25 166.05 98.1 164.85 99.6 163.65 101.1 163.65 105.4 163.65 108.4 167.55 115.35 171.85 123.05 171.95 123.5 167.6 122 165.45 118.2 164.15 115.85 160.85 109.5
L 159.95 108.8
Q 162.15 112.6 162.15 115.8 162.15 118.4 160.55 119.75 159.95 120.25 157.25 121.4 152.8 123.3 154 129.2 153.25 128.8 149.05 121.8 145.5 115.85 142.05 116.45 140.45 116.55 140.45 120.15 140.45 124.8 143.45 133.55 147.1 144.3 151.4 144.3 154 144.3 154.9 143.2 155.75 142.2 156.2 138.8 156.75 139.05 157.45 139.2
L 157.25 139.05 161 139.05
Q 166.2 137.65 168.25 134 170.25 130.35 169.45 124 169.95 125.25 170.05 125.05
L 173.05 127.3 175 127 175.05 128.75
Q 176.3 129.35 181.55 132.6 185.05 134.8 186.95 134.75
L 189.45 132.75
Q 190.85 130.8 191.95 129
L 192.35 126.95
Q 193 120.95 193.65 119.6 193.2 119.05 190.25 115.35 187.45 111.85 186.25 110.5 184.15 109.1 174.95 101.45 169.65 97.25 166 95.2
M 175.95 20.65
Q 175 16.6 174.65 15.75 175.85 20.05 176.65 23.75
L 177.1 25.15
Q 176.65 23.65 175.95 20.65
M 175.6 59.25
Q 177.4 55.65 180.35 54.55 181.55 54.15 181.7 53.9 182.1 53.45 181.65 52.25 174.85 51.3 173 53.8 171.7 55.55 171.7 62.2 171.7 64.55 172 65.7 172.4 67.5 173.65 67.7 174.05 67.25 174.2 64.75 174.3 61.85 175.6 59.25
M 166.65 5
L 165.1 4.35
Q 163.5 6.55 162.75 8.45 162 9.5 158.05 10.7 158.1 10.35 158.9 8
L 158.4 7.95
Q 158.6 7.1 159 6.1
L 158.7 5.6
Q 157.8 6.3 153.3 10.85 151.55 12.65 147.95 12.65 147.9 12.65 145.25 12.1 142.2 10.9 140.1 7.6
L 140.1 7.65
Q 140.1 11.95 141.2 16 142.3 20.05 142.3 23.9 142.3 26.65 142 29 143.1 26.65 144.5 24 145.2 25.15 146 28.3 146.7 31.05 146.7 31.8 146.7 35.3 145.1 38.5 143.1 42.4 139.95 42.4 137.35 42.4 137.35 41.25 137.35 40.55 137.75 39.3 136.8 40.4 135.45 42 134.2 43.85 134.2 46.05 134.2 47.95 135.7 47.95 137.95 47.2 140.2 45.7 144.65 42.65 145.1 38.65 145.05 45.5 142.5 50.7 141 53.85 136.75 61.2 138.95 57.55 141 55.35 144.1 51.9 148.5 49.6 142.05 56.85 140.65 59.1 136.55 65.9 138.35 72.65 139.3 76.15 138.55 77.9 138.2 78.8 136.4 80.4 132.55 83.7 133 91.85 132.25 91.1 132.1 88.55
L 132.1 84
Q 132.1 80.6 132.9 78.65 133.9 76.9 134.3 75.95
L 134.3 75.3
Q 130.3 80.2 130.3 83.8 130.3 86.3 130.85 92.1 130.85 92.35 130.9 92.65 131.15 91.45 131.2 90
L 131.3 91
Q 131.5 92.85 131.5 94.85 131.5 95.35 131.3 98.8 131.25 99.5 131.25 100.1 131.1 102.55 131.2 103.6
L 132.95 107.65
Q 134.6 109.5 135 109.95 135.65 110.55 137.35 110.55 141.5 110.55 141.5 107.3 141.5 105.55 140.45 102.9 139.35 100.4 139.25 99.95 142.85 103 144.75 104.35 148.1 106.75 150.05 106.25 151.45 101.05 151.5 100.4 151.5 96.9 150.95 94.6 150.35 93.6 149.1 89.85 147.65 85.45 147.65 83.6 147.65 83.25 148.15 80.4 149.1 75.3 150.3 67.55 150.95 54.95 154.7 48.3 155.95 46.15 157.85 44.1 160.2 41.55 160.45 41.25 156.8 38.85 157.1 34.3 157.45 28.9 156.3 27.2 155.55 26.25 154.7 24.65 153.85 23 153.85 22.4 153.85 21 154.85 18.15 156.1 14.55 157.75 13.9 161.45 13.9 164.05 11.3 166.65 8.7 166.65 5
M 153.7 29.85
L 153.75 32.4
Q 153.75 36.95 153.25 38.6 152.45 41.15 150 41.15 147.7 41.15 147.7 38.6 147.7 36.85 149.3 33.7 150.8 30.7 150.65 29.55
L 153.7 29.85 Z"/>

<path fill="#5E513E" stroke="none" d="
M 95.55 204
Q 96.2 203.9 98.1 203.45
L 94.9 203.45 95.55 204
M 113.25 195.85
L 112.25 192.6
Q 112.25 197.55 107.6 201.05 102.9 204.55 96.3 204.55 97.7 205.6 100.5 206.35 102.95 207 104.6 207 106.3 207 108.95 204.7 111.7 202.35 112.55 200 112.8 198.75 112.95 198.05 113.2 196.7 113.25 195.85
M 110.4 188.05
Q 110.4 194.25 110.3 195.45 110.75 193.65 110.4 188.05
M 19.2 186.6
L 19.9 186.95
Q 21.2 187.15 22.9 187.7 24.05 188.1 26.55 188.1 32.75 188.1 42.1 185.2 51.4 182.3 58 182.3 62.3 182.3 66.7 183.7
L 67.25 183.2 68.35 182.15
Q 69.5 177.2 67.15 176.8 66.85 176.8 64.55 176.85 62.7 176.85 61.5 176.4 67.5 178.45 74.7 168.4 81.3 159.25 81.3 153.25
L 81.85 153.95
Q 82.15 154.65 82.45 156.15 82.75 157.7 82.75 158.4 82.75 163.1 79.25 168.05 76.85 171.4 68.35 182.15
L 68.25 184.55 70.4 186.45 70.85 185.8 72.35 183.45
Q 77.45 174.25 80.25 168.95 85.45 159.25 85.45 155.85 85.45 153.7 84.1 152.15 83.2 151.15 80.15 147.7 79.2 153.75 73.05 164.35 66.85 175 64.15 175 62.2 175 60.7 174.4 58.85 173.65 58.85 172.25 58.85 170.9 59.5 169.55 60.1 168.15 60.1 167.95 60.1 167.35 58.65 166.65 55.8 165.2 55.5 165 50.85 162.1 50.85 156.8
L 50.75 149.95 47.6 159.55
Q 45.4 165.7 44.45 167.6 41.7 173.05 37.7 176.15 35.65 177.65 34.55 178.25
L 33.25 178.7
Q 37.75 178.2 42.65 173.3 47.3 168.55 48.55 168.55 51.2 168.55 51.2 171.35 51.2 175.6 37.95 181.65 24.95 187.6 19.2 186.6
M 30.65 152.3
L 30.6 151.75
Q 30.15 152.4 29.6 153.1 28.05 154.9 25.7 157 23.85 158.65 20.15 161.75 19.9 161.95 19.7 162.15 18.3 163.45 17.25 164.75 13.7 169 13.7 173.25
L 13.75 176.6 14.4 177.3 14.7 177.8
Q 14.75 174.9 18.35 169 21.8 163.3 26.15 158.55
L 26.25 158.4 27.45 157.1
Q 28.05 156.5 28.95 155.15 29.7 154 30.65 152.3
M 56.15 146
Q 51.8 143.2 51.05 142.05
L 51.05 142.1 51 142.85
Q 51 146.3 57.3 150.05 62.95 153.4 66.05 153.4 74.4 153.4 78.35 147.8 81.75 142.85 79.65 138.7 77.7 141.95 70.9 145.8 64.95 149.15 63.65 149.15 61.1 149.15 56.15 146
M 76.95 89.05
L 75.65 91.95
Q 74.85 93.55 74.3 94.3 73.85 94.8 73.55 94.8 73.05 94.8 70.4 98.6 69.05 100.5 67.5 102.75 66.95 103.25 63.7 104.45 60.35 105.7 57.6 106.4
L 57.25 106.55
Q 58.1 106.85 59.95 107.2 61.65 107.5 62.45 107.5 68.75 107.5 73.4 99 76.75 92.8 76.95 89.05
M 148.15 80.4
Q 147.65 83.25 147.65 83.6 147.65 85.45 149.1 89.85 150.35 93.6 150.95 94.6 151.5 96.9 151.5 100.4 151.45 101.05 150.05 106.25 149.4 106.8 148.45 107.2 147.5 107.6 146.95 107.65 147.6 108.2 149.7 109.3 151.95 110.45 152.65 110.45 156.6 110 157.8 110.05 158 110 158.1 109.3 157.7 107.6 157.05 106
L 155 103.55
Q 155 108.25 154.55 108.9 153.9 108.9 152.2 108.55
L 151.95 107.8
Q 152.3 106.8 152.65 104.7 153.15 101.95 153.15 99.8 153.15 97.25 149.4 87.2 150.2 88.8 152.25 93.25 154.3 97.75 154.35 98.1 154.95 96.15 154.45 95.05 152 90.05 151.25 88.05 150 84.9 150 80.45
L 150.3 67.55
Q 149.1 75.3 148.15 80.4
M 129.35 96.4
L 127.55 98.8
Q 126.4 100.55 123.35 101.9 120.6 103.15 119.4 102.9
L 119.7 103.15
Q 120.8 103.8 124.3 103.8 123.8 103.65 123.25 103.35 124.5 102.9 126.55 100.75 128.85 98.35 129.35 96.4
M 131.3 91
L 131.2 90
Q 131.15 91.45 130.9 92.65 130.75 93.25 130.6 93.75 131 96.5 130.3 99.7 129.55 102.85 128.3 103.85 129.45 105.3 129.85 106.85 130.3 108.7 130.3 112.65 130.3 118.9 129.8 124.35 129.75 124.65 129.75 125 130.1 124 130.8 122.25 132.2 118.65 132.2 116.1 132.2 115.5 132.95 114.55
L 133.7 113.75 133.75 114.35
Q 134.25 118.4 133.55 121.9 132.75 126.15 132.75 127 132.75 127.5 132.8 130.55 132.85 133.6 132.7 134.7
L 132 134.05
Q 129.75 131.55 129.4 127.6 128.6 133.2 127.2 135.45
L 126.8 136.45
Q 126.85 133.4 125.55 126.65 124.15 119.5 124.05 117.1 124.95 112.05 124.95 108.4 123 113.05 121.75 115.3 121.45 115.8 121.45 116.85 121.45 119.1 122.2 124.2 123.1 130.15 123.4 135.8
L 123.5 131.95 123.55 132.95
Q 123.6 133.2 124.9 138.7 125.85 142.75 125.85 144.75 125.85 147.3 120.45 150.4 115.9 153 114.75 153 113.15 153 110.85 152.45 108 151.75 104.55 151.45
L 102.15 151.35
Q 101.5 151 100.05 149.9 98.65 148.9 98.2 148.45
L 98.2 148.5
Q 98.8 153.9 99.8 154.45 100 154.55 111.25 154.3
L 114.25 154.4
Q 112.95 156.3 111.45 160.45 110 164.45 109.95 165.9 109.95 168.75 106.85 175.05 103.05 182.7 98.95 182.7 97.9 182.7 96.35 182.35 94.5 181.9 93.7 181.25
L 92.8 180.15
Q 92.8 182.55 94.9 184 96.95 185.3 100.6 185.55 101.55 185.55 102.35 184.95 105.7 180.9 107.6 178.75 111.1 174.9 113.7 174.9 115.55 174.9 116.8 176.35 117.7 177.5 118.5 179.9 120.1 184.7 122.65 186.4 124.65 187.7 124.65 189.1 124.65 197 119.55 203.55 115 209.35 108.25 209.7 110.75 209.9 111.5 209.9 125.7 208.45 128.15 208.1 129.45 206.45 129.45 204.85 129.45 200.6 128.95 196.7 128.4 193.55 128.4 192.85 129.85 188.25 129.85 186.8 129.85 184 128.05 180.25 126.2 176.4 126.05 172.75
L 126.5 173.7
Q 127.8 175.55 131.15 179.1 132.75 180.75 132.75 182.95 132.75 184.05 132 188.05 131.2 192.1 131.2 194.2 131.2 198.9 133.5 201.5 136.3 204.65 136.75 206.75
L 137.2 206.7 138.55 206.55
Q 138.5 206.4 135.4 202.1 132.55 198.15 132.55 196.5 132.55 186.65 134.7 183.25 138.7 176.85 141.05 168.75
L 141.8 167.35
Q 139.45 169.8 136.5 174.45 135 176.75 133.8 178.75 132.5 178.05 132.5 176.75 132.5 172.7 139.8 164.7 147.05 156.7 147.05 152.75 147.05 144.75 141.55 135 137.8 128.35 137.75 128.25 136 124.8 136 122.45 137 114.7 137 113.7 137 112.4 135.55 111.3 133.75 109.85 132.95 107.65
L 131.2 103.6
Q 131.1 102.55 131.25 100.1 131.25 99.5 131.3 98.8 131.5 95.35 131.5 94.85 131.5 92.85 131.3 91
M 135.05 143.65
Q 135.85 145.6 135.85 147.15 135.85 150.7 134.5 154.7 133.5 157.65 132.45 159.2 134 158.15 135.05 154.75 136.7 149.5 136.8 149.25 136.75 148.85 137.7 148.7
L 138.6 148.6
Q 139.35 150.45 140.15 152.05 140.6 153.3 140.6 156.1 140.6 158.65 136.75 162.4 132.9 166.15 130.25 166.15 129.6 166.15 124.65 164.75 118.8 163.15 117.1 161.9
L 118.05 161.8
Q 119.3 157.5 122.1 154.45 123.25 153.2 127.15 150.15 130 147.95 130.9 146 132.2 143.25 131.2 138.9 133.8 140.6 135.05 143.65
M 85.8 168.3
Q 85.8 170.25 86.5 171.95 87.3 173.85 88.65 174.35 86.85 171.7 86.25 168.35 85.95 166.6 85.9 162.8
L 85.8 168.3
M 214.4 192.5
Q 214.25 192.8 213.4 194.2 212.5 195.7 212.25 196 213.15 196 213.8 195 214.4 193.95 214.4 192.5
M 224.95 164.6
L 223.4 170.8 222.8 173.25
Q 222.8 183.25 219.05 190.35 215.3 197.4 210 197.4 209.45 197.55 208.35 197.5 207.25 197.5 206.55 197.3
L 204.55 196.5 203.5 196.35 203.3 196.4
Q 204.1 197.85 207.25 199.55 210.25 201.15 211.75 201.15 216.55 201.15 221.05 192 225.25 183.5 225.25 176.35
L 224.95 164.6
M 192.35 126.95
L 191.95 129
Q 192.15 128.6 193.1 125.45 194.05 122.2 194.1 121.75 193.85 122.4 193.15 124.5 192.4 126.7 192.35 126.95
M 175.05 128.75
L 175 127 173.05 127.3
Q 170.7 132.15 167.95 135.95 164.95 140.15 161 139.05
L 157.25 139.05 157.45 139.2
Q 160.4 141.2 160.9 141.45 163.55 142.95 165.8 142.95 171.6 142.95 173.95 139.2 176.25 135.55 175.05 128.75
M 217.05 118.55
Q 212.5 115.75 208.7 111.75
L 207.95 110.75
Q 209.8 113.95 219.55 128.75 220.05 129.05 220.25 129.2 222.6 131 223.8 134.45 224 135.05 224.25 135.8 231.55 147 231.55 148.85 231.55 151.45 229 151.45 228.6 151.45 224.45 148.3 220.3 145.15 219.35 145.15 218.65 145.15 217.7 146.05 217.1 146.6 215.35 148.55
L 214.5 149.5
Q 218.1 146.45 219.4 146.45
L 219.55 148.75
Q 219.55 148.95 217.2 151.05 214.75 153.25 214.1 153.25 213.4 153.25 212.25 152.1 211.9 152.55 210.55 155.9 209.05 159.7 209.05 161.15 209.05 161.85 209.9 168.3
L 210.05 168.1
Q 210.8 167.05 210.55 161.85 210.35 157.35 213.1 155.8 220.75 151.5 222.3 151.5 223.25 151.5 226.75 153.7 230.25 155.9 234.1 155.9 235.2 155.9 241.8 162.05 248.25 168.05 248.25 168.35 248.25 169.05 246.7 171.65 246 172.75 245.6 173.7 245.1 174.85 245.1 175.7 245.1 176.35 246.65 180.4 246.8 180.75 246.95 181.15 248.95 186.3 249.3 187.95 243.6 185.2 242.15 182.85 241.3 181.5 240.7 178.95 239.4 175.95 238.6 173.05 238.6 172.9 238 170.2 237.3 167.95 233.95 164.75 231 161.9 230.05 161.7
L 229.6 161.7
Q 229.1 161.8 229 162.25 230.25 164.1 232.4 169.35 234.6 174.75 234.6 176.15 234.6 176.8 233.2 177.8 231.55 178.95 231.2 179.5 231.9 180.55 234.95 183.2 238.95 186.7 240.65 188.45 248.05 196 247.1 202.2 247.65 201.7 248.15 201
L 248.55 200.35 249.2 198.05
Q 249 195.35 250.85 192.25 253.15 189.1 253.95 187.9 253.85 180.3 253.85 179.3 253.85 174.4 250.85 166.4 248.3 159.7 247.2 158.55
L 248.35 159
Q 248.35 159.2 249.7 159.35 250.95 159.55 251.8 159.55 254.5 159.55 254.5 155.6 254.5 153.85 254 152.95 253 151.3 251.85 146.65
L 251.6 146.35
Q 251.85 147.35 252.05 151.7 252.15 154.85 252.15 156.55 252.15 157.7 251.7 158.15 249.9 157.35 248.1 152.85 245.95 147.55 242.85 144.75 242.05 144.45 240.65 143.95 239.7 143.55 239.65 143.2 238.4 142.5 238.35 142.45 237.85 142.15 237.85 141.9 237.85 141.4 238.1 140.3 238.4 139 238.45 138.2 237.7 140.8 236.3 141.95 235.55 142.55 234.95 142.55 234.1 142.55 233.45 141.65 232.75 140.5 232.7 138.45 234.1 138.5 235.65 137.35 237.55 135.9 238.55 133.2
L 238.55 132.45
Q 238.45 134.1 236.95 135.35 235.35 136.65 233.55 136.65 231.8 136.65 230.9 134.5 230.3 133.15 228.35 128.6
L 223.75 123.2
Q 222.1 121.7 217.05 118.55
M 227.35 130.65
Q 233.5 139.5 231.15 146.25 228.1 139 223.85 131.25 220 124.3 219.35 122.45 222.4 123.55 227.35 130.65
M 198.95 66.55
Q 199.35 65.8 199.35 64.7 199.35 63.65 199 62.95 198.8 62.55 198.6 61.8 198.8 62.8 198.8 64 198.8 65.95 198.15 66.7 196.75 68.35 196.6 68.65 198.35 67.5 198.95 66.55
M 166.65 5
Q 166.65 8.7 164.05 11.3 161.45 13.9 157.75 13.9 159.35 14.8 162.25 16.9 163.75 18 164.95 18 168.2 18 169.45 15.7 170.3 12.85 170.95 11.8 172.8 17.1 173.05 17.85 173.85 20.4 173.85 21.8 173.85 23.4 173.05 26 172.2 28.6 172.2 29.45 172.2 30.65 178.3 36.55 184.75 42.8 185.85 47.7 187.1 53.3 193.25 56.4 196.1 57.85 197.15 58.95 197.95 59.8 198.35 61 197.65 58.4 196.6 53 200.85 57 203.15 60.35 205.1 63.2 205.1 64.65 205.1 67.45 202.2 69.85 199.4 72.15 196.5 72.15 194.55 72.15 192.8 71.65 192.55 71.55 191.05 70.95
L 192.35 70.8 193.7 70.25
Q 191.15 67.4 187.95 65.3 187.7 65.1 187.7 61.1 187.7 60.05 186.2 57.45 185 55.35 183.5 53.35
L 183.05 53
Q 183.05 55.05 184.4 62.15 184.4 64.05 181.35 67.1 178.45 70 177.1 70 176.7 70 176.25 69.95 176.35 70 176.5 70 178.75 70.35 182.8 70.35 185.45 70.35 186.05 72.45 186.6 74.55 189.75 74.5 199.6 74.3 201.6 74.95 204.95 76.05 204.95 81.4 204.95 82.8 202.55 84.2 200.15 85.6 200.15 86.35 200.15 88 202.05 90.2 203.95 92.4 203.95 94.45 203.95 95.1 203.35 96.8 202.85 98.2 202.55 98.85
L 201.9 99.5
Q 201.6 97.25 200.8 95.3
L 200.05 94.2
Q 200.05 99.4 193.8 102.7 193.25 102.7 190.6 101.2 187.8 99.65 186.65 98.5
L 185.8 97.5
Q 182.85 96.35 182.85 92.2
L 183.1 88.75
Q 183 88.15 183 87.15 183 86.55 183.3 86.15 183.5 85.9 183.55 85.85
L 183.9 85.3 184.9 84.4
Q 184.65 83.1 181.75 80.15 180.2 78.6 177.8 76.2 178.3 83.45 178.3 85.75 178.3 87.4 177.85 87.9 177.45 88.4 176.05 88.4 171.6 88.4 166.75 82.7 160.5 75.35 160.5 63.3 160.5 60.8 162 59.75 162.3 59.55 165.35 58.35 170.2 56.5 170.2 48.85 170.2 42.15 165.55 34.1 160.6 25.55 155.2 24.75 155.65 25.95 156.3 27.2 157.45 28.9 157.1 34.3 156.8 38.85 160.45 41.25 158.8 47.1 155.85 50.55 153.55 53.2 153.55 55.45 153.55 55.95 153.55 64.95 153.7 74.05 154.55 75.5 157.35 80.3 161.2 82.95 164.05 84.9 165.75 84.9 166.55 86.2 167.85 87.8 170.5 91.05 173.35 92.55 175.1 93.45 175.15 95.8 175.2 97.05 174.9 99.05 174.9 100.05 176.6 101.15 179.65 103.15 181.2 104.6 180.9 104.55 179.25 103.7
L 178.75 103.6
Q 179.4 104.25 181.6 106.05 183.5 107.6 186.25 110.5 187.45 111.85 190.25 115.35 193.2 119.05 193.65 119.6
L 194.1 120.1
Q 193.15 115.3 191.85 113.05 190.8 111.25 190.7 109.5
L 191.1 109.75
Q 195.1 112.25 195.7 113.1 197.7 115.9 197.7 123.1 197.7 125.95 194.95 128.6 194.85 128.75 188.85 133.5
L 189.45 132.75 186.95 134.75 186.15 135.25
Q 187.05 135.4 188.05 135.4 190.25 135.4 192 134.55 192.45 134.35 194.9 132.75 196.3 131.4 197.2 130.1 200.35 125.75 200.95 124.55 201.65 123.2 201.65 119.6 201.65 116 196.05 111.65 190.4 107.25 190.4 105.95 190.4 104.25 193.25 104.25
L 198.9 105.45
Q 200.5 105.45 203.75 104.65 206.7 103.85 206.75 103.85 211 103.85 214.6 105.8 218.45 107.85 219.3 110.9 221.4 110.2 221.95 109.75 223.2 108.75 223.2 106.65
L 223.1 103.25
Q 225.2 102.35 226.2 102.35 226.35 102.35 232.25 111.9 232.25 112.75 230.6 113.25 228.8 113.8 225.55 113.8 224.45 113.8 222.9 113.65 220.8 113.4 219.7 113 220.25 114.6 222.9 115.1 225.65 115.65 233.45 115.65 233.95 115.65 237.35 115.2 240.75 114.75 241.25 114.75 242.1 114.75 243.25 119 244.25 122.75 244.25 123.8 244.25 126.3 243.4 128.55 242.55 130.75 242.55 134.1 242.55 136.95 246.4 140.35 250.45 143.45 250.8 144.15 250.85 143.85 251.35 145.2 251.6 145.9 251.85 146.65 256.15 152.15 257.1 154.8 257.75 156.55 257.75 160.8 257.75 163.5 256.8 164.7 255.8 165.9 255.8 167.65 255.8 171.35 256.1 174.65 261.1 175.6 264.55 172.7 268.55 169.35 268.55 162 268.55 158.1 265.9 154.4 261.25 147.85 260.4 146.15 260.45 145.6 260.9 145.6
L 261.3 145.7
Q 261.65 145.9 264.1 147.95 265.7 149.25 266.95 149.25 267.55 149.25 267.85 149 268 148.75 268.05 148.75 268.15 148 268.15 147.2 268.15 143.7 266.25 140.35 265.05 138.35 261.9 133.8 261.7 133.9 260.1 135.25 258.4 136.55 257.7 136.55
L 257.6 136.15
Q 258.35 132.75 258.3 130.9 258.25 127.75 254.45 121.15 254.4 121 252.7 118.35 251.1 115.9 250.7 115.35 249.9 114.25 244.5 109.85 241.5 110.05 234.05 105.25 227.45 100.95 226.1 99.1 224.3 96.6 222.95 89 221.9 83.1 219.45 83.1 218.45 83.1 218.3 83.3
L 218.15 83.8
Q 218 84.45 218 85.05 218 86 219.5 97.1 220.65 97.6 221.15 98.3 221.8 99.25 221.8 101 221.8 101.9 221.35 102.5 221.1 102.8 220.5 103.3 219.4 103.2 219.35 98.35 219.35 98.6 218.1 102.95 217.9 102.65 217.65 102.2 217.55 97.55 214.8 94 212.05 90.5 212.05 90.3 212.05 89.8 212.65 89.15 213.25 88.5 213.25 87 213.25 77.65 209.45 74.75
L 210.55 75.55
Q 210.9 75.65 211.3 75.95 211.15 75.65 211.05 75.4 209.75 72.35 209.55 69.65 212.15 68.8 214.05 71.6 215.95 74.4 215.1 77.85
L 215.1 80.45
Q 214.3 80.05 213.65 79.4 213.65 79.5 213.7 79.6 215.2 83 214.85 84.35
L 215.7 84.05
Q 217.25 82.9 218.45 81.05 219.35 79.6 219.35 79.3 219.35 70.45 210.25 60.4 204.1 53.7 203.85 53.35 200.85 49.6 200.65 46.7
L 196.75 43.15 192.8 40.6
Q 192.45 41.35 192.25 41.35 192.35 45.15 192.2 45.95
L 191.95 45.65
Q 191.35 44.8 182.95 37.05 175.2 29.9 175.2 28.8 175.2 27.6 175.7 25.9 176.2 24.2 176.65 23.75 175.85 20.05 174.65 15.75 172.8 7.7 166.65 5
M 194.35 48.5
Q 194.35 47.9 194.55 47.65
L 194.7 47.55
Q 196.95 50.05 197.3 50.95 197.55 51.55 197.5 52.7
L 196.6 52.4
Q 195.9 51.4 195.1 49.95 194.35 48.65 194.35 48.5
M 241.4 113.8
L 241.95 114.7
Q 246.1 119.4 247.5 121.3 249.8 124.4 249.8 127 249.8 127.75 249.1 129.9 248.4 132.05 248.4 133.55 248.4 134.55 248.5 135.1 248.7 132.65 249.75 130.6 250.7 128.8 251.45 128.8 252.65 128.8 253.55 131.55 254.55 134.6 254.55 139.3 254.55 140.55 254.05 141 253.65 141.35 252.75 141.35 251.9 141.35 250.9 141.1 250.85 140.7 250.05 139.05 249.25 137.45 249 137.2
L 250.45 141.3 249.15 140.75
Q 247.8 140.1 246.05 137.7 244.45 135.6 244.45 134.95 245.85 129.6 245.85 128.45 245.85 123.95 244.15 120.2 241.65 114.65 241.4 113.8
M 259.5 137.8
Q 261.1 138 262.45 140.3 263.55 142.15 263.55 142.8 263.55 143.45 263.25 143.6 263.2 143.65 262.6 143.7 260.9 143.15 260.1 140.75 259.9 140.15 259.5 137.8
M 258.85 154.35
Q 260.2 155.55 261.25 158.3 262.5 161.55 262.5 165.25 262.5 167.7 261.95 169.3 261.1 171.8 259.15 171.8 258.1 171.8 257.3 171 256.35 170.1 256.35 168.4 256.35 167.2 257.45 163.85 258.5 160.8 258.85 160.3
L 258.85 154.35 Z"/>

<path fill="#4C4336" stroke="none" d="
M 131.15 179.1
Q 127.8 175.55 126.5 173.7
L 126.05 172.75
Q 126.2 176.4 128.05 180.25 129.85 184 129.85 186.8 129.85 188.25 128.4 192.85 128.4 193.55 128.95 196.7 129.45 200.6 129.45 204.85 129.45 206.45 128.15 208.1
L 136.15 206.85 136.75 206.75
Q 136.3 204.65 133.5 201.5 131.2 198.9 131.2 194.2 131.2 192.1 132 188.05 132.75 184.05 132.75 182.95 132.75 180.75 131.15 179.1
M 110.45 187.65
L 110.4 187.75 110.4 188.05
Q 110.75 193.65 110.3 195.45
L 109.95 196.3
Q 108.5 198.5 106.2 200.05 103.8 201.65 100.1 202.85
L 98.1 203.45
Q 96.2 203.9 95.55 204
L 96.3 204.55
Q 102.9 204.55 107.6 201.05 112.25 197.55 112.25 192.6 112.2 191.4 111.85 189.25 111.35 186.35 111.35 186.3
L 111.35 184.95 110.45 187.65
M 123.5 131.95
L 123.4 135.8
Q 123.4 141.6 120.7 145.7 118 149.8 114.2 149.8 113 150.45 107.7 150.45 103.3 151.3 102.15 151.35
L 104.55 151.45
Q 108 151.75 110.85 152.45 113.15 153 114.75 153 115.9 153 120.45 150.4 125.85 147.3 125.85 144.75 125.85 142.75 124.9 138.7 123.6 133.2 123.55 132.95
L 123.5 131.95
M 132.95 114.55
Q 132.2 115.5 132.2 116.1 132.2 118.65 130.8 122.25 130.1 124 129.75 125 129.35 126 129.35 126.15 129.35 126.9 129.4 127.6 129.75 131.55 132 134.05
L 132.7 134.7
Q 132.85 133.6 132.8 130.55 132.75 127.5 132.75 127 132.75 126.15 133.55 121.9 134.25 118.4 133.75 114.35
L 133.7 113.75 132.95 114.55
M 66.7 183.7
L 68.25 184.55 68.35 182.15 67.25 183.2 66.75 183.7 66.7 183.7
M 61.5 176.4
Q 62.7 176.85 64.55 176.85 66.85 176.8 67.15 176.8 69.5 177.2 68.35 182.15 76.85 171.4 79.25 168.05 82.75 163.1 82.75 158.4 82.75 157.7 82.45 156.15 82.15 154.65 81.85 153.95
L 81.3 153.25
Q 81.3 159.25 74.7 168.4 67.5 178.45 61.5 176.4
M 154.35 98.1
Q 154.3 97.75 152.25 93.25 150.2 88.8 149.4 87.2 153.15 97.25 153.15 99.8 153.15 101.95 152.65 104.7 152.3 106.8 151.95 107.8
L 152.2 108.55
Q 153.9 108.9 154.55 108.9 155 108.25 155 103.55 154.35 102.25 154.25 102 154 101.35 154 100.7 154 100.1 154.2 99.05
L 154.35 98.1
M 130.6 92.15
Q 129.35 95.85 129.35 96.4 128.85 98.35 126.55 100.75 124.5 102.9 123.25 103.35 123.8 103.65 124.3 103.8 125.1 104 126.4 104.05 127.6 104.05 128.3 103.85 129.55 102.85 130.3 99.7 131 96.5 130.6 93.75
L 130.6 92.15
M 119.4 161.75
L 117.1 161.9
Q 118.8 163.15 124.65 164.75 129.6 166.15 130.25 166.15 132.9 166.15 136.75 162.4 140.6 158.65 140.6 156.1 140.6 153.3 140.15 152.05 139.35 150.45 138.6 148.6
L 137.7 148.7
Q 136.75 148.85 136.8 149.25 136.7 149.5 135.05 154.75 134 158.15 132.45 159.2 132.1 159.3 128.55 160.3 124.2 161.35 119.4 161.75
M 250.8 144.15
Q 251 145.2 251.6 146.35
L 251.85 146.65
Q 251.6 145.9 251.35 145.2 250.85 143.85 250.8 144.15
M 255.95 123.6
L 254.45 121.15
Q 258.25 127.75 258.3 130.9 258.35 132.75 257.6 136.15
L 257.7 136.55
Q 258.4 136.55 260.1 135.25 261.7 133.9 261.9 133.8 265.05 138.35 266.25 140.35 268.15 143.7 268.15 147.2 268.15 148 268.05 148.75 268 148.75 267.85 149 267.55 149.25 266.95 149.25 265.7 149.25 264.1 147.95 261.65 145.9 261.3 145.7
L 260.9 145.6
Q 260.45 145.6 260.4 146.15 261.25 147.85 265.9 154.4 268.55 158.1 268.55 162 268.55 169.35 264.55 172.7 261.1 175.6 256.1 174.65 255.8 171.35 255.8 167.65 255.8 165.9 256.8 164.7 257.75 163.5 257.75 160.8 257.75 156.55 257.1 154.8 256.15 152.15 251.85 146.65 253 151.3 254 152.95 254.5 153.85 254.5 155.6 254.5 159.55 251.8 159.55 250.95 159.55 249.7 159.35 248.35 159.2 248.35 159
L 247.2 158.55
Q 248.3 159.7 250.85 166.4 253.85 174.4 253.85 179.3 253.85 180.3 253.95 187.9
L 255.85 185.55
Q 257.4 184.2 261.3 182.9 266.05 181.5 268.4 180.75 277.25 177.8 277.25 172.95 277.25 168.45 275.75 165.45 274.25 162.4 274.25 162.1 274.25 160.6 274.6 159.5 275.2 157.5 277.25 154.6 277.65 152.8 277.3 152.15 272.95 145.5 266.2 137.25 259.45 128.95 255.95 123.6
M 206.55 197.3
L 210 197.4
Q 215.3 197.4 219.05 190.35 222.8 183.25 222.8 173.25 221.75 178.7 218.3 183.5 215.05 188.1 214.4 192.5 214.4 193.95 213.8 195 213.15 196 212.25 196 211.65 196.35 206.55 197.3
M 214.5 149.5
Q 213.55 149.5 212.9 150.25 212.25 151 212.25 152.1 213.4 153.25 214.1 153.25 214.75 153.25 217.2 151.05 219.55 148.95 219.55 148.75
L 219.4 146.45
Q 218.1 146.45 214.5 149.5
M 191.1 109.75
L 190.7 109.5
Q 190.8 111.25 191.85 113.05 193.15 115.3 194.1 120.1
L 194.1 121.75
Q 194.05 122.2 193.1 125.45 192.15 128.6 191.95 129 190.85 130.8 189.45 132.75
L 188.85 133.5
Q 194.85 128.75 194.95 128.6 197.7 125.95 197.7 123.1 197.7 115.9 195.7 113.1 195.1 112.25 191.1 109.75
M 239.15 131.65
L 238.55 133.2
Q 237.55 135.9 235.65 137.35 234.1 138.5 232.7 138.45 232.75 140.5 233.45 141.65 234.1 142.55 234.95 142.55 235.55 142.55 236.3 141.95 237.7 140.8 238.45 138.2 238.7 137.25 238.95 135.15 239.15 133.1 239.15 131.65
M 231.15 146.25
Q 233.5 139.5 227.35 130.65 222.4 123.55 219.35 122.45 220 124.3 223.85 131.25 228.1 139 231.15 146.25
M 223.1 103.25
L 223.2 106.65
Q 223.2 108.75 221.95 109.75 221.4 110.2 219.3 110.9
L 218.95 111.05
Q 218.55 111.35 218.55 111.95 218.55 112 219.7 113 220.8 113.4 222.9 113.65 224.45 113.8 225.55 113.8 228.8 113.8 230.6 113.25 232.25 112.75 232.25 111.9 226.35 102.35 226.2 102.35 225.2 102.35 223.1 103.25
M 203.85 53.35
Q 204.1 53.7 210.25 60.4 219.35 70.45 219.35 79.3 219.35 79.6 218.45 81.05 217.25 82.9 215.7 84.05
L 214.85 84.35
Q 215.2 83 213.7 79.6 213.65 79.5 213.65 79.4 212.45 76.8 211.3 75.95 210.9 75.65 210.55 75.55
L 209.45 74.75
Q 213.25 77.65 213.25 87 213.25 88.5 212.65 89.15 212.05 89.8 212.05 90.3 212.05 90.5 214.8 94 217.55 97.55 217.65 102.2 217.9 102.65 218.1 102.95 219.35 98.6 219.35 98.35
L 219.45 97.1 219.5 97.1
Q 218 86 218 85.05 218 84.45 218.15 83.8
L 218.3 83.3
Q 218.45 83.1 219.45 83.1 221.9 83.1 222.95 89 224.3 96.6 226.1 99.1 227.45 100.95 234.05 105.25 241.5 110.05 244.5 109.85 234.95 106.05 230.2 99 227.3 94.6 224.1 84.1 220.6 72.5 217.25 66.3 211.4 55.55 200.65 46.7 200.85 49.6 203.85 53.35
M 196.6 53
Q 197.65 58.4 198.35 61 198.45 61.4 198.6 61.8 198.8 62.55 199 62.95 199.35 63.65 199.35 64.7 199.35 65.8 198.95 66.55 198.35 67.5 196.6 68.65
L 195.75 69.2
Q 194.65 69.8 193.7 70.25
L 192.35 70.8 191.05 70.95
Q 192.55 71.55 192.8 71.65 194.55 72.15 196.5 72.15 199.4 72.15 202.2 69.85 205.1 67.45 205.1 64.65 205.1 63.2 203.15 60.35 200.85 57 196.6 53
M 175.7 25.9
Q 175.2 27.6 175.2 28.8 175.2 29.9 182.95 37.05 191.35 44.8 191.95 45.65
L 192.2 45.95
Q 192.35 45.15 192.25 41.35 192.45 41.35 192.8 40.6
L 196.75 43.15
Q 196.1974609375 42.4486328125 187.95 37.65
L 185.55 36.1
Q 185.1 35.8 182.15 33.9 179.15 31.2 177.4 26.05
L 177.1 25.15 176.65 23.75
Q 176.2 24.2 175.7 25.9
M 241.95 114.7
L 241.4 113.8
Q 241.65 114.65 244.15 120.2 245.85 123.95 245.85 128.45 245.85 129.6 244.45 134.95 244.45 135.6 246.05 137.7 247.8 140.1 249.15 140.75
L 250.45 141.3 249 137.2
Q 248.6 136.5 248.5 135.1 248.4 134.55 248.4 133.55 248.4 132.05 249.1 129.9 249.8 127.75 249.8 127 249.8 124.4 247.5 121.3 246.1 119.4 241.95 114.7 Z"/>

<path fill="#928164" stroke="none" d="
M 158.35 149.95
L 159.35 149.45 155.65 151 154.7 151.4
Q 152.7 152.6 151.75 154.05 150.8 155.45 149.65 156.15 149.1 156.6 148.55 158.1 147.9 159.75 147.85 159.8 147.45 160.6 146 164.65 144.2 169.65 144.2 170.95
L 144.2 171.05 144.8 171.15
Q 147.35 165.75 149.85 160.8 154.85 151.1 158.35 149.95
M 118.4 119.5
L 119.2 118.2 119.4 116.6
Q 117.2 116.2 110.5 120.9 103.45 125.8 102.55 129.2
L 102.6 130.35
Q 105.65 129.15 110 126.2 114.4 123.15 118.4 119.5
M 114.4 104.2
L 114.85 104.2 114.85 102.35
Q 106.75 102.4 100.6 101.95 97.05 103 94.6 106.85 93.15 109.2 92.75 111.05 98.9 108.2 103.05 107.05 108.85 105.7 114.4 104.2
M 99.8 188.7
Q 99.85 188.95 100.4 189.25 101.05 189.6 101.75 189.6 103.7 189.6 105.1 188.9 107 187.9 107.15 185.9
L 107.15 185.3 104.65 184.95
Q 104.3 185.05 103.1 185.55 101.85 186.05 101.7 186.2 101.6 186.25 100.85 187.25 100 188.3 99.8 188.7
M 78.25 175.4
Q 77.25 176.65 77.05 177.2
L 77.1 177.75 77.1 177.8
Q 77.3 177.8 79.25 177.75 81.7 177.7 83.4 177.1 83.55 177 83.75 176.95 84.3 176.7 84.6 176.45 85 176.05 85 175.6 84.95 175.2 84.1 174.75 84.05 174.7 84 174.7 82.95 174.15 80.95 173.6 80.35 173.7 79.6 173.95 79.2 174.25 78.25 175.4
M 48.7 148.2
Q 48.45 147.5 47.4 145.65
L 47.15 145.45
Q 44.65 145.45 42.4 145.8 40.05 146.7 37.6 149.1
L 30.05 155.3 28.9 156.1 27.45 157.1 26.25 158.4 26.2 158.5 26.3 158.75 26.75 158.75
Q 27.6 158.25 37.95 155.2 46.25 152.75 48.75 149.05 48.9 148.65 48.7 148.2
M 51.5 95.25
L 52.25 95.7
Q 56.3 92.85 58.4 88.65 59.25 86.85 60.8 81.65 61.05 80.85 61.3 80.15 56.65 85.95 51.5 95.25
M 74.45 70.55
L 74.1 70.65
Q 70.45 71.2 66.4 74.75 68.15 74.2 70.5 74.2 71.85 74.2 72.55 75.05 73.25 76.05 73.8 76.45 74.05 75.9 74.3 73.5 74.55 71.05 74.45 70.55
M 157 93.15
Q 155.85 94.5 154.35 98.1
L 154.2 99.05
Q 154 100.1 154 100.7 154 101.35 154.25 102 154.35 102.25 155 103.55
L 157.05 106 159.95 108.8 160.85 109.5 161.3 109.85
Q 160.25 107.65 160.05 107 159.2 104.6 159.2 101.8 159.2 99.3 160.25 97.85 161.45 96.25 161.7 93.55
L 161.55 93.25
Q 159.9 92.5 157 93.15
M 113.05 82.3
Q 113.4 82.1 115.7 77.65 117.85 73.4 122.1 71.5 126.35 69.6 126.75 69.3 128.8 67.8 129.6 64.25
L 128.75 62.85
Q 127.85 63 125.55 64.7 124.4 65.6 122.9 66.8 121.15 67.75 117.5 71.6 113.75 75.45 113.1 77.1
L 112.85 79.35 113.05 82.3
M 110.75 63.95
Q 109.25 63.55 105.5 64.2
L 102.55 64.15
Q 102.05 64.15 101.45 64.5 100.95 65.1 97.4 67.8 94 70.85 93.3 73.75 107.15 69.1 111.2 65.55 111.4 65.4 111.45 65.3 111.55 65.2 111.55 64.55 111.55 64.15 110.75 63.95
M 130.15 23.4
Q 129.2 23.3 127.35 23.4 126.7 23.85 124.85 25.05 122.75 26.45 122.45 26.5 119.6 28.6 117.6 29.9 116.5 30.75 112.85 34.9 113.25 37.8 113.25 39.35 113.3 39.5 113.55 40.2 113.85 40.9 114.45 40.9 118.5 40.9 119.95 37
L 120.85 34
Q 121.3 32.4 121.9 31.95 125.2 29.5 129.4 27.35 131.85 26.1 131.85 25.3 131.85 23.55 130.15 23.4
M 151.95 2.3
Q 151.95 2.2 153.05 0 147.3 0.1 145.7 0.6 143.95 1.15 141.8 3.8 142.15 4.8 142.6 7.05 143.3 8.8 145.4 8.8 148.5 8.8 150.35 7.65 154.45 5.1 154.95 4.85 154.6 4.55 153 3.9 151.95 3.45 151.95 2.3
M 160.2 2.15
Q 159.7 4.8 159 6.1 158.6 7.1 158.4 7.95
L 158.9 8
Q 159.95 7.7 161.6 6.1 163 4.75 163.65 3.75
L 160.2 2.15 Z"/>

<path fill="#827155" stroke="none" d="
M 116.9 197.95
Q 118.9 196.9 118.9 191.8 118.9 185.15 113.6 183.45 113.35 183.65 113.15 186.55 113 189 113 190.2
L 113.25 195.85
Q 113.2 196.7 112.95 198.05 112.8 198.75 112.55 200
L 112.7 201
Q 113.6 199.5 114.9 198.8 116.3 198.25 116.9 197.95
M 84 174.7
Q 84 174.55 84 174.4
L 84.05 173.25 82.95 173.4 80.95 173.6
Q 82.95 174.15 84 174.7
M 108.05 156.7
Q 106.6 158.15 104.6 160.2 103 161.75 101.15 162.75 101.05 162.8 100.25 163.25 99.35 163.75 98.4 164.4 96.55 166.25 92.7 175.25 92.7 176.25 92.9 176.95 93.35 177.2 93.5 177.25 93.75 177.35 94.35 177.35 94.8 177.35 95.4 176.35 96.4 174.6 96.75 174.15 99.25 170.9 103.95 170.8 106.5 170.75 107.25 166.75 107.85 160.65 108.4 156.3
L 108.05 156.7
M 98.75 144.5
Q 98.75 145.8 99.8 147.4 101.6 143.4 102.8 137.85 103.25 135.65 105.55 135.65 107.35 135.65 108.2 137.2 109.05 138.75 110.15 138.75 112.5 138.75 113 138.2 113.35 137.85 113.4 135.7 113.7 128.7 118.4 119.5 114.4 123.15 110 126.2 105.65 129.15 102.6 130.35
L 102.55 129.2
Q 101.95 130.9 101.15 132.1 100.4 133.9 99.25 140.65
L 98.95 142.1 98.75 144.5
M 119.2 118.2
L 120.1 117.15 119.4 116.6 119.2 118.2
M 111.95 109.15
Q 114.7 107.4 114.4 104.2 108.85 105.7 103.05 107.05 98.9 108.2 92.75 111.05
L 92.25 113.3
Q 91.65 121.95 91.65 124.15 91.65 125.15 92.15 126.15 96.6 124.9 100.15 118.15 101.75 114.85 102.35 113.6 103.4 111.6 104.05 111.5 109.55 110.65 111.95 109.15
M 96.05 190.6
Q 93.1 194.1 93.1 195.65 93.1 198.6 97.2 198.6 101.5 198.6 104.9 196.4 109.3 193.55 109.3 188.1 109.3 187.95 108.85 187.4 108.25 186.65 107.15 185.9 107 187.9 105.1 188.9 103.7 189.6 101.75 189.6 101.05 189.6 100.4 189.25 99.85 188.95 99.8 188.7 100 188.3 100.85 187.25 101.6 186.25 101.7 186.2 99.25 186.85 96.05 190.6
M 79.25 177.75
Q 77.3 177.8 77.1 177.8 76.75 178.25 74.3 181.4 73.35 182.6 73.35 184.6 73.35 185.6 73.6 187.3
L 76.6 187.4
Q 79.7 187.4 81.15 185.5 83 183.1 83.75 176.95 83.55 177 83.4 177.1 81.7 177.7 79.25 177.75
M 26.75 158.75
L 25.5 160.25
Q 25.05 160.85 23.6 162.95 21.85 165.45 21.25 166.6 20.95 167.3 20.05 169.6 19.1 172.15 19.1 172.3
L 19.55 172.4
Q 21.8 172.35 25.9 172.65 29.7 172.95 30.2 172.95 32 172.95 33.75 170.05 38.55 162.2 42.35 156.95 42.55 157.45 42.65 157.65 42.85 158 43.45 158 45.1 158 47.2 154.8 49 152.05 49 151.45 49 149.8 48.75 149.05 46.25 152.75 37.95 155.2 27.6 158.25 26.75 158.75
M 17.8 145.95
Q 17.75 146 17.7 146.15 15.45 150.25 13.65 152.85
L 13.4 153.1
Q 11.7 155.1 8.25 157.85 6.25 159.45 6.25 161.45 6.25 161.65 6.3 161.8 6.3 162.1 6.45 162.25 6.65 162.5 6.65 162.55
L 8 162.8
Q 14.7 161.8 20.05 156.8 25.35 151.8 25.35 146.6
L 25.1 144.3
Q 24.65 144.25 22.5 143.95 20.6 143.7 20.05 143.7 18.85 143.7 17.8 145.95
M 77.45 129.9
Q 77.4 129.75 77.3 129.65 77.1 129.35 76.65 129.2 76.5 129.1 76.25 129.05 75.55 128.85 74.9 128.65 76.7 130.45 77.55 131.55 77.5 130.2 77.45 129.9
M 79.35 113.8
Q 78.8 113.35 78.8 113.15 75.55 113.25 73.2 114.9 70.75 116.65 70.75 119.15 70.75 121.65 73.2 123.4 75.65 125.15 79.1 125.15 82.55 125.15 85 123.4 87.45 121.65 87.45 119.15 87.45 116.65 85 114.9 84.1 114.25 83 113.85 82 114.45 81 114.4 80.1 114.4 79.35 113.8
M 62.15 119.05
Q 63.5 118.25 63.5 115.25 63.5 113.45 59.55 112.5 55.85 111.6 47.75 111.3
L 43.25 111.7
Q 43.1 111.9 42.9 112.1 42.45 112.6 41.8 113.15 41.3 113.65 37.45 116.15 32.15 119.55 28.8 121.85 28.35 122.05 26.15 124.1 23.3 127.15 23.45 127.4 25 128.7 25.4 128.7 28.95 128.7 31.8 127.2 40.25 122.75 45.15 120.6 49.95 118.45 58.4 119.35 61.15 119.65 62.15 119.05
M 75.55 70.2
L 75.35 70.3 74.45 70.55
Q 74.55 71.05 74.3 73.5 74.05 75.9 73.8 76.45 73.25 76.05 72.55 75.05 71.85 74.2 70.5 74.2 68.15 74.2 66.4 74.75 64.65 75.25 63.55 76.35 62.3 77.55 61.3 80.15 61.05 80.85 60.8 81.65 59.25 86.85 58.4 88.65 56.3 92.85 52.25 95.7 53.05 101.8 58.6 101.8 64.55 101.8 68.7 90.5 70.55 84.8 71.35 82.7 72.6 79.15 73.6 79.15 73.95 79.15 74.9 80.05 75.85 80.95 75.95 81.35 76.45 80.8 76.8 79.9 77.05 79.25 77.05 79.05 77.05 78.65 76.5 75.05 75.9 71 75.55 70.2
M 141 55.35
Q 138.95 57.55 136.75 61.2 135.9 63.25 135.8 65.7 136.15 66.45 135.65 70.5 135.15 74.75 134.4 75.8
L 134.3 75.95
Q 133.9 76.9 132.9 78.65 132.1 80.6 132.1 84
L 132.1 88.55
Q 132.25 91.1 133 91.85 132.55 83.7 136.4 80.4 138.2 78.8 138.55 77.9 139.3 76.15 138.35 72.65 136.55 65.9 140.65 59.1 142.05 56.85 148.5 49.6 144.1 51.9 141 55.35
M 115.7 77.65
Q 113.4 82.1 113.05 82.3
L 112.85 79.35
Q 112.5 81.2 112.5 82.8
L 112.9 88.25
Q 114.05 93.7 117.65 93.7 118.65 93.7 119.3 91.65 119.95 88.7 120.4 86.95 122.1 79.75 126.35 78.4 130.55 77.05 130.8 71.65 130.35 65.9 130.6 64.7
L 129.6 64.25
Q 128.8 67.8 126.75 69.3 126.35 69.6 122.1 71.5 117.85 73.4 115.7 77.65
M 91.75 78.3
Q 88.55 79.8 83.5 81.95 79.9 83.75 79.25 86.05 79.15 86.65 78.35 89.75 77.7 92.3 77.65 94.25
L 77.55 97.95
Q 77.55 99.2 77.7 99.6 78.15 100.7 79.75 100.7 84.1 100.7 88.25 90.7 91.75 82.35 91.75 78.3
M 96.85 57.15
Q 89.95 62.05 84.5 65.35 81.7 67.05 79.25 68.35
L 77.85 69.15
Q 79.25 72.45 80.2 73.4 81.55 74.75 84.3 74.75 87.6 71.45 90.9 68.05 97.5 61.2 97.5 60.7 97.5 58.95 97.15 56.9
L 96.85 57.15
M 108.35 71.95
Q 108.65 71.55 109 71.25 109.15 71.1 109.3 71 111.25 68.9 111.25 66.95
L 111.2 65.55
Q 107.15 69.1 93.3 73.75 94 70.85 97.4 67.8 100.95 65.1 101.45 64.5 97.05 67.25 94.65 70.75 92.75 73.55 92.75 75.65 92.75 77.7 93.1 79.25 92.85 79.4 93.85 79.4 96.2 79.4 103.15 75.45 106.4 73.65 108.35 71.95
M 138.25 38.6
Q 138 38.9 137.75 39.3 137.35 40.55 137.35 41.25 137.35 42.4 139.95 42.4 143.1 42.4 145.1 38.5 146.7 35.3 146.7 31.8 146.7 31.05 146 28.3 145.2 25.15 144.5 24 143.1 26.65 142 29 141.15 34.9 138.25 38.6
M 130.9 21
Q 129.4 22.1 127.7 23.2
L 127.55 23.3
Q 127.45 23.35 127.35 23.4 129.2 23.3 130.15 23.4 131.85 23.55 131.85 25.3 131.85 26.1 129.4 27.35 125.2 29.5 121.9 31.95 121.3 32.4 120.85 34
L 119.95 37
Q 118.5 40.9 114.45 40.9 113.85 40.9 113.55 40.2 113.3 39.5 113.25 39.35 113.35 42.95 112.95 47.8 112.95 48.85 113.3 49.3 113.8 49.95 115.25 49.95 115.3 49.95 121.45 41.15 127.6 32.3 127.85 32.3 128.25 32.3 128.75 33.7 129.2 35.05 129.95 35.05 131.25 35.05 134.05 31.35 137.4 26.95 137.4 22.4 137.4 20.7 133.7 18.85
L 130.9 21
M 158.7 5.6
L 159 6.1
Q 159.7 4.8 160.2 2.15
L 158.55 1.45
Q 157.85 1.05 155.3 0.35
L 153.05 0
Q 151.95 2.2 151.95 2.3 151.95 3.45 153 3.9 154.6 4.55 154.95 4.85 154.45 5.1 150.35 7.65 148.5 8.8 145.4 8.8 143.3 8.8 142.6 7.05 142.15 4.8 141.8 3.8
L 140.1 7.55 140.1 7.6
Q 142.2 10.9 145.25 12.1 147.9 12.65 147.95 12.65 151.55 12.65 153.3 10.85 157.8 6.3 158.7 5.6
M 230.5 189.6
Q 225.6 192.15 223.85 194.6 221.6 197.65 221.6 203.25 221.8 204 222.05 204.7 222.55 206.05 223.15 207.15 224.55 208.6 226.8 208.6 227.4 208.6 227.55 208.5 227.6 208.35 227.65 208.35 227.75 207.45 227.75 206.45 227.75 203.35 228.7 199.05 230.05 192.65 230.5 189.6
M 215.95 157.55
Q 215.7 157.7 215.5 157.95 214.6 158.8 213.5 162.15 212.9 164 212 167.2 211.9 167.4 211.65 169.35 211.35 171.35 211.35 172.05
L 211.45 178.85
Q 211.85 180.15 212.4 181.25
L 212.85 181.05
Q 213 180.55 214.45 169.95 215.8 159.95 216.65 157.85 216.45 157.25 215.95 157.55
M 164.05 154.05
Q 166 153.7 166 151.65 166 149.2 160.2 149.2 160 149.2 158.4 149.7 156.6 150.25 155.75 150.7
L 155.1 151.2 155.65 151 159.35 149.45 158.35 149.95
Q 154.85 151.1 149.85 160.8 147.35 165.75 144.8 171.15
L 144.2 171.05 144.2 170.95
Q 142.1 175 141.5 177.25 141.65 177.65 142.4 178.6 143.15 179.5 143.55 179.75 144.6 177.8 149.6 173.75 153.1 170.9 153.2 165.6 153.4 155.2 159.7 154.35 162.85 154.3 164.05 154.05
M 175 148.8
Q 174.75 148.95 172.35 149.65 171.35 150.1 168.9 151.15 167 152.25 167 154.1 167 155.3 168.2 156.2 169.35 157.1 170.85 157.1 171 157.1 179.65 148.9 178.8 148.9 178.05 148.75 177.3 148.6 176.85 148.6 175.85 148.6 175 148.8
M 202.45 159.7
Q 201.5 162.45 201.5 166.25
L 201.5 177.05
Q 201.35 182.75 201.7 185.25 202.2 188.5 203.8 188.5 204.7 188.5 205.05 187.9 205.4 187.25 205.4 185.45 205.4 173.75 204.5 171.25 203.1 167.35 202.45 159.7
M 186.4 157.85
Q 184.7 158.3 184.1 158.7 183 159.65 180.9 162.75 178.45 166.3 177.65 167.2 177.1 168.1 176.4 173.55 175.9 177.4 175.85 179.05 175.8 179.4 175.8 179.65 175.8 181.35 176.3 182.15 176.85 182.65 176.85 182.7
L 176.9 182.65 177.1 182.4 177.35 181.4
Q 175.85 177.15 176.3 174.6 176.65 172.65 178.55 170.45 182.05 166.5 182.45 165.95 184.95 162.5 186.4 157.85
M 194.2 153.05
Q 193.45 152.9 192.85 152.9 191.25 152.9 190.05 154.5 188.5 156.65 188.5 160.9 188.5 162.1 189.55 163.55 190.4 164.8 191.65 165.8 191.95 165.3 192.15 165.1
L 192.35 165
Q 192.6 159.6 192.95 157.55 193.45 154.2 195.2 153.2
L 195.05 153.2
Q 194.95 153.2 194.2 153.05
M 136.15 189.3
Q 135.35 190.95 135.3 192.65 135.25 192.9 135.25 193.15 135.25 195.75 136.35 197.3 137.25 198.6 138.35 198.6 143 198.6 144.35 196.85 147.45 192.95 150.05 191.15 148.8 191.15 147.25 189.75 145.95 188.8 144.5 187.35 143.8 186.6 143.35 185.75
L 142.3 183.75
Q 140.15 183.85 137.75 186.8 136.75 188.05 136.15 189.3
M 169.45 164.3
Q 165.6 162.05 164.3 161.2 164.05 161 163.9 160.9
L 162.15 161.2
Q 161.9 161.5 161.1 162.7 160.3 163.9 160.2 164.1 158.8 168.6 158.5 170.7 158.4 173.7 159.05 180.65 159.05 180.7 157.8 183.85 156.5 186.95 156.5 189.25 156.5 192.7 157.35 195.4 158.6 199.45 161.5 200.4 161.7 199.25 161.6 194.6 161.45 189.95 161.45 189.45 161.45 181.4 164.4 180.4 165.9 180.2 166.45 180.05 167.35 179.85 167.35 178.65 167.35 172.55 169.8 170.45 171.05 169.65 171.5 169.2 172.1 168.6 172.25 167.65 172.25 167.35 172.25 167.05 172.25 165.9 169.45 164.3
M 211.9 127.3
Q 213.9 130 217 136.1 219.25 140.6 220.9 141.45
L 221.1 141.2
Q 221.1 135.45 218.4 131.4 215.7 127.3 211.9 127.3
M 183.9 85.3
L 183.55 85.85 183.1 88.75 182.85 92.2
Q 182.85 96.35 185.8 97.5 186.8 96.8 187.1 95.95 187.35 95.35 187.35 94.15 187.35 91.65 186.9 90.35 186.25 88.5 183.9 85.3
M 166 95.2
Q 165.85 93.7 165.15 93.6 164.55 93.5 162.55 93.55 162.15 93.55 161.7 93.55 161.45 96.25 160.25 97.85 159.2 99.3 159.2 101.8 159.2 104.6 160.05 107 160.25 107.65 161.3 109.85
L 160.85 109.5
Q 164.15 115.85 165.45 118.2 167.6 122 171.95 123.5 171.85 123.05 167.55 115.35 163.65 108.4 163.65 105.4 163.65 101.1 164.85 99.6 166.05 98.1 166.05 96.25 166.05 95.65 166 95.2
M 162.75 8.45
Q 163.5 6.55 165.1 4.35
L 163.65 3.75
Q 163 4.75 161.6 6.1 159.95 7.7 158.9 8 158.1 10.35 158.05 10.7 162 9.5 162.75 8.45
M 153.75 32.4
L 153.7 29.85 150.65 29.55
Q 150.8 30.7 149.3 33.7 147.7 36.85 147.7 38.6 147.7 41.15 150 41.15 152.45 41.15 153.25 38.6 153.75 36.95 153.75 32.4 Z"/>

<path fill="#6C5D45" stroke="none" d="
M 114.2 149.8
Q 111.1 149.85 107.7 150.45 113 150.45 114.2 149.8
M 97 143.45
Q 95.7 147.1 95.7 148.3 95.7 161.1 98.4 164.4 99.35 163.75 100.25 163.25 101.05 162.8 101.15 162.75 101.4 162.55 105.35 158.45 108.35 155.25 111.25 154.3 100 154.55 99.8 154.45 98.8 153.9 98.2 148.5 97.9 147.3 97.9 146.75
L 98.95 142.1 99.25 140.65
Q 98.45 139.4 97 143.45
M 126.4 104.05
Q 125.1 104 124.3 103.8 120.8 103.8 119.7 103.15 119.1 102.9 117.55 101.85 116.3 100.95 115.85 100.55
L 115.75 102.5
Q 117.25 107.55 121.65 107.65 123.7 107.55 124.4 107.7 125.55 108 125.55 109.4 125.55 112.2 124.05 117.1 124.15 119.5 125.55 126.65 126.85 133.4 126.8 136.45
L 127.2 135.45
Q 128.6 133.2 129.4 127.6 129.35 126.9 129.35 126.15 129.35 126 129.75 125 129.75 124.65 129.8 124.35 130.3 118.9 130.3 112.65 130.3 108.7 129.85 106.85 129.45 105.3 128.3 103.85 127.6 104.05 126.4 104.05
M 80.25 190.55
L 80.15 190.9
Q 79.35 192.25 76.35 192.25 74.05 192.25 72.1 189.95
L 72.25 190.9
Q 72.4 191.7 72.6 192.75 73.25 194.4 78.8 197.65 84.95 201.2 99.75 208.3
L 102.55 209.05
Q 103.65 209.3 107.25 209.6 107.75 209.65 108.25 209.7 115 209.35 119.55 203.55 124.65 197 124.65 189.1 124.65 187.7 122.65 186.4 120.1 184.7 118.5 179.9 117.7 177.5 116.8 176.35 115.55 174.9 113.7 174.9 111.1 174.9 107.6 178.75 105.7 180.9 102.35 184.95 107.8 184.75 108.75 185.6 110.2 186.8 110.2 193.3 110.2 194.3 109.95 196.3
L 110.3 195.45
Q 110.4 194.25 110.4 188.05
L 110.4 187.75 110.45 187.65 111.35 184.95 111.35 186.3
Q 111.35 186.35 111.85 189.25 112.2 191.4 112.25 192.6
L 113.25 195.85 113 190.2
Q 113 189 113.15 186.55 113.35 183.65 113.6 183.45 118.9 185.15 118.9 191.8 118.9 196.9 116.9 197.95 116.3 198.25 114.9 198.8 113.6 199.5 112.7 201
L 112.55 200
Q 111.7 202.35 108.95 204.7 106.3 207 104.6 207 102.95 207 100.5 206.35 97.7 205.6 96.3 204.55
L 95.55 204 94.9 203.45 98.1 203.45 100.1 202.85
Q 93.05 204.45 85.8 199.55 83.4 197.9 81.45 195.85 79.85 194.1 79.85 193.65 79.85 193.35 80.25 190.55
M 70.85 185.8
L 70.4 186.45 71.5 188.1
Q 71.2 186.4 70.85 185.8
M 16.4 184
L 16.7 184.5
Q 17.4 185.25 18.4 186
L 19.2 186.6
Q 24.95 187.6 37.95 181.65 51.2 175.6 51.2 171.35 51.2 168.55 48.55 168.55 47.3 168.55 42.65 173.3 37.75 178.2 33.25 178.7
L 34.55 178.25
Q 35.65 177.65 37.7 176.15 34.5 177.3 25.95 180.05 21.55 181.45 16.4 184
M 17.25 164.75
Q 16.45 165.55 15.65 166.4 11.55 170.6 8 174.25
L 10.85 175.1 12.95 176.05 13.75 176.6 13.7 173.25
Q 13.7 169 17.25 164.75
M 26.2 158.5
L 26.15 158.55
Q 21.8 163.3 18.35 169 14.75 174.9 14.7 177.8 15.05 178.6 15.3 180.55 17 178.55 18.25 173.95 19.55 169 21.25 166.6 21.85 165.45 23.6 162.95 25.05 160.85 25.5 160.25
L 26.3 158.75 26.2 158.5
M 28.9 156.1
Q 28.9 155.6 28.95 155.15 28.05 156.5 27.45 157.1
L 28.9 156.1
M 76.25 129.05
Q 76.5 129.1 76.65 129.2 74.25 127.5 73.15 126.85
L 73.5 127.25
Q 74.25 128 74.9 128.65 75.55 128.85 76.25 129.05
M 135.85 147.15
Q 135.85 145.6 135.05 143.65 133.8 140.6 131.2 138.9 132.2 143.25 130.9 146 130 147.95 127.15 150.15 123.25 153.2 122.1 154.45 119.3 157.5 118.05 161.8
L 119.4 161.75
Q 124.2 161.35 128.55 160.3 132.1 159.3 132.45 159.2 133.5 157.65 134.5 154.7 135.85 150.7 135.85 147.15
M 111.55 36.7
L 111.55 36.65 111 37.5
Q 110.2 38.85 107.2 44.1 104.25 49.05 102.65 51.1 100.6 54 99.5 54.85
L 99 55.3 98.65 55.65
Q 101.4 59.9 107.45 61.55 109.95 62.25 110.8 62.9 112.15 63.95 112.15 66.25 112.15 67.9 111.3 69 111.1 69.3 109.3 71 109.15 71.1 109 71.25 108.65 71.55 108.35 71.95 104.5 75.85 101.65 83.05 101.2 84.15 99.45 91.1 98.4 95.25 96.95 95.25 95.9 95.25 95.1 91.6 93.95 86.75 92.6 84.55 90.2 91.25 87.1 101.85 84.45 109.1 80.1 109.1 77.5 109.1 76.3 108.55 74.8 107.9 74.8 106.3 74.8 104.5 76 99.75 77.05 95.7 77.65 94.25 77.7 92.3 78.35 89.75 79.15 86.65 79.25 86.05 79.35 80.15 79.3 78.3 79.25 75.45 77.55 73.1 78.85 86.2 74.3 94.3 74.85 93.55 75.65 91.95
L 76.95 89.05
Q 76.75 92.8 73.4 99 68.75 107.5 62.45 107.5 61.65 107.5 59.95 107.2 58.1 106.85 57.25 106.55
L 57.6 106.4
Q 56.75 106 56.25 105.2 55.95 104.75 54.5 104.75 51.8 104.75 51.15 104.35 49.9 103.65 50.05 100.8
L 49.8 100.95
Q 48.95 101.75 46.3 105.95 46.05 106.5 45.85 107.05 44.65 110 43.8 111 43.55 111.3 43.25 111.7
L 47.75 111.3
Q 51.95 110.15 52.65 109.95 53.35 109.75 54.8 109.75 62 109.75 69.1 111.45 75.3 112.95 78.8 113.15 78.8 113.35 79.35 113.8 80.1 114.4 81 114.4 82 114.45 83 113.85 84.85 112.75 86.8 109.6 87.5 107.2 88.15 105.3 89.45 101.55 91.3 100.65
L 91.7 100.75
Q 91.95 101.15 92 101.25 92.05 101.45 92.05 102.15 92.05 102.8 89.8 109.1 87.5 115.4 87.5 117.2 87.5 126.65 87 128.3 86.1 131.35 81.55 131.35 79.8 131.35 78.4 130.4 77.85 130 77.3 129.65 77.4 129.75 77.45 129.9 77.5 130.2 77.55 131.55 77.8 131.85 78 132.15 79.35 134.2 79.65 138.7 81.75 142.85 78.35 147.8 74.4 153.4 66.05 153.4 62.95 153.4 57.3 150.05 51 146.3 51 142.85
L 51.05 142.1
Q 50.45 140.95 49.8 140.55 49.25 140.2 48.2 140.2 47.2 140.2 46 140.3
L 49.35 140.8 48.8 140.95
Q 46.6 141.05 42.95 143.1 39.3 145.1 37.95 145.1 37.45 145.1 36.05 143.8 34.3 142.2 34.3 140.35 34.55 138.75 35.05 137.2 36 134.15 37.1 134.15 37.35 134.15 39.2 132.1
L 39.55 131.45 38.75 131.9
Q 33.7 135.4 32.4 142.05 30.85 149.85 27.9 153.25 24.9 156.65 19.7 162.15 19.9 161.95 20.15 161.75 23.85 158.65 25.7 157 28.05 154.9 29.6 153.1 30.85 150.55 34.25 148.6 37.8 146.5 42.4 145.8 44.65 145.45 47.15 145.45
L 47.4 145.65
Q 48.2 146.15 48.85 147.8 49.4 149.35 49.4 150.6 49.4 152.15 48.75 154.95 48.7 155.15 47.6 159.55
L 50.75 149.95 50.85 156.8
Q 50.85 162.1 55.5 165 55.8 165.2 58.65 166.65 60.1 167.35 60.1 167.95 60.1 168.15 59.5 169.55 58.85 170.9 58.85 172.25 58.85 173.65 60.7 174.4 62.2 175 64.15 175 66.85 175 73.05 164.35 79.2 153.75 80.15 147.7 83.2 151.15 84.1 152.15 85.45 153.7 85.45 155.85 85.45 159.25 80.25 168.95 77.45 174.25 72.35 183.45
L 77.05 177.2
Q 77.25 176.65 78.25 175.4 79.2 174.25 79.6 173.95 80.2 173.15 80.35 173.05 80.6 172.85 81.3 172.85 81.95 172.85 82.5 173.15
L 82.95 173.4 84.05 173.25 84 174.4
Q 84.05 174.55 84.1 174.75 84.95 175.2 85 175.6 85 176.05 84.6 176.45 85.35 179.2 86.95 185.15 89.45 193.25 91.35 193.25 91.65 193.25 95.05 190.25 99.35 186.5 100.6 185.55 96.95 185.3 94.9 184 92.8 182.55 92.8 180.15
L 93.7 181.25
Q 94.5 181.9 96.35 182.35 97.9 182.7 98.95 182.7 103.05 182.7 106.85 175.05 109.95 168.75 109.95 165.9 108.8 168.55 108.15 171.6 107.2 172.25 104.25 177.05 102.05 180.65 98.3 180.65 95.15 180.65 91.25 176.2 87.35 171.8 87.35 168.45 87.35 148.8 88.15 143.95 90.75 127.65 92.25 113.3
L 92.75 111.05
Q 93.15 109.2 94.6 106.85 97.05 103 100.6 101.95 101.6 99.15 106.1 89.85 111.25 79.1 113.1 77.1 113.75 75.45 117.5 71.6 121.15 67.75 122.9 66.8 123.15 66.2 123.7 63.55 124.4 60.4 124.4 59.1
L 124.3 55.95 123.75 56.8
Q 122.7 58.85 118.95 59.7 117.05 60.15 115.15 60.15 111.3 60.15 110.55 54.7 110.55 54.6 110.55 47.45 110.55 42.55 111.05 39.8 111.55 37.05 111.55 36.7
M 86.5 171.95
Q 85.8 170.25 85.8 168.3
L 85.9 162.8
Q 85.95 166.6 86.25 168.35 86.85 171.7 88.65 174.35 87.3 173.85 86.5 171.95
M 140.1 7.65
L 140.1 7.6 140.1 7.55
Q 140 7.75 139.95 7.95 138.6 11.9 139.15 20.55 139.7 28.85 136.15 35 134.35 38.15 131.85 40.65 130.15 42.35 130.15 43.3 130.15 45.55 132.25 48.7 134.35 51.8 134.35 53.45 134.35 57.8 133.65 61.05 132.85 64.75 132.75 65.95
L 134 64.7 134.35 74.05
Q 134.35 74.55 132 77.45 129.65 80.3 129.65 83.15 129.65 86.6 130.2 90.05 130.2 92.95 127.55 98.8
L 129.35 96.4
Q 129.35 95.85 130.6 92.15
L 130.6 93.75
Q 130.75 93.25 130.9 92.65 130.85 92.35 130.85 92.1 130.3 86.3 130.3 83.8 130.3 80.2 134.3 75.3
L 134.3 75.95 134.4 75.8 135.8 65.7
Q 135.9 63.25 136.75 61.2 141 53.85 142.5 50.7 145.05 45.5 145.1 38.65 144.65 42.65 140.2 45.7 137.95 47.2 135.7 47.95 134.2 47.95 134.2 46.05 134.2 43.85 135.45 42 136.8 40.4 137.75 39.3 138 38.9 138.25 38.6 141.15 34.9 142 29 142.3 26.65 142.3 23.9 142.3 20.05 141.2 16 140.1 11.95 140.1 7.65
M 240.7 178.95
Q 241.3 181.5 242.15 182.85 243.6 185.2 249.3 187.95 248.95 186.3 246.95 181.15 246.8 180.75 246.65 180.4 246.85 182.1 247 184
L 245.8 183.85
Q 243.5 182.85 241.7 180.2 240.8 178.85 240.2 177.5
L 240.7 178.95
M 170.05 125.05
Q 169.95 125.25 169.45 124 170.25 130.35 168.25 134 166.2 137.65 161 139.05 164.95 140.15 167.95 135.95 170.7 132.15 173.05 127.3
L 170.05 125.05
M 181.55 132.6
Q 176.3 129.35 175.05 128.75 176.25 135.55 173.95 139.2 171.6 142.95 165.8 142.95 163.55 142.95 160.9 141.45 160.4 141.2 157.45 139.2 156.75 139.05 156.2 138.8 155.75 142.2 154.9 143.2 154 144.3 151.4 144.3 147.1 144.3 143.45 133.55 140.45 124.8 140.45 120.15 140.45 116.55 142.05 116.45 145.5 115.85 149.05 121.8 153.25 128.8 154 129.2 152.8 123.3 157.25 121.4 159.95 120.25 160.55 119.75 162.15 118.4 162.15 115.8 162.15 112.6 159.95 108.8
L 157.05 106
Q 157.7 107.6 158.1 109.3 158 110 157.8 110.05 156.6 110 152.65 110.45 151.95 110.45 149.7 109.3 147.6 108.2 146.95 107.65 147.5 107.6 148.45 107.2 149.4 106.8 150.05 106.25 148.1 106.75 144.75 104.35 142.85 103 139.25 99.95 139.35 100.4 140.45 102.9 141.5 105.55 141.5 107.3 141.5 110.55 137.35 110.55 135.65 110.55 135 109.95 134.6 109.5 132.95 107.65 133.75 109.85 135.55 111.3 137 112.4 137 113.7 137 114.7 136 122.45 136 124.8 137.75 128.25 137.8 128.35 141.55 135 147.05 144.75 147.05 152.75 147.05 156.7 139.8 164.7 132.5 172.7 132.5 176.75 132.5 178.05 133.8 178.75 135 176.75 136.5 174.45 139.45 169.8 141.8 167.35
L 141.05 168.75
Q 138.7 176.85 134.7 183.25 132.55 186.65 132.55 196.5 132.55 198.15 135.4 202.1 138.5 206.4 138.55 206.55 141.05 206.65 145.75 207.45 150.25 208.2 151.9 208.2 156.35 208.2 158.7 208.95 161.05 210 162.45 210.65 168.1 213.15 184.7 213.5 180.55 212.8 180.55 210.85 180.55 208.9 182.45 208.5 184.7 208.45 185.4 208.25
L 185.3 207.85
Q 184.8 207.4 182.9 205.85 181.3 204.1 181.3 201.9 181.3 200.75 181.7 199.55 183.1 201.7 186.05 202.4 187.2 202.65 189.1 202.65 191.1 202.65 196.1 201.25 201.1 199.8 202.7 199.8 203.45 199.8 204.55 201.35 206.05 203.4 208.8 204.8 213.25 207.1 214.25 208.75 213.9 209.35 208.55 210.4 202.65 211.55 197.95 211.55 191.6 211.55 190.55 211.35 189.35 211.1 186.45 209.1
L 186.5 209.7
Q 186.65 210.25 188.5 211.8 190.15 213.2 190.65 213.45 192.65 213.4 201.8 212.8
L 202.5 212.75
Q 224.35 210.25 225.45 210.15 224.1 209 223.15 207.15 222.55 206.05 222.05 204.7 221.8 204 221.6 203.25 220.85 200.45 220.85 197.45 221.55 195.2 223.1 193 226.15 188.7 230.2 188.7 236.15 188.7 238.5 194.15 239.35 196.25 240.8 205.25
L 241.35 205.05 247.1 202.2
Q 248.05 196 240.65 188.45 238.95 186.7 234.95 183.2 231.9 180.55 231.2 179.5 231.55 178.95 233.2 177.8 234.6 176.8 234.6 176.15 234.6 174.75 232.4 169.35 230.25 164.1 229 162.25 229.1 161.8 229.6 161.7
L 230.05 161.7
Q 231 161.9 233.95 164.75 237.3 167.95 238 170.2 237.95 168.95 238.1 167.2 238.25 165.45 238.5 164.6 243.7 165.15 245.5 173.15 245.55 173.4 245.6 173.7 246 172.75 246.7 171.65 248.25 169.05 248.25 168.35 248.25 168.05 241.8 162.05 235.2 155.9 234.1 155.9 230.25 155.9 226.75 153.7 223.25 151.5 222.3 151.5 220.75 151.5 213.1 155.8 210.35 157.35 210.55 161.85 210.8 167.05 210.05 168.1 210.2 170.55 210.1 175.55 210 178.35 210.85 180.6
L 211.25 179.75 211.45 178.85 211.35 172.05
Q 211.35 171.35 211.65 169.35 211.9 167.4 212 167.2 211.1 161.15 214.15 157.65 216.45 155 219.1 155 222.3 155 223.2 157 223.8 158.35 223.8 162.85 223.8 166.15 223.4 170.8
L 224.95 164.6 225.25 176.35
Q 225.25 183.5 221.05 192 216.55 201.15 211.75 201.15 210.25 201.15 207.25 199.55 204.1 197.85 203.3 196.4
L 203.5 196.35 204.55 196.5
Q 204.3 196.15 202.3 189.65 200.3 183.15 200.3 182.7 200.3 180.2 200.85 178.55 201.45 177.25 201.5 177.05
L 201.5 166.25
Q 201.5 166.2 200.6 162.65 199.7 159.05 199.2 155
L 199.15 156.55
Q 198.7 161.15 198.25 166.9 197.65 170.35 195.1 170.35 193.6 170.35 192.35 168.4 190.55 165.55 189.75 164.85
L 189.75 165.8
Q 190.7 169.6 191.4 176.35 191.7 178.75 193.5 178.75 195.6 178.3 197 178.4 199.7 178.6 199.35 181.25
L 197.8 179.05 198.3 180
Q 198.85 181.35 199 187.85 199.2 193.7 201.45 197.6 195.3 195.85 194.75 191.05 194.65 188.45 194.4 187.25 193.95 185.1 192.3 183.8
L 192.25 184.65
Q 191.6 188 191.6 189.05 191.6 192.4 190.8 193.7 189.75 195.45 186.7 195.45 181.7 195.45 177.95 185.55 177.35 184.05 176.9 182.65
L 176.85 182.7
Q 176.85 182.65 176.3 182.15 175.8 181.35 175.8 179.65 175.8 179.4 175.85 179.05 175 175.75 175 173.45 175 172.45 176.15 170 177.1 168 177.65 167.2 178.45 166.3 180.9 162.75 183 159.65 184.1 158.7 184.7 156.6 183 153.65 182.1 152.05 180.5 149.7
L 180.5 150.1
Q 181.6 154.35 178.6 158 176.15 161.05 174.15 161.05 172.2 161.05 169.65 158.65 168.25 157.35 166.15 154.95 162.55 158.25 160.95 160.4 157.05 165.8 157.1 171.75 157.15 177.9 156.2 179.8 154.3 183.45 147.3 183.45 144.8 183.45 143.65 182.65 141.65 181.3 141.5 177.25 142.1 175 144.2 170.95 144.2 169.65 146 164.65 147.45 160.6 147.85 159.8 147.9 157.95 147.85 155.7 147.75 153.7 147.75 153.4 148.8 154.75 149.65 156.15 150.8 155.45 151.75 154.05 152.7 152.6 154.7 151.4
L 155.1 151.2 155.75 150.7
Q 156.4 150.3 158 149.6 159.5 148.9 159.65 148.9 170.05 149.7 171.05 149.7
L 172.35 149.65
Q 174.75 148.95 175 148.8 176.7 146.5 176.75 140.9 176.8 135.5 178 134.25 180.3 136.15 181.5 136.9 183.25 138.05 193.45 142.7
L 193.6 142.35
Q 193.6 139.25 193.75 137.55 193.95 134.5 194.9 132.75 192.45 134.35 192 134.55 190.25 135.4 188.05 135.4 187.05 135.4 186.15 135.25
L 186.95 134.75
Q 185.05 134.8 181.55 132.6
M 164.3 161.2
Q 165.6 162.05 169.45 164.3 172.25 165.9 172.25 167.05 172.25 167.35 172.25 167.65 172.8 167.95 173.2 168.2 172.9 169.25 172.95 173.3 173.05 176.05 173.15 179.15 172.2 182.95 172.2 183.7 172.2 186.5 174.7 190.15 177.15 193.8 177.15 199.35 177.15 201.7 175.15 203.65 172.95 205.8 169.8 205.8 166.3 205.8 163.85 203.6 162.3 202.25 161.5 200.4 158.6 199.45 157.35 195.4 156.5 192.7 156.5 189.25 156.5 186.95 157.8 183.85 159.05 180.7 159.05 180.65 158.4 173.7 158.5 170.7 158.6 168.45 158.85 167.55 159.1 166.5 160.2 164.1 160.3 163.9 161.1 162.7 161.9 161.5 162.15 161.2
L 163.1 159.5
Q 163.65 160.35 164.3 161.2
M 173.6 168.4
Q 173.7 168.45 173.75 168.5 174.45 168.9 173.7 168.9 173.2 168.9 173.6 168.4
M 139.65 182.4
Q 139.85 182.4 140.6 182.75 141.5 183.15 142.3 183.75
L 143.35 185.75
Q 143.8 186.6 144.5 187.35 145.95 188.8 147.25 189.75 151.65 191.5 152.55 192.1 153.6 192.85 153.6 195.55 153.6 200.7 153.1 201.8 151.7 204.85 145.85 204.85 145.8 204.85 140.3 203.1 134.9 200.35 134.9 195.45 134.9 194.35 135.3 192.65 135.35 190.95 136.15 189.3 136.35 188.6 136.6 187.9 138.4 182.4 139.65 182.4
M 194.1 120.1
L 193.65 119.6
Q 193 120.95 192.35 126.95 192.4 126.7 193.15 124.5 193.85 122.4 194.1 121.75
L 194.1 120.1
M 241.25 114.75
Q 240.75 114.75 237.35 115.2 233.95 115.65 233.45 115.65 225.65 115.65 222.9 115.1 220.25 114.6 219.7 113 218.55 112 218.55 111.95 218.55 111.35 218.95 111.05
L 219.3 110.9
Q 218.45 107.85 214.6 105.8 211 103.85 206.75 103.85 206.7 103.85 203.75 104.65 200.5 105.45 198.9 105.45
L 193.25 104.25
Q 190.4 104.25 190.4 105.95 190.4 107.25 196.05 111.65 201.65 116 201.65 119.6 201.65 123.2 200.95 124.55 200.35 125.75 197.2 130.1 204.7 130.1 210.05 135.5 215.35 140.9 215.35 148.55 217.1 146.6 217.7 146.05 218.65 145.15 219.35 145.15 220.3 145.15 224.45 148.3 228.6 151.45 229 151.45 231.55 151.45 231.55 148.85 231.55 147 224.25 135.8 225.3 139.55 226.05 146.35
L 221.1 141.2 220.9 141.45
Q 219.25 140.6 217 136.1 213.9 130 211.9 127.3 208.35 124.05 206.45 122.4 206.35 122.3 205.65 119.8 209.8 123.3 214.5 125.85 218.15 127.85 219.55 128.75 209.8 113.95 207.95 110.75
L 208.7 111.75
Q 212.5 115.75 217.05 118.55 222.1 121.7 223.75 123.2 222.3 121.5 216.95 116.9 211.65 112.35 211.3 111.95
L 211.9 112
Q 216.6 114.3 223.95 120.35 234.35 128.9 234.35 134.6 234.35 136.3 234.2 136.45 233.15 136.2 232 134.55 231.35 133.65 228.35 128.6 230.3 133.15 230.9 134.5 231.8 136.65 233.55 136.65 235.35 136.65 236.95 135.35 238.45 134.1 238.55 132.45
L 238.55 133.2 239.15 131.65
Q 239.15 133.1 238.95 135.15 238.7 137.25 238.45 138.2 238.4 139 238.1 140.3 237.85 141.4 237.85 141.9 237.85 142.15 238.35 142.45 238.4 142.5 239.65 143.2 240.1 141.5 240.15 139.2 245.95 141.45 248.65 144.35 251.85 147.8 251.85 153.25 251.85 154.25 251.65 155.1
L 251.15 154.25
Q 250.55 152.55 248.2 149.55 245.35 145.9 242.85 144.75 245.95 147.55 248.1 152.85 249.9 157.35 251.7 158.15 252.15 157.7 252.15 156.55 252.15 154.85 252.05 151.7 251.85 147.35 251.6 146.35 251 145.2 250.8 144.15 250.45 143.45 246.4 140.35 242.55 136.95 242.55 134.1 242.55 130.75 243.4 128.55 244.25 126.3 244.25 123.8 244.25 122.75 243.25 119 242.1 114.75 241.25 114.75
M 221.15 98.3
Q 220.65 97.6 219.5 97.1
L 219.45 97.1 219.35 98.35
Q 219.4 103.2 220.5 103.3 221.1 102.8 221.35 102.5 221.8 101.9 221.8 101 221.8 99.25 221.15 98.3
M 214.05 71.6
Q 212.15 68.8 209.55 69.65 209.75 72.35 211.05 75.4 211.15 75.65 211.3 75.95 212.45 76.8 213.65 79.4 214.3 80.05 215.1 80.45
L 215.1 77.85
Q 215.95 74.4 214.05 71.6
M 165.15 93.6
Q 165.85 93.7 166 95.2 169.65 97.25 174.95 101.45 184.15 109.1 186.25 110.5 183.5 107.6 181.6 106.05 179.4 104.25 178.75 103.6
L 179.25 103.7
Q 180.9 104.55 181.2 104.6 179.65 103.15 176.6 101.15 174.9 100.05 174.9 99.05 175.2 97.05 175.15 95.8 175.1 93.45 173.35 92.55 170.5 91.05 167.85 87.8 166.55 86.2 165.75 84.9 164.05 84.9 161.2 82.95 157.35 80.3 154.55 75.5 153.7 74.05 153.55 64.95 153.55 55.95 153.55 55.45 153.55 53.2 155.85 50.55 158.8 47.1 160.45 41.25 160.2 41.55 157.85 44.1 155.95 46.15 154.7 48.3 150.95 54.95 150.3 67.55
L 150 80.45
Q 150 84.9 151.25 88.05 152 90.05 154.45 95.05 154.65 94.8 155.65 94.05 156.7 93.25 157 93.15 159.9 92.5 161.55 93.25 162 93.35 162.55 93.55 164.55 93.5 165.15 93.6
M 169.45 15.7
Q 168.2 18 164.95 18 163.75 18 162.25 16.9 159.35 14.8 157.75 13.9 156.1 14.55 154.85 18.15 153.85 21 153.85 22.4 153.85 23 154.7 24.65 155.55 26.25 156.3 27.2 155.65 25.95 155.2 24.75 160.6 25.55 165.55 34.1 170.2 42.15 170.2 48.85 170.2 56.5 165.35 58.35 162.3 59.55 162 59.75 160.5 60.8 160.5 63.3 160.5 75.35 166.75 82.7 171.6 88.4 176.05 88.4 177.45 88.4 177.85 87.9 178.3 87.4 178.3 85.75 178.3 83.45 177.8 76.2 180.2 78.6 181.75 80.15 184.65 83.1 184.9 84.4 185.1 84.1 185.75 83.55 186.4 83 186.5 83 188.2 83 190.25 88.75 192.05 93.8 192.05 95.95 192.05 99.25 191.1 99.25 190.25 99.25 188.8 99.05 187.2 98.8 186.65 98.5 187.8 99.65 190.6 101.2 193.25 102.7 193.8 102.7 200.05 99.4 200.05 94.2
L 200.8 95.3
Q 201.6 97.25 201.9 99.5
L 202.55 98.85
Q 202.85 98.2 203.35 96.8 203.95 95.1 203.95 94.45 203.95 92.4 202.05 90.2 200.15 88 200.15 86.35 200.15 85.6 202.55 84.2 204.95 82.8 204.95 81.4 204.95 76.05 201.6 74.95 199.6 74.3 189.75 74.5 186.6 74.55 186.05 72.45 185.45 70.35 182.8 70.35 178.75 70.35 176.5 70 176.35 70 176.25 69.95 176.7 70 177.1 70 178.45 70 181.35 67.1 184.4 64.05 184.4 62.15 183.05 55.05 183.05 53
L 183.5 53.35
Q 185 55.35 186.2 57.45 187.7 60.05 187.7 61.1 187.7 65.1 187.95 65.3 191.15 67.4 193.7 70.25 194.65 69.8 195.75 69.2
L 196.6 68.65
Q 196.75 68.35 198.15 66.7 198.8 65.95 198.8 64 198.8 62.8 198.6 61.8 198.45 61.4 198.35 61 197.95 59.8 197.15 58.95 196.1 57.85 193.25 56.4 187.1 53.3 185.85 47.7 184.75 42.8 178.3 36.55 172.2 30.65 172.2 29.45 172.2 28.6 173.05 26 173.85 23.4 173.85 21.8 173.85 20.4 173.05 17.85 172.8 17.1 170.95 11.8 170.3 12.85 169.45 15.7
M 180.35 54.55
Q 177.4 55.65 175.6 59.25 174.3 61.85 174.2 64.75 174.05 67.25 173.65 67.7 172.4 67.5 172 65.7 171.7 64.55 171.7 62.2 171.7 55.55 173 53.8 174.85 51.3 181.65 52.25 182.1 53.45 181.7 53.9 181.55 54.15 180.35 54.55
M 261.25 158.3
Q 260.2 155.55 258.85 154.35
L 258.85 160.3
Q 258.5 160.8 257.45 163.85 256.35 167.2 256.35 168.4 256.35 170.1 257.3 171 258.1 171.8 259.15 171.8 261.1 171.8 261.95 169.3 262.5 167.7 262.5 165.25 262.5 161.55 261.25 158.3
M 262.45 140.3
Q 261.1 138 259.5 137.8 259.9 140.15 260.1 140.75 260.9 143.15 262.6 143.7 263.2 143.65 263.25 143.6 263.55 143.45 263.55 142.8 263.55 142.15 262.45 140.3
M 251.45 128.8
Q 250.7 128.8 249.75 130.6 248.7 132.65 248.5 135.1 248.6 136.5 249 137.2 249.25 137.45 250.05 139.05 250.85 140.7 250.9 141.1 251.9 141.35 252.75 141.35 253.65 141.35 254.05 141 254.55 140.55 254.55 139.3 254.55 134.6 253.55 131.55 252.65 128.8 251.45 128.8
M 194.55 47.65
Q 194.35 47.9 194.35 48.5 194.35 48.65 195.1 49.95 195.9 51.4 196.6 52.4
L 197.5 52.7
Q 197.55 51.55 197.3 50.95 196.95 50.05 194.7 47.55
L 194.55 47.65 Z"/>
</g>
</defs>

<g transform="matrix( 1, 0, 0, 1, 0,0) ">
<use xlink:href="#Layer0_0_FILL"/>
</g>
</svg>
