
<svg xmlns="http://www.w3.org/2000/svg" version="1.1" xmlns:xlink="http://www.w3.org/1999/xlink" preserveAspectRatio="none" x="0px" y="0px" width="436px" height="214px" viewBox="0 0 436 214">
<defs>
<g id="Layer0_0_FILL">
<path fill="#76664D" stroke="none" d="
M 189 203.7
L 188.35 204.15 188.35 204.15 189 203.7
M 280.8 208.55
Q 280.25 208.45 279.7 208.35
L 277.8 208.25
Q 279.2 208.35 280.8 208.55
M 294 210.6
Q 294.735546875 210.73515625 295.5 210.85
L 294.7 210.7
Q 294.6625 210.7 294 210.6
M 135.25 176.65
Q 135 177.55 134.65 178.5 135.35 177.15 136.7 175 136.1 175.8 135.25 176.65
M 138.85 171.6
L 138.3 171.95
Q 137.95 172.65 137.3 174 138 172.9 138.85 171.6
M 105.4 137.5
Q 107.65 135.2 110.6 132.5 123.3 120.8 128.05 119.2 118.95 121.7 113.3 127.9 110.7 130.75 105.4 137.5
M 76.45 175.05
Q 76.25 175.5 74.95 177.95 73.6 180.75 72.75 183.9 73.25 184.5 74.15 184.9 74.9 185.2 75.5 185.2 76.75 185.2 78.15 184.35 79.95 183.25 81.65 182.85
L 82.7 182.9
Q 81.65 183.6 77.65 186.85 73.2 189.9 68.2 190.45
L 67.1 190.55 62.35 191.3
Q 63.15 191.2 67.25 190.8 71.45 190.4 72.15 190.4 73.1 190.4 80.6 192.55 88.05 194.7 91.5 194.7 92.15 194.7 95.85 194.3 99.3 193.9 99.85 193.8 102.8 189.25 108.8 181.9 113.4 176.25 114.4 175.25
L 115.4 173.6 113.35 175.35 112.4 175.9 111.45 176.2
Q 117.85 168.1 118.1 165.65 118.2 164.8 117.8 162.45 117.3 159.75 117.3 157 117.3 154 118.1 153.1 119.95 151.5 122.1 148.8 123.65 145 125.15 143.75 127.15 142.6 128.7 141.4
L 129.65 139.1 129.65 140.8
Q 131.3 139.8 132.05 139.15 132.4 138.85 133.55 137.7
L 133.9 136.85 133.15 138.8
Q 135.2 138.8 136.7 135.45 137.5 133.5 137.9 131.15 135.05 133.45 124.05 140.3 109.45 149.4 108.55 149.4 107.55 149.4 97.65 149.1 97.55 149.15 97.55 148.15 97.55 147.8 97.7 147.35 96.8 148.65 96.35 149.7 95.4 151.9 91 162.6 87.55 170.3 84.2 171.7 83.15 172.1 80.85 172.7 78.55 173.45 76.45 175.05
M 105.7 168.8
Q 112.15 169.6 113 169.65 103.5 177.9 94.9 179.25 89.5 180.05 76.35 180.05 76.55 177.7 82.35 173.4 89.45 168.1 97.3 168.1 99.25 168.1 105.7 168.8
M 62.45 135.85
L 62.2 135.6
Q 62.2 139.45 64.05 142.2 65.85 144.95 68.45 144.95 67.2 144.1 65 140.55 63 137.4 62.45 135.85
M 49.05 143.05
Q 47.9 143.05 43.5 146.15 38.65 149.6 38.65 151.6 38.65 155.7 48.8 156.65 53.9 157 55.8 157.15 58.95 157.45 58.95 158.1 58.95 159.35 56.2 162.6 53.45 165.8 53.45 166.65 53.45 168.1 54.4 168.3 54.5 168.35 57.75 168.45
L 58 170.65
Q 58 173.6 54.45 177.8 50.55 182.4 46.75 182.4 44.4 182.4 42.8 180.65 42.5 180.3 40.15 176.8 36.45 171.15 29.15 171.15 27.8 171.15 25.05 172.95 22.35 174.7 20.35 174.7 20.3 174.7 13.65 173.5 6.7 171.35 4.75 166.45 2.35 168.95 0.95 171.3 0 172.95 0 173.5 0.8 173.95 12.95 180.95 18.6 184.15 30.05 190.3 37.35 190.2 42.45 189.4 52.05 187.9 55.15 183.45
L 52.75 183.4 52 183.2
Q 54.65 181.65 56.5 179.45 57.5 178.3 59.95 174.7 59.95 173 60.6 171.85 61.25 170.65 62.2 170.65 63.1 168.55 63.6 166.35
L 63.65 165.05
Q 63.65 168.05 63.7 168.8 63.75 169.75 64 170.3 68.8 170.1 71.95 169.3
L 76.3 166.4
Q 78.3 164.35 79.6 163.15 81.15 161.7 81.3 161.55
L 83.3 159.05
Q 84.1 157.85 85.6 152.7 87.1 147.6 87.1 146.2 81.7 148.25 79.1 149.05 73.9 150.7 70.95 150.7 66.95 150.7 59.2 146.9 51.45 143.05 49.05 143.05
M 123.55 40.8
Q 124.15 39.95 124.6 39.05 123.45 41.25 121.2 43.1 120.65 43.55 119.3 44.45 127 44.65 135.2 45.25 134.25 45.05 133.7 44.75 134.95 43.6 138.15 43.05 141.6 42.5 145.1 43.15 139.2 40.3 133.15 40.15 129.65 40.1 123.55 40.8
M 307 178.1
L 306.1 177.8 304.7 177.45 307 178.1
M 266.55 191.6
L 266.85 191.2 266.35 193 266.3 193.1
Q 266.45 192.95 268.05 190.25 269.5 187.7 269.9 187
L 266.95 185.4
Q 266.85 186.65 266.55 191.6
M 238.3 149.55
Q 233.25 147.25 227.4 147.5 231.35 147.6 235.8 149.5 241.4 151.85 245.35 156.25 244.05 152.1 238.3 149.55
M 214.55 165.05
Q 215.35 168.85 215.35 169.8 215.35 176.2 209.05 180.9 205.65 183.35 204.7 184.5 202.7 186.8 202.7 189.9 202.7 194.1 203.6 197.25 204.85 201.7 207.65 202.5 203.05 202.4 198.75 202.65 210.15 203.1 217.8 204.85 224.95 206.5 225.8 206.5 230.8 206.5 237.65 204.65 244.45 202.8 247.25 202.8
L 255.75 204.15 253 203.45
Q 254.9 202.6 256.85 201.5 255.85 201.3 255.05 200.8
L 251.95 200.8
Q 253.2 200.65 254.55 200.25
L 254.5 200.15
Q 258.25 198.7 259.8 197.95 262.95 196.35 264.3 194.4 264.8 193.75 265.3 191.35 266.2 187 267.15 183.5
L 267.1 184
Q 269.15 184.1 274.65 183.85 279.9 183.5 280.4 183.5 282.95 183.5 286.35 184.2 289.7 184.85 295.1 184.8 296 184.4 298.55 182.35 300.9 180.5 301.4 179.9 300.8 176.8 300.8 175.8 300.8 173.45 302.65 171.65 304.5 169.85 304.5 166.3 304.5 163.25 297.35 154.8 289.75 145.8 285.3 145.8 285.25 145.8 273.15 157.6 260.85 170.8 259.45 178.05
L 259.2 178.5
Q 258.65 176.25 252.3 167.5 245.8 158.5 245.5 157.65 240.95 158.8 232.9 163.1 227.35 166.1 218.8 166.1 216.85 166.1 216.1 164.85 214.9 162.25 213.15 159.5 213.75 161.2 214.55 165.05
M 265.45 184.7
L 264.7 184.15 267 184
Q 266.65 185.25 266 185
L 265.45 184.7
M 213 157.05
L 212.95 157 212.6 157.9 213 157.05
M 223.35 149.3
L 224.2 148.75 224.75 148.1 223.35 149.3
M 182.75 177.15
Q 182.75 176.45 182.3 174.75 182.25 178.4 182.1 179.65 182.75 178.25 182.75 177.15
M 179.85 183.3
Q 177.75 184.2 167.2 185.6 161.85 186.35 156.25 186.95 154.45 187.25 148.65 192.15 143 196.9 141.45 196.9 137.7 196.9 134.85 191.5 132.7 186.1 132.7 186 132.7 184 133.35 181.85 132.75 183.15 132.1 184.5 128.95 190.9 126.35 191.45
L 126 191.4
Q 128 192 128.4 193.55 128.75 194.95 129.45 200.5 130.9 206.45 137.45 208.75 141.3 210.1 146.5 210.1 147.3 210.1 150.75 209.95 154.35 209.8 155.95 209.7 157.35 208.8 162.2 206.7 166.7 204.75 169.3 202.9 177.7 196.9 179.85 183.3
M 177.55 133.65
Q 175.7 132.3 174.6 131.6 170.45 129 165.2 130.35 171.45 130.4 172.95 131.25 173.95 131.85 176.6 133.9
L 180.55 135.65
Q 183.95 135.35 186.4 135.9 191 136.9 191 141.6 191 143 190.45 143.45 189.95 143.85 188.35 143.85 187.8 143.85 186.75 142.8 185.65 141.7 184.65 141.7 182.25 141.7 176.2 146 170.15 150.25 168.4 150.25 161.65 150.25 157.55 150 149.6 149.45 146.55 147.95 146.5 148.15 145.95 149.7 145.4 151.4 145.2 151.85
L 145.2 151.9 145.15 152
Q 144.6 154.45 144.35 159.2 143.75 164.25 140.9 169.8 148.2 165.9 148.35 165.9 166.65 166.3 178.9 166.05 178.6 165.45 178.3 164.65 177.5 162.4 177.5 160.1 177.5 158.55 178.25 157.65 179.65 154 185.4 150.5 191.7 146.7 193.2 144.35 194.4 138.05 189.2 135.85 186.35 134.65 180.4 134.65 179.1 134.65 177.55 133.65
M 214.05 134.55
L 213.6 135.35 212.9 137 214.05 134.55
M 229.4 118.85
Q 230.2 122.95 230.25 123.15 230.45 123.7 230.95 125.5 229.55 119.55 229.4 118.85
M 229.45 84.55
L 229.15 84.85 228.85 85.3 229.45 84.55
M 236 76.6
L 236.4 76.15 237.55 74.45
Q 236.5 75.3 236.15 75.75
L 236 76.6
M 173.05 98.4
L 175.2 94.4 173.85 96.75 173.05 98.4
M 164.5 46.05
L 164.3 46.15
Q 162.6 47 161.55 47.6 163.25 46.9 164.45 46.25 165.2 45.85 165.8 45.45
L 164.5 46.05
M 228.85 44.7
Q 229.1 46.35 229.1 47.15 229.1 58.95 227.1 63.65 225.55 67.25 222.4 67.25 215.3 67.25 212.55 69.35 210.7 70.7 210.25 73.85 209.75 77.3 208.9 78.3 207.15 80.2 201.8 80 195 79.75 189.3 84.1 186.15 86.5 178.35 95.3
L 177.6 96.4
Q 177.9 95.25 178.25 89.4 177.75 91.35 175.25 96.45 172.9 101.25 171.85 102.7
L 170.9 105.4
Q 169.9 108.2 169.9 108.8 169.9 111.35 173.75 112.7 176.35 113.6 178.8 113.6 194 111 195.25 108.7 195.7 105.9 195.7 105.8 196.05 104.25 196.8 103.6
L 196.25 104.05
Q 196.25 103.95 197.65 101.65
L 199.95 97.8 200.1 98.6
Q 201 97.8 202.15 97 201.4 96.55 200.95 96.35
L 201.65 96.25
Q 202.5 96.15 203.6 96.1 204.45 95.6 205.45 95.1 213.3 91.8 217.35 90.05 224.75 86.9 228.25 83.65 233 79.25 233 73.05 230.55 47.85 228.3 42.05 228.6 42.9 228.85 44.7
M 217.75 43.35
Q 218.3 43 219.5 42.6 221.85 41.75 224.9 41.35
L 224.8 41.55
Q 226.15 41 226.75 40.95 227.2 40.85 227.6 41.05 227.05 40.65 226.2 40.2 225.4 39.8 225.25 39.8 223.05 39.8 221.15 40.8 219.65 41.6 217.75 43.35
M 212.25 35.35
Q 210.45 34.45 208.8 34.45 205.1 34.45 202.3 37.75 199.5 41 198.9 41 197.9 41 185.45 40.15 183.95 40.15 181.35 40.35 177.55 40.65 175.25 41.15
L 171.95 42.55 198.9 42
Q 197.75 42.35 190.4 44.8 185.2 46.55 179.35 48.25 176.5 49.1 167 53.5 158 57.65 157.75 57.65 155.6 57.65 150.45 54.75 145.3 51.8 141.1 51.8 128.85 51.8 124.35 60.05 123.25 62.1 121.8 65.7 120.45 68.3 118.5 68.3 116.65 68.3 116.3 68.2 115.65 67.95 115.2 66.6 113.95 60.55 111.85 51.75 111.5 52.8 107.95 62.95 103.6 73.4 98.15 77.6 99.45 78 100.7 78.5 107 79.85 110.65 88.7 113.1 94.65 113.1 98.15 113.1 98.5 110.85 104.1 108.25 110.45 106.65 113.1 106.3 112.85 100.75 106.25 96.3 101 92.9 101 83.1 101 75.6 108.65 67.1 117.35 69.2 130.2
L 68.75 130.35
Q 68 130.25 65.8 128.95 62.9 127.2 62.7 127.1 62.45 127.4 61.9 127.8 61.5 128.15 61.5 128.4 61.5 129.4 62.05 134.7
L 62.45 135.85
Q 64.1 137.35 68.75 145.1 72.45 146.25 78.25 146.3 80.75 146.3 87.1 145.9
L 87.1 144.05 84.85 144.05
Q 81.3 146.05 79.2 146.05 74.6 146.05 70.55 143 65.75 139.4 65.75 133.65
L 65.9 131.45
Q 71.75 138.95 72.25 139.35 83.9 140.05 87.45 139.85
L 88.95 139.55
Q 94.85 136.2 98.35 133 102.1 129 104.7 126.3
L 106.4 122.2
Q 108.4 116.1 109.05 113.95 110.15 110.45 110.2 107.35
L 111.75 106.1
Q 111.2 107.65 111.2 111.55 111.65 110.65 111.95 109.75
L 112.15 108.1
Q 112.55 110.3 112.05 118.1
L 115.85 112.5 116.1 111.75
Q 116 114.05 116.85 114.9 117.8 115.9 120.45 115.9 122.5 115.9 124.1 115.05 125.85 114.15 130.85 110.4
L 131.2 110.2
Q 132.5 109.55 136.85 109.5 141.15 109.6 143.05 109.55
L 143.55 109.5
Q 144.6 109.2 147.5 107.25 151 104.9 152.5 104.1 153.5 103.4 158.35 100.85
L 163 98.4
Q 164.1 97.5 170.3 89.65 176.8 81.4 185.2 74.05 188.9 69.7 195.4 58.55 199 52.4 203.6 51.05 206 50.5 207.15 50.2 209.2 49.6 210.7 48.25 209.5 48.8 206.9 49.2 204.55 49.5 202.25 49.5 199.9 49.5 196.1 49 203.85 45.85 207.95 43.45 214 39.9 214 37.1 214 36.25 212.25 35.35
M 182.95 59.5
Q 184.9 60.2 184.9 62.35 184.9 72.5 176.2 76.95 175.45 77.3 168.7 80.1 164.2 81.9 162.05 83.85 159.65 86.05 155.9 86.75 154.15 87.1 148.3 87.4 136.85 88 128.95 93 130.9 87.85 132.2 85.7 134.15 82.4 140.65 77.05 143.1 74.65 144.65 72.05 146 69.35 146.8 68.15 149.35 64.2 158.55 60.75 164.75 58.4 173.35 58.5 179.55 58.6 182.95 59.5
M 239.25 11.25
L 241.7 9.9 242.35 8.45
Q 241.2 9.6 239.25 11.25
M 311.55 86.7
Q 305.55 87.65 304.35 90.45 302.15 95.45 299 98.1 294.25 102.05 294 102.5 292.75 104.6 292.75 112.05
L 293.2 124.95
Q 293.7 127.95 296.8 129.75 298.45 130.6 301.9 132.05 305 133.3 305.6 133.45 307.3 111.05 311.55 86.7
M 280.45 69.35
Q 275.7 67.9 271.8 67.9 247.1 67.9 237 95.7 233.3 105.95 232.35 118.1 231.6 128.05 232.85 134.75
L 231.95 130.4
Q 231.6 133.7 233.5 137.45 235.75 141.9 239.65 142.35 241.25 142.5 247.8 144.45 254 146.3 255.3 146.3 257.6 146.3 261.6 145.2 267 143.7 269.2 143.3 269.95 141.75 274.5 137.75 279.1 133.9 279.45 133.55 280.25 130.3 280.5 128.6 281.05 124.75 281.05 118.2 281.05 114.35 281.45 112.9 282.5 110.15 283.75 106.7 283.45 103.9 283.45 102.75 283.45 100.6 285.25 97.8 285.6 97.3 289.2 92.6 294.65 85.45 293.9 79.8 289.45 71.7 289.35 71.55 286.45 71.15 280.45 69.35
M 243.8 8.6
Q 245.55 8.75 247 8.65 245 8.65 235.55 6.45 225.5 4.1 220.8 2.3 220.7 10.2 212.35 15.4 204.65 20.2 194.6 20.2 192.05 20.2 191.75 18.6 191.45 17 189.6 17 175.55 17 167.5 24.75 165.45 26.65 162 30.05 158.9 32.45 155.05 32.45 148.35 32.45 143.3 31 138 29.5 138 27.3 138 25.9 140.65 24.05 144 22.05 145.35 21.05
L 143.5 20.95
Q 141.95 21.75 135.45 26.5 127.45 32.45 126.05 35.05 125.85 37.2 126.85 38.2 127.55 38.95 128.75 38.95 131.7 38.95 134.45 38.35 137.2 37.7 139.45 37.7 140.2 37.7 145.2 39.5 150.8 41.55 158.55 42.3
L 160.45 42.05
Q 159.1 42.2 158.55 41.9 159.85 41.7 161.2 41.7 162.45 41.75 162.9 41.7 170.35 36.9 176.5 33.45 188.25 26.85 194.85 27.3 198.45 27.15 201.95 27.15 205.65 25.95 209.6 20.6 214 14.7 220.2 11.6 220.55 6.95 221.05 6.2 221.5 5.45 223.95 5.45 224.8 5.45 230.45 6.45 237.8 7.8 242.35 8.45
L 243.8 8.6
M 426.3 165.3
Q 426.1546875 165.5453125 425.8 165.9 425.7 166 424.15 168.55
L 426.3 165.3
M 349.75 128.8
L 350.4 128.95 348.2 126.75
Q 348.3 127.9 348.8 128.4
L 349.75 128.8
M 325.1 162.9
L 332.25 161.25
Q 324.85 163.75 319.3 175.35 317.7 178.7 315.15 185.5 313.1 190.9 312.2 192.15 312.25 189.4 312.8 183.3 313.55 174.55 313.7 172.75 313.35 174 311.5 183.95 309.6 194.4 309.6 195.95 309.6 196.3 309.85 196.65 310.3 197.25 310.95 199.55 314.3 196.45 316.95 193.9 322 188.95 323.9 184.5
L 320.75 184.2
Q 320.85 179 328.65 172.25 333.45 168.1 334 167.55 336.4 165.15 336.4 163.45 336.4 161.65 335.3 160.5 334.3 159.45 333.15 159.45 332.05 159.45 329.05 161.05 326.3 162.55 325.1 162.9
M 378.05 148.3
Q 378 148.55 377.9 148.45
L 376.3 150.5
Q 374.7 152.35 372.9 154.2 371.95 155.85 371.95 160.3 371.95 163.25 373.65 165.05 374.75 166.15 377.85 168.7 377.5 167.5 377.15 163.75 376.85 160.4 376.85 159.35 376.85 156.5 378.25 154 380.25 150.3 381 147.7 381.55 146.2 380.35 146.6 379.25 147 378.05 148.3
M 338.75 85.75
L 338.15 84.6
Q 338 87.45 337.3 89 336.75 92.45 336.85 106.15 336.5 108.9 337.45 113.5 338.3 117.55 339.15 119.05 339.25 119.15 342.45 121.7 345.65 124.2 348.2 126.75 348.15 123.2 345.25 110.7 342.5 98.85 338.75 85.75
M 302.5 56.65
Q 302.5 55.25 302 54.3 301.4 53.2 300.2 53.2 298.8 53.2 297.4 54.6 295.8 56.2 295.8 58.35 295.8 61.75 297.7 65.25 298.95 67.45 300.45 68.95
L 301.4 69.45
Q 300.65 67.8 300.65 66.75 300.65 65.3 301.6 62 302.5 58.7 302.5 56.65
M 347.65 53.7
L 346.9 51.6 347.3 52.85 347.65 53.7
M 328.4 27.85
Q 328.55 27.6 329.7 23.45 327.25 22.05 320.6 19.35 312.85 16.25 310.65 16.3
L 310.75 17.5
Q 310.75 18.45 310.05 18.75 309.5 19 308 19 303.2 19 295.7 16.9 288.2 14.8 286.55 14.8 282.8 14.8 281.25 15.05 280.15 15.2 276.5 15.8 279.15 16.15 282.7 16.95 276.85 15.95 276.5 15.85
L 276.3 16.05
Q 276.05 16.35 276.05 16.95 276.05 18 277.2 18.95 278.65 20.1 281.15 20.3
L 282.2 21 275.6 21
Q 264.2 21 259.25 27.05 255.55 31.5 255.55 39.05
L 255.5 40.7
Q 250.6 40.15 245.5 41.9 239.95 43.85 237.85 47.55 237.65 47.35 236.6 45.75 235.5 44.1 235.45 43.95 235.5 48.15 237.9 52.5 240.45 57.2 243.4 57.2 245.05 57.2 247.65 55.25 251 52.55 253.2 51 262 44.75 272.85 44.75 274.5 44.75 277.25 47.5 280.2 50.45 284.25 50.95 283.05 50.5 282.5 50.05
L 282.25 49.75
Q 284.1 49.5 291.95 49.3 296.35 45.1 300.25 40.4 305.45 34.05 305.4 31.75
L 304.8 30.2
Q 303.6 28.3 301.7 27.45 299.3 26.4 298.5 25.8 298.85 25.5 298.4 25.7 298.35 25.7 298.3 25.65 298.3 25.7 298.35 25.75 298.1 25.8 297.8 25.95 295.75 25.8 293.25 23.5 290 20.5 286.8 19.05
L 289.9 19.7
Q 288.8 18.75 287.45 18.15 294.35 20.05 303.75 23.4 321.25 29.65 321.65 29.65 326.95 29.65 328.4 27.85
M 298.4 25.85
Q 301.05 33.7 296.95 37.05 293.5 39.85 290.65 39.85 286 39.85 283.9 39.45 281.3 39 281.3 37.8 281.3 37 284.4 34.55 287.5 32.1 291.2 30 297.2 26.6 298.4 25.85 Z"/>

<path fill="#5E513E" stroke="none" d="
M 262.5 199.25
Q 259.4 200.8 255.05 200.8 255.85 201.3 256.85 201.5 260.45 201.5 263.05 199.75 265.45 198.1 265.6 195.8 265.4 197.8 262.5 199.25
M 124.45 147.2
Q 126.7 145.45 128.7 141.4 127.15 142.6 125.15 143.75 123.65 145 122.1 148.8 123.3 148.1 124.45 147.2
M 143.55 109.5
L 143.05 109.55
Q 141.15 109.65 136.45 109.8 132.95 109.9 131.2 110.2
L 130.85 110.4
Q 134.85 112 137.3 112.6 143.8 114.2 152.45 114.2 155.55 114.2 157.5 112.15 159.4 109.55 160.3 108.45 154.35 109.6 148.95 110.9 145.05 111.8 143.4 112
L 143.85 111.65
Q 145.1 110.1 147.8 107.9 151 105.35 152.5 104.1 151 104.9 147.5 107.25 144.6 109.2 143.55 109.5
M 77.6 169.6
Q 75.25 171.1 73.1 173.05 69.4 176.35 69.35 182.2 69.25 188.3 67.1 190.55
L 68.2 190.45
Q 72 186.4 72.75 183.9 73.6 180.75 74.95 177.95 76.25 175.5 76.45 175.05 80 170.95 82.55 167.75 87.45 161.55 87.45 156.95
L 87.25 151.1
Q 87.15 151.1 87.05 149.35 87.1 151.05 86.25 153.75 85.15 157.1 83.3 159.05
L 81.3 161.55
Q 81.65 166.6 80.2 167.9 79.95 168.05 77.6 169.6
M 64 170.3
Q 63.75 169.75 63.7 168.8 63.65 168.05 63.65 165.05
L 63.6 166.35
Q 63.1 168.55 62.2 170.65
L 61.55 171.95
Q 60.75 173.45 59.95 174.7 57.5 178.3 56.5 179.45 54.65 181.65 52 183.2
L 52.75 183.4 55.15 183.45
Q 56.7 183.25 59.85 181.1 62.9 179 64.85 178.8 65.55 175.9 64.3 175.05 62.45 173.85 62.4 173.65 62.35 172.7 63.95 172.25 66.3 171.8 67.8 171.5 74.05 170.3 76.3 166.4
L 71.95 169.3
Q 70.25 170.35 66.95 171.1 66.25 171.1 65.25 170.8 64.4 170.55 64 170.3
M 72.25 139.35
L 70.75 139.45
Q 72.45 139.95 77.9 143 81.35 144.9 84.85 144.05
L 87.1 144.05
Q 98.4 145.85 105.95 135.6 113.55 125.35 111.2 111.55 111.2 107.65 111.75 106.1
L 110.2 107.35
Q 110.15 110.45 109.05 113.95 108.4 116.1 106.4 122.2
L 104.7 126.3
Q 102.1 129 98.35 133 94.85 136.2 88.95 139.55 96 137.6 99.75 133.95 102.35 131.45 107.85 122.7
L 107.55 124.15
Q 104.55 135.35 99.65 138.65 96.9 140.5 90.3 140.5 88.3 140.5 87.2 139.95
L 87.45 139.85
Q 83.9 140.05 72.25 139.35
M 282.95 129.85
L 286.45 126.1
Q 284.15 127.45 282.95 129.85
M 306.1 177.8
L 307 178.1 306.9 176.9 306.75 177.2
Q 306.65 177.65 306.1 177.8
M 299.2 197.9
Q 299.2 196.15 300.6 195.05 302.6 193.9 303.65 193.2 307.85 190.3 307 182.8 307 186 301.95 188.25 296.9 190.5 289.8 190.5 296.05 201.05 296.05 203.6 296.05 205.15 294.25 205.25 293.7 205.25 289.95 204.75 282.65 203.8 279.5 207.65
L 279.7 208.35
Q 280.25 208.45 280.8 208.55 290.6 210.05 293.5 210.5
L 294 210.6
Q 294.6625 210.7 294.7 210.7 296.35 210.8 297.45 210 298.7 209.1 298.7 207.3 298.7 206.5 298.45 204.45 298.15 202.35 297.9 201.3
L 298.85 202.25
Q 305.2 209.5 306.8 213.2 307.15 213.4 310.3 213.9 313.65 214.45 316.35 214.7 313.65 213 306.5 206 299.2 198.9 299.2 197.9
M 264.3 194.4
Q 262.95 196.35 259.8 197.95 258.25 198.7 254.5 200.15
L 254.55 200.25
Q 258.6 200.25 261.45 198.55 264.3 196.8 264.3 194.4
M 266.85 191.2
L 266.55 191.6 266.35 193 266.85 191.2
M 273.45 184.75
Q 276 184.2 278.6 184.2 279.65 184.2 285.2 184.75 290.8 185.25 291.8 185.25 293.75 185.25 295.1 184.8 289.7 184.85 286.35 184.2 282.95 183.5 280.4 183.5 279.9 183.5 274.65 183.85 269.15 184.1 267.1 184
L 266.95 185.4 269.9 187
Q 273.15 188.75 279.45 189.2 285.85 189.35 287.2 189.4 283.25 186.7 278.8 186 276.3 185.55 271.8 185.3
L 273.45 184.75
M 291 105.95
Q 293.5 99.55 293.6 99.4 293.35 99.7 288.75 101.45
L 288.4 101.75
Q 287.25 102.95 286.65 104.7 286.3 105.75 285.65 107.95 286.25 114 286.3 115.3
L 286.4 115.4
Q 286.5 115.65 286.6 116.2 288.4 112.6 291 105.95
M 264.7 184.15
L 265.45 184.7 266 185
Q 266.65 185.25 267 184
L 264.7 184.15
M 193.45 135.4
L 193.15 134.65
Q 194.45 139.4 194.45 139.95 194.45 140.65 194.3 141.55 193.95 143.3 193.2 144.35 191.7 146.7 185.4 150.5 179.65 154 178.25 157.65 178 159.6 179.35 166.05 179.45 166.6 179.55 167.15
L 180.2 170.25 180.2 168.55
Q 180.05 167.15 180.2 166.05 180.45 163.4 182.15 162.15 183.1 161.45 188 159.95 192.2 158.7 194.15 156.2 197 152.6 197 145.05 197 143.4 195.95 140.75 195.25 139.05 193.45 135.4
M 165.45 128.1
L 166.9 127.4
Q 156.5 128.4 153.55 129.15 148 130.5 145.8 134 144.05 136.8 141.7 142.9 139.5 147.55 136.45 147.55 133.65 147.55 132.45 145.95 131.7 144.95 131.7 143.65 131.7 142.2 132.05 141.3 132.7 140.15 133.15 138.8
L 133.9 136.85 133.55 137.7
Q 132.4 138.85 132.05 139.15 131.3 139.8 129.65 140.8 128.5 148.95 126.9 151.7 125.85 153.5 123.05 156.25 122.55 156.9 120.9 164.15 118.75 171.55 115.4 173.6
L 114.4 175.25
Q 113.1 177.35 110.3 180.4 116.25 179.6 120.6 170.55 124.3 160.6 125.35 158.5 126.25 160.1 128.85 163.55 130.25 165.4 130.25 167.25 130.25 172.05 125.25 176.35 123.3 178 121.95 183.95 120.55 190.2 120.1 190.7
L 124.6 191.05 126 191.4 126.35 191.45
Q 128.65 188.35 129.5 186.85 131.25 183.9 133.7 178.1 133.2 178.4 130.95 179.65 128.8 180.85 128.5 180.95
L 129.15 179.5
Q 131.25 177.2 132.8 175 135.85 170.7 135.85 165.35
L 134.8 155.25
Q 134.8 154.4 138.7 149.15 143.6 142.65 146.6 135.4
L 146.6 137.95
Q 147.35 142.85 144.4 149.85 142.9 153.5 140.65 158 141.6 157.6 143.2 155.5 144.75 153.45 145.15 152
L 145.2 151.9 145.2 151.85
Q 145.4 151.4 145.95 149.7 146.5 148.15 146.55 147.95 146.55 141.15 150.45 136.35 154.3 131.55 159.8 131.55 163.85 128.95 165.45 128.1
M 212.9 137
L 213.6 135.35
Q 212.1 134.1 196 118.95 196 116.9 198.95 113.8 201.9 110.75 201.9 107.45 201.9 106.1 201.4 103.8 200.95 101.85 200.5 100.75 196.95 111.75 195.95 113.6 193.55 118.2 189 118.2 187.6 118.2 184 117.35 180 116.4 177.65 115.3 175.35 115.3 174.5 115.25 180.1 116.5 185.3 120.8 188.8 123.7 189.25 124.05 191.35 125.5 193.2 125.55 199 125.8 203.4 131.25 207.05 135.75 207.05 139.1 207.05 142.1 202.55 153.25 197.95 164.85 197.75 166.4 201.5 162.3 204.15 156.95 205.3 154.55 212.9 137
M 217.75 138.3
Q 216 137.2 213.8 135.5 213.1 147.1 205.15 164.75 201.1 173.65 196.8 180.95 195.6 174.25 195.35 171.15 194.8 171.75 192.95 173.3 192.45 173.7 192.55 174.55 193.45 183.4 193.45 189.9 193.45 197.85 191.35 200.55 190.35 201.8 184.1 205.05
L 188.3 204.15 188.35 204.15 189 203.7
Q 192.7 201.65 194.15 197.7 194.75 196.1 196.4 187.4 197.25 182.95 203.4 179.45 206.25 177.8 207.3 176.6 209.05 174.7 209.05 171.8 208 166.75 208 165.9 208 163.1 213.2 153.7 218.4 144.35 218.4 139.5 218.4 138.75 217.75 138.3
M 200.1 98.6
L 199.95 97.8 197.65 101.65
Q 196.25 103.95 196.25 104.05
L 196.8 103.6 200.4 100.35 200.1 98.6
M 200.95 96.35
Q 201.4 96.55 202.15 97 204 98.05 207.6 100.45 212.5 103.45 214.75 103.25 220.7 102.8 223.4 104.25 227 106.15 226.9 111.8
L 227.1 113.1 227.05 111.2
Q 227.05 107.8 227.95 100.95 228.95 93.3 229.9 92 230.4 87.95 231.15 85.4 232.45 80.75 236 76.6
L 236.15 75.75
Q 236.7 72.45 236.7 69.85
L 236.65 68.2 229.15 84.85 229.45 84.55 231.4 82.05
Q 228.8 90.4 224.9 95.5 221.6 99.8 219.3 99.8 218.1 99.8 213.6 98.55 208.7 97.2 207.85 96.25 207.3 96.25 204.35 96.1 203.95 96.1 203.6 96.1 202.5 96.15 201.65 96.25
L 200.95 96.35
M 175.25 93.1
Q 174.95 93.8 173.85 96.75
L 175.2 94.4 178.25 89.2
Q 178.35 88.1 178.65 86.4 176.3 90.7 175.25 93.1
M 178.2 85.1
Q 178.5 84.45 181.5 79.65 184.55 74.8 185.2 74.05 176.8 81.4 170.3 89.65 164.1 97.5 163 98.4 167.85 95.4 170.9 91.55 174 87.75 178.2 85.1
M 201.95 27.15
Q 198.45 27.15 194.85 27.3 199.2 27.65 201.95 27.15
M 169.3 43.25
Q 170.3 42.8 171.95 42.55
L 175.25 41.15
Q 177.15 40.15 184.55 35.5 189.95 32.15 193.75 30.6 189.5 31.65 185.55 33.75 183.25 34.95 179.1 37.5 171.2 41.95 160.65 42.3
L 161.55 42.2 162.6 41.8 160.45 42.05 158.55 42.3
Q 157.25 42.55 155.9 42.65
L 155.25 42.6
Q 164.5 44.4 169.3 43.25
M 216.15 30.45
Q 218.25 29.5 220.3 27.3 224.4 22.95 224.6 16.7
L 218.5 18.05
Q 213.95 25.3 212.45 27.05 211.65 27.95 208.45 30.05
L 216.15 30.45
M 265.95 61
Q 274.55 61.2 278.25 61.6 284.5 62.35 287.85 65.65 291.65 69.3 293.4 77.35 292.95 75 292.95 74.45 292.95 73.5 293.25 72.95 294.6 70.85 296.6 67.5 296.05 67.05 295.7 66.7 294.35 65.5 288.45 58.65 285.65 55.45 278.35 53.4 272.85 51.9 269.5 51.9 265.3 51.9 253 57.45
L 252 57.75
Q 257.9 60.45 265.95 61
M 305.95 35.95
Q 306.05 33.95 305.8 32.8 305.9 37.5 305.65 39.4 305.9 37.85 305.95 35.95
M 424.6 154.05
Q 422.9 154.8 421.2 155.45 417.9 156.65 416 156.65 415.3 156.65 414.75 156.5 416.85 158.2 418.3 160.5 420.25 163.65 420.85 163.65 423 163.65 424.35 161.85 425.4 160.45 426.25 157.55 425.7 157.4 424.7 157.4 419.95 157.65 418.3 157.55 424 154.5 424.6 154.05
M 364.65 103.3
Q 366.05 103.3 367.5 102.7 364 102.7 361.55 100.7 359.3 98.85 359.1 96.3 359.25 99.9 359.7 100.9 360.75 103.3 364.65 103.3
M 375.15 90.95
Q 375.15 91.25 374.5 92.15 375.05 95.65 377.8 104.85 377.8 109.75 378.85 113.75 379.05 114.55 379.45 115.8 379.35 114.8 379.35 113.8 379.35 112.65 379.8 112.15 380.3 111.65 381.4 111.65 393.2 111.65 397.6 117.7 400.05 121.1 401.75 128.15 402.8 130.55 405.7 131.35 407.4 131.85 411.4 132.3 418.95 133.7 420.15 142.75 419.05 142.9 414 142.55
L 412.5 142.55
Q 416.4 146 421.6 145.95 423.6 145.9 424.7 146.55 426.3 147.5 427.8 150.45 428.1 150 428.35 149.1 428.6 148.15 428.6 147.45 428.5 145.95 428.05 144.55 427.15 141.8 425.35 141.8 424.85 141.8 424.05 142.2 423.25 142.6 422.75 142.6
L 421.3 142.45 422.1 141.75
Q 422.45 141.1 422.95 139.2 423.45 137.45 423.45 137.25 423.45 134.95 421.35 131.6
L 414.3 126.7
Q 411.8 126.05 406.75 123 401.3 119.75 399.6 117.55 394.6 114.65 391.1 111.95
L 387.5 109.15
Q 384.55 106.1 381.35 101.25
L 378.7 97 377.6 94.25 374.95 85.35
Q 375.05 89.6 375.15 90.95
M 349.4 79.45
L 348.6 78.4
Q 349.55 81.1 353 86.5 355.9 92 355.65 97.75 355.5 100.5 361.45 107.9 366.65 114.4 370.95 118.05 378.05 124.05 392.7 143.75 406.7 162.5 406.7 164.75 406.7 172.45 400.6 176.25 396.35 178.9 391.4 178.9 381.85 178.9 375.15 172.05 369 165.8 369 158.25 369 154.25 371.95 152.55 375.4 151.3 376.3 150.5
L 377.9 148.45
Q 378 148.55 378.05 148.3 378.1 148.05 378.1 147.6 378.1 144.1 365.15 140 358.4 137.9 348.8 135.1 346.85 134.15 345.85 131.05 344.5 126.8 339.35 121.65 339.55 129.05 336.1 136.4 331.15 147 321 147 315.75 147 310.65 144.25 305.75 141 303.85 140.05
L 305.2 140.5
Q 307.45 141.5 309.2 142.1 312.45 143.15 317.85 143.15 321.25 143.15 322.85 141.95 323.5 141.45 327.75 136.65 326.7 136.95 322.3 139.3 317.35 141.5 312.4 141.5 308.25 141.5 303.7 136.85 296.9 129.85 296.8 129.75 293.7 127.95 293.2 124.95 289.8 124.25 286.9 125.8 286.95 135.6 276.85 144.55 273.45 147.6 269.5 149.95 266.3 151.85 265.5 151.85 255.3 151.85 252.9 150.3
L 251.15 150.35 250.25 150.8
Q 254 154.15 260.45 154.65 267.3 154.65 271.95 151.65 275.2 149.5 278.35 145 282.35 139.3 283.3 138.3 286.3 135.3 290.4 135.3 291.5 135.3 301.55 143.3 312.75 151.25 319.6 151.25 325.7 151.25 330.7 146.55 332.95 144.2 333.85 143.3 335.35 141.85 336.35 141.85 346 141.85 350.5 146.85 353.5 150.25 353.5 154.65 353.5 159.95 349.35 161.45 348.3 161.85 346.45 162.3 345.15 162.8 345.15 163.75 345.15 164.05 344.05 167.05 342.9 170.05 342.9 172.25 342.9 174.9 344.4 176.45 345.05 177.2 347.65 178.7 352.35 181.5 352.35 187.45 352.35 191.75 343.05 200.85 338.1 205.7 330.2 212.3
L 331.15 211.85 335.85 209
Q 338.65 207.15 353.45 198.2 367.15 189.95 369.9 187.95 370.3 183.9 368.85 181.4 368.05 180.05 365.35 177.65 359.95 172.75 359.95 164.15 359.95 156.15 362.55 150.25
L 362.75 150.8 362.95 152.05
Q 364.45 169.95 374.35 176.5 381.05 180.9 394.75 180.9 399.8 180.9 404.65 177.45 409.5 173.95 410.35 173.95 411.6 173.95 413.55 174.1 414.95 173.9 414.95 171.55 414.95 167.45 409.15 158.35 404.95 151.7 403.4 149.1 405.25 151.45 408.1 153 409.8 153.9 411.5 154.45 412.25 154.8 412.95 155.25 412.85 155.15 412.8 155.05 412.65 154.8 411.15 151.05 408.45 144.25 400.15 140.8 394.8 138.55 388.55 132.4 384.4 128.35 382.15 124.15 382.2 124.45 382.3 124.7
L 382.05 124.35
Q 380.1 120.7 367.6 111.2 356.55 102.9 356.55 98.2
L 356.9 87.45
Q 356.85 87.4 354.9 85.4 352.25 82.7 349.4 79.45
M 349.4 56.65
Q 348.1 54.7 347.65 53.7
L 347.3 52.85
Q 346.25 59.05 344.55 61.25 343.65 62.4 342.4 62.4 341.05 62.4 339.8 62.35 339.2 62.4 338.75 63.15 333.5 72.9 333.15 73.45 330.6 69.05 329.15 61.95 328.2 55.65 328.2 55.55 328.2 50.95 327.05 49.1 324.7 45.3 316.95 45.3 310.4 45.3 306.35 47.5 299 51.45 298.55 51.6 300.35 52.05 304 50.7 306.8 49.7 308.75 48.5 310.6 51.75 310.9 52.1 311.45 52.8 312.45 52.8 315.5 52.8 319.55 52.05 323.6 51.3 324.65 51.3
L 325.5 51.4
Q 325.5 51.5 325.75 53.9 325.75 56.85 324.95 58.75 324.15 60.7 324.15 61.95 324.15 64.15 325.9 66.7 328.1 69.9 329.4 78.2
L 329.4 78.55
Q 328.1 82.5 324.55 82.5 303.5 73 298.85 69.15 297.7 68.35 296.9 67.75 297.9 70.55 300.6 76.95 301.75 79.7 301.75 83.6 301.75 88.1 300.8 91.05 299.7 94.25 297.1 96.85 301.05 94.75 302.65 88.05 303.35 85.1 304.1 84.05 305.35 82.4 307.9 82.4 322.05 82.4 328.55 101.9 331.9 111.85 333.15 123.95 333.95 120.65 332.6 110.95 331.05 99.55 331.05 97.9 331.2 96.75 331.15 95.85 331.1 94.45 330.15 89.75 330.8 91.15 332.35 93.95 333.95 97 335.25 101.05
L 335.2 95.75
Q 335.2 79.8 338.75 71.35 341.95 63.7 347.35 63.7 349.45 63.7 355.1 65.35 360.75 66.95 361.15 66.95
L 354.35 62.15 351.8 59.85
Q 350.7 58.55 349.4 56.65
M 345.6 45.05
L 345.45 44.2
Q 343.35 37.85 341.8 35 342.25 46.85 341 50.35 340.15 52.65 337.4 52.65 335.9 52.65 334.4 51.8 336.55 54.4 337.3 54.4 339.8 54.4 342.05 50.5 344.85 45.65 345.6 45.1
L 345.6 45.05
M 324.3 42.5
Q 325.95 42.5 327.95 44.1 325.85 40.1 325.4 35.6 325.2 35.6 324.8 35.65 319.05 32.65 311.9 29.15 297.5 22.1 289.9 19.7
L 286.8 19.05
Q 290 20.5 293.25 23.5 295.75 25.8 297.8 25.95
L 298.3 25.65
Q 298.35 25.7 298.4 25.7 298.85 25.5 298.5 25.8 299.3 26.4 301.7 27.45 303.6 28.3 304.8 30.2
L 304.5 29.05
Q 309 33.2 311.2 38.95 313.75 42.6 324.3 42.5 Z"/>

<path fill="#4C4336" stroke="none" d="
M 297.9 201.3
Q 298.15 202.35 298.45 204.45 298.7 206.5 298.7 207.3 298.7 209.1 297.45 210 296.35 210.8 294.7 210.7
L 295.5 210.85 306.8 213.2
Q 305.2 209.5 298.85 202.25
L 297.9 201.3
M 87.45 139.85
L 87.2 139.95
Q 88.3 140.5 90.3 140.5 96.9 140.5 99.65 138.65 104.55 135.35 107.55 124.15
L 107.85 122.7
Q 102.35 131.45 99.75 133.95 96 137.6 88.95 139.55
L 87.45 139.85
M 146.6 137.95
L 146.6 135.4
Q 143.6 142.65 138.7 149.15 134.8 154.4 134.8 155.25
L 135.85 165.35
Q 135.85 170.7 132.8 175 131.25 177.2 129.15 179.5
L 128.5 180.95
Q 128.8 180.85 130.95 179.65 133.2 178.4 133.7 178.1 134.75 177.2 135.25 176.65 136.1 175.8 136.7 175 137 174.55 137.25 174.1 137.3 174.05 137.3 174 137.95 172.65 138.3 171.95 139.5 169.75 139.9 165.95 140.25 161.1 140.65 158 142.9 153.5 144.4 149.85 147.35 142.85 146.6 137.95
M 128.7 141.4
Q 126.7 145.45 124.45 147.2 123.3 148.1 122.1 148.8 119.95 151.5 118.1 153.1 117.3 154 117.3 157 117.3 159.75 117.8 162.45 118.2 164.8 118.1 165.65 117.85 168.1 111.45 176.2
L 112.4 175.9 113.35 175.35 115.4 173.6
Q 118.75 171.55 120.9 164.15 122.55 156.9 123.05 156.25 125.85 153.5 126.9 151.7 128.5 148.95 129.65 140.8
L 129.65 139.1 128.7 141.4
M 67.8 171.5
Q 66.3 171.8 63.95 172.25 62.35 172.7 62.4 173.65 62.45 173.85 64.3 175.05 65.55 175.9 64.85 178.8 64.85 184.95 58.15 189.3 51.45 193.6 42 193.6 44.95 194.25 51.35 193.3 52.8 193.1 62.35 191.3
L 67.1 190.55
Q 69.25 188.3 69.35 182.2 69.4 176.35 73.1 173.05 75.25 171.1 77.6 169.6 79.95 168.05 80.2 167.9 81.65 166.6 81.3 161.55 81.15 161.7 79.6 163.15 78.3 164.35 76.3 166.4 74.05 170.3 67.8 171.5
M 267.1 184
L 267.15 183.5
Q 266.2 187 265.3 191.35 264.8 193.75 264.3 194.4 264.3 196.8 261.45 198.55 258.6 200.25 254.55 200.25 253.2 200.65 251.95 200.8
L 255.05 200.8
Q 259.4 200.8 262.5 199.25 265.4 197.8 265.6 195.8
L 265.6 195.5
Q 266.05 194.3 266.3 193.1
L 266.35 193 266.55 191.6
Q 266.85 186.65 266.95 185.4
L 267.1 184
M 278.6 184.2
Q 276 184.2 273.45 184.75
L 271.8 185.3
Q 276.3 185.55 278.8 186 283.25 186.7 287.2 189.4
L 289.8 190.5
Q 296.9 190.5 301.95 188.25 307 186 307 182.8
L 308.8 178.6 307 178.1 304.7 177.45
Q 303.35 177.45 302.4 178.2 301.4 178.9 301.4 179.9 300.9 180.5 298.55 182.35 296 184.4 295.1 184.8 293.75 185.25 291.8 185.25 290.8 185.25 285.2 184.75 279.65 184.2 278.6 184.2
M 286.9 125.8
Q 286.9 125.7 286.9 125.55
L 286.45 126.1 282.95 129.85 279.45 133.55
Q 279.1 133.9 274.5 137.75 269.95 141.75 269.2 143.3 267.95 148.05 262.7 148.85 259.9 149.25 255.6 148.75 254.9 148.75 253.3 149 251.8 149.25 251.6 149.35
L 251.45 149.5 252.9 150.3
Q 255.3 151.85 265.5 151.85 266.3 151.85 269.5 149.95 273.45 147.6 276.85 144.55 286.95 135.6 286.9 125.8
M 200.85 99.95
L 200.4 100.35 196.8 103.6
Q 196.05 104.25 195.7 105.8 195.7 105.9 195.25 108.7 193.85 113.3 186.25 114.3 185 114.45 180.8 114.7 178.15 114.85 177.65 115.3 180 116.4 184 117.35 187.6 118.2 189 118.2 193.55 118.2 195.95 113.6 196.95 111.75 200.5 100.75
L 200.85 99.95
M 214.05 134.55
L 212.9 137
Q 205.3 154.55 204.15 156.95 201.5 162.3 197.75 166.4 196.75 167.85 195.75 168.8 195.25 169.45 195.35 171.15 195.6 174.25 196.8 180.95 201.1 173.65 205.15 164.75 213.1 147.1 213.8 135.5
L 214.05 134.55
M 207.85 96.25
Q 208.7 97.2 213.6 98.55 218.1 99.8 219.3 99.8 221.6 99.8 224.9 95.5 228.8 90.4 231.4 82.05
L 229.45 84.55 228.85 85.3
Q 228.85 89.85 222.7 93.05 216.55 96.25 207.85 96.25
M 178.65 86.4
L 178.85 85.75
Q 178.1 86.15 178 86.5 177.9 86.75 177.7 87.1
L 178.2 85.1
Q 174 87.75 170.9 91.55 167.85 95.4 163 98.4
L 158.35 100.85
Q 153.5 103.4 152.5 104.1 151 105.35 147.8 107.9 145.1 110.1 143.85 111.65
L 143.4 112
Q 145.05 111.8 148.95 110.9 154.35 109.6 160.3 108.45 163.85 107.35 167.7 104.4 171.8 101.25 173.05 98.4
L 173.85 96.75
Q 174.95 93.8 175.25 93.1 176.3 90.7 178.65 86.4
M 220.2 11.6
Q 214 14.7 209.6 20.6 205.65 25.95 201.95 27.15 199.2 27.65 194.85 27.3 188.25 26.85 176.5 33.45 170.35 36.9 162.9 41.7
L 162.6 41.8 161.55 42.2 160.65 42.3
Q 171.2 41.95 179.1 37.5 183.25 34.95 185.55 33.75 189.5 31.65 193.75 30.6 203.75 30.75 204.95 30.75 205.65 30.75 208.45 30.05 211.65 27.95 212.45 27.05 213.95 25.3 218.5 18.05
L 223.7 9.9 220.2 11.6
M 296.75 67.25
Q 296.7 67.35 296.6 67.5 294.6 70.85 293.25 72.95 292.95 73.5 292.95 74.45 292.95 75 293.4 77.35 293.55 78.1 293.75 79.05
L 293.9 79.8
Q 294.65 85.45 289.2 92.6 285.6 97.3 285.25 97.8 283.45 100.6 283.45 102.75 283.45 103.9 283.75 106.7
L 284.45 110.7 284.45 111 285.65 107.95
Q 286.3 105.75 286.65 104.7 287.25 102.95 288.4 101.75
L 288.75 101.45
Q 293.35 99.7 293.6 99.4 296.85 97.05 297.1 96.85 299.7 94.25 300.8 91.05 301.75 88.1 301.75 83.6 301.75 79.7 300.6 76.95 297.9 70.55 296.9 67.75 296.8 67.45 296.75 67.25
M 406.75 123
Q 411.8 126.05 414.3 126.7
L 399.6 117.55
Q 401.3 119.75 406.75 123
M 362.75 150.8
L 362.55 150.25
Q 359.95 156.15 359.95 164.15 359.95 172.75 365.35 177.65 368.05 180.05 368.85 181.4 370.3 183.9 369.9 187.95 371.3 187 375.2 185.9 379.2 184.7 381.35 184.7 388.85 184.7 401.5 185.8 401.9 185.8 403.45 185.65 404.45 185.55 405.6 185.25 405.8 185.2 411.35 183.6 413.05 182.85 414.6 181.95 419.75 178.1 421.6 174.6 423 170.8 424.15 168.55 425.7 166 425.8 165.9 426.1546875 165.5453125 426.3 165.3 426.3681640625 165.2529296875 426.4 165.2
L 426.45 165.15
Q 429.25 162.25 431.55 159.45 436.05 153.85 436.05 151.45 436.05 151.3 435.8 150.7 434.85 148.7 432.65 142.8 431.4 141.1 429.65 139.1 429.55 139 429.5 138.95
L 429.3 138.7
Q 428.4 137.65 428.05 137.3
L 421.35 131.6
Q 423.45 134.95 423.45 137.25 423.45 137.45 422.95 139.2 422.45 141.1 422.1 141.75
L 421.3 142.45 422.75 142.6
Q 423.25 142.6 424.05 142.2 424.85 141.8 425.35 141.8 427.15 141.8 428.05 144.55 428.5 145.95 428.6 147.45 428.6 148.15 428.35 149.1 428.1 150 427.8 150.45 427.65 150.75 426.2 152.35 424.85 153.85 424.6 154.05 424 154.5 418.3 157.55 419.95 157.65 424.7 157.4 425.7 157.4 426.25 157.55 425.4 160.45 424.35 161.85 423 163.65 420.85 163.65 420.25 163.65 418.3 160.5 416.85 158.2 414.75 156.5 413.9 155.8 412.95 155.25 412.25 154.8 411.5 154.45 409.8 153.9 408.1 153 405.25 151.45 403.4 149.1 404.95 151.7 409.15 158.35 414.95 167.45 414.95 171.55 414.95 173.9 413.55 174.1 411.6 173.95 410.35 173.95 409.5 173.95 404.65 177.45 399.8 180.9 394.75 180.9 381.05 180.9 374.35 176.5 364.45 169.95 362.95 152.05
L 362.75 150.8
M 359.1 96.3
Q 359.05 96 359.05 95.75 359.1 92.75 358.35 90.1 357.9 88.4 356.85 86.25
L 356.9 87.45 356.55 98.2
Q 356.55 102.9 367.6 111.2 380.1 120.7 382.05 124.35
L 382.3 124.7
Q 382.2 124.45 382.15 124.15 380.35 118.7 379.45 115.8 379.05 114.55 378.85 113.75 377.8 109.75 377.8 104.85 375.05 95.65 374.5 92.15
L 374.45 90.7 372.9 93.5
Q 372.15 94.55 370.95 98.9 370.8 99.2 369.55 100.7 368.1 102.4 367.5 102.7 366.05 103.3 364.65 103.3 360.75 103.3 359.7 100.9 359.25 99.9 359.1 96.3
M 331.15 95.85
Q 331.2 96.75 331.05 97.9 331.05 99.55 332.6 110.95 333.95 120.65 333.15 123.95 332.95 124.7 327.75 136.65 323.5 141.45 322.85 141.95 321.25 143.15 317.85 143.15 312.45 143.15 309.2 142.1 307.45 141.5 305.2 140.5
L 303.85 140.05
Q 305.75 141 310.65 144.25 315.75 147 321 147 331.15 147 336.1 136.4 339.55 129.05 339.35 121.65 339.35 120.85 339.15 119.05 338.3 117.55 337.45 113.5 336.5 108.9 336.85 106.15 335.35 101.3 335.25 101.05 333.95 97 332.35 93.95 330.8 91.15 330.15 89.75 331.1 94.45 331.15 95.85
M 327.95 44.1
Q 325.95 42.5 324.3 42.5 313.75 42.6 311.2 38.95 309 33.2 304.5 29.05
L 304.8 30.2 305.4 31.75 305.8 32.8
Q 306.05 33.95 305.95 35.95 305.9 37.85 305.65 39.4
L 305.6 39.6
Q 305.6 43.6 301.6 46.45 297.6 49.3 291.95 49.3 284.1 49.5 282.25 49.75
L 282.5 50.05
Q 283.05 50.5 284.25 50.95 289 52.25 291.4 52.25 295 51.9 298.55 51.6 299 51.45 306.35 47.5 310.4 45.3 316.95 45.3 324.7 45.3 327.05 49.1 328.2 50.95 328.2 55.55 328.2 55.65 329.15 61.95 330.6 69.05 333.15 73.45 333.5 72.9 338.75 63.15 339.2 62.4 339.8 62.35 341.05 62.4 342.4 62.4 343.65 62.4 344.55 61.25 346.25 59.05 347.3 52.85
L 346.9 51.6 345.6 45.05 345.6 45.1
Q 344.85 45.65 342.05 50.5 339.8 54.4 337.3 54.4 336.55 54.4 334.4 51.8 333.25 50.45 331.8 48.45 329.75 45.6 327.95 44.1 Z"/>

<path fill="#6C5D45" stroke="none" d="
M 134.65 178.5
Q 135 177.55 135.25 176.65 134.75 177.2 133.7 178.1 131.25 183.9 129.5 186.85 128.65 188.35 126.35 191.45 128.95 190.9 132.1 184.5 132.75 183.15 133.35 181.85 133.75 180.35 134.5 178.8 134.55 178.65 134.65 178.5
M 145.15 152
Q 144.75 153.45 143.2 155.5 141.6 157.6 140.65 158 140.25 161.1 139.9 165.95 139.5 169.75 138.3 171.95
L 138.85 171.6 140.9 169.8
Q 143.75 164.25 144.35 159.2 144.6 154.45 145.15 152
M 109 191.8
Q 113.4 190.85 120.1 190.7 120.55 190.2 121.95 183.95 123.3 178 125.25 176.35 130.25 172.05 130.25 167.25 130.25 165.4 128.85 163.55 126.25 160.1 125.35 158.5 124.3 160.6 120.6 170.55 116.25 179.6 110.3 180.4 113.1 177.35 114.4 175.25 113.4 176.25 108.8 181.9 102.8 189.25 99.85 193.8 106.35 192.35 109 191.8
M 136.85 109.5
Q 132.5 109.55 131.2 110.2 132.95 109.9 136.45 109.8 141.15 109.65 143.05 109.55 141.15 109.6 136.85 109.5
M 78.15 184.35
Q 76.75 185.2 75.5 185.2 74.9 185.2 74.15 184.9 73.25 184.5 72.75 183.9 72 186.4 68.2 190.45 73.2 189.9 77.65 186.85 81.65 183.6 82.7 182.9
L 81.65 182.85
Q 79.95 183.25 78.15 184.35
M 61.55 171.95
L 62.2 170.65
Q 61.25 170.65 60.6 171.85 59.95 173 59.95 174.7 60.75 173.45 61.55 171.95
M 64 170.3
Q 64.4 170.55 65.25 170.8 66.25 171.1 66.95 171.1 70.25 170.35 71.95 169.3 68.8 170.1 64 170.3
M 30.05 190.3
L 30 190.3
Q 41.1 193.5 42 193.6 51.45 193.6 58.15 189.3 64.85 184.95 64.85 178.8 62.9 179 59.85 181.1 56.7 183.25 55.15 183.45 52.05 187.9 42.45 189.4 37.35 190.2 30.05 190.3
M 65.9 131.45
L 65.75 133.65
Q 65.75 139.4 70.55 143 74.6 146.05 79.2 146.05 81.3 146.05 84.85 144.05 81.35 144.9 77.9 143 72.45 139.95 70.75 139.45
L 72.25 139.35
Q 71.75 138.95 65.9 131.45
M 265.6 195.5
L 265.6 195.8
Q 265.45 198.1 263.05 199.75 260.45 201.5 256.85 201.5 254.9 202.6 253 203.45
L 255.75 204.15
Q 274.75 208.1 276.65 208.15 276.85 208.15 277.15 208.2
L 277.8 208.25 279.7 208.35 279.5 207.65
Q 282.65 203.8 289.95 204.75 293.7 205.25 294.25 205.25 296.05 205.15 296.05 203.6 296.05 201.05 289.8 190.5
L 287.2 189.4
Q 285.85 189.35 279.45 189.2 273.15 188.75 269.9 187 269.5 187.7 268.05 190.25 266.45 192.95 266.3 193.1 266.05 194.3 265.6 195.5
M 178.25 157.65
Q 177.5 158.55 177.5 160.1 177.5 162.4 178.3 164.65 178.6 165.45 178.9 166.05 179.2 166.7 179.55 167.15 179.45 166.6 179.35 166.05 178 159.6 178.25 157.65
M 178.25 89.4
L 178.25 89.2 175.2 94.4 173.05 98.4
Q 171.8 101.25 167.7 104.4 163.85 107.35 160.3 108.45 159.4 109.55 157.5 112.15 155.55 114.2 152.45 114.2 143.8 114.2 137.3 112.6 134.85 112 130.85 110.4 125.85 114.15 124.1 115.05 122.5 115.9 120.45 115.9 117.8 115.9 116.85 114.9 116 114.05 116.1 111.75
L 115.85 112.5 112.05 118.1
Q 112.55 110.3 112.15 108.1
L 111.95 109.75
Q 111.65 110.65 111.2 111.55 113.55 125.35 105.95 135.6 98.4 145.85 87.1 144.05
L 87.1 145.9 89.55 145.3 87.1 146.2
Q 87.1 147.6 85.6 152.7 84.1 157.85 83.3 159.05 85.15 157.1 86.25 153.75 87.1 151.05 87.05 149.35 87.15 151.1 87.25 151.1
L 87.45 156.95
Q 87.45 161.55 82.55 167.75 80 170.95 76.45 175.05 78.55 173.45 80.85 172.7 83.15 172.1 84.2 171.7 87.55 170.3 91 162.6 95.4 151.9 96.35 149.7 96.8 148.65 97.7 147.35 98.95 145.45 101.05 143.05 103.4 140 105.4 137.5 110.7 130.75 113.3 127.9 118.95 121.7 128.05 119.2 132.25 119.2 135.2 121.55 138.15 123.9 138.15 127.25 138.85 129 138.85 130.05 138.85 130.3 137.9 131.15 137.5 133.5 136.7 135.45 135.2 138.8 133.15 138.8 132.7 140.15 132.05 141.3 131.7 142.2 131.7 143.65 131.7 144.95 132.45 145.95 133.65 147.55 136.45 147.55 139.5 147.55 141.7 142.9 144.05 136.8 145.8 134 148 130.5 153.55 129.15 156.5 128.4 166.9 127.4
L 165.45 128.1
Q 163.85 128.95 159.8 131.55 161.5 131.1 163.5 130.65
L 165.2 130.35
Q 170.45 129 174.6 131.6 175.7 132.3 177.55 133.65 179.1 134.65 180.4 134.65 186.35 134.65 189.2 135.85 194.4 138.05 193.2 144.35 193.95 143.3 194.3 141.55 194.45 140.65 194.45 139.95 194.45 139.4 193.15 134.65
L 193.45 135.4
Q 195.25 139.05 195.95 140.75 197 143.4 197 145.05 197 152.6 194.15 156.2 192.2 158.7 188 159.95 183.1 161.45 182.15 162.15 180.45 163.4 180.2 166.05 180.05 167.15 180.2 168.55 180.95 170.25 181.85 173.2 182.1 174.05 182.3 174.75 182.75 176.45 182.75 177.15 182.75 178.25 182.1 179.65 182.1 181.15 181.45 182.25 180.8 183.3 179.85 183.3 177.7 196.9 169.3 202.9 166.7 204.75 162.2 206.7 157.35 208.8 155.95 209.7
L 155.9 209.75
Q 169.75 208.2 171.4 207.85 170.85 207.75 173.1 207.45
L 184.1 205.05
Q 190.35 201.8 191.35 200.55 193.45 197.85 193.45 189.9 193.45 183.4 192.55 174.55 192.45 173.7 192.95 173.3 194.8 171.75 195.35 171.15 195.25 169.45 195.75 168.8 196.75 167.85 197.75 166.4 197.95 164.85 202.55 153.25 207.05 142.1 207.05 139.1 207.05 135.75 203.4 131.25 199 125.8 193.2 125.55 191.35 125.5 189.25 124.05 188.8 123.7 185.3 120.8 180.1 116.5 174.5 115.25 175.35 115.3 177.65 115.3 178.15 114.85 180.8 114.7 185 114.45 186.25 114.3 193.85 113.3 195.25 108.7 194 111 178.8 113.6 176.35 113.6 173.75 112.7 169.9 111.35 169.9 108.8 169.9 108.2 170.9 105.4
L 171.85 102.7
Q 172.9 101.25 175.25 96.45 177.75 91.35 178.25 89.4
M 164.5 46.05
Q 164.65 45.6 165.05 45.3 165.6 44.9 167.2 44.6
L 169.3 43.25
Q 164.5 44.4 155.25 42.6
L 155.9 42.65
Q 157.25 42.55 158.55 42.3 150.8 41.55 145.2 39.5 140.2 37.7 139.45 37.7 137.2 37.7 134.45 38.35 131.7 38.95 128.75 38.95 127.55 38.95 126.85 38.2 125.85 37.2 126.05 35.05 125.9 35 125.35 36.7 125.05 37.6 124.6 39.05 124.15 39.95 123.55 40.8 129.65 40.1 133.15 40.15 139.2 40.3 145.1 43.15 149.15 43.75 153.25 46.15 156.7 48.15 160.5 48.05
L 161.55 47.6
Q 162.6 47 164.3 46.15
L 164.5 46.05
M 162.6 41.8
L 162.9 41.7
Q 162.45 41.75 161.2 41.7 159.85 41.7 158.55 41.9 159.1 42.2 160.45 42.05
L 162.6 41.8
M 276.5 15.8
L 276.5 15.85
Q 276.85 15.95 282.7 16.95 279.15 16.15 276.5 15.8
M 291.95 49.3
Q 297.6 49.3 301.6 46.45 305.6 43.6 305.6 39.6
L 305.65 39.4
Q 305.9 37.5 305.8 32.8
L 305.4 31.75
Q 305.45 34.05 300.25 40.4 296.35 45.1 291.95 49.3
M 327.75 136.65
Q 332.95 124.7 333.15 123.95 331.9 111.85 328.55 101.9 322.05 82.4 307.9 82.4 305.35 82.4 304.1 84.05 303.35 85.1 302.65 88.05 301.05 94.75 297.1 96.85 296.85 97.05 293.6 99.4 293.5 99.55 291 105.95 288.4 112.6 286.6 116.2 286.5 115.65 286.4 115.4
L 286.3 115.3
Q 286.25 114 285.65 107.95
L 284.45 111 284.45 110.7 283.75 106.7
Q 282.5 110.15 281.45 112.9 281.05 114.35 281.05 118.2 281.05 124.75 280.5 128.6 280.25 130.3 279.45 133.55
L 282.95 129.85
Q 284.15 127.45 286.45 126.1
L 286.9 125.55
Q 286.9 125.7 286.9 125.8 289.8 124.25 293.2 124.95
L 292.75 112.05
Q 292.75 104.6 294 102.5 294.25 102.05 299 98.1 302.15 95.45 304.35 90.45 305.55 87.65 311.55 86.7 307.3 111.05 305.6 133.45 305 133.3 301.9 132.05 298.45 130.6 296.8 129.75 296.9 129.85 303.7 136.85 308.25 141.5 312.4 141.5 317.35 141.5 322.3 139.3 326.7 136.95 327.75 136.65
M 336.35 141.85
Q 335.35 141.85 333.85 143.3 332.95 144.2 330.7 146.55 325.7 151.25 319.6 151.25 312.75 151.25 301.55 143.3 291.5 135.3 290.4 135.3 286.3 135.3 283.3 138.3 282.35 139.3 278.35 145 275.2 149.5 271.95 151.65 267.3 154.65 260.45 154.65 254 154.15 250.25 150.8
L 251.15 150.35 252.9 150.3 251.45 149.5 251.6 149.35
Q 251.8 149.25 253.3 149 254.9 148.75 255.6 148.75 259.9 149.25 262.7 148.85 267.95 148.05 269.2 143.3 267 143.7 261.6 145.2 257.6 146.3 255.3 146.3 254 146.3 247.8 144.45 241.25 142.5 239.65 142.35 235.75 141.9 233.5 137.45 231.6 133.7 231.95 130.4
L 230.95 125.5
Q 230.45 123.7 230.25 123.15 230.2 122.95 229.4 118.85 229.35 118.8 229.35 118.75 228.85 116.55 228.4 112.9 228 109.75 228 108.8 228 103.9 228.65 102.1 229.05 101 229.15 99.85 229.2 99.3 229.15 98.7 229.55 94.1 229.9 92 228.95 93.3 227.95 100.95 227.05 107.8 227.05 111.2
L 227.1 113.1 226.9 111.8
Q 227 106.15 223.4 104.25 220.7 102.8 214.75 103.25 212.5 103.45 207.6 100.45 204 98.05 202.15 97 201 97.8 200.1 98.6
L 200.4 100.35 200.85 99.95 200.5 100.75
Q 200.95 101.85 201.4 103.8 201.9 106.1 201.9 107.45 201.9 110.75 198.95 113.8 196 116.9 196 118.95 212.1 134.1 213.6 135.35
L 214.05 134.55 213.8 135.5
Q 216 137.2 217.75 138.3 218.4 138.75 218.4 139.5 218.4 144.35 213.2 153.7 208 163.1 208 165.9 208 166.75 209.05 171.8 209.05 174.7 207.3 176.6 206.25 177.8 203.4 179.45 197.25 182.95 196.4 187.4 194.75 196.1 194.15 197.7 192.7 201.65 189 203.7
L 188.35 204.15
Q 193.2376953125 203.2955078125 198.75 202.65 203.05 202.4 207.65 202.5 204.85 201.7 203.6 197.25 202.7 194.1 202.7 189.9 202.7 186.8 204.7 184.5 205.65 183.35 209.05 180.9 215.35 176.2 215.35 169.8 215.35 168.85 214.55 165.05 213.75 161.2 213.15 159.5 212.8 158.85 212.6 157.9
L 212.95 157 212.6 156.45
Q 213.65 156.1 217.3 153.55 222.7 149.7 223.35 149.3
L 224.75 148.1 225.3 147.7
Q 226.05 147.5 226.9 147.5 227.15 147.5 227.4 147.5 233.25 147.25 238.3 149.55 244.05 152.1 245.35 156.25
L 247.1 157.6 245.5 157.65
Q 245.8 158.5 252.3 167.5 258.65 176.25 259.2 178.5
L 259.45 178.05
Q 260.85 170.8 273.15 157.6 285.25 145.8 285.3 145.8 289.75 145.8 297.35 154.8 304.5 163.25 304.5 166.3 304.5 169.85 302.65 171.65 300.8 173.45 300.8 175.8 300.8 176.8 301.4 179.9 301.4 178.9 302.4 178.2 303.35 177.45 304.7 177.45
L 306.1 177.8
Q 306.65 177.65 306.75 177.2
L 306.9 176.9 307 178.1 308.8 178.6 307 182.8
Q 307.85 190.3 303.65 193.2 302.6 193.9 300.6 195.05 299.2 196.15 299.2 197.9 299.2 198.9 306.5 206 313.65 213 316.35 214.7 323.25 214.9 327.3 213.65 330.1 212.35 330.2 212.3 338.1 205.7 343.05 200.85 352.35 191.75 352.35 187.45 352.35 181.5 347.65 178.7 345.05 177.2 344.4 176.45 342.9 174.9 342.9 172.25 342.9 170.05 344.05 167.05 345.15 164.05 345.15 163.75 345.15 162.8 346.45 162.3 348.3 161.85 349.35 161.45 353.5 159.95 353.5 154.65 353.5 150.25 350.5 146.85 346 141.85 336.35 141.85
M 325.1 162.9
Q 326.3 162.55 329.05 161.05 332.05 159.45 333.15 159.45 334.3 159.45 335.3 160.5 336.4 161.65 336.4 163.45 336.4 165.15 334 167.55 333.45 168.1 328.65 172.25 320.85 179 320.75 184.2
L 323.9 184.5
Q 322 188.95 316.95 193.9 314.3 196.45 310.95 199.55 310.3 197.25 309.85 196.65 309.6 196.3 309.6 195.95 309.6 194.4 311.5 183.95 313.35 174 313.7 172.75 314.95 169.95 317.95 167.05 321.45 163.6 324.8 163
L 325.1 162.9
M 379.35 113.8
Q 379.35 114.8 379.45 115.8 380.35 118.7 382.15 124.15 384.4 128.35 388.55 132.4 394.8 138.55 400.15 140.8 408.45 144.25 411.15 151.05 412.65 154.8 412.8 155.05 412.85 155.15 412.95 155.25 413.9 155.8 414.75 156.5 415.3 156.65 416 156.65 417.9 156.65 421.2 155.45 422.9 154.8 424.6 154.05 424.85 153.85 426.2 152.35 427.65 150.75 427.8 150.45 426.3 147.5 424.7 146.55 423.6 145.9 421.6 145.95 416.4 146 412.5 142.55
L 414 142.55
Q 419.05 142.9 420.15 142.75 418.95 133.7 411.4 132.3 407.4 131.85 405.7 131.35 402.8 130.55 401.75 128.15 400.05 121.1 397.6 117.7 393.2 111.65 381.4 111.65 380.3 111.65 379.8 112.15 379.35 112.65 379.35 113.8
M 325.5 51.4
L 324.65 51.3
Q 323.6 51.3 319.55 52.05 315.5 52.8 312.45 52.8 311.45 52.8 310.9 52.1 310.6 51.75 308.75 48.5 306.8 49.7 304 50.7 300.35 52.05 298.55 51.6 295 51.9 291.4 52.25 289 52.25 284.25 50.95 280.2 50.45 277.25 47.5 274.5 44.75 272.85 44.75 262 44.75 253.2 51 251 52.55 247.65 55.25 245.05 57.2 243.4 57.2 240.45 57.2 237.9 52.5 235.5 48.15 235.45 43.95 234.7 41.35 234.7 39.85 235.35 34.6 235.5 32.75 233.2 27.2 233.05 26.9
L 232.75 26
Q 232.75 19.9 234.65 15.6 236.55 11.25 239.25 11.25 241.2 9.6 242.35 8.45 237.8 7.8 230.45 6.45 224.8 5.45 223.95 5.45 221.5 5.45 221.05 6.2 220.55 6.95 220.2 11.6
L 223.7 9.9 218.5 18.05 224.6 16.7
Q 224.4 22.95 220.3 27.3 218.25 29.5 216.15 30.45
L 208.45 30.05
Q 205.65 30.75 204.95 30.75 203.75 30.75 193.75 30.6 189.95 32.15 184.55 35.5 177.15 40.15 175.25 41.15 177.55 40.65 181.35 40.35 183.95 40.15 185.45 40.15 197.9 41 198.9 41 199.5 41 202.3 37.75 205.1 34.45 208.8 34.45 210.45 34.45 212.25 35.35 214 36.25 214 37.1 214 39.9 207.95 43.45 203.85 45.85 196.1 49 199.9 49.5 202.25 49.5 204.55 49.5 206.9 49.2 209.5 48.8 210.7 48.25
L 217.75 43.35
Q 219.65 41.6 221.15 40.8 223.05 39.8 225.25 39.8 225.4 39.8 226.2 40.2 227.05 40.65 227.6 41.05 228.05 41.5 228.3 42.05 230.55 47.85 233 73.05 233 79.25 228.25 83.65 224.75 86.9 217.35 90.05 213.3 91.8 205.45 95.1 204.45 95.6 203.6 96.1 203.95 96.1 204.35 96.1 207.3 96.25 207.85 96.25 216.55 96.25 222.7 93.05 228.85 89.85 228.85 85.3
L 229.15 84.85 236.65 68.2 236.7 69.85
Q 236.7 72.45 236.15 75.75 236.5 75.3 237.55 74.45 245 65.8 246.65 64.55 250.45 61.7 257.55 61.7 270.65 61.7 276.45 62.75 288.1 64.85 290 71.6
L 289.35 71.55
Q 289.45 71.7 293.9 79.8
L 293.75 79.05
Q 293.55 78.1 293.4 77.35 291.65 69.3 287.85 65.65 284.5 62.35 278.25 61.6 274.55 61.2 265.95 61 257.9 60.45 252 57.75
L 253 57.45
Q 265.3 51.9 269.5 51.9 272.85 51.9 278.35 53.4 285.65 55.45 288.45 58.65 294.35 65.5 295.7 66.7 296.05 67.05 296.6 67.5 296.7 67.35 296.75 67.25 296.8 67.45 296.9 67.75 297.7 68.35 298.85 69.15 303.5 73 324.55 82.5 328.1 82.5 329.4 78.55
L 329.4 78.2
Q 328.1 69.9 325.9 66.7 324.15 64.15 324.15 61.95 324.15 60.7 324.95 58.75 325.75 56.85 325.75 53.9 325.5 51.5 325.5 51.4
M 302 54.3
Q 302.5 55.25 302.5 56.65 302.5 58.7 301.6 62 300.65 65.3 300.65 66.75 300.65 67.8 301.4 69.45
L 300.45 68.95
Q 298.95 67.45 297.7 65.25 295.8 61.75 295.8 58.35 295.8 56.2 297.4 54.6 298.8 53.2 300.2 53.2 301.4 53.2 302 54.3
M 361.15 66.95
Q 360.75 66.95 355.1 65.35 349.45 63.7 347.35 63.7 341.95 63.7 338.75 71.35 335.2 79.8 335.2 95.75
L 335.25 101.05
Q 335.35 101.3 336.85 106.15 336.75 92.45 337.3 89 338 87.45 338.15 84.6
L 338.75 85.75
Q 342.5 98.85 345.25 110.7 348.15 123.2 348.2 126.75
L 350.4 128.95 349.75 128.8 348.8 128.4
Q 348.3 127.9 348.2 126.75 345.65 124.2 342.45 121.7 339.25 119.15 339.15 119.05 339.35 120.85 339.35 121.65 344.5 126.8 345.85 131.05 346.85 134.15 348.8 135.1 358.4 137.9 365.15 140 378.1 144.1 378.1 147.6 378.1 148.05 378.05 148.3 379.25 147 380.35 146.6 381.55 146.2 381 147.7 380.25 150.3 378.25 154 376.85 156.5 376.85 159.35 376.85 160.4 377.15 163.75 377.5 167.5 377.85 168.7 374.75 166.15 373.65 165.05 371.95 163.25 371.95 160.3 371.95 155.85 372.9 154.2 374.7 152.35 376.3 150.5 375.4 151.3 371.95 152.55 369 154.25 369 158.25 369 165.8 375.15 172.05 381.85 178.9 391.4 178.9 396.35 178.9 400.6 176.25 406.7 172.45 406.7 164.75 406.7 162.5 392.7 143.75 378.05 124.05 370.95 118.05 366.65 114.4 361.45 107.9 355.5 100.5 355.65 97.75 355.9 92 353 86.5 349.55 81.1 348.6 78.4
L 349.4 79.45
Q 352.25 82.7 354.9 85.4 356.85 87.4 356.9 87.45
L 356.85 86.25
Q 357.9 88.4 358.35 90.1 359.1 92.75 359.05 95.75 359.05 96 359.1 96.3 359.3 98.85 361.55 100.7 364 102.7 367.5 102.7 368.1 102.4 369.55 100.7 370.8 99.2 370.95 98.9 372.15 94.55 372.9 93.5
L 374.45 90.7 374.5 92.15
Q 375.15 91.25 375.15 90.95 375.05 89.6 374.95 85.35 373.55 80.85 372.05 78.05 370 74.1 367.05 71.5
L 365 69.75
Q 363.85 68.8 361.15 66.95
M 329.7 23.4
L 329.7 23.45
Q 328.55 27.6 328.4 27.85 326.95 29.65 321.65 29.65 321.25 29.65 303.75 23.4 294.35 20.05 287.45 18.15 288.8 18.75 289.9 19.7 297.5 22.1 311.9 29.15 319.05 32.65 324.8 35.65 325.2 35.6 325.4 35.6 325.85 40.1 327.95 44.1 329.75 45.6 331.8 48.45 333.25 50.45 334.4 51.8 335.9 52.65 337.4 52.65 340.15 52.65 341 50.35 342.25 46.85 341.8 35 340.2 31.8 335.9 27.95 332.15 24.6 329.7 23.4 Z"/>

<path fill="#827155" stroke="none" d="
M 135.2 121.55
Q 132.25 119.2 128.05 119.2 123.3 120.8 110.6 132.5 107.65 135.2 105.4 137.5 103.4 140 101.05 143.05 98.95 145.45 97.7 147.35 97.55 147.8 97.55 148.15 97.55 149.15 97.65 149.1 107.55 149.4 108.55 149.4 109.45 149.4 124.05 140.3 135.05 133.45 137.9 131.15 138.85 130.3 138.85 130.05 138.85 129 138.15 127.25 138.15 123.9 135.2 121.55
M 113 169.65
Q 112.15 169.6 105.7 168.8 99.25 168.1 97.3 168.1 89.45 168.1 82.35 173.4 76.55 177.7 76.35 180.05 89.5 180.05 94.9 179.25 103.5 177.9 113 169.65
M 43.5 146.15
Q 47.9 143.05 49.05 143.05 51.45 143.05 59.2 146.9 66.95 150.7 70.95 150.7 73.9 150.7 79.1 149.05 81.7 148.25 87.1 146.2
L 89.55 145.3 87.1 145.9
Q 80.75 146.3 78.25 146.3 72.45 146.25 68.75 145.1
L 68.8 145.15
Q 71.1 146.25 73.25 147 75.75 147.85 77.15 148.3
L 74.65 148.5
Q 73.8 148.45 71.5 147.1 69.3 145.8 68.8 145.15
L 68.45 144.95
Q 65.85 144.95 64.05 142.2 62.2 139.45 62.2 135.6 60.7 133.1 57.45 130.65 54.5 128.4 53.25 128.4 47.8 128.4 40.4 134.5 31.9 141.5 31.9 149.6 31.9 152.05 35.1 153.85 35.35 154 40.3 156.05 40.2 156.25 39.9 156.6 39.6 156.85 39.6 157 36.3 157.25 31.7 156.9 28.35 156.6 25.25 157.35 24.1 157.65 18.7 159.85 13.15 161.95 10.15 161.95 9.15390625 161.95 9.25 161.85
L 4.7 166.4 4.75 166.45
Q 6.7 171.35 13.65 173.5 20.3 174.7 20.35 174.7 22.35 174.7 25.05 172.95 27.8 171.15 29.15 171.15 36.45 171.15 40.15 176.8 42.5 180.3 42.8 180.65 44.4 182.4 46.75 182.4 50.55 182.4 54.45 177.8 58 173.6 58 170.65
L 57.75 168.45
Q 54.5 168.35 54.4 168.3 53.45 168.1 53.45 166.65 53.45 165.8 56.2 162.6 58.95 159.35 58.95 158.1 58.95 157.45 55.8 157.15 53.9 157 48.8 156.65 38.65 155.7 38.65 151.6 38.65 149.6 43.5 146.15
M 110.9 95.4
Q 108.5 90.85 103.25 89.1 100.6 88.2 97.9 88.2 88.25 88.2 76.05 97.4 62.7 107.45 62.7 118.15 62.7 123 61.9 124.3 61.1 125.55 61.1 128.25 61.1 129.1 61.35 131.05 61.65 133.2 62.05 134.7 61.5 129.4 61.5 128.4 61.5 128.15 61.9 127.8 62.45 127.4 62.7 127.1 62.9 127.2 65.8 128.95 68 130.25 68.75 130.35
L 69.2 130.2
Q 67.1 117.35 75.6 108.65 83.1 101 92.9 101 96.3 101 100.75 106.25 106.3 112.85 106.65 113.1 108.25 110.45 110.85 104.1 113.1 98.5 113.1 98.15 113.1 94.65 110.65 88.7 107 79.85 100.7 78.5 106.95 83.05 108.35 85.25 110.2 88.05 110.9 95.4
M 180.2 168.55
L 180.2 170.25 179.55 167.15
Q 179.2 166.7 178.9 166.05 166.65 166.3 148.35 165.9 148.2 165.9 140.9 169.8
L 138.85 171.6
Q 138 172.9 137.3 174 137.3 174.05 137.25 174.1 137 174.55 136.7 175 135.35 177.15 134.65 178.5 134.55 178.65 134.5 178.8 133.75 180.35 133.35 181.85 132.7 184 132.7 186 132.7 186.1 134.85 191.5 137.7 196.9 141.45 196.9 143 196.9 148.65 192.15 154.45 187.25 156.25 186.95 161.85 186.35 167.2 185.6 177.75 184.2 179.85 183.3 180.8 183.3 181.45 182.25 182.1 181.15 182.1 179.65 182.25 178.4 182.3 174.75 182.1 174.05 181.85 173.2 180.95 170.25 180.2 168.55
M 176.6 133.9
Q 173.95 131.85 172.95 131.25 171.45 130.4 165.2 130.35
L 163.5 130.65
Q 161.5 131.1 159.8 131.55 154.3 131.55 150.45 136.35 146.55 141.15 146.55 147.95 149.6 149.45 157.55 150 161.65 150.25 168.4 150.25 170.15 150.25 176.2 146 182.25 141.7 184.65 141.7 185.65 141.7 186.75 142.8 187.8 143.85 188.35 143.85 189.95 143.85 190.45 143.45 191 143 191 141.6 191 136.9 186.4 135.9 183.95 135.35 180.55 135.65
L 182.7 136.65
Q 174.45 138.15 170.85 139.9 168.15 141.15 167.2 141.15 164.8 141.15 149.3 140
L 149.8 139.35
Q 152.1 136.7 154.85 134.7 160.2 130.85 167 130.85 169.6 130.85 171.2 131.5 173.75 132.7 176.6 133.9
M 226.9 147.5
Q 226.05 147.5 225.3 147.7
L 224.75 148.1 224.2 148.75
Q 224.45 148.5 227.95 149.65
L 231.4 150.85
Q 230.25 156.05 227.6 157.75 225.9 158.85 222.4 158.85 220.55 158.85 217.1 158.15 214.1 157.5 213 157.05
L 212.6 157.9
Q 212.8 158.85 213.15 159.5 214.9 162.25 216.1 164.85 216.85 166.1 218.8 166.1 227.35 166.1 232.9 163.1 240.95 158.8 245.5 157.65
L 247.1 157.6 245.35 156.25
Q 241.4 151.85 235.8 149.5 231.35 147.6 227.4 147.5 227.15 147.5 226.9 147.5
M 164.45 46.75
Q 164.4 46.45 164.45 46.25 163.25 46.9 161.55 47.6
L 160.5 48.05
Q 164.05 47.6 164.45 46.75
M 171.95 42.55
Q 170.3 42.8 169.3 43.25
L 167.2 44.6
Q 173.2 43.35 194.1 42.9 184.55 44.85 170.9 49 159.15 52.6 158.45 52.6 157.65 52.6 149 49.4 139.8 45.95 135.2 45.25 127 44.65 119.3 44.45 119.25 44.45 119.2 44.45
L 117.45 45.65
Q 117.3 45.8 114.8 47.7 112.3 49.95 111.85 51.75 113.95 60.55 115.2 66.6 115.65 67.95 116.3 68.2 116.65 68.3 118.5 68.3 120.45 68.3 121.8 65.7 123.25 62.1 124.35 60.05 128.85 51.8 141.1 51.8 145.3 51.8 150.45 54.75 155.6 57.65 157.75 57.65 158 57.65 167 53.5 176.5 49.1 179.35 48.25 185.2 46.55 190.4 44.8 197.75 42.35 198.9 42
L 171.95 42.55
M 229.1 47.15
Q 229.1 46.35 228.85 44.7 228.6 42.9 228.3 42.05 228.05 41.5 227.6 41.05 227.2 40.85 226.75 40.95 226.15 41 224.8 41.55 221.75 44.35 217.3 47.2 214.85 48.8 210.25 51.75 202.65 57 200.55 64.3 198.25 72.25 192.3 76.9 188.65 79.8 178.85 85.75
L 178.65 86.4
Q 178.35 88.1 178.25 89.2
L 178.25 89.4
Q 177.9 95.25 177.6 96.4
L 178.35 95.3
Q 186.15 86.5 189.3 84.1 195 79.75 201.8 80 207.15 80.2 208.9 78.3 209.75 77.3 210.25 73.85 210.7 70.7 212.55 69.35 215.3 67.25 222.4 67.25 225.55 67.25 227.1 63.65 229.1 58.95 229.1 47.15
M 182.95 59.5
Q 183.8 60.1 183.8 60.15 183.95 60.3 183.95 61 183.95 63.65 172.85 66 159.2 68.95 156.9 70.2 153.25 72.2 142.9 79.95 133.8 86.75 132.4 87 133 84.65 136.45 81.2 140.05 77.85 140.65 77.05 134.15 82.4 132.2 85.7 130.9 87.85 128.95 93 136.85 88 148.3 87.4 154.15 87.1 155.9 86.75 159.65 86.05 162.05 83.85 164.2 81.9 168.7 80.1 175.45 77.3 176.2 76.95 184.9 72.5 184.9 62.35 184.9 60.2 182.95 59.5
M 219.2 1.75
Q 211.15 3.35 204.5 8.25 202.85 9.45 200.55 11.35 198.8 12.7 198.05 12.7 192.15 12.2 191.25 10.55 191.4 10.2 191.9 9.55 192.25 9.1 192.25 8.55 192.25 7.85 191.3 7.05 189.65 5.65 186.05 5.65 176.85 5.65 173.8 6.6 171.9 7.15 170.15 9.4 165.35 15.65 145.35 21.05 144 22.05 140.65 24.05 138 25.9 138 27.3 138 29.5 143.3 31 148.35 32.45 155.05 32.45 158.9 32.45 162 30.05 165.45 26.65 167.5 24.75 175.55 17 189.6 17 191.45 17 191.75 18.6 192.05 20.2 194.6 20.2 204.65 20.2 212.35 15.4 220.7 10.2 220.8 2.3
L 219.2 1.75
M 242.35 8.45
L 241.7 9.9 243.8 8.6 242.35 8.45
M 271.8 67.9
Q 275.7 67.9 280.45 69.35 286.45 71.15 289.35 71.55
L 290 71.6
Q 288.1 64.85 276.45 62.75 270.65 61.7 257.55 61.7 250.45 61.7 246.65 64.55 245 65.8 237.55 74.45
L 236.4 76.15
Q 240.7 71.15 244.75 67.3 249 63.2 250.1 63.2 250.85 63.2 258.85 63.55 252.9 64.3 248.4 69.2 244.55 73.3 239.55 82.45 237.15 86.1 234.4 96.2 231.45 107.05 231.45 114
L 231.55 120.45 231 119.1
Q 229.1 111.05 229.1 105.4
L 229.15 99.85
Q 229.05 101 228.65 102.1 228 103.9 228 108.8 228 109.75 228.4 112.9 228.85 116.55 229.35 118.75 229.35 118.8 229.4 118.85 229.55 119.55 230.95 125.5
L 231.95 130.4 232.85 134.75
Q 231.6 128.05 232.35 118.1 233.3 105.95 237 95.7 247.1 67.9 271.8 67.9
M 298.3 25.65
L 297.8 25.95
Q 298.1 25.8 298.35 25.75 298.3 25.7 298.3 25.65
M 310.65 16.3
L 310.65 16.15
Q 284.75 11.8 277.35 10.9 271.45 10.15 251.55 8.65
L 247 8.65
Q 244.4 11.9 239.6 16.95 236.1 21.4 236.1 26.6 236.1 27.6 236.3 33.5
L 235.5 32.75
Q 235.35 34.6 234.7 39.85 234.7 41.35 235.45 43.95 235.5 44.1 236.6 45.75 237.65 47.35 237.85 47.55 239.95 43.85 245.5 41.9 250.6 40.15 255.5 40.7
L 255.55 39.05
Q 255.55 31.5 259.25 27.05 264.2 21 275.6 21
L 282.2 21 281.15 20.3
Q 278.65 20.1 277.2 18.95 276.05 18 276.05 16.95 276.05 16.35 276.3 16.05
L 276.5 15.85 276.5 15.8
Q 280.15 15.2 281.25 15.05 282.8 14.8 286.55 14.8 288.2 14.8 295.7 16.9 303.2 19 308 19 309.5 19 310.05 18.75 310.75 18.45 310.75 17.5
L 310.65 16.3
M 332.25 161.25
L 325.1 162.9 324.8 163
Q 321.45 163.6 317.95 167.05 314.95 169.95 313.7 172.75 313.55 174.55 312.8 183.3 312.25 189.4 312.2 192.15 313.1 190.9 315.15 185.5 317.7 178.7 319.3 175.35 324.85 163.75 332.25 161.25
M 296.95 37.05
Q 301.05 33.7 298.4 25.85 297.2 26.6 291.2 30 287.5 32.1 284.4 34.55 281.3 37 281.3 37.8 281.3 39 283.9 39.45 286 39.85 290.65 39.85 293.5 39.85 296.95 37.05 Z"/>

<path fill="#928164" stroke="none" d="
M 77.15 148.3
Q 75.75 147.85 73.25 147 71.1 146.25 68.8 145.15 69.3 145.8 71.5 147.1 73.8 148.45 74.65 148.5
L 77.15 148.3
M 65 140.55
Q 67.2 144.1 68.45 144.95
L 68.8 145.15 68.75 145.1
Q 64.1 137.35 62.45 135.85 63 137.4 65 140.55
M 100.7 78.5
Q 99.45 78 98.15 77.6
L 92.4 82.45 87.9 85.6
Q 79.55 91 64.25 105.95 49.1 120.75 45.4 123.05 35.15 129.45 33.05 133.15 32.35 134.45 30.8 137.8 28.95 141.45 25.7 145.8 25.65 145.9 25.45 146.15 24.65 147.05 21.4 150.3 18.85 152.8 17.5 154.15
L 16.7 154.85
Q 16.55 155 16.4 155.15
L 9.25 161.85
Q 9.15390625 161.95 10.15 161.95 13.15 161.95 18.7 159.85 24.1 157.65 25.25 157.35 28.35 156.6 31.7 156.9 36.3 157.25 39.6 157 39.6 156.85 39.9 156.6 40.2 156.25 40.3 156.05 35.35 154 35.1 153.85 31.9 152.05 31.9 149.6 31.9 141.5 40.4 134.5 47.8 128.4 53.25 128.4 54.5 128.4 57.45 130.65 60.7 133.1 62.2 135.6
L 62.45 135.85 62.05 134.7
Q 61.65 133.2 61.35 131.05 61.1 129.1 61.1 128.25 61.1 125.55 61.9 124.3 62.7 123 62.7 118.15 62.7 107.45 76.05 97.4 88.25 88.2 97.9 88.2 100.6 88.2 103.25 89.1 108.5 90.85 110.9 95.4 110.2 88.05 108.35 85.25 106.95 83.05 100.7 78.5
M 231.4 150.85
L 227.95 149.65
Q 224.45 148.5 224.2 148.75
L 223.35 149.3
Q 222.7 149.7 217.3 153.55 213.65 156.1 212.6 156.45
L 212.95 157 213 157.05
Q 214.1 157.5 217.1 158.15 220.55 158.85 222.4 158.85 225.9 158.85 227.6 157.75 230.25 156.05 231.4 150.85
M 180.55 135.65
L 176.6 133.9
Q 173.75 132.7 171.2 131.5 169.6 130.85 167 130.85 160.2 130.85 154.85 134.7 152.1 136.7 149.8 139.35
L 149.3 140
Q 164.8 141.15 167.2 141.15 168.15 141.15 170.85 139.9 174.45 138.15 182.7 136.65
L 180.55 135.65
M 165.05 45.3
Q 164.65 45.6 164.5 46.05
L 165.8 45.45
Q 165.2 45.85 164.45 46.25 164.4 46.45 164.45 46.75 164.05 47.6 160.5 48.05 156.7 48.15 153.25 46.15 149.15 43.75 145.1 43.15 141.6 42.5 138.15 43.05 134.95 43.6 133.7 44.75 134.25 45.05 135.2 45.25 139.8 45.95 149 49.4 157.65 52.6 158.45 52.6 159.15 52.6 170.9 49 184.55 44.85 194.1 42.9 173.2 43.35 167.2 44.6 165.6 44.9 165.05 45.3
M 219.5 42.6
Q 218.3 43 217.75 43.35
L 210.7 48.25
Q 209.2 49.6 207.15 50.2 206 50.5 203.6 51.05 199 52.4 195.4 58.55 188.9 69.7 185.2 74.05 184.55 74.8 181.5 79.65 178.5 84.45 178.2 85.1
L 177.7 87.1
Q 177.9 86.75 178 86.5 178.1 86.15 178.85 85.75 188.65 79.8 192.3 76.9 198.25 72.25 200.55 64.3 202.65 57 210.25 51.75 214.85 48.8 217.3 47.2 221.75 44.35 224.8 41.55
L 224.9 41.35
Q 221.85 41.75 219.5 42.6
M 183.8 60.15
Q 183.8 60.1 182.95 59.5 179.55 58.6 173.35 58.5 164.75 58.4 158.55 60.75 149.35 64.2 146.8 68.15 146 69.35 144.65 72.05 143.1 74.65 140.65 77.05 140.05 77.85 136.45 81.2 133 84.65 132.4 87 133.8 86.75 142.9 79.95 153.25 72.2 156.9 70.2 159.2 68.95 172.85 66 183.95 63.65 183.95 61 183.95 60.3 183.8 60.15
M 214.35 0.8
Q 209.75 0 207.35 0 186.95 0 169.65 7.25 163.65 9.75 155.9 14.05 151.65 16.4 143.5 20.95
L 145.35 21.05
Q 165.35 15.65 170.15 9.4 171.9 7.15 173.8 6.6 176.85 5.65 186.05 5.65 189.65 5.65 191.3 7.05 192.25 7.85 192.25 8.55 192.25 9.1 191.9 9.55 191.4 10.2 191.25 10.55 192.15 12.2 198.05 12.7 198.8 12.7 200.55 11.35 202.85 9.45 204.5 8.25 211.15 3.35 219.2 1.75 217.75 1.35 214.35 0.8
M 248.4 69.2
Q 252.9 64.3 258.85 63.55 250.85 63.2 250.1 63.2 249 63.2 244.75 67.3 240.7 71.15 236.4 76.15
L 236 76.6
Q 232.45 80.75 231.15 85.4 230.4 87.95 229.9 92 229.55 94.1 229.15 98.7 229.2 99.3 229.15 99.85
L 229.1 105.4
Q 229.1 111.05 231 119.1
L 231.55 120.45 231.45 114
Q 231.45 107.05 234.4 96.2 237.15 86.1 239.55 82.45 244.55 73.3 248.4 69.2
M 247 8.65
Q 245.55 8.75 243.8 8.6
L 241.7 9.9 239.25 11.25
Q 236.55 11.25 234.65 15.6 232.75 19.9 232.75 26
L 233.05 26.9
Q 233.2 27.2 235.5 32.75
L 236.3 33.5
Q 236.1 27.6 236.1 26.6 236.1 21.4 239.6 16.95 244.4 11.9 247 8.65 Z"/>
</g>
</defs>

<g transform="matrix( 1, 0, 0, 1, 0,0) ">
<use xlink:href="#Layer0_0_FILL"/>
</g>
</svg>
