
<svg xmlns="http://www.w3.org/2000/svg" version="1.1" xmlns:xlink="http://www.w3.org/1999/xlink" preserveAspectRatio="none" x="0px" y="0px" width="383px" height="218px" viewBox="0 0 383 218">
<defs>
<g id="Layer0_0_FILL">
<path fill="#76664D" stroke="none" d="
M 198.6 218.7
Q 198.833984375 218.746875 199.35 218.75 199.1125 218.74375 198.85 218.7
L 198.6 218.7
M 210.3 218.55
L 210.35 218.55 210.85 218.3 210.3 218.55
M 235.65 214.35
Q 229.95 214.6 225.45 216.2 228.3 215.25 235.65 214.35
M 156.15 151.75
L 156.2 151.9 156.2 151.75 156.3 150.6 156.15 151.75
M 88.75 193.55
L 87.95 193.55
Q 91.95 193.75 94.5 193.65
L 88.75 193.55
M 155.3 103.4
Q 153.95 101.25 152.55 100.15
L 152.25 101.45
Q 154.6 104.2 155.2 105.4 155.75 106.45 155.75 108.15 155.75 118.2 148.2 120.35 145.55 121.1 141.35 121.05 139.05 121.05 134.8 120.85 132.85 120.85 131.95 120.45 130.25 119.65 128.45 116.9
L 127.65 117.25
Q 127.15 116.1 126.75 114.25 126.35 112.45 126.35 111.65 126.35 108.8 127.75 105.5 127.75 105.4 129.5 101.95 127 103.4 125.55 107.65
L 124.05 113.8
Q 123.6 115.6 121.15 118.15 118.6 120.85 118.5 121.15 117.25 124.25 111.15 128.2 108.05 130.2 104.5 132.4 104.5 134.45 104.65 137.5 104.65 138 104.45 138.5 104.35 138.7 103.3 141.15 102.6 142.35 97.25 146.95 92.3 151.9 92.3 155.9
L 92.45 160.15
Q 92.7 160.5 94.3 162.1 95.75 164.2 95.75 167.4 95.75 170.05 93.35 172.05 94 173.3 96.7 175 99 176.45 99 177.65 99 179.35 94.25 181.5 89.45 183.65 89.45 186.45 89.45 189.4 100.85 191 108.55 192.1 114.35 192.1 116.5 192.1 117.7 190.45 118.65 189.1 118.65 187.3 118.65 185.2 117.05 182.2 114.25 176.95 112.1 171.35 116.35 170.6 118.3 168.25 120.9 165.15 121.55 157.65
L 121.7 156.6
Q 122.35 157.8 122.35 159.1 122.35 160.1 121.6 171.55 122.75 178.3 122.75 178.45 122.75 179.2 121.5 186.05 120.2 193.4 119.65 194.3
L 120.75 194.5 120.35 194.4
Q 120.95 194.35 122.55 194.5 124.25 194.6 124.65 194.6 128.55 194.6 131.25 189.45 134.1 183.95 133.15 176.65 131.6 173.85 130.95 171.2
L 130.8 169.3
Q 131.35 171.2 135 175.05
L 144.25 175.1
Q 149.35 175.1 150.55 174.9 152.3 174.65 152.3 173.45 152.3 161.15 147.75 151.55 146.6 149.1 145.2 146.95 145.9 148.3 146.5 149.95 149 156.65 149 161.9 149 168.6 148.3 169.95 147.9 170.65 145.7 170.65 129.85 170.65 126.55 162.4 126.15 161.5 125.2 156.75 124.7 154.15 123.1 154.15 119.7 154.15 118.2 156.7 117.45 157.95 116.45 162.3 115.55 166.2 114.1 167.85 111.95 170.4 107.45 170.4 106.7 170.4 104.85 170.1 103 169.75 102.2 169.5
L 101.4 168.95
Q 102.75 167.95 103.75 166.25 104.45 164.95 104.45 164.55 104.45 163.45 103.25 162.65 101.6 161.7 100.7 161.15 96.9 159 96.9 154.9 96.9 152.1 103.15 145.1 109.2 138.3 111.1 138.3 113.15 138.3 117.2 139.1 121.25 139.85 135.7 139.85 138.6 139.85 140.95 141.6 138.15 138.65 134.7 136.45 131.55 136.1 129.8 135.7
L 128.55 135.2
Q 133.6 133.45 135.95 132.75 140 131.5 145.75 131.05 147.25 130.3 147.95 129.55 148.65 128.8 149.45 127
L 150 125.35
Q 150.75 123.5 152.25 122.2 153.9 121 154.7 120.15 157.5 117.15 157.75 107.4
L 157.7 107.05
Q 157.4 106.65 155.3 103.4
M 127.6 177.8
Q 129.2 177.8 130.35 179.55 131.45 181.25 131.45 183.7 131.45 186.15 130.35 187.9 129.2 189.6 127.6 189.6 126 189.6 124.9 187.9 123.75 186.15 123.75 183.7 123.75 181.25 124.9 179.55 126 177.8 127.6 177.8
M 77.75 193.1
L 75.8 193.1 78.25 193.15 77.75 193.1
M 27.95 176.35
Q 27.95 183.25 37.45 188.15 46.9 193.05 60.3 193.05
L 60.1 192.65
Q 64.2 193.4 70.65 189.65 77.65 185.6 77.65 180.8 77.65 177.2 76.95 173.35 76.2 169.5 76.2 167.75 76.2 162 78.9 158.8 81.75 156.4 82.15 155.25 77.9 155.1 76.1 154.8 73.8 154.45 72.25 153.75 73.05 155.85 73.05 157.5 73.05 161 64.2 163 57.45 164.5 50.45 164.5 40.55 164.7 38.75 163.4
L 42.4 158.85
Q 38.85 162.4 33.6 169.15 30.95 172.55 27.95 176.35
M 48.95 170.85
L 71.9 170.85 71.9 182.4 48.95 182.4 48.95 170.85
M 24.85 173.75
L 24.7 173.6 24.55 173.5
Q 24.6939453125 173.5998046875 24.85 173.75
M 31.1 153.85
Q 31.45 153.35 31.45 152.65 26.75 152.65 23.45 151 20.2 149.4 20.1 147.15 20.15 150.05 23.05 152.15 26 154.3 30.2 154.3 30.7 154.3 31.1 153.85
M 49.9 145.15
Q 53.7 134.9 59.3 134 59.6 134.65 67.3 145.15 68.1 146.25 68.8 147.3 68.75 146.65 68.8 145.95 69.4 141.65 69.2 141.1 67.7 136.35 63.5 133.8 60.05 131.7 60.1 128.1 52.6 133.75 50.2 141.7 49.5 144 48.2 148.85 46.9 153.4 44.8 157.15 46 156.3 47.35 152.6 48.9 147.75 49.9 145.15
M 41.6 102.15
Q 42.25 101.15 42.9 100.2
L 42.15 100.65
Q 41.9 101.35 41.6 102.15
M 152.3 82.3
Q 152.55 81.75 152.95 81.75 153.2 81.55 154.5 80.8 155.8 80.05 156.2 79.9 151.6 79.95 149.7 81.55 147.95 83 147.95 86.3 147.95 88.05 149.5 89.5 149.4 89.2 149.4 88.9 149.4 88 150.55 85.95 151.85 83.9 152 83.55 152 82.8 152.3 82.3
M 152.55 43.75
Q 155 43.85 157.8 42.7 151.25 42.6 148.2 44.2 149.9 43.6 152.55 43.75
M 138.05 48.2
Q 135.85 48.7 134.2 49.1 132.6 49.5 131.5 49.85 130 50.3 129.35 50.7
L 137.5 50.7
Q 140.5 49.4 145 46.9
L 146 45.7
Q 144.75 46.75 138.05 48.2
M 311.25 182.15
Q 313.1 180.7 313.25 180.55
L 312.35 181.2
Q 311 182.25 307.75 184.8 309.1 183.9 311.25 182.15
M 273.55 192.5
L 276.1 192.35 274.4 192.4 273.55 192.5
M 266.2 195.95
L 269.6 193.7 267.25 195.05 266.2 195.95
M 205.95 191.4
Q 205.25 190.25 204.3 190.25
L 204.3 190.7
Q 205.95 192.6 206.65 194.15 206.65 192.55 205.95 191.4
M 221.25 151.7
Q 220.85 151.65 220.45 151.65 225.2 152.95 230.95 153.85 225.2 152.05 221.25 151.7
M 175.45 189
Q 175.45 192.75 176.65 196 177.35 197.8 178.65 200.65
L 179.25 201.4
Q 178.4 200.7 175.95 198.4 172.6 195.2 170.55 193.35 173.25 198.05 177.9 202.95 180.4 205.5 179.7 208.45
L 190.05 214.35 190 213.05
Q 190 212.2 191.25 211.25 193.05 210.1 194.1 209.3 198.15 206.05 198.15 200.55 198.15 198.05 196.3 193.05 194.2 187.25 191.9 185.9 190.75 186.25 188.9 185.45
L 180.75 184.9
Q 177.65 184.9 176.45 186 175.45 186.9 175.45 189
M 169 188.4
Q 168.85 188.85 169.05 189.45
L 169.2 188.05 169 188.4
M 177.65 178.15
Q 173.7 178.15 172.3 179.35 170.65 180.75 170.45 185.05 173.25 182.4 174.45 181.4 176.5 179.7 178.1 179.7 179.6 179.7 182.6 181.6 188.1 185 188.9 185.45 190.7 185.75 191.65 185.75 189.4 184.7 185.05 180.7 182.2 178.15 177.65 178.15
M 192 169.2
L 191.75 168.1
Q 192 170.9 192.05 173.7 192.55 175.6 196.25 178.35 194.5 176.95 193.2 173.9 192.05 171.2 192 169.2
M 192.8 149.2
L 192.8 148.6
Q 191.75 150.65 191.4 152.2 191.15 153.45 191.15 156.1 191.15 157.1 191.7 161.45
L 192.35 156.3
Q 192.35 153.95 192.8 149.2
M 201.15 154.7
Q 198.8 155.7 197.45 157.2
L 197.35 163.1
Q 197.35 165.75 197.95 169.65 201.2 171.6 204.4 175.85 207.1 179.4 207.75 179.4 210.05 178.25 212.9 177.1 218.6 174.8 222.45 174.8 222.75 174.8 224.25 175.15 226.05 175.6 226.65 176 225.85 176.8 222.2 178.1 218.05 179.55 215.8 181.05 207.75 186.45 209 200.05
L 207.75 196.95 207.7 197.85
Q 207.6 199 207.35 199.95 207.85 200.95 208.5 202.25 208.9 203.15 208.9 203.85 208.9 205.1 208.1 205.55 207.6 205.85 206.2 206.5 206.2 208.8 205.7 211.5
L 205.9 212.6
Q 207.15 212.85 214.3 213.6 221.85 214.4 223.95 214.4 230.4 214.4 236.7 208.6 242 203.7 242 201.55 242 197.4 239.9 188.85 237.8 180.35 237.8 177.5 237.8 174.4 243.15 172.65 248.5 170.9 248.5 169.15 248.5 166.2 246.85 163.4 245 160.35 241.9 158.9
L 242.65 159.9
Q 242.6 160.1 241.6 160.1 241.45 160.1 223.45 157.4 221 156.9 211.95 154.85 206.9 153.7 205.85 153.7 203.55 153.7 201.15 154.7
M 210.35 147.8
Q 208.9 146.25 207 143.75 202.75 138.05 198.25 138.1
L 198.05 139.1
Q 198.9 138.65 199.1 138.55 199.4 138.45 200.05 138.45 200.1 138.45 201.05 140.25 202.5 142.45 205.1 144.5 207.4 146.3 210.35 147.8
M 228.6 117
Q 227.1 117.75 224.8 118.8 222.35 119.9 222.05 119.95 222.2 118.9 222.3 117.95 221.95 117.65 221.95 117.3 221.95 117.25 222.35 115.8 222.35 115.4 222.3 115 222 110.85 218.4 108.15 218.4 115.25 214.95 120.3 213.3 122.65 211.4 123.9 211.25 124.25 211.05 124.5 210.3 125.45 207.8 125.55
L 206.5 125.35
Q 205.65 124.55 204.85 123.45
L 204.5 125.45
Q 211.8 130.2 218.15 138.6 220.25 141.35 222 142.35 224.45 143.7 228.75 143.7 231.4 143.7 232.05 142.05 232.45 141 232.2 137.9 231.8 132.2 233.9 129.05 233.95 128.8 234.05 128.7 234.1 128.65 234.15 128.65 234.7 127.9 235.35 127.35 236.4 124.25 236.4 124.2 236.4 122.5 235 119.1 235 118.85 234.95 118.6 234.75 117.65 233.7 117 232.4 116.1 230.6 116.1 229.7 116.7 228.6 117
M 230.55 118.35
Q 231.3 120.05 231.3 120.65 231.3 125.9 229.6 129.75 227.85 133.75 225.3 133.75 221.65 133.75 220.3 132.85 219.2 132.1 219.2 130.2 219.2 127 222.15 123.15 225.25 119.2 229.8 116.8
L 230.55 118.35
M 206.1 60.7
Q 205.8 60.3 204.85 60
L 204.85 64.65 205.6 63.65
Q 205.75 61.8 206.1 60.7
M 200.4 60.05
L 200.6 60.25
Q 200.75 60.6 200.75 61.2 200.75 65.55 195.45 67.05 192.4 67.9 186.1 67.9 181.2 67.9 174.4 66.3
L 175.7 63
Q 175.7 60.05 179.1 58 182.45 55.9 187.2 55.9 190.7 55.9 196.5 56.55 195.8 55.9 190.95 55.5 187.3 55.15 185.05 55.15 177 55.15 172.05 60.6 168.95 64 164 74.5
L 163.45 75.5
Q 162.85 77.2 162.3 78.1 164 76.9 164.25 76.35 164.55 75.65 170.6 71.05 169.2 82.35 167.1 86.1 163.55 92.2 154.4 92.55 157.35 94.55 158.75 97.1
L 158.85 97.9 159.05 92.9 159.05 106.05
Q 159.15 106.7 159.7 107.65 160.2 109.25 160.2 113.4 160.2 120.7 156.8 127.65 154.6 132.15 153.1 133.5
L 153.05 136.95
Q 153.05 146.3 158.7 154.05 160.15 156.05 162.75 159.3 164.7 162.05 164.95 164.15 165.85 171.9 170.9 173.9 172.75 174.6 179.6 174.6 181.8 174 183.5 172.8 185.65 171.3 186.15 169.35 186.4 167.1 186.4 164.45 186.4 161.8 185.2 159.65 183.95 157.5 183.95 156.6 183.95 155.4 185.6 153.35 187.25 151.3 187.25 145.35 187.25 142.45 184.3 132.5 181.85 124 180.45 120.6 178.3 116.2 176.85 112.85 174.15 106.45 174.15 102.25 174.15 99.85 174.65 95.8 175.2 91.4 175.85 89.75
L 176.2 88.9
Q 174.85 104.1 181.5 115.35 184.1 119.75 187.35 122.4 190.35 124.85 192.7 124.85 195.2 124.85 195.5 122.05 195.6 117.05 196.15 112.5 199.5 116.4 199.7 116.65 199.7 114.6 198.75 113.05 198.35 112.45 196.1 109.9 191.2 104.3 187.75 95.1 190.85 98.9 197.6 105 201.5 108.5 204.05 114.55
L 204.55 112.55
Q 204.58828125 112.396875 204.6 112.25 204.65 112.1625 204.65 112.05 205 110.494921875 205 108.85 205 106.85 205.1 106.5 205.6 105.15 212.05 105.25 199.7 99.75 193.3 94.55 185.5 88.15 185.5 81.3 185.5 78.25 185.3 76.75 184.9 73.9 183.65 72.45
L 179.45 70.3 179.05 70.05 183.25 70.2 182.8 70.1
Q 191.8 70.25 195.05 69.95 198.2 68.05 201.5 67 201.7 66.7 202.85 63.85 203.9 61.15 204.35 59.9 201.75 60 200.4 60.05
M 176.35 92
L 176.55 86.85 176.7 86.85
Q 177.55 87.4 185.75 99.1 193.75 110.55 193.75 110.8 193.75 111.95 193.45 113.25 193 114.95 192.35 114.95 181.5 114.95 177.9 104.3 176.35 99.8 176.35 92
M 163.2 109.85
L 163.3 109.85
Q 166.9 110.75 175 123.85 183.7 138 183.7 146.6 183.7 149.25 181.95 150.8 179.05 153.3 178 155.05 179.45 156.45 182.1 158.25 184.1 159.8 184.1 161.7 184.1 165.45 178.8 169.2 174.35 172.35 172.3 172.35 170.5 172.35 169.05 168.4 167.5 162.95 166.6 159.95 163.15 148.3 157.2 150.6 156.25 142.05 156.25 140.4 156.25 133.1 159.5 124.5 162.9 115.45 163.2 109.85
M 176.8 48.7
Q 176.8 46.4 172.9 46 166.5 45.4 162.85 43.75 162.05 43.85 160.65 43.55 159.25 43.25 158.25 42.8
L 156.95 44.4
Q 158.95 44.95 161.3 45.5 166.05 46.55 169.25 46.5
L 169.35 50.75
Q 169.35 52.75 165.4 54.85 158.8 58.3 154.85 61.6 149.85 65.75 147.65 69.6 146.3 71.9 145 71.9 134.9 71.9 125 63.7 116.35 56.5 115.9 51.6 115.9 51.1 116.5 50.75 117.05 50.4 117.9 50.4 117.45 50.3 113.55 48.85 109.15 47.45 105.8 47.45 97.55 47.45 93.6 50.5 90.1 53.2 90.1 58.1 90.1 61.25 92.9 61.75 97.75 61.9 101.7 62.1 101.7 62.2 102.65 62.3 101.8 63.55 101 64.1 104.95 63.55 108.6 63.65 108.95 63.55 109.4 63.5 110.25 63.4 110.6 63.8 114.2 66.85 114.05 67.65 118.4 73.4 118.95 74.15 122.75 79.6 122.75 81.35 122.75 81.85 122.3 82.2 121.85 82.55 121.25 82.55 120.45 82.55 115.2 80.9 109.9 79.25 106.1 79.25 100.5 79.25 98.15 80.1 96.15 80.85 94.7 83.05 93.75 84.45 91.2 88.7 88.15 93.15 83.3 97.7 83.1 97.4 82.85 96.4 82.5 95.25 82.5 94.55 82.5 90.15 82.85 88.15 83.5 85.25 84.15 81.85
L 84 80.5 84.35 78.65
Q 82.15 82.7 81.15 94.25 80.05 107.3 79.6 108.9 79.45 109.4 74.8 115.9 70.8 121.5 70.55 127.1 74.15 125.4 81.9 125.1 87.15 124.9 87.15 122.15 87.15 119.65 85.45 118.3 83.15 116.55 77.25 115.95 77.4 115.35 78.3 113.4 79.2 111.6 79.45 111.3 79.7 110.45 80.3 109.25 81.2 107.65 82.3 106.55 82.45 106.3 83.9 104.35 85.4 102.35 85.8 101.95 86.8 100.75 88.05 100.25 89.9 99.6 93.6 99.75 98.8 99.85 102.7 100.2 102.95 100.2 104.7 100.4
L 111.9 101.1 111.2 102.1
Q 112.55 103.2 113.05 105 113.45 106.55 113.45 110 113.45 113.9 108.95 118.65 105.05 122.8 103.6 122.8 102.6 122.8 95.75 122.05 94.7 122.05 93 125 92 126.8 89.6 131.55 84.5 141.05 79.7 141.05 78.25 141.05 76.15 139.25 75.35 138.55 73.45 136.5 73.3 139.45 72.9 142.9 72.55 145.95 72.55 146.2 72.55 146.4 72.75 146.65 73.2 147.15 74.35 147.8 81.05 147 84.05 146.9
L 76.6 146.9
Q 80.2 146.4 87.25 142 95.15 137.05 97.55 133.95 97.55 130.6 98.8 128.25 100 125.85 101.75 125.85
L 103.1 124.2 102.75 126.05 104.5 123.75 104.5 125
Q 112.1 124.15 115.15 119.1 117.75 114.75 117.75 105.6 117.75 103.6 114.55 101.5 110.55 98.85 104.25 98.85 103.4 98.85 101.6 99.1 99.6 99.35 98.4 99.7 100.1 98.5 104.1 97.65 107.35 96.9 108.9 96.9 109.25 96.9 111.1 97.45 112.95 98 114.4 98 117.75 98 118.95 95.8 119.95 93.95 120.3 88.3 123.8 92.45 124.6 93 126.4 94.3 130.15 94.3 133.8 94.3 135.05 93.55 136.55 92.65 138.45 88.85
L 138.25 87.7
Q 138.35 86.4 138.9 84.95 139.9 82.7 140.7 82.3 141.95 81.95 143.3 81.05 145.45 78.1 150.75 75.8 156 73.9 156.85 73.2 161.35 69.8 161.85 67.4 162.85 62.55 164.8 59.1 165 58.7 166 57.6 167.1 56.3 167.9 55.75
L 168.25 55.5
Q 172.65 53.75 174.2 52.95 176.8 51.6 176.8 48.7
M 174.3 28.5
L 174.65 27.85
Q 172 28.2 171.1 29.25 170.5 29.85 170.5 31.2 170.5 36.1 175.95 38.4 180.1 40.15 186.7 40.15 188.9 40.15 191.15 39.1 192.85 38.35 194.1 37.25 191.7 38.25 189.05 38.55 187.55 38.7 183.7 38.7 177.85 38.7 174.8 37.2 171.9 35.75 171.9 33.15 171.9 29.75 174.3 28.5
M 172.1 5.65
Q 171.85 5.55 163.5 1.7 158.35 13.55 148.5 13.55 145.55 13.55 144.25 12.35 143.45 11.65 143.45 10.7 145.05 7.2 145.2 5.75 144 5.25 142 5.25 131.6 5.25 124.7 12.75 117.35 20.75 120.7 31.05 119.6 29.7 113.6 29.1 105.2 28.35 105.05 28.3 105.8 26.4 106.25 25.1 107.05 22.7 106.8 21.6
L 104.95 21.55
Q 99.3 21.55 94.3 29.75 91.45 34.3 90.6 35.35 88.45 37.9 86.15 37.9 83 37.9 81.85 35.3 81.05 33.55 81.05 30 78.65 26.55 76.75 25.3
L 67.95 36.85 68.25 36.5
Q 68.8 38.7 69.65 39.4 70.1 39.8 70.9 40.3 72.15 41.8 72.15 53.7 72.15 62.65 66.75 68.75 61.9 74.2 56.35 74.2 52.9 74.2 51.6 73.55 50 72.7 49.45 70 47.85 72.9 47.7 73.15 47.1 74.15 45.75 76.1 49 91.65 28.25 108.2 20.4 114.45 12.3 118.1 4.45 121.6 1.7 120.4 0.6 121.65 0.35 122.3 0 123.1 0 124.8 0 124.85 0.9 128.85 1.95 133.2 2.85 135.15
L 3.25 134.85
Q 4.6 128.95 9.95 125.05 14.15 122 18 121.65 18.45 121.2 31.2 109.45 37.9 103.3 43.4 94.2
L 43.5 94.9
Q 43.55 95.75 43.5 96.35 47.1 91.8 52.6 83.45 55.5 79.15 59.1 76.5 60.95 75.6 63.45 75.7 66.65 76 68.75 76 69.25 76 70.2 75.6 71.15 75.2 71.65 75.2 72.4 75.2 73.4 76.2 74.4 77.2 74.4 77.95 74.4 84.55 71.35 93.4 67.85 103.35 63.65 104.95 55.5 108 47.85 113.4 42.35 117.3 38.55 117.3 37.8 117.3 35.65 117 32.95 116.6 32 116.15 32.65 115.25 33.25 114.5 30.6 117.35 27.3 120.4 26.8 120.85 18.35 128.25 13.8 132.3 12.4 134.2 11.95 135.8 10 138.1 8.05 140.3 7.1 140.55
L 5.2 142.8
Q 6 146.25 4.45 149.05 2.6 152.4 2.6 155 2.6 162 4.2 163.65 5.35 164.8 9.8 166.45 17.05 166.45 22.2 163.7 27.3 160.95 27.3 157.1 24.6 157.75 21.75 155.55 18.85 153.3 18.85 150.65 19.4 146.2 19.75 142.5
L 19.85 144.65
Q 21.6 135.8 22 134.25 23.05 130.3 24.6 128.8 26.25 127.2 29.7 127.25 32.6 127.25 39.4 128.55 38.6 128.05 37.35 127.05 35.9 125.85 35.55 125.35 41.45 124.1 44.7 122.95 50.5 120.95 54.75 116.8 60.95 110.75 65.55 107.75 68.5 105.75 71.65 101.65
L 71.75 101.35
Q 71.75 101.3 72.9 95.85 74 90.45 74.95 87.75 75.65 85.8 78.9 80.7 81.95 76 81.95 75.85 81.95 73.5 80.55 72.6 79.8 72.15 77.45 71.8 72.9 71.15 72.9 66.55 72.9 61.5 74.65 58.85 76.4 56.25 76.4 54 76.4 52.2 75.5 48.65 74.3 43.95 73.9 41.65
L 73.9 36.35
Q 74.25 40.1 78.8 43.3 84.05 47 89.1 45.95 89.25 45.9 91.15 44.2 92.9 42.65 94.2 42.15 95.65 41.3 95.95 40.8
L 96.5 40.5
Q 99.5 39.5 101.15 39.5 110.4 39.5 118.15 43 121.7 44.75 123.15 45.4 125.55 46.5 127.15 46.5 129.1 46.5 129.85 46.3 131.05 46.05 132.4 44.9 134.45 42.55 135.25 41.35 136.4 39.65 141.95 28 141.75 29.05 140.3 33.8 138.65 39.05 137.8 42.75 138.95 41.55 141.35 40.3 144.8 38.55 148.2 38.55 150.05 38.55 153.1 39.65 152.4 39.05 151.95 38.55 154.9 39.45 159.4 39.35 160 37.4 160 33.6 159.8 35.9 159 36.9 157.85 38.25 155 38.25 152.55 38.25 148.85 37.2 144.55 36 144.55 34.7 144.55 32.7 144.8 29.95 145.2 26.05 145.85 24.95 145.85 22.95 147.3 21.55 148.75 20.15 150.8 20.15 154.75 18.7 156.35 20.35 157.2 21.2 157.6 22.95 157.2 20.55 157.2 20.2 157.2 18.7 159.35 16.8 161.75 14.7 162.4 11.75 162.65 10.5 166.5 8.7 171.1 6.55 172.1 5.65
M 23.1 161.7
Q 23.1 162.45 20.65 163 18.45 163.5 16.3 163.5 9.85 163.5 6.45 160.4 3.95 158.15 3.95 155.6 3.95 152.95 5.5 149.95 7.6 145.9 11.1 146.4 11.1 155.8 17.1 157.65 20.1 158.3 21.25 158.75 23.1 159.55 23.1 161.7
M 190.95 22.45
L 187.95 22.45
Q 186.25 23.3 183.2 23.9 179.35 24.65 175.7 24.5 175.7 26.15 175.6 26.75 177.2 25.65 183.15 24.3 187.5 23.3 190.65 22.85
L 190.95 22.45
M 217.95 31.6
Q 218.7 31 219.25 30.35 217.8 30.9 215.5 31.3 212 31.95 203.15 33.4 204.5 33.4 206.25 33.7 208 34.05 208.75 34.4 209.9 34.05 211.1 33.8 212.05 33.75 212.95 33.7 215.75 33.25 217.95 31.6
M 231.65 21.1
Q 231 22.05 228.3 22.05 224.2 22.05 219.05 20.8 214.3 19.5 213.2 19.25 206.5 19.1 202.45 18.9
L 196.55 18.9 196.5 18.35 195.55 18.2
Q 196.65 15.35 196.75 15.15 192.4 16.4 190.25 19 189.15 20.4 188.05 22.4 192.4 22.45 198.6 22.4
L 205.25 22.25 204.55 22.35 204.85 22.4 216.05 22 221.25 23.1 224.6 24.35 226.4 24.7
Q 228.3 25 228.9 25 233.4 25 235.4 23.9 235.75 23.35 236.2 22.7 236.65 22 237 21.45 237.15 20.25 237.35 18.15
L 232.1 15.25 232.25 16.9
Q 232.25 20.3 231.65 21.1
M 292.9 147.15
Q 292.75 145.05 291.8 145.05 283 145.3 277.9 149.15 272.8 153 272.8 159.25 272.8 161.05 275.05 162.1 277.3 163.15 281.6 163.35 282.35 163.35 283.15 163.35 286.6 163.35 289.75 160.1 289.8 160.05 289.9 159.95 292.9 156.75 292.9 153.3 292.9 147.25 292.9 147.15
M 349.55 164.85
L 348.05 165.05
Q 343.75 166.05 340.05 167.45
L 332.1 170.5 332 170.55
Q 335.45 169.4 340.75 167.25 342.55 166.5 349.55 164.85
M 332.2 134.05
Q 332.2 132.8 328.85 132.8 318.85 132.8 315.05 136.15 311.2 139.6 311.2 148.75 311.2 151.8 311.95 153.3 313.3 156.15 317.25 156.15 320.6 156.15 326.4 147.65 332.2 139.15 332.2 134.05 Z"/>

<path fill="#6C5D45" stroke="none" d="
M 206.2 206.5
Q 207.6 205.85 208.1 205.55 208.9 205.1 208.9 203.85 208.9 203.15 208.5 202.25 207.85 200.95 207.35 199.95 207.05 200.95 206.4 202.8 205.95 204.45 206.2 206.5
M 120.35 194.4
L 120.75 194.5
Q 125 195.5 136.45 200.1 145.1 203.6 156.85 204.75
L 157.5 204.1
Q 158.55 199.75 158 196 156.85 188.65 149.2 188.65 146.2 188.65 144.85 189.65 144.15 190.2 143.35 191.85 141.8 195.05 136.35 195.05 135.35 195.05 133.7 194.9
L 134.8 194.1
Q 137.9 192.65 139.05 190.65 139.85 189.15 139.85 186.65 139.85 184.75 137.75 182.2 134.85 178.95 133.15 176.65 134.1 183.95 131.25 189.45 128.55 194.6 124.65 194.6 124.25 194.6 122.55 194.5 120.95 194.35 120.35 194.4
M 118.3 168.25
Q 116.35 170.6 112.1 171.35 114.25 176.95 117.05 182.2 118.65 185.2 118.65 187.3 118.65 189.1 117.7 190.45 116.5 192.1 114.35 192.1 108.55 192.1 100.85 191 89.45 189.4 89.45 186.45 89.45 183.65 94.25 181.5 99 179.35 99 177.65 99 176.45 96.7 175 94 173.3 93.35 172.05 92.2 173.4 87.35 178.4 87.7 179.45 88.35 183.65 88.9 187.5 88.9 188.15 88.9 190.2 88.35 192.45
L 88.75 193.55 94.5 193.65
Q 105.8 193.65 113.7 193.95 118.95 194.15 119.65 194.3 120.2 193.4 121.5 186.05 122.75 179.2 122.75 178.45 122.75 178.3 121.6 171.55 122.35 160.1 122.35 159.1 122.35 157.8 121.7 156.6
L 121.55 157.65
Q 120.9 165.15 118.3 168.25
M 98.8 128.25
Q 97.55 130.6 97.55 133.95 97.8 133.7 98.4 131.8 99.15 129.5 101.75 125.85 100 125.85 98.8 128.25
M 145.75 131.05
Q 147.3 131.05 148.4 129.9 149.45 128.7 149.45 127 148.65 128.8 147.95 129.55 147.25 130.3 145.75 131.05
M 137.05 136.85
Q 135.35 136.45 134.7 136.45 138.15 138.65 140.95 141.6 143.3 144 145.2 146.95 146.6 149.1 147.75 151.55 152.3 161.15 152.3 173.45 152.3 174.65 150.55 174.9 149.35 175.1 144.25 175.1
L 135 175.05
Q 136.45 176.65 141.45 177.5 146.2 178.05 146.25 178.05 148.4 178.05 150.3 177.65 151.45 176.85 152.65 175.7 153.6 174.65 153.6 174.6 156.2 162.95 149.5 151.75 147.8 148.85 144.05 143.95 140.85 139.8 140.15 138.15 139.4 137.4 137.05 136.85
M 154.7 120.15
Q 153.9 121 152.25 122.2 150.75 123.5 150 125.35 151.1 123.8 155.6 120.6 158.15 118.8 158.15 114.25 158.15 113.1 157.75 107.4 157.5 117.15 154.7 120.15
M 27.8 158.95
L 27.65 157.1 27.3 157.1
Q 27.3 160.95 22.2 163.7 17.05 166.45 9.8 166.45
L 11.8 167.3
Q 17.7 168.4 22 167.05 27.8 165.15 27.8 158.95
M 7.1 140.55
Q 8.05 140.3 10 138.1 11.95 135.8 12.4 134.2 10.15 137.1 9.6 137.8 8.7 138.9 7.1 140.55
M 9.95 125.05
Q 4.6 128.95 3.25 134.85 8.25 132.4 11.6 128.55 16.5 122.9 18 121.65 14.15 122 9.95 125.05
M 67.8 107.9
Q 71.45 104.65 71.65 101.65 68.5 105.75 65.55 107.75 60.95 110.75 54.75 116.8 50.5 120.95 44.7 122.95 41.45 124.1 35.55 125.35 35.9 125.85 37.35 127.05 38.6 128.05 39.4 128.55 41.05 128.95 41.95 130.8 42.65 132.35 42.65 134.3 42.65 137.35 40.3 143.35 36.85 152 31.45 152.65 31.45 153.35 31.1 153.85 30.7 154.3 30.2 154.3 33.85 154.65 35.1 154.45 37.05 154.2 40.4 150.1
L 43.1 142.9
Q 43.9 139.6 46 134.65
L 48 130.35
Q 45.7 130.1 41.4 127.8 37.25 125.45 36.6 125.15
L 37.75 125.55
Q 39.05 126 42.75 126.9 46.2 127.7 46.4 127.7 47.3 127.7 48.7 126.95 50.15 126.15 51.2 125.05 50.3 125.55 49.4 125.9 50.55 125.1 52.8 122.65 53.85 121.05 54.2 120.6 54.6 119.95 56.9 117.75 57.9 116.75 67.8 107.9
M 140.7 82.3
Q 139.9 82.7 138.9 84.95 139.4 84.8 141.15 83.25 143 81.7 143.3 81.05 141.95 81.95 140.7 82.3
M 141.35 40.3
Q 138.95 41.55 137.8 42.75 136.7 46.5 135.95 47.55 135.25 48.55 134.2 49.1 135.85 48.7 138.05 48.2 144.75 46.75 146 45.7 147.4 44.5 148.2 44.2 151.25 42.6 157.8 42.7
L 157.95 42.7 153.1 39.65
Q 150.05 38.55 148.2 38.55 144.8 38.55 141.35 40.3
M 127.15 46.5
Q 125.55 46.5 123.15 45.4 121.7 44.75 118.15 43 110.4 39.5 101.15 39.5 99.5 39.5 96.5 40.5 106.4 40.65 107.2 40.7 110.5 40.95 115.05 42.4
L 113.85 42.45
Q 107.35 42 100.35 45.7 98.55 46.65 95.55 48.35 93.2 49.55 91.7 49.55
L 85.5 48.9
Q 79.1 47.6 78.35 44.35 85 46.55 85.15 46.55 85.9 46.55 87.3 46.35 88.7 46.15 89.1 45.95 84.05 47 78.8 43.3 74.25 40.1 73.9 36.35
L 73.9 41.65
Q 74.3 43.95 75.5 48.65 76.4 52.2 76.4 54 76.4 56.25 74.65 58.85 72.9 61.5 72.9 66.55 72.9 71.15 77.45 71.8 79.8 72.15 80.55 72.6 81.95 73.5 81.95 75.85 81.95 76 78.9 80.7 75.65 85.8 74.95 87.75 74 90.45 72.9 95.85 71.75 101.3 71.75 101.35
L 74.65 96.9
Q 74.9 95.75 74.55 95.3 74.2 94.8 74.25 94.6 74.3 93.3 79.5 84
L 79.5 86
Q 81.25 107.7 69.95 117.35 66.4 120.3 59.1 124.05 51.05 128.15 48.05 130.35 48.05 130.45 47.9 136.25 47.75 141.25 47.2 144.8 45.45 156.05 39.05 157.55 38.95 157.55 36.45 157.85 35.2 158.8 30.85 164.45 26.05 170.65 24.7 173.6
L 24.85 173.75 24.9 173.8 24.95 173.8 25 173.85 27.95 176.35
Q 30.95 172.55 33.6 169.15 38.85 162.4 42.4 158.85
L 44.8 157.15
Q 46.9 153.4 48.2 148.85 49.5 144 50.2 141.7 52.6 133.75 60.1 128.1 60.05 131.7 63.5 133.8 67.7 136.35 69.2 141.1 69.4 141.65 68.8 145.95 68.75 146.65 68.8 147.3 68.8 150.75 70.25 152.35 71 153.15 72.25 153.75 73.8 154.45 76.1 154.8 77.9 155.1 82.15 155.25 81.75 156.4 78.9 158.8 76.2 162 76.2 167.75 76.2 169.5 76.95 173.35 77.65 177.2 77.65 180.8 77.65 185.6 70.65 189.65 64.2 193.4 60.1 192.65
L 60.3 193.05
Q 64.55 193.1 69.85 192.95
L 75.8 193.1 77.75 193.1 80.45 190.95
Q 79.05 190.15 76.5 190.2 75.1 190.2 72.7 190.4
L 74.35 189.9
Q 79.4 187.65 80.8 177.8 81.35 167.6 82 165.95 84.55 164.05 86.4 161.95 88.7 159.3 90.8 155.5
L 91.1 156.25
Q 91.1 156.35 91.7 158.1 92.3 159.8 92.45 160.15
L 92.3 155.9
Q 92.3 151.9 97.25 146.95 102.6 142.35 103.3 141.15 98.35 146.15 94.25 148 91.2 149.35 87.25 149.35 84.8 149.35 83.5 149.2 82.15 149 73.7 147.8
L 74.35 147.8
Q 73.2 147.15 72.75 146.65 72.55 146.4 72.55 146.2 72.55 145.95 72.9 142.9 73.3 139.45 73.45 136.5 71.55 135.2 71.1 134.2 70.4 132.85 70.4 129.3 70.4 128.9 70.55 127.1 70.8 121.5 74.8 115.9 79.45 109.4 79.6 108.9 80.05 107.3 81.15 94.25 82.15 82.7 84.35 78.65
L 85.4 75.9 87.35 72.2
Q 89.55 69.1 90.9 68.05 92.85 66.55 101 64.1 101.8 63.55 102.65 62.3 101.7 62.2 101.7 62.1 97.75 61.9 92.9 61.75 90.1 61.25 90.1 58.1 90.1 53.2 93.6 50.5 97.55 47.45 105.8 47.45 109.15 47.45 113.55 48.85 117.45 50.3 117.9 50.4 121.35 50.55 123.1 50.6 126.25 50.7 129.35 50.7 130 50.3 131.5 49.85 131 49.9 130.45 49.9 122.9 49.9 118.5 44.25
L 120.15 44.9
Q 120.7 45.05 123.9 46.3 125.95 47.1 127.85 47.1 129.3 47.1 130.65 46.3 131.25 45.95 132.4 44.9 131.05 46.05 129.85 46.3 129.1 46.5 127.15 46.5
M 90.8 63.35
Q 90.8 67.25 83.95 71.45 81.75 71.45 80.35 70.05 78.6 68.35 78.6 65 78.6 62 80.6 60.15 81.7 59.2 89.2 54.4 89.2 56.7 90 59.55 90.8 62.35 90.8 63.35
M 233.7 117
Q 234.75 117.65 234.95 118.6 234.5 115 233.25 115 232.8 115 230.6 116.1 232.4 116.1 233.7 117
M 225.65 118.05
Q 225.05 118.4 224.75 118.65 223.8 118.65 223 118.35 222.55 118.15 222.3 117.95 222.2 118.9 222.05 119.95 222.35 119.9 224.8 118.8 227.1 117.75 228.6 117 226.9 117.4 225.65 118.05
M 204.85 64.65
L 204.85 65.7 205.6 63.65 204.85 64.65
M 175.85 89.75
Q 175.2 91.4 174.65 95.8 174.15 99.85 174.15 102.25 174.15 106.45 176.85 112.85 178.3 116.2 180.45 120.6 181.85 124 184.3 132.5 187.25 142.45 187.25 145.35 187.25 151.3 185.6 153.35 183.95 155.4 183.95 156.6 183.95 157.5 185.2 159.65 186.4 161.8 186.4 164.45 186.4 167.1 186.15 169.35 186.85 167.2 186.75 165 186.6 160.65 189.1 145.05
L 189.25 160.7
Q 189.25 170.3 188.6 172.5 187.15 177.35 181.15 177.35 179 177.35 176.35 176.85 174.65 176.55 170 175.55
L 171.55 175.55
Q 176.85 175.35 179.6 174.6 172.75 174.6 170.9 173.9 165.85 171.9 164.95 164.15 164.7 162.05 162.75 159.3 160.15 156.05 158.7 154.05 153.05 146.3 153.05 136.95
L 153.1 133.5
Q 151.15 134.15 147.6 136.9 145.8 138.25 144.35 139.5 141.9 139 139.9 137.35
L 140.15 138.15
Q 144.4 141.8 148.5 145.4 151.35 147.8 156.15 151.75
L 156.3 150.6 156.2 151.75
Q 158.6 153.25 160.35 158.9 162 164.15 162 168.95 162 169.95 161 177.55 161 179.35 162.1 180.7 162.75 181.55 164.45 183.2 167.9 186.9 167.9 193.85 167.9 195.55 167.55 196.05 167.25 196.5 165.5 198.35 166.25 203.75 166.25 204.65 170.55 204.8 179.7 208.45 180.4 205.5 177.9 202.95 173.25 198.05 170.55 193.35 170.4 193.1 169.8 191.55 169.15 189.95 169.05 189.45 168.85 188.85 169 188.4
L 169.2 188.05 170.45 185.05
Q 170.65 180.75 172.3 179.35 173.7 178.15 177.65 178.15 182.2 178.15 185.05 180.7 189.4 184.7 191.65 185.75
L 191.9 185.9
Q 194.2 187.25 196.3 193.05 198.15 198.05 198.15 200.55 198.15 206.05 194.1 209.3 193.05 210.1 191.25 211.25 190 212.2 190 213.05
L 190.05 214.35 194.55 217.2 198.6 218.7 198.85 218.7
Q 197.3 217.1 196.2 215.85 194.05 213.5 193.3 211.15 198.7 208.4 200.05 206.05 201.2 203.95 201.2 198 201.2 194.1 200.25 191.75 198.85 188.2 198.35 185.35 198.45 185.4 204.3 190.7
L 204.3 190.25
Q 203.85 189.8 202.4 186.5 200.85 182.95 199.3 181.05
L 196.25 178.35
Q 192.55 175.6 192.05 173.7 192 170.9 191.75 168.1 191.55 166.3 191.55 165.15
L 191.7 161.45
Q 191.15 157.1 191.15 156.1 191.15 153.45 191.4 152.2 191.75 150.65 192.8 148.6 192.9 145.55 193.3 144.15 193.3 143.25 196.2 138.85
L 199.05 134.6
Q 195.65 133.65 193.7 133.55 193.3 133.5 193.3 132.9 193.3 130.65 191.5 128.85 189.25 127.05 188.3 126.1
L 188.8 126
Q 194.05 126.5 194.95 126.3 199.9 125.3 199.9 119.2 199.9 118.2 199.7 116.65 199.5 116.4 196.15 112.5 195.6 117.05 195.5 122.05 195.2 124.85 192.7 124.85 190.35 124.85 187.35 122.4 184.1 119.75 181.5 115.35 174.85 104.1 176.2 88.9
L 175.85 89.75
M 162.05 78.2
L 162.3 78.1
Q 162.85 77.2 163.45 75.5 162.9 76.1 150.45 79.8 139.15 84.25 138.7 90.05
L 138.45 88.85
Q 136.55 92.65 135.05 93.55 133.8 94.3 130.15 94.3 126.4 94.3 124.6 93 123.8 92.45 120.3 88.3 119.95 93.95 118.95 95.8 117.75 98 114.4 98 112.95 98 111.1 97.45 109.25 96.9 108.9 96.9 107.35 96.9 104.1 97.65 100.1 98.5 98.4 99.7 99.6 99.35 101.6 99.1 103.4 98.85 104.25 98.85 110.55 98.85 114.55 101.5 117.75 103.6 117.75 105.6 117.75 114.75 115.15 119.1 112.1 124.15 104.5 125
L 104.5 132.4
Q 108.05 130.2 111.15 128.2 117.25 124.25 118.5 121.15 118.6 120.85 121.15 118.15 123.6 115.6 124.05 113.8
L 125.55 107.65
Q 127 103.4 129.5 101.95 130.85 100.6 131.2 99.05 131.5 97.9 132.2 97.65 133.45 97.3 152.6 97.85
L 152.55 100.15
Q 153.95 101.25 155.3 103.4 157.4 106.65 157.7 107.05 157.65 106.2 155.6 101.7
L 153.5 97.4
Q 156.55 101.65 157.1 102.55 158.4 104.5 159.05 106.05
L 159.05 92.9 158.85 97.9 158.75 97.1
Q 157.35 94.55 154.4 92.55 153.9 92.55 153.35 92.55 152.05 92.55 150.7 91.2 149.75 90.3 149.5 89.5 147.95 88.05 147.95 86.3 147.95 83 149.7 81.55 151.6 79.95 156.2 79.9 158.95 79.35 160.05 79.05
L 161.85 77.95 162.05 78.2
M 166 57.6
Q 165 58.7 164.8 59.1
L 167.9 55.75
Q 167.1 56.3 166 57.6
M 195.05 69.95
Q 197.5 70.15 199.65 68.7 200.6 68.05 201.5 67 198.2 68.05 195.05 69.95
M 205.05 11.5
L 205.75 11.35 204.95 11.3 205.05 11.5
M 250.5 97.9
L 249.7 97.25
Q 244.45 93.4 241.15 91.15 229.6 83.35 225.05 80.2 228.15 80.15 230.05 77.65 231.8 75.35 231.8 72.2 231.8 66.1 227.65 64.85 224.7 64.2 222.85 63.65 219.45 62.7 216.55 60.85 216.7 60.05 217.4 57.7 217.8 56.35 217.8 54.85 217.8 52.7 216.65 49.15 215.25 45.05 214.85 41.2 214.5 38.15 208.05 36.65 204.75 35.85 200.8 35.5 200.95 35.5 207.6 34.95
L 208.75 34.4
Q 208 34.05 206.25 33.7 204.5 33.4 203.15 33.4
L 194.1 37.25
Q 192.85 38.35 191.15 39.1 188.9 40.15 186.7 40.15 180.1 40.15 175.95 38.4 170.5 36.1 170.5 31.2 170.5 29.85 171.1 29.25 172 28.2 174.65 27.85
L 175.6 26.75
Q 175.7 26.15 175.7 24.5 179.35 24.65 183.2 23.9 186.25 23.3 187.95 22.45
L 185.75 22.45 188.05 22.4
Q 189.15 20.4 190.25 19 192.4 16.4 196.75 15.15 198.4 13.25 198.8 12.95 199.25 12.6 201.5 11.2 198.8 11.45 186.1 8.95 174.05 6.5 172.1 5.65 171.1 6.55 166.5 8.7 162.65 10.5 162.4 11.75 161.75 14.7 159.35 16.8 157.2 18.7 157.2 20.2 157.2 20.55 157.6 22.95 158.15 23.85 159.1 28.45 160 32.65 160 33.6 160 37.4 159.4 39.35 161.3 39.05 162.2 38.6 163.45 37.9 163.45 36.45 163.45 36.05 162.35 30.35 161.2 24.65 161.2 23.05 161.2 18.95 169.75 15.75 175.15 13.7 180.75 12.85 178.65 15.5 172.55 23.85 166.65 31.9 166.65 32.05 166.65 35.15 173.75 38.5 180.45 41.6 185.45 41.6
L 194.2 41.45
Q 192.15 47.85 185.45 47.85 184 47.85 177.95 45.55 171.9 43.25 168.55 43.25 167.2 43.25 162.85 43.75 166.5 45.4 172.9 46 176.8 46.4 176.8 48.7 176.8 51.6 174.2 52.95 172.65 53.75 168.25 55.5 167.25 57.8 166.15 63.7 164.7 71.7 164 74.5 168.95 64 172.05 60.6 177 55.15 185.05 55.15 187.3 55.15 190.95 55.5 195.8 55.9 196.5 56.55 197.1 56.65 198.8 58.35 199.65 59.2 200.4 60.05 201.75 60 204.35 59.9
L 204.85 59 204.85 60
Q 205.8 60.3 206.1 60.7
L 206.7 60.4
Q 207.3 61.6 209.05 64.45 210.55 67.3 210.55 69.95 210.55 75.7 208.7 78.8 206.3 82.8 200.75 82.8 199.95 82.8 192.85 78.45 185.9 74.25 183.65 72.45 184.9 73.9 185.3 76.75 185.5 78.25 185.5 81.3 185.5 88.15 193.3 94.55 199.7 99.75 212.05 105.25 214.2 105.25 216.5 106.7 217.7 107.45 218.4 108.15 222 110.85 222.3 115 222.35 115.4 222.35 115.8 222.5 115.2 222.75 114.3 223.55 111.4 223.55 109 223.55 107 222.4 106.45 221.85 106.2 218.9 105.95 211.65 105.35 204.95 100.2 188.15 87.25 186.9 86.25 189.05 87.2 211.45 93.4 228.9 98.25 228.9 101.2 228.9 106.25 231.05 107.85 231.35 108.1 235.7 109.55 238.85 110.6 240.4 113.7 242.5 118.05 242.5 127.75 242.5 131.65 241.25 133.9 240.35 135.5 236.8 140.6 235.65 139 234.55 134.9
L 233.65 131.1
Q 233.65 129.65 233.9 129.05 231.8 132.2 232.2 137.9 232.45 141 232.05 142.05 231.4 143.7 228.75 143.7 224.45 143.7 222 142.35 220.25 141.35 218.15 138.6 211.8 130.2 204.5 125.45 203.75 128.15 201.8 128.9 200.2 129.5 200.2 130.95 200.2 133.1 204.45 137.25 206.7 139.45 210.25 142.6
L 209.4 142.45
Q 208.4 142.05 204.45 138.65 200.4 135.2 199.35 134.7
L 198.25 138.1
Q 202.75 138.05 207 143.75 208.9 146.25 210.35 147.8 212.5 150.1 213.7 150.45 216.45 151.2 220.45 151.65 220.85 151.65 221.25 151.7 225.2 152.05 230.95 153.85 233.9 154.1 237.95 156.3 241.1 158.05 241.9 158.9 245 160.35 246.85 163.4 248.5 166.2 248.5 169.15 248.5 170.9 243.15 172.65 237.8 174.4 237.8 177.5 237.8 180.35 239.9 188.85 242 197.4 242 201.55 242 203.7 236.7 208.6 230.4 214.4 223.95 214.4 221.85 214.4 214.3 213.6 207.15 212.85 205.9 212.6 207.35 214.1 210.85 214.45 211.5 214.5 215 214.5
L 214.95 215.55
Q 214.15 216.55 213.95 216.7 213.55 216.95 210.85 218.3
L 210.35 218.55
Q 219.75 218.2 225.45 216.2 229.95 214.6 235.65 214.35 241.45 214.2 249.1 209.2 254.15 205.9 266.2 195.95
L 267.25 195.05
Q 267.9 193.85 268.25 192.4 263.3 190.5 257.75 185.1 252.75 180.15 252.45 180.15 250.65 180.15 249.25 181.95 247.85 183.8 247.85 186.1 247.85 188.35 248.45 190.3 249 192.25 249 193.95 249 197.25 247.65 201.6 246.05 206.95 243.75 207.8
L 243.8 207.5
Q 244.75 203.6 244.75 202.35 244.75 193.45 241.7 187.65 238.6 181.85 238.6 176 246.35 177.8 250.35 172.75 253.35 168.95 253.35 163.15 253.35 159 251.25 157.15 249.9 156 246.05 154.8 241.65 153.5 239.45 152.1 235.65 149.7 233.2 144.95
L 235.05 145.85 234.45 143.7
Q 235.25 143.85 239.75 145.55 244.6 147.15 247.7 147.15 251.3 147.15 252.7 144.05 251.05 140 250.65 138.95 249.2 135.2 249.2 133.85 249.2 131 250.95 127.25 252.75 123.85 252.85 123.3 253.2 121.4 253 115.2 252.85 110.1 253.35 110.1 253.85 110.1 253.5 110.65 253.15 111.15 253.65 111.15 255.7 111.15 254.5 107.4 253 102.65 246.5 95.05
L 247.1 95.65 247.95 96.3 250.5 97.9
M 243.45 65.25
Q 243.45 65.3 244.15 70.85 244.8 76.35 244.8 77.05 244.8 77.55 244.35 80 243.85 82.45 243.85 82.95 243.85 85.2 249.15 90.6 254.6 96.1 255 100.75 255.7 108.7 257.05 113.3 258.4 118.1 260.85 120.55 263.4 123.15 266.6 126.55 269.05 128.65 272.45 128.65 274.8 128.65 275.8 128.1 276.75 127.6 276.75 126.45 276.75 120.85 272.75 114.3 266.75 105.4 262.65 97.85 270.55 97.35 271.5 97.15 273.35 96.75 254.55 76.35
L 252.9 76.1 254.35 76.1
Q 254.55 76.25 254.75 76.4 273.25 90 264.45 83.2 259.8 79.8 257.8 78.3 256.45 77.3 255.55 76.5 255.25 76.3 255.05 76.1 254 75.15 253.6 74.5 259.95 74.05 261.7 73.35 265.55 71.8 265.55 66.95 265.55 65.3 259.55 61.1 253.4 56.8 250.4 56.8 248.25 56.8 246.35 58.25 243.45 60.5 243.45 65.25
M 260.45 95.7
Q 260.1 96.85 260.1 97.65 260.1 99.25 263.75 104.65 267.4 110.05 267.4 114.1 267.4 116.7 267 117.55 266.5 118.7 264.85 118.7 258.8 118.7 257.4 110.15 256.9 100.55 255.85 98.35 253.8 94 248.95 87.2 245.5 82.4 245.5 79.6 262.1 84.95 266.5 91.2 268.3 93.7 266.65 95 265 96.35 260.45 95.7
M 281.25 180.75
Q 281.95 182.15 283.4 182.75 285.15 183.5 288.8 183.5 294.65 183.5 297.75 179.6 301.45 175 301.95 164.15 301.65 164.7 300.1 165.75 297.95 167.2 295.75 167.35 294.45 170.6 288.3 175.4 285.15 177.9 281.25 180.75
M 274.6 165.9
Q 276.35 166.4 276.5 166.4
L 272.55 165.25
Q 272.85 165.4 274.6 165.9
M 297.05 118.6
Q 292.8 115.55 291.9 114.75 288.8 112.05 286.7 108.2
L 286.55 109.6
Q 285.75 113.9 285.75 115 285.75 116.55 288.55 120.25 291.3 123.95 291.3 125.3 291.3 127.85 289.15 133.9 286.65 141.1 283.65 144.3 276.85 140.45 273.05 138.3 266.05 134.35 264.5 134.35 263.45 134.35 260.9 135.9 258.25 137.5 258.25 138.45 258.25 142.8 263.15 146.85 268.85 151.55 269.15 152.3 269.85 153.95 270.35 158.8 270.8 163.25 271.55 164.45 277 164.45 281.6 163.35 277.3 163.15 275.05 162.1 272.8 161.05 272.8 159.25 272.8 153 277.9 149.15 283 145.3 291.8 145.05 292.75 145.05 292.9 147.15 292.9 147.25 292.9 153.3 292.9 156.75 289.9 159.95 296.4 156.05 296.4 150.65 296.15 148.45 296.15 147.45 296.05 146.9 296.1 146.7 296.1 146.55 296.2 146.4 296.4 144.65 297.15 143.4 297.25 143.2 299.35 140.85 302.5 137.2 302.5 129.1 302.5 122.45 297.05 118.6
M 324.7 98.65
Q 326.1 97.9 326.1 90.9 324.6 89.85 320.3 87.35 315.75 84.7 314 83.95 313.85 83.9 313.65 83.8 311.85 88.3 310.75 89.2 309.2 90.55 304.4 90.55
L 302.85 90.4 302.9 89.15
Q 303.8 87.8 305 86.95 305.85 86.3 305.85 85.8 305.85 85.05 301.85 81.35 297.3 77.15 294.1 77.15 292.65 77.15 291.5 78.55 290.35 79.95 289.25 79.95 286.3 79.6 283.4 79.65 277.7 79.75 277.7 81.7 277.7 85.55 287.05 94.6 295.95 103.25 301.15 105.25 308.1 107.95 312.95 117.55 316.85 125.25 316.85 130.25 316.85 132.65 315.75 134.45 315.5 134.9 313.3 137.6 309.75 141.95 309.75 149.15 309.75 156 317.6 157.5
L 324.75 155.1
Q 325.55 154.35 333.15 147.9 338.2 143.6 339.55 141.75 340.2 137.2 338.5 134.45 338.35 134.15 336.1 131.9 335.1 131.7 333.9 130.6 332.85 129.65 332.45 128.75 334.55 127.35 335.5 126.45 337.1 124.85 337.1 121.9
L 336.75 119
Q 335.8 118.55 333.05 117.95 330.5 117.4 328.25 116.1 320.9 111.85 307.4 95.2 309.5 97.05 311.85 98.3 313.1 98.95 314.75 99.7 316.1 98.6 318 98.6 319.1 98.6 322.2 98.85 324 99 324.7 98.65
M 328.85 132.8
Q 332.2 132.8 332.2 134.05 332.2 139.15 326.4 147.65 320.6 156.15 317.25 156.15 313.3 156.15 311.95 153.3 311.2 151.8 311.2 148.75 311.2 139.6 315.05 136.15 318.85 132.8 328.85 132.8 Z"/>

<path fill="#4C4336" stroke="none" d="
M 160 186.05
Q 160.05 186.5 160.65 188.9 161.15 190.8 161.15 194.1 161.15 197.65 159.8 200.7 158.8 202.95 157.5 204.1
L 156.85 204.75 166.25 204.65
Q 166.25 203.75 165.5 198.35 165.7 197.15 163.7 192.15 161.85 187.6 161.1 186.55 160.85 186.3 160.55 186.1 160.05 185.7 160 186.05
M 160.05 166.5
Q 160.05 164.2 158.9 161.2 157.2 157 156.2 151.9 155.5 160.35 155.5 167.2 155.5 169.1 154.9 171.3 154.35 173.35 153.6 174.6 153.6 174.65 152.65 175.7 151.45 176.85 150.3 177.65 148.6 178.5 145.35 179.2 141.55 180 139.05 179.75
L 137.8 179.7
Q 143 180.65 144.65 180.9 147.1 181.35 151.8 181.35 156.85 181.35 158.85 175.4 160.05 171.85 160.05 166.5
M 84.05 146.9
Q 91.8 146.9 97.3 140.8 102.75 134.7 102.75 126.05
L 103.1 124.2 101.75 125.85
Q 99.15 129.5 98.4 131.8 97.8 133.7 97.55 133.95 95.15 137.05 87.25 142 80.2 146.4 76.6 146.9
L 84.05 146.9
M 80.45 190.95
L 77.75 193.1 78.25 193.15 87.95 193.55 88.35 192.45
Q 88.9 190.2 88.9 188.15 88.9 187.5 88.35 183.65 87.7 179.45 87.35 178.4 86.6 176.5 85.75 175.05
L 85.1 174.2
Q 85.15 181.9 84.15 185.45 83.15 188.85 80.45 190.95
M 43.9 140.85
L 43.1 142.9 40.4 150.1
Q 38.3 153.6 36.5 154.75 34.95 155.75 32.3 155.75 31.45 155.75 26.55 155
L 25.25 154.8
Q 27.65 155.85 30.9 156.85 34.9 158.05 36.45 157.85 38.95 157.55 39.05 157.55 42.2 156.4 43.2 151.6 43.75 148.8 43.9 140.85
M 75.55 95.5
L 74.65 96.9 71.75 101.35 71.65 101.65
Q 71.45 104.65 67.8 107.9 57.9 116.75 56.9 117.75 55.15 120 52.8 122.65 50.55 125.1 49.4 125.9 50.3 125.55 51.2 125.05 52.9 123.6 58.55 119.85 64.15 116.1 67.05 113.6 76.75 105.2 75.55 95.5
M 235.05 145.85
Q 236.1 147 238.75 148.15 242.05 149.5 244.85 149.2
L 249.15 149.35
Q 252 149.85 254.1 154.6 255.85 158.6 255.85 161.6 255.85 171.8 250.95 175.75 247.15 178.75 240.6 177.95
L 239.45 178.3
Q 240.2 178.75 241.75 179.2 243.35 179.65 244.2 179.65 249.35 179.65 252.85 177.4 258 174.05 259.3 166.1
L 259.45 164.95
Q 261.7 168.85 262.1 170.55 262.8 173.4 262.3 179.9 262.15 182.4 265.2 186.75 268.3 191.1 268.25 192.4 267.9 193.85 267.25 195.05
L 269.6 193.7
Q 271.95 192.75 273.55 192.5
L 274.4 192.4
Q 277.95 189.15 283.05 188.25 288.5 187.25 288.55 187.2
L 288.8 186.85
Q 284.6 187.85 277.25 183.05 270.05 178.35 270.05 175 270.05 174.55 270.6 173.7 271.15 172.85 271.15 172.2 271.15 169.15 266.4 163.4 261.8 157.9 262.2 154.55 263.25 147.65 260.05 144.25 254.8 140.25 251 136.35 251.55 137.85 252.15 140.4 252.8 143.2 252.7 144.05 251.3 147.15 247.7 147.15 244.6 147.15 239.75 145.55 235.25 143.85 234.45 143.7
L 235.05 145.85
M 183.25 70.2
Q 185.7 71 188.4 72.7 191.25 73.95 196.9 73.95 204.15 73.95 204.85 65.7
L 204.85 64.65 204.85 60 204.85 59 204.35 59.9
Q 203.9 61.15 202.85 63.85 201.7 66.7 201.5 67 200.6 68.05 199.65 68.7 197.5 70.15 195.05 69.95 191.8 70.25 182.8 70.1
L 183.25 70.2
M 254.75 76.4
Q 254.55 76.25 254.35 76.1
L 252.9 76.1 254.55 76.35
Q 254.65 76.35 254.75 76.4
M 281.6 66.9
L 279.35 65.7
Q 278.5 65.25 275.9 63.5 273.2 61.7 272.55 61.15 272.55 67.35 267.25 71.75 262.15 75.9 255.05 76.1 255.25 76.3 255.55 76.5 258.3 77 266.25 78.05 269.05 78.05 271.3 74.65 273.55 71.2 276 71.2 281.2 71.2 281.8 70.65 282.3 70.2 281.6 66.9
M 261 47.75
Q 260.4 47.3 255.6 44.4 248.5 40.1 244.35 31.1
L 243.55 28.75
Q 242.65 25.45 241.55 23.45 240.45 21.4 238.1 18.8 238.05 19.55 237 21.45 236.65 22 236.2 22.7 235.75 23.35 235.4 23.9 234.4 25.35 233.95 25.75 234.4 26.05 236.15 26.3 237.6 26.5 238.55 26.5 241.4 26.5 242.25 27.65 242.95 28.55 242.95 31.35 242.95 36.95 242.45 38.15 241.65 40.1 238.15 40.1 233.75 40.1 230.7 34.35 229.05 30.9 228.1 29.15 226.45 26.1 224.6 24.35
L 221.25 23.1
Q 215.5 22.85 210.05 22.8 213.15 23.25 215.85 23.75 220 23.55 221.8 24.95 223.1 25.95 223.1 27.55 223.1 30.85 220.5 32.2 218.4 33.25 212.95 33.7 212.05 33.75 211.1 33.8 209.9 34.05 208.75 34.4
L 207.6 34.95
Q 218.05 34.95 218.95 43.25 219.4 47.4 217.95 51.55 218.45 51.55 218.55 51.2 218.65 50.8 219.15 50.8 219.2 50.8 218.9 51.7 218.65 52.85 219.05 53.95 220.4 57.5 228 59.4 230.3 59.95 232.9 62.9 235.95 66.4 235.95 70.05 235.95 75.05 232.6 78.55 229.95 81.3 227.55 81.25
L 230.25 81.6
Q 234.25 81.6 238.55 77.4 243.45 72.65 243.45 66.6 243.45 65.2 238.95 60 234.6 54.95 233.9 54.95 232.9 54.95 220.95 48.5 220.95 45.45 221.9 44.3 222.85 43.25 225.35 43.25 230.95 43.25 236.95 48.5 238.45 49.8 240.9 52.1 242.8 53.75 243.85 53.75 245.65 53.75 248.2 52.8 250.7 51.8 254.1 51.8 260.55 51.8 266.05 53.3 263.95 49.95 261 47.75
M 297.7 109.25
Q 291.15 104.45 287.15 101.25 288.5 104.45 297.5 112.65 305.3 119.8 305.3 124.3 305.3 125.3 304.05 132.3 304.05 133.65 304.85 134 306.7 134.75 308.9 137.15 309.2 128.65 309.2 127.65 309.2 119.15 304.5 114.6 302.7 112.9 297.7 109.25
M 301.05 144.1
Q 296.85 145.15 296.2 146.4 296.1 146.55 296.1 146.7 296.05 146.9 296.15 147.45 296.2 147.8 296.3 148.3 296.6 149.55 296.4 150.65 296.4 156.05 289.9 159.95 289.8 160.05 289.75 160.1 286.6 163.35 283.15 163.35 282.35 163.35 281.6 163.35 277 164.45 271.55 164.45
L 270.15 164.45 272.55 165.25 276.5 166.4
Q 278.4 167 281.1 168.5 282.35 169.2 286.2 169.2 289.7 169.2 291.5 168.75 292.7 168.4 295.75 167.35 297.95 167.2 300.1 165.75 301.65 164.7 301.95 164.15 303.05 162.5 303.25 160.2 303.35 159.35 303.35 155.45 303.35 151.65 303.2 150.65 302.8 147.8 301.05 144.1
M 265.75 98.9
L 265.1 98.05
Q 266.65 100.75 273.8 109.1 280.15 117.5 280.15 123.4 280.15 128.55 278.6 130.6 277.65 131.85 276.3 131.85 275.05 131.85 273.35 131.1 270.95 130.05 269.15 129.3 280.25 141.7 280.3 141.7 283.1 141.7 283.95 137.05 284.5 134.1 284.5 125.6 284.5 118.7 276.35 109.35 276.25 109.25 265.75 98.9
M 334.15 129.95
L 336.1 131.9
Q 338.35 134.15 338.5 134.45 340.2 137.2 339.55 141.75 339.55 147.3 335.25 151.2 330.9 155.1 324.75 155.1
L 317.6 157.5 314.8 158.45
Q 316.3 158.7 319.85 159.3 323.2 159.8 326.2 159.8 328.55 159.8 330.4 158.7 333.1 157.1 334.15 156.75
L 334.3 157.05
Q 334.45 157.5 334.45 158.1 334.45 158.2 324.65 168 314.35 178.45 312.35 181.2
L 313.25 180.55
Q 318.3 176.9 321.25 175.15 326.75 171.9 332 170.55
L 332.1 170.5
Q 337.85 166.85 340.95 164.7 346.55 160.8 346.55 157.75 346.55 155.55 345.3 154.55 344 153.55 344 153.45 344 152.75 345.45 150.15 346.85 147.5 346.85 142.25 346.85 136.9 345.4 133.95 343.05 129.3 337 129.3
L 334.85 129.45
Q 334.85 129.7 334.15 129.95
M 335.7 97.25
L 327.8 92
Q 328 92.2 328.4 93.3 328.9 94.65 328.9 95.75 328.9 97.2 327.9 99.65
L 330.95 99.65
Q 329.95 101.05 328.5 101.7 326.85 102.45 324.1 102.45 319.1 102.3 314.75 99.7 313.1 98.95 311.85 98.3 309.5 97.05 307.4 95.2 320.9 111.85 328.25 116.1 330.5 117.4 333.05 117.95 335.8 118.55 336.75 119 338.75 119.95 346.6 120.4 350.1 120.4 351.8 123.65 352.85 125.65 353.75 130.9 354.65 136.15 355.65 138.1 357.25 141.35 360.7 141.35 365 141.35 366.1 141.7 368.8 142.55 368.8 145.95 368.8 151.1 359.65 157.75 354.85 161.25 348.05 165.05
L 349.55 164.85
Q 372.9 159.9 377.05 158.6 383 156.7 383 153.55 383 149.25 380.65 146.15 379.05 144.1 374.6 140.7 363.25 132.1 357.85 122.6 354.1 115.95 349.5 110.5 343.75 103.6 335.7 97.25 Z"/>

<path fill="#5E513E" stroke="none" d="
M 88.75 193.55
L 88.35 192.45 87.95 193.55 88.75 193.55
M 148.5 145.4
Q 144.4 141.8 140.15 138.15 140.85 139.8 144.05 143.95 147.8 148.85 149.5 151.75 156.2 162.95 153.6 174.6 154.35 173.35 154.9 171.3 155.5 169.1 155.5 167.2 155.5 160.35 156.2 151.9
L 156.15 151.75
Q 151.35 147.8 148.5 145.4
M 159.7 107.65
Q 159.15 106.7 159.05 106.05 158.4 104.5 157.1 102.55 156.55 101.65 153.5 97.4
L 155.6 101.7
Q 157.65 106.2 157.7 107.05
L 157.75 107.4
Q 158.15 113.1 158.15 114.25 158.15 118.8 155.6 120.6 151.1 123.8 150 125.35
L 149.45 127
Q 149.45 128.7 148.4 129.9 147.3 131.05 145.75 131.05 140 131.5 135.95 132.75 133.6 133.45 128.55 135.2
L 129.8 135.7
Q 131.55 136.1 134.7 136.45 135.35 136.45 137.05 136.85 139.4 137.4 140.15 138.15
L 139.9 137.35
Q 141.9 139 144.35 139.5 145.8 138.25 147.6 136.9 151.15 134.15 153.1 133.5 154.6 132.15 156.8 127.65 160.2 120.7 160.2 113.4 160.2 109.25 159.7 107.65
M 72.7 190.4
Q 75.1 190.2 76.5 190.2 79.05 190.15 80.45 190.95 83.15 188.85 84.15 185.45 85.15 181.9 85.1 174.2
L 85.75 175.05
Q 86.6 176.5 87.35 178.4 92.2 173.4 93.35 172.05 95.75 170.05 95.75 167.4 95.75 164.2 94.3 162.1 92.7 160.5 92.45 160.15 92.3 159.8 91.7 158.1 91.1 156.35 91.1 156.25
L 90.8 155.5
Q 88.7 159.3 86.4 161.95 84.55 164.05 82 165.95 81.35 167.6 80.8 177.8 79.4 187.65 74.35 189.9
L 72.7 190.4
M 20.1 147
L 19.85 144.65 19.75 142.5
Q 19.4 146.2 18.85 150.65 18.85 153.3 21.75 155.55 24.6 157.75 27.3 157.1
L 27.65 157.1 27.8 158.95
Q 27.8 165.15 22 167.05 17.7 168.4 11.8 167.3 12 167.35 24.15 173.25 24.25 173.3 24.5 173.5
L 24.55 173.5 24.7 173.6
Q 26.05 170.65 30.85 164.45 35.2 158.8 36.45 157.85 34.9 158.05 30.9 156.85 27.65 155.85 25.25 154.8
L 26.55 155
Q 31.45 155.75 32.3 155.75 34.95 155.75 36.5 154.75 38.3 153.6 40.4 150.1 37.05 154.2 35.1 154.45 33.85 154.65 30.2 154.3 26 154.3 23.05 152.15 20.15 150.05 20.1 147.15
L 20.1 147
M 74.35 147.8
L 73.7 147.8
Q 82.15 149 83.5 149.2 84.8 149.35 87.25 149.35 91.2 149.35 94.25 148 98.35 146.15 103.3 141.15 104.35 138.7 104.45 138.5 104.65 138 104.65 137.5 104.5 134.45 104.5 132.4
L 104.5 125 104.5 123.75 102.75 126.05
Q 102.75 134.7 97.3 140.8 91.8 146.9 84.05 146.9 81.05 147 74.35 147.8
M 56.9 117.75
Q 54.6 119.95 54.2 120.6 53.85 121.05 52.8 122.65 55.15 120 56.9 117.75
M 79.5 86
L 79.5 84
Q 74.3 93.3 74.25 94.6 74.2 94.8 74.55 95.3 74.9 95.75 74.65 96.9
L 75.55 95.5
Q 76.75 105.2 67.05 113.6 64.15 116.1 58.55 119.85 52.9 123.6 51.2 125.05 50.15 126.15 48.7 126.95 47.3 127.7 46.4 127.7 46.2 127.7 42.75 126.9 39.05 126 37.75 125.55
L 36.6 125.15
Q 37.25 125.45 41.4 127.8 45.7 130.1 48 130.35
L 46 134.65
Q 43.9 139.6 43.1 142.9
L 43.9 140.85
Q 43.75 148.8 43.2 151.6 42.2 156.4 39.05 157.55 45.45 156.05 47.2 144.8 47.75 141.25 47.9 136.25 48.05 130.45 48.05 130.35 51.05 128.15 59.1 124.05 66.4 120.3 69.95 117.35 81.25 107.7 79.5 86
M 43.5 94.9
L 43.4 94.2
Q 37.9 103.3 31.2 109.45 18.45 121.2 18 121.65 16.5 122.9 11.6 128.55 8.25 132.4 3.25 134.85
L 2.85 135.15
Q 3.75 136.9 4.5 139.6 5.05 141.6 5.2 142.8
L 7.1 140.55
Q 8.7 138.9 9.6 137.8 10.15 137.1 12.4 134.2 13.8 132.3 18.35 128.25 26.8 120.85 27.3 120.4 30.6 117.35 33.25 114.5 35.45 111.35 36.9 109.2 39.45 105.3 41.6 102.15 41.9 101.35 42.15 100.65
L 41.05 101.15
Q 41.15 100.3 42.15 98.45 43.05 96.65 43.5 96.35 43.55 95.75 43.5 94.9
M 87.3 46.35
Q 85.9 46.55 85.15 46.55 85 46.55 78.35 44.35 79.1 47.6 85.5 48.9
L 91.7 49.55
Q 93.2 49.55 95.55 48.35 98.55 46.65 100.35 45.7 107.35 42 113.85 42.45
L 115.05 42.4
Q 110.5 40.95 107.2 40.7 106.4 40.65 96.5 40.5
L 95.95 40.8
Q 95.65 41.3 94.2 42.15 92.9 42.65 91.15 44.2 89.25 45.9 89.1 45.95 88.7 46.15 87.3 46.35
M 127.85 47.1
Q 125.95 47.1 123.9 46.3 120.7 45.05 120.15 44.9
L 118.5 44.25
Q 122.9 49.9 130.45 49.9 131 49.9 131.5 49.85 132.6 49.5 134.2 49.1 135.25 48.55 135.95 47.55 136.7 46.5 137.8 42.75 138.65 39.05 140.3 33.8 141.75 29.05 141.95 28 136.4 39.65 135.25 41.35 134.45 42.55 132.4 44.9 131.25 45.95 130.65 46.3 129.3 47.1 127.85 47.1
M 83.95 71.45
Q 90.8 67.25 90.8 63.35 90.8 62.35 90 59.55 89.2 56.7 89.2 54.4 81.7 59.2 80.6 60.15 78.6 62 78.6 65 78.6 68.35 80.35 70.05 81.75 71.45 83.95 71.45
M 198.35 185.35
Q 198.85 188.2 200.25 191.75 201.2 194.1 201.2 198 201.2 203.95 200.05 206.05 198.7 208.4 193.3 211.15 194.05 213.5 196.2 215.85 197.3 217.1 198.85 218.7 199.1125 218.74375 199.35 218.75
L 199.6 218.75
Q 200.55 218.8 201.35 218.75
L 210.3 218.55 210.85 218.3
Q 213.55 216.95 213.95 216.7 214.15 216.55 214.95 215.55
L 215 214.5
Q 211.5 214.5 210.85 214.45 207.35 214.1 205.9 212.6
L 205.7 211.5
Q 206.2 208.8 206.2 206.5 205.95 204.45 206.4 202.8 207.05 200.95 207.35 199.95 207.6 199 207.7 197.85
L 207.75 196.95 206.65 194.15
Q 205.95 192.6 204.3 190.7 198.45 185.4 198.35 185.35
M 164.45 183.2
Q 162.75 181.55 162.1 180.7 161 179.35 161 177.55 162 169.95 162 168.95 162 164.15 160.35 158.9 158.6 153.25 156.2 151.75
L 156.2 151.9
Q 157.2 157 158.9 161.2 160.05 164.2 160.05 166.5 160.05 171.85 158.85 175.4 156.85 181.35 151.8 181.35 147.1 181.35 144.65 180.9 143 180.65 137.8 179.7
L 139.05 179.75
Q 141.55 180 145.35 179.2 148.6 178.5 150.3 177.65 148.4 178.05 146.25 178.05 146.2 178.05 141.45 177.5 136.45 176.65 135 175.05 131.35 171.2 130.8 169.3
L 130.95 171.2
Q 131.6 173.85 133.15 176.65 134.85 178.95 137.75 182.2 139.85 184.75 139.85 186.65 139.85 189.15 139.05 190.65 137.9 192.65 134.8 194.1
L 133.7 194.9
Q 135.35 195.05 136.35 195.05 141.8 195.05 143.35 191.85 144.15 190.2 144.85 189.65 146.2 188.65 149.2 188.65 156.85 188.65 158 196 158.55 199.75 157.5 204.1 158.8 202.95 159.8 200.7 161.15 197.65 161.15 194.1 161.15 190.8 160.65 188.9 160.05 186.5 160 186.05 160.05 185.7 160.55 186.1 160.85 186.3 161.1 186.55 161.85 187.6 163.7 192.15 165.7 197.15 165.5 198.35 167.25 196.5 167.55 196.05 167.9 195.55 167.9 193.85 167.9 186.9 164.45 183.2
M 186.75 165
Q 186.85 167.2 186.15 169.35 185.65 171.3 183.5 172.8 181.8 174 179.6 174.6 176.85 175.35 171.55 175.55
L 170 175.55
Q 174.65 176.55 176.35 176.85 179 177.35 181.15 177.35 187.15 177.35 188.6 172.5 189.25 170.3 189.25 160.7
L 189.1 145.05
Q 186.6 160.65 186.75 165
M 235.05 145.85
L 233.2 144.95
Q 235.65 149.7 239.45 152.1 241.65 153.5 246.05 154.8 249.9 156 251.25 157.15 253.35 159 253.35 163.15 253.35 168.95 250.35 172.75 246.35 177.8 238.6 176 238.6 181.85 241.7 187.65 244.75 193.45 244.75 202.35 244.75 203.6 243.8 207.5
L 243.75 207.8
Q 246.05 206.95 247.65 201.6 249 197.25 249 193.95 249 192.25 248.45 190.3 247.85 188.35 247.85 186.1 247.85 183.8 249.25 181.95 250.65 180.15 252.45 180.15 252.75 180.15 257.75 185.1 263.3 190.5 268.25 192.4 268.3 191.1 265.2 186.75 262.15 182.4 262.3 179.9 262.8 173.4 262.1 170.55 261.7 168.85 259.45 164.95
L 259.3 166.1
Q 258 174.05 252.85 177.4 249.35 179.65 244.2 179.65 243.35 179.65 241.75 179.2 240.2 178.75 239.45 178.3
L 240.6 177.95
Q 247.15 178.75 250.95 175.75 255.85 171.8 255.85 161.6 255.85 158.6 254.1 154.6 252 149.85 249.15 149.35
L 244.85 149.2
Q 242.05 149.5 238.75 148.15 236.1 147 235.05 145.85
M 204.85 123.45
Q 204.5 122.45 204.2 119.7 203.9 117.25 203.9 116.3
L 204.05 114.55
Q 201.5 108.5 197.6 105 190.85 98.9 187.75 95.1 191.2 104.3 196.1 109.9 198.35 112.45 198.75 113.05 199.7 114.6 199.7 116.65 199.9 118.2 199.9 119.2 199.9 125.3 194.95 126.3 194.05 126.5 188.8 126
L 188.3 126.1
Q 189.25 127.05 191.5 128.85 193.3 130.65 193.3 132.9 193.3 133.5 193.7 133.55 195.65 133.65 199.05 134.6
L 200.2 133 199.35 134.7
Q 200.4 135.2 204.45 138.65 208.4 142.05 209.4 142.45
L 210.25 142.6
Q 206.7 139.45 204.45 137.25 200.2 133.1 200.2 130.95 200.2 129.5 201.8 128.9 203.75 128.15 204.5 125.45
L 204.85 123.45
M 211.45 93.4
Q 189.05 87.2 186.9 86.25 188.15 87.25 204.95 100.2 211.65 105.35 218.9 105.95 221.85 106.2 222.4 106.45 223.55 107 223.55 109 223.55 111.4 222.75 114.3 222.5 115.2 222.35 115.8 221.95 117.25 221.95 117.3 221.95 117.65 222.3 117.95 222.55 118.15 223 118.35 223.8 118.65 224.75 118.65 225.05 118.4 225.65 118.05 226.9 117.4 228.6 117 229.7 116.7 230.6 116.1 232.8 115 233.25 115 234.5 115 234.95 118.6 235 118.85 235 119.1 236.4 122.5 236.4 124.2 236.4 124.25 235.35 127.35 234.7 127.9 234.15 128.65 234.1 128.65 234.05 128.7 233.95 128.8 233.9 129.05 233.65 129.65 233.65 131.1
L 234.55 134.9
Q 235.65 139 236.8 140.6 240.35 135.5 241.25 133.9 242.5 131.65 242.5 127.75 242.5 118.05 240.4 113.7 238.85 110.6 235.7 109.55 231.35 108.1 231.05 107.85 228.9 106.25 228.9 101.2 228.9 98.25 211.45 93.4
M 168.25 55.5
L 167.9 55.75 164.8 59.1
Q 162.85 62.55 161.85 67.4 161.35 69.8 156.85 73.2 156 73.9 150.75 75.8 145.45 78.1 143.3 81.05 143 81.7 141.15 83.25 139.4 84.8 138.9 84.95 138.35 86.4 138.25 87.7
L 138.45 88.85 138.7 90.05
Q 139.15 84.25 150.45 79.8 162.9 76.1 163.45 75.5
L 164 74.5
Q 164.7 71.7 166.15 63.7 167.25 57.8 168.25 55.5
M 188.4 72.7
Q 185.7 71 183.25 70.2
L 179.05 70.05 179.45 70.3 183.65 72.45
Q 185.9 74.25 192.85 78.45 199.95 82.8 200.75 82.8 206.3 82.8 208.7 78.8 210.55 75.7 210.55 69.95 210.55 67.3 209.05 64.45 207.3 61.6 206.7 60.4
L 206.1 60.7
Q 205.75 61.8 205.6 63.65
L 204.85 65.7
Q 204.15 73.95 196.9 73.95 191.25 73.95 188.4 72.7
M 172.55 23.85
Q 178.65 15.5 180.75 12.85 175.15 13.7 169.75 15.75 161.2 18.95 161.2 23.05 161.2 24.65 162.35 30.35 163.45 36.05 163.45 36.45 163.45 37.9 162.2 38.6 161.3 39.05 159.4 39.35 154.9 39.45 151.95 38.55 152.4 39.05 153.1 39.65
L 157.95 42.7 159.05 42.35 158.25 42.8
Q 159.25 43.25 160.65 43.55 162.05 43.85 162.85 43.75 167.2 43.25 168.55 43.25 171.9 43.25 177.95 45.55 184 47.85 185.45 47.85 192.15 47.85 194.2 41.45
L 185.45 41.6
Q 180.45 41.6 173.75 38.5 166.65 35.15 166.65 32.05 166.65 31.9 172.55 23.85
M 219.5 25.1
Q 220.25 25.65 220.75 26.2
L 221.1 26.75
Q 221.45 27.4 221.45 28 221.45 29.4 219.25 30.35 218.7 31 217.95 31.6 215.75 33.25 212.95 33.7 218.4 33.25 220.5 32.2 223.1 30.85 223.1 27.55 223.1 25.95 221.8 24.95 220 23.55 215.85 23.75 217.95 24.05 219.5 25.1
M 204.85 22.4
L 210.05 22.8
Q 215.5 22.85 221.25 23.1
L 216.05 22 204.85 22.4
M 237 21.45
Q 238.05 19.55 238.1 18.8
L 237.35 18.15
Q 237.15 20.25 237 21.45
M 226.4 24.7
L 224.6 24.35
Q 226.45 26.1 228.1 29.15 229.05 30.9 230.7 34.35 233.75 40.1 238.15 40.1 241.65 40.1 242.45 38.15 242.95 36.95 242.95 31.35 242.95 28.55 242.25 27.65 241.4 26.5 238.55 26.5 237.6 26.5 236.15 26.3 234.4 26.05 233.95 25.75 234.4 25.35 235.4 23.9 233.4 25 228.9 25 228.3 25 226.4 24.7
M 334.3 157.05
L 334.15 156.75
Q 333.1 157.1 330.4 158.7 328.55 159.8 326.2 159.8 323.2 159.8 319.85 159.3 316.3 158.7 314.8 158.45
L 317.6 157.5
Q 309.75 156 309.75 149.15 309.75 141.95 313.3 137.6 315.5 134.9 315.75 134.45 316.85 132.65 316.85 130.25 316.85 125.25 312.95 117.55 308.1 107.95 301.15 105.25 295.95 103.25 287.05 94.6 277.7 85.55 277.7 81.7 277.7 79.75 283.4 79.65 286.3 79.6 289.25 79.95 290.35 79.95 291.5 78.55 292.65 77.15 294.1 77.15 297.3 77.15 301.85 81.35 305.85 85.05 305.85 85.8 305.85 86.3 305 86.95 303.8 87.8 302.9 89.15
L 302.85 90.4 304.4 90.55
Q 309.2 90.55 310.75 89.2 311.85 88.3 313.65 83.8 309.15 81.85 306.2 80.55 302.25 78.8 301.05 78.2 294.6 75 289.3 71.65 283.15 67.75 282.65 67.45
L 281.6 66.9
Q 282.3 70.2 281.8 70.65 281.2 71.2 276 71.2 273.55 71.2 271.3 74.65 269.05 78.05 266.25 78.05 258.3 77 255.55 76.5 256.45 77.3 257.8 78.3 259.8 79.8 264.45 83.2 273.25 90 254.75 76.4 254.65 76.35 254.55 76.35 273.35 96.75 271.5 97.15 270.55 97.35 262.65 97.85 266.75 105.4 272.75 114.3 276.75 120.85 276.75 126.45 276.75 127.6 275.8 128.1 274.8 128.65 272.45 128.65 269.05 128.65 266.6 126.55 263.4 123.15 260.85 120.55 258.4 118.1 257.05 113.3 255.7 108.7 255 100.75 254.6 96.1 249.15 90.6 243.85 85.2 243.85 82.95 243.85 82.45 244.35 80 244.8 77.55 244.8 77.05 244.8 76.35 244.15 70.85 243.45 65.3 243.45 65.25 243.45 60.5 246.35 58.25 248.25 56.8 250.4 56.8 253.4 56.8 259.55 61.1 265.55 65.3 265.55 66.95 265.55 71.8 261.7 73.35 259.95 74.05 253.6 74.5 254 75.15 255.05 76.1 262.15 75.9 267.25 71.75 272.55 67.35 272.55 61.15 270.35 59.3 266.05 53.3 260.55 51.8 254.1 51.8 250.7 51.8 248.2 52.8 245.65 53.75 243.85 53.75 242.8 53.75 240.9 52.1 238.45 49.8 236.95 48.5 230.95 43.25 225.35 43.25 222.85 43.25 221.9 44.3 220.95 45.45 220.95 48.5 232.9 54.95 233.9 54.95 234.6 54.95 238.95 60 243.45 65.2 243.45 66.6 243.45 72.65 238.55 77.4 234.25 81.6 230.25 81.6
L 227.55 81.25
Q 229.95 81.3 232.6 78.55 235.95 75.05 235.95 70.05 235.95 66.4 232.9 62.9 230.3 59.95 228 59.4 220.4 57.5 219.05 53.95 218.65 52.85 218.9 51.7 219.2 50.8 219.15 50.8 218.65 50.8 218.55 51.2 218.45 51.55 217.95 51.55 219.4 47.4 218.95 43.25 218.05 34.95 207.6 34.95 200.95 35.5 200.8 35.5 204.75 35.85 208.05 36.65 214.5 38.15 214.85 41.2 215.25 45.05 216.65 49.15 217.8 52.7 217.8 54.85 217.8 56.35 217.4 57.7 216.7 60.05 216.55 60.85 219.45 62.7 222.85 63.65 224.7 64.2 227.65 64.85 231.8 66.1 231.8 72.2 231.8 75.35 230.05 77.65 228.15 80.15 225.05 80.2 229.6 83.35 241.15 91.15 244.45 93.4 249.7 97.25
L 250.5 97.9 247.95 96.3 247.1 95.65 246.5 95.05
Q 253 102.65 254.5 107.4 255.7 111.15 253.65 111.15 253.15 111.15 253.5 110.65 253.85 110.1 253.35 110.1 252.85 110.1 253 115.2 253.2 121.4 252.85 123.3 252.75 123.85 250.95 127.25 249.2 131 249.2 133.85 249.2 135.2 250.65 138.95 251.05 140 252.7 144.05 252.8 143.2 252.15 140.4 251.55 137.85 251 136.35 254.8 140.25 260.05 144.25 263.25 147.65 262.2 154.55 261.8 157.9 266.4 163.4 271.15 169.15 271.15 172.2 271.15 172.85 270.6 173.7 270.05 174.55 270.05 175 270.05 178.35 277.25 183.05 284.6 187.85 288.8 186.85
L 288.55 187.2
Q 288.5 187.25 283.05 188.25 277.95 189.15 274.4 192.4
L 276.1 192.35
Q 280.75 192.3 293.45 189.2 305.8 186.15 307.75 184.8 311 182.25 312.35 181.2 314.35 178.45 324.65 168 334.45 158.2 334.45 158.1 334.45 157.5 334.3 157.05
M 265.1 98.05
L 265.75 98.9
Q 276.25 109.25 276.35 109.35 284.5 118.7 284.5 125.6 284.5 134.1 283.95 137.05 283.1 141.7 280.3 141.7 280.25 141.7 269.15 129.3 270.95 130.05 273.35 131.1 275.05 131.85 276.3 131.85 277.65 131.85 278.6 130.6 280.15 128.55 280.15 123.4 280.15 117.5 273.8 109.1 266.65 100.75 265.1 98.05
M 291.9 114.75
Q 292.8 115.55 297.05 118.6 302.5 122.45 302.5 129.1 302.5 137.2 299.35 140.85 297.25 143.2 297.15 143.4 296.4 144.65 296.2 146.4 296.85 145.15 301.05 144.1 302.8 147.8 303.2 150.65 303.35 151.65 303.35 155.45 303.35 159.35 303.25 160.2 303.05 162.5 301.95 164.15 301.45 175 297.75 179.6 294.65 183.5 288.8 183.5 285.15 183.5 283.4 182.75 281.95 182.15 281.25 180.75 285.15 177.9 288.3 175.4 294.45 170.6 295.75 167.35 292.7 168.4 291.5 168.75 289.7 169.2 286.2 169.2 282.35 169.2 281.1 168.5 278.4 167 276.5 166.4 276.35 166.4 274.6 165.9 272.85 165.4 272.55 165.25
L 270.15 164.45 271.55 164.45
Q 270.8 163.25 270.35 158.8 269.85 153.95 269.15 152.3 268.85 151.55 263.15 146.85 258.25 142.8 258.25 138.45 258.25 137.5 260.9 135.9 263.45 134.35 264.5 134.35 266.05 134.35 273.05 138.3 276.85 140.45 283.65 144.3 286.65 141.1 289.15 133.9 291.3 127.85 291.3 125.3 291.3 123.95 288.55 120.25 285.75 116.55 285.75 115 285.75 113.9 286.55 109.6
L 286.7 108.2
Q 288.8 112.05 291.9 114.75
M 287.15 101.25
Q 291.15 104.45 297.7 109.25 302.7 112.9 304.5 114.6 309.2 119.15 309.2 127.65 309.2 128.65 308.9 137.15 306.7 134.75 304.85 134 304.05 133.65 304.05 132.3 305.3 125.3 305.3 124.3 305.3 119.8 297.5 112.65 288.5 104.45 287.15 101.25
M 296.3 148.3
Q 296.2 147.8 296.15 147.45 296.15 148.45 296.4 150.65 296.6 149.55 296.3 148.3
M 339.55 141.75
Q 338.2 143.6 333.15 147.9 325.55 154.35 324.75 155.1 330.9 155.1 335.25 151.2 339.55 147.3 339.55 141.75
M 368.8 145.95
Q 368.8 142.55 366.1 141.7 365 141.35 360.7 141.35 357.25 141.35 355.65 138.1 354.65 136.15 353.75 130.9 352.85 125.65 351.8 123.65 350.1 120.4 346.6 120.4 338.75 119.95 336.75 119
L 337.1 121.9
Q 337.1 124.85 335.5 126.45 334.55 127.35 332.45 128.75 332.85 129.65 333.9 130.6 335.1 131.7 336.1 131.9
L 334.15 129.95
Q 334.85 129.7 334.85 129.45
L 337 129.3
Q 343.05 129.3 345.4 133.95 346.85 136.9 346.85 142.25 346.85 147.5 345.45 150.15 344 152.75 344 153.45 344 153.55 345.3 154.55 346.55 155.55 346.55 157.75 346.55 160.8 340.95 164.7 337.85 166.85 332.1 170.5
L 340.05 167.45
Q 343.75 166.05 348.05 165.05 354.85 161.25 359.65 157.75 368.8 151.1 368.8 145.95
M 328.9 95.75
Q 328.9 94.65 328.4 93.3 328 92.2 327.8 92
L 326.1 90.9
Q 326.1 97.9 324.7 98.65 324 99 322.2 98.85 319.1 98.6 318 98.6 316.1 98.6 314.75 99.7 319.1 102.3 324.1 102.45 326.85 102.45 328.5 101.7 329.95 101.05 330.95 99.65
L 327.9 99.65
Q 328.9 97.2 328.9 95.75 Z"/>

<path fill="#827155" stroke="none" d="
M 85.8 101.95
Q 85.4 102.35 83.9 104.35 82.45 106.3 82.3 106.55 82.75 106.05 84.05 104.4 85.3 102.7 85.8 101.95
M 104.7 100.4
Q 102.95 100.2 102.7 100.2 98.8 99.85 93.6 99.75 96.2 100 99.1 100.05 100.7 100.1 104.7 100.4
M 140.95 141.6
Q 138.6 139.85 135.7 139.85 121.25 139.85 117.2 139.1 113.15 138.3 111.1 138.3 109.2 138.3 103.15 145.1 96.9 152.1 96.9 154.9 96.9 159 100.7 161.15 101.6 161.7 103.25 162.65 104.45 163.45 104.45 164.55 104.45 164.95 103.75 166.25 102.75 167.95 101.4 168.95
L 102.2 169.5
Q 103 169.75 104.85 170.1 106.7 170.4 107.45 170.4 111.95 170.4 114.1 167.85 115.55 166.2 116.45 162.3 117.45 157.95 118.2 156.7 119.7 154.15 123.1 154.15 124.7 154.15 125.2 156.75 126.15 161.5 126.55 162.4 129.85 170.65 145.7 170.65 147.9 170.65 148.3 169.95 149 168.6 149 161.9 149 156.65 146.5 149.95 145.9 148.3 145.2 146.95 143.3 144 140.95 141.6
M 155.75 108.15
Q 155.75 106.45 155.2 105.4 154.6 104.2 152.25 101.45 151.15 103.45 147 105.05 142.95 106.55 138.95 106.65 135 106.75 132.35 111.2 129.15 116.55 128.45 116.9 130.25 119.65 131.95 120.45 132.85 120.85 134.8 120.85 139.05 121.05 141.35 121.05 145.55 121.1 148.2 120.35 155.75 118.2 155.75 108.15
M 130.35 179.55
Q 129.2 177.8 127.6 177.8 126 177.8 124.9 179.55 123.75 181.25 123.75 183.7 123.75 186.15 124.9 187.9 126 189.6 127.6 189.6 129.2 189.6 130.35 187.9 131.45 186.15 131.45 183.7 131.45 181.25 130.35 179.55
M 71.9 170.85
L 48.95 170.85 48.95 182.4 71.9 182.4 71.9 170.85
M 59.3 134
Q 53.7 134.9 49.9 145.15 48.9 147.75 47.35 152.6 46 156.3 44.8 157.15
L 42.4 158.85 38.75 163.4
Q 40.55 164.7 50.45 164.5 57.45 164.5 64.2 163 73.05 161 73.05 157.5 73.05 155.85 72.25 153.75 71 153.15 70.25 152.35 68.8 150.75 68.8 147.3 68.1 146.25 67.3 145.15 59.6 134.65 59.3 134
M 42.65 134.3
Q 42.65 132.35 41.95 130.8 41.05 128.95 39.4 128.55 32.6 127.25 29.7 127.25 26.25 127.2 24.6 128.8 23.05 130.3 22 134.25 21.6 135.8 19.85 144.65
L 20.1 147 20.1 147.15
Q 20.2 149.4 23.45 151 26.75 152.65 31.45 152.65 36.85 152 40.3 143.35 42.65 137.35 42.65 134.3
M 79.5 111.7
L 79.45 111.3
Q 79.2 111.6 78.3 113.4 77.4 115.35 77.25 115.95 83.15 116.55 85.45 118.3 87.15 119.65 87.15 122.15 87.15 124.9 81.9 125.1 74.15 125.4 70.55 127.1 70.4 128.9 70.4 129.3 70.4 132.85 71.1 134.2 71.55 135.2 73.45 136.5 75.35 138.55 76.15 139.25 78.25 141.05 79.7 141.05 84.5 141.05 89.6 131.55 92 126.8 93 125 94.7 122.05 95.75 122.05 102.6 122.8 103.6 122.8 105.05 122.8 108.95 118.65 113.45 113.9 113.45 110 113.45 106.55 113.05 105 112.55 103.2 111.2 102.1 110.05 105.8 108.45 107.5 106.55 109.45 103.45 109.45 95.7 109.45 91.25 109.9 88.5 110.2 79.5 111.7
M 60.3 83
Q 58.55 84.15 53.45 89.95 47.85 96.3 42.9 100.2 42.25 101.15 41.6 102.15 39.45 105.3 36.9 109.2 35.45 111.35 33.25 114.5 32.65 115.25 32 116.15 32.95 116.6 35.65 117 37.8 117.3 38.55 117.3 42.35 117.3 47.85 113.4 55.5 108 63.65 104.95 67.85 103.35 71.35 93.4 74.4 84.55 74.4 77.95 74.4 77.2 73.4 76.2 72.4 75.2 71.65 75.2 71.15 75.2 70.2 75.6 69.25 76 68.75 76 66.65 76 63.45 75.7 60.95 75.6 59.1 76.5 62 75.9 62.9 75.9 63.5 75.95 70.7 77.5 71.25 80.1 67.9 80.7 62.4 81.65 60.3 83
M 45.75 76.05
Q 45.45 76.45 43.7 78.25 41.9 80.05 41.6 80.25 42.3 89.4 29.35 102.6 16.25 115.95 3.7 118.4
L 1.65 120.35 1.7 120.4
Q 4.45 121.6 12.3 118.1 20.4 114.45 28.25 108.2 49 91.65 45.75 76.1
L 45.75 76.05
M 68.25 36.5
L 67.95 36.85 65.65 39.45
Q 68.85 41.35 70.5 44.05 71.75 46 71.75 47.4 71.75 48.55 69.9 50.55 67.05 53.6 64.15 60.7 64 61.15 63.55 62.85 63.3 64 62.75 64.55 61.35 66.05 55.05 66.05 54.05 66.05 51.6 65.85 50.75 67.85 49.45 70 50 72.7 51.6 73.55 52.9 74.2 56.35 74.2 61.9 74.2 66.75 68.75 72.15 62.65 72.15 53.7 72.15 41.8 70.9 40.3 70.1 39.8 69.65 39.4 68.8 38.7 68.25 36.5
M 137.5 50.7
Q 140.6 50.7 142.8 49.6 145 48.45 145 46.9 140.5 49.4 137.5 50.7
M 154.5 80.8
Q 153.2 81.55 152.95 81.75 154.45 81.45 154.8 81.35 155.2 81.2 160.05 79.05 158.95 79.35 156.2 79.9 155.8 80.05 154.5 80.8
M 114.05 67.65
Q 113.4 69.35 112.1 70.65 110.8 71.9 109.75 71.9 100.7 71.9 96.7 73.85 95.45 74.45 84.55 82.5
L 84.15 81.85
Q 83.5 85.25 82.85 88.15 82.5 90.15 82.5 94.55 82.5 95.25 82.85 96.4 83.1 97.4 83.3 97.7 88.15 93.15 91.2 88.7 93.75 84.45 94.7 83.05 96.15 80.85 98.15 80.1 100.5 79.25 106.1 79.25 109.9 79.25 115.2 80.9 120.45 82.55 121.25 82.55 121.85 82.55 122.3 82.2 122.75 81.85 122.75 81.35 122.75 79.6 118.95 74.15 118.4 73.4 114.05 67.65
M 109.4 63.5
Q 108.95 63.55 108.6 63.65
L 110.6 63.8
Q 110.25 63.4 109.4 63.5
M 157.6 22.95
Q 157.2 21.2 156.35 20.35 154.75 18.7 150.8 20.15 154.45 20.15 154.5 22.05 152.45 33.95 148.35 33.95 146.65 33.95 146.25 31.4 146.1 27.55 145.85 24.95 145.2 26.05 144.8 29.95 144.55 32.7 144.55 34.7 144.55 36 148.85 37.2 152.55 38.25 155 38.25 157.85 38.25 159 36.9 159.8 35.9 160 33.6 160 32.65 159.1 28.45 158.15 23.85 157.6 22.95
M 143.45 10.7
Q 143.45 11.65 144.25 12.35 145.55 13.55 148.5 13.55 158.35 13.55 163.5 1.7 163.5 1.6 161.55 1.05 157.55 2.85 148.65 3.3 135.35 3.95 133.05 4.25 113.65 6.75 109.05 23.3
L 108.75 22.85
Q 107.65 20.35 107.15 19.35 106.3 17.75 105.2 17.75 105.15 17.75 99.15 19.6 92.55 21.55 89.45 22.05 87.2 22.4 84.9 25.65 82.2 29.55 81.25 30.15
L 81.05 30
Q 81.05 33.55 81.85 35.3 83 37.9 86.15 37.9 88.45 37.9 90.6 35.35 91.45 34.3 94.3 29.75 99.3 21.55 104.95 21.55
L 106.8 21.6
Q 107.05 22.7 106.25 25.1 105.8 26.4 105.05 28.3 105.2 28.35 113.6 29.1 119.6 29.7 120.7 31.05 117.35 20.75 124.7 12.75 131.6 5.25 142 5.25 144 5.25 145.2 5.75 145.05 7.2 143.45 10.7
M 199.3 181.05
Q 200.85 182.95 202.4 186.5 203.85 189.8 204.3 190.25 205.25 190.25 205.95 191.4 206.65 192.55 206.65 194.15
L 207.75 196.95 209 200.05
Q 207.75 186.45 215.8 181.05 218.05 179.55 222.2 178.1 225.85 176.8 226.65 176 226.05 175.6 224.25 175.15 222.75 174.8 222.45 174.8 218.6 174.8 212.9 177.1 210.05 178.25 207.75 179.4 207.1 179.4 204.4 175.85 201.2 171.6 197.95 169.65 198.85 172.05 203.45 185.2
L 202.75 184.35
Q 199.8 181.4 199.3 181.05
M 191.9 185.9
L 191.65 185.75
Q 190.7 185.75 188.9 185.45 190.75 186.25 191.9 185.9
M 178.1 179.7
Q 176.5 179.7 174.45 181.4 173.25 182.4 170.45 185.05
L 169.2 188.05 169.05 189.45
Q 169.15 189.95 169.8 191.55 170.4 193.1 170.55 193.35 172.6 195.2 175.95 198.4 178.4 200.7 179.25 201.4
L 178.65 200.65
Q 177.35 197.8 176.65 196 175.45 192.75 175.45 189 175.45 186.9 176.45 186 177.65 184.9 180.75 184.9
L 188.9 185.45
Q 188.1 185 182.6 181.6 179.6 179.7 178.1 179.7
M 191.75 168.1
L 192 169.2
Q 192.35 165.3 192.35 156.3
L 191.7 161.45 191.55 165.15
Q 191.55 166.3 191.75 168.1
M 192.8 148.6
L 192.8 149.2
Q 193.3 146.4 193.3 144.15 192.9 145.55 192.8 148.6
M 210.35 147.8
Q 207.4 146.3 205.1 144.5 202.5 142.45 201.05 140.25 200.1 138.45 200.05 138.45 199.4 138.45 199.1 138.55 198.9 138.65 198.05 139.1 197.85 140.5 197.6 143.75 197.35 146.95 197.35 147.75
L 197.45 157.2
Q 198.8 155.7 201.15 154.7 203.55 153.7 205.85 153.7 206.9 153.7 211.95 154.85 221 156.9 223.45 157.4 241.45 160.1 241.6 160.1 242.6 160.1 242.65 159.9
L 241.9 158.9
Q 241.1 158.05 237.95 156.3 233.9 154.1 230.95 153.85 225.2 152.95 220.45 151.65 216.45 151.2 213.7 150.45 212.5 150.1 210.35 147.8
M 218.4 108.15
Q 217.7 107.45 216.5 106.7 214.2 105.25 212.05 105.25 205.6 105.15 205.1 106.5 205 106.85 205 108.85 205 110.494921875 204.65 112.05
L 205.3 109.4
Q 209.5 111.35 210.8 114 211.8 116 211.8 120.55 211.8 122.8 211.4 123.9 213.3 122.65 214.95 120.3 218.4 115.25 218.4 108.15
M 231.3 120.65
Q 231.3 120.05 230.55 118.35
L 229.8 116.8
Q 225.25 119.2 222.15 123.15 219.2 127 219.2 130.2 219.2 132.1 220.3 132.85 221.65 133.75 225.3 133.75 227.85 133.75 229.6 129.75 231.3 125.9 231.3 120.65
M 162.3 78.1
L 162.05 78.2 166 82.15
Q 164 84.45 162.8 85.05 161.75 85.6 159.85 85.6 156.15 85.6 154.1 84.8 154.05 84.75 152 83.55 151.85 83.9 150.55 85.95 149.4 88 149.4 88.9 149.4 89.2 149.5 89.5 149.75 90.3 150.7 91.2 152.05 92.55 153.35 92.55 153.9 92.55 154.4 92.55 163.55 92.2 167.1 86.1 169.2 82.35 170.6 71.05 164.55 75.65 164.25 76.35 164 76.9 162.3 78.1
M 165.4 54.85
Q 169.35 52.75 169.35 50.75
L 169.25 46.5
Q 166.05 46.55 161.3 45.5 158.95 44.95 156.95 44.4 155 48.9 146.05 54.2 137.85 59.05 134.35 59.05 131.85 59.05 125.45 56.85 118.05 54.25 115.9 51.6 116.35 56.5 125 63.7 134.9 71.9 145 71.9 146.3 71.9 147.65 69.6 149.85 65.75 154.85 61.6 158.8 58.3 165.4 54.85
M 163.3 109.85
L 163.2 109.85
Q 162.9 115.45 159.5 124.5 156.25 133.1 156.25 140.4 156.25 142.05 157.2 150.6 163.15 148.3 166.6 159.95 167.5 162.95 169.05 168.4 170.5 172.35 172.3 172.35 174.35 172.35 178.8 169.2 184.1 165.45 184.1 161.7 184.1 159.8 182.1 158.25 179.45 156.45 178 155.05 179.05 153.3 181.95 150.8 183.7 149.25 183.7 146.6 183.7 138 175 123.85 166.9 110.75 163.3 109.85
M 176.55 86.85
L 176.35 92
Q 176.35 99.8 177.9 104.3 181.5 114.95 192.35 114.95 193 114.95 193.45 113.25 193.75 111.95 193.75 110.8 193.75 110.55 185.75 99.1 177.55 87.4 176.7 86.85
L 176.55 86.85
M 198.8 58.35
Q 197.1 56.65 196.5 56.55 190.7 55.9 187.2 55.9 190 57 192.15 57.85 192.85 58.15 192.85 58.85 192.85 64.95 180.2 64.95 177.4 64.95 175.7 63
L 174.4 66.3
Q 181.2 67.9 186.1 67.9 192.4 67.9 195.45 67.05 200.75 65.55 200.75 61.2 200.75 60.6 200.6 60.25
L 200.4 60.05
Q 199.65 59.2 198.8 58.35
M 20.65 163
Q 23.1 162.45 23.1 161.7 23.1 159.55 21.25 158.75 20.1 158.3 17.1 157.65 11.1 155.8 11.1 146.4 7.6 145.9 5.5 149.95 3.95 152.95 3.95 155.6 3.95 158.15 6.45 160.4 9.85 163.5 16.3 163.5 18.45 163.5 20.65 163
M 202.45 18.9
Q 200.4 18.85 196.5 18.35
L 196.55 18.9 202.45 18.9
M 188.05 22.4
L 185.75 22.45 187.95 22.45 190.95 22.45 190.65 22.85
Q 193.6 22.6 198.6 22.4 192.4 22.45 188.05 22.4
M 204.85 22.4
L 204.55 22.35
Q 196.1 23.9 186.7 27.7 177.7 31.3 172.5 32.1 172.55 31.85 173.4 30.35 174.25 28.8 174.3 28.5 171.9 29.75 171.9 33.15 171.9 35.75 174.8 37.2 177.85 38.7 183.7 38.7 187.55 38.7 189.05 38.55 191.7 38.25 194.1 37.25
L 203.15 33.4
Q 212 31.95 215.5 31.3 217.8 30.9 219.25 30.35 221.45 29.4 221.45 28 221.45 27.4 221.1 26.75
L 220.75 26.2
Q 220.25 25.65 219.5 25.1 217.95 24.05 215.85 23.75 213.15 23.25 210.05 22.8
L 204.85 22.4
M 228.3 22.05
Q 231 22.05 231.65 21.1 232.25 20.3 232.25 16.9
L 232.1 15.25
Q 230.5 14.65 222.95 13.05 215.65 11.55 214.5 11.5
L 205.75 11.35 205.05 11.5
Q 206.95 14.95 215.05 17.9 219.3 19.45 225 21
L 224.1 21.1
Q 223.45 21.05 222.1 20.55 220.6 20 213.2 19.25 214.3 19.5 219.05 20.8 224.2 22.05 228.3 22.05
M 260.1 97.65
Q 260.1 96.85 260.45 95.7 265 96.35 266.65 95 268.3 93.7 266.5 91.2 262.1 84.95 245.5 79.6 245.5 82.4 248.95 87.2 253.8 94 255.85 98.35 256.9 100.55 257.4 110.15 258.8 118.7 264.85 118.7 266.5 118.7 267 117.55 267.4 116.7 267.4 114.1 267.4 110.05 263.75 104.65 260.1 99.25 260.1 97.65 Z"/>

<path fill="#928164" stroke="none" d="
M 79.45 111.3
L 79.5 111.7
Q 88.5 110.2 91.25 109.9 95.7 109.45 103.45 109.45 106.55 109.45 108.45 107.5 110.05 105.8 111.2 102.1
L 111.9 101.1 104.7 100.4
Q 100.7 100.1 99.1 100.05 96.2 100 93.6 99.75 89.9 99.6 88.05 100.25 86.8 100.75 85.8 101.95 85.3 102.7 84.05 104.4 82.75 106.05 82.3 106.55 81.2 107.65 80.3 109.25 79.7 110.45 79.45 111.3
M 59.1 76.5
Q 55.5 79.15 52.6 83.45 47.1 91.8 43.5 96.35 43.05 96.65 42.15 98.45 41.15 100.3 41.05 101.15
L 42.15 100.65 42.9 100.2
Q 47.85 96.3 53.45 89.95 58.55 84.15 60.3 83 62.4 81.65 67.9 80.7 71.25 80.1 70.7 77.5 63.5 75.95 62.9 75.9 62 75.9 59.1 76.5
M 33 87.85
Q 31.1 90.9 28.35 96.15 25.15 100.6 20.15 103.5 14.75 106.55 12.75 108.95 4.6 117.75 3.7 118.4 16.25 115.95 29.35 102.6 42.3 89.4 41.6 80.25 36.55 82.25 33 87.85
M 65.65 39.45
L 61.75 44.4
Q 57.05 51.75 54.75 57.6 53.45 60.75 51.6 65.85 54.05 66.05 55.05 66.05 61.35 66.05 62.75 64.55 63.3 64 63.55 62.85 64 61.15 64.15 60.7 67.05 53.6 69.9 50.55 71.75 48.55 71.75 47.4 71.75 46 70.5 44.05 68.85 41.35 65.65 39.45
M 152.6 97.85
Q 133.45 97.3 132.2 97.65 131.5 97.9 131.2 99.05 130.85 100.6 129.5 101.95 127.75 105.4 127.75 105.5 126.35 108.8 126.35 111.65 126.35 112.45 126.75 114.25 127.15 116.1 127.65 117.25
L 128.45 116.9
Q 129.15 116.55 132.35 111.2 135 106.75 138.95 106.65 142.95 106.55 147 105.05 151.15 103.45 152.25 101.45
L 152.55 100.15 152.6 97.85
M 110.6 63.8
L 108.6 63.65
Q 104.95 63.55 101 64.1 92.85 66.55 90.9 68.05 89.55 69.1 87.35 72.2
L 85.4 75.9 84.35 78.65 84 80.5 84.15 81.85 84.55 82.5
Q 95.45 74.45 96.7 73.85 100.7 71.9 109.75 71.9 110.8 71.9 112.1 70.65 113.4 69.35 114.05 67.65 114.2 66.85 110.6 63.8
M 146 45.7
L 145 46.9
Q 145 48.45 142.8 49.6 140.6 50.7 137.5 50.7
L 129.35 50.7
Q 126.25 50.7 123.1 50.6 121.35 50.55 117.9 50.4 117.05 50.4 116.5 50.75 115.9 51.1 115.9 51.6 118.05 54.25 125.45 56.85 131.85 59.05 134.35 59.05 137.85 59.05 146.05 54.2 155 48.9 156.95 44.4
L 158.25 42.8 159.05 42.35 157.95 42.7 157.8 42.7
Q 155 43.85 152.55 43.75 149.9 43.6 148.2 44.2 147.4 44.5 146 45.7
M 150.8 20.15
Q 148.75 20.15 147.3 21.55 145.85 22.95 145.85 24.95 146.1 27.55 146.25 31.4 146.65 33.95 148.35 33.95 152.45 33.95 154.5 22.05 154.45 20.15 150.8 20.15
M 161.55 1.05
Q 160.1 0.95 155.7 0.4 152.35 0 149.05 0 133.55 0 104.85 11.55 94.5 15.75 85.7 20.1 77.75 24.1 76.75 25.3 78.65 26.55 81.05 30
L 81.25 30.15
Q 82.2 29.55 84.9 25.65 87.2 22.4 89.45 22.05 92.55 21.55 99.15 19.6 105.15 17.75 105.2 17.75 106.3 17.75 107.15 19.35 107.65 20.35 108.75 22.85
L 109.05 23.3
Q 113.65 6.75 133.05 4.25 135.35 3.95 148.65 3.3 157.55 2.85 161.55 1.05
M 200.2 133
L 199.05 134.6 196.2 138.85
Q 193.3 143.25 193.3 144.15 193.3 146.4 192.8 149.2 192.35 153.95 192.35 156.3 192.35 165.3 192 169.2 192.05 171.2 193.2 173.9 194.5 176.95 196.25 178.35
L 199.3 181.05
Q 199.8 181.4 202.75 184.35
L 203.45 185.2
Q 198.85 172.05 197.95 169.65 197.35 165.75 197.35 163.1
L 197.45 157.2 197.35 147.75
Q 197.35 146.95 197.6 143.75 197.85 140.5 198.05 139.1
L 198.25 138.1 199.35 134.7 200.2 133
M 204.2 119.7
Q 204.5 122.45 204.85 123.45 205.65 124.55 206.5 125.35
L 207.8 125.55
Q 210.3 125.45 211.05 124.5 211.25 124.25 211.4 123.9 211.8 122.8 211.8 120.55 211.8 116 210.8 114 209.5 111.35 205.3 109.4
L 204.65 112.05
Q 204.65 112.1625 204.6 112.25 204.58828125 112.396875 204.55 112.55
L 204.05 114.55 203.9 116.3
Q 203.9 117.25 204.2 119.7
M 166 82.15
L 162.05 78.2 161.85 77.95 160.05 79.05
Q 155.2 81.2 154.8 81.35 154.45 81.45 152.95 81.75 152.55 81.75 152.3 82.3 152 82.8 152 83.55 154.05 84.75 154.1 84.8 156.15 85.6 159.85 85.6 161.75 85.6 162.8 85.05 164 84.45 166 82.15
M 192.15 57.85
Q 190 57 187.2 55.9 182.45 55.9 179.1 58 175.7 60.05 175.7 63 177.4 64.95 180.2 64.95 192.85 64.95 192.85 58.85 192.85 58.15 192.15 57.85
M 204.55 22.35
L 205.25 22.25 198.6 22.4
Q 193.6 22.6 190.65 22.85 187.5 23.3 183.15 24.3 177.2 25.65 175.6 26.75
L 174.65 27.85 174.3 28.5
Q 174.25 28.8 173.4 30.35 172.55 31.85 172.5 32.1 177.7 31.3 186.7 27.7 196.1 23.9 204.55 22.35
M 224.1 21.1
L 225 21
Q 219.3 19.45 215.05 17.9 206.95 14.95 205.05 11.5
L 204.95 11.3 201.5 11.2
Q 199.25 12.6 198.8 12.95 198.4 13.25 196.75 15.15 196.65 15.35 195.55 18.2
L 196.5 18.35
Q 200.4 18.85 202.45 18.9 206.5 19.1 213.2 19.25 220.6 20 222.1 20.55 223.45 21.05 224.1 21.1 Z"/>
</g>
</defs>

<g transform="matrix( 1, 0, 0, 1, 0,0) ">
<use xlink:href="#Layer0_0_FILL"/>
</g>
</svg>
