
<svg xmlns="http://www.w3.org/2000/svg" version="1.1" xmlns:xlink="http://www.w3.org/1999/xlink" preserveAspectRatio="none" x="0px" y="0px" width="125px" height="129px" viewBox="0 0 125 129">
<defs>
<g id="Layer0_0_FILL">
<path fill="#76664D" stroke="none" d="
M 84.95 124.4
L 85.5 124.3 85.4 124.3 84.95 124.4
M 107.1 104.75
Q 106.892578125 105.0037109375 106.7 105.25 108.4 103.65 108.65 103.4
L 107.1 104.75
M 33.9 115.9
Q 36.25 118.25 39 120.45
L 34.1 116.05 33.9 115.9
M 63.7 128.85
L 64.6 128.9 64.1 128.85 63.7 128.85
M 70.4 129
L 70.05 129.05 71.05 128.95 70.4 129
M 80.7 125.4
L 79.15 126.05 81 125.35 80.7 125.4
M 73.75 99.75
Q 71.8 100.65 71.25 101.9 71.25 104.8 68.6 106.9 65.9 108.95 62.1 108.95 60.8 108.95 59.75 109.15
L 59.65 110.25
Q 59.65 113.7 64.7 114.5 65.7 114.65 70.95 114.65 71.9 114.65 75.1 111.05 78.95 106.7 78.95 102.7 78.95 101.25 78.15 100.15 77.35 99.05 76.4 99.05 75.35 99.05 73.75 99.75
M 44.8 58.6
L 44.75 58.7
Q 45.7 63 46.7 64.2
L 46.7 64.05 44.8 58.6
M 38.1 68.1
Q 36.15 72.4 36.15 78.5 40.15 81.2 41.8 81.2 44.65 81.2 45.85 79.95 46.8 78.4 47.3 77.65 44.3 77.3 43.55 72.45 43.15 66.35 42.75 63.75 40 63.75 38.1 68.1
M 16.95 80.4
Q 17.5 81.75 17.95 83.8 18.2 84.85 18.35 85.8 18.25 84.8 18.25 84.6 17.9 82.35 16.95 80.4
M 39.5 59.6
L 40.2 59.6
Q 39.9578125 59.503125 41.35 59.3 40.5357421875 59.3947265625 39.4 59.3 38.15 59.25 37.75 59.3 38.25 59.45 39.5 59.6
M 70.7 46.7
Q 70.65 46.65 62.75 43.8 56.45 43.8 52.05 49.7 47.6 55.55 47.6 63.9
L 48 65.05
Q 50.35 66.1 51.5 66.55 53.55 67.35 55.35 67.35 61.05 67.35 67.5 60.95 73.75 54.75 73.75 49.7 73.75 48.05 70.7 46.7
M 78 17.15
L 78.6 18.1 81.45 21.6 78 17.15
M 69.55 5.45
Q 69.75 4.6 69.9 4.3 68.9 3.9 67.45 3.5 65.45 2.95 62.05 2.1 65.45 4.05 60.5 4.3 59.25 4.35 54.95 4.35 54.3 4.35 53.65 4.4 54.65 4.1 55.75 3.8
L 62.05 2.1
Q 59.75 1.3 57.35 0.7 47.25 2.05 41.05 5.75 35.5 9 29.05 16.65 27.9 15.05 27.9 13.8 27.9 12.85 28.35 11.25 28.75 9.6 29.25 8.7 28.65 8.15 27.85 7.95 26.75 7.65 24.6 7.65 21 7.65 18.85 11.95 16.3 17 13.2 18.3 11.45 19 8.15 24.3 5.5 28.55 2.55 27.5
L 1.4 30.3 2.85 30.4
Q 3.85 29.9 5.15 29.4 6.25 29 6.45 29 7.15 29 10.15 30.6 13.4 32.4 14.1 32.8 13.55 34.2 11.05 34.75 9.65 35.1 6.55 35.8 1 37.8 3.35 46.9 2.85 45.9 1.6 44.5 0.45 42.75 0.1 38.7 -0.6 43.7 3.8 51.65 9.8 62.35 10.65 65
L 10.35 63.75 10.85 63.9
Q 12.05 63.5 12.95 63.5 14.7 63.5 15.1 63.65 16.35 64.1 18.4 64.55 19.4 64.55 20.5 64.55 22.65 64.6 22.95 64.7 23.6 64.55 24.4 64.65 25.9 64.8 27.3 65.95
L 27.4 66.1
Q 27.75 66.5 27.85 66.65 27.95 66.8 27.95 67.45 27.95 69.1 24.95 69.1 23.95 69.1 17.45 68.35 16.7 68.35 14.95 68.6 14.95 68.8 14.8 69.6 14.65 70.35 14.65 70.9 14.65 73.75 16.8 75.1 18.15 76 21.45 76.6 25 77.3 26.15 77.9 28.25 79 28.25 81.4 28.25 82.45 27.55 83.75 26.35 85.9 25.15 89.8
L 22 85.15
Q 21.55 85.9 20.75 87.8 19.6 90.4 19.65 91.35
L 18.75 91.3 19.05 94.55
Q 24.4 102.15 27 105.5 31.55 111.35 36.75 111.35 39.05 111.35 39.65 110.75 40.15 110.25 40.15 108.25 40.15 107.55 39.85 106.65 39.65 105.8 39.4 105.45
L 39 105.05
Q 40.45 105.85 41.9 107.95 43.45 110.25 43.45 112.2 43.45 112.85 42.45 114.85 41.4 116.85 41.4 118.3 41.4 120.55 42.7 122.9 46.15 125.15 51.45 126.75 55.95 128.1 59.6 128.4
L 58.9 128.3
Q 60.85 127.9 61.45 126.65 61.7 126.15 61.7 125.05 61.7 122.8 54.85 120.3 47.95 117.8 47.95 114.55 47.95 112.8 49.05 111.45 50.15 110.1 50.15 109.3 50.15 107.85 49.45 107.05 49 106.55 47.6 105.45 44.25 102.55 41.75 95.3
L 42 97.3
Q 42 99.15 40.95 100.2 39.95 101.15 40.05 103.7 39.95 103.7 39.55 104.2 37.8 102.6 34.25 99.9 31.55 97.6 31.55 95.75 31.55 92.75 33.75 90.8 36.35 88.45 40 90.2 40 88.7 40.1 88.7
L 36.75 88.35
Q 34.35 88.35 32.8 90.3 31.05 92.5 31.05 96.55 31.05 97.85 31.85 99.1 31.25 98.5 31 98.2 29.25 95.8 29.25 90.4 29.25 88.25 31.35 84.3 33.4 80.35 33.4 79.05 33.4 79 32.45 78.2 31.5 77.1 31.35 75.35 30.95 73.85 31.2 72.25
L 31.05 71.15
Q 29.4 65.85 25.6 63.75 23.6 62.6 18.05 61.5 12.75 60.5 9.95 58.7 5.65 55.85 3.1 49.45
L 2.35 47.9
Q 3.85 49.95 4.4 50.55 5.25 51.55 8.55 51.55 10 51.55 11.9 50.9 14.2 50.1 14.75 48.9 15.6 46.6 15.95 44.6
L 15.95 34.3 15.95 32.15 14.4 32.45
Q 14 32 13.8 31.35 14.95 31 16.1 30.3 17.55 26.85 19.85 16.65
L 19.95 15.35
Q 20.2 21.75 19.45 26.2 19.75 25.4 19.9 24.8
L 19.75 25.45
Q 19.55 26.5 19.2 27.35 18.95 28.25 17.55 30.7 17.55 30.75 17.55 30.8 17.55 31.8 17.85 33.4 18.5 36.35 18.5 38.65 20.15 42.05 19.15 47.9 18.2 53.45 20 56.35 20.7 57.45 25.9 60.4 30.75 63.15 31.6 65.75 31.75 61.35 32 60.8 32.6 59.2 35.65 59.1 33.5 58.05 30.9 55.6 26.9 51.9 27.85 49.2
L 28.2 48
Q 29 52.9 31.25 54.65 32.7 55.8 35.45 55.8 37.6 55.8 40.05 51.75 42.5 47.75 42.5 44.25 42.5 41.7 39.9 36.75 37.25 31.8 37.25 28.15 37.25 27.15 38.75 20.45 38.75 21.2 38.5 24.35 38.5 29.15 42.1 33.05 45.7 36.95 45.7 41.2 45.7 44.3 44.7 46.7 43.7 49.1 43.7 51.25 43.7 53.45 44.6 57.9 44.6 58 44.65 58.1 44.55 57 44.55 56.25 44.55 50.7 45.55 46.6 47.05 40.55 50.3 41.15 51.3 40.35 53.45 40.35 54.9 40.35 55.75 40.55 54.75 36.9 51.2 29.45 47.35 21.3 43.65 15.65
L 42.8 16.4
Q 42.65 15.2 42.65 14.2 42.65 13.5 43.1 12.05 43.5 10.55 43.85 10.3 45.1 9.75 47.05 8.5 48.85 7.25 50.05 6.8 51.55 6.25 52.9 6.5 55.1 6.35 59.85 6.6 64.35 6.9 64.85 6.9 67.65 6.45 69.55 5.45
M 47.5 7.4
L 46.55 8.05
Q 47.1 7.5 47.95 6.95 47.7 7.15 47.5 7.4
M 26.55 24.1
Q 27.85 23.7 29.4 23.25 31.6 22.55 34.2 21.65 34.4 21.5 34.5 21.35 34.75 21 34.75 20.75
L 35.9 21.1 36.9 20.75 36.45 21.2 38.15 21.7
Q 37.7 26.45 34.75 28.8 33.4 29.9 29.05 31.55 25.55 32.9 24.45 34.75 22.95 37.45 24.5 43.05
L 24.6 44.45
Q 22 39.25 21.85 37.95
L 21.25 39.4
Q 20.8 38.95 20.8 37.8 20.8 36.25 21.5 32.75 21.7 30.8 23 28.65 24.4 26.65 24.75 26.05 25.4 24.55 26.55 24.1
M 121.75 94.75
Q 119.65 96.2 116.05 98.35 113.95 99.6 113.1 100.1 118.55 97.25 121.75 94.75
M 87.85 71.45
Q 85.5 71.45 83.85 72.6 82.15 73.7 82.15 75.3 80.8 77.7 76.45 82.9 75.15 84.45 74.5 86 73.75 87.6 73.75 89.25
L 73.9 92.35
Q 74.6 94.55 74.9 95
L 76.35 96.45 77.25 96.9
Q 77.35 96.15 76.75 94.2 76.6 92.45 76.6 91.45 76.6 87.3 84.15 80.2 92 72.8 96.75 73.8
L 96.55 72.3 96.45 71.65 90.6 71.65 89.55 71.65
Q 88.4 71.6 87.85 71.45
M 105.15 64.8
Q 104.95 64.3 104.7 63.5 104.4 62.4 104.3 61.6 104.25 62 104.5 63 104.75 64 105.15 64.8
M 69.7 64.55
Q 64.5 68.7 64.5 69.8 64.5 70.8 64.7 72.85 68.25 72.1 72.4 67.05 76.45 61.4 77.6 59.9 75.15 60.2 69.7 64.55
M 85.85 51.5
Q 81.65 54.05 81.65 58.95 81.65 60 82.15 60.9 82.25 61.1 82.95 61.95 85.55 57.35 89.6 54.55 94.9 51 101.35 51.6
L 98.05 50.55
Q 94.6 49.45 93.95 49.45 89.2 49.45 85.85 51.5
M 95 39.8
Q 94.15 38.95 92.75 37.4 91.35 35.8 91.15 35.45 91.65 36.45 92.35 37.3
L 95 39.8 Z"/>

<path fill="#5E513E" stroke="none" d="
M 83.6 117.1
Q 83.5 117.4 83.4 117.7 81.5 124.35 80.7 125.4
L 81 125.35 84.6 124.45
Q 84.85 123.75 84.2 120.7 83.7 118.3 83.6 117.1
M 89.45 118.3
Q 89.6 117.95 90 117.85 90.05 120.15 88.1 122.05 87.1 123.05 85.4 124.3
L 85.5 124.3
Q 89.15 124.3 92.3 123.3 91.8 123.3 91.65 123.25 91.55 123.2 91.3 123.05
L 90.95 122.75
Q 92.45 122 93.3 121.85
L 93.4 121.4 93.4 112.4 93.35 111.85
Q 91.9 113.85 90.2 116.2 88.85 117.65 86.15 117.85 86.9 118.6 88.2 118.6 89.3 118.6 89.45 118.3
M 73.35 128.55
L 73.35 128.45 73.05 128.6 73.35 128.55
M 41.15 114.4
Q 41.65 111.5 41.65 111.4
L 41.55 108.3
Q 40.2 112.65 38.05 114.45 36.65 115.6 33.45 115.45
L 33.9 115.9 34.1 116.05
Q 34.7 116.3 36.2 116.8 37.75 117.3 38.05 117.3 40.2 117.3 41.15 114.4
M 68.95 118.05
Q 73.65 119.3 74.75 121.85 73.6 117.65 67.7 116.45 64.6 115.85 60.4 115.5 61.7 116.15 68.95 118.05
M 39.75 82.7
Q 38.2 82 37.35 81.1
L 35.45 79.7
Q 35.05 79.4 33.85 78.3 36.75 81.3 38.9 84 41.2 86.95 42 87.9 44 90.25 51.1 93.1 50.8 92.3 48.7 90.15 46.9 88.35 46.9 87 46.9 85.7 48.55 83.95 50.2 82.2 50.2 79.65 50.2 78.55 49.6 77.35
L 48.95 75.95
Q 48.4 78.55 48.35 78.7 48.2 78.9 47.3 79.9
L 48.95 79.35
Q 48.1 82.2 48.05 82.25 47 83.4 42.6 83.4 41.3 83.4 39.75 82.7
M 15.95 44.6
Q 15.6 46.6 14.75 48.9 15.35 47.95 15.6 47.25 15.9 46.25 15.95 44.6
M 17.8 28.35
Q 16.3 30.15 16.1 30.3 14.95 31 13.8 31.35 14 32 14.4 32.45
L 15.95 32.15 15.95 34.3 17.2 32.15
Q 17.2 32.5 17.2 32.85 17.3 37.9 18.05 45.25 18.05 47.25 16.85 49.55 15.15 52.9 11.95 52.9 10.3 52.9 7.85 52.3 6.65 51.95 5.55 51.65 7.7 53.85 9.75 54.55 11.05 55 13.3 55 15.2 55 16.9 52.35 19.05 48.95 19.05 42.85 19.05 42.15 18.85 40.55 18.6 39 18.5 38.65 18.5 36.35 17.85 33.4 17.55 31.8 17.55 30.8 17.55 30.75 17.55 30.7 18.95 28.25 19.2 27.35 19.55 26.5 19.75 25.45
L 19.9 24.8
Q 19.75 25.4 19.45 26.2 19.25 26.5 17.8 28.35
M 79.4 41.8
Q 78.4 41.85 75.45 42.35 80.75 42.95 82.95 42.55 80.9 41.65 79.4 41.8
M 57.5 33.95
L 57.2 33.2
Q 56.5 40.65 62.65 43.1
L 66.2 44.5 64.95 44.15
Q 66.45 44.75 67.9 45.15 70.65 46 72.9 46.1 70 44.9 65.3 43.3 62.05 41.95 61.95 39.9 68.75 42.95 68.9 42.95 69.15 42.95 72.75 42.6 66.9 42.85 62.9 39.7 60.35 37.65 57.5 33.95
M 100.05 73.1
L 99.75 72.7
Q 99.9 74.35 100.55 75.3 100.4 73.85 100.05 73.1
M 83.85 72.6
Q 85.5 71.45 87.85 71.45
L 90.6 71.65 96.45 71.65 96.55 72.3
Q 97.1 72.3 97.5 72.05 97.85 71.8 97.85 71.45 96.55 70.9 89.85 68.75 83.25 66.6 81.85 66 81.3 66.45 77.2 72.15 72.6 77.65 68.75 77.65 65.8 77.65 63.8 75.15 62.65 73.75 60.7 70.4 59.8 69.15 54.45 68.3 49.3 67.5 48 65.05
L 47.6 63.9
Q 47.15 64.35 47.25 64.6 47.25 64.75 47.2 64.85
L 46.7 64.05 46.7 64.2
Q 47 69.3 52.75 72.5 55.75 74.15 56.8 75.2 58.75 77.05 59.1 79.9 59.25 81.2 59.1 84.6 58.95 87.7 59.25 89.15 60.2 93.85 66.95 92.65 67.25 95.2 67.25 97.65 67.25 100.2 66.6 101.55 65.6 103.55 63.05 103.55 60.85 103.55 58.9 102.1 57.6 101.15 53.6 97.7
L 53 97.15
Q 54.4 99.3 56.1 103.65 57.7 107.7 57.7 108.7 57.7 112.65 57.2 115.25 56.65 117.85 56.65 117.95 56.65 119.35 58.15 119.9 58.55 120.05 61.5 120.6 66.3 121.55 66.3 125.65 66.3 126.3 65.65 127.3 64.95 128.3 64.1 128.85
L 64.6 128.9 65.4 129
Q 68.05 129.1 70.05 129.05
L 70.4 129
Q 71.3 127.8 71.6 127.1 72.05 126.05 72.05 123.65 72.05 120.9 70.55 119.95 69.6 119.35 67.1 119.25 64.35 119.15 63.2 118.75 61.2 117.95 60.4 115.5 59.2 114.5 59 113.65 58.8 112.95 58.8 110 58.8 107.1 60.8 106.85 63.45 107.1 64.7 107.1 66.7 106.05 67 105.75 67.75 104.95 68.85 103.65 69 97.5 75.1 97.5 80.9 97.5 83.7 100.7 85.6 102.85 85.6 105.35 85.6 108.8248046875 84.35 114.1 85.352734375 112.6404296875 85.65 111.6
L 85.6 115.35
Q 88.55 110.45 89.4 104.65 89.7 102.8 90.1 102.25 90.75 101.5 92.5 101.5 99.85 101.5 99.85 113.65 99.85 117.85 98 120.35 98.45 120 98.9 119.65 104.45 114.95 104.45 108.3 105 107.3 106.25 105.8 106.45 105.5 106.7 105.25 106.892578125 105.0037109375 107.1 104.75 107.45 102.35 108.7 100.8 109.8 99.4 109.8 97.9 109.8 95.75 107.2 90.7 104.45 85.4 104.4 84.85
L 104 85.6 103.85 86.5
Q 105.7 92.05 99.5 95.65 96.4 97.45 92.85 98.15 91.25 98.15 85 96.9
L 87.2 97.05
Q 87.1 97.05 84.95 96.2 82.25 95.4 79.5 95.4
L 78.6 95.3 76.75 94.2
Q 77.35 96.15 77.25 96.9
L 76.35 96.45 74.9 95
Q 74.6 94.55 73.9 92.35
L 73.75 89.25
Q 73.75 87.6 74.5 86 75.1 82.85 76.35 80.3 78.75 75.3 82.15 75.3 82.15 73.7 83.85 72.6
M 80.1 72.25
L 80.4 73.8
Q 79.55 74.35 75.9 78.95 73.1 82.45 70.15 82.45 60.85 82.45 59.1 72.8
L 59.35 71.95
Q 60.65 75 63.4 76.8 65.9 78.5 68.5 78.5 70.5 78.5 74.6 75.85 78.85 72.9 80.1 72.25
M 101.7 63.75
Q 104.4 61.4 104.4 58.1 103.1 59.9 100.75 63.45 98.7 65.85 95.75 66.1 99.2 65.9 101.7 63.75
M 107.25 66.75
L 106.85 66.4
Q 106.15 67.55 103.6 69.85 101.7 71.55 101.7 73.05 101.7 74.1 104.75 77.6 108.15 81.5 108.45 82.15 108.5 80 107.35 79.1 105.95 78 105.65 76 108.45 72.85 111.8 77.65 114.95 82.15 114.95 87.05 114.95 88.05 113.45 87.65 111.95 87.7 110.45 86.5 109.3 85.55 108.65 84.25
L 108.6 85.9
Q 108.6 87.05 109.15 88.1 110.2 90.15 112.85 90.15 115.95 90.15 116.55 90.45 115.4 92.05 115.4 92.35 115.4 94.85 118.85 94.85 119.65 94.85 121.35 93.5 123.35 91.9 124.15 91.65
L 124.3 92.5
Q 124.8 91.75 124.95 91.55 125.2 91 125.2 90.35 125.2 89.9 124.7 88.7 124 86.9 122.85 85.8
L 122.25 85.2
Q 121.6 84.4 120.55 83.35 119.15 81.75 115.85 77.25
L 113.1 73.4
Q 108.4 67.7 107.25 66.75
M 89.7 32.55
Q 89.7 33.3 89.45 34.3 89.2 35.3 88.9 35.75
L 88.6 35.9
Q 86.6 32.85 82.5 29.75 80.85 28.45 79.65 27.65 79.6 27.7 79.6 27.75 79.4 28.45 79.45 28.65 78.8 28 72.65 21.2 69.25 17.45 64.1 13.4 65.6 13.45 66.85 13.7 68.05 13.95 68.35 13.95 69.35 13.95 69.6 13.2 70.15 11.6 71.75 9.9 73.25 11.2 73 12.15 72.85 12.7 72.35 13.95 72.35 15.7 74.6 16.95 76.55 18 78.6 18.1
L 78 17.15
Q 75.7 13.8 74.45 9.75 73.4 6.55 72.05 5.35 71.95 5.25 71.8 5.15 71.1 4.6 70.05 4.05 70 4.05 69.9 4.3 69.75 4.6 69.55 5.45 68.7 6.45 67.3 7.05 66.05 7.6 64.9 7.6 53.75 6.65 52.9 6.5 51.55 6.25 50.05 6.8 48.85 7.25 47.05 8.5 46.85 8.7 45.6 9.55 44.2 10.55 43.1 12.05 42.65 13.5 42.65 14.2 42.65 15.2 42.8 16.4
L 43.65 15.65
Q 44.65 14.45 45.9 13.4 48 11.75 49.75 11.75 53.6 11.75 56.05 13.4 57.9 14.7 58.75 16.75 59.4 18.4 65.45 20.35 71.8 22.45 72.7 23.6
L 72.85 24.05
Q 73 24.6 73 25.05 71.85 25.05 68.35 24.7 66.45 24.7 64.3 26.8
L 63.15 28.05
Q 63.7 27.7 65.7 26.95 67.55 26.3 67.75 26.3 76 26.3 79.65 29.8 81.85 33.25 82.8 33.25 84 33.25 85.3 34.95 86.65 36.7 86.85 38.9
L 86.85 38
Q 87.25 38.35 87.65 38.85 88.4 39.85 88.4 40.45 88.4 42.7 87.35 44.5 85.85 47.15 82.65 47.15 81.5 47.15 78.65 46.95 75.2 46.7 73.85 46.4 74.5 47.35 74.6 47.5 75 48.2 75 48.95 75 49.9 73.5 52.75 71.3 57 70.85 58.05 72.6 58 76.05 55.1 79.95 51.75 83.95 50.75 88.5 49.95 91 49.05 95.5 47.35 96.65 43.85
L 96.65 42.9 96.6 42.95 95.85 43.45 95.1 43.75
Q 94.25 44.05 93.6 44.05 92.15 44.05 91.45 43.35 90.85 42.8 90.85 41.95 91.4 38.55 92.35 37.3 91.65 36.45 91.15 35.45 90.55 33.95 89.7 32.55 Z"/>

<path fill="#4C4336" stroke="none" d="
M 84.35 114.1
L 84.35 114.15 84.35 114.2
Q 83.5 115.4 83.5 116.25 83.5 116.55 83.6 117.1 83.7 118.3 84.2 120.7 84.85 123.75 84.6 124.45
L 84.95 124.4 85.4 124.3
Q 87.1 123.05 88.1 122.05 90.05 120.15 90 117.85 89.6 117.95 89.45 118.3 89.3 118.6 88.2 118.6 86.9 118.6 86.15 117.85 85.85 117.3 85.6 115.35
L 85.65 111.6
Q 85.352734375 112.6404296875 84.35 114.1
M 63.2 118.75
Q 64.35 119.15 67.1 119.25 69.6 119.35 70.55 119.95 72.05 120.9 72.05 123.65 72.05 126.05 71.6 127.1 71.3 127.8 70.4 129
L 71.05 128.95 71.75 128.9 73.05 128.6 73.35 128.45
Q 75 126.8 75.05 126.7 75.35 125.8 74.75 121.85 73.65 119.3 68.95 118.05 61.7 116.15 60.4 115.5 61.2 117.95 63.2 118.75
M 40.1 81.6
Q 37.9 81.1 37.35 81.1 38.2 82 39.75 82.7 41.3 83.4 42.6 83.4 47 83.4 48.05 82.25 48.1 82.2 48.95 79.35
L 47.3 79.9
Q 47.05 80.35 45.75 81.2 44.2 82.15 43 82.15 42.3 82.15 40.1 81.6
M 80.4 73.8
L 80.1 72.25
Q 78.85 72.9 74.6 75.85 70.5 78.5 68.5 78.5 65.9 78.5 63.4 76.8 60.65 75 59.35 71.95
L 59.1 72.8
Q 60.85 82.45 70.15 82.45 73.1 82.45 75.9 78.95 79.55 74.35 80.4 73.8
M 104.5 57.7
L 104.4 58.1
Q 104.4 61.4 101.7 63.75 99.2 65.9 95.75 66.1
L 95.1 66.1
Q 91.4 66.1 85.55 65.6 82.65 65.35 81.85 66 83.25 66.6 89.85 68.75 96.55 70.9 97.85 71.45
L 99.75 72.7 100.05 73.1
Q 100.4 73.85 100.55 75.3 100.55 84.3 96.65 90.7 92.75 97.05 87.2 97.05
L 85 96.9
Q 91.25 98.15 92.85 98.15 96.4 97.45 99.5 95.65 105.7 92.05 103.85 86.5
L 104 85.6 104.4 84.85
Q 104.45 85.4 107.2 90.7 109.8 95.75 109.8 97.9 109.8 99.4 108.7 100.8 107.45 102.35 107.1 104.75
L 108.65 103.4 112.55 100.35
Q 112.8 100.2 113.1 100.1 113.95 99.6 116.05 98.35 119.65 96.2 121.75 94.75 123.75 93.3 124.3 92.5
L 124.15 91.65
Q 123.35 91.9 121.35 93.5 119.65 94.85 118.85 94.85 115.4 94.85 115.4 92.35 115.4 92.05 116.55 90.45 115.95 90.15 112.85 90.15 110.2 90.15 109.15 88.1 108.6 87.05 108.6 85.9
L 108.65 84.25 108.45 82.15
Q 108.15 81.5 104.75 77.6 101.7 74.1 101.7 73.05 101.7 71.55 103.6 69.85 106.15 67.55 106.85 66.4
L 105.3 65.05
Q 105.25 65 105.2 64.9
L 105.15 64.8
Q 104.75 64 104.5 63 104.25 62 104.3 61.6
L 104.5 57.7
M 86.85 38
L 86.85 38.9
Q 86.65 40.05 86.05 40.65 85.35 41.3 82.95 42.55 80.75 42.95 75.45 42.35
L 75.25 42.35
Q 73.85 42.5 72.75 42.6 69.15 42.95 68.9 42.95 68.75 42.95 61.95 39.9 62.05 41.95 65.3 43.3 70 44.9 72.9 46.1
L 73.85 46.4
Q 75.2 46.7 78.65 46.95 81.5 47.15 82.65 47.15 85.85 47.15 87.35 44.5 88.4 42.7 88.4 40.45 88.4 39.85 87.65 38.85 87.25 38.35 86.85 38 Z"/>

<path fill="#6C5D45" stroke="none" d="
M 90.1 102.25
Q 89.7 102.8 89.4 104.65 88.55 110.45 85.6 115.35 85.85 117.3 86.15 117.85 88.85 117.65 90.2 116.2 91.9 113.85 93.35 111.85
L 93.4 112.4 93.4 121.4 93.3 121.85
Q 92.45 122 90.95 122.75
L 91.3 123.05
Q 91.55 123.2 91.65 123.25 91.8 123.3 92.3 123.3 92.4 123.3 92.5 123.3 95.05 123.3 97.15 121.3 97.6 120.85 98 120.35 99.85 117.85 99.85 113.65 99.85 101.5 92.5 101.5 90.75 101.5 90.1 102.25
M 42.7 122.95
L 42.7 122.9
Q 41.4 120.55 41.4 118.3 41.4 116.85 42.45 114.85 43.45 112.85 43.45 112.2 43.45 110.25 41.9 107.95 40.45 105.85 39 105.05
L 39.4 105.45
Q 39.65 105.8 39.85 106.65 40.15 107.55 40.15 108.25 40.15 110.25 39.65 110.75 39.05 111.35 36.75 111.35 31.55 111.35 27 105.5 24.4 102.15 19.05 94.55 19.3 95.35 19.9 99.15 21.4 103.45 26.75 108
L 33.45 115.45
Q 36.65 115.6 38.05 114.45 40.2 112.65 41.55 108.3
L 41.65 111.4
Q 41.65 111.5 41.15 114.4 40.2 117.3 38.05 117.3 37.75 117.3 36.2 116.8 34.7 116.3 34.1 116.05
L 39 120.45 42.7 122.95
M 71.25 101.9
Q 71.8 100.65 73.75 99.75 75.35 99.05 76.4 99.05 77.35 99.05 78.15 100.15 78.95 101.25 78.95 102.7 78.95 106.7 75.1 111.05 71.9 114.65 70.95 114.65 65.7 114.65 64.7 114.5 59.65 113.7 59.65 110.25
L 59.75 109.15
Q 60.8 108.95 62.1 108.95 61.35 108.35 61 107.75 63.3 107.6 64.7 107.1 63.45 107.1 60.8 106.85 58.8 107.1 58.8 110 58.8 112.95 59 113.65 59.2 114.5 60.4 115.5 64.6 115.85 67.7 116.45 73.6 117.65 74.75 121.85 75.35 125.8 75.05 126.7 75 126.8 73.35 128.45
L 73.35 128.55
Q 73.95 128.5 75.75 127.65 78 126.6 79.15 126.05
L 80.7 125.4
Q 81.5 124.35 83.4 117.7 83.5 117.4 83.6 117.1 83.5 116.55 83.5 116.25 83.5 115.4 84.35 114.2
L 84.35 114.15 84.35 114.1
Q 85.6 108.8248046875 85.6 105.35 85.6 102.85 83.7 100.7 80.9 97.5 75.1 97.5 69 97.5 68.85 103.65 69.65 102.9 70.45 102.35 71.15 101.85 71.25 101.9
M 76.35 80.3
Q 75.1 82.85 74.5 86 75.15 84.45 76.45 82.9 80.8 77.7 82.15 75.3 78.75 75.3 76.35 80.3
M 17.2 32.15
L 15.95 34.3 15.95 44.6
Q 15.9 46.25 15.6 47.25 15.35 47.95 14.75 48.9 14.2 50.1 11.9 50.9 10 51.55 8.55 51.55 5.25 51.55 4.4 50.55 3.85 49.95 2.35 47.9
L 3.1 49.45
Q 5.65 55.85 9.95 58.7 12.75 60.5 18.05 61.5 23.6 62.6 25.6 63.75 29.4 65.85 31.05 71.15 31.4 68.75 31.6 65.75 30.75 63.15 25.9 60.4 20.7 57.45 20 56.35 18.2 53.45 19.15 47.9 20.15 42.05 18.5 38.65 18.6 39 18.85 40.55 19.05 42.15 19.05 42.85 19.05 48.95 16.9 52.35 15.2 55 13.3 55 11.05 55 9.75 54.55 7.7 53.85 5.55 51.65 6.65 51.95 7.85 52.3 10.3 52.9 11.95 52.9 15.15 52.9 16.85 49.55 18.05 47.25 18.05 45.25 17.3 37.9 17.2 32.85 17.2 32.5 17.2 32.15
M 19.95 15.35
L 19.85 16.65
Q 17.55 26.85 16.1 30.3 16.3 30.15 17.8 28.35 19.25 26.5 19.45 26.2 20.2 21.75 19.95 15.35
M 44.7 46.7
Q 45.7 44.3 45.7 41.2 45.7 36.95 42.1 33.05 38.5 29.15 38.5 24.35 38.75 21.2 38.75 20.45 37.25 27.15 37.25 28.15 37.25 31.8 39.9 36.75 42.5 41.7 42.5 44.25 42.5 47.75 40.05 51.75 37.6 55.8 35.45 55.8 32.7 55.8 31.25 54.65 29 52.9 28.2 48
L 27.85 49.2
Q 26.9 51.9 30.9 55.6 33.5 58.05 35.65 59.1
L 37.75 59.3
Q 38.15 59.25 39.4 59.3 40.5357421875 59.3947265625 41.35 59.3 39.9578125 59.503125 40.2 59.6 41.25 59.6 42 60.85 42.75 62.05 42.75 63.75 43.15 66.35 43.55 72.45 44.3 77.3 47.3 77.65 46.8 78.4 45.85 79.95 44.65 81.2 41.8 81.2 40.15 81.2 36.15 78.5 36.3 80 36.3 80.15
L 35.45 79.7 37.35 81.1
Q 37.9 81.1 40.1 81.6 42.3 82.15 43 82.15 44.2 82.15 45.75 81.2 47.05 80.35 47.3 79.9 48.2 78.9 48.35 78.7 48.4 78.55 48.95 75.95
L 49.6 77.35
Q 50.2 78.55 50.2 79.65 50.2 82.2 48.55 83.95 46.9 85.7 46.9 87 46.9 88.35 48.7 90.15 50.8 92.3 51.1 93.1 44 90.25 42 87.9 41.2 86.95 38.9 84 36.75 81.3 33.85 78.3 33.8 78.25 33.75 78.2 32.4 76.9 32.3 76.7 31.85 76.15 31.35 75.35 31.5 77.1 32.45 78.2 33.4 79 33.4 79.05 33.4 80.35 31.35 84.3 29.25 88.25 29.25 90.4 29.25 95.8 31 98.2 31.25 98.5 31.85 99.1 31.05 97.85 31.05 96.55 31.05 92.5 32.8 90.3 34.35 88.35 36.75 88.35
L 40.1 88.7
Q 40 88.7 40 90.2 40.55 91 41.1 93.05
L 41.75 95.3
Q 44.25 102.55 47.6 105.45 49 106.55 49.45 107.05 50.15 107.85 50.15 109.3 50.15 110.1 49.05 111.45 47.95 112.8 47.95 114.55 47.95 117.8 54.85 120.3 61.7 122.8 61.7 125.05 61.7 126.15 61.45 126.65 60.85 127.9 58.9 128.3
L 59.6 128.4 63.7 128.85 64.1 128.85
Q 64.95 128.3 65.65 127.3 66.3 126.3 66.3 125.65 66.3 121.55 61.5 120.6 58.55 120.05 58.15 119.9 56.65 119.35 56.65 117.95 56.65 117.85 57.2 115.25 57.7 112.65 57.7 108.7 57.7 107.7 56.1 103.65 54.4 99.3 53 97.15
L 53.6 97.7
Q 57.6 101.15 58.9 102.1 60.85 103.55 63.05 103.55 65.6 103.55 66.6 101.55 67.25 100.2 67.25 97.65 67.25 95.2 66.95 92.65 60.2 93.85 59.25 89.15 58.95 87.7 59.1 84.6 59.25 81.2 59.1 79.9 58.75 77.05 56.8 75.2 55.75 74.15 52.75 72.5 47 69.3 46.7 64.2 45.7 63 44.75 58.7
L 44.7 58.8
Q 44.65 58.45 44.65 58.1 44.6 58 44.6 57.9 43.7 53.45 43.7 51.25 43.7 49.1 44.7 46.7
M 43.85 10.3
Q 43.5 10.55 43.1 12.05 44.2 10.55 45.6 9.55 46.85 8.7 47.05 8.5 45.1 9.75 43.85 10.3
M 67.3 7.05
Q 68.7 6.45 69.55 5.45 67.65 6.45 64.85 6.9 64.35 6.9 59.85 6.6 55.1 6.35 52.9 6.5 53.75 6.65 64.9 7.6 66.05 7.6 67.3 7.05
M 107.35 79.1
Q 108.5 80 108.45 82.15
L 108.65 84.25
Q 109.3 85.55 110.45 86.5 111.95 87.7 113.45 87.65 114.95 88.05 114.95 87.05 114.95 82.15 111.8 77.65 108.45 72.85 105.65 76 105.95 78 107.35 79.1
M 99.75 72.7
L 97.85 71.45
Q 97.85 71.8 97.5 72.05 97.1 72.3 96.55 72.3
L 96.75 73.8
Q 92 72.8 84.15 80.2 76.6 87.3 76.6 91.45 76.6 92.45 76.75 94.2
L 78.6 95.3 79.5 95.4
Q 82.25 95.4 84.95 96.2 87.1 97.05 87.2 97.05 92.75 97.05 96.65 90.7 100.55 84.3 100.55 75.3 99.9 74.35 99.75 72.7
M 87.85 71.45
Q 88.4 71.6 89.55 71.65
L 90.6 71.65 87.85 71.45
M 96.65 43.85
Q 95.5 47.35 91 49.05 88.5 49.95 83.95 50.75 79.95 51.75 76.05 55.1 72.6 58 70.85 58.05 71.3 57 73.5 52.75 75 49.9 75 48.95 75 48.2 74.6 47.5 74.5 47.35 73.85 46.4
L 72.9 46.1
Q 70.65 46 67.9 45.15 66.45 44.75 64.95 44.15
L 62.75 43.8
Q 70.65 46.65 70.7 46.7 73.75 48.05 73.75 49.7 73.75 54.75 67.5 60.95 61.05 67.35 55.35 67.35 53.55 67.35 51.5 66.55 50.35 66.1 48 65.05 49.3 67.5 54.45 68.3 59.8 69.15 60.7 70.4 62.65 73.75 63.8 75.15 65.8 77.65 68.75 77.65 72.6 77.65 77.2 72.15 81.3 66.45 81.85 66 82.65 65.35 85.55 65.6 91.4 66.1 95.1 66.1
L 95.75 66.1
Q 98.7 65.85 100.75 63.45 103.1 59.9 104.4 58.1
L 104.5 57.7
Q 104.3 54.85 101.1 50.85 97.45 46.25 96.65 43.85
M 81.65 58.95
Q 81.65 54.05 85.85 51.5 89.2 49.45 93.95 49.45 94.6 49.45 98.05 50.55
L 101.35 51.6
Q 94.9 51 89.6 54.55 85.55 57.35 82.95 61.95 82.25 61.1 82.15 60.9 81.65 60 81.65 58.95
M 64.5 69.8
Q 64.5 68.7 69.7 64.55 75.15 60.2 77.6 59.9 76.45 61.4 72.4 67.05 68.25 72.1 64.7 72.85 64.5 70.8 64.5 69.8
M 96.6 42.95
L 96.65 42.9
Q 96.6 42.65 95.85 41.3 95.2 40.1 95 39.8
L 92.35 37.3
Q 91.4 38.55 90.85 41.95 90.85 42.8 91.45 43.35 92.15 44.05 93.6 44.05 94.25 44.05 95.1 43.75
L 95.85 43.45 96.6 42.95
M 85.3 34.95
Q 84 33.25 82.8 33.25 81.85 33.25 79.65 29.8 76 26.3 67.75 26.3 67.55 26.3 65.7 26.95 63.7 27.7 63.15 28.05
L 64.3 26.8
Q 66.45 24.7 68.35 24.7 71.85 25.05 73 25.05 73 24.6 72.85 24.05
L 72.7 23.6
Q 71.8 22.45 65.45 20.35 59.4 18.4 58.75 16.75 57.9 14.7 56.05 13.4 53.6 11.75 49.75 11.75 48 11.75 45.9 13.4 44.65 14.45 43.65 15.65 47.35 21.3 51.2 29.45 54.75 36.9 55.75 40.55
L 56.35 40.5 55.95 40.6
Q 61.85 42.85 62.65 43.1 56.5 40.65 57.2 33.2
L 57.5 33.95
Q 60.35 37.65 62.9 39.7 66.9 42.85 72.75 42.6 73.85 42.5 75.25 42.35
L 75.45 42.35
Q 78.4 41.85 79.4 41.8 80.9 41.65 82.95 42.55 85.35 41.3 86.05 40.65 86.65 40.05 86.85 38.9 86.65 36.7 85.3 34.95
M 89.45 34.3
Q 89.7 33.3 89.7 32.55 89.1 31.5 81.45 21.6
L 78.6 18.1
Q 76.55 18 74.6 16.95 72.35 15.7 72.35 13.95 72.85 12.7 73 12.15 73.25 11.2 71.75 9.9 70.15 11.6 69.6 13.2 69.35 13.95 68.35 13.95 68.05 13.95 66.85 13.7 65.6 13.45 64.1 13.4 69.25 17.45 72.65 21.2 78.8 28 79.45 28.65 79.4 28.45 79.6 27.75 79.6 27.7 79.65 27.65 80.85 28.45 82.5 29.75 86.6 32.85 88.6 35.9
L 88.9 35.75
Q 89.2 35.3 89.45 34.3 Z"/>

<path fill="#827155" stroke="none" d="
M 62.1 108.95
Q 65.9 108.95 68.6 106.9 71.25 104.8 71.25 101.9 71.15 101.85 70.45 102.35 69.65 102.9 68.85 103.65 67.75 104.95 67 105.75 66.7 106.05 64.7 107.1 63.3 107.6 61 107.75 61.35 108.35 62.1 108.95
M 40 90.2
Q 36.35 88.45 33.75 90.8 31.55 92.75 31.55 95.75 31.55 97.6 34.25 99.9 37.8 102.6 39.55 104.2 39.95 103.7 40.05 103.7 39.95 101.15 40.95 100.2 42 99.15 42 97.3
L 41.75 95.3 41.1 93.05
Q 40.55 91 40 90.2
M 12.95 63.5
Q 12.05 63.5 10.85 63.9 13.05 64.5 18.4 64.55 16.35 64.1 15.1 63.65 14.7 63.5 12.95 63.5
M 27.85 66.65
Q 27.75 66.5 27.4 66.1 22.5 67.6 18.25 66.2 16.05 65.5 13.75 64.5 12.75 64.5 12.2 64.8 11.5 65.15 10.9 66.2 11.1 68.3 13.15 73.05 15 77.3 15.95 78.5 16.45 79.2 16.95 80.4 17.9 82.35 18.25 84.6 18.25 84.8 18.35 85.8 18.7 87.9 18.65 89.3
L 18.75 91.3 19.65 91.35
Q 19.6 90.4 20.75 87.8 21.55 85.9 22 85.15
L 25.15 89.8
Q 26.35 85.9 27.55 83.75 28.25 82.45 28.25 81.4 28.25 79 26.15 77.9 25 77.3 21.45 76.6 18.15 76 16.8 75.1 14.65 73.75 14.65 70.9 14.65 70.35 14.8 69.6 14.95 68.8 14.95 68.6 16.7 68.35 17.45 68.35 23.95 69.1 24.95 69.1 27.95 69.1 27.95 67.45 27.95 66.8 27.85 66.65
M 40.2 59.6
L 39.5 59.6
Q 34.5 61.5 33.85 66.7 33.35 70.5 33.35 70.55 32.9 72.55 31.4 73.5
L 31.2 72.25
Q 30.95 73.85 31.35 75.35 31.85 76.15 32.3 76.7 32.4 76.9 33.75 78.2 33.8 78.25 33.85 78.3 35.05 79.4 35.45 79.7
L 36.3 80.15
Q 36.3 80 36.15 78.5 36.15 72.4 38.1 68.1 40 63.75 42.75 63.75 42.75 62.05 42 60.85 41.25 59.6 40.2 59.6
M 11.05 34.75
Q 13.55 34.2 14.1 32.8 13.4 32.4 10.15 30.6 7.15 29 6.45 29 6.25 29 5.15 29.4 3.85 29.9 2.85 30.4 4.15 30.35 5.75 31.1 6.95 31.7 7.7 32.35 7.6 32.75 7.05 32.95 3.75 32.75 1.75 34.15 0.75 34.85 0.25 35.85 0.2 35.9 0.15 35.95
L 0.1 38.7
Q 0.45 42.75 1.6 44.5 2.85 45.9 3.35 46.9 1 37.8 6.55 35.8 9.65 35.1 11.05 34.75
M 55.95 40.6
Q 51.35 40.6 48.1 45.9 44.8 51.15 44.8 58.6
L 46.7 64.05 47.2 64.85
Q 47.25 64.75 47.25 64.6 47.15 64.35 47.6 63.9 47.6 55.55 52.05 49.7 56.45 43.8 62.75 43.8
L 64.95 44.15 66.2 44.5 62.65 43.1
Q 61.85 42.85 55.95 40.6
M 55.75 40.55
Q 54.9 40.35 53.45 40.35 51.3 40.35 50.3 41.15
L 55.75 40.55
M 57.35 0.7
L 57.4 0.7 56.2 0.5
Q 52.85 0.1 49.5 0.2
L 44.2 0.6
Q 41.45 2.7 37.15 6.3 33.65 9.05 31.45 9.9
L 31.4 8.95
Q 31.05 8.1 32.05 6 32.95 4.1 33.85 3.25 30.8 2.95 29.95 2.95 22.8 2.95 17.95 6 16.15 7.1 12.6 10.8
L 12.35 10.25
Q 12.3 8.5 12.05 8.1 10.9 9.25 8.4 17.5 6.2 24.8 2.95 25.95
L 2.55 27.5
Q 5.5 28.55 8.15 24.3 11.45 19 13.2 18.3 16.3 17 18.85 11.95 21 7.65 24.6 7.65 26.75 7.65 27.85 7.95 28.65 8.15 29.25 8.7 28.75 9.6 28.35 11.25 27.9 12.85 27.9 13.8 27.9 15.05 29.05 16.65 35.5 9 41.05 5.75 47.25 2.05 57.35 0.7
M 55.75 3.8
Q 54.65 4.1 53.65 4.4 54.3 4.35 54.95 4.35 59.25 4.35 60.5 4.3 65.45 4.05 62.05 2.1
L 55.75 3.8
M 21.5 32.75
L 24.75 26.05
Q 24.4 26.65 23 28.65 21.7 30.8 21.5 32.75
M 34.5 21.35
Q 34.4 21.5 34.2 21.65 31.6 22.55 29.4 23.25 27.65 24.35 26.15 26.1 21.85 31 21.85 37.95 22 39.25 24.6 44.45
L 24.5 43.05
Q 22.95 37.45 24.45 34.75 25.55 32.9 29.05 31.55 33.4 29.9 34.75 28.8 37.7 26.45 38.15 21.7
L 36.45 21.2
Q 35.95 21.2 35.45 21.25
L 35.9 21.1 34.75 20.75
Q 34.75 21 34.5 21.35
M 46.55 8.05
L 47.5 7.4
Q 47.7 7.15 47.95 6.95 47.1 7.5 46.55 8.05 Z"/>

<path fill="#928164" stroke="none" d="
M 22.95 64.7
Q 22.65 64.6 20.5 64.55 19.4 64.55 18.4 64.55 13.05 64.5 10.85 63.9
L 10.35 63.75 10.65 65 10.9 66.2
Q 11.5 65.15 12.2 64.8 12.75 64.5 13.75 64.5 16.05 65.5 18.25 66.2 22.5 67.6 27.4 66.1
L 27.3 65.95
Q 25.9 64.8 24.4 64.65 23.6 64.55 22.95 64.7
M 37.75 59.3
L 35.65 59.1
Q 32.6 59.2 32 60.8 31.75 61.35 31.6 65.75 31.4 68.75 31.05 71.15
L 31.2 72.25 31.4 73.5
Q 32.9 72.55 33.35 70.55 33.35 70.5 33.85 66.7 34.5 61.5 39.5 59.6 38.25 59.45 37.75 59.3
M 2.85 30.4
L 1.4 30.3 0.15 35.95
Q 0.2 35.9 0.25 35.85 0.75 34.85 1.75 34.15 3.75 32.75 7.05 32.95 7.6 32.75 7.7 32.35 6.95 31.7 5.75 31.1 4.15 30.35 2.85 30.4
M 33.85 3.25
Q 32.95 4.1 32.05 6 31.05 8.1 31.4 8.95
L 31.45 9.9
Q 33.65 9.05 37.15 6.3 41.45 2.7 44.2 0.6 40.15 1.55 33.8 0.9 30.5 0.55 26.15 0 18.4 0 11.25 6.7 3 14.45 2.95 25.95 6.2 24.8 8.4 17.5 10.9 9.25 12.05 8.1 12.3 8.5 12.35 10.25
L 12.6 10.8
Q 16.15 7.1 17.95 6 22.8 2.95 29.95 2.95 30.8 2.95 33.85 3.25
M 50.3 41.15
Q 47.05 40.55 45.55 46.6 44.55 50.7 44.55 56.25 44.55 57 44.65 58.1 44.65 58.45 44.7 58.8
L 44.75 58.7 44.8 58.6
Q 44.8 51.15 48.1 45.9 51.35 40.6 55.95 40.6
L 56.35 40.5 55.75 40.55 50.3 41.15
M 36.9 20.75
L 35.9 21.1 35.45 21.25
Q 35.95 21.2 36.45 21.2
L 36.9 20.75
M 29.4 23.25
Q 27.85 23.7 26.55 24.1 25.4 24.55 24.75 26.05
L 21.5 32.75
Q 20.8 36.25 20.8 37.8 20.8 38.95 21.25 39.4
L 21.85 37.95
Q 21.85 31 26.15 26.1 27.65 24.35 29.4 23.25 Z"/>
</g>
</defs>

<g transform="matrix( 1, 0, 0, 1, 0,0) ">
<use xlink:href="#Layer0_0_FILL"/>
</g>
</svg>
