<?xml version="1.0" encoding="utf-8"?>
<!-- Generator: Adobe Illustrator 20.1.0, SVG Export Plug-In . SVG Version: 6.00 Build 0)  -->
<svg version="1.1" id="Layer_1" xmlns="http://www.w3.org/2000/svg" xmlns:xlink="http://www.w3.org/1999/xlink" x="0px" y="0px"
	 viewBox="0 0 769.3 272" style="enable-background:new 0 0 769.3 272;" xml:space="preserve">
<style type="text/css">
	.st0{fill:url(#SVGID_1_);}
	.st1{fill:#918B4B;}
	.st2{fill:#99A5A8;}
	.st3{fill:#839295;}
	.st4{fill:#6C7D80;}
	.st5{fill:#BEB778;}
</style>
<g transform="matrix( 1, 0, 0, 1, 0,-0.05) ">
	<g>
		<g id="Layer0_0_MEMBER_0_FILL">
			
				<linearGradient id="SVGID_1_" gradientUnits="userSpaceOnUse" x1="387" y1="255.7756" x2="387" y2="29.1829" gradientTransform="matrix(1 0 0 -1 0 285.3833)">
				<stop  offset="7.843137e-03" style="stop-color:#C0B87B"/>
				<stop  offset="1" style="stop-color:#ABA254"/>
			</linearGradient>
			<path class="st0" d="M652.8,131c-31.5-31.3-55.1-53.9-70.7-67.8c-27.4-24.4-51-37.5-70.7-39.2c-17.1-1.5-40.5,10.5-70.1,36
				c-32.4,27.9-54.7,43-67.2,45.3c-81.4,16.5-139.9,33.6-175.5,51.4c-34.3,17.1-95.8,51.4-184.5,102.9h745.7
				c-9.9-14.1-21.7-30.2-35.7-48.2C696.3,175.8,672.5,149,652.8,131z"/>
		</g>
	</g>
</g>
<g transform="matrix( 1, 0, 0, 1, 0,-0.05) ">
	<g>
		<g id="Layer0_0_MEMBER_1_FILL">
			<path class="st1" d="M423.6,71.2c-14.1,14.8-46.3,26.8-96.4,36c-57.4,10.5-93.9,19.9-109.3,28.3
				c-37.3,19.9-105.2,61.3-203.8,124.1c75.9-6.6,134.1-12.6,174.8-18c11.8-1.5,22.2-8.4,31.2-20.6c9.6-13.1,26-22.3,49.2-27.6
				c12.2-2.8,39.6-6.9,82.3-12.2c23.4-2.8,38.8-8.8,46.3-18c27.6-33.4,54-67,79.1-100.6c12.9-17.1,24.3-30,34.4-38.6
				c-8.1,1.1-17.9,3.9-29.2,8.4C459.2,41.3,439.7,54.3,423.6,71.2z"/>
		</g>
	</g>
</g>
<g transform="matrix( 1, 0, 0, 1, 0,-0.05) ">
	<g>
		<g id="Layer0_0_MEMBER_2_FILL">
			<path class="st1" d="M538.7,120.4l49.8,62l-49.8-95.1l-46,97.1L538.7,120.4z"/>
		</g>
	</g>
</g>
<g transform="matrix( 1, 0, 0, 1, 0,-0.05) ">
	<g>
		<g id="Layer0_0_MEMBER_3_FILL">
			<path class="st1" d="M615.8,224.5l29.2-40.8l31.8,39.5l-31.8-60.7L615.8,224.5z"/>
		</g>
	</g>
</g>
<g transform="matrix( 1, 0, 0, 1, 0,-0.05) ">
	<g>
		<g id="Layer0_0_MEMBER_4_FILL">
			<path class="st1" d="M369.3,250.9l20.9-29.2l22.8,28.3l-22.8-43.4L369.3,250.9z"/>
		</g>
	</g>
</g>
<g transform="matrix( 1, 0, 0, 1, 0,-0.05) ">
	<g>
		<g id="Layer0_0_MEMBER_5_FILL">
			<path class="st2" d="M486.6,24L459,31.4l-19.3-1.9l-51.4,29.9l-30.2,41.8l60.1-3.2L432,74.4l23.8-15.1l37.3-31.2L486.6,24z"/>
		</g>
	</g>
</g>
<g transform="matrix( 1, 0, 0, 1, 0,-0.05) ">
	<g>
		<g id="Layer0_0_MEMBER_6_FILL">
			<path class="st3" d="M417.5,99.5L432,74.4l-2.2-7.1l8-20.9l1.9-17l-19.6,20.9l-30.5,13.8l-3.2,28L417.5,99.5z"/>
		</g>
	</g>
</g>
<g transform="matrix( 1, 0, 0, 1, 0,-0.05) ">
	<g>
		<g id="Layer0_0_MEMBER_7_FILL">
			<path class="st4" d="M422.4,53.9l17.4-24.4l-51.4,29.9l-12.9,5.5l-3.2,17l-9.6,7.4l-5.5,19.3l13.8,3.2l46.6-12.2l-21.9-16.7
				l3.2-19.3L422.4,53.9z"/>
		</g>
	</g>
</g>
<g transform="matrix( 1, 0, 0, 1, 0,-0.05) ">
	<g>
		<g id="Layer0_0_MEMBER_8_FILL">
			<path class="st5" d="M648.9,149.3c-13.9-19.3-29.1-38.1-45.6-56.6c-33.2-36.6-56.6-52.6-70.1-47.9c-4.3,1.5-0.4,11.1,11.6,28.9
				c6.9,9.9,17.5,24.9,31.8,45c10.7,17.1,20.9,39.1,30.5,65.9c-4.7-14.8-8.6-29-11.6-42.7c-6-27.6-4.3-39.1,5.1-34.4
				s20.2,13.1,32.5,25.1C639.4,138.6,644.7,144.2,648.9,149.3z"/>
		</g>
	</g>
</g>
</svg>
