
<svg xmlns="http://www.w3.org/2000/svg" version="1.1" xmlns:xlink="http://www.w3.org/1999/xlink" preserveAspectRatio="none" x="0px" y="0px" width="430px" height="365px" viewBox="0 0 430 365">
<defs>
<radialGradient id="Gradient_1" gradientUnits="userSpaceOnUse" cx="0" cy="0" r="57.8125" fx="0" fy="0" gradientTransform="matrix( 1.0000000000000002, 0, 0, -1.0000000000000002, 1194.25,213.25) " spreadMethod="pad">
<stop  offset="0%" stop-color="#3D6F70"/>

<stop  offset="48.627450980392155%" stop-color="#3F7171"/>

<stop  offset="70.19607843137256%" stop-color="#467878"/>

<stop  offset="85.88235294117646%" stop-color="#538484"/>

<stop  offset="99.2156862745098%" stop-color="#649594"/>

<stop  offset="100%" stop-color="#669696"/>
</radialGradient>

<radialGradient id="Gradient_2" gradientUnits="userSpaceOnUse" cx="0" cy="0" r="57.8125" fx="0" fy="0" gradientTransform="matrix( 1.0000000000000002, 0, 0, -1.0000000000000002, 1194.25,213.25) " spreadMethod="pad">
<stop  offset="0%" stop-color="#4D6F23"/>

<stop  offset="0%" stop-color="#4E7025"/>

<stop  offset="0%" stop-color="#51752B"/>

<stop  offset="0%" stop-color="#567D36"/>

<stop  offset="0%" stop-color="#5E8846"/>

<stop  offset="0%" stop-color="#68975C"/>

<stop  offset="0%" stop-color="#74A978"/>

<stop  offset="0%" stop-color="#82BE99"/>

<stop  offset="0%" stop-color="#93D7BF"/>

<stop  offset="0%" stop-color="#A6F2EA"/>

<stop  offset="0%" stop-color="#AFFFFE"/>

<stop  offset="100%" stop-color="#71A5A5" stop-opacity="0"/>
</radialGradient>

<radialGradient id="Gradient_3" gradientUnits="userSpaceOnUse" cx="0" cy="0" r="18.049999999999955" fx="0" fy="0" gradientTransform="matrix( 1.0000000000000024, 0, 0, -1.0000000000000024, 1203.5,203) " spreadMethod="pad">
<stop  offset="0%" stop-color="#D4565A" stop-opacity="0.30980392156862746"/>

<stop  offset="52.15686274509804%" stop-color="#D5565C" stop-opacity="0.32941176470588235"/>

<stop  offset="74.90196078431373%" stop-color="#D75563" stop-opacity="0.403921568627451"/>

<stop  offset="91.76470588235294%" stop-color="#DB536F" stop-opacity="0.5333333333333333"/>

<stop  offset="100%" stop-color="#DE5277" stop-opacity="0.6274509803921569"/>
</radialGradient>

<radialGradient id="Gradient_4" gradientUnits="userSpaceOnUse" cx="0" cy="0" r="9.787499999999909" fx="0" fy="0" gradientTransform="matrix( 1.0000000000000093, 0, 0, -1.0000000000000093, 1197.5,229.9) " spreadMethod="pad">
<stop  offset="0%" stop-color="#D4565A" stop-opacity="0.30980392156862746"/>

<stop  offset="52.15686274509804%" stop-color="#D5565C" stop-opacity="0.32941176470588235"/>

<stop  offset="74.90196078431373%" stop-color="#D75563" stop-opacity="0.403921568627451"/>

<stop  offset="91.76470588235294%" stop-color="#DB536F" stop-opacity="0.5333333333333333"/>

<stop  offset="100%" stop-color="#DE5277" stop-opacity="0.6274509803921569"/>
</radialGradient>

<radialGradient id="Gradient_5" gradientUnits="userSpaceOnUse" cx="0" cy="0" r="70.9375" fx="0" fy="0" gradientTransform="matrix( 1, 0, 0, -0.9788546255506608, 1191.4,212.45) " spreadMethod="pad">
<stop  offset="0%" stop-color="#2FEBFA" stop-opacity="0.3686274509803922"/>

<stop  offset="100%" stop-color="#2CEBFD" stop-opacity="0"/>
</radialGradient>

<radialGradient id="Gradient_6" gradientUnits="userSpaceOnUse" cx="0" cy="0" r="16.825000000000045" fx="0" fy="0" gradientTransform="matrix( 0.9999999999999973, 0, 0, -1.061664190193162, 1198.2,230.7) " spreadMethod="pad">
<stop  offset="0%" stop-color="#2FEBFA" stop-opacity="0.3686274509803922"/>

<stop  offset="100%" stop-color="#2CEBFD" stop-opacity="0"/>
</radialGradient>

<radialGradient id="Gradient_7" gradientUnits="userSpaceOnUse" cx="0" cy="0" r="40.3326577508847" fx="0" fy="0" gradientTransform="matrix( 0.7019745679759715, 0.7122020120127075, 0.7122020120127075, -0.7019745679759715, 1168.65,171.3) " spreadMethod="pad">
<stop  offset="0%" stop-color="#4D6F23"/>

<stop  offset="0%" stop-color="#4E7025"/>

<stop  offset="0%" stop-color="#51752B"/>

<stop  offset="0%" stop-color="#567D36"/>

<stop  offset="0%" stop-color="#5E8846"/>

<stop  offset="0%" stop-color="#68975C"/>

<stop  offset="0%" stop-color="#74A978"/>

<stop  offset="0%" stop-color="#82BE99"/>

<stop  offset="0%" stop-color="#93D7BF"/>

<stop  offset="0%" stop-color="#A6F2EA"/>

<stop  offset="0%" stop-color="#AFFFFE"/>

<stop  offset="100%" stop-color="#71A5A5" stop-opacity="0"/>
</radialGradient>

<radialGradient id="Gradient_8" gradientUnits="userSpaceOnUse" cx="0" cy="0" r="19.625" fx="0" fy="0" gradientTransform="matrix( 1.0000000000000002, 0, 0, -1.0000000000000002, 19.6,19.65) " spreadMethod="pad">
<stop  offset="0%" stop-color="#4D6F23"/>

<stop  offset="0%" stop-color="#4F6F24"/>

<stop  offset="0%" stop-color="#577129"/>

<stop  offset="0%" stop-color="#637333"/>

<stop  offset="0%" stop-color="#757641"/>

<stop  offset="0%" stop-color="#8C7A54"/>

<stop  offset="0%" stop-color="#A87F6C"/>

<stop  offset="0%" stop-color="#CA8589"/>

<stop  offset="0%" stop-color="#F18BAA"/>

<stop  offset="0%" stop-color="#FD8DB5"/>

<stop  offset="100%" stop-color="#FC0019" stop-opacity="0"/>
</radialGradient>

<radialGradient id="Gradient_9" gradientUnits="userSpaceOnUse" cx="0" cy="0" r="12.5" fx="0" fy="0" gradientTransform="matrix( 1, 0, 0, -1, 12.5,12.5) " spreadMethod="pad">
<stop  offset="0%" stop-color="#4D6F23"/>

<stop  offset="0%" stop-color="#4F7025"/>

<stop  offset="0%" stop-color="#54752B"/>

<stop  offset="0%" stop-color="#5E7D36"/>

<stop  offset="0%" stop-color="#6C8846"/>

<stop  offset="0%" stop-color="#7E975C"/>

<stop  offset="0%" stop-color="#94A978"/>

<stop  offset="0%" stop-color="#AEBE99"/>

<stop  offset="0%" stop-color="#CDD7C0"/>

<stop  offset="0%" stop-color="#EFF2EB"/>

<stop  offset="0%" stop-color="#FFFFFF"/>

<stop  offset="12.549019607843137%" stop-color="#FFFBFB" stop-opacity="0.9803921568627451"/>

<stop  offset="25.098039215686274%" stop-color="#FFEFEF" stop-opacity="0.9333333333333333"/>

<stop  offset="25.098039215686274%" stop-color="#FFEFEF" stop-opacity="0"/>

<stop  offset="100%" stop-color="#000000" stop-opacity="0"/>
</radialGradient>

<radialGradient id="Gradient_10" gradientUnits="userSpaceOnUse" cx="0" cy="0" r="12.5" fx="0" fy="0" gradientTransform="matrix( 1, 0, 0, -1, 12.5,12.5) " spreadMethod="pad">
<stop  offset="0%" stop-color="#000000" stop-opacity="0"/>

<stop  offset="25.098039215686274%" stop-color="#FFEFEF" stop-opacity="0"/>

<stop  offset="25.098039215686274%" stop-color="#FFEFEF" stop-opacity="0.9333333333333333"/>

<stop  offset="37.64705882352941%" stop-color="#FEDADB" stop-opacity="0.8549019607843137"/>

<stop  offset="50.19607843137255%" stop-color="#FEBDBF" stop-opacity="0.7450980392156863"/>

<stop  offset="62.745098039215684%" stop-color="#FD989B" stop-opacity="0.6"/>

<stop  offset="75.68627450980392%" stop-color="#FD6A6F" stop-opacity="0.4235294117647059"/>

<stop  offset="88.23529411764706%" stop-color="#FC323F" stop-opacity="0.2196078431372549"/>

<stop  offset="100%" stop-color="#FC0019" stop-opacity="0"/>
</radialGradient>

<radialGradient id="Gradient_11" gradientUnits="userSpaceOnUse" cx="0" cy="0" r="9.962500000000002" fx="0" fy="0" gradientTransform="matrix( 0.9999999999999999, 0, 0, -0.9999999999999999, 9.95,9.95) " spreadMethod="pad">
<stop  offset="0%" stop-color="#4D6F23"/>

<stop  offset="0%" stop-color="#4F6F24"/>

<stop  offset="0%" stop-color="#577129"/>

<stop  offset="0%" stop-color="#637333"/>

<stop  offset="0%" stop-color="#757641"/>

<stop  offset="0%" stop-color="#8C7A54"/>

<stop  offset="0%" stop-color="#A87F6C"/>

<stop  offset="0%" stop-color="#CA8589"/>

<stop  offset="0%" stop-color="#F18BAA"/>

<stop  offset="0%" stop-color="#FD8DB5"/>

<stop  offset="100%" stop-color="#FC0019" stop-opacity="0"/>
</radialGradient>

<radialGradient id="Gradient_12" gradientUnits="userSpaceOnUse" cx="0" cy="0" r="6.3375" fx="0" fy="0" gradientTransform="matrix( 1, 0, 0, -1, 6.35,6.35) " spreadMethod="pad">
<stop  offset="0%" stop-color="#4D6F23"/>

<stop  offset="0%" stop-color="#4F7025"/>

<stop  offset="0%" stop-color="#54752B"/>

<stop  offset="0%" stop-color="#5E7D36"/>

<stop  offset="0%" stop-color="#6C8846"/>

<stop  offset="0%" stop-color="#7E975C"/>

<stop  offset="0%" stop-color="#94A978"/>

<stop  offset="0%" stop-color="#AEBE99"/>

<stop  offset="0%" stop-color="#CDD7C0"/>

<stop  offset="0%" stop-color="#EFF2EB"/>

<stop  offset="0%" stop-color="#FFFFFF"/>

<stop  offset="12.549019607843137%" stop-color="#FFFBFB" stop-opacity="0.9803921568627451"/>

<stop  offset="25.098039215686274%" stop-color="#FFEFEF" stop-opacity="0.9333333333333333"/>

<stop  offset="25.098039215686274%" stop-color="#FFEFEF" stop-opacity="0"/>

<stop  offset="100%" stop-color="#000000" stop-opacity="0"/>
</radialGradient>

<radialGradient id="Gradient_13" gradientUnits="userSpaceOnUse" cx="0" cy="0" r="6.3375" fx="0" fy="0" gradientTransform="matrix( 1, 0, 0, -1, 6.35,6.35) " spreadMethod="pad">
<stop  offset="0%" stop-color="#000000" stop-opacity="0"/>

<stop  offset="25.098039215686274%" stop-color="#FFEFEF" stop-opacity="0"/>

<stop  offset="25.098039215686274%" stop-color="#FFEFEF" stop-opacity="0.9333333333333333"/>

<stop  offset="37.64705882352941%" stop-color="#FEDADB" stop-opacity="0.8549019607843137"/>

<stop  offset="50.19607843137255%" stop-color="#FEBDBF" stop-opacity="0.7450980392156863"/>

<stop  offset="62.745098039215684%" stop-color="#FD989B" stop-opacity="0.6"/>

<stop  offset="75.68627450980392%" stop-color="#FD6A6F" stop-opacity="0.4235294117647059"/>

<stop  offset="88.23529411764706%" stop-color="#FC323F" stop-opacity="0.2196078431372549"/>

<stop  offset="100%" stop-color="#FC0019" stop-opacity="0"/>
</radialGradient>

<radialGradient id="Gradient_14" gradientUnits="userSpaceOnUse" cx="0" cy="0" r="10.962500000000002" fx="0" fy="0" gradientTransform="matrix( 0.9999999999999999, 0, 0, -0.9999999999999999, 10.95,10.95) " spreadMethod="pad">
<stop  offset="0%" stop-color="#4D6F23"/>

<stop  offset="0%" stop-color="#4F6F24"/>

<stop  offset="0%" stop-color="#577129"/>

<stop  offset="0%" stop-color="#637333"/>

<stop  offset="0%" stop-color="#757641"/>

<stop  offset="0%" stop-color="#8C7A54"/>

<stop  offset="0%" stop-color="#A87F6C"/>

<stop  offset="0%" stop-color="#CA8589"/>

<stop  offset="0%" stop-color="#F18BAA"/>

<stop  offset="0%" stop-color="#FD8DB5"/>

<stop  offset="100%" stop-color="#FC0019" stop-opacity="0"/>
</radialGradient>

<radialGradient id="Gradient_15" gradientUnits="userSpaceOnUse" cx="0" cy="0" r="6.975000000000001" fx="0" fy="0" gradientTransform="matrix( 0.9999999999999999, 0, 0, -0.9999999999999999, 7,7) " spreadMethod="pad">
<stop  offset="0%" stop-color="#4D6F23"/>

<stop  offset="0%" stop-color="#4F7025"/>

<stop  offset="0%" stop-color="#54752B"/>

<stop  offset="0%" stop-color="#5E7D36"/>

<stop  offset="0%" stop-color="#6C8846"/>

<stop  offset="0%" stop-color="#7E975C"/>

<stop  offset="0%" stop-color="#94A978"/>

<stop  offset="0%" stop-color="#AEBE99"/>

<stop  offset="0%" stop-color="#CDD7C0"/>

<stop  offset="0%" stop-color="#EFF2EB"/>

<stop  offset="0%" stop-color="#FFFFFF"/>

<stop  offset="12.549019607843137%" stop-color="#FFFBFB" stop-opacity="0.9803921568627451"/>

<stop  offset="25.098039215686274%" stop-color="#FFEFEF" stop-opacity="0.9333333333333333"/>

<stop  offset="25.098039215686274%" stop-color="#FFEFEF" stop-opacity="0"/>

<stop  offset="100%" stop-color="#000000" stop-opacity="0"/>
</radialGradient>

<radialGradient id="Gradient_16" gradientUnits="userSpaceOnUse" cx="0" cy="0" r="6.975000000000001" fx="0" fy="0" gradientTransform="matrix( 0.9999999999999999, 0, 0, -0.9999999999999999, 7,7) " spreadMethod="pad">
<stop  offset="0%" stop-color="#000000" stop-opacity="0"/>

<stop  offset="25.098039215686274%" stop-color="#FFEFEF" stop-opacity="0"/>

<stop  offset="25.098039215686274%" stop-color="#FFEFEF" stop-opacity="0.9333333333333333"/>

<stop  offset="37.64705882352941%" stop-color="#FEDADB" stop-opacity="0.8549019607843137"/>

<stop  offset="50.19607843137255%" stop-color="#FEBDBF" stop-opacity="0.7450980392156863"/>

<stop  offset="62.745098039215684%" stop-color="#FD989B" stop-opacity="0.6"/>

<stop  offset="75.68627450980392%" stop-color="#FD6A6F" stop-opacity="0.4235294117647059"/>

<stop  offset="88.23529411764706%" stop-color="#FC323F" stop-opacity="0.2196078431372549"/>

<stop  offset="100%" stop-color="#FC0019" stop-opacity="0"/>
</radialGradient>

<filter id="Filter_1" x="-20%" y="-20%" width="140%" height="140%" color-interpolation-filters="sRGB">
<feColorMatrix in="SourceGraphic" type="matrix" values="1 0 0 0 0 0 1 0 0 0 0 0 1 0 0 0 0 0 0.72 0" result="result1"/>
</filter>

<filter id="Filter_2" x="-20%" y="-20%" width="140%" height="140%" color-interpolation-filters="sRGB">
<feColorMatrix in="SourceGraphic" type="matrix" values="1 0 0 0 0 0 1 0 0 0 0 0 1 0 0 0 0 0 0.76 0" result="result1"/>
</filter>

<g id="Layer0_0_FILL">
<path fill="url(#Gradient_1)" stroke="none" d="
M 1149 175.3
Q 1143.95 181.95 1142.95 183.4 1134.95 195.05 1134.95 206.3 1134.95 213.55 1137.25 223.6 1139.6 234.15 1143.65 243.55 1153.6 266.95 1166.3 268.3 1186.35 270.45 1199.05 268.9 1219.3 266.45 1230.3 255 1245.5 239.15 1250.05 229.25 1256.65 214.85 1250.3 199 1241.55 177.2 1229.4 167.55 1212.25 154.05 1182.95 157.65 1169.25 159.35 1163.25 161.3 1154.8 164 1152.95 169 1152.15 171.15 1149 175.3 Z"/>
</g>

<g id="Layer0_1_FILL">
<path fill="url(#Gradient_2)" stroke="none" d="
M 1149 175.3
Q 1143.95 181.95 1142.95 183.4 1134.95 195.05 1134.95 206.3 1134.95 213.55 1137.25 223.6 1139.6 234.15 1143.65 243.55 1153.6 266.95 1166.3 268.3 1186.35 270.45 1199.05 268.9 1219.3 266.45 1230.3 255 1245.5 239.15 1250.05 229.25 1256.65 214.85 1250.3 199 1241.55 177.2 1229.4 167.55 1212.25 154.05 1182.95 157.65 1169.25 159.35 1163.25 161.3 1154.8 164 1152.95 169 1152.15 171.15 1149 175.3
M 1171.45 166.25
L 1167.55 168.55 1174.55 166.55
Q 1178.3 165.6 1184.8 165.2 1188.85 164.95 1199.55 164.55 1206.25 164.25 1208 164.65 1212.5 165.6 1216.8 166.05 1224.45 166.85 1230 174.25 1232.8 178 1234.05 181.55
L 1233.8 179.05
Q 1233.65 177.5 1232.1 175
L 1230.55 172.8 1236.8 179.05
Q 1239.65 181.9 1240.7 185.75 1241.45 188.55 1243.8 199.05 1246 207.35 1244.35 215.4 1243.55 219.45 1242.3 221.8
L 1244.8 219.05
Q 1246.95 216.75 1247.3 213.7
L 1246.55 224.8
Q 1246.3 229 1242.2 232.95 1235.05 239.85 1230.55 246.3 1224.15 255.5 1218.85 257.95 1217.2 258.7 1215.8 258.7
L 1214.8 258.55 1217.3 256.8
Q 1219.8 255.05 1223.3 251.3 1221.2 252.35 1218.05 254.25 1211.8 258 1206.8 262.05 1201.75 266.15 1195.25 266.2 1185.45 265.45 1176.8 265.3 1166 265.15 1161.7 262.6 1160.35 261.8 1159.8 260.85
L 1159.55 260.05 1165.55 262.05
Q 1169.3 263.3 1173.95 262.7 1176.25 262.35 1177.8 261.8
L 1172.05 261.8
Q 1168.65 261.8 1166.6 260.05 1160.15 254.6 1159.05 253.8 1153.25 249.7 1149.6 242.75 1147 237.85 1144.3 228.55 1142.45 222.15 1142.95 215.35
L 1143.8 209.8 1142.3 214.3
Q 1142.3 210.3 1142.55 204.05 1142.7 200.15 1144.65 196.7 1145.6 195 1146.55 194.05
L 1146.35 196.15
Q 1146.15 199.1 1146.3 203.3 1146.45 207.5 1148.15 214.6 1149 218.1 1149.8 220.8
L 1149.3 214.3
Q 1148.9 209.15 1148.95 201.75 1149 194 1149.55 191.3 1149.95 189.2 1151.75 185.8 1153.1 183.2 1152.8 183.3 1152.35 183.45 1150.65 185.5
L 1149.05 187.55
Q 1149.55 185.55 1150.55 180.8 1151.2 177.8 1154.9 173.55 1155.55 172.8 1159.8 168.55 1164.5 164 1177.25 163.1 1183.6 162.6 1189.05 163.05 1187.55 163.55 1180.55 163.8 1176.2 163.95 1171.45 166.25 Z"/>
</g>

<g id="Layer0_2_FILL">
<path fill="#75B5B4" stroke="none" d="
M 1161.1 178.65
Q 1165.4 174.45 1170.55 173.05 1175.65 171.65 1177.1 171.45 1178.25 171.25 1183.05 170.55 1188.25 169.7 1191.05 169.45 1193 169.3 1196.8 169.3
L 1201.3 169.3
Q 1197.8 168.8 1193.15 168.6 1183.85 168.15 1178.05 169.55 1171.3 170.9 1168.4 171.7 1163.55 173.05 1161.8 175.55 1160.1 178.05 1158.75 180.55
L 1157.8 182.55 1161.1 178.65 Z"/>
</g>

<g id="Layer0_3_FILL">
<path fill="#75B5B4" stroke="none" d="
M 1214.2 171.1
Q 1211.75 169.5 1205.05 169.8 1200.3 169.55 1194.3 170.3
L 1188.3 171.05 1192.85 171.1
Q 1198 171.15 1201.3 171.3 1202.7 171.35 1206.35 171.25 1208.2 171.2 1210.8 171.8
L 1215.3 172.8
Q 1215.45 171.95 1214.2 171.1 Z"/>
</g>

<g id="Layer0_4_FILL">
<path fill="#75B5B4" stroke="none" d="
M 1159.7 186.25
Q 1162.15 180.95 1168.55 178.3 1173.7 176.2 1177.3 174.55 1178.75 173.95 1180.8 173.8 1184.05 173.55 1176.55 173.55 1166.5 175.85 1164.8 177.55 1163.05 179 1162 180 1160.1 181.85 1159.8 183.55
L 1159.05 187.9
Q 1159.3310546875 187.0861328125 1159.7 186.25
M 1159.05 187.9
Q 1158.8025390625 188.7861328125 1158.65 189.65 1158.55 190.5 1158.55 191.05
L 1159.05 187.9 Z"/>
</g>

<g id="Layer0_5_FILL">
<path fill="#75B5B4" stroke="none" d="
M 1154.8 189.8
L 1155.8 185.8
Q 1154.4 186.6 1153.5 188.3 1152.55 190.15 1152.55 192.3
L 1152.55 196.3
Q 1154.3 191.55 1154.8 189.8 Z"/>
</g>

<g id="Layer0_6_FILL">
<path fill="#75B5B4" stroke="none" d="
M 1168.55 169.8
Q 1165.05 168.3 1162.55 168.8 1160.4 169.25 1158.7 170.9 1156.9 172.6 1156.55 174.8
L 1156.05 177.8 1157.9 174.9
Q 1160.2 171.85 1162.55 171.05 1166.3 169.8 1168.55 169.8 Z"/>
</g>

<g id="Layer0_7_FILL">
<path fill="#75B5B4" stroke="none" d="
M 1155.55 196.8
Q 1154.75 197 1153.95 197.65 1152.3 198.95 1152.3 201.3 1152.3 202.4 1152.1 205.35 1151.9 207.7 1152.05 210.3 1152.1 210.95 1151.85 214.4 1151.75 215.95 1152.8 219.05 1154.55 224.3 1156.05 226.8 1155.2 224.45 1154.35 221.5 1152.65 215.7 1152.8 213.05 1152.85 212.1 1152.7 207.6 1152.55 204.9 1153.3 203.3 1153.75 202.3 1154.9 200.55 1155.55 199.55 1155.55 198.55
L 1155.55 196.8 Z"/>
</g>

<g id="Layer0_8_FILL">
<path fill="#75B5B4" stroke="none" d="
M 1146.7 220.4
Q 1146.05 218.6 1146.05 217.55 1146.05 216.7 1145.75 220.15 1145.7 224.65 1146.8 227.8 1147.7 230.3 1148.7 233.4 1149.8 235.6 1153.55 238.05 1157.212890625 240.4388671875 1159.05 241.9 1155.6720703125 238.653125 1152.8 234.55 1150.5 231.3 1149.5 228.75 1149.25 228.15 1148.05 224.3 1147.95 224.05 1146.7 220.4 Z"/>
</g>

<g id="Layer0_9_FILL">
<path fill="#75B5B4" stroke="none" d="
M 1153.1 228.25
L 1152.3 227.05 1152.2 228.55
Q 1152.5 230.45 1154.55 232.3 1157.8 235.3 1158.8 235.3 1158.3 233.8 1155.8 231.3 1154.25 229.75 1153.1 228.25 Z"/>
</g>

<g id="Layer0_10_FILL">
<path fill="#75B5B4" stroke="none" d="
M 1222.55 240.25
Q 1219.45 244.35 1215.05 246.55 1214 247.95 1212.4 249.4 1209.15 252.25 1204.05 253.8 1198.35 255.8 1197.05 256.2 1195.45 256.7 1191.55 256.55 1185.3 256.3 1178.3 256.3
L 1176.8 256.3 1182.35 258.1
Q 1188.6 259.75 1192.05 259.3 1197.7 258.55 1200.75 257.7 1205.65 256.35 1208.3 254.05 1210.35 252.25 1213.25 250.1 1216.25 247.85 1218.05 246.3 1219.3 245.2 1222.1 243.7 1223.5 242.9 1224.05 241.05 1224.7 239 1224.8 237.6
L 1224.8 236.55
Q 1224.1 238.2 1222.55 240.25 Z"/>
</g>

<g id="Layer0_11_FILL">
<path fill="#75B5B4" stroke="none" d="
M 1239.5 213.9
L 1238.55 211.8 1238.2 216.7
Q 1237.5 221.95 1235.8 223.8
L 1233.05 226.8 1235.6 225.7
Q 1238.35 223.9 1239.3 220.3 1240.25 216.7 1239.5 213.9 Z"/>
</g>

<g id="Layer0_12_FILL">
<path fill="#3C6162" stroke="none" d="
M 1241.8 214.55
L 1241.5 217.85
Q 1240.5 221.75 1237.05 225.05 1234.6 227.4 1230.85 230.1 1228.5 231.8 1227.8 233.3
L 1226.1 237.85
Q 1223.75 243 1220.3 245.8 1214.85 250.75 1212.25 252.95 1207.65 256.85 1204.55 257.3 1203.6 257.45 1200.2 258.3 1197.95 258.85 1192.05 259.3 1185.1 259.8 1182.7 259.95 1181 260.05 1179.3 260.05
L 1176.05 260.05 1184.25 262.95
Q 1193.7 265.4 1199.8 263.05 1206.6 260.45 1212.75 256.6 1218.1 253.25 1221.05 250.3 1224.25 247.1 1227.1 243.6 1230.6 239.25 1231.8 236.55 1232.7 233.8 1233 233.2 1233.35 232.55 1236.05 230.8 1238.2 229.45 1240.55 228 1241.9 227.1 1242.05 225.8 1242.65 220.95 1242.3 218.05
L 1241.8 214.55 Z"/>
</g>

<g id="Layer0_13_FILL">
<path fill="#3C6162" stroke="none" d="
M 1233.8 237.55
L 1232.55 239.8 1233.85 239.2
Q 1235.65 237.95 1238.3 234.8 1240.8 231.85 1242.15 230.8 1244 229.35 1244.3 229.05 1245.95 227.45 1246.25 226.85 1246.75 226.05 1246.55 224.8 1246.4 223.7 1245.95 222.75
L 1245.55 222.05
Q 1245 224.1 1243.45 226.45 1240.4 231.05 1235.55 232.3 1235.05 235.3 1233.8 237.55 Z"/>
</g>

<g id="Layer0_14_FILL">
<path fill="#3C6162" stroke="none" d="
M 1230.8 241.35
L 1230.55 241.8
Q 1228.65 246.1 1226.3 247.55 1225.05 248.35 1224.3 249.15
L 1223.8 249.8 1227.45 248.75
Q 1231.05 247.1 1231.05 244.3 1231.05 241.5 1230.8 241.35 Z"/>
</g>

<g id="Layer0_15_FILL">
<path fill="#75B5B4" stroke="none" d="
M 1158.7 246
L 1156.8 244.05 1157.3 246.25
Q 1158.3 248.6 1160.8 249.55 1162.75 250.3 1164.95 252 1166.65 253.3 1167.8 253.3
L 1170.05 253.3
Q 1166.3 250.55 1163.05 249.05 1161 248.1 1158.7 246 Z"/>
</g>

<g id="Layer0_16_FILL">
<path fill="#75B5B4" stroke="none" d="
M 1172.7 180.35
Q 1169.4 181.25 1169.05 181.3 1167.5 181.5 1165.75 183.9 1165.3 184.45 1162.3 189.3 1160.55 192.05 1159.65 196.1 1158.75 200.05 1159.8 198.55 1160.45 197.7 1162.8 191.95 1165.45 186.3 1168.05 184.8 1170.2 183.55 1172.5 182.2 1173.8 181.35 1174.3 180.55 1174.75 179.8 1172.7 180.35 Z"/>
</g>

<g id="Layer0_17_FILL">
<path fill="#75B5B4" stroke="none" d="
M 1212.2 176.75
Q 1206.5 175.45 1202.3 175.3 1199.2 175.2 1196.55 175.25
L 1194.55 175.3 1197.45 176.1
Q 1200.7 176.9 1202.55 177.05 1203.5 177.15 1207 177 1209.95 176.85 1212.55 177.3
L 1217.05 178.05
Q 1215.05 177.45 1212.2 176.75 Z"/>
</g>

<g id="Layer0_18_FILL">
<path fill="#75B5B4" stroke="none" d="
M 1194.6 177.65
Q 1192 176.45 1188.55 177.55 1186.15 178.35 1185.2 178.9 1184.25 179.4 1183.3 180.55
L 1182.05 182.05 1184.95 180.75
Q 1188.45 179.45 1191.55 179.3
L 1196.55 179.05
Q 1195.95 178.25 1194.6 177.65 Z"/>
</g>

<g id="Layer0_19_FILL">
<path fill="#75B5B4" stroke="none" d="
M 1161.45 200.85
Q 1159.25 203.35 1158.8 204.3 1157.7 206.55 1157.55 207 1157.05 208.3 1157.05 209.8 1157.05 213.8 1157.3 214.3 1157.45 214.6 1157.95 212.85 1158.95 209.15 1159.3 208.05 1160 205.85 1160.9 204.7 1161.9 203.45 1162.3 202.3
L 1163.55 198.55
Q 1162.55 199.6 1161.45 200.85 Z"/>
</g>

<g id="Layer0_20_FILL">
<path fill="#75B5B4" stroke="none" d="
M 1159.5 220.95
Q 1158.8 219.35 1158.3 220.8 1157 225 1159.8 227.05 1162.55 229.05 1163.55 229.3 1161.05 225.8 1160.55 224.05 1159.9 221.7 1159.5 220.95 Z"/>
</g>

<g id="Layer0_21_FILL">
<path fill="url(#Gradient_3)" stroke="none" d="
M 1209.55 191.05
Q 1188.1 187.85 1183.05 195.05 1180.55 198.65 1181.85 204.4 1183.1 209.85 1186.3 212.05 1189.55 214.25 1190.95 214.7 1192.85 215.3 1197.8 215.3 1211.3 215.3 1214.05 215.8 1216.8 216.3 1220.95 213.5 1225.7 210.3 1225.55 205.8 1225.3 199.05 1223.65 196.85 1220.55 192.7 1209.55 191.05 Z"/>
</g>

<g id="Layer0_22_FILL">
<path fill="url(#Gradient_4)" stroke="none" d="
M 1207.45 230.45
Q 1207.55 227.2 1206.55 226.05 1200.15 218.6 1194.95 220.65 1191.1 222.2 1189.3 227.8 1187.5 233.45 1187.6 235.3 1187.8 238.7 1192.3 239.05 1200 239.6 1201.9 239.5 1206.45 239.15 1206.8 236.55 1207.4 231.95 1207.45 230.45 Z"/>
</g>

<g id="Layer0_23_FILL">
<path fill="#C68698" stroke="none" d="
M 1208.35 195.95
Q 1204.9 194.5 1201.55 194.05 1196.6 193.4 1192.3 195.55 1189.6 196.9 1188.2 198.1 1186.5 199.45 1188.55 199.3 1190.05 199.2 1193.2 198.7 1196.5 198.3 1200.3 198.3 1202.7 198.3 1207.35 199 1210.05 199.4 1211.05 198.55 1212.25 197.55 1208.35 195.95 Z"/>
</g>

<g id="Layer0_24_FILL">
<path fill="#C68698" stroke="none" d="
M 1198.4 202.75
Q 1197.15 201.4 1194.3 202.3 1192.65 202.85 1191.75 206.15 1190.85 209.5 1193.3 208.8 1195.3 208.25 1196 207.25 1197.05 205.8 1197.8 205.3 1199.6 204.1 1198.4 202.75 Z"/>
</g>

<g id="Layer0_25_FILL">
<path fill="#C68698" stroke="none" d="
M 1193.3 225.75
Q 1192.1 227.25 1192.3 228.8 1192.65 231.5 1192.85 231.95 1193.55 233.45 1195.8 232.8 1197.55 232.3 1199.75 232 1201.2 231.7 1201.8 230.3 1202.7 228.55 1202.85 228.05 1203.1 227.35 1202.8 226.55 1202.4 225.5 1200.45 224.5 1198.3 223.45 1196.55 223.8 1194.55 224.2 1193.3 225.75 Z"/>
</g>

<g id="Layer0_26_FILL">
<path fill="url(#Gradient_5)" stroke="none" d="
M 1191.4 143
Q 1162 143 1141.2 163.35 1131.35 172.95 1126 185.45 1120.4 198.35 1120.4 212.5 1120.4 226.65 1126 239.55 1131.35 252 1141.2 261.6 1162 281.95 1191.4 281.95 1220.8 281.95 1241.6 261.6 1251.45 252 1256.8 239.55 1262.4 226.65 1262.4 212.5 1262.4 198.35 1256.8 185.45 1251.45 172.95 1241.6 163.35 1220.8 143 1191.4 143 Z"/>
</g>

<g id="Layer0_27_FILL">
<path fill="url(#Gradient_6)" stroke="none" d="
M 1210.1 218.05
Q 1205.15 212.8 1198.2 212.8 1191.25 212.8 1186.35 218.05 1181.4 223.3 1181.4 230.7 1181.4 238.1 1186.35 243.3 1191.25 248.55 1198.2 248.55 1205.2 248.55 1210.1 243.3 1215.05 238.1 1215.05 230.7 1215.05 223.3 1210.1 218.05 Z"/>
</g>

<g id="Layer0_28_FILL">
<path fill="url(#Gradient_7)" stroke="none" d="
M 1152.55 192.3
Q 1152.05 195.55 1152.35 197.55 1152.6 199.5 1152.3 201.3 1151.9 203.9 1152.1 207.1 1152.15 207.6 1152.8 213.05
L 1153.3 217.3
Q 1153.95 212.3 1154.65 210.3
L 1155.3 208.3 1154.8 212
Q 1154.75 216.35 1156.95 219.3 1160.55 224.05 1161.65 226 1161.3 221.65 1161.65 214 1161.7 208.4 1161.85 207.3 1161.95 206.1 1163.3 204.3 1165.3 201.65 1169.95 198.65
L 1169.6 200.9
Q 1169.15 203.9 1168.95 207.65 1168.8 211.1 1169.25 213.1 1169.85 215.85 1169.95 217 1170.3 221 1170.3 223.65 1172.65 216 1172.95 211 1173.25 207.05 1175.5 203.95 1178 200.55 1183.3 197.65
L 1190.65 193.65
Q 1190 194.55 1189.2 195.85 1187.6 198.45 1186.95 200.3 1186.45 201.8 1185.35 203.55
L 1185.1 203.95
Q 1185.2 203.95 1185.95 203.3 1186.35 203 1187.5 201.25 1188.75 199.45 1190.1 198.15 1194.75 193.85 1204.3 192 1217.2 189.5 1218.95 189.2 1222.35 188.65 1226.3 188.65 1229.15 188.65 1231.9 188.9 1232.55 188.95 1232.6 188.9
L 1231.95 188.65
Q 1230.25 188 1222.95 186.35 1214.75 184.55 1210.95 184.3
L 1201.95 184 1202.75 183.35
Q 1204.2 182.65 1207.3 182.65
L 1213.95 182.65
Q 1213.05 181.9 1211.7 181.1 1209.05 179.5 1206.95 179.3 1203.95 179.05 1203.1 178.7 1201.8 178.25 1202.55 177.05 1203.65 175.3 1206.3 172 1192.95 169 1189.65 168.65 1186.3 168.35 1181.35 169.45 1173.15 171.3 1170.65 171.65 1164.5 172.55 1158.55 180.25 1153.35 186.95 1152.55 192.3 Z"/>
</g>

<g id="Layer0_29_FILL">
<path fill="#437879" stroke="none" d="
M 1375.3 57.8
Q 1375.3 56.237109375 1374.75 59.3 1375.3 58.0810546875 1375.3 57.8
M 1416.8 91.8
L 1416.8 96.3
Q 1416.8 99.35 1415.25 102.3 1413.45 105.9 1409.8 108.3 1407.9 109.55 1404.4 114.6 1401.75 118.4 1398.05 118.8 1394.05 119.25 1387.25 117.45 1380.2 115.3 1377.8 114.8 1374.85 114.2 1371.75 114.55
L 1369.3 115.05 1370.05 109.3
Q 1370.5 106.05 1369.45 103.3 1367.75 98.9 1367.3 96.55 1366.55 92.4 1368.3 88.1 1370.7 83.45 1371.55 80.8 1373.35 76.1 1374 74 1375.05 70.55 1374.55 67.05 1374.1 63.55 1374.65 60.1 1374.71953125 59.6669921875 1374.75 59.3 1374.562109375 59.8162109375 1374.25 60.5 1373.1 63.4 1372.8 66.55 1372.55 69.2 1372.6 71.65 1372.5 73.35 1371.3 75.8 1369.05 79.7 1367.8 81.95 1365.55 86.1 1364.3 90.55 1363.15 94.8 1364.65 99.2 1366.35 104.2 1366.3 105.05 1365.9 110.35 1365.75 111 1364.85 114.85 1361.3 118.05 1358.1 120.95 1354.85 130.45 1350.05 144.6 1348.8 147.3 1345.55 156.3 1343.5 159.3 1340.45 163.7 1330.3 168.3 1291.55 185.8 1286.55 188.3 1282.75 190.2 1277.45 190.65 1273.45 191 1265.55 190.55 1260.2 190.25 1250.15 187.05 1239.65 183.7 1238.3 183.55 1234.7 183.15 1231.95 184.6 1229 186.15 1229.05 189.05 1229.2 199.55 1233.7 202.25 1235.3 203.25 1237.75 203.35 1239.1 203.45 1241.55 203.3 1244.25 203.3 1246.65 202.25 1248.05 201.6 1251.55 200.05 1254 199.2 1259.85 199.5 1270.6 200.05 1274.3 200.05 1282.25 200.05 1302.4 190.6 1313.85 185.25 1325.8 178.55 1336.35 172.65 1339.7 170.55 1349 164.7 1349.8 161.8 1350.05 160.85 1353.85 152.2 1357 144.85 1357.3 141.05 1357.65 136.7 1360.75 130.05 1363.3 124.55 1365.3 122.05 1367.5 119.3 1376.8 119.3 1377.55 119.3 1383.65 121.1 1389.85 122.9 1397.05 123.05 1404.85 123.2 1406.6 120.95 1407.6 119.55 1408.05 115.8 1408.8 114 1411.7 110.75 1415 107 1416.8 103.8 1419 99.9 1418.1 95.45
L 1416.8 91.8 Z"/>
</g>

<g id="Layer0_30_FILL">
<path fill="#75B5B4" stroke="none" d="
M 1416.8 91.8
L 1416.8 96.3
Q 1416.8 99.35 1415.25 102.3 1413.45 105.9 1409.8 108.3 1407.9 109.55 1404.4 114.6 1401.75 118.4 1398.05 118.8 1397.45 118.9 1396.25 118.9 1392.45 118.9 1386.3 117.2 1380 115.3 1377.8 114.8 1375.9 114.45 1374.05 114.45 1372.25 114.45 1370.6 114.75
L 1369.3 115.05 1370.05 109.3
Q 1370.5 106.05 1369.45 103.3 1367.75 98.9 1367.3 96.55 1366.55 92.4 1368.3 88.1 1370.7 83.45 1371.55 80.8 1373.35 76.1 1374 74 1375.05 70.55 1374.55 67.05 1374 63.05 1374.85 59.1 1373.15 62.7 1372.8 66.55 1372.55 69.2 1372.6 71.65 1372.5 73.35 1371.3 75.8 1369.05 79.7 1367.8 81.95 1365.55 86.1 1364.3 90.55 1363.15 94.8 1364.65 99.2 1366.35 104.2 1366.3 105.05 1365.9 110.35 1365.75 111 1364.85 114.85 1361.3 118.05 1358.1 120.95 1354.85 130.45 1350.05 144.6 1348.8 147.3 1345.55 156.3 1343.5 159.3 1340.45 163.7 1330.3 168.3 1291.55 185.8 1286.55 188.3 1283.8 189.7 1280.4 190.3 1277.35 190.85 1273.1 190.85 1271.05 190.85 1265.55 190.55 1260.2 190.25 1250.15 187.05 1239.65 183.7 1238.3 183.55
L 1236.85 183.5
Q 1233.65 183.5 1231.5 184.9 1229.1 186.4 1229.05 188.95
L 1229.15 188.95
Q 1229.7 187.45 1231.2 186.6 1232.6 185.75 1234.25 185.85 1235.35 185.5 1236.85 185.5
L 1238.1 185.55
Q 1239.85 185.8 1246.05 187.85 1252.55 189.95 1255.75 190.8 1261.55 192.35 1265.45 192.55 1270.15 192.85 1273.1 192.85 1281.95 192.85 1287.45 190.1 1292.1 187.8 1327.55 171.75
L 1331.15 170.15
Q 1340 166.1 1343.45 162.55 1346 159.9 1348.35 153.7 1349.6 150.3 1350.65 148.15 1352.55 143.9 1355.4 135.15 1357.65 128.4 1358.7 125.9 1360.65 121.4 1362.65 119.55 1366.8 115.8 1367.8 111.1
L 1366.9 117.95 1369.95 116.95 1371.1 116.7
Q 1372.5 116.45 1374.05 116.45 1375.85 116.45 1377.4 116.8 1378.25 116.95 1382.15 118.1 1391.55 120.9 1396.25 120.9 1397.65 120.9 1398.3 120.8 1401 120.5 1403 119.05 1404.45 118 1405.9 115.95 1405.7 116.6 1405.5 117.9 1405.35 118.95 1405.2 119.3 1405.05 119.75 1404.7 120.05 1403.2 121.1 1398.2 121.1
L 1397.1 121.05
Q 1392.1 120.95 1387.85 120.1 1385.25 119.55 1381.85 118.45 1378.4 117.3 1376.8 117.3 1366.6 117.3 1363.75 120.8 1361.55 123.55 1358.85 129.3 1355.65 136.25 1355.3 140.9 1355.1 143.45 1353.6 147.5 1352.7 149.95 1350.65 154.5 1348.35 159.45 1347.9 161.3 1347.25 163.3 1339.95 168 1335.8 170.75 1326.8 175.75
L 1324.85 176.85
Q 1309.7 185.35 1296.5 191.15 1280.7 198.05 1274.3 198.05 1268.65 198.05 1262.35 197.65 1258.7 197.4 1256.55 197.4 1253.1 197.4 1250.9 198.2 1249 198.85 1247.15 199.8 1245.45 200.6 1244.6 200.9 1243.25 201.3 1241.55 201.3
L 1238.6 201.4
Q 1236.75 201.4 1235.75 201.05
L 1235.55 201.05
Q 1234.3 201.05 1233.15 200.85 1232.85 200.8 1231.6 200.3 1232.9 202.15 1234.9 202.85 1236.4 203.4 1238.6 203.4
L 1241.55 203.3
Q 1244.25 203.3 1246.65 202.25 1248.05 201.6 1251.55 200.05 1253.35 199.4 1256.55 199.4 1258 199.4 1263.8 199.75 1269.6 200.05 1274.3 200.05 1282.25 200.05 1302.4 190.6 1313.85 185.25 1325.8 178.55 1336.35 172.65 1339.7 170.55 1349 164.7 1349.8 161.8 1350.05 160.85 1353.85 152.2 1357 144.85 1357.3 141.05 1357.65 136.7 1360.75 130.05 1363.3 124.55 1365.3 122.05 1367.5 119.3 1376.8 119.3 1377.55 119.3 1383.65 121.1 1389.85 122.9 1397.05 123.05
L 1398.2 123.1
Q 1405.15 123.1 1406.7 120.8 1407.6 119.45 1408.05 115.8 1408.8 114 1411.7 110.75 1415 107 1416.8 103.8 1419 99.9 1418.1 95.45
L 1416.8 91.8 Z"/>
</g>

<g id="Layer0_31_FILL">
<path fill="#75B5B4" stroke="none" d="
M 1231.05 190.05
Q 1229.35 190.5 1229.7 192.2 1229.85 193.1 1230.55 194.55 1230.75 195.25 1231.6 194.8 1232.4 194.35 1232.8 193.55 1233.1 192.95 1233.7 193.1 1234.1 193.25 1235.55 193.8 1236.45 194.05 1240.35 192.95 1245.85 192.15 1254.3 193.8 1263.05 195.5 1270.95 195.2 1274.85 195.05 1277.05 194.55
L 1273.05 194.55
Q 1269.55 194.55 1265.8 194.3 1263.95 194.2 1262.7 194.2 1261.8 194.2 1260.55 194.05 1259.5 193.95 1257.75 193.2 1256.2 192.55 1254.55 192.55 1253.05 192.55 1249.2 191.5 1244.2 190.2 1240.3 189.55 1235.45 188.75 1232.75 189.35
L 1231.05 190.05 Z"/>
</g>

<g id="Layer0_32_FILL">
<path fill="#75B5B4" stroke="none" d="
M 1307.45 183.25
Q 1313.6888671875 180.0818359375 1319.25 176.95 1317.01875 178.14375 1312.8 179.55 1310.4 180.35 1307.25 182.2 1303.85 184.1 1302.05 184.8 1298.7 186.05 1294.45 188.05 1289.9 190.15 1291.05 190.05 1294.65 189.75 1307.45 183.25 Z"/>
</g>

<g id="Layer0_33_FILL">
<path fill="#75B5B4" stroke="none" d="
M 1365.05 117.8
Q 1363.65 118.6 1362.7 120.4
L 1362.05 122.05 1362.65 121.2
Q 1363.6 120.05 1365.3 118.8 1366.45 117.95 1370.95 116.4 1373.65 115.45 1371.3 115.3 1368.65 115.15 1366.6 116.45
L 1365.05 117.8 Z"/>
</g>

<g id="Layer0_34_FILL">
<path fill="#3C6162" stroke="none" d="
M 1232.6 197.35
L 1231.8 197.55 1233.6 198.7
Q 1235.9 199.8 1238.55 199.8 1241.2 199.8 1244.05 198.85 1245.6 198.3 1248.05 197.3 1249.65 196.75 1250.6 196.65 1251.35 196.55 1253.55 196.55 1254.4 196.55 1254.4 196.5 1254.2 196.4 1254.2 196.35 1254.15 196.25 1258.8 196.55 1262.3 196.75 1264.95 197.1 1266.4 197.3 1269.8 197.3 1272.3 197.3 1276.25 197.4 1278.15 197.45 1278.55 197.3 1278.9 197.2 1272.75 196.85 1264.9 196.45 1261.3 196.05 1254.55 195.3 1248.8 195.3
L 1243.3 195.3 1243.55 196.8
Q 1243.55 197.05 1243.35 197.25 1243 197.7 1242.05 197.55
L 1239.05 196.8 1240.3 198.3
Q 1240.1 198.6 1239.6 198.75 1238.6 199 1237.05 198.05
L 1234.55 196.55
Q 1233.6 197 1232.6 197.35 Z"/>
</g>

<g id="Layer0_35_FILL">
<path fill="#3C6162" stroke="none" d="
M 1354.3 147.8
Q 1356.15 143.2 1356.3 140.8 1356.45 138.45 1358.65 131.5
L 1360.8 125.05
Q 1360.45 125.5 1359.85 126.45 1358.75 128.4 1357.8 131.05 1356.3 135.3 1353.55 145.3 1353.4 147.3 1353.1 148.05 1352.8 148.75 1351.3 152.3 1348.65 159.3 1343.3 165.05 1341.4 167.1 1334.35 170.6 1324.9 175.3 1324.05 175.8 1320.5 177.95 1314 181.15 1308.1 184.05 1303.05 186.3 1299.15 188 1291.6 190.95
L 1284.8 193.55
Q 1281.1 195.15 1275.9 196.1 1272.3787109375 196.7572265625 1270.75 196.8
L 1273.8 196.8
Q 1276.05 196.8 1276.8 196.75 1276.9 196.75 1280.55 196.3 1282.55 196.05 1285.85 194.6 1288.95 193.2 1291.3 193.05 1294.2 192.9 1309.4 185 1318.8 180.15 1328.8 174.55 1347.05 164.35 1347.55 162.05 1347.85 160.75 1349.25 158.25 1351.15 154.9 1351.55 154.05 1353.65 149.45 1354.3 147.8 Z"/>
</g>

<g id="Layer0_36_FILL">
<path fill="#437879" stroke="none" d="
M 1306.8 275.3
Q 1305.5 273.85 1299.75 265.45 1294.85 258.25 1290.8 254.8 1286.05 250.7 1274.75 244.55 1264.75 239.1 1259.8 237.3 1258.25 236.75 1255.8 234.3 1252.8 231.2 1251.55 230.35 1245.85 226.35 1238.8 232.8 1235.75 235.6 1234 238.65 1233.05 240.35 1230.55 246.3 1229.6 248.6 1231.05 249.75 1232.2 250.7 1235.7 251.3 1249.3 253.7 1252.3 254.8 1258.55 257.05 1272.3 260.55 1283.8 264.1 1287.8 269.3 1293.85 277.2 1302 284.6 1311.9 293.6 1317.3 294.3 1321.3 294.8 1331.6 295.3 1341.25 296.45 1347.8 300.8 1354.8 305.45 1355.35 313.05 1355.8 318.8 1352.8 323.8 1348.75 330.55 1348.35 332.2 1347.15 337.2 1353.3 339.8 1359.25 342.3 1364.1 345.55 1366.55 347.2 1367.8 348.3 1366.7 346.55 1365 344.5 1361.6 340.35 1358.8 338.8 1355.1 336.75 1354.25 335.55 1353.1 333.95 1353.8 330.8 1354.25 328.9 1357.1 323.75 1360 318.65 1360.8 314.8 1361.75 310.45 1361.6 305.95
L 1361.3 302.3 1368.75 304.5
Q 1376.85 307.1 1380.3 309.3 1383.15 311.1 1392.6 312.05 1403.5 313.15 1408.3 314.8 1414.75 317.05 1419.45 320.75 1420.9 321.9 1425.3 326.3
L 1428.3 329.3
Q 1427.7 326.95 1425.95 324 1422.45 318.1 1416.8 315.3 1411.15 312.45 1402.75 310.7 1393.55 309.05 1389.8 308.3 1385.45 307.45 1377.05 303.25 1365.2 297.3 1362.8 296.3 1353.2 291.55 1348.3 289.25 1339.6 285.1 1333.8 284.8 1326.35 284.4 1318.45 281.75 1310.05 278.9 1306.8 275.3 Z"/>
</g>

<g id="Layer0_37_FILL">
<path fill="#75B5B4" stroke="none" d="
M 1317.3 294.3
Q 1321.3 294.8 1331.6 295.3 1341.25 296.45 1347.8 300.8 1354.8 305.45 1355.35 313.05 1355.8 318.8 1352.8 323.8 1348.75 330.55 1348.35 332.2 1347.15 337.2 1353.3 339.8 1359.25 342.3 1364.1 345.55 1366.55 347.2 1367.8 348.3 1366.7 346.55 1365 344.5 1361.6 340.35 1358.8 338.8 1355.1 336.75 1354.25 335.55 1353.1 333.95 1353.8 330.8 1354.25 328.9 1357.1 323.75 1360 318.65 1360.8 314.8 1361.75 310.45 1361.6 305.95
L 1361.3 302.3 1368.75 304.5
Q 1376.85 307.1 1380.3 309.3 1383.15 311.1 1392.6 312.05 1403.5 313.15 1408.3 314.8 1414.75 317.05 1419.45 320.75 1420.9 321.9 1425.3 326.3
L 1428.3 329.3
Q 1427.7 326.95 1425.95 324 1422.45 318.1 1416.8 315.3 1411.15 312.45 1402.75 310.7 1393.55 309.05 1389.8 308.3 1385.45 307.45 1377.05 303.25 1365.2 297.3 1362.8 296.3 1353.2 291.55 1348.3 289.25 1339.6 285.1 1333.8 284.8 1326.35 284.4 1318.45 281.75 1310.05 278.9 1306.8 275.3 1305.5 273.85 1299.75 265.45 1294.85 258.25 1290.8 254.8 1286.05 250.7 1274.75 244.55 1264.75 239.1 1259.8 237.3 1258.45 236.85 1254.05 232.5 1250.25 228.75 1246.95 228.75 1244.4 228.75 1241.4 230.75 1242.2 230.7 1243.8 230.8 1244.5 230.9 1245.1 231.1 1246.25 230.75 1246.95 230.75 1248.7 230.75 1250.55 232.1 1251.7 232.95 1253.8 235.1 1255.5 236.85 1256.35 237.55 1257.75 238.75 1259.1 239.2 1263.8 240.9 1273.65 246.25 1284.85 252.35 1289.5 256.35 1292.2 258.65 1295.1 262.45 1296.7 264.5 1299.85 269.15 1303.45 274.6 1305.3 276.65 1308.95 280.7 1317.8 283.65 1325.9 286.4 1333.7 286.8 1337.85 287.05 1343.3 289.2 1346.55 290.55 1353.1 293.85 1358.8 296.8 1362.05 298.15 1365.55 299.65 1372.65 303.3
L 1376.3 305.1
Q 1372.35 303.5 1366.9 301.85 1363.1 300.7 1361.8 300.4
L 1358.8 299.6 1359.35 302.7
Q 1359.35 302.75 1359.65 306.15 1359.75 310.35 1358.85 314.4 1358.25 317.4 1356.15 321.35 1358.2 315.7 1357.05 310.4 1355.55 303.55 1348.9 299.15 1343.3 295.4 1335.95 293.95 1331.7 293.1 1323.7 292.75 1319.45 292.55 1317.55 292.35 1312.95 291.75 1303.75 283.5 1295.5 276.1 1289.4 268.1 1286.05 263.8 1278.8 260.75 1274.5 259 1264.6 256.35 1256.3 254.15 1253 252.95 1248.2 251.25 1239.25 249.85 1232.65 248.9 1232.15 248.1 1232.15 247.65 1232.4 247.1
L 1233.2 245.2
Q 1232.25 244.45 1231.8 243.4
L 1230.55 246.3
Q 1229.6 248.6 1231.05 249.75 1232.2 250.7 1235.7 251.3 1249.3 253.7 1252.3 254.8 1258.55 257.05 1272.3 260.55 1283.8 264.1 1287.8 269.3 1293.85 277.2 1302 284.6 1311.9 293.6 1317.3 294.3
M 1350.3 334.8
Q 1349.65 332.6 1352.85 327.5 1352.1 329.05 1351.85 330.4 1350.8 335.25 1353.5 337.7 1350.85 336.5 1350.3 334.8
M 1384.9 309
Q 1382.7 308.45 1381.4 307.65
L 1380.75 307.25
Q 1383 308.3 1384.9 309 Z"/>
</g>

<g id="Layer0_38_FILL">
<path fill="#75B5B4" stroke="none" d="
M 1255.8 245.55
Q 1256.85 246.6 1258.1 247.1 1259.05 247.5 1262.3 248.3 1266.55 249.35 1269.3 250.25 1274 251.75 1279.3 254.05 1284.3 256.25 1290.8 262.6 1294.05 265.8 1296.3 268.55 1296.05 267.55 1293.8 264.55 1292.35 262.6 1290.85 261.25 1288.8 259.55 1287.3 258.3 1285.45 256.75 1281.6 254.05 1277.3 251.05 1275.55 249.8 1273.5 248.35 1272.05 247.75 1269.45 246.75 1268.55 246.3 1265 244.05 1262.85 242.75 1258.95 240.3 1255.3 239.55 1251.55 238.75 1249.05 239.1
L 1247.3 239.55 1248.55 237.3 1245.8 237.3
Q 1244.1 237.3 1241.15 238.45
L 1238.55 239.55
Q 1237.3 242.5 1237.3 244.2 1237.3 245.05 1237.55 245.3
L 1238.1 244.45
Q 1238.9 243.3 1240.3 242.05 1242.55 240.05 1243.55 240.3
L 1240.8 244.05 1242.55 242.8
Q 1243.65 242 1246.8 241.35 1248.3 241.05 1248.8 241.05 1248 241.2 1246.85 242.5
L 1245.8 243.8 1248.25 243.5
Q 1250.85 243.1 1251.8 242.8 1252.75 242.5 1253.8 243.45 1254.45 244 1255.8 245.55 Z"/>
</g>

<g id="Layer0_39_FILL">
<path fill="#75B5B4" stroke="none" d="
M 1315.6 286.5
Q 1319.9 288.35 1327.55 288.8 1335.9 289.3 1340.4 290.45 1343.6 291.2 1346.3 292.8 1349.3 294.55 1352.05 296.55 1351.1 295.55 1349.1 294.2 1345.1 291.45 1339.8 289.55 1333.55 287.55 1328.8 287.55 1325 287.7 1323.75 287.7 1321.95 287.7 1320.05 287.05
L 1312.8 284.8 1315.6 286.5 Z"/>
</g>

<g id="Layer0_40_FILL">
<path fill="#3C6162" stroke="none" d="
M 1239.95 246.35
Q 1238.5060546875 247.3361328125 1237.5 247.15
L 1238.55 247.65
Q 1241.7 248.7 1248.55 249.8 1254.85 250.8 1258.8 252.25 1263.35 253.9 1265.3 254.3 1273.8 256.1 1280.8 259.8 1284.55 261.8 1286.8 262.8 1284.25 260.95 1280.5 258.8 1273 254.55 1267.05 253.3 1261.7 252.15 1256.95 250.1 1252.6 248.25 1251.3 248.05 1249.7 247.8 1247.85 247.9 1246.6 247.95 1245.55 247.55 1244.3 247.1 1242.95 245.9
L 1241.8 244.8
Q 1241 245.7 1239.95 246.35 Z"/>
</g>

<g id="Layer0_41_FILL">
<path fill="#3C6162" stroke="none" d="
M 1299.85 269.15
L 1299.4 271.7
Q 1298.45 274.1 1295.8 273.3
L 1307.8 284.8
Q 1311.95 288.95 1312.7 289.5 1314.65 291.05 1316.8 291.05 1317.1 291.05 1320.5 290.95 1322.45 290.9 1325.3 291.05 1330.05 291.3 1331.3 291.3 1319.05 290.8 1316.55 290.05 1315.05 289.6 1311.95 286.25 1307.45 281.45 1307.3 281.3 1305.05 279.5 1304.35 278.85 1303.2 277.9 1303.05 276.8 1302.9 275.8 1302.25 274.5 1301.3 272.75 1301.05 272.05
L 1299.85 269.15 Z"/>
</g>

<g id="Layer0_42_FILL">
<path fill="#3C6162" stroke="none" d="
M 1330.95 292.95
Q 1329.48125 292.55 1328.55 292.55
L 1325.3 292.55 1330.95 292.95
M 1332.95 293.1
L 1330.95 292.95
Q 1332.0126953125 293.2484375 1333.35 293.75 1336.9 295.05 1339.3 295.3 1343.05 295.7 1346 297.35 1349.35 299.25 1353.3 303.55 1356.75 307.3 1356.8 314.7 1356.8 318.4 1356.15 321.35 1358.3 317.05 1359.55 313.55 1360.35 311.35 1359.9 306.8
L 1359.35 302.7 1357.8 305.8
Q 1356.6 308.25 1353.8 301.55 1353 299.65 1349.4 297.85 1344.9 295.85 1342.8 294.8 1340.95 293.85 1332.95 293.1 Z"/>
</g>

<g id="Layer0_43_FILL">
<path fill="#437879" stroke="none" d="
M 1121.8 194.7
L 1122.65 192.3
Q 1121.9 193.15 1121.05 194.45 1119.4 197 1118.95 199.3 1118.4 202.35 1117.65 203 1116.45 203.95 1111.3 204.65 1105.85 205.4 1103.3 207.5 1100.8 209.5 1100.3 213.3 1100 215.65 1100.9 220.15 1101.65 224.05 1100.95 226 1098.45 232.95 1100.65 237.65 1101.7 239.95 1103.75 241.2 1104.8 241.85 1105.65 242
L 1104.3 242.3
Q 1100.4 243.3 1098.3 243.7 1092.5 244.75 1088.3 244.3 1084.35 243.9 1080.8 241.95 1073.25 237.75 1072.3 237.3 1067.25 235 1065.75 227.75 1065.15 220.15 1064.95 218.65 1064.7 216.05 1063.3 214.25 1061.55 211.9 1057.65 210.3 1054.1 208.85 1049.35 210.1
L 1045.3 211.65 1047.45 211.5
Q 1050.2 211.3 1053.3 211.3 1056.7 211.3 1058.15 212.95 1058.9 213.85 1060.95 218.65 1062.25 221.6 1062.5 228.55 1062.75 235.45 1063.3 236.65 1064.15 238.55 1069.3 241.8 1071.9 243.4 1074.3 244.65 1071.65 245 1064.65 245 1059.15 245 1056.9 245.3 1054.15 245.65 1047.65 247.3 1041.8 248.85 1037.2 253.65 1035.05 255.9 1030.95 262 1029.25 264.6 1020.35 265.85 1009.95 267.25 1005.95 269.65 1000.75 272.75 998.6 275.9 997.65 278.15 997.95 277.65 999.85 274.9 1005.65 271.65 1010.1 269.1 1011.85 268.6 1015.55 267.55 1024.3 267.3 1032.7 267.1 1033.8 266.3 1034.2 266 1034.4 265 1034.7 263.85 1035.3 263 1036.5 261.35 1038.45 257.8 1040.7 254.6 1045.3 252.3 1050.65 249.65 1059 248.35 1066.95 247.15 1073.95 247.65 1078.45 248 1085.5 249.45 1092.1 250.5 1099.3 249.3 1105.8 248.2 1110.9 246.3 1115.5 244.6 1118.3 244.3 1126.25 243.5 1143.65 247.65 1149.05 248.95 1151.85 248.8 1152.15 248.8 1156.3 248 1158.6 247.5 1158.8 246.25 1158.9 245.75 1158.3 241 1157.5 234.35 1149.95 232.3 1147.25 231.55 1144.5 232.35 1141.8 233.15 1138.3 235.65 1135.85 237.45 1129.75 237.75 1122.7 238.1 1119.65 239.3 1114.65 241.3 1112.5 241.45 1110.35 241.55 1108.3 240 1105.5 237.9 1104.4 234.65 1103.4 231.85 1103.95 229.3 1105.5 222.7 1103.65 218.65 1101.9 214.85 1104.65 209.3 1105.3 208.05 1109.9 206.8 1112.4 206.15 1116.65 205.3 1120.95 204.35 1120.95 199.3 1120.95 197.45 1121.8 194.7 Z"/>
</g>

<g id="Layer0_44_FILL">
<path fill="#75B5B4" stroke="none" d="
M 1122.65 192.3
Q 1121.9 193.15 1121.05 194.45 1119.4 197 1118.95 199.3 1118.4 202.35 1117.65 203 1116.45 203.95 1111.3 204.65 1105.85 205.4 1103.3 207.5 1100.8 209.5 1100.3 213.3 1100 215.65 1100.9 220.15 1101.65 224.05 1100.95 226 1098.45 232.95 1100.65 237.65 1101.7 239.95 1103.75 241.2 1104.8 241.85 1105.65 242
L 1104.3 242.3
Q 1096.05 244.45 1090.85 244.45 1089.6 244.45 1088.3 244.3 1084.35 243.9 1080.8 241.95 1073.25 237.75 1072.3 237.3 1067.25 235 1065.75 227.75 1065.15 220.15 1064.95 218.65 1064.7 216.05 1063.3 214.25 1061.55 211.9 1057.65 210.3 1055.75 209.55 1053.45 209.55 1050.75 209.55 1047.75 210.6
L 1045.3 211.65 1047.45 211.5
Q 1050.2 211.3 1053.3 211.3 1056.7 211.3 1058.15 212.95 1058.9 213.85 1060.95 218.65 1062.25 221.6 1062.5 228.55 1062.75 235.45 1063.3 236.65 1064.15 238.55 1069.3 241.8 1071.9 243.4 1074.3 244.65 1071.65 245 1064.65 245 1059.15 245 1056.9 245.3 1054.15 245.65 1047.65 247.3 1041.8 248.85 1037.2 253.65 1035.05 255.9 1030.95 262 1029.25 264.6 1020.35 265.85 1009.95 267.25 1005.95 269.65 1001.2 272.5 998.95 275.4 997.1 277.8 997.8 277.8
L 997.95 277.65
Q 999.85 274.9 1005.65 271.65 1010.1 269.1 1011.85 268.6 1015.55 267.55 1024.3 267.3 1032.7 267.1 1033.8 266.3 1034.2 266 1034.4 265 1034.7 263.85 1035.3 263 1036.5 261.35 1038.45 257.8 1040.7 254.6 1045.3 252.3 1049.9 250.05 1056.8 248.75 1063.4 247.5 1069.9 247.5 1072 247.5 1073.95 247.65 1076.85 247.85 1082.85 249 1088 250 1091.75 250 1095.25 250 1099.3 249.3 1105.8 248.2 1110.9 246.3 1115.5 244.6 1118.3 244.3
L 1121.05 244.2
Q 1128.95 244.2 1143.65 247.65 1148.5 248.85 1151.2 248.85 1152.5 248.85 1153.85 248.55 1154.65 248.4 1156.3 248 1157.75 247.7 1158.25 247.25 1158.8 246.75 1158.85 245.8
L 1157.85 245.75
Q 1157.8 246.4 1157.45 246.6 1157.15 246.8 1156.1 247
L 1154.6 247.35
Q 1152.5 247.85 1151.2 247.85 1148.9 247.85 1143.85 246.7 1129.4 243.2 1121.05 243.2 1119.5 243.2 1118.2 243.35 1115.3 243.65 1111.25 245.15 1105.85 247.2 1099.15 248.35 1095.25 249 1091.75 249 1087.9 249 1082.05 247.85 1077.6 246.95 1074.05 246.65 1072.1 246.5 1069.9 246.5 1063 246.5 1056.15 247.85 1049.35 249.2 1044.85 251.45 1041 253.35 1038.7 255.85 1037.4 257.3 1035.85 260.1 1035.3 261.2 1034.5 262.4 1033.85 263.35 1033.45 264.85 1033.35 265.4 1033.25 265.5 1033.15 265.6 1032.6 265.75 1031.05 266.15 1024.3 266.3
L 1023.6 266.35
Q 1026.75 265.8 1028.55 265.05 1030.75 264.1 1031.8 262.55
L 1032.45 261.55
Q 1036 256.25 1038.4 253.85 1042.6 249.7 1047.9 248.3 1054.3 246.65 1056.95 246.3 1059.2 246 1064.65 246 1071.6 246 1074.45 245.65
L 1077.65 245.25 1074.75 243.75
Q 1071.45 242.05 1068.45 240.05 1064.8 237.6 1064.2 236.25 1063.75 235.15 1063.55 229.9 1063.45 225.9 1063.2 223.8 1062.85 220.4 1061.9 218.25
L 1061.3 216.85
Q 1060.2 214.45 1059.85 213.8 1059.1 212.4 1058.25 211.7 1061.35 213.15 1062.7 215.1 1063.75 216.55 1064 218.75
L 1064.05 220.55
Q 1064.25 226.45 1065.25 229.85 1067.1 236.05 1071.9 238.25 1074.9 239.6 1078.45 241.75 1081.35 243.45 1082.8 244.05 1085.2 245 1088.2 245.3 1089.5 245.45 1090.85 245.45 1096.3 245.45 1104.1 243.4
L 1109.75 242
Q 1110.9 242.45 1112.1 242.45 1114.55 242.45 1120 240.25 1123.1 239.05 1129.1 238.75 1132.65 238.6 1134.3 238.3 1137.05 237.8 1138.9 236.45 1143.85 232.95 1147.3 232.95 1148.6 232.95 1149.7 233.3 1152.45 234.05 1154.2 235.45
L 1155.9 235.65
Q 1153.85 233.4 1149.95 232.3 1148.4 231.95 1147.3 231.95 1143.55 231.95 1138.3 235.65 1135.85 237.45 1129.75 237.75 1122.7 238.1 1119.65 239.3 1114.3 241.45 1112.1 241.45 1110.2 241.45 1108.3 240 1105.5 237.9 1104.4 234.65 1103.4 231.85 1103.95 229.3 1105.5 222.7 1103.65 218.65 1101.9 214.85 1104.65 209.3 1105.3 208.05 1109.9 206.8 1112.4 206.15 1116.65 205.3 1120.95 204.35 1120.95 199.3 1120.95 197.45 1121.8 194.7
L 1122.65 192.3
M 1107.85 206.35
Q 1104.4 207.5 1103.75 208.9 1100.8 214.8 1102.75 219.05 1104.4 222.75 1103 229.1 1102.4 231.9 1103.45 235 1104.7 238.5 1107.7 240.8 1108.7 241.5 1109.15 241.7
L 1105.85 241
Q 1102.95 240.35 1101.55 237.25 1099.6 232.9 1101.9 226.35 1102.45 224.9 1102.3 223.05 1102.25 221.95 1101.8 219.65 1101 215.65 1101.3 213.45 1101.7 210.8 1102.95 209.25 1104.5 207.35 1107.85 206.35 Z"/>
</g>

<g id="Layer0_45_FILL">
<path fill="#75B5B4" stroke="none" d="
M 1075.45 244.8
Q 1074.15 244.95 1073.2 245.1 1071.4 245.4 1073.45 245.5 1076.8 245.65 1085.65 246.65
L 1081.45 245.8
Q 1079.2 245.35 1077.4 245.15 1076.05 244.95 1075.45 244.8 Z"/>
</g>

<g id="Layer0_46_FILL">
<path fill="#75B5B4" stroke="none" d="
M 1124.15 240.65
Q 1122.3 240.85 1118.05 242.05
L 1114.15 243.15 1115.65 242.8
Q 1117 242.55 1122.55 242.05 1128.55 241.55 1130.45 241.65 1133.05 241.8 1136.45 241 1140.3 240 1141.65 240 1142.6 240 1143.3 239.7 1143.75 239.55 1144.45 239.15 1144.95 238.95 1145.35 239.1 1146.1 239.45 1146.45 239.5 1147.2 239.6 1147.6 239.5 1147.9 239.4 1148.95 239
L 1149.6 238.8
Q 1149.2 239 1149.45 239 1149.95 239 1150.3 240.65
L 1150.65 239.8
Q 1150.85 239.3 1150.9 238.5
L 1150.95 237.8 1152.15 240 1152.15 238.65
Q 1152.15 237.8 1152.05 237.4
L 1151.95 237.15 1153.55 238.05
Q 1154.794921875 238.7890625 1154.95 239.45
L 1154.95 238.5
Q 1154.95 237.6 1154.6 237.3 1153.75 236.65 1152.65 235.8 1151.3 234.75 1149.6 234.6
L 1148.15 234.65 1148.95 235.5
Q 1149.8 236.3 1149.45 237.15
L 1147.95 236.3
Q 1147 235.8 1145.5 235.7
L 1144.15 235.65 1144.8 236.15
Q 1145.45 236.65 1145.95 238
L 1142.15 236.8
Q 1142.15 237.5 1141.3 238.8 1140.75 239.65 1139.4 239.8 1137.9 239.8 1137.3 239.8 1136.25 239.8 1135.7 239.9 1134.85 240.05 1133.95 240.5 1133.15 240.9 1131.75 240.8 1130.05 240.65 1129.15 240.65
L 1124.15 240.65 Z"/>
</g>

<g id="Layer0_47_FILL">
<path fill="#75B5B4" stroke="none" d="
M 1107.3 244.5
Q 1103.8 245.15 1102.3 245.8 1101.65 246.1 1100.3 246.1 1097.65 246 1094.8 246 1091.25 246 1089 246.25
L 1087.45 246.5 1089.4 246.65
Q 1091.7 246.8 1093.15 246.8 1094.3 246.8 1098.6 246.8 1102.7 246.65 1104.45 245.8
L 1107.3 244.5 Z"/>
</g>

<g id="Layer0_48_FILL">
<path fill="#75B5B4" stroke="none" d="
M 1074.8 240.15
L 1069.45 238.8
Q 1069.8 239.05 1070.25 239.7 1070.75 240.2 1071.65 240.3 1073.35 240.55 1075.3 241.3 1076.95 242 1078.3 242.8 1078.95 243.15 1079.95 243.3 1076.8 240.65 1074.8 240.15 Z"/>
</g>

<g id="Layer0_49_FILL">
<path fill="#3C6162" stroke="none" d="
M 1127.95 243.65
L 1133.15 244.25
Q 1138.95 244.95 1141.65 245.5 1145.95 246.3 1149.8 246.3 1153.95 246.3 1155.65 245.8 1156.8 245.5 1157 245.35 1157.5 245 1157.65 244 1157.95 242.6 1158.05 241.95 1158.2 240.8 1157.8 240
L 1157.15 238.65 1157.45 240.15
Q 1157.6 241.8 1156.65 242.65
L 1155.15 244
Q 1156.45 242 1156.15 241.15 1155.45 241.65 1152.45 242.3 1150.5 242.85 1150.15 242.9 1149.75 243 1148.3 243 1147.15 243 1146.6 242.85 1146.15 242.75 1145.15 242.8 1144.55 242.85 1143.65 243.05 1143.2 243.15 1141.65 243.15 1139.6 243.1 1138.8 243.1 1137.5 243.1 1135.3 243.3 1131.8 243.65 1129.45 243.65
L 1127.95 243.65 Z"/>
</g>

<g id="Layer0_50_FILL">
<path fill="#437879" stroke="none" d="
M 1321.25 -10.95
Q 1320 -12.6 1314.95 -15.95 1311.85 -18.05 1307.95 -17.2
L 1304.65 -15.95 1308.95 -15.95
Q 1313.15 -15.95 1317.25 -11.55 1322.3 -6.15 1322.3 2.3 1322.3 11.9 1320.95 15.1 1319.6 18.4 1314.65 20.65 1309.2 23.1 1307.25 24.95 1304.8 27.25 1303.65 32 1302.5 36.45 1299.4 39.05 1297.75 40.4 1291.65 43.65 1287.7 45.75 1284.4 48.6
L 1281.95 51 1281.95 37.65
Q 1281.95 31.4 1281.85 29.1 1281.75 27.45 1280.95 18 1280.35 10.5 1275.45 4.05
L 1270.65 -0.95 1275.3 7
Q 1278.95 13.3 1279.2 14.1 1279.55 15.45 1279.3 22.65 1279.2 25.75 1277.85 45.9 1276.65 63.75 1276.65 70.65 1276.65 77.8 1273.2 88.55 1269.35 100.7 1269.3 101 1268.9 103.9 1261.85 108.5 1252.15 114.35 1246.65 118 1240.05 122.4 1232.8 134.9 1226.15 147.65 1223.95 150.3 1220 155.25 1218.2 159.55 1215.75 165.45 1216.65 171.3 1217.5 176.95 1221.6 180.1 1223.95 181.9 1227.95 183 1233.3 184.45 1234.95 179.4 1235.4 178.1 1235.95 171.3 1236.35 167.2 1239.65 151.65 1241.05 144.75 1246.95 134.3 1248.55 131.5 1255 125.55
L 1264.95 116.3
Q 1267.65 113.65 1272.35 109.05 1275.9 105.45 1276.95 103.3 1278.05 101.15 1279.2 94.15 1279.65 91.6 1280.95 82 1281.55 77.4 1281.5 69.65 1281.3 62.3 1281.3 61.3 1281.3 59.95 1283.3 57.55 1284.55 56.05 1288.3 52.3 1290.65 49.95 1294.6 48.1 1300.55 45.3 1301.65 44.65 1305.05 42.6 1307.25 37.95 1309 34.3 1309.65 30 1310.05 27.1 1314.9 24.5 1317.55 23.1 1321.95 21 1324.05 19.6 1324.5 14.3 1324.85 10.15 1324.3 0.3 1323.85 -7.4 1321.25 -10.95 Z"/>
</g>

<g id="Layer0_51_FILL">
<path fill="#75B5B4" stroke="none" d="
M 1315.7 -14.3
Q 1319.6 -11.8 1320.9 -9.7 1322.95 -6.45 1323.3 0.4 1323.8 9.3 1323.55 13.25 1323.25 18.95 1321.4 20.15 1320.55 20.75 1318.1 21.85 1313.9 23.75 1312.1 25.05 1309 27.25 1308.65 29.85 1308.05 34.1 1306.3 37.7 1304.2 41.95 1301.1 43.8 1299.6 44.75 1295.95 46.4 1293.1 47.65 1291.65 48.5 1289.4 49.8 1287.6 51.6 1283.6 55.65 1282.3 57.2 1280.3 59.65 1280.3 61.3
L 1280.35 63.4
Q 1280.8 75.95 1280 81.85
L 1279.75 83.7
Q 1278.65 91.6 1278.1 94.75 1277.05 100.95 1276.1 102.9 1275.3 104.5 1272.95 107 1271.7 108.35 1267.9 112.05
L 1264.25 115.6
Q 1263.4 116.45 1258.15 121.35 1253.15 125.85 1250.95 128.05 1247.35 131.6 1246.1 133.85 1240.15 144.2 1238.65 151.45 1235.35 167.15 1235 171.25
L 1234.9 172.85
Q 1234.65 177.4 1233.9 179.4 1232.85 182.35 1230.2 182.35
L 1229.3 182.25 1227.8 182.95 1227.95 183
Q 1229.45 183.35 1230.2 183.35 1234 183.35 1235.2 178.6 1235.35 178.05 1235.95 171.3 1236.35 167.2 1239.65 151.65 1241.05 144.75 1246.95 134.3 1248.55 131.5 1255 125.55
L 1264.95 116.3
Q 1267.65 113.65 1272.35 109.05 1275.9 105.45 1276.95 103.3 1278.05 101.15 1279.2 94.15 1279.65 91.6 1280.95 82 1281.55 77.4 1281.5 69.65 1281.3 62.3 1281.3 61.3 1281.3 59.95 1283.3 57.55 1284.55 56.05 1288.3 52.3 1290.65 49.95 1294.6 48.1 1300.55 45.3 1301.65 44.65 1305.05 42.6 1307.25 37.95 1309 34.3 1309.65 30 1310.05 27.1 1314.9 24.5 1317.55 23.1 1321.95 21 1324.05 19.6 1324.5 14.3 1324.85 10.15 1324.3 0.3 1323.85 -7.4 1321.25 -10.95 1320 -12.6 1314.95 -15.95 1312.7 -17.45 1310.05 -17.45 1308.15 -17.45 1306.2 -16.7
L 1304.65 -15.95 1308.95 -15.95
Q 1313.15 -15.95 1317.25 -11.55 1322.3 -6.15 1322.3 2.3 1322.3 11.9 1320.95 15.1 1319.6 18.4 1314.65 20.65 1309.2 23.1 1307.25 24.95 1304.8 27.25 1303.65 32 1302.5 36.45 1299.4 39.05 1297.75 40.4 1291.65 43.65 1287.7 45.75 1284.4 48.6
L 1281.95 51 1281.95 37.65
Q 1281.95 31.4 1281.85 29.1 1281.75 27.45 1280.95 18 1280.35 10.5 1275.45 4.05
L 1270.65 -0.95 1275.3 7
Q 1278.95 13.3 1279.2 14.1 1279.55 15.45 1279.3 22.65 1279.2 25.75 1277.85 45.9 1276.65 63.75 1276.65 70.65 1276.65 77.8 1273.2 88.55 1269.35 100.7 1269.3 101 1268.9 103.9 1261.85 108.5 1252.15 114.35 1246.65 118 1240.05 122.4 1232.8 134.9 1226.15 147.65 1223.95 150.3 1220 155.25 1218.2 159.55 1215.75 165.45 1216.65 171.3 1217 173.65 1217.95 175.65 1217.9 174.5 1218.05 173 1217.75 171.95 1217.65 171.15 1216.75 165.45 1219.2 159.7 1220.9 155.7 1224.75 150.95 1226.05 149.3 1229.85 142.4 1234.4 133.9 1237.35 129.5 1242.35 122.05 1247.2 118.8 1249.7 117.15 1256.25 113.15 1263.5 108.75 1266 106.8 1269.95 103.7 1270.3 101.15 1270.5 99.75 1272.35 94.35 1274.8 87.35 1275.85 83.2 1277.65 76.1 1277.65 70.65 1277.65 63.45 1279.25 40.3 1280.2 25.8 1280.3 22.7
L 1280.3 22.2
Q 1280.8 27.95 1280.85 30.05 1280.95 32 1280.95 37.65
L 1280.95 53.75 1285.15 49.3
Q 1288.3 46.55 1292.1 44.55
L 1293.35 43.9
Q 1298.55 41.2 1300.45 39.5 1303.5 36.75 1304.6 32.25 1305.7 27.85 1307.95 25.7 1309.75 23.95 1315.05 21.55 1320.45 19.1 1321.95 15.3 1323.3 11.95 1323.3 2.3 1323.3 -3.3 1321 -7.85 1319 -11.8 1315.7 -14.3 Z"/>
</g>

<g id="Layer0_52_FILL">
<path fill="#75B5B4" stroke="none" d="
M 1280.95 53.75
Q 1282.15 52.15 1281.95 51 1279.3 53.4 1279.3 55.8
L 1279.3 57.5
Q 1279.45 56.95 1279.7 56.25 1280.25 54.75 1280.95 53.75 Z"/>
</g>

<g id="Layer0_53_FILL">
<path fill="#75B5B4" stroke="none" d="
M 1279.15 72.65
L 1279.15 65.3 1278.65 67.9
Q 1278.15 70.8 1278.15 72.15 1278.15 79.15 1277.45 81 1274.8 88.35 1274.65 90.3 1274.55 91.5 1273.6 93.4 1272.4 95.85 1272.3 96.15 1271.85 97.55 1271.7 98.9 1271.6 100.65 1272.15 101.3
L 1272.95 102.3
Q 1272.8 101.85 1272.7 101.2 1272.55 99.95 1272.95 99
L 1273.65 97.5 1274.25 97.3
Q 1274.95 96.95 1275.45 96.3
L 1276.3 95.3
Q 1275.95 95.6 1275.55 95.65 1274.85 95.75 1274.95 94.5 1275.1 93.25 1275.45 92.1 1275.9 90.85 1276.15 90 1277.45 84 1277.95 82.65 1278.35 81.6 1278.75 78.25 1279.15 74.85 1279.15 72.65 Z"/>
</g>

<g id="Layer0_54_FILL">
<path fill="#75B5B4" stroke="none" d="
M 1248.95 118.65
Q 1246.7 120.4 1244.9 121.9 1241.45 124.8 1240.65 126.65 1240.3 127.4 1239.2 128.35 1238.15 129.25 1235.8 134.5 1233.65 139.35 1231.5 141.75 1229.8 143.6 1229.3 145.5 1229.3 145.6 1228.5 149.9 1228.2 151.5 1226.8 153.3 1224.3 156.45 1224.15 156.7 1223.3 158.05 1223.3 159.5 1223.3 161.65 1223.45 163.3 1223.45 163.8 1222.9 163.55 1222.3 163.3 1221.95 162.3
L 1221.45 160.8 1221.3 162.05
Q 1221.2 163.65 1221.65 165.5
L 1222.3 168.5
Q 1220.8 168 1220.65 166.65
L 1220.45 164.65 1219.35 167.2
Q 1218.65 170.2 1220.95 172.15 1224.65 175.3 1225.8 175.3 1225.4 175.05 1224.95 174.55 1224.1 173.5 1223.95 172.15 1223.85 171 1224 170.3 1224.15 169.4 1224.15 168.3 1224.15 167.15 1224.1 166.55 1224.05 166.35 1224.15 166 1224.2 165.1 1224.3 164.75 1224.45 164.05 1225.3 164.5 1226 164.85 1226.3 165.6 1226.4 165.85 1226.65 165.15 1226.95 164.35 1227 163.05 1227.1 161.3 1227.15 161 1227.15 160.85 1226.65 159.7 1226.25 158.8 1227.15 156.65 1227.85 154.9 1229.15 153.05 1230.05 151.7 1230.15 150.65 1230.3 148.45 1230.55 147.4 1231.05 145.4 1232.15 144 1233 142.9 1234.55 141.15 1235.75 139.65 1235.95 138 1236.4 134.6 1239.45 130.5 1240.25 129.4 1241.05 128 1242.1 126.2 1242.8 125.15 1244.45 122.65 1248.95 118.65 Z"/>
</g>

<g id="Layer0_55_FILL">
<path fill="#3C6162" stroke="none" d="
M 1274.45 102.8
Q 1271.8 106 1270.15 107.5 1263.3 113.5 1261.3 114.65 1260.1 115.35 1258.25 117.2 1255.65 119.85 1255.45 120 1254.35 121 1252.65 121.8 1251.7 122.3 1249.45 123.15 1248.05 123.7 1247.8 124.1
L 1247.8 125
Q 1247.8 125.8 1247.4 126.8 1246.85 128.1 1245.95 128.65 1245.25 129.1 1244 131.15 1242.75 133.2 1242.3 133.5
L 1239.15 136 1239.3 136.05
Q 1239.45 136.3 1239.45 137.15 1239.45 138.4 1239.35 139 1239.15 139.9 1238.45 140.8 1237.85 141.65 1237.35 142.9 1237.1 143.55 1236.95 144
L 1237.2 144.7
Q 1237.4 145.55 1237.3 146.15 1237.25 146.65 1236.4 152.1 1235.35 157.65 1233.95 159.3 1232.6 161 1232 164.2 1231.7 165.95 1231.3 168.8 1231.05 170 1230.85 171.6 1230.65 172.95 1229.8 174.5 1229.35 175.3 1228.95 177.7 1228.7 179 1227.45 179
L 1224.3 179 1225.85 179.85
Q 1227.75 180.6 1229.3 180.3 1231.5 179.85 1232.4 178.85 1233.65 177.45 1233.65 174.15 1233.65 169.3 1234.65 163.15 1234.9 161.4 1236.8 155.3 1237.3 153.7 1238.1 148.85 1238.8 144.4 1239.15 143.65 1239.4 143 1241.65 140 1243.9 136.85 1244.65 135.3 1246.5 131.35 1246.75 130.85 1248.2 128.2 1250.15 126.5 1251.5 125.3 1254.55 123.05 1257.1 121.15 1258.15 120 1260.15 117.8 1265.3 113.5
L 1272.8 105.8
Q 1274.45 104.15 1274.45 102.8 Z"/>
</g>

<g id="FlashAICB_Layer_17__Path__5_0_Layer0_0_FILL">
<path fill="url(#Gradient_8)" stroke="none" d="
M 39.25 19.65
Q 39.25 11.5 33.5 5.75 27.75 0 19.6 0 11.45 0 5.75 5.75 0 11.5 0 19.65 0 27.8 5.75 33.5 11.45 39.25 19.6 39.25 27.75 39.25 33.5 33.5 39.25 27.8 39.25 19.65 Z"/>
</g>

<g id="FlashAICB_Layer_17__Path__4_0_Layer0_0_MEMBER_0_FILL">
<path fill="url(#Gradient_9)" stroke="none" d="
M 25 12.5
Q 25 7.35 21.35 3.65 17.7 0 12.5 0 7.35 0 3.65 3.65 0 7.35 0 12.5 0 17.7 3.65 21.35 7.3 25 12.5 25 17.7 25 21.35 21.35 25 17.7 25 12.5 Z"/>
</g>

<g id="FlashAICB_Layer_17__Path__4_0_Layer0_0_MEMBER_1_FILL">
<path fill="url(#Gradient_10)" stroke="none" d="
M 25 12.5
Q 25 7.35 21.35 3.65 17.7 0 12.5 0 7.35 0 3.65 3.65 0 7.35 0 12.5 0 17.7 3.65 21.35 7.3 25 12.5 25 17.7 25 21.35 21.35 25 17.7 25 12.5 Z"/>
</g>

<g id="FlashAICB_Layer_17__Path__3_0_Layer0_0_FILL">
<path fill="url(#Gradient_11)" stroke="none" d="
M 19.9 9.95
Q 19.9 5.85 17 2.9 14.1 0 9.95 0 5.85 0 2.9 2.9 0 5.85 0 9.95 0 14.1 2.9 17.05 5.8 19.95 9.95 19.95 14.1 19.95 17 17.05 19.9 14.1 19.9 9.95 Z"/>
</g>

<g id="FlashAICB_Layer_17__Path__2_0_Layer0_0_MEMBER_0_FILL">
<path fill="url(#Gradient_12)" stroke="none" d="
M 12.7 6.35
Q 12.7 3.75 10.85 1.85 9 0 6.35 0 3.75 0 1.85 1.85 0 3.75 0 6.35 0 9 1.85 10.85 3.75 12.7 6.35 12.7 9 12.7 10.85 10.85 12.7 9 12.7 6.35 Z"/>
</g>

<g id="FlashAICB_Layer_17__Path__2_0_Layer0_0_MEMBER_1_FILL">
<path fill="url(#Gradient_13)" stroke="none" d="
M 12.7 6.35
Q 12.7 3.75 10.85 1.85 9 0 6.35 0 3.75 0 1.85 1.85 0 3.75 0 6.35 0 9 1.85 10.85 3.75 12.7 6.35 12.7 9 12.7 10.85 10.85 12.7 9 12.7 6.35 Z"/>
</g>

<g id="FlashAICB_Layer_17__Path__1_0_Layer0_0_FILL">
<path fill="url(#Gradient_14)" stroke="none" d="
M 21.9 10.95
Q 21.9 6.4 18.7 3.2 15.5 0 10.95 0 6.4 0 3.2 3.2 0 6.4 0 10.95 0 15.5 3.2 18.7 6.4 21.9 10.95 21.9 15.5 21.9 18.7 18.7 21.9 15.5 21.9 10.95 Z"/>
</g>

<g id="FlashAICB_Layer_17__Path__0_Layer0_0_MEMBER_0_FILL">
<path fill="url(#Gradient_15)" stroke="none" d="
M 14 7
Q 14 4.1 11.95 2.05 9.9 0 7 0 4.1 0 2.05 2.05 0 4.1 0 7 0 9.9 2.05 11.9 4.1 13.95 7 13.95 9.9 13.95 11.95 11.9 14 9.9 14 7 Z"/>
</g>

<g id="FlashAICB_Layer_17__Path__0_Layer0_0_MEMBER_1_FILL">
<path fill="url(#Gradient_16)" stroke="none" d="
M 14 7
Q 14 4.1 11.95 2.05 9.9 0 7 0 4.1 0 2.05 2.05 0 4.1 0 7 0 9.9 2.05 11.9 4.1 13.95 7 13.95 9.9 13.95 11.95 11.9 14 9.9 14 7 Z"/>
</g>
</defs>

<g transform="matrix( 1, 0, 0, 1, -997.6,17.45) ">
<use xlink:href="#Layer0_0_FILL"/>
</g>

<g transform="matrix( 1, 0, 0, 1, -997.6,17.45) ">
<use xlink:href="#Layer0_1_FILL"/>
</g>

<g transform="matrix( 1, 0, 0, 1, -997.6,17.45) ">
<use xlink:href="#Layer0_2_FILL"/>
</g>

<g transform="matrix( 1, 0, 0, 1, -997.6,17.45) ">
<use xlink:href="#Layer0_3_FILL"/>
</g>

<g transform="matrix( 1, 0, 0, 1, -997.6,17.45) ">
<use xlink:href="#Layer0_4_FILL"/>
</g>

<g transform="matrix( 1, 0, 0, 1, -997.6,17.45) ">
<use xlink:href="#Layer0_5_FILL"/>
</g>

<g transform="matrix( 1, 0, 0, 1, -997.6,17.45) ">
<use xlink:href="#Layer0_6_FILL"/>
</g>

<g transform="matrix( 1, 0, 0, 1, -997.6,17.45) ">
<use xlink:href="#Layer0_7_FILL"/>
</g>

<g transform="matrix( 1, 0, 0, 1, -997.6,17.45) ">
<use xlink:href="#Layer0_8_FILL"/>
</g>

<g transform="matrix( 1, 0, 0, 1, -997.6,17.45) ">
<use xlink:href="#Layer0_9_FILL"/>
</g>

<g transform="matrix( 1, 0, 0, 1, -997.6,17.45) ">
<use xlink:href="#Layer0_10_FILL"/>
</g>

<g transform="matrix( 1, 0, 0, 1, -997.6,17.45) ">
<use xlink:href="#Layer0_11_FILL"/>
</g>

<g transform="matrix( 1, 0, 0, 1, -997.6,17.45) ">
<use xlink:href="#Layer0_12_FILL"/>
</g>

<g transform="matrix( 1, 0, 0, 1, -997.6,17.45) ">
<use xlink:href="#Layer0_13_FILL"/>
</g>

<g transform="matrix( 1, 0, 0, 1, -997.6,17.45) ">
<use xlink:href="#Layer0_14_FILL"/>
</g>

<g transform="matrix( 1, 0, 0, 1, -997.6,17.45) ">
<use xlink:href="#Layer0_15_FILL"/>
</g>

<g transform="matrix( 1, 0, 0, 1, -997.6,17.45) ">
<use xlink:href="#Layer0_16_FILL"/>
</g>

<g transform="matrix( 1, 0, 0, 1, -997.6,17.45) ">
<use xlink:href="#Layer0_17_FILL"/>
</g>

<g transform="matrix( 1, 0, 0, 1, -997.6,17.45) ">
<use xlink:href="#Layer0_18_FILL"/>
</g>

<g transform="matrix( 1, 0, 0, 1, -997.6,17.45) ">
<use xlink:href="#Layer0_19_FILL"/>
</g>

<g transform="matrix( 1, 0, 0, 1, -997.6,17.45) ">
<use xlink:href="#Layer0_20_FILL"/>
</g>

<g transform="matrix( 1, 0, 0, 1, -997.6,17.45) ">
<use xlink:href="#Layer0_21_FILL"/>
</g>

<g transform="matrix( 1, 0, 0, 1, -997.6,17.45) ">
<use xlink:href="#Layer0_22_FILL"/>
</g>

<g transform="matrix( 1, 0, 0, 1, -997.6,17.45) ">
<use xlink:href="#Layer0_23_FILL"/>
</g>

<g transform="matrix( 1, 0, 0, 1, -997.6,17.45) ">
<use xlink:href="#Layer0_24_FILL"/>
</g>

<g transform="matrix( 1, 0, 0, 1, -997.6,17.45) ">
<use xlink:href="#Layer0_25_FILL"/>
</g>

<g transform="matrix( 1, 0, 0, 1, -997.6,17.45) ">
<use xlink:href="#Layer0_26_FILL"/>
</g>

<g transform="matrix( 1, 0, 0, 1, -997.6,17.45) ">
<use xlink:href="#Layer0_27_FILL"/>
</g>

<g transform="matrix( 1, 0, 0, 1, -997.6,17.45) ">
<use xlink:href="#Layer0_28_FILL"/>
</g>

<g transform="matrix( 1, 0, 0, 1, -997.6,17.45) ">
<use xlink:href="#Layer0_29_FILL"/>
</g>

<g transform="matrix( 1, 0, 0, 1, -997.6,17.45) ">
<use xlink:href="#Layer0_30_FILL"/>
</g>

<g transform="matrix( 1, 0, 0, 1, -997.6,17.45) ">
<use xlink:href="#Layer0_31_FILL"/>
</g>

<g transform="matrix( 1, 0, 0, 1, -997.6,17.45) ">
<use xlink:href="#Layer0_32_FILL"/>
</g>

<g transform="matrix( 1, 0, 0, 1, -997.6,17.45) ">
<use xlink:href="#Layer0_33_FILL"/>
</g>

<g transform="matrix( 1, 0, 0, 1, -997.6,17.45) ">
<use xlink:href="#Layer0_34_FILL"/>
</g>

<g transform="matrix( 1, 0, 0, 1, -997.6,17.45) ">
<use xlink:href="#Layer0_35_FILL"/>
</g>

<g transform="matrix( 1, 0, 0, 1, -997.6,17.45) ">
<use xlink:href="#Layer0_36_FILL"/>
</g>

<g transform="matrix( 1, 0, 0, 1, -997.6,17.45) ">
<use xlink:href="#Layer0_37_FILL"/>
</g>

<g transform="matrix( 1, 0, 0, 1, -997.6,17.45) ">
<use xlink:href="#Layer0_38_FILL"/>
</g>

<g transform="matrix( 1, 0, 0, 1, -997.6,17.45) ">
<use xlink:href="#Layer0_39_FILL"/>
</g>

<g transform="matrix( 1, 0, 0, 1, -997.6,17.45) ">
<use xlink:href="#Layer0_40_FILL"/>
</g>

<g transform="matrix( 1, 0, 0, 1, -997.6,17.45) ">
<use xlink:href="#Layer0_41_FILL"/>
</g>

<g transform="matrix( 1, 0, 0, 1, -997.6,17.45) ">
<use xlink:href="#Layer0_42_FILL"/>
</g>

<g transform="matrix( 1, 0, 0, 1, -997.6,17.45) ">
<use xlink:href="#Layer0_43_FILL"/>
</g>

<g transform="matrix( 1, 0, 0, 1, -997.6,17.45) ">
<use xlink:href="#Layer0_44_FILL"/>
</g>

<g transform="matrix( 1, 0, 0, 1, -997.6,17.45) ">
<use xlink:href="#Layer0_45_FILL"/>
</g>

<g transform="matrix( 1, 0, 0, 1, -997.6,17.45) ">
<use xlink:href="#Layer0_46_FILL"/>
</g>

<g transform="matrix( 1, 0, 0, 1, -997.6,17.45) ">
<use xlink:href="#Layer0_47_FILL"/>
</g>

<g transform="matrix( 1, 0, 0, 1, -997.6,17.45) ">
<use xlink:href="#Layer0_48_FILL"/>
</g>

<g transform="matrix( 1, 0, 0, 1, -997.6,17.45) ">
<use xlink:href="#Layer0_49_FILL"/>
</g>

<g transform="matrix( 1, 0, 0, 1, -997.6,17.45) ">
<use xlink:href="#Layer0_50_FILL"/>
</g>

<g transform="matrix( 1, 0, 0, 1, -997.6,17.45) ">
<use xlink:href="#Layer0_51_FILL"/>
</g>

<g transform="matrix( 1, 0, 0, 1, -997.6,17.45) ">
<use xlink:href="#Layer0_52_FILL"/>
</g>

<g transform="matrix( 1, 0, 0, 1, -997.6,17.45) ">
<use xlink:href="#Layer0_53_FILL"/>
</g>

<g transform="matrix( 1, 0, 0, 1, -997.6,17.45) ">
<use xlink:href="#Layer0_54_FILL"/>
</g>

<g transform="matrix( 1, 0, 0, 1, -997.6,17.45) ">
<use xlink:href="#Layer0_55_FILL"/>
</g>

<g transform="matrix( 1, 0, 0, 1, 254.5,103.95) ">
<g transform="matrix( 1, 0, 0, 1, 0,0) ">
<use filter="url(#Filter_1)" xlink:href="#FlashAICB_Layer_17__Path__5_0_Layer0_0_FILL"/>
</g>
</g>

<g transform="matrix( 1, 0, 0, 1, 261.6,110.25) ">
<g transform="matrix( 1, 0, 0, 1, 0,0) ">
<use filter="url(#Filter_2)" xlink:href="#FlashAICB_Layer_17__Path__4_0_Layer0_0_MEMBER_0_FILL"/>
</g>

<g transform="matrix( 1, 0, 0, 1, 0,0) ">
<use filter="url(#Filter_2)" xlink:href="#FlashAICB_Layer_17__Path__4_0_Layer0_0_MEMBER_1_FILL"/>
</g>
</g>

<g transform="matrix( 1, 0, 0, 1, 66.75,252.55) ">
<g transform="matrix( 1, 0, 0, 1, 0,0) ">
<use filter="url(#Filter_1)" xlink:href="#FlashAICB_Layer_17__Path__3_0_Layer0_0_FILL"/>
</g>
</g>

<g transform="matrix( 1, 0, 0, 1, 70.35,255.75) ">
<g transform="matrix( 1, 0, 0, 1, 0,0) ">
<use filter="url(#Filter_2)" xlink:href="#FlashAICB_Layer_17__Path__2_0_Layer0_0_MEMBER_0_FILL"/>
</g>

<g transform="matrix( 1, 0, 0, 1, 0,0) ">
<use filter="url(#Filter_2)" xlink:href="#FlashAICB_Layer_17__Path__2_0_Layer0_0_MEMBER_1_FILL"/>
</g>
</g>

<g transform="matrix( 1, 0, 0, 1, 348.1,307.95) ">
<g transform="matrix( 1, 0, 0, 1, 0,0) ">
<use filter="url(#Filter_1)" xlink:href="#FlashAICB_Layer_17__Path__1_0_Layer0_0_FILL"/>
</g>
</g>

<g transform="matrix( 1, 0, 0, 1, 352.05,311.45) ">
<g transform="matrix( 1, 0, 0, 1, 0,0) ">
<use filter="url(#Filter_2)" xlink:href="#FlashAICB_Layer_17__Path__0_Layer0_0_MEMBER_0_FILL"/>
</g>

<g transform="matrix( 1, 0, 0, 1, 0,0) ">
<use filter="url(#Filter_2)" xlink:href="#FlashAICB_Layer_17__Path__0_Layer0_0_MEMBER_1_FILL"/>
</g>
</g>
</svg>
