<?xml version="1.0" encoding="utf-8"?>
<!-- Generator: Adobe Illustrator 20.1.0, SVG Export Plug-In . SVG Version: 6.00 Build 0)  -->
<svg version="1.1" id="Layer_1" xmlns="http://www.w3.org/2000/svg" xmlns:xlink="http://www.w3.org/1999/xlink" x="0px" y="0px"
	 viewBox="0 0 326.7 500" style="enable-background:new 0 0 326.7 500;" xml:space="preserve">
<style type="text/css">
	.st0{fill:#8F7D5C;}
	.st1{fill:#806E4D;}
	.st2{fill:#6C5E3F;}
	.st3{fill:url(#SVGID_1_);}
	.st4{fill:#A7674A;}
	.st5{fill:#9E5B3F;}
	.st6{fill:#8A4E35;}
	.st7{fill:#B56C4C;}
	.st8{fill:#D8B59B;}
</style>
<g transform="matrix( 1, 0, 0, 1, 0,0) ">
	<g>
		<g id="Layer0_0_MEMBER_0_MEMBER_0_FILL">
			<path class="st0" d="M206.7,389.3l-2.2-21.7l-50,11l-1.3,29.6c-2.1,21.2-6.6,36-13.5,44.6c-6.9,8.4-14.6,15.2-22.9,20.4
				c-1.7,1.1-3.3,2-4.7,2.8l16.3-7.2c15.5-6.1,26-8.4,31.4-6.9c5.4,1.7,8.2,5.8,8.2,12.3c0,3.1-0.5,6.2-1.6,9.1
				c2.5-4,5.6-8,9.1-11.9c6.9-7.8,13.1-11.2,18.5-10.4c8.6,1.3,29.9,6.2,63.8,14.8c-8.4-4-16.3-8-23.9-11.9
				c-14.9-8-19.8-11.9-14.8-11.9c8,0,18.1-0.3,30.5-0.9c-5.4-0.8-11-2.5-16.7-5c-11.7-4.8-18.5-11.5-20.4-20.1
				C210.8,417.3,208.8,405.2,206.7,389.3z"/>
		</g>
	</g>
</g>
<g transform="matrix( 1, 0, 0, 1, 0,0) ">
	<g>
		<g id="Layer0_0_MEMBER_0_MEMBER_1_MEMBER_0_FILL">
			<path class="st1" d="M208.3,400.3l-3.8-32.7l-50,11l-0.3,16.3l6.3,0.3l-0.3,7.2c-0.2,5.7-0.7,11.1-1.6,16.3
				c-0.8,4-4.1,8.8-9.7,14.5c-2.5,8.6-5.6,15.1-9.1,19.5c-7.5,9-15.4,15.9-23.6,20.7c17.2-8.8,29.3-18.1,36.5-28
				c6.7-9.4,11.7-21.4,15.1-35.8c-2.7,16.6-1.6,23.9,3.5,22c6.1-1.9,9.7-8.8,11-20.7l2.2,22.6c2.5,15.7,5.8,24.8,9.7,27.3
				c6.5,0.8,24.8,5,55,12.6c-17.6-6.9-32.7-13.9-45.3-21.1c-9.2-5.2-14.8-14.5-16.7-27.7c0-12.4,0-18.9,0-19.5l11.6-2.2
				C202.6,402.5,205.8,401.5,208.3,400.3z"/>
		</g>
	</g>
</g>
<g transform="matrix( 1, 0, 0, 1, 0,0) ">
	<g>
		<g id="Layer0_0_MEMBER_0_MEMBER_1_MEMBER_4_FILL">
			<path class="st2" d="M184.4,433.6l-2.2-22.6c-1.3,11.9-4.9,18.9-11,20.7c-5,1.9-6.2-5.4-3.5-22c-3.4,14.5-8.4,26.4-15.1,35.8
				c-7.1,9.9-19.3,19.2-36.5,28l-2.8,1.6c23.7-10.9,39.2-15.3,46.5-13.2c5.4,1.7,8.2,5.8,8.2,12.3c0,3.1-0.5,6.2-1.6,9.1
				c2.5-4,5.6-8,9.1-11.9c6.9-7.8,13.1-11.2,18.5-10.4C190.2,458.4,186.9,449.3,184.4,433.6z"/>
		</g>
	</g>
</g>
<g transform="matrix( 1, 0, 0, 1, 0,0) ">
	<g>
		<g id="Layer0_0_MEMBER_0_MEMBER_2_FILL">
			
				<linearGradient id="SVGID_1_" gradientUnits="userSpaceOnUse" x1="82.7784" y1="293.5373" x2="267.153" y2="291.3367" gradientTransform="matrix(1 0 0 -1 0 498.6667)">
				<stop  offset="0" style="stop-color:#BD7B5C"/>
				<stop  offset="1" style="stop-color:#CB9A7A"/>
			</linearGradient>
			<path class="st3" d="M271.5,102.9c8.8-9.9,23.1-23.1,42.8-39.6l-76.7,27.7l10.7-49l-45.3,34.3l6.9-56.3l-35.5,43.4l-48.4-46.5
				l7.9,49.7L77.5,43.5L106.1,90L12.4,79.9c5.2,3.4,11.2,7.6,17.9,12.9C44,103.5,54.6,114,62.1,124.3L80,170.5l-21.4-13.2l31.4,72.6
				l-33-8.2l31.4,59.1H52l21.7,40.9c16.6,28.9,30.3,47.8,41.2,56.6c6.5,5.4,12.8,8.2,18.9,8.2c8,0,15.5-1.7,22.6-5l4.7,6.9
				c5,4.6,12.7,6.9,22.9,6.9s18-2.3,23.3-6.9l4.4-6.9l6.9,1.3c5,0.6,8.7,0.8,11,0.6c20.1-1.5,38.9-21.2,56.3-59.1l20.1-56.3
				l-44.6,28L301,200l-44.3,31.4l17.9-74.2l-24.5,13.2c1.5-8.8,3.4-18.2,5.7-28.3C260.8,122.1,266,109,271.5,102.9z"/>
		</g>
	</g>
</g>
<g transform="matrix( 1, 0, 0, 1, 0,0) ">
	<g>
		<g id="Layer0_0_MEMBER_0_MEMBER_3_MEMBER_0_FILL">
			<path class="st4" d="M144.5,69.6c-0.4,5.2-1.3,12.7-2.5,22.3c-0.8,8-1,13.6-0.6,17c1,5.4,3,11.6,6,18.5c-4-4.6-8.3-8.7-12.9-12.3
				c-9.6-7.1-16.5-7.8-20.4-1.9c-4,5.9-4.9,14.9-2.8,27c1,6.3,2.5,11.8,4.4,16.7c-2.3-1.3-4.7-2.2-7.2-2.8c-5-1.3-7.9-0.1-8.5,3.5
				c-0.8,6.1,3.1,14,11.9,23.9l-6.6,9.4c-4,7.1-4.7,12.9-2.2,17.3c2.5,4.4,5.1,5.7,7.9,3.8l3.1-3.8l-4.1,11
				c-2.7,8.4-4.1,15.5-4.1,21.4c0,5.9,2.7,12.4,8.2,19.5c2.7,3.6,5.4,6.5,8.2,8.8h-17.6l22,49.7h-17.6l2.5,18.5
				c2.9,12.8,7.5,20.1,13.8,22c6.1,1.9,10.8,0,14.1-5.7l2.8-9.1l2.5,9.7c2.9,7.5,7.8,14.1,14.5,19.8c8.2,7.1,15.2,11.8,21.1,14.1
				c5.7,2.5,12.9,3.8,21.7,3.8c5.7-2.7,8.9-6.2,9.7-10.4l6.9,1.3c5,0.6,8.7,0.8,11,0.6c6.1-0.2,12.5-2.6,19.2-7.2
				c-9.9,1.5-18.4-1.4-25.8-8.5l-8.2-11c-9.2,11.3-18.1,17.9-26.7,19.8c-5.4,1.3-7.5-2.4-6.3-11l3.1-13.5c-2.3,2.1-5.2,3.8-8.8,5
				c-7.1,2.3-13.7,0.9-19.8-4.1c-6.1-5-7.2-15.7-3.5-32.1l7.5-23.3c-3.4,0.8-6.9,1.2-10.7,0.9c-7.1-0.2-11.1-2.8-11.9-7.9
				c-0.8-5,2.5-14.1,10.1-27.3l11.6-18.2c-2.3,2.3-5.1,4.3-8.5,6c-6.7,3.6-12.8,3.9-18.2,0.9c-5.4-2.9-7.9-12.2-7.2-27.7l2.2-22.6
				l14.8,3.1c-10.5-33.7-14.4-54.5-11.6-62.2c1.7-5,7.1-6.1,16.3-3.1c4.6,1.5,9,3.5,13.2,6c-1.9-5.2-3.5-11.1-4.7-17.6
				c-2.3-12.6-1.7-21.4,1.9-26.4c2.7-3.6,7.3-2.9,13.8,1.9c3.1,2.5,6.1,5.3,8.8,8.5c-7.8-19.1-15-34.6-21.7-46.5
				c-6.9-12.4-17.8-28.5-32.7-48.4C139.3,41.5,145.5,59.1,144.5,69.6z"/>
		</g>
	</g>
</g>
<g transform="matrix( 1, 0, 0, 1, 0,0) ">
	<g>
		<g id="Layer0_0_MEMBER_0_MEMBER_3_MEMBER_1_FILL">
			<path class="st5" d="M142,91.9c1.3-9.6,2.1-17.1,2.5-22.3c1-10.5-5.1-28.1-18.5-52.8l7.9,49.7L77.5,43.5L106.1,90L12.4,79.9
				l5.3,3.5c26.6,10.1,44.1,17.5,52.5,22.3c7.5,4.4,13.3,10.5,17.3,18.2c2.1,4,3.5,7.5,4.1,10.7L80,130.9l13.2,55L80,182.7
				l18.5,57.2L80,240.6c0.8,0,5.4,9,13.8,27c4,9,8,18,11.9,27l-22.9,2.2l6,25.1c6.1,18.7,14.3,32.8,24.5,42.4s20.5,15.3,30.8,17
				c5,1,9.1,1,12.3,0l4.7,6.9c5,4.6,12.7,6.9,22.9,6.9c6.9,0,12.9-1.2,17.9-3.5c-8.8,0-16-1.3-21.7-3.8c-5.9-2.3-12.9-7-21.1-14.1
				c-6.7-5.7-11.5-12.3-14.5-19.8l-2.5-9.7l-2.8,9.1c-3.4,5.7-8.1,7.5-14.1,5.7c-6.3-1.9-10.9-9.2-13.8-22l-2.5-18.5h17.6l-22-49.7
				h17.6c-2.7-2.3-5.4-5.2-8.2-8.8c-5.4-7.1-8.2-13.6-8.2-19.5c0-5.9,1.4-13,4.1-21.4l4.1-11l-3.1,3.8c-2.7,1.9-5.3,0.6-7.9-3.8
				c-2.5-4.4-1.8-10.2,2.2-17.3l6.6-9.4c-8.8-9.9-12.8-17.8-11.9-23.9c0.6-3.6,3.5-4.7,8.5-3.5c2.5,0.6,4.9,1.6,7.2,2.8
				c-1.9-4.8-3.4-10.4-4.4-16.7c-2.1-12.2-1.2-21.2,2.8-27c4-5.9,10.8-5.2,20.4,1.9c4.6,3.6,8.9,7.6,12.9,12.3
				c-2.9-6.9-4.9-13.1-6-18.5C140.9,105.5,141.1,99.8,142,91.9z"/>
		</g>
	</g>
</g>
<g transform="matrix( 1, 0, 0, 1, 0,0) ">
	<g>
		<g id="Layer0_0_MEMBER_0_MEMBER_3_MEMBER_2_FILL">
			<path class="st6" d="M80,170.5l-21.4-13.2l31.4,72.6l-33-8.2l31.4,59.1H52l21.7,40.9c16.6,28.9,30.3,47.8,41.2,56.6
				c6.5,5.4,12.8,8.2,18.9,8.2c8,0,15.5-1.7,22.6-5c-3.1,1-7.2,1-12.3,0c-10.3-1.7-20.5-7.3-30.8-17S94.9,340.6,88.8,322l-6-25.1
				l22.9-2.2c-4-9-8-18-11.9-27c-8.4-18-13-27-13.8-27l18.5-0.6L80,182.7l13.2,3.1l-13.2-55l11.6,3.8c-0.6-3.1-2-6.7-4.1-10.7
				c-4-7.8-9.7-13.8-17.3-18.2c-8.4-4.8-25.9-12.3-52.5-22.3c19.7,14,34.5,27.7,44.3,40.9L80,170.5z"/>
		</g>
	</g>
</g>
<g transform="matrix( 1, 0, 0, 1, 0,0) ">
	<g>
		<g id="Layer0_0_MEMBER_0_MEMBER_4_FILL">
			<path class="st7" d="M186.3,54.8c-8.2,11.3-11.5,20.6-10.1,28c2.5,11.9,5.8,24.3,9.7,37.1c-3.6-2.9-7.2-5.2-11-6.9
				c-7.3-3.1-11.1-1.4-11.3,5.3c-0.2,4.2,2,12.2,6.6,23.9c3.6,9,3.6,15.6,0,19.8c-4,4.8-8.6,6.3-13.8,4.4l-6.9-4.4l8.8,19.5
				c4.8,14.3,4.9,24.6,0.3,31.1c-4.6,6.5-9.4,10.2-14.5,11l-6.3-0.6l5.7,9.4c4.8,5.9,9.5,7.9,14.1,6c7.5-2.9,13.9-7.3,19.2-13.2
				l-14.1,22.9c-8.6,16.3-10.7,27.1-6.3,32.4c4.2,5.4,11.4,6.2,21.7,2.2c5-1.9,9.6-4.3,13.8-7.2c-2.9,0.8-6.1,1.2-9.4,0.9
				c-7.1-0.2-12.2-2.7-15.1-7.5c-3.1-5,0.6-15.3,11.3-30.8c5.2-7.8,10.8-15.1,16.7-22l-28-34c1.9-0.2,4-1.2,6.3-2.8
				c4.8-3.1,8.6-8.2,11.3-15.1c2.9-6.7,2.7-14-0.6-22l-6-9.7l28.9-0.6c-5.4-8.4-10-18.5-13.5-30.5c-6.9-23.7-5.1-44.2,5.3-61.6
				C194.8,43.9,190.5,48.9,186.3,54.8z"/>
		</g>
	</g>
</g>
<g transform="matrix( 1, 0, 0, 1, 0,0) ">
	<g>
		<g id="Layer0_0_MEMBER_0_MEMBER_5_FILL">
			<path class="st7" d="M183.5,306.9l6.9-11.3l-15.7,15.7c-9.6,11.5-11.8,19.6-6.6,24.2s11.4,6.3,18.5,5c3.4-0.6,6.3-1.8,8.8-3.5
				l-2.8,11c-1.3,7.1,0,10.4,3.8,9.7c5.9-1,13.5-7,22.9-17.9l4.4,8.8c4,5.9,8.9,9.1,14.8,9.7c5.9,0.6,14.1-5.4,24.8-18.2
				c5.4-6.5,10.3-13,14.5-19.5c-5.9,5.9-12.2,11.3-18.9,16.3c-13.2,9.9-21.7,12.8-25.5,8.8c-3.8-4-5.8-10.1-6-18.2l0.6-10.7
				c-14.3,18.2-22.1,25.7-23.6,22.3c-0.8-2.3-0.1-6.9,2.2-13.8l3.8-10.1l-9.7,6.9c-7.3,4-13,4.4-17,1.3
				C179.8,320.6,179.7,315.1,183.5,306.9z"/>
		</g>
	</g>
</g>
<g transform="matrix( 1, 0, 0, 1, 0,0) ">
	<g>
		<g id="Layer0_0_MEMBER_0_MEMBER_6_FILL">
			<path class="st7" d="M266.8,245c-5.2,5.2-11.7,9.4-19.5,12.6l21.7-93.4c-14.9,46.9-26.7,74.9-35.5,83.9
				c-9,8.8-15.9,14.7-20.7,17.6l7.9,3.1c6.1,2.1,11.5,3.4,16.3,3.8c8,0.4,14.9-1.4,20.7-5.3L236.3,322l20.1-23.6l37.7-90.2
				C282.2,226.4,273,238.7,266.8,245z"/>
		</g>
	</g>
</g>
<g transform="matrix( 1, 0, 0, 1, 0,0) ">
	<g>
		<g id="Layer0_0_MEMBER_0_MEMBER_7_FILL">
			<path class="st4" d="M280.9,304.4c4.6-6.5,8.3-12.7,11-18.5c-10.9,14.9-20.3,24.5-28.3,28.9c-7.8,4.4-14.7,7.9-20.7,10.4l1.6,3.8
				c1.9,1.9,5.3,1.9,10.4,0C263.2,325.6,271.9,317.4,280.9,304.4z"/>
		</g>
	</g>
</g>
<g transform="matrix( 1, 0, 0, 1, 0,0) ">
	<g>
		<g id="Layer0_0_MEMBER_1_FILL">
			<path class="st8" d="M224.6,70.5c-7.8,5.4-13,11.5-15.7,18.2c-2.7,6.9-2.2,16.9,1.6,29.9c1.9,6.5,4.1,12.4,6.6,17.6
				c-0.6-5.7-0.9-11.3-0.9-17c-0.2-11.1,1-16.3,3.8-15.7c4.4,1,9.3,8.3,14.8,21.7c-1.3-7.8-2.2-16.1-2.8-25.1c-1.3-18,0-30,3.8-35.8
				C232.3,65.7,228.6,67.8,224.6,70.5z"/>
		</g>
	</g>
</g>
<g transform="matrix( 1, 0, 0, 1, 0,0) ">
	<g>
		<g id="Layer0_0_MEMBER_2_FILL">
			<path class="st8" d="M242.9,96.3l2.2,11.6l43.7-30.2L242.9,96.3z"/>
		</g>
	</g>
</g>
<g transform="matrix( 1, 0, 0, 1, 0,0) ">
	<g>
		<g id="Layer0_0_MEMBER_3_FILL">
			<path class="st8" d="M223.7,153.8l-4.1,11.6c-3.8,8.2-8.1,13.2-12.9,15.1c-5,1.9-9.6,3.1-13.8,3.8l-4.7,0.6l7.5,6.3
				c5.2,5.2,8.6,9.9,10.1,13.8c2.5,6.5,1.8,13.2-2.2,20.1c6.9,0.4,14.6-2.6,22.9-9.1c8.4-6.3,15.6-16.9,21.7-31.8
				c-12.4,14.9-20.7,23.6-25.1,26.1c-2.5,1.3-3.8-0.2-3.8-4.4c0-5.7-0.7-9.2-2.2-10.7l-5.3-4.4C220.8,175.2,224.7,162.8,223.7,153.8
				z"/>
		</g>
	</g>
</g>
</svg>
