<?xml version="1.0" encoding="utf-8"?>
<!-- Generator: Adobe Illustrator 20.1.0, SVG Export Plug-In . SVG Version: 6.00 Build 0)  -->
<svg version="1.1" id="Layer_1" xmlns="http://www.w3.org/2000/svg" xmlns:xlink="http://www.w3.org/1999/xlink" x="0px" y="0px"
	 viewBox="0 0 658.7 417.3" style="enable-background:new 0 0 658.7 417.3;" xml:space="preserve">
<style type="text/css">
	.st0{fill:#A99269;}
	.st1{fill:#847457;}
	.st2{fill:url(#SVGID_1_);}
	.st3{fill:#A5BA7E;}
	.st4{fill:#C1CDA5;}
	.st5{fill:#95A973;}
	.st6{fill:#819467;}
	.st7{fill:#87A659;}
	.st8{fill:#647A46;}
	.st9{fill:#C24458;}
	.st10{fill:#CD6A70;}
	.st11{fill:#9D3A4B;}
</style>
<g>
	<g transform="matrix( 1, 0, 0, 1, 0,-0.15) ">
		<g>
			<g id="Layer0_0_MEMBER_0_FILL">
				<path class="st0" d="M71.1,392.1c2.3,0.3,7.1,1.8,14.5,4.5c8,2.4,15.5,3.2,22.5,2.3c7-0.9,15.1-4.2,24.3-9.8
					c11.4-6.7,17.4-10.1,18.2-10.5c5.1-1.8,1.4-5.4-11.4-10.7c-12.6-5.3-21.7-6.4-27.3-3.2l-3.4,8.9c-3.5,6.4-8.2,10.5-14.1,12.3
					c-5.6,1.8-11.7,1.8-18.4,0c-8.3-2.4-13.3-3.6-15-3.6c-3.6,0-8.9,2-15.7,5.9c-7.3,4.1-12.1,6.4-14.5,6.8
					c-5.6,1.1-12.4,2.1-20.4,3.2c14.7-0.6,27.3-0.6,37.9,0c6.1,0.3,11-0.8,14.8-3.2C66.8,392.9,69.5,392,71.1,392.1z"/>
			</g>
		</g>
	</g>
	<g transform="matrix( 1, 0, 0, 1, 0,-0.15) ">
		<g>
			<g id="Layer0_0_MEMBER_1_FILL">
				<path class="st0" d="M149.1,402.3c9.4-2.6,18.5-3.2,27.3-1.8c10.6,1.5,18.9,2.3,24.8,2.3c5.8,0,11.9-0.8,18.4-2.3
					c8.6-2.1,21.3-9.5,37.9-22l-40.2-1.6c-9.1,10.1-16.4,15.8-22,16.8c-2.3,0.3-7,0.7-14.1,1.1c-6.8,0.3-12.4,0.9-16.8,1.8
					c-5.1,0.9-11.1,2.8-17.9,5.7l-8.6,4.1L149.1,402.3z"/>
			</g>
		</g>
	</g>
	<g transform="matrix( 1, 0, 0, 1, 0,-0.15) ">
		<g>
			<g id="Layer0_0_MEMBER_2_FILL">
				<path class="st0" d="M388.3,407.3c7.1,0.5,13.7-1.6,19.8-6.1c-18.2-1.1-30.1-2.3-35.7-3.9c-3.3-0.9-7.3-4.2-12-10l-6.1-8.2
					c-4.1-2.6-8.9-4.5-14.5-5.9c-11.1-2.4-20.1-0.2-27,6.8c-5,10.6-10.3,16.7-15.9,18.2c-3.5,0.9-11,2.3-22.5,4.3l-16.1,2.5
					l18.2,0.7c13.5,0,23.6-1,30.2-3c5.3-1.5,11.4-3.5,18.4-5.9c5-1.4,9.8-0.9,14.3,1.4C346.9,402.2,363.3,405.2,388.3,407.3z"/>
			</g>
		</g>
	</g>
	<g transform="matrix( 1, 0, 0, 1, 0,-0.15) ">
		<g>
			<g id="Layer0_0_MEMBER_3_MEMBER_0_FILL">
				<path class="st1" d="M10.5,398.3c14.7-0.6,27.3-0.6,37.9,0c6.1,0.3,11-0.8,14.8-3.2c3.6-2.1,6.3-3.1,8-3
					c2.3,0.3,7.1,1.8,14.5,4.5c8,2.4,15.5,3.2,22.5,2.3c7-0.9,15.1-4.2,24.3-9.8c11.4-6.7,17.4-10.1,18.2-10.5
					c2.7-1.1,1.9-3-2.5-5.9c-4.2-3-9.5-5.5-15.9-7.3c-10-0.9-16.8-1.1-20.4-0.5c-0.3,1.8-1.1,4.2-2.3,7c-2.1,4.2-4.8,7.6-8,10.2
					c3,0.3,6.7,0.2,11.1-0.2l0.9,3.2c-0.5,2.6-3.3,4.5-8.4,5.9c-5.1,1.4-12.4,1.2-21.8-0.5c-8.9-2.1-14.2-3.3-15.7-3.4
					c-2-0.3-4,0-6.1,0.9c-3,1.7-5.7,3-8,4.1C49.1,394.6,34.7,396.6,10.5,398.3z"/>
			</g>
		</g>
	</g>
	<g transform="matrix( 1, 0, 0, 1, 0,-0.15) ">
		<g>
			<g id="Layer0_0_MEMBER_4_MEMBER_0_FILL">
				<path class="st1" d="M142.9,404.2c11.8-3.9,22.9-5.1,33.4-3.6c10.6,1.5,18.9,2.3,24.8,2.3c5.8,0,11.9-0.8,18.4-2.3
					c8.6-2.1,21.3-9.5,37.9-22l-40.2-1.6l-10.2,9.8c2.7,3.6,5,5.5,6.8,5.7c3,0.5,6.6,0.5,10.7,0c-15.4,4.5-25.8,6.4-31.1,5.7
					c-4.7-0.6-12.9-0.4-24.5,0.7C156.1,400.1,147.5,401.9,142.9,404.2z"/>
			</g>
		</g>
	</g>
	<g transform="matrix( 1, 0, 0, 1, 0,-0.15) ">
		<g>
			<g id="Layer0_0_MEMBER_5_MEMBER_0_FILL">
				<path class="st1" d="M405.1,403l-1.1,0.2c-7.1,1.4-18.8,0.7-35-2l-22.3-4.8l3.9-0.5c3.2-0.3,6.4-0.4,9.8-0.2
					c2,0.2,4.8,0.1,8.4-0.2c-3-2-6.4-5.3-10-10l-4.5-6.4c-4.1-2.6-8.9-4.5-14.5-5.9c-11.1-2.4-20.1-0.2-27,6.8l-2.5,4.5
					c-2,3.3-4,6.1-6.1,8.4l6.8,3.4l-5.7,3.4c-3.8,2.3-19.5,4-47,5.2l18.2,0.7c13.5,0,23.6-1,30.2-3c5.3-1.5,11.4-3.5,18.4-5.9
					c5-1.4,9.8-0.9,14.3,1.4c7.7,3.9,24.1,7,49.1,9.1C393.7,407.6,399.3,406.2,405.1,403z"/>
			</g>
		</g>
	</g>
	<g transform="matrix( 1, 0, 0, 1, 0,-0.15) ">
		<g>
			<g id="Layer0_0_MEMBER_6_FILL">
				<path class="st0" d="M425.5,373.3c-7.6-2.9-14.2-2.2-20,2l-6.6,7l14.1,5.9c10.3,4.5,17.9,8.1,22.9,10.7c5,2.4,12.6,3.9,22.9,4.3
					c5.5,0.2,12.5,0.2,21.1,0.2c6.5,0.5,14.5,1.4,24.1,3c-11.1-3.5-19.8-6-26.4-7.5c-3.3-0.8-9-1.7-17-3c-8-1.4-13.7-2.4-17-3.2
					c-4.1-0.9-8.3-4.5-12.7-10.7L425.5,373.3z"/>
			</g>
		</g>
	</g>
	<g transform="matrix( 1, 0, 0, 1, 0,-0.15) ">
		<g>
			<g id="Layer0_0_MEMBER_7_MEMBER_0_FILL">
				<path class="st1" d="M436,394.4l-10.5-4.8l3.4,0.5c2.6,0.3,5.1,0.3,7.5,0l1.6-0.2c-3-2.3-6-5.7-8.9-10.2l-3.6-6.4
					c-7.6-2.9-14.2-2.2-20,2l-6.6,7l14.1,5.9c10.3,4.5,17.9,8.1,22.9,10.7c5,2.4,12.6,3.9,22.9,4.3c5.5,0.2,12.5,0.2,21.1,0.2
					c6.5,0.5,14.5,1.4,24.1,3c-3.8-1.1-11.1-2.3-22-3.6c-9.5-1.4-18.2-2.3-25.9-3C450.8,399.4,444,397.6,436,394.4z"/>
			</g>
		</g>
	</g>
	<g transform="matrix( 1, 0, 0, 1, 0,-0.15) ">
		<g>
			<g id="Layer0_0_MEMBER_8_FILL">
				<path class="st0" d="M519.4,364.9l-52.3,0.7l8,8.6c6.2,6.4,11.4,10.8,15.4,13.4c3.9,2.4,14.5,4.1,31.8,5l31.1,1.8
					c3.5,0.5,9.9-0.2,19.3-2c10.1-2.1,15.8-3.2,17-3.2c1.8,0,5.3,1.1,10.5,3.2c5.6,2.1,10.5,3.3,14.5,3.6c7.6,0.5,18.7-2.6,33.4-9.1
					c-13.2,3.5-24.3,4.5-33.4,3c-4.4-0.8-8.9-2.5-13.6-5.2c-4.4-2.6-8.9-4.1-13.6-4.5c-3.9-0.5-9.3,0.3-16.1,2.3
					c-6.1,1.8-11.8,2-17.3,0.7c-6.2-1.7-13.9-5.1-22.9-10.5L519.4,364.9z"/>
			</g>
		</g>
	</g>
	<g transform="matrix( 1, 0, 0, 1, 0,-0.15) ">
		<g>
			<g id="Layer0_0_MEMBER_9_MEMBER_1_FILL">
				<path class="st1" d="M522.3,392.6l31.1,1.8c3.5,0.5,9.9-0.2,19.3-2c10.1-2.1,15.8-3.2,17-3.2c1.8,0,5.3,1.1,10.5,3.2
					c5.6,2.1,10.5,3.3,14.5,3.6c6.1,0.3,15.1-2,27.3-6.8c-9.7,3.5-20.3,4.1-31.8,1.8c-11.4-3.2-18.8-5.1-22.3-5.9
					c-4.4-0.9-11.9-0.6-22.5,0.9c-12.6,1.7-19.8,2.5-21.8,2.5c-4.2,0-12.7-0.8-25.4-2.5l-17.7-2.7l5.2-0.5c3.3-0.5,8-2.7,14.1-6.8
					l2.7,1.4c2.4,0.9,4.9,1.6,7.5,2c2.6,0.5,6.4,0.1,11.6-1.1c-4.8-2.4-10-5.4-15.4-8.9l-6.8-4.5l-52.3,0.7l8,8.6
					c6.2,6.4,11.4,10.8,15.4,13.4C494.5,390,505.1,391.7,522.3,392.6z"/>
			</g>
		</g>
	</g>
	<g transform="matrix( 1, 0, 0, 1, 0,-0.15) ">
		<g>
			<g id="Layer0_0_MEMBER_10_FILL">
				
					<linearGradient id="SVGID_1_" gradientUnits="userSpaceOnUse" x1="67.9672" y1="127.6444" x2="570.3248" y2="127.6444" gradientTransform="matrix(1 0 0 -1 0 413.4833)">
					<stop  offset="0" style="stop-color:#BD7B5C"/>
					<stop  offset="1" style="stop-color:#CB9A7A"/>
				</linearGradient>
				<path class="st2" d="M486,234.2c-4.2-8-9.2-13.9-15-17.7c-5.6-3.8-14.1-4.9-25.4-3.4l-15.4,3.4c0.8-2.6,0.5-5.3-0.9-8.2
					c-2.9-5.8-9.7-9.6-20.4-11.6c-10.8-1.8-23.6-0.8-38.4,3l-19.1,6.1c1.8-4.1,2-8.2,0.5-12.3c-3-8.3-12.8-12.8-29.3-13.4
					c-16.4-0.6-30.8,3.2-43.4,11.4l-14.1,12.7c-1.8-2.7-4.5-5.4-8-8c-7.1-5-15.1-6.9-23.9-5.7c-8.8,1.4-18.7,9.6-29.8,24.8
					c-5.6,7.6-10.3,15-14.1,22.3c-2-2.7-5.1-5.5-9.3-8.2c-8.3-5.3-17.9-7.6-28.6-7c-10.8,0.6-17.3,9.9-19.5,27.9
					c-1.1,8.9-1.1,17.8-0.2,26.6c-3-0.9-7-1.4-11.8-1.6c-9.8-0.3-19.5,1.7-29.1,6.1c-9.4,4.4-12.4,15.6-9.1,33.6
					c1.7,8.9,4.2,17.4,7.7,25.4c-3.5,0.3-7,1.1-10.7,2.5c-7.1,2.9-10.7,7.1-10.7,12.7c0,7,2.4,12.6,7.3,16.8
					c4.2,3.8,8.9,5.8,14.1,5.9c6.1,0.2,15.1-1.7,27.3-5.5l-0.2,5c1.2,3.5,5.3,5.1,12.3,5c11.1-0.3,18.4-1.7,22-4.3l4.8,4.1
					c4.1,2.7,8.8,3.8,14.1,3.2c8.5-0.9,17.3-3.1,26.6-6.6l8.6,4.1c7,2.9,13.4,4.2,19.3,4.1c9.5-0.3,18.2-2.7,25.9-7l1.8,5
					c2.4,3.3,6.7,4.8,12.9,4.5c6.2-0.2,11.1-1.7,14.8-4.5l3.6-4.1l8.9,3.9c7,2.6,13.3,3.8,18.9,3.6c5.8-0.2,10.5-2.4,14.1-6.8
					l3.6-6.6l5.2,7.3c4.8,5,10.5,7.8,16.8,8.4c10,1.1,18.8-0.2,26.4-3.6l5.2,1.8c4.2,0.8,8.3,0.5,12-0.9c6.2-2.3,12.6-5.7,19.3-10.2
					l5.5,4.1c4.5,2.7,9.5,3.8,15,3.2c5.5-0.5,9.8-2.3,13.2-5.7c1.7-1.7,2.8-3.3,3.4-5l2.5,2.7c2.4,1.8,5.8,2.7,10.2,2.5
					c4.4-0.3,8.8-2.2,13.2-5.7c2.1-1.7,3.8-3.3,5-5l1.8,4.5c2.4,3.2,6.4,5,12,5.5c5.8,0.5,10.8-1.4,15-5.5c2.1-2,3.6-4,4.5-6.1
					l7,3.4c6.1,2.3,12.3,3.3,18.9,3c7.1-0.2,13.1-4.2,17.9-12c3.5-5.6,7-14.8,10.7-27.5c2.6-8.9,0.1-13.9-7.5-14.8l-12.3,1.1l8.6-10
					c5.3-8.5,7-16.8,5-25c-1.8-8.2-7.1-12.3-15.9-12.5l-12.7,2c0-3.8-0.6-8-1.8-12.7c-2.6-9.4-7-16.3-13.4-20.7
					c-6.4-4.4-13.1-5.2-20.2-2.5l-8.6,5.5C489.6,242,488.1,238.3,486,234.2z"/>
			</g>
		</g>
	</g>
	<g transform="matrix( 1, 0, 0, 1, 0,-0.15) ">
		<g>
			<g id="Layer0_0_MEMBER_11_FILL">
				<path class="st3" d="M486,234.2c-4.2-8-9.2-13.9-15-17.7c-5.6-3.8-14.1-4.9-25.4-3.4l-15.4,3.4c0.8-2.6,0.5-5.3-0.9-8.2
					c-2.9-5.8-9.7-9.6-20.4-11.6c-10.8-1.8-23.6-0.8-38.4,3l-19.1,6.1c1.8-4.1,2-8.2,0.5-12.3c-3-8.3-12.8-12.8-29.3-13.4
					c-16.4-0.6-30.8,3.2-43.4,11.4l-14.1,12.7c-1.8-2.7-4.5-5.4-8-8c-7.1-5-15.1-6.9-23.9-5.7c-8.8,1.4-18.7,9.6-29.8,24.8
					c-5.6,7.6-10.3,15-14.1,22.3c-2-2.7-5.1-5.5-9.3-8.2c-8.3-5.3-17.9-7.6-28.6-7c-10.8,0.6-17.3,9.9-19.5,27.9
					c-1.1,8.9-1.1,17.8-0.2,26.6c-3-0.9-7-1.4-11.8-1.6c-9.8-0.3-19.5,1.7-29.1,6.1c-9.4,4.4-12.4,15.6-9.1,33.6
					c1.7,8.9,4.2,17.4,7.7,25.4c-3.5,0.3-7,1.1-10.7,2.5c-7.1,2.9-10.7,7.1-10.7,12.7c0,7,2.4,12.6,7.3,16.8
					c4.2,3.8,8.9,5.8,14.1,5.9c6.1,0.2,15.1-1.7,27.3-5.5l-0.2,5c1.2,3.5,5.3,5.1,12.3,5c11.1-0.3,18.4-1.7,22-4.3l4.8,4.1
					c4.1,2.7,8.8,3.8,14.1,3.2c8.5-0.9,17.3-3.1,26.6-6.6l8.6,4.1c7,2.9,13.4,4.2,19.3,4.1c9.5-0.3,18.2-2.7,25.9-7l1.8,5
					c2.4,3.3,6.7,4.8,12.9,4.5c6.2-0.2,11.1-1.7,14.8-4.5l3.6-4.1l8.9,3.9c7,2.6,13.3,3.8,18.9,3.6c5.8-0.2,10.5-2.4,14.1-6.8
					l3.6-6.6l5.2,7.3c4.8,5,10.5,7.8,16.8,8.4c10,1.1,18.8-0.2,26.4-3.6l5.2,1.8c4.2,0.8,8.3,0.5,12-0.9c6.2-2.3,12.6-5.7,19.3-10.2
					l5.5,4.1c4.5,2.7,9.5,3.8,15,3.2c5.5-0.5,9.8-2.3,13.2-5.7c1.7-1.7,2.8-3.3,3.4-5l2.5,2.7c2.4,1.8,5.8,2.7,10.2,2.5
					c4.4-0.3,8.8-2.2,13.2-5.7c2.1-1.7,3.8-3.3,5-5l1.8,4.5c2.4,3.2,6.4,5,12,5.5c5.8,0.5,10.8-1.4,15-5.5c2.1-2,3.6-4,4.5-6.1
					l7,3.4c6.1,2.3,12.3,3.3,18.9,3c7.1-0.2,13.1-4.2,17.9-12c3.5-5.6,7-14.8,10.7-27.5c2.6-8.9,0.1-13.9-7.5-14.8l-12.3,1.1l8.6-10
					c5.3-8.5,7-16.8,5-25c-1.8-8.2-7.1-12.3-15.9-12.5l-12.7,2c0-3.8-0.6-8-1.8-12.7c-2.6-9.4-7-16.3-13.4-20.7
					c-6.4-4.4-13.1-5.2-20.2-2.5l-8.6,5.5C489.6,242,488.1,238.3,486,234.2z"/>
			</g>
		</g>
	</g>
	<g transform="matrix( 1, 0, 0, 1, 0,-0.15) ">
		<g>
			<g id="Layer0_0_MEMBER_12_FILL">
				<path class="st4" d="M401.2,211.7c4.7,0.6,7,7,6.8,19.3c0,6.1-0.5,12-1.6,17.9c3.6-6.4,6.3-12.9,8-19.5
					c3.5-13.6,0.6-21.5-8.6-23.6s-19.3-0.2-30.2,5.9l-13.6,10l15.4-5.5C388.6,212.6,396.5,211.1,401.2,211.7z"/>
			</g>
		</g>
	</g>
	<g transform="matrix( 1, 0, 0, 1, 0,-0.15) ">
		<g>
			<g id="Layer0_0_MEMBER_13_FILL">
				<path class="st4" d="M431.4,255.8l7-4.3c5.8-2.9,11-4,15.7-3.4c4.7,0.6,8.8,4.8,12.3,12.5c1.7,3.8,2.9,7.5,3.6,11.1
					c-0.3-5.6-1.3-11.3-3-17c-3.2-11.4-7.7-17-13.6-17s-11.4,3-16.4,9.1L431.4,255.8z"/>
			</g>
		</g>
	</g>
	<g transform="matrix( 1, 0, 0, 1, 0,-0.15) ">
		<g>
			<g id="Layer0_0_MEMBER_14_FILL">
				<path class="st4" d="M491.4,273.1l8.2,1.8c5.8,1.5,9.5,3.2,11.4,5c3,3,4.5,12.1,4.5,27.3c1.4-3,2.5-6.6,3.4-10.7
					c1.7-8,1.1-14.5-1.8-19.5c-2.9-5-8-7.1-15.4-6.4L491.4,273.1z"/>
			</g>
		</g>
	</g>
	<g transform="matrix( 1, 0, 0, 1, 0,-0.15) ">
		<g>
			<g id="Layer0_0_MEMBER_15_FILL">
				<path class="st4" d="M380.1,285.3c5.1-2.3,9.4-2.8,12.7-1.6c3.5,1.2,6.2,6.5,8.2,15.9c0.9,4.7,1.5,9.2,1.8,13.6
					c1.2-5.3,1.9-10.8,2-16.4c0-11.4-3-18-8.9-20c-6.1-1.8-11.7-0.4-16.8,4.3l-5.9,7.7L380.1,285.3z"/>
			</g>
		</g>
	</g>
	<g transform="matrix( 1, 0, 0, 1, 0,-0.15) ">
		<g>
			<g id="Layer0_0_MEMBER_16_MEMBER_0_FILL">
				<path class="st5" d="M460.8,370.8l6.4-6.1c5.1-3.9,9.8-5.7,14.1-5.2s8.3,2.3,12.3,5.5c2.1,1.7,3.7,3.3,4.8,4.8l17-10.2l4.1,0.7
					c3.6,0.8,7.6,2,11.8,3.9c3.8,1.8,8.3,5.1,13.6,9.8c5-1.2,9.5-4.8,13.4-10.7c-6.1,0.3-11.7-0.5-16.8-2.5
					c-5.8-3-10.7-5.3-14.8-6.8c-5.1-1.8-10.7-0.7-16.6,3.4l-7.3,6.8c-6.8-4.5-15.5-7.6-26.1-9.1c-6.7-0.9-12.8-0.1-18.4,2.5
					l-6.6,4.3c-6.1-3.8-14-6.4-23.9-8c-6.2-0.9-14.1,1.1-23.6,5.9l-12.7,7.7c-3.3-3.3-7.4-6.9-12.3-10.7
					c-9.4-7.4-17.4-11.8-24.1-13.2c-6.7-1.4-14.5,0.3-23.6,5l-11.6,7.5c-15.9-6.1-28.4-8.7-37.5-8c-2.6,0.3-7.3,1.4-14.3,3.2
					l-9.5,2.5c-0.8-6.1-3.4-10.2-8-12.5c-2.9-1.4-7-2-12.3-1.8l-7,0.7c10.6-8.8,16.3-16,17-21.6c0.6-5.5,0.1-11.4-1.6-17.9l-3-8.2
					l10.7-2.3c7.7-2.3,13.3-5.3,16.6-9.1s4.2-11,2.5-21.6l-3.6-14.8l9.8-3.6c7.4-4.2,13.3-10.6,17.5-19.1c3.9-7.7,4.1-15.6,0.5-23.6
					c-2.3-4.7-5.3-8.7-9.1-12c-6.7,3-12.6,7-17.7,11.8l-5.9,6.1c-1.8-2.7-4.5-5.4-8-8c-7.1-5-15.1-6.9-23.9-5.7l-4.8,1.4
					c11.4,16.4,12.7,28.6,4.1,36.8c-8.9,8.5-20,14.2-33.2,17.3l-16.8,2l9.5,15.4c5.9,10.9,7.6,18.2,5.2,22c-2.4,3.8-7.3,7-14.5,9.8
					l-10.5,2.7l13.4,15c8.2,11.1,10.1,18.9,5.9,23.6s-9.7,8.2-16.4,10.5l-8.6,2l20,4.1c14.2,3.2,23.5,6,27.7,8.4
					c4.2,2.4,6.8,6.1,7.7,11.1c0.6,2.6,0.7,4.9,0.2,7l12.9-3.4c9.7-1.7,17.1-1,22.3,2c1.8,1.2,2.7,3,2.7,5.5c9.2-3.2,17-8,23.4-14.3
					l9.1,4.8c7.4,3.2,14.1,5.1,20,5.7c5.9,0.5,10.6-2.3,14.1-8.2l3.4-9.1l6.4,7.7c5.1,5.6,9.8,9.1,14.1,10.5
					c3.8,1.2,9.8,1.1,17.9-0.5c10.9-2,18.9-3,24.1-3c7.6,0,14-2,19.3-6.1c2.7-2.1,4.6-4.2,5.7-6.4l3,4.1c2.6,3,5.8,5.5,9.5,7.3
					c3,1.5,4.9-0.2,5.7-5c0.8-5.8,2.7-8.6,5.7-8.6C447.5,362.8,453.9,365.5,460.8,370.8z"/>
			</g>
		</g>
	</g>
	<g transform="matrix( 1, 0, 0, 1, 0,-0.15) ">
		<g>
			<g id="Layer0_0_MEMBER_16_MEMBER_1_FILL">
				<path class="st6" d="M228.4,192c-8.2,3.3-17.2,12-27,25.9c-4.8,7-8.9,13.6-12,19.8c-2-2.7-5.1-5.5-9.3-8.2
					c-8.3-5.3-17.9-7.6-28.6-7c-10.8,0.6-17.3,9.9-19.5,27.9c-1.1,8.9-1.1,17.8-0.2,26.6c-3-0.9-7-1.4-11.8-1.6
					c-9.8-0.3-19.5,1.7-29.1,6.1c-9.4,4.4-12.4,15.6-9.1,33.6c1.7,8.9,4.2,17.4,7.7,25.4c-3.5,0.3-7,1.1-10.7,2.5
					c-7.1,2.9-10.7,7.1-10.7,12.7c0,7,2.4,12.6,7.3,16.8c4.2,3.8,8.9,5.8,14.1,5.9c6.1,0.2,15.1-1.7,27.3-5.5l-0.2,5
					c1.2,3.5,5.3,5.1,12.3,5c11.1-0.3,18.4-1.7,22-4.3l4.8,4.1c4.1,2.7,8.8,3.8,14.1,3.2c8.5-0.9,17.3-3.1,26.6-6.6l8.6,4.1
					c7,2.9,13.4,4.2,19.3,4.1c9.5-0.3,18.2-2.7,25.9-7l0.2,1.8c0.5,1.5,1.1,2.8,2,3.9l1.8-0.7c1.4-0.2,3.4-0.7,6.1-1.6
					c0-2.4-0.9-4.2-2.7-5.5c-5.1-3-12.6-3.7-22.3-2l-12.9,3.4c0.5-2.1,0.4-4.5-0.2-7c-0.9-5-3.5-8.7-7.7-11.1
					c-4.2-2.4-13.5-5.2-27.7-8.4l-20-4.1l8.6-2c6.7-2.3,12.1-5.8,16.4-10.5s2.3-12.6-5.9-23.6l-13.4-15l10.5-2.7
					c7.3-2.7,12.1-6,14.5-9.8c3.8-6.1,6.4-19.4,8-40l5.5-0.7c5.6-2.3,12.9-7.6,21.8-16.1C241.1,220.6,239.7,208.3,228.4,192z"/>
			</g>
		</g>
	</g>
	<g transform="matrix( 1, 0, 0, 1, 0,-0.15) ">
		<g>
			<g id="Layer0_0_MEMBER_16_MEMBER_2_FILL">
				<path class="st6" d="M453,377.6c2.4,1.8,5.8,2.7,10.2,2.5c4.4-0.3,8.8-2.2,13.2-5.7c2.1-1.7,3.8-3.3,5-5l1.8,4.5
					c2.4,3.2,6.4,5,12,5.5c5.8,0.5,10.8-1.4,15-5.5c2.1-2,3.6-4,4.5-6.1l7,3.4c6.1,2.3,12.3,3.3,18.9,3l4.1-0.5
					c-5.3-4.7-9.8-8-13.6-9.8c-4.2-1.8-8.2-3.1-11.8-3.9l-4.1-0.7l-17,10.2c-1.1-1.5-2.7-3.1-4.8-4.8c-3.9-3.2-8-5-12.3-5.5
					s-8.9,1.3-14.1,5.2l-6.4,6.1c-6.8-5.3-13.3-8-19.3-8c-3,0-4.9,2.9-5.7,8.6c-0.8,4.8-2.7,6.5-5.7,5c-3.8-1.8-7-4.2-9.5-7.3
					l-3-4.1c-1.1,2.1-3,4.2-5.7,6.4c-5.3,4.1-11.7,6.1-19.3,6.1c-5.1,0-13.2,1-24.1,3c-8.2,1.5-14.2,1.7-17.9,0.5
					c-4.2-1.4-8.9-4.8-14.1-10.5l-6.4-7.7l-3.4,9.1c-3.5,5.9-8.2,8.6-14.1,8.2c-5.9-0.6-12.6-2.5-20-5.7l-9.1-4.8
					c-6.4,6.4-14.2,11.1-23.4,14.3c-2.7,0.9-4.8,1.4-6.1,1.6l-1.8,0.7c2.7,3,6.9,4.3,12.5,3.9c6.2-0.2,11.1-1.7,14.8-4.5l3.6-4.1
					l8.9,3.9c7,2.6,13.3,3.8,18.9,3.6c5.8-0.2,10.5-2.4,14.1-6.8l3.6-6.6l5.2,7.3c4.8,5,10.5,7.8,16.8,8.4c10,1.1,18.8-0.2,26.4-3.6
					l5.2,1.8c4.2,0.8,8.3,0.5,12-0.9c6.2-2.3,12.6-5.7,19.3-10.2l5.5,4.1c4.5,2.7,9.5,3.8,15,3.2c5.5-0.5,9.8-2.3,13.2-5.7
					c1.7-1.7,2.8-3.3,3.4-5L453,377.6z"/>
			</g>
		</g>
	</g>
	<g transform="matrix( 1, 0, 0, 1, 0,-0.15) ">
		<g>
			<g id="Layer0_0_MEMBER_17_MEMBER_0_MEMBER_0_FILL">
				<path class="st7" d="M481.2,297.6c-1.2,4.7-2.7,8.9-4.5,12.7c3.5-5.1,6.4-10.5,8.9-16.1c5-11.4,1.4-18.6-10.9-21.8
					c-11.2-1.1-17.3,4.3-18.4,16.1c-0.5,5.9,0,11.9,1.4,17.9c0.6-6.1,1.7-11.8,3.4-17.3c3.6-10.9,8.6-14.6,14.8-11.1
					C481.7,281.9,483.5,288.4,481.2,297.6z"/>
			</g>
		</g>
	</g>
	<g transform="matrix( 1, 0, 0, 1, 0,-0.15) ">
		<g>
			<g id="Layer0_0_MEMBER_18_MEMBER_0_MEMBER_0_FILL">
				<path class="st7" d="M382.8,323.1c1.2,0,1.4-3.3,0.7-9.8c-0.8-6.4-3.6-9.4-8.4-9.1c-5.6,0.5-8.2,3.9-7.7,10.2
					c0.3,3.2,1.1,6.3,2.5,9.3c-0.3-3.2-0.2-6.3,0.2-9.3c0.9-6.2,3-8.7,6.1-7.5C380.8,308.6,383,314,382.8,323.1z"/>
			</g>
		</g>
	</g>
	<g transform="matrix( 1, 0, 0, 1, 0,-0.15) ">
		<g>
			<g id="Layer0_0_MEMBER_19_MEMBER_0_MEMBER_0_FILL">
				<path class="st7" d="M314.2,219.9c4.7,1.5,7.8,6.1,9.3,13.6c0.8,3.6,1,7.2,0.7,10.7c1.2-5,1.7-9.9,1.4-14.8
					c-0.8-9.8-5.2-14.4-13.4-13.6c-8.8,1.4-12.3,6.8-10.7,16.4c0.8,4.7,2.3,9.2,4.8,13.6c-0.9-4.7-1.2-9.4-0.9-14.1
					C306,222.5,308.9,218.6,314.2,219.9z"/>
			</g>
		</g>
	</g>
	<g transform="matrix( 1, 0, 0, 1, 0,-0.15) ">
		<g>
			<g id="Layer0_0_MEMBER_20_MEMBER_0_MEMBER_0_FILL">
				<path class="st7" d="M288.1,320.3c-1.2,7.6-3,14.5-5.5,20.9c5.3-8.9,9.3-18,12-27.3c5.6-18.8-0.6-30-18.6-33.6
					c-18.6-1.4-28.2,7.5-28.9,26.6c-0.5,9.4,0.8,18.9,3.6,28.6c0.3-9.7,1.7-18.9,4.3-27.7c5.1-17.6,12.8-23.8,22.9-18.6
					C287,295,290.4,305.3,288.1,320.3z"/>
			</g>
		</g>
	</g>
	<g transform="matrix( 1, 0, 0, 1, 0,-0.15) ">
		<g>
			<g id="Layer0_0_MEMBER_21_MEMBER_0_MEMBER_0_FILL">
				<path class="st8" d="M182.5,321.2c-0.5,3.8-1.3,7.3-2.5,10.5c2.7-4.4,4.6-8.9,5.7-13.6c2.1-9.5-0.4-15.3-7.5-17.3
					c-8.2-2.1-13.5,1.5-15.9,10.9c-1.1,4.7-1.4,9.5-1.1,14.5c1.2-4.7,2.9-9.1,5-13.2c4.2-8.3,8.3-11,12.3-8
					C182,308.1,183.4,313.5,182.5,321.2z"/>
			</g>
		</g>
	</g>
	<g transform="matrix( 1, 0, 0, 1, 0,-0.15) ">
		<g>
			<g id="Layer0_0_MEMBER_22_MEMBER_0_MEMBER_0_FILL">
				<path class="st8" d="M237.4,240.6c0.8,2.1,1.1,3.2,0.7,3.4c0.9-0.3,0.8-1.9-0.2-4.8c-1.1-2.9-2-4.5-2.7-4.8
					c-1.5-0.6-3.1,0.5-4.8,3.2s-2.3,4.2-1.8,4.5c0.9-1.4,1.8-2.7,2.7-3.9c2-2.6,3.2-3.4,3.6-2.5
					C235.7,236.6,236.5,238.2,237.4,240.6z"/>
			</g>
		</g>
	</g>
	<g transform="matrix( 1, 0, 0, 1, 0,-0.15) ">
		<g>
			<g id="Layer0_0_MEMBER_23_MEMBER_0_MEMBER_0_FILL">
				<path class="st8" d="M118.6,326.9c0.4,2.1,1,4.2,2,6.1c-0.1-1.2,0.1-3.3,0.5-6.1c0.6-5.3,2.7-7.3,6.1-5.9
					c2.9,1.7,3.9,4.6,3.2,8.9c-0.3,2.1-0.8,4.1-1.6,5.9c1.5-2.6,2.7-5.2,3.6-8c1.7-5.3-0.3-8.4-5.9-9.3
					C120.1,318.8,117.4,321.6,118.6,326.9z"/>
			</g>
		</g>
	</g>
	<g transform="matrix( 1, 0, 0, 1, 0,-0.15) ">
		<g>
			<g id="Layer0_0_MEMBER_24_MEMBER_0_MEMBER_0_FILL">
				<path class="st8" d="M168.2,254c3,0.8,4.9,4.1,5.7,10c0.5-8.8-1.7-12.6-6.6-11.6c-2.4,0.2-3.8,2.3-4.1,6.6
					c-0.3,4.1-0.2,6.1,0.5,6.1c0.3-2.1,0.7-4.2,1.1-6.1C165.5,255.1,166.6,253.4,168.2,254z"/>
			</g>
		</g>
	</g>
	<g transform="matrix( 1, 0, 0, 1, 0,-0.15) ">
		<g>
			<g id="Layer0_0_MEMBER_25_MEMBER_0_MEMBER_0_FILL">
				<path class="st7" d="M417.8,241.3c3.8,1.8,5.8,6.8,6.1,15c1.4-12-1-17.8-7-17.5c-4.2-0.2-6.7,2.7-7.3,8.6
					c-0.2,2.9,0.1,5.8,0.7,8.9c0.3-3,0.8-5.9,1.6-8.6C413.4,242.2,415.4,240.1,417.8,241.3z"/>
			</g>
		</g>
	</g>
	<g transform="matrix( 1, 0, 0, 1, 0,-0.15) ">
		<g>
			<g id="Layer0_0_MEMBER_26_MEMBER_0_MEMBER_0_FILL">
				<path class="st7" d="M440.1,344.4c1.2,3.2,1.9,6.2,2,9.1c1.5,0,1.3-4.2-0.7-12.7c-2.1-8.3-6.3-11.9-12.5-10.7
					c-7.3,1.7-10,6.6-8.2,14.8c0.9,4.1,2.4,8,4.5,11.8c-0.9-4.2-1.4-8.4-1.4-12.5c0.2-8,2.4-11.6,6.8-10.7
					C434.7,334.4,437.8,338,440.1,344.4z"/>
			</g>
		</g>
	</g>
	<g transform="matrix( 1, 0, 0, 1, 0,-0.15) ">
		<g>
			<g id="Layer0_0_MEMBER_27_MEMBER_0_MEMBER_0_FILL">
				<path class="st7" d="M377.6,365.8c0.8-10.6-3.5-16.1-12.7-16.6c-10.5,0.9-15,6.5-13.6,16.8c0.6,4.3,1.8,8.4,3.6,12.5
					c-0.2-2.4,0.2-6.5,0.9-12.5c1.2-10,4.8-14,10.9-12c5,2.4,7.7,7.7,8.2,15.9c0.3,4.1,0.1,8-0.7,11.6
					C376.2,376.3,377.3,371.1,377.6,365.8z"/>
			</g>
		</g>
	</g>
	<g transform="matrix( 1, 0, 0, 1, 0,-0.15) ">
		<g>
			<g id="Layer0_0_MEMBER_28_MEMBER_0_MEMBER_0_FILL">
				<path class="st7" d="M520.7,343.5c-1.2,2.7-2.7,5.1-4.3,7.3c3-2.7,5.6-5.8,7.7-9.1c4.4-6.4,3-11.3-4.3-14.8
					c-6.8-2.1-11.3,0.5-13.4,7.7c-1.1,3.6-1.6,7.4-1.6,11.4l4.5-10.2c3.6-6.4,7.1-8.1,10.5-5.2C523,333.7,523.3,338,520.7,343.5z"/>
			</g>
		</g>
	</g>
	<g transform="matrix( 1, 0, 0, 1, 0,-0.15) ">
		<g>
			<g id="Layer0_0_MEMBER_29_MEMBER_0_MEMBER_0_FILL">
				<path class="st7" d="M315.8,364.2c-0.6,2.7-1.5,5.1-2.7,7.3c2.3-3,4.2-6.1,5.7-9.3c3-6.5,1-10.8-6.1-12.7
					c-6.5-0.8-10.1,2.3-10.9,9.1c-0.3,3.5-0.1,7,0.7,10.5c0.3-3.5,1-6.8,2-10c2.1-6.2,5-8.3,8.6-6.1
					C316.4,355.2,317.3,359,315.8,364.2z"/>
			</g>
		</g>
	</g>
	<g transform="matrix( 1, 0, 0, 1, 0,-0.15) ">
		<g>
			<g id="Layer0_0_MEMBER_30_MEMBER_0_MEMBER_0_FILL">
				<path class="st7" d="M332.4,267.4c3.3,1.4,5.1,5.5,5.2,12.5c1.2-10.1-0.8-15.1-5.9-14.8c-3.6-0.2-5.7,2.3-6.1,7.3
					c-0.3,2.6-0.2,5.1,0.5,7.5c0.3-2.4,0.8-4.8,1.4-7.3C328.8,268.1,330.4,266.3,332.4,267.4z"/>
			</g>
		</g>
	</g>
	<g transform="matrix( 1, 0, 0, 1, 0,-0.15) ">
		<g>
			<g id="Layer0_0_MEMBER_31_MEMBER_0_MEMBER_0_FILL">
				<path class="st8" d="M220.4,366.9c1.8-4.8,3.2-9.8,4.1-15c2-10.1-2.8-15.1-14.3-15c-11.4,3.6-14.8,9.9-10.5,18.9
					c1.7,3.4,3.8,6.6,6.4,9.5c-0.7-2.3-1.4-5.9-2-10.9c-1.5-9.5,1.4-14,8.6-13.4c5.9,1.8,8.9,6.7,8.9,14.8
					C221.5,359.7,221.2,363.4,220.4,366.9 M206.1,365.3c0.9,2.9,1.8,3.9,2.7,3C207.9,367.3,207,366.4,206.1,365.3z"/>
			</g>
		</g>
	</g>
	<g transform="matrix( 1, 0, 0, 1, 0,-0.15) ">
		<g>
			<g id="Layer0_0_MEMBER_32_MEMBER_0_MEMBER_0_FILL">
				<path class="st4" d="M364.9,191.3l3.4-1.1c2.6-1.2,4.5-2.7,5.9-4.3c2.4-2.7,3.3-5.9,2.7-9.5c-2.9-0.9-5.8,0.3-8.9,3.6
					c-1.8,2.1-2.9,4.7-3.2,7.7C364.7,189,364.7,190.2,364.9,191.3z"/>
			</g>
		</g>
	</g>
	<g transform="matrix( 1, 0, 0, 1, 0,-0.15) ">
		<g>
			<g id="Layer0_0_MEMBER_33_MEMBER_0_MEMBER_0_FILL">
				<path class="st4" d="M266.5,191.3c0.8-2.1,0.8-4.2,0.2-6.4c-0.3-1.2-1.1-2.3-2.3-3.2l-1.6-0.9l-0.7,1.6c-0.5,1.2-0.5,2.6,0,4.1
					C263,188.9,264.4,190.5,266.5,191.3z"/>
			</g>
		</g>
	</g>
	<g transform="matrix( 1, 0, 0, 1, 0,-0.15) ">
		<g>
			<g id="Layer0_0_MEMBER_34_MEMBER_0_MEMBER_0_FILL">
				<path class="st4" d="M437.1,208.6l2.7-0.7c2.1-0.8,3.9-1.8,5.2-3.2c2.4-2.1,3.3-4.5,2.7-7.3c-2.6-0.6-5,0.2-7.3,2.5
					c-1.5,1.4-2.5,3.3-3,5.7C437.3,206.7,437.1,207.6,437.1,208.6z"/>
			</g>
		</g>
	</g>
	<g transform="matrix( 1, 0, 0, 1, 0,-0.15) ">
		<g>
			<g id="Layer0_0_MEMBER_35_MEMBER_0_MEMBER_0_FILL">
				<path class="st4" d="M506.2,231.7c3.2-2.7,4.5-6,4.1-9.8c-0.8-0.3-1.8-0.4-3.2-0.2c-2.4,0.3-4.7,1.4-6.8,3.2
					c-2.1,2-3.6,4.5-4.3,7.5c-0.3,1.5-0.5,2.9-0.5,4.1l3.6-0.9C502,234.7,504.4,233.4,506.2,231.7z"/>
			</g>
		</g>
	</g>
	<g transform="matrix( 1, 0, 0, 1, 0,-0.15) ">
		<g>
			<g id="Layer0_0_MEMBER_36_MEMBER_0_MEMBER_0_FILL">
				<path class="st4" d="M536.9,266.3l2.3,0.9c1.8,0.6,3.6,0.8,5.2,0.5c2.6-0.5,4.5-1.7,5.7-3.9c-1.4-1.8-3.5-2.5-6.4-2
					c-1.8,0.3-3.5,1.1-5,2.5L536.9,266.3z"/>
			</g>
		</g>
	</g>
	<g transform="matrix( 1, 0, 0, 1, 0,-0.15) ">
		<g>
			<g id="Layer0_0_MEMBER_37_MEMBER_0_MEMBER_0_FILL">
				<path class="st4" d="M499.4,262.4l3.4-0.9c2.7-0.9,5-2.3,6.8-4.1c2.9-3,4-6.2,3.4-9.5c-3.5-0.6-6.7,0.5-9.5,3.2
					c-1.7,1.8-2.8,4.2-3.4,7.3C499.8,259.8,499.5,261.2,499.4,262.4z"/>
			</g>
		</g>
	</g>
	<g transform="matrix( 1, 0, 0, 1, 0,-0.15) ">
		<g>
			<g id="Layer0_0_MEMBER_38_MEMBER_0_MEMBER_0_FILL">
				<path class="st4" d="M493.2,317.1l1.6-0.7c1.4-0.6,2.3-1.4,3-2.3c1.2-1.5,1.6-3,1.1-4.5c-1.5-0.3-3,0.4-4.3,2
					c-0.9,0.9-1.4,2.1-1.4,3.6C493.1,316.1,493.1,316.7,493.2,317.1z"/>
			</g>
		</g>
	</g>
	<g transform="matrix( 1, 0, 0, 1, 0,-0.15) ">
		<g>
			<g id="Layer0_0_MEMBER_39_MEMBER_0_MEMBER_0_FILL">
				<path class="st4" d="M389.2,258.5c-3.6,0-7,1.1-10,3.2c-1.8,1.4-3.1,3.1-3.9,5.2c-0.3,1.1-0.5,2-0.5,2.7l2.7,0.5
					c2.3,0,4.4-0.7,6.4-2C387.1,265.8,388.9,262.6,389.2,258.5z"/>
			</g>
		</g>
	</g>
	<g transform="matrix( 1, 0, 0, 1, 0,-0.15) ">
		<g>
			<g id="Layer0_0_MEMBER_40_MEMBER_0_MEMBER_0_FILL">
				<path class="st4" d="M335.4,211.1c1.4-4.7,1.1-9.3-0.7-13.9c-1.1-2.9-2.9-5.1-5.5-6.8l-3.4-1.6l-1.4,3.4
					c-0.8,2.7-0.6,5.7,0.5,8.9C326.7,205.9,330.2,209.2,335.4,211.1z"/>
			</g>
		</g>
	</g>
	<g transform="matrix( 1, 0, 0, 1, 0,-0.15) ">
		<g>
			<g id="Layer0_0_MEMBER_41_MEMBER_0_MEMBER_0_FILL">
				<path class="st4" d="M347.4,296.7c-4.8-1.2-9.5-0.6-14.1,1.8c-2.7,1.5-4.8,3.7-6.1,6.6c-0.8,1.5-1.2,2.8-1.4,3.9
					c3.6,2,7.7,1.7,12.3-0.9C342.6,305.8,345.7,302,347.4,296.7z"/>
			</g>
		</g>
	</g>
	<g transform="matrix( 1, 0, 0, 1, 0,-0.15) ">
		<g>
			<g id="Layer0_0_MEMBER_42_MEMBER_0_MEMBER_0_FILL">
				<path class="st4" d="M453.3,318.1v3.9c0.2,2.9,0.7,5.3,1.6,7.3c1.1,3.5,3.4,6,7,7.5c2.6-2.1,3.1-5.6,1.6-10.5
					c-1.4-3.2-3.5-5.5-6.4-7L453.3,318.1z"/>
			</g>
		</g>
	</g>
	<g transform="matrix( 1, 0, 0, 1, 0,-0.15) ">
		<g>
			<g id="Layer0_0_MEMBER_43_MEMBER_0_MEMBER_0_FILL">
				<path class="st4" d="M558.4,325.3l3-0.2c2.1-0.2,4-0.7,5.7-1.6c2.6-1.1,4.4-3,5.5-5.9c-1.8-2-4.6-2.2-8.4-0.7
					c-2.1,1.2-3.7,3-4.8,5.2C558.9,323.4,558.6,324.4,558.4,325.3z"/>
			</g>
		</g>
	</g>
	<g transform="matrix( 1, 0, 0, 1, 0,-0.15) ">
		<g>
			<g id="Layer0_0_MEMBER_44_MEMBER_0_MEMBER_0_FILL">
				<path class="st4" d="M302.4,279.4c0.2-1.2,0.2-2.8,0.2-4.8c-0.3-3.9-1.4-7.4-3.2-10.5c-2.6-2.7-5.5-4.4-8.6-5
					c-2.7-0.5-4.1-0.5-4.1,0c0.2,0,0.2,1.3,0,3.9c0.3,3,1.5,5.6,3.6,7.7C292.6,274.6,296.7,277.5,302.4,279.4z"/>
			</g>
		</g>
	</g>
	<g transform="matrix( 1, 0, 0, 1, 0,-0.15) ">
		<g>
			<g id="Layer0_0_MEMBER_45_MEMBER_0_MEMBER_0_FILL">
				<path class="st4" d="M306,330.8c-3.3-2.3-6.9-2.6-10.7-0.9c-2.3,0.9-3.8,2.5-4.5,4.8c-0.5,1.1-0.7,2-0.7,2.7
					c0.3,0.3,1.1,0.5,2.5,0.5c1.8,0.2,3.7-0.2,5.7-0.9C301,335.5,303.6,333.5,306,330.8z"/>
			</g>
		</g>
	</g>
	<g transform="matrix( 1, 0, 0, 1, 0,-0.15) ">
		<g>
			<g id="Layer0_0_MEMBER_46_MEMBER_0_FILL">
				<path class="st9" d="M441,291.7c-0.8-5.5-4.2-7.3-10.2-5.7c-4.7,1.2-6.6,4.3-5.7,9.3c0.8,5,3.7,7,8.9,5.9
					C439.4,300.2,441.7,297,441,291.7z"/>
			</g>
		</g>
	</g>
	<g transform="matrix( 1, 0, 0, 1, 0,-0.15) ">
		<g>
			<g id="Layer0_0_MEMBER_46_MEMBER_1_FILL">
				<path class="st10" d="M437.4,290.1c-0.6-1.2-1.3-1.7-2-1.6c-0.9,0.2-1,0.8-0.2,1.8c0.8,1.2,1.5,1.8,2.3,1.8
					S438.1,291.5,437.4,290.1z"/>
			</g>
		</g>
	</g>
	<g transform="matrix( 1, 0, 0, 1, 0,-0.15) ">
		<g>
			<g id="Layer0_0_MEMBER_46_MEMBER_2_MEMBER_0_FILL">
				<path class="st11" d="M425.1,295.3c0.8,5,3.7,7,8.9,5.9c3.3-0.6,5.5-2.4,6.6-5.5c-4.1,1.8-7.3,1.9-9.5,0.2
					c-1.7-1.1-2.2-3-1.6-5.9l1.4-4.1C426.1,287.2,424.2,290.3,425.1,295.3z"/>
			</g>
		</g>
	</g>
	<g transform="matrix( 1, 0, 0, 1, 0,-0.15) ">
		<g>
			<g id="Layer0_0_MEMBER_47_MEMBER_0_FILL">
				<path class="st9" d="M534.1,354.6c-0.8-5.5-4.2-7.3-10.2-5.7c-4.7,1.2-6.6,4.2-5.7,9.1c0.8,5,3.7,7,8.9,6.1
					C532.5,363.1,534.9,359.9,534.1,354.6z"/>
			</g>
		</g>
	</g>
	<g transform="matrix( 1, 0, 0, 1, 0,-0.15) ">
		<g>
			<g id="Layer0_0_MEMBER_47_MEMBER_1_FILL">
				<path class="st10" d="M530.5,353c-0.6-1.4-1.3-2-2-1.8c-0.9,0.2-1,0.8-0.2,2c0.8,1.1,1.5,1.6,2.3,1.6S531.3,354.3,530.5,353z"/>
			</g>
		</g>
	</g>
	<g transform="matrix( 1, 0, 0, 1, 0,-0.15) ">
		<g>
			<g id="Layer0_0_MEMBER_47_MEMBER_2_MEMBER_0_FILL">
				<path class="st11" d="M518.2,358c0.8,5,3.7,7,8.9,6.1c3.3-0.6,5.5-2.5,6.6-5.7c-4.1,1.8-7.3,2-9.5,0.5c-1.7-1.1-2.2-3-1.6-5.9
					l1.4-4.1C519.2,350.2,517.3,353.2,518.2,358z"/>
			</g>
		</g>
	</g>
	<g transform="matrix( 1, 0, 0, 1, 0,-0.15) ">
		<g>
			<g id="Layer0_0_MEMBER_48_MEMBER_0_FILL">
				<path class="st9" d="M266.1,254.9c-0.8-5.6-4.3-7.6-10.7-5.9c-4.8,1.2-6.8,4.4-5.9,9.5c0.9,5.1,4,7.2,9.3,6.1
					C264.4,263.6,266.8,260.4,266.1,254.9z"/>
			</g>
		</g>
	</g>
	<g transform="matrix( 1, 0, 0, 1, 0,-0.15) ">
		<g>
			<g id="Layer0_0_MEMBER_48_MEMBER_1_FILL">
				<path class="st10" d="M262.2,253.1c-0.6-1.2-1.3-1.7-2-1.6c-0.9,0.2-1,0.8-0.2,1.8c0.8,1.2,1.5,1.8,2.3,1.8
					C263,255.1,263,254.4,262.2,253.1z"/>
			</g>
		</g>
	</g>
	<g transform="matrix( 1, 0, 0, 1, 0,-0.15) ">
		<g>
			<g id="Layer0_0_MEMBER_48_MEMBER_2_MEMBER_0_FILL">
				<path class="st11" d="M249.5,258.5c0.9,5.1,4,7.2,9.3,6.1c3.5-0.6,5.8-2.5,6.8-5.7c-4.4,1.7-7.7,1.7-10,0.2
					c-1.7-1.1-2.2-3.1-1.6-6.1l1.4-4.1C250.5,250.2,248.6,253.4,249.5,258.5z"/>
			</g>
		</g>
	</g>
	<g transform="matrix( 1, 0, 0, 1, 0,-0.15) ">
		<g>
			<g id="Layer0_0_MEMBER_49_MEMBER_0_FILL">
				<path class="st9" d="M222.2,314.4c-0.9-6.1-4.8-8.2-11.8-6.4c-5.3,1.4-7.5,4.8-6.6,10.5c0.9,5.6,4.4,7.9,10.5,6.8
					C220.5,324.1,223.1,320.5,222.2,314.4z"/>
			</g>
		</g>
	</g>
	<g transform="matrix( 1, 0, 0, 1, 0,-0.15) ">
		<g>
			<g id="Layer0_0_MEMBER_49_MEMBER_1_FILL">
				<path class="st10" d="M218.1,312.6c-0.8-1.4-1.6-2-2.5-1.8c-0.9,0.2-1,0.9-0.2,2.3c0.8,1.2,1.6,1.8,2.5,1.8
					C218.8,314.9,218.9,314.1,218.1,312.6z"/>
			</g>
		</g>
	</g>
	<g transform="matrix( 1, 0, 0, 1, 0,-0.15) ">
		<g>
			<g id="Layer0_0_MEMBER_49_MEMBER_2_MEMBER_0_FILL">
				<path class="st11" d="M203.8,318.5c0.9,5.6,4.4,7.9,10.5,6.8c3.6-0.6,6.1-2.7,7.5-6.1c-5,1.7-8.7,1.7-11.1,0.2
					c-1.8-1.2-2.4-3.5-1.8-6.8l1.6-4.5C205.1,309.4,202.9,312.9,203.8,318.5z"/>
			</g>
		</g>
	</g>
	<g transform="matrix( 1, 0, 0, 1, 0,-0.15) ">
		<g>
			<g id="Layer0_0_MEMBER_50_MEMBER_0_FILL">
				<path class="st9" d="M348.5,343.5c-0.6-5-3.9-6.7-9.8-5.2c-4.4,1.2-6.2,4.2-5.5,8.9c0.9,4.7,3.8,6.6,8.6,5.7
					C347.1,351.8,349.3,348.7,348.5,343.5z"/>
			</g>
		</g>
	</g>
	<g transform="matrix( 1, 0, 0, 1, 0,-0.15) ">
		<g>
			<g id="Layer0_0_MEMBER_50_MEMBER_1_FILL">
				<path class="st10" d="M345.1,342.1c-0.6-1.2-1.3-1.7-2-1.6c-0.8,0.2-0.8,0.8,0,1.8c0.6,1.1,1.3,1.6,2,1.6
					C345.7,344,345.7,343.3,345.1,342.1z"/>
			</g>
		</g>
	</g>
	<g transform="matrix( 1, 0, 0, 1, 0,-0.15) ">
		<g>
			<g id="Layer0_0_MEMBER_50_MEMBER_2_MEMBER_0_FILL">
				<path class="st11" d="M333.3,347.1c0.9,4.7,3.8,6.6,8.6,5.7c3.2-0.6,5.3-2.4,6.4-5.5c-3.5,2-6.6,2.1-9.3,0.5
					c-1.5-1.1-2-3-1.4-5.7l1.1-3.9C334.4,339.5,332.6,342.4,333.3,347.1z"/>
			</g>
		</g>
	</g>
	<g transform="matrix( 1, 0, 0, 1, 0,-0.15) ">
		<g>
			<g id="Layer0_0_MEMBER_51_MEMBER_0_FILL">
				<path class="st9" d="M362.2,199.5c-0.8-5.6-4.3-7.6-10.7-5.9c-4.8,1.2-6.8,4.5-5.9,9.8c0.9,5.1,4,7.2,9.3,6.1
					C360.5,208.3,362.9,204.9,362.2,199.5z"/>
			</g>
		</g>
	</g>
	<g transform="matrix( 1, 0, 0, 1, 0,-0.15) ">
		<g>
			<g id="Layer0_0_MEMBER_51_MEMBER_1_FILL">
				<path class="st10" d="M358.3,197.9c-0.6-1.4-1.3-2-2-1.8c-0.9,0.2-1,0.8-0.2,2c0.8,1.2,1.5,1.8,2.3,1.8
					C359.1,199.9,359.1,199.2,358.3,197.9z"/>
			</g>
		</g>
	</g>
	<g transform="matrix( 1, 0, 0, 1, 0,-0.15) ">
		<g>
			<g id="Layer0_0_MEMBER_51_MEMBER_2_MEMBER_0_FILL">
				<path class="st11" d="M345.6,203.3c0.9,5.1,4,7.2,9.3,6.1c3.5-0.6,5.8-2.6,6.8-5.9c-4.1,2-7.4,2.1-10,0.5
					c-1.7-1.1-2.2-3.1-1.6-6.1l1.4-4.3C346.6,194.8,344.7,198,345.6,203.3z"/>
			</g>
		</g>
	</g>
	<g transform="matrix( 1, 0, 0, 1, 0,-0.15) ">
		<g>
			<g id="Layer0_0_MEMBER_52_MEMBER_0_FILL">
				<path class="st9" d="M113.4,275.8c-0.8-4.8-3.9-6.6-9.3-5.2c-4.2,1.2-6,4-5.2,8.4c0.8,4.5,3.5,6.4,8.2,5.5
					C112,283.5,114.2,280.6,113.4,275.8z"/>
			</g>
		</g>
	</g>
	<g transform="matrix( 1, 0, 0, 1, 0,-0.15) ">
		<g>
			<g id="Layer0_0_MEMBER_52_MEMBER_1_FILL">
				<path class="st10" d="M110.2,274.4c-0.6-1.2-1.3-1.7-2-1.6c-0.8,0.2-0.8,0.8,0,1.8c0.6,1.1,1.2,1.6,1.8,1.6
					S110.7,275.7,110.2,274.4z"/>
			</g>
		</g>
	</g>
	<g transform="matrix( 1, 0, 0, 1, 0,-0.15) ">
		<g>
			<g id="Layer0_0_MEMBER_52_MEMBER_2_MEMBER_0_FILL">
				<path class="st11" d="M98.9,279c0.8,4.5,3.5,6.4,8.2,5.5c3.2-0.6,5.1-2.3,5.9-5c-3.5,1.7-6.4,1.7-8.6,0.2
					c-1.5-0.9-2-2.7-1.4-5.5l1.1-3.6C99.8,271.8,98.1,274.6,98.9,279z"/>
			</g>
		</g>
	</g>
	<g transform="matrix( 1, 0, 0, 1, 0,-0.15) ">
		<g>
			<g id="Layer0_0_MEMBER_53_MEMBER_0_FILL">
				<path class="st9" d="M171.6,224.2c-0.8-4.7-3.8-6.4-9.1-5c-3.9,1.1-5.5,3.7-4.8,8c0.8,4.2,3.3,6,7.7,5.2
					C170.1,231.5,172.2,228.8,171.6,224.2z"/>
			</g>
		</g>
	</g>
	<g transform="matrix( 1, 0, 0, 1, 0,-0.15) ">
		<g>
			<g id="Layer0_0_MEMBER_53_MEMBER_1_FILL">
				<path class="st10" d="M168.4,222.9c-0.6-1.2-1.2-1.7-1.8-1.6c-0.8,0.2-0.8,0.8-0.2,1.8c0.6,0.9,1.2,1.4,1.8,1.4
					C168.8,224.5,168.8,223.9,168.4,222.9z"/>
			</g>
		</g>
	</g>
	<g transform="matrix( 1, 0, 0, 1, 0,-0.15) ">
		<g>
			<g id="Layer0_0_MEMBER_53_MEMBER_2_MEMBER_0_FILL">
				<path class="st11" d="M157.7,227.2c0.8,4.2,3.3,6,7.7,5.2c2.7-0.6,4.6-2.2,5.7-4.8c-3.2,1.7-5.9,1.7-8.2,0.2
					c-1.4-0.9-1.9-2.7-1.6-5.2l1.1-3.4C158.5,220.3,156.9,222.9,157.7,227.2z"/>
			</g>
		</g>
	</g>
	<g transform="matrix( 1, 0, 0, 1, 0,-0.15) ">
		<g>
			<g id="Layer0_0_MEMBER_54_MEMBER_0_FILL">
				<path class="st9" d="M552.8,301c0.9,5.3,4.1,7.4,9.5,6.4c5.8-1.2,8.3-4.6,7.5-10.2c-0.9-5.6-4.5-7.6-10.9-5.9
					C554,292.5,552,295.7,552.8,301z"/>
			</g>
		</g>
	</g>
	<g transform="matrix( 1, 0, 0, 1, 0,-0.15) ">
		<g>
			<g id="Layer0_0_MEMBER_54_MEMBER_1_FILL">
				<path class="st10" d="M565.9,295.6c-0.6-1.2-1.4-1.7-2.3-1.6s-1,0.8-0.2,1.8c0.8,1.2,1.5,1.8,2.3,1.8
					C566.6,297.6,566.7,296.9,565.9,295.6z"/>
			</g>
		</g>
	</g>
	<g transform="matrix( 1, 0, 0, 1, 0,-0.15) ">
		<g>
			<g id="Layer0_0_MEMBER_54_MEMBER_2_MEMBER_0_FILL">
				<path class="st11" d="M552.8,301c0.9,5.3,4.1,7.4,9.5,6.4c3.6-0.6,6-2.6,7-5.9c-4.7,1.8-8.1,2-10.2,0.5
					c-1.7-1.2-2.2-3.3-1.6-6.4l1.4-4.3C554,292.5,552,295.7,552.8,301z"/>
			</g>
		</g>
	</g>
	<g transform="matrix( 1, 0, 0, 1, 0,-0.15) ">
		<g>
			<g id="Layer0_0_MEMBER_55_MEMBER_0_FILL">
				<path class="st9" d="M377.2,244.5c-0.9-5.6-4.5-7.6-10.9-5.9c-4.8,1.2-6.9,4.5-6.1,9.8c0.9,5.1,4.1,7.2,9.5,6.1
					C375.4,253.4,377.9,250.1,377.2,244.5z"/>
			</g>
		</g>
	</g>
	<g transform="matrix( 1, 0, 0, 1, 0,-0.15) ">
		<g>
			<g id="Layer0_0_MEMBER_55_MEMBER_1_FILL">
				<path class="st10" d="M373.3,242.9c-0.6-1.4-1.4-2-2.3-1.8c-0.9,0.2-1,0.8-0.2,2c0.8,1.2,1.5,1.8,2.3,1.8
					S373.9,244.2,373.3,242.9z"/>
			</g>
		</g>
	</g>
	<g transform="matrix( 1, 0, 0, 1, 0,-0.15) ">
		<g>
			<g id="Layer0_0_MEMBER_55_MEMBER_2_MEMBER_0_FILL">
				<path class="st11" d="M360.1,248.3c0.9,5.1,4.1,7.2,9.5,6.1c3.3-0.6,5.7-2.5,7-5.7c-4.5,1.7-8,1.7-10.2,0.2
					c-1.7-1.1-2.2-3.1-1.6-6.1l1.4-4.3C361.4,239.8,359.4,243,360.1,248.3z"/>
			</g>
		</g>
	</g>
	<g transform="matrix( 1, 0, 0, 1, 0,-0.15) ">
		<g>
			<g id="Layer0_0_MEMBER_56_FILL">
				<path class="st0" d="M213.4,224.5l5.2-5.2c-0.2-5-0.8-11.9-1.8-20.7c-2.1-17.6-5.5-35.7-10.2-54.3
					c-4.7-18.6-15.6-43.2-32.7-73.6c-8.5-15.1-16.5-28.5-24.1-40c7.7,13.3,15.8,28.4,24.1,45.2c16.7,33.3,26.6,58.4,29.8,75.2
					C208.6,177.7,211.8,202.2,213.4,224.5z"/>
			</g>
		</g>
	</g>
	<g transform="matrix( 1, 0, 0, 1, 0,-0.15) ">
		<g>
			<g id="Layer0_0_MEMBER_57_MEMBER_0_FILL">
				<path class="st1" d="M208.8,169c-1.7-12.7-4.8-25.4-9.3-37.9c-2.7-8-7.6-19.9-14.8-35.7c-2.4-5.6-5.1-11.1-8.2-16.4l-3.6-6.4
					l-0.5,0.2c17.4,35.1,27.8,61.2,31.1,78.1c5,26.7,8.3,51.1,9.8,73.4l2.5-2.5C214.6,211.1,212.3,193.4,208.8,169z"/>
			</g>
		</g>
	</g>
	<g transform="matrix( 1, 0, 0, 1, 0,-0.15) ">
		<g>
			<g id="Layer0_0_MEMBER_58_FILL">
				<path class="st0" d="M311.7,195.6h5.5c-3-27.7-6.1-48.4-9.1-62c-1.8-8.5-0.8-19.8,3.2-34.1l6.6-18.9c-3.2,5.8-6.1,12.9-8.6,21.4
					c-5.1,16.7-6.3,31.5-3.4,44.5C310.4,167.1,312.3,183.5,311.7,195.6z"/>
			</g>
		</g>
	</g>
	<g transform="matrix( 1, 0, 0, 1, 0,-0.15) ">
		<g>
			<g id="Layer0_0_MEMBER_59_MEMBER_0_FILL">
				<path class="st1" d="M309.9,158.4l-4.5-23.4l-0.9,0.9c0.3,4.7,0.8,8.3,1.4,10.7c4.5,20.6,6.5,37,5.9,49.1h2.3
					C313.1,181.5,311.7,169.1,309.9,158.4z"/>
			</g>
		</g>
	</g>
	<g transform="matrix( 1, 0, 0, 1, 0,-0.15) ">
		<g>
			<g id="Layer0_0_MEMBER_60_FILL">
				<path class="st0" d="M486.7,57.9c-2.4,11.7-5.7,24.3-9.8,37.9c-8.2,27.3-16.5,46.1-25,56.6c-13.6,16.7-21.4,40.4-23.4,71.3
					c1.2,2.9,3.2,4.2,5.9,4.1c1.5-0.2,2.8-0.5,3.9-1.1c0.5-5.8,1.3-12.3,2.5-19.5c2.3-14.5,5-25.4,8.2-32.7
					c6.1-13.6,10.9-24.7,14.5-33.2c6.5-15.6,11.5-28.8,15-39.5C482.4,89.2,485.1,74.6,486.7,57.9z"/>
			</g>
		</g>
	</g>
	<g transform="matrix( 1, 0, 0, 1, 0,-0.15) ">
		<g>
			<g id="Layer0_0_MEMBER_61_MEMBER_0_FILL">
				<path class="st1" d="M436.4,200.8c2-10.9,9.4-28.9,22.3-53.8c3.5-6.1,9.7-21.3,18.6-45.7c2.4-7,4.3-14.2,5.7-21.6l-2,1.8
					c-9.1,34.8-18.8,58.5-29.1,70.9c-13.6,16.7-21.4,40.4-23.4,71.3c0.9,2.3,2.6,3.6,5,3.9C433.8,217.6,434.8,208.7,436.4,200.8z"/>
			</g>
		</g>
	</g>
	<g transform="matrix( 1, 0, 0, 1, 0,-0.15) ">
		<g>
			<g id="Layer0_0_MEMBER_62_FILL">
				<path class="st3" d="M199.7,105.6l-2.3,3.6c-0.9-1.2-2.3-2.2-4.1-3c-3.6-1.5-7.8-1-12.5,1.6c-3.6,2-6.1,5.3-7.3,10
					c-0.5,2.4-0.6,4.6-0.5,6.6c-0.9,0.5-1.9,1.1-3,1.8c-2,1.5-3,3.2-3,5c0,3,4,6.1,12,9.1l1.1,4.3c1.4,2.9,3.5,4.5,6.4,4.8
					c4.5,0.5,8.6-0.5,12.3-3l-0.2,5.9c0.3,3.9,1.4,6.2,3.2,6.8c3,1.1,7.3-2.2,12.9-9.8c9.5-2,14.5-5,15-9.1c0.5-2.6-0.3-5.8-2.3-9.5
					l-3-4.8l3.6-4.3c1.8-3.3,1.6-6-0.7-8c-2.1-1.8-5.5-2.3-10.2-1.6l-6.4,1.6c0.5-1.7,0.7-3.4,0.7-5.2c-0.2-3.6-1.7-5.7-4.5-6.1
					C204.3,102.2,201.8,103.2,199.7,105.6z"/>
			</g>
		</g>
	</g>
	<g transform="matrix( 1, 0, 0, 1, 0,-0.15) ">
		<g>
			<g id="Layer0_0_MEMBER_63_FILL">
				<path class="st3" d="M211.8,51.1c-2.4-7.1-7.7-13.9-15.9-20.4c-0.2-2.1-0.7-4.3-1.6-6.6c-1.8-4.4-4.8-6.7-8.9-7
					c-4.1-0.3-7.7,2-10.9,6.8l-3.6,7.5c-2.1-3.2-4.7-6.1-7.7-8.6c-6.2-5.1-11.7-6.3-16.4-3.4c-2.1,1.4-3.6,4.5-4.3,9.5
					c-0.3,2.4-0.4,4.8-0.2,7c-2-0.3-4.2-0.2-6.6,0.2c-4.7,0.8-7.8,2.7-9.3,5.9c-1.7,3.2-0.6,6.7,3.2,10.7c1.8,2.1,3.8,3.9,5.9,5.2
					l-3.6,5.9c-2,4.5-2,8.1-0.2,10.7c2,2.6,6.1,3.6,12.3,3.2c3.2-0.3,6.1-0.8,8.9-1.6l0.9,4.8c1.5,3.2,4.8,4.6,9.8,4.3
					c5-0.3,9.2-2.3,12.7-5.9c1.8-1.8,3.1-3.6,3.9-5.5l3.2,3.2c2.9,2,6.4,2.1,10.5,0.5c4.2-1.5,6.1-5.2,5.7-11.1l-1.8-8.4l8.6,0.5
					C211.5,57.9,213.4,55.5,211.8,51.1z"/>
			</g>
		</g>
	</g>
	<g transform="matrix( 1, 0, 0, 1, 0,-0.15) ">
		<g>
			<g id="Layer0_0_MEMBER_64_FILL">
				<path class="st3" d="M319.7,86.8c1.4-5.1-0.5-7.7-5.7-7.7c-5,0-8.1,2.3-9.3,6.8c-0.6,2.3-0.8,4.5-0.5,6.8
					c-0.5-0.6-1.4-1.1-2.7-1.4c-2.6-0.5-6,0.2-10.2,2c-3,1.4-3.6,4.1-1.8,8.2c0.8,2,1.9,3.8,3.4,5.5c-1.8,0.8-3.4,1.8-4.8,3.2
					c-2.7,2.6-3.2,5.3-1.4,8.2c3,4.5,7.6,7.3,13.6,8.4l-1.8,7.3c-0.5,5,1.2,7.6,5,8c6.1,0.5,11.8-2.3,17.3-8.4l4.5,0.5
					c3.3-0.6,5.9-3.3,7.7-8c2-4.7,0.7-8.9-3.9-12.7l-7.5-4.1l6.6-5.7c3.8-4.2,4.1-7.3,0.9-9.3c-3.2-1.8-6.3-2.3-9.3-1.6l-3.6,1.6
					C317.9,91.7,319.1,89.2,319.7,86.8z"/>
			</g>
		</g>
	</g>
	<g transform="matrix( 1, 0, 0, 1, 0,-0.15) ">
		<g>
			<g id="Layer0_0_MEMBER_65_FILL">
				<path class="st3" d="M441,149.7l-4.3,1.4c-4.7-1.1-9-0.5-12.9,1.8c-3.5,2-5.2,4.1-5.2,6.4c0,2.6,2.8,5.4,8.4,8.4l-3,4.3
					c-1.4,3-0.6,5.4,2.3,7c4.5,2.6,9.5,3.9,15,3.9l1.8,3.2c2.3,2.1,5.8,3.3,10.5,3.6c4.7,0.3,9.5-1.1,14.5-4.3
					c2.4-1.5,4.4-3.1,5.9-4.8l3.2,3.6c2.6,2,5.3,2,8.2,0c2.9-1.8,2.4-5.4-1.4-10.7l-6.4-7.5c0.2-1.5-0.1-3.1-0.7-4.8
					c-1.1-3.2-3.3-5.1-6.8-5.7c-3.5-0.6-6.7-0.1-9.5,1.6l-3.4,3c0-1.8-0.3-3.6-0.9-5.5c-1.1-3.6-3-5.6-5.9-5.9
					C447.4,148.5,444.3,148.8,441,149.7z"/>
			</g>
		</g>
	</g>
	<g transform="matrix( 1, 0, 0, 1, 0,-0.15) ">
		<g>
			<g id="Layer0_0_MEMBER_66_FILL">
				<path class="st3" d="M486.7,112.5c-0.9-3.8-3.4-6.4-7.5-7.7c-4.1-1.2-7.1-0.5-9.1,2l-1.6,4.1c-1.2-1.8-2.9-3.5-5-5
					c-4.4-3-8.8-3.9-13.2-2.5c-3.6,1.1-5.8,3.5-6.4,7.3c-0.2,2,0,3.8,0.5,5.5c-1.8,0.3-3.4,0.9-4.8,1.8c-2.6,2-2.8,4.7-0.7,8.2
					c2.3,3.5,6.3,5.5,12,6.1c2.7,0.3,5.3,0.2,7.7-0.2l4.1,4.5c3.2,3,6.4,4.5,9.5,4.5c5,0,12-2.7,21.1-8.2l5.9-0.7
					c3.8-1.5,5.4-4.6,4.8-9.3c-0.6-4.7-3.7-7-9.3-6.8l-8.2,1.6C487.1,116,487.1,114.3,486.7,112.5z"/>
			</g>
		</g>
	</g>
	<g transform="matrix( 1, 0, 0, 1, 0,-0.15) ">
		<g>
			<g id="Layer0_0_MEMBER_67_FILL">
				<path class="st3" d="M493.2,42c-3-3.9-6.4-5.8-10.2-5.5c-4.1,0.5-7.1,2.3-9.1,5.5l-1.6,4.5c-1.2-0.8-2.7-1.1-4.3-1.1
					c-3-0.2-5.4,1.4-7,4.8c-1.1,2.6-1.1,5.1-0.2,7.7c0.5,1.2,1.1,2.2,1.8,3c-2.3,0.5-4.3,1.2-6.1,2.3c-3.6,1.8-4.4,3.9-2.3,6.1
					c3.5,3.5,9,6.2,16.6,8.2l0.9,5.2c1.2,3.2,3.7,4.5,7.5,3.9c6.1-0.9,11.6-1.9,16.6-3l10.2,3.6c7.1,1.5,11.3,0.1,12.5-4.3
					c1.4-4.4,0.4-8.2-3-11.4l-5.2-3.2c2-2.3,3.5-4.8,4.5-7.5c2.1-5.5,1.1-9.2-3.2-11.4c-4.1-2.1-7.8-3-11.1-2.7l-3.9,1.1
					C495.9,46,494.8,44,493.2,42z"/>
			</g>
		</g>
	</g>
	<g transform="matrix( 1, 0, 0, 1, 0,-0.15) ">
		<g>
			<g id="Layer0_0_MEMBER_68_MEMBER_0_FILL">
				<path class="st6" d="M197.5,109.3l-0.7-0.7c-4.1-4.1-9.4-4.3-15.9-0.7c-3.6,2-6.1,5.3-7.3,10c-0.5,2.4-0.6,4.6-0.5,6.6
					c-0.9,0.5-1.9,1.1-3,1.8c-2,1.5-3,3.2-3,5c0,3,4,6.1,12,9.1l1.1,4.3c1.4,2.9,3.5,4.5,6.4,4.8c4.5,0.5,8.6-0.5,12.3-3l-0.2,5.9
					c0.3,3.9,1.4,6.2,3.2,6.8c3,1.1,7.3-2.2,12.9-9.8l6.1-1.8c-1.5-0.2-2.3-0.7-2.5-1.6l0.2-1.4c-4.5,3.5-8.1,4.8-10.7,4.1
					c-1.7-0.5-3-1.8-4.1-4.1l-1.1-3.4c-2.6,2-5.2,2.2-8,0.7c-1.7-0.9-2.6-2.3-2.7-4.1v-2.3c-5-2.3-7.5-4.5-7.5-6.8
					c0-1.4,1-2.6,3-3.6c0.9-0.5,1.8-0.8,2.7-0.9c-1.8-3.8-2.3-7-1.6-9.5c0.5-1.7,2-3.1,4.8-4.3C195,110,196.2,109.6,197.5,109.3z"/>
			</g>
		</g>
	</g>
	<g transform="matrix( 1, 0, 0, 1, 0,-0.15) ">
		<g>
			<g id="Layer0_0_MEMBER_69_MEMBER_0_FILL">
				<path class="st6" d="M170.9,31.4c-2.1-3.2-4.7-6.1-7.7-8.6c-6.2-5.1-11.7-6.3-16.4-3.4c-2.1,1.4-3.6,4.5-4.3,9.5
					c-0.3,2.4-0.4,4.8-0.2,7c-2-0.3-4.2-0.2-6.6,0.2c-4.7,0.8-7.8,2.7-9.3,5.9c-1.7,3.2-0.6,6.7,3.2,10.7c1.8,2.1,3.8,3.9,5.9,5.2
					l-3.6,5.9c-2,4.5-2,8.1-0.2,10.7c2,2.6,6.1,3.6,12.3,3.2c3.2-0.3,6.1-0.8,8.9-1.6l0.9,4.8c1.5,3.2,4.8,4.6,9.8,4.3
					c5-0.3,9.2-2.3,12.7-5.9c1.8-1.8,3.1-3.6,3.9-5.5l3.2,3.2c2.9,2,6.4,2.1,10.5,0.5l2-0.9c-2.3,0.2-4.2-1.3-5.7-4.3l-1.8-4.8
					c-6.8,1.5-11.9,1.5-15.2,0c-2.1-0.9-2.6-2.9-1.4-5.9l2.5-4.3c-8.8,0.8-13.6,0-14.3-2.3c-0.5-1.4,0.1-3.1,1.6-5.2
					c0.8-1.1,1.6-2,2.5-2.7c-3.5-3.8-4.6-7.7-3.4-11.8c0.6-2.6,2.6-4,5.9-4.3C167.8,30.8,169.4,30.9,170.9,31.4z"/>
			</g>
		</g>
	</g>
	<g transform="matrix( 1, 0, 0, 1, 0,-0.15) ">
		<g>
			<g id="Layer0_0_MEMBER_70_MEMBER_0_FILL">
				<path class="st6" d="M301.5,91.3c-2.6-0.5-6,0.2-10.2,2c-3,1.4-3.6,4.1-1.8,8.2c0.8,2,1.9,3.8,3.4,5.5c-1.8,0.8-3.4,1.8-4.8,3.2
					c-2.7,2.6-3.2,5.3-1.4,8.2c3,4.5,7.6,7.3,13.6,8.4l-1.8,7.3c-0.5,5,1.2,7.6,5,8c6.1,0.5,11.8-2.3,17.3-8.4l2.5,0.7
					c2,0,3.8-0.7,5.5-2l4.3-6.1c-2.7,1.8-5.6,3-8.6,3.4c-1.8,0.2-2.8-0.9-3-3.2l0.2-3.6c-4.2,3.8-8,5.1-11.4,3.9
					c-2.1-0.6-2.8-2.1-2-4.5l2-3.4c-5.3-0.3-8.6-1.6-9.8-3.9c-0.6-1.4-0.1-3.3,1.6-5.7c0.9-1.1,1.9-2,3-3c-4.1-1.5-6.5-3.2-7.3-5
					c-0.5-1.2,0.5-3,2.7-5.2c1.2-1.2,2.4-2.3,3.6-3.2C303.8,92.1,302.9,91.6,301.5,91.3z"/>
			</g>
		</g>
	</g>
	<g transform="matrix( 1, 0, 0, 1, 0,-0.15) ">
		<g>
			<g id="Layer0_0_MEMBER_71_MEMBER_0_FILL">
				<path class="st6" d="M434.6,153.8l2-2.7c-4.7-1.1-9-0.5-12.9,1.8c-3.5,2-5.2,4.1-5.2,6.4c0,2.6,2.8,5.4,8.4,8.4l-3,4.3
					c-1.4,3-0.6,5.4,2.3,7c4.5,2.6,9.5,3.9,15,3.9l1.8,3.2c2.3,2.1,5.8,3.3,10.5,3.6c5.9,0.5,11.6-1.6,17-6.1
					c-0.6,0.3-1.6,0.5-3,0.5c-1.7-0.3-2.7-1.4-3.2-3.4l-0.2-3c-4.1,4.5-8,6.1-11.8,4.5c-2.4-0.9-3.6-2-3.6-3.4l0.7-1.6
					c-5.3-0.5-8.9-1.6-10.7-3.4c-1.2-1.2-0.6-3.2,1.8-5.9c1.2-1.4,2.5-2.7,3.9-3.9c-3.8-0.3-6.8-1.8-9.1-4.5
					C433.9,157.8,433.7,155.9,434.6,153.8z"/>
			</g>
		</g>
	</g>
	<g transform="matrix( 1, 0, 0, 1, 0,-0.15) ">
		<g>
			<g id="Layer0_0_MEMBER_72_MEMBER_0_FILL">
				<path class="st6" d="M444.4,116.1c-1.8,0.3-3.4,0.9-4.8,1.8c-2.6,2-2.8,4.7-0.7,8.2c2.3,3.5,6.3,5.5,12,6.1
					c2.7,0.3,5.3,0.2,7.7-0.2l4.1,4.5c3.2,3,6.4,4.5,9.5,4.5c4.2,0,10.6-2.3,19.1-7c-0.6-1.1-1.1-2.3-1.4-3.6l-0.2-1.6
					c-3.8,3.5-7.8,4.8-12,4.1c-2.6-0.5-3.8-1.8-3.6-4.1l0.9-3.4c-5,2.7-8.8,3.3-11.4,1.8c-1.7-0.9-2.7-2.5-3.2-4.8l-0.2-3.2
					c-3.5-1.5-5.6-3.8-6.4-6.8c-0.5-1.8,0.5-3.7,2.7-5.7c1.2-0.9,2.4-1.7,3.6-2.3l-0.5-0.5c-3.3-1.4-6.5-1.6-9.5-0.7
					c-3.6,1.1-5.8,3.5-6.4,7.3C443.8,112.6,443.9,114.4,444.4,116.1z"/>
			</g>
		</g>
	</g>
	<g transform="matrix( 1, 0, 0, 1, 0,-0.15) ">
		<g>
			<g id="Layer0_0_MEMBER_73_MEMBER_0_FILL">
				<path class="st6" d="M470.5,49.1l1.8-2.5l-1.8-0.9c-4.4-1.2-7.6,0.3-9.5,4.5c-1.1,2.6-1.1,5.1-0.2,7.7c0.5,1.2,1.1,2.2,1.8,3
					c-2.3,0.5-4.3,1.2-6.1,2.3c-3.6,1.8-4.4,3.9-2.3,6.1c3.5,3.5,9,6.2,16.6,8.2l0.9,5.2c1.2,3.2,3.7,4.5,7.5,3.9
					c6.1-0.9,11.6-1.9,16.6-3l3.9,1.8c3.2,1.2,6.1,2,8.6,2.3c-2-1.7-3.7-4.2-5.2-7.7l-1.8-5c-5.3,1.5-9.3,1.9-12,1.1
					c-1.7-0.5-2.7-1.8-3.2-4.1l-0.2-3.4c-5.3,1.2-8.7,0.8-10.2-1.1c-0.9-1.1-0.6-2.7,0.9-5c0.8-1.1,1.6-2,2.5-3
					c-4.8,1.2-7.9-0.1-9.1-3.9C469.2,53.2,469.5,51,470.5,49.1z"/>
			</g>
		</g>
	</g>
	<g transform="matrix( 1, 0, 0, 1, 0,-0.15) ">
		<g>
			<g id="Layer0_0_MEMBER_74_MEMBER_0_FILL">
				<path class="st9" d="M466.9,116.3c-0.6-4.5-3.5-6.1-8.6-4.8c-3.8,1.1-5.4,3.6-4.8,7.7c0.6,4.1,3.1,5.8,7.5,5
					C465.5,123.5,467.5,120.9,466.9,116.3z"/>
			</g>
		</g>
	</g>
	<g transform="matrix( 1, 0, 0, 1, 0,-0.15) ">
		<g>
			<g id="Layer0_0_MEMBER_74_MEMBER_1_FILL">
				<path class="st10" d="M463.9,115c-0.6-1.1-1.2-1.5-1.8-1.4c-0.6,0.2-0.7,0.7-0.2,1.6c0.6,0.9,1.2,1.4,1.8,1.4
					C464.3,116.6,464.4,116,463.9,115z"/>
			</g>
		</g>
	</g>
	<g transform="matrix( 1, 0, 0, 1, 0,-0.15) ">
		<g>
			<g id="Layer0_0_MEMBER_74_MEMBER_2_MEMBER_0_FILL">
				<path class="st11" d="M453.5,119.3c0.6,4.1,3.1,5.8,7.5,5c2.9-0.6,4.7-2.1,5.5-4.5c-3.6,1.2-6.3,1.3-8,0.2
					c-1.4-0.9-1.8-2.6-1.4-5l1.1-3.4C454.5,112.6,452.9,115.2,453.5,119.3z"/>
			</g>
		</g>
	</g>
	<g transform="matrix( 1, 0, 0, 1, 0,-0.15) ">
		<g>
			<g id="Layer0_0_MEMBER_75_MEMBER_0_FILL">
				<path class="st9" d="M317,112c-0.6-4.2-3.4-5.8-8.4-4.5c-3.6,1.1-5.1,3.6-4.3,7.5c0.6,3.9,3,5.5,7,4.8
					C315.7,119,317.6,116.4,317,112z"/>
			</g>
		</g>
	</g>
	<g transform="matrix( 1, 0, 0, 1, 0,-0.15) ">
		<g>
			<g id="Layer0_0_MEMBER_75_MEMBER_1_FILL">
				<path class="st10" d="M314,110.9c-0.5-1.1-1-1.5-1.6-1.4c-0.8,0.2-0.8,0.7-0.2,1.6s1.2,1.4,1.8,1.4
					C314.5,112.5,314.5,111.9,314,110.9z"/>
			</g>
		</g>
	</g>
	<g transform="matrix( 1, 0, 0, 1, 0,-0.15) ">
		<g>
			<g id="Layer0_0_MEMBER_75_MEMBER_2_MEMBER_0_FILL">
				<path class="st11" d="M304.2,115c0.6,3.9,3,5.5,7,4.8c2.7-0.6,4.5-2.1,5.2-4.5c-3,1.5-5.6,1.6-7.7,0.2c-1.4-0.9-1.8-2.5-1.4-4.8
					l1.1-3.2C304.9,108.5,303.5,111,304.2,115z"/>
			</g>
		</g>
	</g>
	<g transform="matrix( 1, 0, 0, 1, 0,-0.15) ">
		<g>
			<g id="Layer0_0_MEMBER_76_MEMBER_0_FILL">
				<path class="st9" d="M187.5,57.5c-0.5-3.2-2.4-4.3-5.9-3.4c-2.7,0.8-3.8,2.6-3.2,5.5c0.5,2.9,2.2,4,5.2,3.4
					C186.6,62.3,187.9,60.5,187.5,57.5z"/>
			</g>
		</g>
	</g>
	<g transform="matrix( 1, 0, 0, 1, 0,-0.15) ">
		<g>
			<g id="Layer0_0_MEMBER_76_MEMBER_1_FILL">
				<path class="st10" d="M185.4,57.7c-0.2-1.5-0.5-2.3-1.1-2.3c-0.5,0.2-0.5,0.5,0,1.1C184.6,57.3,185,57.7,185.4,57.7z"/>
			</g>
		</g>
	</g>
	<g transform="matrix( 1, 0, 0, 1, 0,-0.15) ">
		<g>
			<g id="Layer0_0_MEMBER_76_MEMBER_2_MEMBER_0_FILL">
				<path class="st11" d="M178.4,59.5c0.5,2.9,2.2,4,5.2,3.4c1.8-0.5,3-1.5,3.6-3.2c-2.1,1.1-3.9,1.1-5.5,0.2
					c-0.9-0.6-1.2-1.8-0.9-3.6l0.7-2.3C178.8,54.8,177.8,56.7,178.4,59.5z"/>
			</g>
		</g>
	</g>
	<g transform="matrix( 1, 0, 0, 1, 0,-0.15) ">
		<g>
			<g id="Layer0_0_MEMBER_77_MEMBER_0_FILL">
				<path class="st9" d="M221.8,134c-0.5-3.3-2.5-4.5-6.1-3.6c-2.9,0.8-4,2.7-3.4,5.7c0.5,3,2.3,4.2,5.5,3.6
					C221,139.1,222.4,137.2,221.8,134z"/>
			</g>
		</g>
	</g>
	<g transform="matrix( 1, 0, 0, 1, 0,-0.15) ">
		<g>
			<g id="Layer0_0_MEMBER_77_MEMBER_1_FILL">
				<path class="st10" d="M219.7,133.1c-0.5-0.9-0.9-1.3-1.4-1.1c-0.5,0.2-0.5,0.5,0,1.1c0.3,0.8,0.7,1.1,1.1,1.1
					C219.9,134.3,220,133.9,219.7,133.1z"/>
			</g>
		</g>
	</g>
	<g transform="matrix( 1, 0, 0, 1, 0,-0.15) ">
		<g>
			<g id="Layer0_0_MEMBER_77_MEMBER_2_MEMBER_0_FILL">
				<path class="st11" d="M212.2,136.1c0.5,3,2.3,4.2,5.5,3.6c2.1-0.5,3.4-1.6,3.9-3.4c-2.4,1.2-4.3,1.3-5.7,0.2
					c-1.1-0.6-1.4-1.8-1.1-3.6l0.9-2.5C212.8,131.2,211.6,133.1,212.2,136.1z"/>
			</g>
		</g>
	</g>
	<g transform="matrix( 1, 0, 0, 1, 0,-0.15) ">
		<g>
			<g id="Layer0_0_MEMBER_78_MEMBER_0_FILL">
				<path class="st9" d="M192.2,32.5c-0.8-4.5-3.8-6.1-9.1-4.8c-3.9,1.1-5.5,3.7-4.8,8c0.8,4.2,3.3,6,7.7,5.2
					C190.8,40,192.8,37.2,192.2,32.5z"/>
			</g>
		</g>
	</g>
	<g transform="matrix( 1, 0, 0, 1, 0,-0.15) ">
		<g>
			<g id="Layer0_0_MEMBER_78_MEMBER_1_FILL">
				<path class="st10" d="M189.1,31.4c-0.6-1.2-1.2-1.7-1.8-1.6c-0.8,0.2-0.8,0.7-0.2,1.6c0.6,1.1,1.2,1.6,1.8,1.6
					C189.6,33,189.7,32.4,189.1,31.4z"/>
			</g>
		</g>
	</g>
	<g transform="matrix( 1, 0, 0, 1, 0,-0.15) ">
		<g>
			<g id="Layer0_0_MEMBER_78_MEMBER_2_MEMBER_0_FILL">
				<path class="st11" d="M178.4,35.7c0.8,4.2,3.3,6,7.7,5.2c3-0.6,4.9-2.2,5.7-4.8c-3.8,1.2-6.6,1.3-8.4,0.2
					c-1.4-0.9-1.8-2.7-1.4-5.2l1.1-3.4C179.2,28.8,177.6,31.4,178.4,35.7z"/>
			</g>
		</g>
	</g>
	<g transform="matrix( 1, 0, 0, 1, 0,-0.15) ">
		<g>
			<g id="Layer0_0_MEMBER_79_MEMBER_0_FILL">
				<path class="st9" d="M523.5,77.7c-0.6-3.9-3.1-5.3-7.5-4.1c-3.3,0.8-4.7,3-4.1,6.6c0.6,3.6,2.8,5.1,6.6,4.5
					C522.4,84,524.1,81.6,523.5,77.7z"/>
			</g>
		</g>
	</g>
	<g transform="matrix( 1, 0, 0, 1, 0,-0.15) ">
		<g>
			<g id="Layer0_0_MEMBER_79_MEMBER_1_FILL">
				<path class="st10" d="M521,76.6c-0.5-0.9-1-1.3-1.6-1.1c-0.6,0.2-0.7,0.6-0.2,1.4c0.6,0.8,1.1,1.1,1.6,1.1
					C521.3,77.9,521.4,77.5,521,76.6z"/>
			</g>
		</g>
	</g>
	<g transform="matrix( 1, 0, 0, 1, 0,-0.15) ">
		<g>
			<g id="Layer0_0_MEMBER_79_MEMBER_2_MEMBER_0_FILL">
				<path class="st11" d="M511.9,80.2c0.6,3.6,2.8,5.1,6.6,4.5c2.3-0.5,3.9-1.8,4.8-4.1c-3,1.2-5.4,1.3-7,0.2
					c-1.2-0.8-1.6-2.2-1.1-4.3l0.9-3C512.6,74.4,511.3,76.6,511.9,80.2z"/>
			</g>
		</g>
	</g>
	<g transform="matrix( 1, 0, 0, 1, 0,-0.15) ">
		<g>
			<g id="Layer0_0_MEMBER_80_MEMBER_0_FILL">
				<path class="st9" d="M492.8,47.5c-0.6-4.7-3.6-6.4-8.9-5c-4.1,1.1-5.8,3.8-5,8.2c0.8,4.4,3.3,6.1,7.7,5.2
					C491.5,55,493.5,52.2,492.8,47.5z"/>
			</g>
		</g>
	</g>
	<g transform="matrix( 1, 0, 0, 1, 0,-0.15) ">
		<g>
			<g id="Layer0_0_MEMBER_80_MEMBER_1_FILL">
				<path class="st10" d="M489.8,46.1c-0.6-1.1-1.3-1.5-2-1.4c-0.6,0.2-0.6,0.7,0,1.6c0.6,1.1,1.2,1.6,1.8,1.6
					C490.2,47.9,490.3,47.3,489.8,46.1z"/>
			</g>
		</g>
	</g>
	<g transform="matrix( 1, 0, 0, 1, 0,-0.15) ">
		<g>
			<g id="Layer0_0_MEMBER_80_MEMBER_2_MEMBER_0_FILL">
				<path class="st11" d="M478.9,50.7c0.8,4.4,3.3,6.1,7.7,5.2c2.9-0.6,4.8-2.2,5.9-4.8c-3.9,1.4-6.7,1.4-8.4,0.2
					c-1.4-0.9-1.8-2.7-1.4-5.2l1.1-3.6C479.8,43.6,478.2,46.3,478.9,50.7z"/>
			</g>
		</g>
	</g>
	<g transform="matrix( 1, 0, 0, 1, 0,-0.15) ">
		<g>
			<g id="Layer0_0_MEMBER_81_MEMBER_0_MEMBER_0_FILL">
				<path class="st4" d="M482.3,164.9l1.4,0.7c1.2,0.3,2.3,0.4,3.4,0.2c1.8-0.2,3.1-0.9,3.9-2.3c-0.9-1.2-2.3-1.7-4.1-1.4
					c-1.1,0.2-2.1,0.6-3.2,1.4L482.3,164.9z"/>
			</g>
		</g>
	</g>
	<g transform="matrix( 1, 0, 0, 1, 0,-0.15) ">
		<g>
			<g id="Layer0_0_MEMBER_82_MEMBER_0_MEMBER_0_FILL">
				<path class="st4" d="M465.1,99.3c0.8-1.1,1.1-2.3,0.9-3.9c-0.3-1.1-0.8-1.9-1.4-2.5l-0.9-0.5l-0.5,1.1c-0.3,0.8-0.4,1.5-0.2,2.3
					C463.2,97.1,463.9,98.2,465.1,99.3z"/>
			</g>
		</g>
	</g>
	<g transform="matrix( 1, 0, 0, 1, 0,-0.15) ">
		<g>
			<g id="Layer0_0_MEMBER_83_MEMBER_0_MEMBER_0_FILL">
				<path class="st4" d="M470.8,42.5c0.9-1.5,1.2-3.1,0.9-4.8c-0.2-0.9-0.5-1.8-1.1-2.7l-1.1-0.9c-0.3,0.2-0.6,0.5-0.9,0.9
					c-0.5,0.8-0.6,1.7-0.5,3C468.2,40.1,469.1,41.6,470.8,42.5z"/>
			</g>
		</g>
	</g>
	<g transform="matrix( 1, 0, 0, 1, 0,-0.15) ">
		<g>
			<g id="Layer0_0_MEMBER_84_MEMBER_0_MEMBER_0_FILL">
				<path class="st4" d="M513.7,66.8l2,0.5c1.7,0.3,3.2,0.2,4.5-0.2c2.1-0.8,3.5-2.1,4.1-4.1c-1.4-1.2-3.2-1.4-5.5-0.7
					c-1.5,0.5-2.8,1.4-3.9,2.7L513.7,66.8z"/>
			</g>
		</g>
	</g>
	<g transform="matrix( 1, 0, 0, 1, 0,-0.15) ">
		<g>
			<g id="Layer0_0_MEMBER_85_MEMBER_0_MEMBER_0_FILL">
				<path class="st4" d="M501.2,43.2l2.7-0.7c0.6-0.5,1-1.2,1.1-2.3c-0.6-0.3-1.4-0.2-2.3,0.5c-0.6,0.5-1.1,1-1.4,1.6
					C501.3,42.7,501.2,43,501.2,43.2z"/>
			</g>
		</g>
	</g>
	<g transform="matrix( 1, 0, 0, 1, 0,-0.15) ">
		<g>
			<g id="Layer0_0_MEMBER_86_MEMBER_0_MEMBER_0_FILL">
				<path class="st4" d="M300.4,88.2c-0.2-2.6-1-4.7-2.5-6.4c-0.6-1.2-1.7-2.1-3.2-2.7l-2-0.7l-0.5,1.8c-0.2,1.4,0.2,2.9,1.1,4.5
					C295.3,87.2,297.6,88.3,300.4,88.2z"/>
			</g>
		</g>
	</g>
	<g transform="matrix( 1, 0, 0, 1, 0,-0.15) ">
		<g>
			<g id="Layer0_0_MEMBER_87_MEMBER_0_MEMBER_0_FILL">
				<path class="st4" d="M329.7,106.6c-0.5,0,0,0.2,1.4,0.5c1.1,0.2,2.1,0.2,3.2,0c1.8-0.5,3-1.3,3.4-2.5c-1.2-0.9-2.6-1.2-4.1-0.9
					c-0.9,0.2-1.8,0.7-2.7,1.6L329.7,106.6z"/>
			</g>
		</g>
	</g>
	<g transform="matrix( 1, 0, 0, 1, 0,-0.15) ">
		<g>
			<g id="Layer0_0_MEMBER_88_MEMBER_0_MEMBER_0_FILL">
				<path class="st4" d="M213.6,110.4l2.3-1.1c1.8-1.2,3.3-2.6,4.3-4.1c1.7-2.6,2-5.1,0.9-7.5c-2.4-0.2-4.5,1.1-6.4,3.9
					c-1.1,1.7-1.6,3.6-1.6,5.9C213.3,108.7,213.4,109.7,213.6,110.4z"/>
			</g>
		</g>
	</g>
	<g transform="matrix( 1, 0, 0, 1, 0,-0.15) ">
		<g>
			<g id="Layer0_0_MEMBER_89_MEMBER_0_MEMBER_0_FILL">
				<path class="st4" d="M228.1,128.1l1.6,0.2c1.2,0.2,2.3,0,3.2-0.5c1.5-0.2,2.7-1,3.6-2.5c-0.8-1.2-2.3-1.6-4.5-1.1
					c-1.2,0.5-2.2,1.2-3,2.3L228.1,128.1z"/>
			</g>
		</g>
	</g>
	<g transform="matrix( 1, 0, 0, 1, 0,-0.15) ">
		<g>
			<g id="Layer0_0_MEMBER_90_MEMBER_0_MEMBER_0_FILL">
				<path class="st4" d="M199.7,29.8l1.6-0.7c1.2-0.5,2.1-1.1,2.7-2c1.1-1.2,1.4-2.7,1.1-4.3c-1.4-0.5-2.7,0.2-3.9,1.8
					c-0.9,0.9-1.4,2-1.6,3.4C199.7,28.7,199.7,29.3,199.7,29.8z"/>
			</g>
		</g>
	</g>
	<g transform="matrix( 1, 0, 0, 1, 0,-0.15) ">
		<g>
			<g id="Layer0_0_MEMBER_91_MEMBER_0_MEMBER_0_FILL">
				<path class="st4" d="M168.8,23.2c1.1-2.4,1.4-4.9,0.9-7.5c-0.6-2.7-2-4.5-4.3-5.5c-1.7,1.5-2.2,3.6-1.6,6.4
					C164.4,19.3,166.1,21.5,168.8,23.2z"/>
			</g>
		</g>
	</g>
	<g transform="matrix( 1, 0, 0, 1, 0,-0.15) ">
		<g>
			<g id="Layer0_0_MEMBER_92_MEMBER_0_MEMBER_0_FILL">
				<path class="st4" d="M170.4,47.5c1.4-2.1,2-4.2,2-6.4c0.2-1.4-0.1-2.7-0.7-4.1l-1.1-1.8c-0.5,0.2-1,0.5-1.6,0.9
					c-1.1,1.1-1.7,2.6-2,4.5C167,43.7,168.2,46,170.4,47.5z"/>
			</g>
		</g>
	</g>
	<g transform="matrix( 1, 0, 0, 1, 0,-0.15) ">
		<g>
			<g id="Layer0_0_MEMBER_93_MEMBER_0_MEMBER_0_FILL">
				<path class="st4" d="M190,49.1l1.1,0.5c0.9,0.3,1.8,0.4,2.7,0.2c1.2-0.3,2.2-1,3-2c-0.6-0.9-1.7-1.3-3.2-1.1
					c-1.1,0.2-2,0.6-2.7,1.4L190,49.1z"/>
			</g>
		</g>
	</g>
	<g transform="matrix( 1, 0, 0, 1, 0,-0.15) ">
		<g>
			<g id="Layer0_0_MEMBER_94_MEMBER_0_MEMBER_0_FILL">
				<path class="st4" d="M199.7,131.8l2.7-2c0.6-0.9,0.8-2,0.5-3.2c-0.9-0.2-1.7,0.4-2.5,1.6c-0.6,0.8-0.9,1.6-0.9,2.5
					C199.5,131.1,199.6,131.5,199.7,131.8z"/>
			</g>
		</g>
	</g>
	<g transform="matrix( 1, 0, 0, 1, 0,-0.15) ">
		<g>
			<g id="Layer0_0_MEMBER_95_MEMBER_0_MEMBER_0_FILL">
				<path class="st4" d="M309,97.5l2-0.7c1.8-0.8,3.3-1.8,4.3-3.2c1.4-2.6,1.6-4.8,0.7-6.8c-0.6,0-1.2,0.2-1.8,0.5
					c-1.5,0.6-2.7,1.6-3.4,3c-0.9,1.2-1.5,2.8-1.8,4.8C309,95.9,309,96.7,309,97.5z"/>
			</g>
		</g>
	</g>
	<g transform="matrix( 1, 0, 0, 1, 0,-0.15) ">
		<g>
			<g id="Layer0_0_MEMBER_96_MEMBER_0_MEMBER_0_FILL">
				<path class="st4" d="M474.6,120.9l1.8,0.5c1.7,0.2,3.2,0,4.5-0.5c2.1-1.1,3.3-2.6,3.6-4.5c-1.5-1.1-3.3-1.1-5.5,0
					c-1.2,0.5-2.3,1.4-3.4,2.7C475,120,474.6,120.6,474.6,120.9z"/>
			</g>
		</g>
	</g>
	<g transform="matrix( 1, 0, 0, 1, 0,-0.15) ">
		<g>
			<g id="Layer0_0_MEMBER_97_MEMBER_0_MEMBER_0_FILL">
				<path class="st4" d="M462.1,168.8l1.4,0.5c1.1,0.2,2,0.2,3,0c1.7-0.3,2.8-1.1,3.4-2.3c-0.8-1.1-2-1.5-3.9-1.4
					c-1.2,0.3-2.3,1-3.2,2L462.1,168.8z"/>
			</g>
		</g>
	</g>
	<g transform="matrix( 1, 0, 0, 1, 0,-0.15) ">
		<g>
			<g id="Layer0_0_MEMBER_98_MEMBER_0_MEMBER_0_FILL">
				<path class="st4" d="M494.6,60.9l1.4-0.2c1.1-0.3,2-0.8,2.7-1.6c1.2-1.1,1.8-2.4,1.8-4.1c-1.2-0.5-2.5-0.1-3.9,1.1
					c-0.9,0.8-1.5,1.8-1.8,3.2C494.7,59.9,494.6,60.4,494.6,60.9z"/>
			</g>
		</g>
	</g>
	<g transform="matrix( 1, 0, 0, 1, 0,-0.15) ">
		<g>
			<g id="Layer0_0_MEMBER_99_MEMBER_0_MEMBER_0_FILL">
				<path class="st8" d="M150.7,45c2.9,1.5,3.3,4.9,1.1,10.2c1.1-1.8,1.8-3.7,2.3-5.7c0.9-3.8-0.3-5.9-3.6-6.4
					c-3.5-0.3-5.5,1.4-5.9,5.2c-0.1,1.5,0,3,0.2,4.5c0.2-0.9,0.6-2.3,1.4-4.3C147.2,45.1,148.7,43.9,150.7,45z"/>
			</g>
		</g>
	</g>
	<g transform="matrix( 1, 0, 0, 1, 0,-0.15) ">
		<g>
			<g id="Layer0_0_MEMBER_100_MEMBER_0_MEMBER_0_FILL">
				<path class="st8" d="M164.3,68.4c0.3,2,0.4,3.9,0.2,5.7c0.6-2.7,1-5.4,1.1-8c0.2-5.3-2.6-7.6-8.2-6.8c-5.1,2.1-6.6,5.4-4.3,9.8
					c1,1.8,2.1,3.6,3.4,5.2c-0.4-1.2-0.8-3.2-1.4-5.9c-0.9-4.8,0.4-7.2,3.9-7C162.1,62,163.8,64.3,164.3,68.4z"/>
			</g>
		</g>
	</g>
	<g transform="matrix( 1, 0, 0, 1, 0,-0.15) ">
		<g>
			<g id="Layer0_0_MEMBER_101_MEMBER_0_MEMBER_0_FILL">
				<path class="st8" d="M180,117c2.3,0.9,3,3.3,2.3,7c0.5-1.4,0.8-2.7,0.9-4.1c0.2-2.9-1.1-4.2-3.6-4.1c-2.6,0.2-3.7,1.5-3.4,4.1
					c0.3,1.4,0.8,2.7,1.4,4.1c-0.2-1.4-0.2-2.7,0-3.9C177.6,117.6,178.5,116.6,180,117z"/>
			</g>
		</g>
	</g>
	<g transform="matrix( 1, 0, 0, 1, 0,-0.15) ">
		<g>
			<g id="Layer0_0_MEMBER_102_MEMBER_0_MEMBER_0_FILL">
				<path class="st8" d="M309.2,131.1c2.1,0.6,2.8,2.7,2,6.4c0.5-1.4,0.8-2.7,0.9-3.9c0.2-2.6-1-3.8-3.4-3.6c-2.4,0.5-3.4,1.9-3,4.3
					c0.1,0.9,0.3,1.8,0.7,2.7c0-0.6,0.1-1.5,0.2-2.7C307,131.7,307.9,130.6,309.2,131.1z"/>
			</g>
		</g>
	</g>
	<g transform="matrix( 1, 0, 0, 1, 0,-0.15) ">
		<g>
			<g id="Layer0_0_MEMBER_103_MEMBER_0_MEMBER_0_FILL">
				<path class="st8" d="M446.7,119.1c1.5,0.9,1.5,2.7,0,5.5c0.8-0.9,1.3-1.8,1.6-2.7c0.8-2,0.2-3.2-1.6-3.6
					c-2.1-0.3-3.3,0.5-3.4,2.5c-0.1,0.9-0.1,1.8,0,2.7c0.1-0.5,0.4-1.3,0.9-2.5C444.8,119.1,445.6,118.4,446.7,119.1z"/>
			</g>
		</g>
	</g>
	<g transform="matrix( 1, 0, 0, 1, 0,-0.15) ">
		<g>
			<g id="Layer0_0_MEMBER_104_MEMBER_0_MEMBER_0_FILL">
				<path class="st8" d="M428.5,156.8c1.5,1.2,1.5,3.1,0,5.7c0.8-0.9,1.3-1.8,1.6-2.7c0.8-2,0.2-3.3-1.6-3.9
					c-2.1-0.5-3.3,0.3-3.4,2.3c-0.1,0.9-0.1,1.8,0,2.7c0.1-0.5,0.4-1.3,0.9-2.5C426.6,156.7,427.4,156.2,428.5,156.8z"/>
			</g>
		</g>
	</g>
	<g transform="matrix( 1, 0, 0, 1, 0,-0.15) ">
		<g>
			<g id="Layer0_0_MEMBER_105_MEMBER_0_MEMBER_0_FILL">
				<path class="st8" d="M434.6,173.8c2.1,1.1,2.3,3.3,0.7,6.6c0.8-1.2,1.3-2.4,1.6-3.6c0.8-2.6-0.2-3.9-2.7-4.1
					c-2.7,0-3.9,1.2-3.6,3.6c0.3,1.2,0.7,2.4,1.1,3.6c-0.2-1.2-0.1-2.4,0.2-3.6C432.2,174,433.1,173.2,434.6,173.8z"/>
			</g>
		</g>
	</g>
	<g transform="matrix( 1, 0, 0, 1, 0,-0.15) ">
		<g>
			<g id="Layer0_0_MEMBER_106_MEMBER_0_MEMBER_0_FILL">
				<path class="st8" d="M467.3,65.2c1.4,1.1,1.7,3.2,0.9,6.4c1.7-4.2,1.4-6.7-0.9-7.5c-1.4-0.3-2.5,0.6-3.4,2.7
					c-1.1,2.1-1.4,3.2-0.9,3.2l1.6-3C465.8,65.1,466.7,64.5,467.3,65.2z"/>
			</g>
		</g>
	</g>
	<g transform="matrix( 1, 0, 0, 1, 0,-0.15) ">
		<g>
			<g id="Layer0_0_MEMBER_107_MEMBER_0_MEMBER_0_FILL">
				<path class="st8" d="M480.3,77.5c1.8-0.2,3.3,1.2,4.3,4.1c-0.9-4.5-2.6-6.1-5-4.8c-1.5,0.9-1.7,2.3-0.7,4.1
					c0.5,0.9,1.1,1.7,1.8,2.5c-0.5-0.9-0.8-1.9-1.1-3C479,78.6,479.2,77.6,480.3,77.5z"/>
			</g>
		</g>
	</g>
	<g transform="matrix( 1, 0, 0, 1, 0,-0.15) ">
		<g>
			<g id="Layer0_0_MEMBER_108_MEMBER_0_MEMBER_0_FILL">
				<path class="st8" d="M468.3,130.6c1.7,0.5,2.3,2,1.8,4.5c0.3-0.9,0.5-1.8,0.5-2.7c0-2-0.9-2.9-2.7-2.7c-2,0.3-2.7,1.3-2,3
					c0.3,0.8,0.8,1.6,1.4,2.5c-0.3-0.9-0.5-1.7-0.5-2.5C466.5,131,467,130.3,468.3,130.6z"/>
			</g>
		</g>
	</g>
	<g transform="matrix( 1, 0, 0, 1, 0,-0.15) ">
		<g>
			<g id="Layer0_0_MEMBER_109_MEMBER_0_MEMBER_0_FILL">
				<path class="st7" d="M208.1,118.1c1.4-2.6,0.4-4.4-3-5.5c-3.5,0-5,1.5-4.5,4.5c0.1,1.1,0.4,2.2,0.9,3.4c0-0.8,0.2-1.9,0.5-3.4
					c0.5-3,1.7-4.1,3.6-3.2c1.5,1.1,1.9,2.7,1.1,5c-0.3,1.2-0.8,2.3-1.4,3.2C206.5,120.9,207.4,119.5,208.1,118.1z"/>
			</g>
		</g>
	</g>
	<g transform="matrix( 1, 0, 0, 1, 0,-0.15) ">
		<g>
			<g id="Layer0_0_MEMBER_110_MEMBER_0_MEMBER_0_FILL">
				<path class="st7" d="M216.5,120.9c0.9,0.5,1.1,1.4,0.7,3c0.9-2.3,0.7-3.4-0.7-3.4c-0.9-0.2-1.4,0.4-1.6,1.6
					c-0.2,0.5-0.2,1,0,1.6c0.2-0.6,0.3-1.1,0.5-1.6C215.7,120.9,216.1,120.6,216.5,120.9z"/>
			</g>
		</g>
	</g>
	<g transform="matrix( 1, 0, 0, 1, 0,-0.15) ">
		<g>
			<g id="Layer0_0_MEMBER_111_MEMBER_0_MEMBER_0_FILL">
				<path class="st7" d="M205.4,49.5c0.9,0.5,1.4,0.8,1.4,0.9c0.3-0.3-0.2-0.8-1.4-1.6c-1.4-0.8-2.1-1-2.3-0.7
					c-0.5-0.2-0.7,0.5-0.7,2c-0.2,1.5-0.1,2.2,0.2,2c0.2,0,0.4-1.2,0.7-3.6C203.8,48.6,204.5,48.9,205.4,49.5z"/>
			</g>
		</g>
	</g>
	<g transform="matrix( 1, 0, 0, 1, 0,-0.15) ">
		<g>
			<g id="Layer0_0_MEMBER_112_MEMBER_0_MEMBER_0_FILL">
				<path class="st7" d="M178.4,44.1c2,0,3.1,1.6,3.4,4.8c0-1.1-0.1-2.2-0.2-3.4c-0.6-2.1-1.9-2.8-3.9-2c-2.1,0.8-2.7,2.1-1.6,4.1
					c0.6,0.9,1.3,1.7,2,2.5c-0.5-0.9-0.8-1.9-1.1-3C176.6,45.1,177,44.1,178.4,44.1z"/>
			</g>
		</g>
	</g>
	<g transform="matrix( 1, 0, 0, 1, 0,-0.15) ">
		<g>
			<g id="Layer0_0_MEMBER_113_MEMBER_0_MEMBER_0_FILL">
				<path class="st7" d="M323.8,117.2c1.1,0.5,1.7,1.7,2,3.9c0.2-3.2-0.7-4.7-2.5-4.5c-0.9,0-1.4,0.8-1.6,2.5
					c-0.2,1.5-0.1,2.3,0.2,2.3c0-0.8,0.1-1.5,0.2-2.3C322.6,117.5,323.2,116.9,323.8,117.2z"/>
			</g>
		</g>
	</g>
	<g transform="matrix( 1, 0, 0, 1, 0,-0.15) ">
		<g>
			<g id="Layer0_0_MEMBER_114_MEMBER_0_MEMBER_0_FILL">
				<path class="st7" d="M316.3,99.5c1.4,0.6,1.7,2.4,1.1,5.5c1.7-4.2,1.2-6.4-1.4-6.4c-1.7,0.2-2.7,1.2-3,3.2
					c0,1.1,0.1,2.1,0.2,3.2c0.2-1.1,0.4-2,0.7-3C314.6,100,315.4,99.2,316.3,99.5z"/>
			</g>
		</g>
	</g>
	<g transform="matrix( 1, 0, 0, 1, 0,-0.15) ">
		<g>
			<g id="Layer0_0_MEMBER_115_MEMBER_0_MEMBER_0_FILL">
				<path class="st7" d="M491.4,119.5c1.7,1.2,1.5,3.4-0.5,6.6c3.6-4.2,3.8-6.8,0.5-7.7c-2.1-0.6-3.6,0.3-4.3,2.7
					c-0.5,1.2-0.7,2.5-0.7,3.9l1.6-3.4C489.4,119.4,490.5,118.7,491.4,119.5z"/>
			</g>
		</g>
	</g>
	<g transform="matrix( 1, 0, 0, 1, 0,-0.15) ">
		<g>
			<g id="Layer0_0_MEMBER_116_MEMBER_0_MEMBER_0_FILL">
				<path class="st7" d="M453.3,166.5c1.7,1.4,1.7,3.6,0,6.8c3.2-4.4,3.2-7,0-8c-2-0.5-3.4,0.5-4.3,3c-0.5,1.2-0.7,2.4-0.7,3.6
					l1.6-3.4C451.2,166.5,452.3,165.8,453.3,166.5z"/>
			</g>
		</g>
	</g>
	<g transform="matrix( 1, 0, 0, 1, 0,-0.15) ">
		<g>
			<g id="Layer0_0_MEMBER_117_MEMBER_0_MEMBER_0_FILL">
				<path class="st7" d="M503.5,63.2c1.5,0.8,1.6,2.3,0.2,4.8c0.6-0.8,1.1-1.6,1.4-2.5c0.8-1.8,0.2-2.8-1.8-3c-2.1,0-3,0.9-2.7,2.7
					c0.2,0.8,0.5,1.6,0.9,2.5c-0.2-0.9-0.2-1.7,0-2.5C501.6,63.5,502.3,62.9,503.5,63.2z"/>
			</g>
		</g>
	</g>
</g>
</svg>
