<?xml version="1.0" encoding="utf-8"?>
<!-- Generator: Adobe Illustrator 20.1.0, SVG Export Plug-In . SVG Version: 6.00 Build 0)  -->
<svg version="1.1" id="Layer_1" xmlns="http://www.w3.org/2000/svg" xmlns:xlink="http://www.w3.org/1999/xlink" x="0px" y="0px"
	 viewBox="0 0 429 379.7" style="enable-background:new 0 0 429 379.7;" xml:space="preserve">
<style type="text/css">
	.st0{fill:#E09D7C;}
	.st1{fill:#C87D58;}
	.st2{fill:#E5B190;}
	.st3{fill:#8F4932;}
	.st4{fill:#C96746;}
	.st5{fill:#AB583C;}
	.st6{fill:url(#SVGID_1_);}
	.st7{fill:#9BD4BC;}
	.st8{fill:#70AD98;}
	.st9{fill:#5A9E85;}
	.st10{fill:#4C8772;}
</style>
<g transform="matrix( 1, 0, 0, 1, 0,0) ">
	<g>
		<g id="Layer0_0_MEMBER_0_FILL">
			<path class="st0" d="M33.8,173c9.2-2.8,22.4-3.8,39.7-2.8c18.8,1.3,32.8,7.5,41.8,18.7c5.9,7.4,17,23.6,33.1,48.6
				c10.3,13.3,27,22.5,50.1,27.6c11.5,2.5,21.9,3.8,31.4,3.6c-2-1-4-2.4-6.2-4.2c-4.4-3.7-6.9-7.7-7.4-12.1
				c-1.4-10.6-0.6-19.5,2.3-26.8l3.8-6.4c-0.7,0.7-1.8,1.2-3.4,1.5c-5.4,1.1-13.8-0.6-25.3-5.1c-6.9-2.7-14.1-8.7-21.4-18
				c-8.4-12.2-14.7-21.4-18.9-27.6c-16.8-24.3-34.5-36.7-53.1-37.2c-18.5-0.6-36.9,0.7-55,3.8c-8.9,1.6-16.1,3.1-21.4,4.7
				c-9.2,7.4-11.7,15.6-7.6,24.8c2,4.5,4.9,8.4,8.7,11.5C26.3,175.9,29.2,174.4,33.8,173z"/>
		</g>
	</g>
</g>
<g transform="matrix( 1, 0, 0, 1, 0,0) ">
	<g>
		<g id="Layer0_0_MEMBER_1_FILL">
			<path class="st1" d="M73.5,170.2c18.8,1.3,32.8,7.5,41.8,18.7c5.9,7.4,17,23.6,33.1,48.6c10.3,13.3,27,22.5,50.1,27.6
				c11.5,2.5,21.9,3.8,31.4,3.6c-2-1-4-2.4-6.2-4.2c-4.4-3.7-6.9-7.7-7.4-12.1l-0.6-5.9l-0.6,0.2c-18.7,6.2-35,2.7-49-10.6
				c-6.4-6.1-17.9-22.6-34.6-49.5c-10.2-16.4-24.6-25.8-43.3-28.2c-10.8-1.4-26,0-45.9,4.2c-9.6,2.1-16.3,1.3-20.2-2.3
				c-3.1-3-4.2-7.7-3.2-14.2c-5.4,6.5-5.9,13.7-1.7,21.7c2.1,4,4.7,7.3,7.9,10c1.1-1.7,4-3.3,8.7-4.7
				C43,170.1,56.3,169.2,73.5,170.2z"/>
		</g>
	</g>
</g>
<g transform="matrix( 1, 0, 0, 1, 0,0) ">
	<g>
		<g id="Layer0_0_MEMBER_2_FILL">
			<path class="st2" d="M101.1,139.2c12,1.7,22.7,9.4,32.1,23.1c5.7,8.1,14.8,22.3,27.4,42.7c9.5,12.6,20.6,19.8,33.3,21.7
				c6.4,0.8,11.7,0.4,16.1-1.3c-3.3-0.1-7.2-0.8-11.9-2.1c-9.1-2.7-16.8-7.1-23.4-13.4c-6.1-5.7-11-11.8-14.7-18.5
				c-6.4-11.5-11-19.3-13.8-23.4c-9.6-13.9-21.7-23.1-36.3-27.8L101.1,139.2z"/>
		</g>
	</g>
</g>
<g transform="matrix( 1, 0, 0, 1, 0,0) ">
	<g>
		<g id="Layer0_1_MEMBER_0_FILL">
			<path class="st3" d="M255.9,213.1l-10.4-4.2c-2,0.8-4.2,2.1-6.8,3.6c-5,3.4-8.6,7.4-11,11.9l0.6,19.7c1.7,14,5.7,23.5,12.1,28.5
				c7.5,6.1,14.5,5.1,21-3c6.4-8.1,8.8-18.8,7.2-32.3C267.4,226.2,263.1,218.2,255.9,213.1z"/>
		</g>
	</g>
</g>
<g transform="matrix( 1, 0, 0, 1, 0,0) ">
	<g>
		<g id="Layer0_1_MEMBER_1_FILL">
			<path class="st4" d="M239.4,216.5c2.1-3.5,4.2-6.1,6.2-7.6c-4.1,0.3-8.2,1-12.3,2.1l-10.6,4.2c-1.6,1.6-3.2,3.9-4.9,7
				c-3.4,6.1-5.4,12.9-5.9,20.4c-0.6,7.5,1.2,14.6,5.3,21.2c2.1,3.3,4.3,5.8,6.6,7.6l12.5,3.2c4.1,0.7,7.9,1.2,11.5,1.5
				c-2.5-1.4-5.1-3.9-7.6-7.4c-5-6.9-7.3-15.6-7-26.1C233.1,232.4,235.3,223.7,239.4,216.5z"/>
		</g>
	</g>
</g>
<g transform="matrix( 1, 0, 0, 1, 0,0) ">
	<g>
		<g id="Layer0_1_MEMBER_2_FILL">
			<path class="st5" d="M223.7,271.5l23.4,4.7c-6.5-3.5-11-9.2-13.6-17c-2.7-8.6-4.5-13.8-5.5-15.5c-2-3.4-5.1-4.6-9.3-3.6
				c-3.5,0.7-5.4,2.9-5.7,6.6c-0.3,2.1,0.1,5.9,1.3,11.5C216.5,263.9,219.7,268.4,223.7,271.5z"/>
		</g>
	</g>
</g>
<g transform="matrix( 1, 0, 0, 1, 0,0) ">
	<g>
		<g id="Layer0_1_MEMBER_3_FILL">
			
				<linearGradient id="SVGID_1_" gradientUnits="userSpaceOnUse" x1="243.9306" y1="789.7273" x2="261.3416" y2="728.8949" gradientTransform="matrix(1 0 0 -1 0 1002)">
				<stop  offset="0" style="stop-color:#592E20"/>
				<stop  offset="1" style="stop-color:#A35339"/>
			</linearGradient>
			<path class="st6" d="M265.1,248.1c0.4-5.9-0.4-12.1-2.5-18.5c-2.5-7.9-6.2-11.6-10.8-11c-7.2,1-10.8,8.6-10.8,22.7
				c0.1,14.3,3.8,22.7,10.8,25.3C259.9,269.6,264.4,263.4,265.1,248.1z"/>
		</g>
	</g>
</g>
<g transform="matrix( 1, 0, 0, 1, 0,0) ">
	<g>
		<g id="Layer0_1_MEMBER_4_FILL">
			<path class="st0" d="M238.7,212.9c-6.7,1-11.9,2.5-15.7,4.5c-0.6,0.8-1.1,1.7-1.7,2.5c-1.1,2-1.8,3.4-1.9,4.2l-0.4,2.1
				c0.6-1,1.3-2.1,2.3-3.4c2-2.4,4-4,5.9-4.9L238.7,212.9z"/>
		</g>
	</g>
</g>
<g transform="matrix( 1, 0, 0, 1, 0,0) ">
	<g>
		<g id="Layer0_2_MEMBER_0_FILL">
			<path class="st7" d="M395.6,98l-18-13.8l-142.9,16.6l-38.6,43.1l38,9.1l36.9-9.3L257.6,267l-22.5,103.2l40.6-11.5l45.2-53.5
				l46.7,18l7.9,7l33.1-3.8l-65.2-202.8L395.6,98z"/>
		</g>
	</g>
</g>
<g transform="matrix( 1, 0, 0, 1, 0,0) ">
	<g>
		<g id="Layer0_2_MEMBER_1_FILL">
			<path class="st8" d="M365.3,322.4l2.3,0.8l7.9,7l39.1,3l-71.1-209.6l0.8-0.4L310.7,112l-4.7,61.8L365.3,322.4z"/>
		</g>
	</g>
</g>
<g transform="matrix( 1, 0, 0, 1, 0,0) ">
	<g>
		<g id="Layer0_2_MEMBER_2_FILL">
			<path class="st9" d="M375.5,330.3c-2.5-8.5-5.9-18.8-10-31c-2.5-7.6-12-40.8-28.2-99.6l-23.8-85.6l64.1-29.9
				c-8.6-7.1-18.5-14.1-29.5-21c-6.9-4.2-21.9-14.4-45-30.6L270.8,9.5c-4.4,6.1-12.2,19.5-23.6,40.1l-51.2,94.3l45.4-11.5
				l-6.4,237.8l55.4-72.2L375.5,330.3z"/>
		</g>
	</g>
</g>
<g transform="matrix( 1, 0, 0, 1, 0,0) ">
	<g>
		<g id="Layer0_2_MEMBER_3_FILL">
			<path class="st10" d="M206.9,132.8l32.7-7.9c-12.5,0.1-18.8-1.3-19.1-4.5c-0.1-2,3-10.4,9.6-25.3c3.4-7.4,6.7-14.6,10-21.7
				L206.9,132.8z"/>
		</g>
	</g>
</g>
<g transform="matrix( 1, 0, 0, 1, 0,0) ">
	<g>
		<g id="Layer0_2_MEMBER_4_FILL">
			<path class="st10" d="M250,328.2L244,304l-3.2,49c12-16.6,19.1-26.5,21.2-29.7l3.2-4.7C255.6,327.7,250.6,330.9,250,328.2z"/>
		</g>
	</g>
</g>
<g transform="matrix( 1, 0, 0, 1, 0,0) ">
	<g>
		<g id="Layer0_2_MEMBER_5_FILL">
			<path class="st8" d="M365.1,320.3l-5.5-14.9c-4.4-0.3-10-0.9-16.8-1.9c-13.6-2.3-26.3-5.4-38.2-9.6l15.7,7
				c11.5,5,19.5,8.3,24.2,10C351.8,313.8,358.7,316.9,365.1,320.3z"/>
		</g>
	</g>
</g>
<g transform="matrix( 1, 0, 0, 1, 0,0) ">
	<g>
		<g id="Layer0_2_MEMBER_6_FILL">
			<path class="st8" d="M347.2,85.7c-0.3,2.1-1.1,3.8-2.3,5.1l17-10C336.1,63.7,320,54,313.5,51.9l10.8,7.4
				c7.9,5.7,13.9,10.4,18,14.2C346.5,77.4,348.1,81.4,347.2,85.7z"/>
		</g>
	</g>
</g>
</svg>
