<?xml version="1.0" encoding="utf-8"?>
<!-- Generator: Adobe Illustrator 20.1.0, SVG Export Plug-In . SVG Version: 6.00 Build 0)  -->
<svg version="1.1" id="Layer_1" xmlns="http://www.w3.org/2000/svg" xmlns:xlink="http://www.w3.org/1999/xlink" x="0px" y="0px"
	 viewBox="0 0 358.7 468" style="enable-background:new 0 0 358.7 468;" xml:space="preserve">
<style type="text/css">
	.st0{fill:#734F26;}
	.st1{fill:#7D5925;}
	.st2{fill:#6E655C;}
	.st3{fill:#47751F;}
	.st4{fill:#719931;}
	.st5{fill:#8C5D27;}
	.st6{fill:#693E0C;}
	.st7{fill:#9E6D34;}
	.st8{fill:#784A17;}
	.st9{fill:#784912;}
	.st10{fill:#855114;}
	.st11{fill:#A16A2F;}
	.st12{fill:#D4933D;}
	.st13{fill:#6E4415;}
	.st14{fill:url(#SVGID_1_);}
	.st15{fill:url(#SVGID_2_);}
	.st16{fill:url(#SVGID_3_);}
	.st17{fill:#395E19;}
	.st18{fill:#A2AD2D;}
</style>
<g>
	<g transform="matrix( 1, 0, 0, 1, 11.7,163.65) ">
		<g transform="matrix( 1, 0, 0, 1, 0,0) ">
			<g>
				<g id="flash0_ai_4_Layer_19_copy__Path__4_0_Layer0_0_FILL_9_">
					<path d="M240.1,281.2c6.5-3.6,6.7-7.3,0.5-11c-7.3-4.4-28.6-9.6-63.9-15.7c-33.9-5.9-59.5-9.1-76.8-9.6
						c-6.4-0.2-18.7,2.8-36.8,8.9c-9.6,3.3-21,7.4-34,12.4c-7,2.6-10.1,4.9-9.1,7c1.2,3,10.1,6,26.5,9.1c9.1,1.7,19.5,3.1,31,4.2
						c11.5,1,19.3,1.9,23.6,2.7c0.6,0.2,8.2,2.2,23,6.2c9.5,2.6,17.6,4,24.5,4c6.3,0,12.9,0.2,20,0.5c7.1,0.3,12.2,0.5,15.5,0.5
						c8.4,0,13.9-0.2,16.4-0.6c6.3-0.9,12.2-3.4,17.9-7.4C222.7,289.3,230,285.6,240.1,281.2z"/>
				</g>
			</g>
		</g>
	</g>
	<g transform="matrix( 1, 0, 0, 1, 0,0) ">
		<g>
			<g id="Layer0_0_MEMBER_1_FILL">
				<path class="st0" d="M79.7,441.1c2.4,0.3,9.8,0.9,22.3,1.9c12.1,1.1,20,2.3,23.6,3.8c12.2,5.3,22,7.9,29.3,7.9
					c5.4,0,15,0.9,28.7,2.8c1.6,0.2,5.8,0.9,12.6,2.2c4.5,0.9,8.9,1.2,13.2,0.7c3-0.2,6.9-0.2,11.5,0.1c3,0.2,5.7-0.2,8.2-1.1
					c2.5-0.9,5.7-2.7,9.8-5.4c4-2.8,6.6-4.4,7.5-4.8c1.3-0.5,3.8-1.2,7.5-2.2c3.8-1.2,7-2.5,9.6-4l6.7-4l7.7-5.8
					c0.9-0.5,1.7-2.7,2.3-6.7c0.7-3.8,0.9-6.8,0.6-9c-0.2-1.6-33.7-3.1-100.7-4.6c-33.5-0.7-66.9-1.3-100.4-1.7l-31.2,4l0.1,6.4
					c0.4,4.9,1.3,8.8,2.7,11.6c1.3,2.6,3.4,3.9,6.2,3.8l8.3,1.6C72.1,439.9,76.7,440.6,79.7,441.1z"/>
			</g>
		</g>
	</g>
	<g transform="matrix( 1, 0, 0, 1, 0,0) ">
		<g>
			<g id="Layer0_0_MEMBER_2_FILL">
				<path class="st1" d="M61.5,430.2c1.2,1.3,2.7,2,4.7,2l18.2,0.4l5.4,1.4c5,0.8,8.1,1,9.1,0.6c0.1-0.5,0.2-0.8,0.2-1
					c0.2-0.5,1.6-0.4,4.1,0.4c2.1,0.6,4.7,1,7.8,1.4c2.7,0.3,4.5,0.7,5.4,1c0.8,0.2,1.9,0.4,3.3,0.4c1.1,0,2,0.3,2.7,1
					c0.7,0.5,2,1.2,4,2.2c1.8,0.9,3,1.6,3.5,2.1c0.6,0.6,2,0.9,4.2,0.9c1.3,0.1,3.2,0.1,5.6,0.1c2,0.2,3.7,0.8,5.1,1.7l6.1,0.7
					l2.6-0.1c2,0,3.5,0.1,4.5,0.4c1.6,0.5,3,1.2,4.5,2l0.7-0.2c0.7-0.1,1.4,0.1,2.2,0.5c0.8,0.4,1.8,0.7,2.8,1
					c2.1,0.4,3.7,0.8,4.9,1.1c3.4,0.9,7.2,1.4,11.5,1.4l12.5-1c0.8,0,1.9-0.2,3.2-0.5c1.3-0.2,2.7,0.1,4.2,0.7c2.7,1.3,5.7,1.6,9,1
					l9.8-1.2l1.9,3.1c1.1,2.6,1.2,4.9,0.5,7l1.1-0.2c1.1-2.3,1.6-4,1.6-5.2c0-1-0.3-2.8-0.9-5.4c-0.3-1.9-0.2-2.9,0.2-3
					c0.2-0.1,0.9,0,1.9,0.1c0.8,0.1,1.6,0,2.2-0.4c0.6-0.6,1-0.9,1.4-1.1c0.5-0.4,1.7-0.8,3.7-1.2c3.1-0.7,5.8-1,8-0.7
					c3-0.7,4.8-1.3,5.4-2c0.7-0.8,1.2-1.4,1.6-1.7c0.7-0.6,1.9-1,3.5-1.4c1.7-0.2,3-0.5,3.7-0.9c0.3-0.1,1.8-0.8,4.3-2.1
					c1.6-0.8,3.2-1.9,4.7-3.2c1.1-1,1.9-1.5,2.3-1.5c1.2,0,2.8-0.5,4.8-1.4l2.6-0.4l-0.9,5.1l0.9-0.6c0.9-0.5,1.7-2.7,2.3-6.7
					c0.7-3.8,0.9-6.8,0.6-9c-0.2-1.1-17.7-2.2-52.4-3.3c-50.5,3.9-80.9,5.5-91.1,4.8c-16.9-1.2-35.3-3.8-55.1-7.8h-2.5l-31.2,4v4.8
					c0.2,3.7,0.7,6.9,1.5,9.6c1.3-0.8,2.4-1,3.2-0.5c0.9,0.5,1.8,0.9,2.6,1.2c0.4,0.2,0.9,0.2,1.5,0.1c0.5-0.1,1.1-0.5,1.9-1.1
					C60,429.1,60.7,429.4,61.5,430.2z"/>
			</g>
		</g>
	</g>
	<g transform="matrix( 1, 0, 0, 1, 0,0) ">
		<g>
			<g id="Layer0_0_MEMBER_3_MEMBER_0_FILL">
				<path class="st2" d="M62.4,433.5c-0.1-0.7-0.7-1.2-1.7-1.5c-0.3-0.1-0.8,0-1.5,0.1c-1,0.2-1.6,0.4-2,0.4
					c-0.7,0.1-0.5,0.6,0.6,1.5c1.2,0.9,2.3,1.2,3.2,1C62.2,434.8,62.6,434.3,62.4,433.5z"/>
			</g>
		</g>
	</g>
	<g transform="matrix( 1, 0, 0, 1, 0,0) ">
		<g>
			<g id="Layer0_0_MEMBER_3_MEMBER_1_FILL">
				<path class="st2" d="M68.7,434.6c0.2-0.6-0.3-0.9-1.6-1c-0.9,0-1.4,0.3-1.5,0.9c-0.1,0.6,0.3,0.9,1.2,0.9
					C67.9,435.4,68.5,435.1,68.7,434.6z"/>
			</g>
		</g>
	</g>
	<g transform="matrix( 1, 0, 0, 1, 0,0) ">
		<g>
			<g id="Layer0_0_MEMBER_3_MEMBER_2_FILL">
				<path class="st2" d="M91.2,435.9c0.2-0.8-0.5-1.3-2.1-1.4c-3.5-0.2-4.9,0.2-4.5,1c0.2,0.5,0.7,0.9,1.5,1.2c1,0.5,2,0.7,3,0.5
					C90.3,437.1,91,436.6,91.2,435.9z"/>
			</g>
		</g>
	</g>
	<g transform="matrix( 1, 0, 0, 1, 0,0) ">
		<g>
			<g id="Layer0_0_MEMBER_3_MEMBER_3_FILL">
				<path class="st2" d="M94.2,437.1c-0.1-0.7-0.6-1.1-1.6-1.2c-0.4,0-0.8,0.4-1.1,1.2c-0.3,0.8,0,1.2,1.1,1.1
					C93.8,438.1,94.4,437.8,94.2,437.1z"/>
			</g>
		</g>
	</g>
	<g transform="matrix( 1, 0, 0, 1, 0,0) ">
		<g>
			<g id="Layer0_0_MEMBER_3_MEMBER_4_FILL">
				<path class="st2" d="M125.4,442.4c-0.3-1.1-0.9-1.7-1.7-1.9c-1.3-0.3-2.6-0.4-3.7-0.2c-1.2,0.1-1.8,0.3-1.6,0.7
					c0.1,0.4,0.8,0.9,2.2,1.6c1.4,0.7,2.7,1,3.8,1.1C125.4,443.9,125.7,443.5,125.4,442.4z"/>
			</g>
		</g>
	</g>
	<g transform="matrix( 1, 0, 0, 1, 0,0) ">
		<g>
			<g id="Layer0_0_MEMBER_3_MEMBER_5_FILL">
				<path class="st2" d="M142.3,446.6c-0.9-1.6-1.8-2.5-2.6-2.5c-1.4,0-2.5,0.2-3.2,0.5c-1,0.4-1.1,1-0.4,1.7
					c2.1,1.7,4.2,2.6,6.3,2.6C143.2,449,143.2,448.2,142.3,446.6z"/>
			</g>
		</g>
	</g>
	<g transform="matrix( 1, 0, 0, 1, 0,0) ">
		<g>
			<g id="Layer0_0_MEMBER_3_MEMBER_6_FILL">
				<path class="st2" d="M151.8,448.1c-0.3-0.9-1.1-1.4-2.3-1.5c-1.5-0.1-2.6,0-3.3,0.2c-1,0.3-1.1,0.9-0.4,1.6
					c1.6,1.5,3.3,2,5.1,1.5C151.8,449.7,152.1,449.1,151.8,448.1z"/>
			</g>
		</g>
	</g>
	<g transform="matrix( 1, 0, 0, 1, 0,0) ">
		<g>
			<g id="Layer0_0_MEMBER_3_MEMBER_7_FILL">
				<path class="st2" d="M197.1,455.5c0.8,0.6,1.9,0.9,3.3,0.9c1.1,0,2.1,0,3.1,0.1c0.6-0.1,1.1-0.4,1.5-0.9
					c0.6-0.7,0.4-1.5-0.5-2.5c-1-1.2-2.4-1.8-4.2-1.9c-1.6-0.2-3.2,0-4.7,0.4c-1.7,0.4-2.1,1-1.1,1.7
					C195.2,454,196.1,454.7,197.1,455.5z"/>
			</g>
		</g>
	</g>
	<g transform="matrix( 1, 0, 0, 1, 0,0) ">
		<g>
			<g id="Layer0_0_MEMBER_3_MEMBER_8_FILL">
				<path class="st2" d="M213.1,453.9c0.2-0.7-0.2-1.1-1-1c-1.7,0.2-2.8,0.3-3.2,0.4c-0.5,0-0.5,0.3-0.1,0.9
					c0.7,0.7,1.2,1.2,1.5,1.4c0.4,0.2,0.9,0.2,1.6,0C212.6,455.3,213,454.7,213.1,453.9z"/>
			</g>
		</g>
	</g>
	<g transform="matrix( 1, 0, 0, 1, 0,0) ">
		<g>
			<g id="Layer0_0_MEMBER_3_MEMBER_9_FILL">
				<path class="st2" d="M222.6,455.3c-0.7-0.7-1.4-1-2.2-1c-0.8,0-1.4,0.5-1.7,1.5c-0.4,1-0.2,1.5,0.6,1.6c0.5,0.1,1.2,0.3,2,0.6
					c0.6,0.2,1.1,0,1.5-0.6C223.3,456.7,223.2,456,222.6,455.3z"/>
			</g>
		</g>
	</g>
	<g transform="matrix( 1, 0, 0, 1, 0,0) ">
		<g>
			<g id="Layer0_0_MEMBER_3_MEMBER_10_FILL">
				<path class="st2" d="M239,449.5c0.9-1.2,0.7-1.9-0.5-1.9c-2.4,0-4.2,0.2-5.6,0.6c-1.3,0.5-1.8,1.1-1.4,1.7
					c0.3,0.5,0.5,1.2,0.5,2.2c0.2,0.7,1.2,0.8,2.7,0.2C236.7,451.8,238.1,450.8,239,449.5z"/>
			</g>
		</g>
	</g>
	<g transform="matrix( 1, 0, 0, 1, 0,0) ">
		<g>
			<g id="Layer0_0_MEMBER_3_MEMBER_11_FILL">
				<path class="st2" d="M246.9,446.9c0-0.7-0.4-1-1.2-1c-1,0-1.6,0.4-1.9,1.2c-0.2,0.8,0.3,1.2,1.5,1
					C246.3,447.9,246.9,447.5,246.9,446.9z"/>
			</g>
		</g>
	</g>
	<g transform="matrix( 1, 0, 0, 1, 0,0) ">
		<g>
			<g id="Layer0_0_MEMBER_3_MEMBER_12_FILL">
				<path class="st2" d="M273.7,432.2c0.1-1-0.9-1-3-0.1c-1.2,0.5-2.3,1.4-3.1,2.7c-0.9,1.4-0.8,2.1,0.4,2c1-0.1,1.7-0.2,2.2-0.5
					c0.6-0.5,1.1-0.9,1.6-1.4C273,434.1,273.6,433.1,273.7,432.2z"/>
			</g>
		</g>
	</g>
	<g transform="matrix( 1, 0, 0, 1, 0,0) ">
		<g>
			<g id="Layer0_0_MEMBER_3_MEMBER_13_FILL">
				<path class="st2" d="M265.3,437.1c-0.2-0.7-0.7-1-1.6-0.7c-1.1,0.2-1.8,0.7-2.1,1.4c-0.4,0.7-0.2,1.2,0.5,1.2
					c0.6,0.1,1.2,0.2,1.7,0.2c0.4,0,0.7-0.2,1-0.5C265.3,438.3,265.5,437.8,265.3,437.1z"/>
			</g>
		</g>
	</g>
	<g transform="matrix( 1, 0, 0, 1, 0,0) ">
		<g>
			<g id="Layer0_0_MEMBER_4_FILL">
				<path class="st3" d="M59.8,426.8c4.7,0.8,12.9,1.9,24.5,3.1c14.7,1.6,25.7,3,33.1,4.2c10.6,1.8,18.6,4,24,6.4
					c3.9,1.8,8.5,2.9,13.8,3.2c2.8,0.2,6.1,0.4,9.9,0.5c0.7,0.2,2.8,0.7,6.2,1.7c2.9,0.9,5.9,1.5,8.9,1.7c3.1,0.3,6.1,0.3,8.8-0.1
					c1.6-0.2,4.2-0.7,7.8-1.2c2.1-0.2,6.8,0.2,14.1,1c7.3,0.4,13.1-0.4,17.4-2.3c3.9-1.8,9.3-3.6,16.2-5.3
					c6.8-1.7,11.2-3.1,13.4-4.2l22.3-11c0.6-1.6,0.9-3.3,1.1-5.3c0.2-3.9-0.9-6.8-3.3-8.7c-2.4-1.8-32.6-3.6-90.5-5.3
					c-28.9-0.8-57.6-1.5-86.2-2c-5.4,0-15.7,1.4-30.7,4.1c-7.6,1.3-14.6,2.6-21,4l-1,4.6c-0.4,3.3,0.1,5.8,1.6,7.5
					C51.4,424.7,54.6,425.9,59.8,426.8z"/>
			</g>
		</g>
	</g>
	<g transform="matrix( 1, 0, 0, 1, 0,0) ">
		<g>
			<g id="Layer0_0_MEMBER_5_FILL">
				<path class="st4" d="M49.2,410.8c-1.3,3.4,1.6,5.7,8.9,7c9.1,1.7,25.4,3.8,49,6.3c19.6,2.1,32.5,4.1,38.7,6.2
					c20.3,6.8,42.8,8.6,67.5,5.2c18.6-2.6,35.8-7,51.7-13.4c18.8-7.4,19.3-12.7,1.5-15.9c-28.4-6.3-51.4-10.8-69-13.7
					c-31.2-5.1-61.4-6.9-90.5-5.3c-14.3,0.7-29.5,5.3-45.4,13.6C54.4,404.5,50.3,407.8,49.2,410.8z"/>
			</g>
		</g>
	</g>
	<g transform="matrix( 1, 0, 0, 1, 27.75,156.3) ">
		<g transform="matrix( 1, 0, 0, 1, 0,0) ">
			<g>
				<g id="flash0_ai_4_Layer_19_copy__Path__2_0_Layer0_0_FILL_9_">
					<path d="M112.8,252.2c-4.8-3.1-10.1-6.2-15.8-9.3c-11.5-6.1-19.7-9.1-24.5-8.9c-5.4,0.2-10.8,1.3-16.2,3.1
						c-4.9,1.7-8.6,3.6-10.9,5.7c-6.3,6.2,1.6,10.3,23.9,12.2c13.7,1.2,24.4,1.2,32-0.2C105.3,254.2,109.1,253.3,112.8,252.2z"/>
				</g>
			</g>
		</g>
	</g>
	<g transform="matrix( 1, 0, 0, 1, 62.45,161.25) ">
		<g transform="matrix( 1, 0, 0, 1, 0,0) ">
			<g>
				<g id="flash0_ai_4_Layer_19_copy__Path__1_0_Layer0_0_FILL_9_">
					<path d="M122.4,247.5c-1.4-3-2.7-4.8-4-5.3c-2.7-0.9-8.7-1.1-17.8-0.6c-4.9,0.2-6.9,1.4-6.2,3.3c0.8,2.1,4.7,3.3,11.7,3.7
						c6.4,0.4,10.9,0.4,13.5,0C120.8,248.5,121.7,248.1,122.4,247.5z"/>
				</g>
			</g>
		</g>
	</g>
	<g transform="matrix( 1, 0, 0, 1, 83.2,160.3) ">
		<g transform="matrix( 1, 0, 0, 1, 0,0) ">
			<g>
				<g id="flash0_ai_4_Layer_19_copy__Path__0_Layer0_0_FILL_9_">
					<path d="M147.5,243.5l-5.8-2.8c-3.9-1-8.1-1.1-12.7-0.2c-3.4,0.7-4.6,1.5-3.7,2.5c0.9,1,3.8,1.9,8.7,2.8
						c4,0.7,7.5,0.6,10.4-0.4C145.8,244.8,146.8,244.2,147.5,243.5z"/>
				</g>
			</g>
		</g>
	</g>
	<g transform="matrix( 1, 0, 0, 1, 52.9,167.85) ">
		<g transform="matrix( 1, 0, 0, 1, 0,0) ">
			<g>
				<g id="flash0_ai_4_Layer_19_copy__Path__5_0_Layer0_0_FILL_9_">
					<path d="M91.5,252.7c-1.2-1.2-3.5-1.7-7-1.5c-4.3,0.3-5.4,1.1-3.2,2.2c2.1,1.2,4.9,1.6,8.4,1.5C92,254.7,92.7,254,91.5,252.7z"
						/>
				</g>
			</g>
		</g>
	</g>
	<g transform="matrix( 1, 0, 0, 1, 90.05,165.35) ">
		<g transform="matrix( 1, 0, 0, 1, 0,0) ">
			<g>
				<g id="flash0_ai_4_Layer_19_copy__Path__4_0_0_Layer0_0_FILL_9_">
					<path d="M153.2,249.9c-2-1.1-5-1.8-9-2.2c-4-0.4-6.8-0.2-8.4,0.6c-1.6,0.7-1.1,1.6,1.5,2.5c5.5,2,10.5,2.5,15.1,1.6
						C154.8,251.8,155.1,251,153.2,249.9z"/>
				</g>
			</g>
		</g>
	</g>
	<g transform="matrix( 1, 0, 0, 1, 100.1,163.7) ">
		<g transform="matrix( 1, 0, 0, 1, 0,0) ">
			<g>
				<g id="flash0_ai_4_Layer_19_copy__Path__3_0_Layer0_0_FILL_9_">
					<path d="M160.4,246.3c-0.9-0.9-2.6-1.4-4.9-1.4c-1.8,0-3.4,0.4-4.8,1.2c-1.4,0.7-1.2,1.2,0.7,1.5c1.4,0.2,3,0.4,4.8,0.7
						c1.4,0.2,2.6,0.1,3.6-0.2C161.1,247.8,161.3,247.2,160.4,246.3z"/>
				</g>
			</g>
		</g>
	</g>
	<g transform="matrix( 1, 0, 0, 1, 75.8,157.95) ">
		<g transform="matrix( 1, 0, 0, 1, 0,0) ">
			<g>
				<g id="flash0_ai_4_Layer_19_copy__Path__2_0_0_Layer0_0_FILL_9_">
					<path d="M123.9,238c-0.3-0.9-1.4-1.4-3.3-1.5c-2.4-0.1-4.2,0.1-5.6,0.6c-1.2,0.5-1.2,1,0.1,1.5c0.8,0.3,1.9,0.8,3.2,1.4
						c1.1,0.3,2.3,0.3,3.6,0C123.5,239.6,124.2,238.9,123.9,238z"/>
				</g>
			</g>
		</g>
	</g>
	<g transform="matrix( 1, 0, 0, 1, 81.85,171.1) ">
		<g transform="matrix( 1, 0, 0, 1, 0,0) ">
			<g>
				<g id="flash0_ai_4_Layer_19_copy__Path__1_0_0_Layer0_0_FILL_9_">
					<path d="M141.4,258.1c-1.2-0.7-3.9-1.4-8-2c-3.5-0.6-6.5-0.4-9,0.5c-2.6,0.9-2.1,1.6,1.4,2.2c5.7,1,8.6,1.5,8.8,1.6
						c2.6,0.3,4.6,0.2,6.1-0.4C142.3,259.5,142.6,258.8,141.4,258.1z"/>
				</g>
			</g>
		</g>
	</g>
	<g transform="matrix( 1, 0, 0, 1, 21.35,163.1) ">
		<g transform="matrix( 1, 0, 0, 1, 0,0) ">
			<g>
				<g id="flash0_ai_4_Layer_19_copy__Path__0_0_Layer0_0_FILL_9_">
					<path d="M39.4,244.1h-0.1c-3.3,0.3-5.1,1-5.3,2.1c-0.2,1.1,1.3,2,4.6,2.8c3.9,1,6.8,0.5,8.7-1.4
						C49,245.9,46.4,244.7,39.4,244.1z"/>
				</g>
			</g>
		</g>
	</g>
	<g transform="matrix( 1, 0, 0, 1, 0,0) ">
		<g>
			<g id="Layer0_3_MEMBER_0_FILL">
				<path class="st5" d="M31,182.9l5.3-9.6c-1.7-2-3.4-3.4-5.1-4.3c-1.1-0.5-2.3-0.9-3.6-1.2l-1.7-0.2l-9.1,3.2
					c-6.5,3.8-10.9,9.6-13.1,17.3c-1.6,5.6-1.6,11.1-0.1,16.4c0.8,2.6,1.8,4.7,2.8,6.3l5.4,4.2c4.5,2.4,8.9,2.7,13.1,0.9
					c2.8-1.2,4.7-7,5.6-17.6L31,182.9z"/>
			</g>
		</g>
	</g>
	<g transform="matrix( 1, 0, 0, 1, 0,0) ">
		<g>
			<g id="Layer0_3_MEMBER_1_FILL">
				<path class="st6" d="M38.3,184.1c0.9-8.2-0.9-11.8-5.3-11c-4.1,0.8-8.1,3.1-12,6.9c-5.3,5-8,11.2-8,18.4
					c-0.1,9.4,2.1,15.4,6.4,17.9c4.5,2.6,8.3,0,11.6-7.5C35.1,199.4,37.5,191.1,38.3,184.1z"/>
			</g>
		</g>
	</g>
	<g transform="matrix( 1, 0, 0, 1, 0,0) ">
		<g>
			<g id="Layer0_3_MEMBER_2_FILL">
				<path class="st7" d="M28.1,170.8c-0.1,1.1-1,2.3-2.8,3.7l6.1-2.7l1.1-0.2c-2.5-1.7-4.1-2.7-4.8-3l-2-0.5l1.2,0.7
					C27.7,169.4,28.2,170.1,28.1,170.8z"/>
			</g>
		</g>
	</g>
	<g transform="matrix( 1, 0, 0, 1, 0,0) ">
		<g>
			<g id="Layer0_3_MEMBER_3_FILL">
				<path class="st8" d="M6.2,205.3l-1.6-3l2.5,7.4c0.7,1.8,3,3.4,6.8,4.7l2,0.7c-2.9-1.8-5-3.5-6.4-5.1
					C8.5,209.2,7.4,207.5,6.2,205.3z"/>
			</g>
		</g>
	</g>
	<g transform="matrix( 1, 0, 0, 1, 0,0) ">
		<g>
			<g id="Layer0_4_MEMBER_0_FILL">
				<path class="st9" d="M87.4,400.1l6.4,5.4c6.8,3.6,16.2,5.3,28.4,5.1c15.2-0.2,26.2-2.5,33.3-6.7c2.2-1.3,3.9-2.7,5.1-4.2l1-2
					c-0.8-3.6-2-7.4-3.5-11.4c-3-8-6.2-12.9-9.8-14.6c-3.5-1.7-7.3-1.1-11.5,1.9c-2.1,1.5-3.9,3.1-5.3,4.9l-35.2-4.7l-3.6,5.7
					c-2.4,4.4-3.8,8.1-4.3,11.1C87.7,395.6,87.4,398.7,87.4,400.1z"/>
			</g>
		</g>
	</g>
	<g transform="matrix( 1, 0, 0, 1, 0,0) ">
		<g>
			<g id="Layer0_4_MEMBER_1_MEMBER_0_FILL">
				<path class="st6" d="M87.4,400.1l6.4,5.4c6.8,3.6,16.2,5.3,28.4,5.1c4-0.2,7-0.3,8.9-0.5c-10.2-0.7-15.9-3.5-17.2-8.4
					c-1.1-3.9-0.7-8.1,1.2-12.7l3.1-5.7l-7.5-7.5l-14.5-1.9l-3.6,5.7c-2.4,4.4-3.8,8.1-4.3,11.1C87.7,395.6,87.4,398.7,87.4,400.1z"
					/>
			</g>
		</g>
	</g>
	<g transform="matrix( 1, 0, 0, 1, 0,0) ">
		<g>
			<g id="Layer0_4_MEMBER_1_MEMBER_1_FILL">
				<path class="st6" d="M125.1,402.6l-7.7-5.2l4.8,6.1c2.1,2.6,7,4.7,14.6,6.1c4-0.6,7-1.2,9-1.7
					C138.6,407.7,131.7,406,125.1,402.6z"/>
			</g>
		</g>
	</g>
	<g transform="matrix( 1, 0, 0, 1, 0,0) ">
		<g>
			<g id="Layer0_4_MEMBER_2_FILL">
				<path class="st10" d="M94.8,377.8c-0.2,2.7,1.5,4.6,5.2,5.6c6.3,1.6,13.8,2.4,22.5,2.2c9.2-0.2,16.6-1.5,22.3-3.8
					c5.6-2.3,7.6-4.8,6.1-7.5c-1.5-2.6-5.5-4.2-12.1-4.8c-20.7-1.6-34.8,0-42.4,4.6L94.8,377.8z"/>
			</g>
		</g>
	</g>
	<g transform="matrix( 1, 0, 0, 1, 0,0) ">
		<g>
			<g id="Layer0_4_MEMBER_3_FILL">
				<path class="st7" d="M157.9,399.6c0.5-3.3,0.2-6.7-0.9-10.3c-0.6-2.1-1.5-4.4-2.7-6.7l-1.7-2.7l-1,0.4c-0.9,0.5-2.1,1.2-3.5,2.2
					c-1.8,1.3-3,1.9-3.7,1.6l3.2,1.9c2.4,1.7,4.4,3.8,6.1,6.2C156.3,396.1,157.7,398.6,157.9,399.6z"/>
			</g>
		</g>
	</g>
	<g transform="matrix( 1, 0, 0, 1, 0,0) ">
		<g>
			<g id="Layer0_4_MEMBER_4_FILL">
				<path class="st5" d="M94,230.5c-6.1,1.9-10.6,2.8-13.6,2.7l-2.7-0.7l5.4,18.2c4.2,15.7,7.9,32.4,11.1,50.3
					c3.1,18,4.5,35.6,4,52.8c-0.2,8.6-0.7,15.4-1.6,20.4l2.6,4.6c3.5,3,9.9,4.6,19.2,4.6c12.1,0,21-1.7,26.6-5.1
					c1.7-1.1,3-2.2,4-3.5l0.7-1.6c-6.9-18.7-12.9-39.1-18-61.1c-3.2-13.9-7.1-31.9-11.7-53.8l-6.1-28.8c-0.8-0.6-2.3-1-4.3-1.2
					C105.2,227.9,100.1,228.6,94,230.5z"/>
			</g>
		</g>
	</g>
	<g transform="matrix( 1, 0, 0, 1, 0,0) ">
		<g>
			<g id="Layer0_4_MEMBER_5_FILL">
				<path class="st8" d="M83.7,231.2l-3.1,2.3c6.1,19.1,11.3,41,15.6,65.5c3.1,17.9,4.5,35.4,4,52.7c-0.2,8.7-0.7,15.5-1.6,20.5
					l2.6,4.6c3.5,3,9.9,4.5,19.2,4.5h0.9c-2.4-2.9-4.1-8.6-5.1-17.2c-0.7-9.4-1.3-15.6-1.7-18.5c-0.6-4.4-1.8-10.8-3.7-19.3
					l-2.7-11.4l1.4,22.9c0.4,5.7,0.9,14.8,1.4,27.3c0.2,2.3,0.8,5,1.9,8.2c0.6,1.6,0.4,2.1-0.5,1.4c-2.5-2.1-4.3-8-5.4-17.6
					c-0.3-3.4-0.7-10.6-1.2-21.6c-0.6-11.9-1-19.8-1.4-23.6c-0.5-5-2.8-16.8-7-35.4l-6.2-26.3l7.2-0.7c2.4-0.1,5.3-0.9,8.7-2.3
					c3.4-1.4,6.1-3,8.2-4.7c1.6-1.4,2.7-2.8,3.2-4.1l-1.2-6.3c-2.8-0.9-9.4-2.1-19.8-3.7l-0.9,0.2C90.9,230.1,86.8,231,83.7,231.2z"
					/>
			</g>
		</g>
	</g>
	<g transform="matrix( 1, 0, 0, 1, 0,0) ">
		<g>
			<g id="Layer0_4_MEMBER_6_FILL">
				<path class="st8" d="M105.2,281.5c-0.4-4.8-0.8-7.9-1.2-9.3c-1.1-4.6-1.9-8.2-2.5-10.6c-1.1-4.5-1.9-6.8-2.3-6.8
					c-1,0-1.5,0.1-1.5,0.2c-0.3,0.8,0,3.3,1,7.4l2.3,8.5c1.6,6.4,2.6,11.6,2.7,15.6c0.2,4,1,9.4,2.3,16.3c0.7,3.7,1.8,8.5,3.1,14.3
					c1,4.6,2.1,8.5,3.3,11.6c-0.2-9.9-0.6-15.9-1.4-18c-0.2-0.7-0.8-3.9-1.9-9.8c-0.9-5.4-1.7-9-2.5-10.8
					C106.2,288.6,105.6,285.7,105.2,281.5z"/>
			</g>
		</g>
	</g>
	<g transform="matrix( 1, 0, 0, 1, 0,0) ">
		<g>
			<g id="Layer0_4_MEMBER_7_FILL">
				<path class="st8" d="M108.1,261.6l-2.7-5.9l1.1,4.2c0.7,3.3,1.2,6.4,1.4,9.4c0.2,2.4,0.2,5.2,0,8.4c-0.2,2.7-0.2,4.7,0,5.9
					c0.3,2.6,1.7,6,4.2,10c-2.4-6.4-3.3-11.2-2.8-14.5c0.3-2.3,0.9-4.1,1.9-5.4c0.8-1.2,1.8-1.8,2.8-1.9c1.2-0.1,2.3,0.4,3.3,1.5
					c1.2,1.2,1.9,2.7,1.9,4.5c0,2.5,0.1,4.2,0.4,5.2c0.6-5.6,0.4-9.3-0.6-11c-0.7-1-1.7-1.8-3.2-2.5c-1.6-0.6-2.7-1-3.3-1.4
					C111.5,267.7,110.1,265.5,108.1,261.6z"/>
			</g>
		</g>
	</g>
	<g transform="matrix( 1, 0, 0, 1, 0,0) ">
		<g>
			<g id="Layer0_4_MEMBER_8_FILL">
				<path class="st11" d="M110.3,252.7c-1.6-3.5-2.7-4.2-3.3-2.2c-0.2,0.7,0.4,2.1,1.7,4.3c1.6,2.9,2.6,4.6,2.7,5.1
					c0.3,0.9,0.6,1.8,0.9,2.7c0.2,0.3,0.2-0.2,0.2-1.7C112.5,258.8,111.8,256,110.3,252.7z"/>
			</g>
		</g>
	</g>
	<g transform="matrix( 1, 0, 0, 1, 0,0) ">
		<g>
			<g id="Layer0_4_MEMBER_9_FILL">
				<path class="st12" d="M114.9,247.5c-0.5-1-0.9-1.2-1.2-0.6c-0.4,0.5-0.5,1.2-0.4,2.2c0.1,0.9,0.5,2.4,1.4,4.6
					c0.8,2.2,1.2,2.7,1,1.5L114.9,247.5z"/>
			</g>
		</g>
	</g>
	<g transform="matrix( 1, 0, 0, 1, 0,0) ">
		<g>
			<g id="Layer0_4_MEMBER_10_FILL">
				<path class="st8" d="M118.3,284.1c-0.9-6.1-2.1-8.6-3.6-7.4c-2.7,2.1-3.4,5.5-2,10c0.8,2.9,1.8,5.1,2.8,6.6c1,1.6,1.9,2,2.7,1.2
					C119.2,293.5,119.2,290.1,118.3,284.1z"/>
			</g>
		</g>
	</g>
	<g transform="matrix( 1, 0, 0, 1, 0,0) ">
		<g>
			<g id="Layer0_4_MEMBER_11_FILL">
				<path class="st8" d="M121.3,324.2c0.1,1.9,1,7.1,2.7,15.6c1.7,8.5,2.7,14.1,2.8,16.9c0.3,5.4,1.7,14,4.1,25.7l4.8-0.9l2.1-0.7
					c-2.6-2.9-4.5-6.2-5.4-10c-0.7-3-1.9-8.6-3.6-16.7c-1.7-8.2-2.7-13.3-2.8-15.1c0-3,0-5.4-0.1-7.2c-0.1-3.5-0.5-6.5-1.4-8.8
					c-4-10.3-6.4-16.5-7-18.5l1.7,7.5C120.4,317.6,121.1,321.7,121.3,324.2z"/>
			</g>
		</g>
	</g>
	<g transform="matrix( 1, 0, 0, 1, 0,0) ">
		<g>
			<g id="Layer0_4_MEMBER_12_FILL">
				<path class="st8" d="M122.1,343.3l-1.9-7.7c-0.7-3.4-1.5-6.2-2.5-8.5c-0.9-2.3-1.3-2.8-1.2-1.6c0,0.1,0.3,1.9,1,5.3
					c0.5,3.2,0.8,6.1,0.9,8.5c0.1,3,0.9,6.7,2.6,11.1c1.6,4.5,2.4,5.6,2.6,3.5C123.8,352.2,123.3,348.6,122.1,343.3z"/>
			</g>
		</g>
	</g>
	<g transform="matrix( 1, 0, 0, 1, 0,0) ">
		<g>
			<g id="Layer0_4_MEMBER_13_FILL">
				<path class="st7" d="M132.2,327.7l-1.4-4.3l-0.1,5.9c0,4.3,0.3,7.2,0.9,8.8c0.7,1.9,1.3,2.3,2,1.2s0.8-2.6,0.4-4.5
					C133.6,333.3,133.1,330.9,132.2,327.7z"/>
			</g>
		</g>
	</g>
	<g transform="matrix( 1, 0, 0, 1, 0,0) ">
		<g>
			<g id="Layer0_4_MEMBER_14_FILL">
				<path class="st7" d="M125.2,298c-1.2-2.9-2.1-3.9-2.7-3.1c-0.6,0.6-0.7,2.1-0.4,4.7c0.3,2.6,0.8,4.5,1.5,5.7
					c0.8,1.5,1.6,2.4,2.3,2.7c0.8,0.2,1.2-0.6,1.1-2.5C126.8,303.2,126.2,300.7,125.2,298z"/>
			</g>
		</g>
	</g>
	<g transform="matrix( 1, 0, 0, 1, 0,0) ">
		<g>
			<g id="Layer0_4_MEMBER_15_FILL">
				<path class="st7" d="M136.9,347.9l3,16.6c0.3,2.3,1,4.7,2,7c0.9,2.2,1.6,3.5,2.1,3.7c0.6,0.3,0.9-0.1,1-1.4
					c-2-6-3.5-10.5-4.7-13.5c-0.7-1.8-1.5-4.5-2.3-7.9L136.9,347.9z"/>
			</g>
		</g>
	</g>
	<g transform="matrix( 1, 0, 0, 1, 0,0) ">
		<g>
			<g id="Layer0_4_MEMBER_16_FILL">
				<path class="st6" d="M122.8,387.5v4.3l2.2,4c1.9,2.8,4.1,4.9,6.7,6.2l6.1,3.1c-4.2-3-7-5.6-8.5-7.7c-1-1.2-2.3-3.3-4.1-6.1
					L122.8,387.5z"/>
			</g>
		</g>
	</g>
	<g transform="matrix( 1, 0, 0, 1, 0,0) ">
		<g>
			<g id="Layer0_5_MEMBER_0_FILL">
				<path class="st13" d="M162.9,144l-2.7-0.5c-1.5,1-3.1,2.5-4.9,4.6c-3.5,4-5.9,8.6-7.2,13.6l3.6,20.6
					c3.5,14.7,8.2,24.3,14.1,28.9c7.1,5.5,12.7,3.7,16.7-5.3c4-9.1,4.4-20.7,1.1-34.6c-2.8-11.6-7.5-19.7-14.2-24.4
					C167.3,145.6,165.2,144.6,162.9,144z"/>
			</g>
		</g>
	</g>
	<g transform="matrix( 1, 0, 0, 1, 0,0) ">
		<g>
			<g id="Layer0_5_MEMBER_1_FILL">
				<path class="st5" d="M97.3,178.1c-8.6,2.2-18.8,3.3-30.8,3.1c-7.4-0.1-17.6-1.5-30.7-4.3c-1.6,0.1-3.5,0.6-5.7,1.5
					c-4.3,1.8-7.6,4.9-10,9.1c-3.6,6.4-4.2,12.6-1.6,18.5c1.2,3,2.8,5.3,4.8,6.9c3.2-1,7.2-1.6,11.9-2c9.4-0.6,17.9,0.9,25.5,4.3
					c7.7,3.5,12.2,9.3,13.7,17.3c0.7,4,0.7,7.7-0.1,11l3.2,2.5c3.8,1.5,9.7,1.8,17.7,0.9c8.6-1,15.1-3.1,19.5-6.4l4.1-4.7
					c-2.3-2-3.7-4.8-4.1-8.4c-0.7-5.9-0.5-9.8,0.6-11.7c0.8-1.4,3.7-3.4,8.5-6.1c2.8-1.6,9.7-2.1,20.6-1.7c5.5,0.2,10.8,0.5,15.7,1
					c-1.7-1.5-3.6-3.6-5.7-6.4c-4.1-5.4-7-11.2-8.8-17.2c-2.6-8.6-2.3-16.6,0.7-24.2l5.3-8.8c-0.7,0-2.4,0.5-4.9,1.6
					c-5,2.1-11.9,5.9-20.6,11.1C115.8,171.4,106.1,175.7,97.3,178.1z"/>
			</g>
		</g>
	</g>
	<g transform="matrix( 1, 0, 0, 1, 0,0) ">
		<g>
			<g id="Layer0_5_MEMBER_2_MEMBER_0_FILL">
				<path class="st8" d="M146.4,161.3l-4.3-3.7c-0.5,0.3-1.6,4.9-3.5,13.7c-1.7,8.2-3,15.4-4,21.4c-0.8,5.4-6.1,9.3-15.7,11.9
					c-9.4,1.5-14,2.3-13.8,2.5c0.1,0.1,1.4,2.8,3.8,8.3c2,7.3,2,15.8,0,25.3c-0.1,0.4,0.6,0.6,2,0.6c1.4,0,2.1,0.2,2,0.5
					c2-1.2,3.6-2.6,4.8-4.1l1.1-1.9c-2.3-2-3.7-4.8-4.1-8.4c-0.7-5.9-0.5-9.8,0.6-11.7c0.8-1.4,3.7-3.4,8.5-6.1
					c2.8-1.6,9.7-2.1,20.6-1.7c5.5,0.2,10.8,0.5,15.7,1c-1.7-1.5-3.6-3.6-5.7-6.4c-4.1-5.4-7-11.2-8.8-17.2
					C143.3,176.7,143.5,168.7,146.4,161.3z"/>
			</g>
		</g>
	</g>
	<g transform="matrix( 1, 0, 0, 1, 0,0) ">
		<g>
			<g id="Layer0_5_MEMBER_2_MEMBER_1_FILL">
				<path class="st8" d="M25.4,210.9c3.2-1,7.2-1.6,11.9-2c9.5-0.6,18,0.9,25.6,4.5c7.6,3.5,12.1,9.3,13.6,17.3
					c0.7,4,0.7,7.7-0.1,11l2.1,2c2.3,1.2,5.9,1.9,10.8,1.9c-0.1-0.2-0.9-0.6-2.5-1.4c-1.5-0.8-2.3-1.3-2.3-1.5
					c-1.1-18.7-8.4-30-21.9-33.7c-3-0.8-10.3-1.9-22-3.2c-10.2-1.2-17.2-2.7-20.9-4.5C20.6,205.4,22.6,208.6,25.4,210.9z"/>
			</g>
		</g>
	</g>
	<g transform="matrix( 1, 0, 0, 1, 0,0) ">
		<g>
			<g id="Layer0_5_MEMBER_3_FILL">
				<path class="st5" d="M156.5,152.3l3.7-8.8c-3.4,0.7-6.6,1.8-9.5,3.5c-2.6,1.5-5.4,3.3-8.2,5.6l-2.8,7.8
					c-1.7,6.8-2.3,14.1-1.7,22.1c0.7,8,3.2,15.3,7.7,21.9c2.3,3.3,4.5,5.8,6.6,7.4l3.5,0.9c2.6,0.7,5,1.1,7.2,1.2
					c3.4,0.3,6.6,0.5,9.6,0.5c-2.3-1.2-4.7-3.6-7.3-7c-5.2-6.8-8.5-15.8-10-26.8C153.8,169.7,154.3,160.3,156.5,152.3z"/>
			</g>
		</g>
	</g>
	<g transform="matrix( 1, 0, 0, 1, 0,0) ">
		<g>
			<g id="Layer0_5_MEMBER_4_FILL">
				
					<linearGradient id="SVGID_1_" gradientUnits="userSpaceOnUse" x1="161.8222" y1="347.7204" x2="180.7355" y2="299.1392" gradientTransform="matrix(1 0 0 -1 0 502)">
					<stop  offset="0" style="stop-color:#402507"/>
					<stop  offset="1" style="stop-color:#8F5B1E"/>
				</linearGradient>
				<path class="st14" d="M177.3,163.7c-3.4-8-6.9-11.5-10.6-10.4c-5.7,1.6-7.4,10-5.2,25c2.3,15,6.5,23.5,12.6,25.6
					c7.1,2.3,9.8-4.7,8.2-20.9C181.6,176.5,179.9,170.1,177.3,163.7z"/>
			</g>
		</g>
	</g>
	<g transform="matrix( 1, 0, 0, 1, 0,0) ">
		<g>
			<g id="Layer0_5_MEMBER_5_FILL">
				
					<linearGradient id="SVGID_2_" gradientUnits="userSpaceOnUse" x1="161.2703" y1="343.4059" x2="220.977" y2="343.4059" gradientTransform="matrix(1 0 0 -1 0 502)">
					<stop  offset="0" style="stop-color:#33210D"/>
					<stop  offset="1" style="stop-color:#8C602E"/>
				</linearGradient>
				<path class="st15" d="M218.4,166l2.5-23.7c-1,1.6-2.6,3.5-4.9,5.7c-4.6,4.5-10.3,8.6-17.1,12.2c-6.8,3.5-14.9,6.3-24.4,8.3
					l-12.2,1.9c-0.7,0.3-1.1,1.2-1.1,2.6c0.1,0.7,0.2,1.3,0.4,2l16.4-1.6C184.7,172.6,198.2,170.1,218.4,166z"/>
			</g>
		</g>
	</g>
	<g transform="matrix( 1, 0, 0, 1, 0,0) ">
		<g>
			<g id="Layer0_5_MEMBER_6_FILL">
				
					<linearGradient id="SVGID_3_" gradientUnits="userSpaceOnUse" x1="162.9391" y1="312.5718" x2="234.1421" y2="312.5718" gradientTransform="matrix(1 0 0 -1 0 502)">
					<stop  offset="0" style="stop-color:#33210D"/>
					<stop  offset="1" style="stop-color:#8C602E"/>
				</linearGradient>
				<path class="st16" d="M216,194.9c3.5,2.6,6.2,5.2,8.3,7.8l9.9-20c-1.3-1.3-3.4-2.6-6.3-3.8c-5.8-2.4-12.5-3.2-20.3-2.5
					c-7.7,0.7-17.5,2-29.2,3.7l-15.1,2.3c-0.8,0.8-0.6,2.7,0.7,5.6l9.3-1.4c7.7-0.8,15-0.9,21.9-0.4
					C202.1,186.8,209,189.7,216,194.9z"/>
			</g>
		</g>
	</g>
	<g transform="matrix( 1, 0, 0, 1, 0,0) ">
		<g>
			<g id="Layer0_5_MEMBER_7_FILL">
				<path class="st8" d="M37.7,200c-8.9,0.7-15.1,0.8-18.5,0.1l3.6,1.5c3.5,0.9,8.3,1.2,14.3,0.9c16.1-1,26.3-0.8,30.8,0.5
					c3.2,0.8,7.1,4.2,11.7,10c0.2-1.8-0.3-3.7-1.6-5.7c-2.7-4-8-6.4-15.9-7.4C55.5,199.1,47.4,199.2,37.7,200z"/>
			</g>
		</g>
	</g>
	<g transform="matrix( 1, 0, 0, 1, 0,0) ">
		<g>
			<g id="Layer0_5_MEMBER_8_FILL">
				<path class="st8" d="M23.1,194.9l-1.7-0.6l2.3,1.9c2.4,1.2,5.8,1.4,10.3,0.7c5.1-0.7,10.1-1.3,14.8-1.6c4.5-0.2,7.9-0.2,10.3,0
					l4.6,0.5c-8.3-1.3-14.3-2-18-2c-1.7,0-4.7,0.4-8.9,1.2c-3.8,0.7-6.6,0.9-8.3,0.7C26.5,195.6,24.7,195.3,23.1,194.9z"/>
			</g>
		</g>
	</g>
	<g transform="matrix( 1, 0, 0, 1, 0,0) ">
		<g>
			<g id="Layer0_5_MEMBER_9_FILL">
				<path class="st8" d="M37,188.8c-2-0.6-4.3-1-7-1.2c-2-0.2-3.6,0.5-4.9,1.9c-1.3,1.5-0.7,2.4,1.7,2.7c2.1,0.3,4.3,0.1,6.7-0.7
					c2.8-1.1,4.4-1.6,4.7-1.6C39.4,189.7,39,189.3,37,188.8z"/>
			</g>
		</g>
	</g>
	<g transform="matrix( 1, 0, 0, 1, 0,0) ">
		<g>
			<g id="Layer0_5_MEMBER_10_FILL">
				<path class="st8" d="M39.2,183.6c-3.2-0.1-5.4-0.2-6.7-0.4l5.7,1.1c4.2,1.1,7.3,2.3,9.3,3.7c3.5,2.4,8.5,3.6,15.1,3.6
					c-0.7-0.1-2.1-0.4-4.1-0.9c-4.4-0.9-7.9-2.2-10.5-4C45.3,185,42.3,183.9,39.2,183.6z"/>
			</g>
		</g>
	</g>
	<g transform="matrix( 1, 0, 0, 1, 0,0) ">
		<g>
			<g id="Layer0_5_MEMBER_11_FILL">
				<path class="st8" d="M85.4,225l-3.1-5.8l1.9,4.7c1.3,3.7,2.2,6.9,2.7,9.6l1.2,6.6l-0.9,2.3c-0.3,1.6,0.1,2.3,1.4,2.2
					c3-0.2,3.5-3.4,1.2-9.5C89.1,232.6,87.6,229.3,85.4,225z"/>
			</g>
		</g>
	</g>
	<g transform="matrix( 1, 0, 0, 1, 0,0) ">
		<g>
			<g id="Layer0_5_MEMBER_12_FILL">
				<path class="st8" d="M100,201.9c-1.3,1.7-1.5,3.9-0.5,6.6c0.5,1.4,1.1,2.6,1.9,3.6c-1.2-4-1.2-6.7,0.2-8
					c0.9-0.9,2.9-1.8,5.9-2.6c1.3-0.3,5-1.1,11-2.2c3.6-0.7,6.7-2.6,9.3-5.4l2.6-4.2c-1.9,2.6-5.4,4.9-10.6,7
					c-2.3,1-6.2,1.8-11.6,2.5C104,199.5,101.3,200.5,100,201.9z"/>
			</g>
		</g>
	</g>
	<g transform="matrix( 1, 0, 0, 1, 0,0) ">
		<g>
			<g id="Layer0_5_MEMBER_13_FILL">
				<path class="st8" d="M129.7,185.4c-2.5,0.3-5.2,1.5-8,3.6c-2.9,2.1-3.3,3.1-1.1,3.1c1.8,0,3.9-1.1,6.2-3.3L129.7,185.4z"/>
			</g>
		</g>
	</g>
	<g transform="matrix( 1, 0, 0, 1, 0,0) ">
		<g>
			<g id="Layer0_5_MEMBER_14_FILL">
				<path class="st7" d="M92.1,182.3l-3,0.4c9.1-0.5,18.3-2.1,27.6-4.8c6.2-1.8,10.9-4.4,14.2-7.7c3.4-3.4,3.6-4.6,0.7-3.7
					c-2.7,3-6.2,5.5-10.4,7.3c-4.9,2.2-12.7,4.7-23.2,7.4C96.5,181.6,94.5,182,92.1,182.3z"/>
			</g>
		</g>
	</g>
	<g transform="matrix( 1, 0, 0, 1, 0,0) ">
		<g>
			<g id="Layer0_5_MEMBER_15_FILL">
				<path class="st7" d="M61.1,186.3c3.1,0.9,9.1,1.3,17.9,1.2c9.1-0.1,16.2-0.7,21.3-1.9c6.9-1.6,15.9-4.2,26.9-7.8l-26,5.7
					c-5.8,1.3-15.3,2-28.6,2C63,185.5,59.1,185.8,61.1,186.3z"/>
			</g>
		</g>
	</g>
	<g transform="matrix( 1, 0, 0, 1, 0,0) ">
		<g>
			<g id="Layer0_5_MEMBER_16_FILL">
				<path class="st7" d="M79.7,192.2c1.7-1.3,1-2.1-2.1-2.2c-2.7-0.1-4.7,0.4-5.8,1.5c-1.2,1.2-0.7,1.9,1.7,2.2
					C76,194.1,78.1,193.6,79.7,192.2z"/>
			</g>
		</g>
	</g>
	<g transform="matrix( 1, 0, 0, 1, 0,0) ">
		<g>
			<g id="Layer0_5_MEMBER_17_FILL">
				<path class="st7" d="M54.7,183.6l-5.3-1.6c-2.1-1-5.5-1.8-10.1-2.5l-6.4-0.6l5.1,1.2c3.8,1,6.6,1.8,8.4,2.5
					C49.2,183.7,52,184.1,54.7,183.6z"/>
			</g>
		</g>
	</g>
	<g transform="matrix( 1, 0, 0, 1, 0,0) ">
		<g>
			<g id="Layer0_5_MEMBER_18_FILL">
				<path class="st7" d="M98.5,216.8c1.2,3.3,2,6.1,2.2,8.4c0.6,4,1.4,6.8,2.6,8.3c-0.5-9.1-1.4-14.9-2.6-17.4
					c-0.9-2-1.9-3.6-2.8-4.9c-1-1.2-1.4-1.3-1.4-0.1C96.6,211.7,97.3,213.6,98.5,216.8z"/>
			</g>
		</g>
	</g>
	<g transform="matrix( 1, 0, 0, 1, 0,0) ">
		<g>
			<g id="Layer0_5_MEMBER_19_FILL">
				<path class="st7" d="M105.3,217.2l-1.2-1.1l1.2,12.1v2.8c1.4-2.2,1.9-5.1,1.6-8.7C106.7,220.2,106.2,218.4,105.3,217.2z"/>
			</g>
		</g>
	</g>
	<g transform="matrix( 1, 0, 0, 1, 0,0) ">
		<g>
			<g id="Layer0_5_MEMBER_20_FILL">
				<path class="st7" d="M155.4,148.3c-5.3,1.7-9.3,3.9-12.1,6.4l-0.9,3c-0.7,2.1-1,3.5-1,4.5v2.2c1.2-4.6,3-7.7,5.3-9.4
					C149.1,153.3,152,151.1,155.4,148.3z"/>
			</g>
		</g>
	</g>
	<g transform="matrix( 1, 0, 0, 1, 0,0) ">
		<g>
			<g id="Layer0_5_MEMBER_21_FILL">
				<path class="st8" d="M147.7,202.4l-2.8-3.2l3.5,4.9c2.4,3.4,4,5.4,4.8,6.1c1.4,1.1,5.1,1.7,11,2l2.6,0.1c-3.1-3.5-5-5.8-5.6-6.7
					l-0.7-1.4l-0.5,2.3c-0.7,1.3-2.4,1.5-4.9,0.6C152.5,206.3,150,204.7,147.7,202.4z"/>
			</g>
		</g>
	</g>
	<g transform="matrix( 1, 0, 0, 1, 0,0) ">
		<g>
			<g id="Layer0_6_MEMBER_0_FILL">
				<path class="st9" d="M93.5,237.6c-7.6,0.7-13.1,0.5-16.4-0.4l-2.7-1.6c-2.3,11-1,19.1,4,24.5c2.5,2.7,5.2,4.3,8.2,4.8l1.5,0.7
					c1.9,0.5,5.3,0.7,10.1,0.7c4.9,0,9.8-1.1,15-3.2c2.6-1.2,4.7-2.3,6.3-3.3c1-0.7,1.9-1.9,2.8-3.6c1.8-3.4,2.4-7.6,1.7-12.6
					c-0.4-3.2-1.9-6.6-4.5-10l-3.7-4.1l-4.3,3.5C107,235.5,101,237,93.5,237.6z"/>
			</g>
		</g>
	</g>
	<g transform="matrix( 1, 0, 0, 1, 0,0) ">
		<g>
			<g id="Layer0_6_MEMBER_1_FILL">
				<path class="st6" d="M76,236.8l-1.7-1.2c-2.3,11-1,19.1,4,24.5c2.5,2.7,5.2,4.3,8.2,4.8l1.5,0.7c1.9,0.5,5.3,0.7,10.1,0.7
					c6.4,0,12.9-1.8,19.4-5.4c-11.5,4.5-20.3,3.3-26.5-3.6c-5-5.5-6.8-12-5.3-19.4C81.2,238,78,237.6,76,236.8z"/>
			</g>
		</g>
	</g>
	<g transform="matrix( 1, 0, 0, 1, 0,0) ">
		<g>
			<g id="Layer0_6_MEMBER_2_FILL">
				<path class="st6" d="M112.5,261.6c-3-0.5-5.9-1.7-8.9-3.7c-3-2-5.6-4-8-5.9l-2.7-2.2l2,4.7c2.1,3.3,5.2,5.4,9.4,6.4
					c6.8,1.6,10.7,1.9,11.9,1C115.2,262,114,261.9,112.5,261.6z"/>
			</g>
		</g>
	</g>
	<g transform="matrix( 1, 0, 0, 1, 0,0) ">
		<g>
			<g id="Layer0_6_MEMBER_3_FILL">
				<path class="st7" d="M117.1,234.2c-0.7,2.5-1.6,3.7-3,3.7l2,2c1.3,1.9,2.1,4.2,2.3,7l0.6,6.8c1.4-4.3,1.9-8.2,1.4-11.9
					c-0.2-2.2-0.9-4.2-1.9-5.8L117.1,234.2z"/>
			</g>
		</g>
	</g>
	<g transform="matrix( 1, 0, 0, 1, 0,0) ">
		<g>
			<g id="Layer0_7_MEMBER_0_FILL">
				<path class="st4" d="M81.4,400.6c-1.1,0-2.2,0.2-3.5,0.5c-2.6,0.7-4.4,1.8-5.4,3.3c-1.2,1.7-1.7,3.4-1.4,4.9
					c0.2,1.3,0.9,2.2,2.1,2.6c1.4,0.4,9.6,1.6,24.7,3.7l9.5-1.7c-1.1-3-1.4-5.8-1-8.4c0.3-1.7,0.9-3.4,1.7-4.9l1.1-2l-2,1.5
					c-1.5,1.2-2.6,2.2-3.2,3.1l-1.5,2.1c0.1-1.4,0-3-0.2-4.7c-0.6-3.5-1.8-6.1-3.7-7.8l-4.5-4l2.3,5.3c1.3,4.2,1.4,7.7,0.2,10.5
					c-1.1,2.8-2.6,4.9-4.6,6.3c-1,0.7-1.9,1.1-2.6,1.2c1.9-5,2.2-8.8,1-11.2c-0.7-1.6-1.6-2.8-2.6-3.6l-1.1-0.9l1.6,4.7
					c0.2,3.5-1.6,6.1-5.7,7.8c-4,1.7-6.3,2.5-6.9,2.2l0.4-1c-0.2-3.5,0.5-5.9,2.3-7.4L81.4,400.6z"/>
			</g>
		</g>
	</g>
	<g transform="matrix( 1, 0, 0, 1, 0,0) ">
		<g>
			<g id="Layer0_8_MEMBER_0_FILL">
				<path class="st5" d="M239.1,348l-7.2,7c-5.3,6-9.1,12.2-11.4,18.4c-2.4,6.6-3.8,13.4-4.2,20.4c-0.2,3.5-0.1,6.4,0.1,8.5l1.6,1.9
					c1.5,1.2,3.4,1.7,5.8,1.4c3.8-0.4,6.1-1,6.8-1.7c-2.2-11.2-3.3-19.2-3.3-24.1c0-3,0.3-5.6,0.9-7.8l0.9-2.2
					c2.9,0.3,5.9-0.5,9-2.3c3-1.7,4.8-4.9,5.6-9.5c-1.4,2.7-3.4,4.6-6.1,5.7c-2.1,0.7-3.8,1.1-5.2,1.1l-1.5-0.2
					c1.2-3.8,2.9-7.5,4.9-11.1L239.1,348z"/>
			</g>
		</g>
	</g>
	<g transform="matrix( 1, 0, 0, 1, 0,0) ">
		<g>
			<g id="Layer0_8_MEMBER_1_MEMBER_0_FILL">
				<path class="st8" d="M223.9,405.6c0.9,0,1.7-0.1,2.5-0.4c-2.3-0.4-4-1.8-5.1-4.1c-1.2-2.6-1.8-7-1.9-13.1
					c-0.1-7.1,1.9-15.2,6.1-24.5c-2.1,3.2-3.7,6.5-4.9,9.9c-2.4,6.6-3.8,13.4-4.2,20.4c-0.2,3.5-0.1,6.4,0.1,8.5l1.6,1.9
					C219.6,405.5,221.5,405.9,223.9,405.6z"/>
			</g>
		</g>
	</g>
	<g transform="matrix( 1, 0, 0, 1, 0,0) ">
		<g>
			<g id="Layer0_8_MEMBER_1_MEMBER_1_FILL">
				<path class="st8" d="M234.6,367.4l-5.1,0.7l-0.2,1.6c2.6,0.3,5.5-0.5,8.8-2.3c1.9-1.1,3.4-3,4.6-5.9
					C241,364.3,238.3,366.2,234.6,367.4z"/>
			</g>
		</g>
	</g>
	<g transform="matrix( 1, 0, 0, 1, 0,0) ">
		<g>
			<g id="Layer0_9_MEMBER_0_FILL">
				<path class="st5" d="M194.7,323c2.6-4.2,3.2-6.3,1.6-6.3c-1.2,0-2.9,1-4.9,3c-2.2,2.1-4.5,5.1-6.7,8.8c-1.1-0.4-1.9-1.1-2.6-2
					c-1.1-1.6-1.2-3.3-0.5-5.2c0.7-1.4,0.8-2.1,0.4-2.2c-0.5-0.2-1.2,0.4-2.1,1.6c-1.1,1.4-1.6,2.8-1.6,4.2c0,1.6,1.6,3.8,4.7,6.7
					c-3.9,7.2-7,15.6-9.3,25.2l-1.2,6.7c-4.1,0-6.7-1.6-7.7-4.8c-0.7-2.3-0.3-5.4,1.2-9.4c1.6-3.9,2.2-6.1,2-6.8
					c-0.8-2.1-2.6-0.9-5.4,3.6c-1.4,2.4-2.4,5.6-3.1,9.6c-0.7,4.9-0.2,8.4,1.6,10.6c2.1,2.5,5.5,4.3,10.3,5.4
					c-1.3,11.9-1.5,23.4-0.6,34.4l0.9,1.7c1.2,1.2,3.6,2,7,2.3c3.5,0.3,6.1-0.4,8-2.1l1.9-2.7c-0.3-1.3-1.8-5.4-4.3-12.2
					c-1.3-3.5-2.1-9-2.3-16.7c-0.2-7.2,0-14.4,0.7-21.6c4.9,1,8.1-0.2,9.5-3.7c1.2-2.9,1.4-6.1,0.6-9.8c-0.7-3.5-1.2-4.9-1.7-4.2
					c-0.2,0.2-0.1,1.5,0.1,4.1c0.2,2.7,0,4.7-0.5,5.8c-0.7,1.7-3,1.9-6.9,0.4c0.6-3.2,1.2-5.5,1.7-6.9
					C187.3,335.7,190.3,329.9,194.7,323z"/>
			</g>
		</g>
	</g>
	<g transform="matrix( 1, 0, 0, 1, 0,0) ">
		<g>
			<g id="Layer0_9_MEMBER_1_MEMBER_0_FILL">
				<path class="st8" d="M159.5,355.6c-0.7,4.9-0.2,8.4,1.6,10.6c2.1,2.5,5.5,4.3,10.3,5.4c-1.3,11.9-1.5,23.4-0.6,34.4l0.9,1.7
					c1.2,1.2,3.6,2,7,2.3c1.9,0.2,3.5,0,4.7-0.4c-1.5,0-3-0.2-4.7-0.5c-3.4-0.7-5.2-5.4-5.6-14.3c-0.2-5.4,0-11.6,0.9-18.4
					c0.3-3,0.4-5.3,0.1-6.9l-0.5-1.7c-1.6,0.2-3.4,0.2-5.2-0.2c-3.6-0.7-5.9-2.6-6.9-5.6c-0.9-2.7-0.8-6.3,0.4-10.8
					c0.9-3.8,2.1-6.8,3.6-9.1c-0.8,0.8-1.8,2.1-2.8,3.8C161.2,348.4,160.1,351.6,159.5,355.6z"/>
			</g>
		</g>
	</g>
	<g transform="matrix( 1, 0, 0, 1, 0,0) ">
		<g>
			<g id="Layer0_9_MEMBER_1_MEMBER_1_FILL">
				<path class="st8" d="M180,320.7c-1.2,1.3-1.7,2.7-1.7,4.2c0,1.6,1.6,3.8,4.7,6.7c-3.9,7.2-7,15.6-9.3,25.2l-1.2,6.6
					c1.2,0,2.4-0.2,3.7-0.6c0.2-2.8,0.9-7.3,2.3-13.4c0.8-3.8,2.3-8,4.3-12.7l2.7-5.9c-2.4-1.2-4.2-2.7-5.4-4.3
					C179.1,324.9,179.1,323,180,320.7z"/>
			</g>
		</g>
	</g>
	<g transform="matrix( 1, 0, 0, 1, 0,0) ">
		<g>
			<g id="Layer0_9_MEMBER_2_FILL">
				<path class="st8" d="M186.4,352.7l-3.6-1.1l0.1,3.3c4.8,0.8,7.8-0.5,9.1-3.8c0.4-1,0.7-1.9,0.7-2.8
					C191.3,351.4,189.1,352.8,186.4,352.7z"/>
			</g>
		</g>
	</g>
	<g transform="matrix( 1, 0, 0, 1, 0,0) ">
		<g>
			<g id="Layer0_9_MEMBER_3_FILL">
				<path class="st7" d="M196.4,319.4c0.6-1.4,0.3-1.8-0.7-1.1c-0.7,0.4-2.4,2.9-5.2,7.4c-3.1,5-5.2,9-6.3,11.9
					c-1.6,4.4-2.3,6.9-2.3,7.5c1.4-3.1,2.9-6.3,4.6-9.6c3.3-6.8,5.6-10.7,6.9-11.9C194.9,322.2,195.9,320.8,196.4,319.4z"/>
			</g>
		</g>
	</g>
	<g transform="matrix( 1, 0, 0, 1, 0,0) ">
		<g>
			<g id="Layer0_9_MEMBER_4_FILL">
				<path class="st7" d="M180,358l0.1,5.2c-0.1,4-0.5,7.1-1.1,9.5c-1,3.5-0.9,11.2,0.1,23.4c0.2,2.8,0.8,5.3,1.7,7.4
					c-0.7-8-1-14.1-1-18.3C180.5,368.9,180.6,359.8,180,358z"/>
			</g>
		</g>
	</g>
	<g transform="matrix( 1, 0, 0, 1, 0,0) ">
		<g>
			<g id="Layer0_9_MEMBER_5_FILL">
				<path class="st7" d="M184,401.3c0.4-1,0.3-2.4-0.2-4.3c-0.4-1.3-0.8-1.4-1.1-0.2c-0.4,1.1-0.4,2.3,0.1,3.8
					C183.2,402.1,183.6,402.3,184,401.3z"/>
			</g>
		</g>
	</g>
	<g transform="matrix( 1, 0, 0, 1, 0,0) ">
		<g>
			<g id="Layer0_10_MEMBER_0_FILL">
				<path class="st4" d="M356.2,95.7l-13.7-14.1l-123.6-2.5l-38,32.9l31.2,12.5l32.5-3.8l-26.1,105.8l-31.4,87l35.8-5.2l44.9-41
					l37.5,21.3l5.8,6.9l28.7,0.6L308.6,112L356.2,95.7z"/>
			</g>
		</g>
	</g>
	<g transform="matrix( 1, 0, 0, 1, 0,0) ">
		<g>
			<g id="Layer0_10_MEMBER_1_FILL">
				<path class="st3" d="M305.3,93.1c9-2.6,21.3-6.5,37.1-11.5c-6.5-7.2-14.1-14.4-22.7-21.8c-5.4-4.5-16.9-15.2-34.5-32L260.5,4
					c-4.5,4.8-12.8,15.5-24.8,32.3L180.9,112l46-6.7L187,313.5l55.9-56.1l68.1,38.1c-1.2-7.7-2.7-17.1-4.7-28.2
					c-1.3-6.9-5.4-36.9-12.2-89.9c-3.4-26.5-6.7-52.2-9.9-77.3l6.4-2.2C295.8,96.1,300.7,94.5,305.3,93.1z"/>
			</g>
		</g>
	</g>
	<g transform="matrix( 1, 0, 0, 1, 0,0) ">
		<g>
			<g id="Layer0_11_MEMBER_0_FILL">
				<path class="st17" d="M215.5,73.9c3.7-6.1,7.4-12,11-17.8l-35.1,47.6l25.6-2.8l3.1-0.1c-2.6-0.3-5.3-0.8-7.9-1.5
					c-5.3-1.3-7.9-2.8-7.8-4.6C204.4,93,208.1,86,215.5,73.9z"/>
			</g>
		</g>
	</g>
	<g transform="matrix( 1, 0, 0, 1, 0,0) ">
		<g>
			<g id="Layer0_11_MEMBER_1_FILL">
				<path class="st17" d="M202.6,257.1l-8.7,42.2c12.2-13,19.4-20.8,21.6-23.4l3.3-3.7c-9.4,6.8-14.2,8.9-14.3,6.6L202.6,257.1z"/>
			</g>
		</g>
	</g>
	<g transform="matrix( 1, 0, 0, 1, 0,0) ">
		<g>
			<g id="Layer0_11_MEMBER_2_FILL">
				<path class="st17" d="M286.6,268.2c-11.2-3.5-21.6-7.8-31.3-12.9l12.5,8c9.1,5.7,15.5,9.6,19.3,11.6c5.9,3.3,11.4,6.8,16.4,10.5
					l-3-13.5C296.8,271.3,292.2,270.1,286.6,268.2z"/>
			</g>
		</g>
	</g>
	<g transform="matrix( 1, 0, 0, 1, 0,0) ">
		<g>
			<g id="Layer0_11_MEMBER_3_FILL">
				<path class="st4" d="M313.6,83.4l15.8-6.7C309.6,58.9,297,48.6,291.7,46l8.2,7.7c6.1,5.9,10.7,10.8,13.7,14.6
					c3,3.8,3.9,7.5,2.7,11C315.8,81,314.9,82.4,313.6,83.4z"/>
			</g>
		</g>
	</g>
	<g transform="matrix( 1, 0, 0, 1, 0,0) ">
		<g>
			<g id="Layer0_12_MEMBER_0_FILL">
				<path class="st18" d="M274.2,26.3c-2.6-3-4.6-4.7-5.8-5.3c-1.4-0.6-2.4,0.1-3.1,2c-0.5,1.6,0.2,3.8,2.1,6.4
					c0.9,1.3,1.9,2.5,3,3.5c-2.6,1.6-5.3,3.4-8,5.3c-5.3,3.7-7.8,6.1-7.7,7.3c0.2,1.6,1.1,2.8,2.8,3.3c2,0.7,4.1-0.2,6.4-2.5
					c3.4-3.5,6.7-6.4,9.9-8.7l3.5,3c2.7,1.7,5.2,2.2,7.4,1.5c2.3-0.7,1.9-2.9-1.2-6.4C279,31.4,275.9,28.2,274.2,26.3z"/>
			</g>
		</g>
	</g>
	<g transform="matrix( 1, 0, 0, 1, 0,0) ">
		<g>
			<g id="Layer0_12_MEMBER_1_FILL">
				<path class="st18" d="M280.6,46.4c-3.1-1.2-6.1-0.7-8.9,1.6c-2.9,2.3-4.3,5.4-4.2,9.3c0.1,3.8,1.8,6.6,5.1,8.4
					c3.2,1.8,6.7,2.1,10.4,0.7c4.1-1.5,6.2-4.5,6.2-9C289.2,52.4,286.4,48.7,280.6,46.4 M274.9,60.1c-2.5-1.4-3-3.3-1.5-5.8
					c1.6-2.3,3.3-3.1,5.2-2.5c4.5,1.5,5.8,3.7,3.7,6.6C280.3,61.2,277.8,61.8,274.9,60.1z"/>
			</g>
		</g>
	</g>
	<g transform="matrix( 1, 0, 0, 1, 0,0) ">
		<g>
			<g id="Layer0_12_MEMBER_2_FILL">
				<path class="st18" d="M240.4,93c-1.7-2.6-1.1-5.6,1.9-8.9c3-3.5,7.5-5.1,13.4-4.9c5.4,0.2,9,1.4,10.6,3.8
					c1.3,2.1,1.4,5.3,0.1,9.6c-0.8,2.9,0.5,4.1,3.8,3.7c2.6-0.3,4.3-2.5,5.1-6.6c0.9-4.5-0.4-8.6-4-12.4c-3.1-3.4-8.5-4.9-16.2-4.7
					c-8.6,0.2-14.6,3.2-18.2,8.9c-3.5,5.6-3.6,10.7-0.5,15.2c2.6,3.8,5.9,5.7,9.6,5.8c5.6,0,7.8-2.9,6.7-8.8c-0.6-2.9-1.7-5-3.3-6.4
					c-1.6-1.4-2.9-1.4-3.7,0.1c-0.5,0.9-0.3,2.6,0.6,4.9c0.7,2,0.6,3.1-0.5,3.3C243.8,96.2,242,95.3,240.4,93z"/>
			</g>
		</g>
	</g>
	<g transform="matrix( 1, 0, 0, 1, 0,0) ">
		<g>
			<g id="Layer0_12_MEMBER_3_FILL">
				<path class="st18" d="M237,111.7c-1,3.8,0.6,5,4.8,3.7c7.6-2.6,11.4-3.8,11.5-3.8c5.4-0.3,8.2,2.1,8.4,7.3
					c0.1,2,0.9,2.9,2.5,2.7c1.6-0.2,2.6-1.4,3.1-3.6c0.4-1.8-0.4-3.9-2.5-6.2l-3.2-2.8l1.9-1.7c0.9-0.8,0.7-1.6-0.6-2.2
					c-1.2-0.7-2.7-0.9-4.5-0.6c-3.6,0.8-7.5,1.9-11.6,3.1C240.5,109.4,237.2,110.8,237,111.7z"/>
			</g>
		</g>
	</g>
	<g transform="matrix( 1, 0, 0, 1, 0,0) ">
		<g>
			<g id="Layer0_12_MEMBER_4_FILL">
				<path class="st18" d="M254.2,122.5c-3.1-0.9-6.8-0.9-10.9,0.1c-4,1.1-6.9,3.4-8.5,6.9c-1.6,3.7-0.9,6.9,2.2,9.5
					c3.4,2.8,8.4,2.8,15.2,0.1c6.8-2.7,9.6-6.3,8.4-10.8C259.8,125.5,257.6,123.5,254.2,122.5 M241.1,136c-2.6-0.7-3.3-2.4-2.3-4.9
					c0.9-2.4,3.4-3.9,7.5-4.6c4-0.7,6.6-0.2,7.9,1.4c1.6,2.1,1.3,4-1.1,5.7c-1.7,1.2-3.7,2.1-6.1,2.5
					C244.8,136.5,242.8,136.5,241.1,136z"/>
			</g>
		</g>
	</g>
	<g transform="matrix( 1, 0, 0, 1, 0,0) ">
		<g>
			<g id="Layer0_12_MEMBER_5_FILL">
				<path class="st18" d="M283.5,158.1c0.3-3.5-1.4-4.9-5.3-4.1l-24.4,5.3c0.7-0.7,1.4-1.6,1.9-2.8c1-2.4,0.9-4.9-0.2-7.4
					c-1.7-3.9-6.4-4.9-14-3.2c-7.6,1.8-11.3,5-11.1,9.6c0.1,3,0.6,5.4,1.6,6.9c0.5,0.8,0.9,1.3,1.4,1.5c-0.8,0.2-1.6,0.5-2.2,1
					c-1.4,1-1.7,2.3-0.9,3.8c0.9,1.6,7.7,1.5,20.3-0.2c6.8-1,15.7-2.4,26.9-4.3C281.1,163.6,283.1,161.6,283.5,158.1 M243.9,150.1
					c3,0,4.9,1,5.7,3.1c0.9,2.1,0.4,3.9-1.6,5.3c-1.9,1.2-4.7,2.1-8.4,2.5c-3.1,0.4-4.8-0.8-5.1-3.6c-0.2-2.6,0.4-4.3,2-5.3
					C238.9,150.6,241.4,150,243.9,150.1z"/>
			</g>
		</g>
	</g>
	<g transform="matrix( 1, 0, 0, 1, 0,0) ">
		<g>
			<g id="Layer0_12_MEMBER_6_FILL">
				<path class="st18" d="M254.8,186.5c0.9-2.6,0.7-5.3-0.6-8.3c-2.1-4.7-7.3-6.1-15.8-4.3c-8.6,1.7-12.7,5.4-12.5,10.9
					c0.2,3.6,0.8,6.3,1.9,8.2c0.6,1,1.1,1.6,1.6,1.7c-1,0.2-1.9,0.7-2.6,1.2c-1.6,1.2-1.9,2.6-0.9,4.5c1,1.9,8.8,1.8,23.5-0.2
					c7.8-1.1,18.2-2.7,31.2-4.9c4.3-0.7,6.6-3,6.9-7.2c0.3-4.1-1.7-5.7-6.2-4.7l-28.2,6.2C253.8,188.8,254.4,187.8,254.8,186.5
					 M230.8,187c-0.2-3,0.7-5.1,2.6-6.2c2.7-1.6,5.5-2.5,8.4-2.5c3.3,0,5.4,1.2,6.4,3.7c1,2.5,0.4,4.5-1.9,6.2
					c-2.1,1.6-5.4,2.6-9.8,3.1C233,191.8,231.1,190.3,230.8,187z"/>
			</g>
		</g>
	</g>
	<g transform="matrix( 1, 0, 0, 1, 0,0) ">
		<g>
			<g id="Layer0_12_MEMBER_7_FILL">
				<path class="st18" d="M251.8,217.8c18.5-0.6,29-3.1,31.5-7.5c3.1-5.8-5.4-7.1-25.7-4c-14.3,2.1-23.4,3.7-27.3,4.6
					c-6.5,1.4-9.1,2.9-7.8,4.5C224.3,217.6,234.1,218.5,251.8,217.8z"/>
			</g>
		</g>
	</g>
	<g transform="matrix( 1, 0, 0, 1, 0,0) ">
		<g>
			<g id="Layer0_12_MEMBER_8_FILL">
				<path class="st18" d="M223,231.7c-2.1,5.4-2.1,9.7-0.1,13.1c1.8,3,3.7,4,5.7,3c0.7-0.4,0.7-2.8-0.1-7c-0.9-4.5-0.4-7.6,1.5-9.3
					c1.7-1.6,4.1-2.5,7-2.7c1.5-0.2,2.8-0.2,4,0l0.4,7.2c1,5.1,3.2,8.4,6.7,10c4.5,2,7.2-0.3,8.2-6.8c1-6.6-1.3-11.7-6.8-15.2
					c-4.2-2.6-8.8-3.5-13.8-2.7C229.6,222.1,225.4,225.6,223,231.7 M246.6,229.3l2.7,2.2c1.6,2,2.3,4.2,2,6.8
					c-0.5,3.4-1.9,3.5-4.1,0.2C245.1,235.4,244.9,232.4,246.6,229.3z"/>
			</g>
		</g>
	</g>
</g>
</svg>
