<?xml version="1.0" encoding="utf-8"?>
<!-- Generator: Adobe Illustrator 20.1.0, SVG Export Plug-In . SVG Version: 6.00 Build 0)  -->
<svg version="1.1" id="Layer_1" xmlns="http://www.w3.org/2000/svg" xmlns:xlink="http://www.w3.org/1999/xlink" x="0px" y="0px"
	 viewBox="0 0 363 448.9" style="enable-background:new 0 0 363 448.9;" xml:space="preserve">
<style type="text/css">
	.st0{fill:#E09D7C;}
	.st1{fill:#C87D58;}
	.st2{fill:#E5B190;}
	.st3{fill:#8F4932;}
	.st4{fill:#C96746;}
	.st5{fill:#AB583C;}
	.st6{fill:url(#SVGID_1_);}
	.st7{fill:#524137;}
	.st8{fill:#4C8772;}
	.st9{fill:#427563;}
	.st10{fill:#5A9E85;}
	.st11{fill:#70AD98;}
	.st12{fill:#40705F;}
</style>
<g transform="matrix( 1, 0, 0, 1, 0,0) ">
	<g>
		<g id="Layer0_0_MEMBER_0_FILL">
			<path class="st0" d="M356.1,325.8c2.9-8.7-0.9-14.6-11.4-17.5c-6.1-0.7-14.6,0-25.4,2.1c-21.5,3.9-43.8,12.5-67,25.8
				c-11.2,6.4-23,14.9-35.4,25.6c-6.7,5.7-15.5,13.4-26.6,23.1c-8.7,6.9-16.4,11-23.1,12.1c-7.9,1.1-16.1-1.6-24.6-8.1
				c-5.5-4.3-8.3-13.2-8.3-26.6l1.5-19.1c-2.8-2.8-6.5-5.3-11.2-7.7c-9.4-4.9-19.1-6.4-28.9-4.8c-9.8,1.8-17.5,4.9-22.9,9.4
				c-2.6,2.2-4.3,4.2-5,6l0.2,17.3c2.6,15.7,10,33.9,22.1,54.7c3.9,6.8,10.8,12.6,20.8,17.3c10.4,4.9,21.8,7.5,34.3,7.9
				c31.2,1.1,57.2-11,78-36.2c35.5-43,70.5-65.3,104.9-66.8C343.7,339.4,353.1,334.6,356.1,325.8z"/>
		</g>
	</g>
</g>
<g transform="matrix( 1, 0, 0, 1, 0,0) ">
	<g>
		<g id="Layer0_0_MEMBER_1_FILL">
			<path class="st1" d="M354.9,315.4c1.4,4.2,1,7.4-1.2,9.6c-2.1,2.1-6.1,3.5-12.1,4.4c-35.6,5.1-67.3,17.5-94.9,37
				c-8.7,6.2-23.2,19.7-43.5,40.4c-12.9,13.2-25.1,20.2-36.6,21c-15,1-29.3-4.2-42.9-15.6c-13.6-11.4-18-21.8-13.3-31.2
				c2.8-5.4,6.7-10.7,11.7-15.8c5.7-5.7,9.9-10,12.7-12.9l1-9.2c-1.5-1.5-3.7-3.2-6.7-5c-20-0.3-37.8-0.3-53.5-0.2
				c-4.2,2.6-6.8,5.3-7.9,8.1l0.2,17.3c2.6,15.7,10,33.9,22.1,54.7c3.9,6.8,10.8,12.6,20.8,17.3c10.4,4.9,21.8,7.5,34.3,7.9
				c31.2,1.1,57.2-11,78-36.2c35.5-43,70.5-65.3,104.9-66.8c11.7-0.4,20-3.5,25-9.2C357.6,325.8,358.2,320.6,354.9,315.4z"/>
		</g>
	</g>
</g>
<g transform="matrix( 1, 0, 0, 1, 0,0) ">
	<g>
		<g id="Layer0_0_MEMBER_2_FILL">
			<path class="st2" d="M130.8,377.2c-1.7-3.7-3.3-4.2-4.8-1.5c-1.9,3.6-1.5,8.6,1.5,15c3.3,7.1,8.4,11.8,15.2,14.1l14.6,5.2
				c-1.7-0.7-3.7-1.9-6.2-3.5c-4.9-3.5-9-7.8-12.5-13.1C136.5,390.6,134,385.2,130.8,377.2z"/>
		</g>
	</g>
</g>
<g transform="matrix( 1, 0, 0, 1, 0,0) ">
	<g>
		<g id="Layer0_0_MEMBER_3_FILL">
			<path class="st2" d="M324.1,316.2c4.6-3.7-2.8-3.1-22.3,1.9c-11.1,2.9-24.9,9.4-41.4,19.3c-14.8,8.9-26.4,17.1-34.5,24.8
				l-14.6,13.5c10.4-7.4,21.7-14.9,33.9-22.7c24.7-15.5,42-24.4,52-26.6C310.4,323.5,319.4,320.1,324.1,316.2z"/>
		</g>
	</g>
</g>
<g transform="matrix( 1, 0, 0, 1, 0,0) ">
	<g>
		<g id="Layer0_1_MEMBER_0_FILL">
			<path class="st3" d="M102.5,344.7c11.2,0,21.4-0.6,30.6-1.7c6.4-3.1,11.4-7.5,15.2-13.3l3.7-7.7c-1.4-3.6-4.6-7.1-9.6-10.6
				c-10-7.2-23.8-10.8-41.4-10.8c-21.1-0.1-36.9,3.7-47.4,11.7c-10.7,7.8-10.3,15.3,1,22.7C64.2,341.2,80.2,344.4,102.5,344.7z"/>
		</g>
	</g>
</g>
<g transform="matrix( 1, 0, 0, 1, 0,0) ">
	<g>
		<g id="Layer0_1_MEMBER_1_FILL">
			<path class="st4" d="M60.7,334.7l-13.5-7.3l5.6,12.3c2.2,4.2,5,8.5,8.3,12.9l13.9,6.2c11.5,3.7,23,4.9,34.3,3.3
				c11.5-1.7,21.5-4.6,30-8.9c4.3-2.1,7.4-4,9.4-5.8c1.7-4.2,2.8-8.2,3.5-12.1c0.4-2.6,0.5-5.7,0.2-9.2L152,322
				c-1.8,2.4-5.2,4.9-10.2,7.5c-10,5.1-22.8,8.5-38.5,10C87.2,341,73,339.4,60.7,334.7z"/>
		</g>
	</g>
</g>
<g transform="matrix( 1, 0, 0, 1, 0,0) ">
	<g>
		<g id="Layer0_1_MEMBER_2_FILL">
			<path class="st5" d="M61.1,352.6l6.4,3.3c5.5,2.4,11.3,4.2,17.3,5.4c9,0.6,15,0.6,18.1,0.2c5.5-0.8,8.4-3.2,8.5-7.1
				c0.3-4.4-2.6-7.6-8.5-9.4c-2.6-0.8-11.1-2.3-25.4-4.4c-12.9-1.8-23-6-30.2-12.5c0.6,1.1,2.4,4.9,5.4,11.4
				C55,343.9,57.8,348.2,61.1,352.6z"/>
		</g>
	</g>
</g>
<g transform="matrix( 1, 0, 0, 1, 0,0) ">
	<g>
		<g id="Layer0_1_MEMBER_3_FILL">
			
				<linearGradient id="SVGID_1_" gradientUnits="userSpaceOnUse" x1="66.6591" y1="658.8156" x2="135.5273" y2="709.9985" gradientTransform="matrix(1 0 0 -1 0 1002)">
				<stop  offset="0" style="stop-color:#592E20"/>
				<stop  offset="1" style="stop-color:#A35339"/>
			</linearGradient>
			<path class="st6" d="M139.3,316.6c-0.4-5-7.1-8.5-20-10.4c-10.3-1.4-20.1-1.6-29.5-0.6c-23.4,2.8-31.8,8.3-25,16.6
				c6.1,7.2,20.2,10.1,42.2,8.5C129.1,329.2,139.9,324.5,139.3,316.6z"/>
		</g>
	</g>
</g>
<g transform="matrix( 1, 0, 0, 1, 0,0) ">
	<g>
		<g id="Layer0_1_MEMBER_4_FILL">
			<path class="st0" d="M145.1,347.2c1.4-2.8,2.3-6.5,2.7-11.2v-6.2l-4.8,12.9c-1.1,3.6-4.5,6.9-10.2,9.8l2.9-0.6
				C137.9,351.4,141,349.8,145.1,347.2z"/>
		</g>
	</g>
</g>
<g transform="matrix( 1, 0, 0, 1, 0,0) ">
	<g>
		<g id="Layer0_2_MEMBER_0_FILL">
			<path class="st7" d="M91.9,198.6L53.4,188l8.1,12.5c6.2,11.5,11.4,25.3,15.4,41.4c4,16.1,6.2,35.2,6.7,57.2
				c0.3,11.1,0.1,20.5-0.4,28.3c0.6,2.8,3.1,3.7,7.5,2.7c0.8-8.9,1.5-21.5,2.1-37.9c0.4-9.6,0.4-28.1,0-55.6L91.9,198.6z"/>
		</g>
	</g>
</g>
<g transform="matrix( 1, 0, 0, 1, 0,0) ">
	<g>
		<g id="Layer0_3_MEMBER_0_FILL">
			<path class="st8" d="M131.6,72.3L17.8,79L5.9,92.3l44.7,13.1L32.2,273.5l26.4-1.5l5-6.4L97.1,245l43.5,35.6l33.3,3.5l-33.7-78
				l-30-95.1l30.2,2.3l28.1-12.3L131.6,72.3z"/>
		</g>
	</g>
</g>
<g transform="matrix( 1, 0, 0, 1, 0,0) ">
	<g>
		<g id="Layer0_3_MEMBER_1_FILL">
			<path class="st9" d="M50.1,105.2l0.6,0.2L28.6,279.8l30-7.7l5-6.4l1.7-1l22.5-124.8L74.2,91.7L50.1,105.2z"/>
		</g>
	</g>
</g>
<g transform="matrix( 1, 0, 0, 1, 0,0) ">
	<g>
		<g id="Layer0_3_MEMBER_2_FILL">
			<path class="st10" d="M52.5,88.2c6.9,1.8,13.6,3.7,20,5.6c-6.1,91.5-9.8,142.4-11,152.5l-2.9,25.8l60.8-36.8l54.5,48.9
				L131.2,98.4l37.2,2.7l-54.7-67C101.7,19.4,93.4,9.9,89,5.8C62.2,34.1,45.1,51.7,37.6,58.6C29.9,65.4,23.4,72.2,17.8,79L52.5,88.2
				z"/>
		</g>
	</g>
</g>
<g transform="matrix( 1, 0, 0, 1, 0,0) ">
	<g>
		<g id="Layer0_3_MEMBER_3_FILL">
			<path class="st11" d="M123.3,52c14.7,20.3,22.2,31.6,22.5,34.1s-4.4,4.5-14.1,6h2.9l23.7,1.7L123.3,52z"/>
		</g>
	</g>
</g>
<g transform="matrix( 1, 0, 0, 1, 0,0) ">
	<g>
		<g id="Layer0_3_MEMBER_4_FILL">
			<path class="st11" d="M142.2,247.7l24.6,23.7l-10.2-38.1l-0.8,19.8C155.7,255.4,151.2,253.6,142.2,247.7z"/>
		</g>
	</g>
</g>
<g transform="matrix( 1, 0, 0, 1, 0,0) ">
	<g>
		<g id="Layer0_3_MEMBER_5_FILL">
			<path class="st8" d="M107.9,233.8c-13.9,7.9-27.5,13.5-40.8,16.6L65,262.7c4.4-3.5,9.3-6.8,14.6-10c3.3-1.9,9.1-5.7,17.3-11.2
				L107.9,233.8z"/>
		</g>
	</g>
</g>
<g transform="matrix( 1, 0, 0, 1, 0,0) ">
	<g>
		<g id="Layer0_3_MEMBER_6_FILL">
			<path class="st8" d="M62.5,44.9c-4.7,2.6-15.7,12.4-33.1,29.3l15,5.6c-1.1-0.8-2-2.1-2.7-3.7c-1.4-3.2-0.8-6.6,1.9-10.2
				C47.8,60.2,54.1,53.2,62.5,44.9z"/>
		</g>
	</g>
</g>
<g transform="matrix( 1, 0, 0, 1, 0,0) ">
	<g>
		<g id="Layer0_4_FILL">
			<path class="st12" d="M117.5,251.5c-1.8-1-3.3-1.6-4.4-1.9c-2.4-0.4-2.1,1,0.8,4.4c3.3,3.7,6.2,5.8,8.7,6
				c2.2,0.1,3.3-0.9,3.1-3.1c-0.1-1.7-1.2-3.6-3.1-5.8l-2.9-2.7L117.5,251.5z"/>
		</g>
	</g>
</g>
<g transform="matrix( 1, 0, 0, 1, 0,0) ">
	<g>
		<g id="Layer0_5_FILL">
			<path class="st7" d="M119.8,328.3c-1.9-24.4-1.9-51,0-79.9c-1.4-1.9-3.3-3.1-5.6-3.5c-2.4-0.6-4.9-0.1-7.5,1.5
				c1,28.4,2.3,56.2,4,83.2C111.7,330.9,114.8,330.5,119.8,328.3z"/>
		</g>
	</g>
</g>
</svg>
