<?xml version="1.0" encoding="utf-8"?>
<!-- Generator: Adobe Illustrator 20.1.0, SVG Export Plug-In . SVG Version: 6.00 Build 0)  -->
<svg version="1.1" id="Layer_1" xmlns="http://www.w3.org/2000/svg" xmlns:xlink="http://www.w3.org/1999/xlink" x="0px" y="0px"
	 viewBox="0 0 476 396" style="enable-background:new 0 0 476 396;" xml:space="preserve">
<style type="text/css">
	.st0{fill:#D18E6D;}
	.st1{fill:#BA7D5F;}
	.st2{fill:#C96746;}
	.st3{fill:#8F4932;}
	.st4{fill:#E09D7C;}
	.st5{fill:#AB583C;}
	.st6{fill:#C87D58;}
	.st7{fill:#C36444;}
	.st8{fill:#AB5333;}
	.st9{fill:#E4AD84;}
	.st10{fill:url(#SVGID_1_);}
	.st11{fill:#EBB696;}
	.st12{fill:url(#SVGID_2_);}
	.st13{fill:#EDC9B1;}
	.st14{fill:#593F28;}
	.st15{fill:#4C8772;}
	.st16{fill:#427563;}
	.st17{fill:#5A9E85;}
	.st18{fill:#70AD98;}
	.st19{fill:#7D5937;}
	.st20{fill:#A37C58;}
	.st21{fill:#735233;}
</style>
<g transform="matrix( 1, 0, 0, 1, 0,0) ">
	<g>
		<g id="Layer0_0_MEMBER_0_FILL">
			<path class="st0" d="M360.9,317.7c13.7-9.4,25.2-18.4,34.5-27.1l-4.3-12.8c-1.7-5.3-5.4-9.6-11.2-12.8l-8-3.2
				c-0.6,2.3-3.6,6-8.8,10.9c-10.2,9.9-26.4,21.5-48.7,34.8c-22.1,13.3-43.1,19.6-62.9,19c-6.3-0.3-12-1.2-17.2-2.7l-5.9-2.4
				l-10.2,9.4c-6,6.7-6.5,11.4-1.6,14c8.2,4.5,15.5,7.2,22,8.3c11.5,1.9,27.6,1.3,48.2-1.9C308.9,347.7,333.6,336.5,360.9,317.7z"/>
		</g>
	</g>
</g>
<g transform="matrix( 1, 0, 0, 1, 0,0) ">
	<g>
		<g id="Layer0_0_MEMBER_1_FILL">
			<path class="st1" d="M371.9,261.8c-2.6,11.3-11.5,23.6-26.8,36.9c-14.9,13.1-32,23.9-51.2,32.4c-16.6,7.3-30.8,10.5-42.5,9.6
				c-7.2-0.6-14.2-3.2-20.9-7.7l-12.1,12.8c7.4,4,14.7,6.6,21.7,7.7c11.4,1.6,27,0.9,46.8-2.2c22-3.5,46.7-14.7,74.1-33.5
				c13.7-9.4,25.2-18.4,34.5-27.1l-4.3-12.8c-1.7-5.3-5.4-9.6-11.2-12.8L371.9,261.8z"/>
		</g>
	</g>
</g>
<g transform="matrix( 1, 0, 0, 1, 0,0) ">
	<g>
		<g id="Layer0_1_MEMBER_0_FILL">
			<path class="st2" d="M235.8,325l-3.4-8c-1.3-1.2-2.7-2.1-4.1-2.9c-1-0.4-2.2-0.7-3.7-1l-1.9-0.2l-2.9,8.6l-9.1,8.5
				c-6,6.2-8.5,10.5-7.5,13.1c1.4,3.8,4.1,6.7,8.1,8.5c2,1,3.9,1.5,5.7,1.6l5.6-1.4c4.1-1.8,7.5-4.7,10.1-8.8
				C236.3,337.4,237.3,331.4,235.8,325z"/>
		</g>
	</g>
</g>
<g transform="matrix( 1, 0, 0, 1, 0,0) ">
	<g>
		<g id="Layer0_1_MEMBER_1_FILL">
			<path class="st3" d="M224.8,315.1c-2-3.5-5.3-2.8-9.9,2.2c-3.9,4.4-7.6,10.4-10.9,18c-2.8,6.3-2.1,10.2,2.1,11.8
				c4.3,1.7,9.2,0,14.8-5.1c4.4-3.8,6.6-8.9,6.7-15.2C227.6,322.3,226.7,318.3,224.8,315.1z"/>
		</g>
	</g>
</g>
<g transform="matrix( 1, 0, 0, 1, 0,0) ">
	<g>
		<g id="Layer0_1_MEMBER_2_FILL">
			<path class="st4" d="M228.4,321.4c-0.2-2,0-3.4,0.6-4c0.4-0.4,1.1-0.5,1.9-0.2c0.5,0.1,1,0.3,1.3,0.5c-0.4-0.4-1-0.8-1.6-1.1
				l-4.6-1.8l0.6,0.8C227,316.3,227.6,318.2,228.4,321.4z"/>
		</g>
	</g>
</g>
<g transform="matrix( 1, 0, 0, 1, 0,0) ">
	<g>
		<g id="Layer0_1_MEMBER_3_FILL">
			<path class="st5" d="M209,349.1l1.6,1c2.8,1.9,5.1,2.7,6.9,2.2l6.1-2.2c-3.3,0.6-5.9,0.9-7.7,0.8c-1.2-0.1-2.7-0.4-4.5-1
				L209,349.1z"/>
		</g>
	</g>
</g>
<g transform="matrix( 1, 0, 0, 1, 0,0) ">
	<g>
		<g id="Layer0_2_MEMBER_0_FILL">
			<path class="st4" d="M164.8,320.9l-7.7,3.8c-4.5,3.1-10.7,6.3-18.8,9.6c-16.2,6.5-33.3,10.3-51.4,11.3c-16.8,1-32.7,0.9-47.7-0.3
				c-7.4-0.6-13.2-1.4-17.4-2.2l-4.6,3.5c-1.7,2.9,0.9,5.8,7.7,8.8c5.3,1.8,12.9,3.5,22.7,4.9c19.7,2.9,41,3.6,63.8,2.1
				c15.4-1.1,30.5-4.8,45.3-11.3c7.3-3.2,13.1-6.3,17.4-9.4c2.4-2,4.5-4.3,6.2-6.9c3.3-5.2,3-9.3-1-12.3
				C175.5,319.5,170.6,319,164.8,320.9z"/>
		</g>
	</g>
</g>
<g transform="matrix( 1, 0, 0, 1, 0,0) ">
	<g>
		<g id="Layer0_2_MEMBER_1_FILL">
			<path class="st6" d="M179.3,322.5c-3.8-3-8.7-3.5-14.5-1.6l-15.6,8.5c-0.2,2.6-0.5,6-0.8,10.4c-1.3,3.5-4.9,6.3-11,8.3
				c-16.5,5.3-32.5,8.3-48,8.9c-11.3,0.4-25.7-0.4-43.4-2.6c-10-1.3-17-2.9-21.1-4.9c-2.9-1.5-4.4-3.4-4.6-5.6
				c-2.3,1.3-3.5,2.7-3.5,4.3c-0.1,2.4,2.6,4.8,8.1,7.2c5.3,1.8,12.9,3.5,22.7,4.9c19.7,2.9,41,3.6,63.8,2.1
				c15.4-1.1,30.5-4.8,45.3-11.3c7.3-3.2,13.1-6.3,17.4-9.4c2.4-2,4.5-4.3,6.2-6.9C183.5,329.6,183.2,325.5,179.3,322.5z"/>
		</g>
	</g>
</g>
<g transform="matrix( 1, 0, 0, 1, 0,0) ">
	<g>
		<g id="Layer0_2_MEMBER_2_FILL">
			<path class="st7" d="M145,282c-6.8,1.9-11.3,6.3-13.6,13.2c-1.7,5.2-2.3,9.5-1.9,12.9c0.3,1.6,0.7,2.7,1.3,3.4l9.3,3.8
				c7.6,3.3,12.8,5.7,15.6,7.2c2.7,1.5,0.8,3.2-5.6,5.3l0.3,5.3c0.7,3.9,2.4,7,5.1,9.3c4.9,4,9.6,5.5,14,4.5
				c2.3-0.4,4.1-1.3,5.4-2.7l8.8-7.2l2.1,0.6c4.6,2.3,10.2,5.1,16.9,8.1l5.4-0.3c4.1-0.7,7.5-2.3,10.1-4.8c3.6-3.6,5.6-8.7,6.1-15.3
				l-0.5-8.1c-1.6-0.9-7.7-2.9-18.4-6.1c-8.2-2.4-16.8-6.5-25.9-12.1c-7.2-4.5-13.1-8.8-17.6-13.1C157.3,281.3,151.6,280,145,282z"
				/>
		</g>
	</g>
</g>
<g transform="matrix( 1, 0, 0, 1, 0,0) ">
	<g>
		<g id="Layer0_2_MEMBER_3_FILL">
			<path class="st8" d="M130.8,311.5l9.3,3.8c7.6,3.3,12.8,5.7,15.6,7.2c2.7,1.5,0.8,3.2-5.6,5.3l0.3,5.3c0.7,3.9,2.4,7,5.1,9.3
				c6.3,5.3,12.1,6.4,17.6,3.2c-4.5-0.9-7.3-1.9-8.5-3.2c-1.2-1.4-0.6-3,1.8-4.8c2.9-1.9,4.7-3.1,5.4-3.7c1.1-0.7,3.1-0.6,6.2,0.3
				c2.6,0.9,4.5,1.8,5.7,2.7l2.1,0.6c4.6,2.3,10.2,5.1,16.9,8.1l5.4-0.3c4.1-0.7,7.5-2.3,10.1-4.8c3-3,4.8-6.8,5.6-11.5
				c-3.1,2.9-8.5,3.9-16.1,3.2c-4.1-0.3-10.4-2.6-18.8-6.9c-8.6-4.6-14.2-7.3-16.6-8.3c-4.4-1.7-8.9-4.4-13.7-8
				c-5.7-4.4-8.8-8.2-9.1-11.5l-0.8,1.6c-9.3,5.5-15.4,9-18.4,10.4l-0.5,0.2C130.1,310.6,130.4,311.2,130.8,311.5z"/>
		</g>
	</g>
</g>
<g transform="matrix( 1, 0, 0, 1, 0,0) ">
	<g>
		<g id="Layer0_2_MEMBER_4_FILL">
			<path class="st9" d="M174.8,301.1l-8.1-4.8l6.2,6.1c5.5,4.5,11.8,8,18.8,10.7c7,2.7,13.8,4.4,20.4,5.1c3.4,0.3,6.1,0.4,8,0.2
				c-11-2.1-21-5.2-30-9.3C186.1,307.4,181,304.7,174.8,301.1z"/>
		</g>
	</g>
</g>
<g transform="matrix( 1, 0, 0, 1, 0,0) ">
	<g>
		<g id="Layer0_3_MEMBER_0_FILL">
			<path class="st3" d="M115.6,301.9c0.2,7.2,3.9,10.4,11,9.4c6-0.9,12.4-5.3,19.5-13.4l8.9-11.8c0.5-3.6,0.1-7.3-1.4-11.2l-2.4-4.6
				c-2.1-1-4.8-1.3-8-1.1c-6.5,0.5-12.5,4-18,10.4C118.5,287.1,115.3,294.6,115.6,301.9z"/>
		</g>
	</g>
</g>
<g transform="matrix( 1, 0, 0, 1, 0,0) ">
	<g>
		<g id="Layer0_3_MEMBER_1_FILL">
			<path class="st2" d="M144,295.5c-4.4,6.5-9.6,11-15.6,13.6l-7.7,1.8l7.5,3.2c2.7,1,5.6,1.8,8.8,2.6c2.1-0.3,4.5-1.1,7.2-2.4
				c5.3-2.6,9.4-6.3,12.3-11.2c3-4.9,4.8-9.8,5.4-14.7l0.2-5.9c-1.5-2.4-3-4.6-4.5-6.5c-1.2-1.3-2.6-2.6-4.1-4l-2.2-1.6l0.3,6.9
				C150.8,283.1,148.3,289.2,144,295.5z"/>
		</g>
	</g>
</g>
<g transform="matrix( 1, 0, 0, 1, 0,0) ">
	<g>
		<g id="Layer0_3_MEMBER_2_FILL">
			
				<linearGradient id="SVGID_1_" gradientUnits="userSpaceOnUse" x1="130.3318" y1="92.2872" x2="133.4441" y2="136.0986" gradientTransform="matrix(1 0 0 -1 0 402.6667)">
				<stop  offset="0" style="stop-color:#592E20"/>
				<stop  offset="1" style="stop-color:#A35339"/>
			</linearGradient>
			<path class="st10" d="M143.4,274.1c-2.4-2-6.2-1.1-11.2,2.9c-3.9,3.1-7.1,6.5-9.6,10.4c-6.1,9.8-6.1,15.2,0,16.1
				c5.2,1,11-2.9,17.2-11.7C146.1,283.1,147.3,277.2,143.4,274.1z"/>
		</g>
	</g>
</g>
<g transform="matrix( 1, 0, 0, 1, 0,0) ">
	<g>
		<g id="Layer0_3_MEMBER_3_FILL">
			<path class="st4" d="M160.9,283.5c-0.9-1.7-2.3-3.6-4.5-5.7l-3-2.7l4.6,7.3c1.3,1.9,1.7,4.5,1.3,7.8l0.6-1.3
				c0.3-0.6,0.6-1.7,0.8-3.2L160.9,283.5z"/>
		</g>
	</g>
</g>
<g transform="matrix( 1, 0, 0, 1, 0,0) ">
	<g>
		<g id="Layer0_3_MEMBER_4_FILL">
			<path class="st5" d="M136,312.6c-2.2-0.3-3.4-1.1-3.5-2.2l0.3-1.6l-1,0.5c-0.7,0.4-2.9,1.2-6.4,2.2l2.2,1
				c4.9,1.9,7.9,2.8,8.9,2.7c1.3-0.2,4.3-1.5,9.3-3.8C142.8,312.7,139.5,313.1,136,312.6z"/>
		</g>
	</g>
</g>
<g transform="matrix( 1, 0, 0, 1, 0,0) ">
	<g>
		<g id="Layer0_4_MEMBER_0_FILL">
			<path class="st11" d="M224.1,165.4c-0.2-5.7-2.4-10.3-6.5-13.6l-6.2-3.4l-17.6,13.2l2.6,17.1l18.2,7.3c1.7-0.2,3.4-1.3,4.9-3.2
				C222.8,179.3,224.3,173.4,224.1,165.4z"/>
		</g>
	</g>
</g>
<g transform="matrix( 1, 0, 0, 1, 0,0) ">
	<g>
		<g id="Layer0_4_MEMBER_1_FILL">
			<path class="st4" d="M207.5,153.9l3.8-5.4c-11.4,0.4-24.2,2.9-38.5,7.3c-28.4,8.8-49.6,23.2-63.7,43.1
				c-19.4,27.6-21.8,53-7.3,76.3c7.2,11.6,16.4,20.4,27.5,26.5c0.2,0.3,0.7,0.2,1.6-0.3c1.7-1.1,4.2-3.6,7.5-7.7
				c4.8-6,7.1-11,6.9-15.2l-1.9-4.5c-4.9-3.2-9-7.8-12.4-13.7c-6.6-11.9-5.9-24.7,2.2-38.5c9.2-15.5,25.4-26.2,48.8-31.9
				c11.8-2.8,22.7-4,32.6-3.8c-0.7,0-1.6-0.6-2.6-1.9c-2.1-2.6-3.9-7-5.4-13.4C205,164.4,205.3,158.7,207.5,153.9z"/>
		</g>
	</g>
</g>
<g transform="matrix( 1, 0, 0, 1, 0,0) ">
	<g>
		<g id="Layer0_4_MEMBER_2_FILL">
			
				<linearGradient id="SVGID_2_" gradientUnits="userSpaceOnUse" x1="209.3199" y1="246.8201" x2="221.1306" y2="225.1139" gradientTransform="matrix(1 0 0 -1 0 402.6667)">
				<stop  offset="0" style="stop-color:#824835"/>
				<stop  offset="1" style="stop-color:#BA755F"/>
			</linearGradient>
			<path class="st12" d="M220,160.3c-2.7-6.2-5.1-8.5-7.2-7c-1.7,1.3-2.9,3.8-3.5,7.5c-0.9,4.6-0.3,9.1,1.8,13.6
				c2.2,4.7,4.3,6.8,6.2,6.4c1.5-0.2,3-2.2,4.6-6.1C223.3,171.4,222.6,166.6,220,160.3z"/>
		</g>
	</g>
</g>
<g transform="matrix( 1, 0, 0, 1, 0,0) ">
	<g>
		<g id="Layer0_4_MEMBER_3_FILL">
			<path class="st6" d="M127.1,249.7c-1.7-8.8,0.3-18.1,6.1-27.8c9.2-15.5,25.4-26.2,48.8-31.9c11.8-2.8,22.7-4,32.6-3.8
				c-0.7,0-1.6-0.6-2.6-1.9c-2.1-2.6-3.9-7-5.4-13.4c-0.3-1.1-0.6-2.6-0.8-4.5c-1.6,0.9-6.9,3-16,6.4c-10.5,3.8-19.2,7.2-25.9,10.2
				c-13.5,6.1-24.1,16.7-31.8,31.8C125,228.9,123.3,240.6,127.1,249.7z"/>
		</g>
	</g>
</g>
<g transform="matrix( 1, 0, 0, 1, 0,0) ">
	<g>
		<g id="Layer0_4_MEMBER_4_FILL">
			<path class="st6" d="M107.8,283.4c6.8,8.1,14,14.2,21.5,18.4c0.2,0.3,0.7,0.2,1.6-0.3c1.7-1.1,4.2-3.6,7.5-7.7
				c2.1-2.7,3.8-5.2,4.9-7.7c-0.1,0-1.4,0.7-3.8,2.2c-2.4,1.5-5.2,1.5-8.3,0c-12-5.5-21.2-13.1-27.5-22.7
				c-6.4-9.9-9.5-21.6-9.4-35.1C89.9,249.8,94.4,267.4,107.8,283.4z"/>
		</g>
	</g>
</g>
<g transform="matrix( 1, 0, 0, 1, 0,0) ">
	<g>
		<g id="Layer0_4_MEMBER_5_FILL">
			<path class="st13" d="M136,274.1c-1.7-3.6-5.3-9-10.9-16.1c-1.7-2.1-2.7-3.2-3-3.4c-0.5-0.4-1,0.2-1.3,1.8c-0.3,2.2,1,6.1,4,11.5
				c3.2,5.9,6.3,9.3,9.3,10.4C137.2,279.5,137.8,278.1,136,274.1z"/>
		</g>
	</g>
</g>
<g transform="matrix( 1, 0, 0, 1, 0,0) ">
	<g>
		<g id="Layer0_5_MEMBER_0_FILL">
			<path class="st14" d="M349.1,167.4c12.4-3.5,23.4-7.1,32.7-10.7c1.6-0.6-6.1,1.2-23.1,5.6c-10.6,2.8-38.6,5.1-83.8,7l-64.6,2.1
				c0.2,2.7,1.3,5,3.2,7c1,1,1.9,1.6,2.9,2.1l22.5-1.1c18.1-0.9,34.8-1.3,50.1-1.3S324.3,174.5,349.1,167.4z"/>
		</g>
	</g>
</g>
<g transform="matrix( 1, 0, 0, 1, 0,0) ">
	<g>
		<g id="Layer0_6_MEMBER_0_FILL">
			<path class="st15" d="M351.2,143.7l39.7-1.4l34.6-20.3l-52.2-31.8l-147.2,25.2l-13.4,19L273,145l0.5,221.5l34.2-5.7l5.6-9.3
				l40.4-31.8l61.9,40.2l43.9-0.5l-55.2-96.4L351.2,143.7z"/>
		</g>
	</g>
</g>
<g transform="matrix( 1, 0, 0, 1, 0,0) ">
	<g>
		<g id="Layer0_6_MEMBER_1_FILL">
			<path class="st16" d="M326.1,184.1l-24.6-60.3L272,144.9l1,0.2l-3.2,230l37.8-14.2l5.6-9.3l1.9-1.6L326.1,184.1z"/>
		</g>
	</g>
</g>
<g transform="matrix( 1, 0, 0, 1, 0,0) ">
	<g>
		<g id="Layer0_6_MEMBER_2_FILL">
			<path class="st17" d="M316.4,16.5l-8.1-6.9c-30.8,40.8-50.5,66.2-59.4,76.3c-8.8,10.1-16.4,20-22.7,29.5l46.6,6.9
				c9.4,1.3,18.3,2.7,26.8,4.3c5.3,120,7.9,186.7,7.8,200.1s-0.1,24.7,0.2,34l73.7-57l78,55.7l-82.7-235.6l48.8-1.9l-81.1-79
				C333.3,32.1,323.9,23.2,316.4,16.5z"/>
		</g>
	</g>
</g>
<g transform="matrix( 1, 0, 0, 1, 0,0) ">
	<g>
		<g id="Layer0_6_MEMBER_3_FILL">
			<path class="st18" d="M359.5,64.7c22.1,24.4,33.6,38.1,34.3,41.2c0.4,2-2.3,4.3-8.3,6.7l-9.1,3.2l3.7-0.3
				c2.4-0.2,12.9-0.6,31.3-1.3L359.5,64.7z"/>
		</g>
	</g>
</g>
<g transform="matrix( 1, 0, 0, 1, 0,0) ">
	<g>
		<g id="Layer0_6_MEMBER_4_FILL">
			<path class="st18" d="M429.4,296.2l1.9,25.9c0.3,2.8-5.8,1-18.4-5.3l4.8,4c3.1,2.6,13.3,10.4,30.6,23.5L429.4,296.2z"/>
		</g>
	</g>
</g>
<g transform="matrix( 1, 0, 0, 1, 0,0) ">
	<g>
		<g id="Layer0_6_MEMBER_5_FILL">
			<path class="st15" d="M366,303.7c-10.4,7.7-22,14.6-34.6,20.7l-16,7l-0.8,16.3c5.2-5.2,11.1-10.3,17.6-15.3
				C338.6,327.5,349.8,317.9,366,303.7z"/>
		</g>
	</g>
</g>
<g transform="matrix( 1, 0, 0, 1, 0,0) ">
	<g>
		<g id="Layer0_6_MEMBER_6_FILL">
			<path class="st15" d="M256.8,88.4l-16.1,19.2l20.3,4.9c-1.6-1-3-2.4-4.1-4.3c-2.1-3.9-1.8-8.5,1.1-13.6c4.5-8,11.7-18,21.5-30
				C275.9,67.1,268.3,75.1,256.8,88.4z"/>
		</g>
	</g>
</g>
<g transform="matrix( 1, 0, 0, 1, 0,0) ">
	<g>
		<g id="Layer0_6_MEMBER_7_FILL">
			<path class="st16" d="M291.2,160.3l3.2,7.2c14-2.2,34.9-0.9,62.6,4c13,2.3,23.7,5.5,32.2,9.4c5.4,2.6,8.8,4.7,10.2,6.4
				c0.9,0.9,0-1.2-2.6-6.1c-0.5-0.5-2.1-1.7-4.6-3.5c-2.8-2-4.6-3.2-5.6-3.5c-31-9.3-49.4-14.3-55.2-15.2c-3.5-0.4-9.4-0.8-17.7-1.1
				c-8.9-0.3-13.5-0.5-13.7-0.5c-1.5-0.1-3.4,0.4-5.7,1.4L291.2,160.3z"/>
		</g>
	</g>
</g>
<g transform="matrix( 1, 0, 0, 1, 0,0) ">
	<g>
		<g id="Layer0_6_MEMBER_8_FILL">
			<path class="st16" d="M296.9,152.2c1.4,1.3,2.8,2.4,4.3,3.4c3.1-2.6,7.9-6.9,14.5-12.9c6.8-4.9,14.9-8.1,24.4-9.6
				c9.3-1.5,18.8-1.8,28.6-0.8c4.9,0.5,8.9,1.2,12,1.9c-4.1-3.3-8.6-5.4-13.2-6.4c-11.2-2.3-21.1-3-29.8-1.9
				c-5.2,0.5-13.8,3.9-25.7,10.2c-11,5.7-17,9.4-18,11C293.2,148,294.2,149.7,296.9,152.2z"/>
		</g>
	</g>
</g>
<g transform="matrix( 1, 0, 0, 1, 0,0) ">
	<g>
		<g id="Layer0_6_MEMBER_9_FILL">
			<path class="st15" d="M390.4,313.4c-0.7,3.6-1.1,5.9-1.1,6.9l14.4,8.8l-0.2-1.6c-0.1-4.5,0.3-8.9,1.3-13.4
				c1.6-7.1,4.4-12.6,8.5-16.4c4.7-4.5,9.4-7.8,14.2-9.9c2.3-1.1,4.3-1.6,5.7-1.8c-4.3-2.7-8.5-4-12.8-4c-2.8,0-7.9,3.5-15.5,10.4
				c-6.4,6-10.4,10.2-12.1,12.8C392,306.5,391.2,309.2,390.4,313.4z"/>
		</g>
	</g>
</g>
<g transform="matrix( 1, 0, 0, 1, 0,0) ">
	<g>
		<g id="Layer0_7_MEMBER_0_FILL">
			<path class="st19" d="M396.7,294.6c-3.5,5.6-6.1,12.9-7.7,21.7c-1.9,10.3-1.6,19,1,26.2c2.9,8,4.6,14.4,5.3,19.2
				c0.7,5.1,0.4,9.6-1,13.6c-1.8,5.3-4,9-6.7,11.2c2-0.7,4-2.2,6.1-4.3c3.9-4.3,5.9-9.6,5.9-16.1c0-4.6-1-11.6-2.9-21.1
				c-1.7-8.5-2.3-15.7-1.9-21.5c0.9-12.4,6.5-22.8,17.1-31.1c5.1-4,10.4-6.4,15.8-7.2c2.7-0.4,4.8-0.4,6.5,0c1.3-1,2.1-2.1,2.6-3.4
				c0.7-2.7-1.2-5-5.7-7c-3.6-1.7-9.1-0.6-16.4,3.4C406.8,282.2,400.8,287.8,396.7,294.6z"/>
		</g>
	</g>
</g>
<g transform="matrix( 1, 0, 0, 1, 0,0) ">
	<g>
		<g id="Layer0_7_MEMBER_1_FILL">
			<path class="st20" d="M395.5,302.1l7-9.1c6.7-7.6,12.4-11.5,17.2-12c5.5-0.6,9.5-1.3,11.8-2.1c2.1-0.6,2.3-1.2,0.6-1.6
				c-0.2-0.4-1-0.7-2.4-0.8c-2.6-0.1-6.4,0.9-11.7,2.9c-5.3,2-10.4,5.8-15.2,11.3c-3.4,3.9-5.6,7.2-6.7,9.7
				C396.1,301,395.8,301.6,395.5,302.1z"/>
		</g>
	</g>
</g>
<g transform="matrix( 1, 0, 0, 1, 0,0) ">
	<g>
		<g id="Layer0_8_MEMBER_0_FILL">
			<path class="st21" d="M308.4,131.4c-6.2,3.6-14.1,10.3-23.8,20.1c-10.7,10.9-16,18.4-15.6,22.5c0.3,3.7,1,6,2.1,6.9
				c0.5,0.3,1,0.3,1.4,0c-0.3-0.4-0.3-1.3,0.2-2.6c0.9-2.6,3.4-5.9,7.5-9.9c10.2-10.4,17.9-17.7,23.1-21.7
				c12.7-9.8,25-15.6,36.9-17.4c11.7-1.8,22.1-1.5,31.1,0.8c4.6,1.3,7.9,2.7,10.1,4.1c0.4-0.7,0.6-1.8,0.5-3
				c-0.2-2.4-1.6-4.7-4.3-6.7c-4.3-3.4-12.6-5-25.1-4.8c-7.7,0.1-15.7,1.3-24.3,3.7C320.4,125.7,313.8,128.4,308.4,131.4z"/>
		</g>
	</g>
</g>
<g transform="matrix( 1, 0, 0, 1, 0,0) ">
	<g>
		<g id="Layer0_8_MEMBER_1_FILL">
			<path class="st20" d="M301.5,138.6l15.3-7.8c12.1-5.2,23-7.8,32.7-7.7s17.4,0.9,23.1,2.2c2.9,0.7,4.7,1.4,5.6,2.1
				c-0.5-0.7-1.4-1.5-2.7-2.4c-2.6-1.7-5.9-2.8-9.9-3.2c-6.9-0.9-14.2-0.9-21.9,0c-10.9,1-19.7,3.5-26.7,7.5L301.5,138.6z"/>
		</g>
	</g>
</g>
<g transform="matrix( 1, 0, 0, 1, 0,0) ">
	<g>
		<g id="Layer0_9_MEMBER_0_FILL">
			<path class="st19" d="M275.5,160.7c17.6-0.7,36.4,0.3,56.5,3.2c15.4,2.1,29.8,5.1,43.3,8.8c8.9,2.6,15.7,6.1,20.4,10.7
				c2.3,2.2,3.8,4.3,4.3,6.1c1.9-2.1,2.1-5.1,0.5-8.8c-2.4-5.9-13-12-31.6-18.4c-9.9-3.4-23.5-6-40.9-7.8c-16-1.7-33.3-2.6-52-2.6
				c-14.8,0-30,0.9-45.5,2.7l-18.8,2.6c-1.5,0.9-2.3,2.6-2.6,5.1c-0.1,1.3-0.1,2.5,0.2,3.7l18.5-2.1
				C243.3,162.4,259.2,161.3,275.5,160.7z"/>
		</g>
	</g>
</g>
<g transform="matrix( 1, 0, 0, 1, 0,0) ">
	<g>
		<g id="Layer0_9_MEMBER_1_FILL">
			<path class="st20" d="M339.4,158.4c11.9,2,22,4.5,30.2,7.3c12.7,4.4,21.5,8.5,26.5,12.3c-0.5-1.1-2.1-2.4-4.8-4.1
				c-5.1-3.4-12.8-6.8-23-10.1c-8.1-2.7-17.9-4.7-29.4-6.1l-14.8-1.4L339.4,158.4z"/>
		</g>
	</g>
</g>
</svg>
