<?xml version="1.0" encoding="utf-8"?>
<!-- Generator: Adobe Illustrator 20.1.0, SVG Export Plug-In . SVG Version: 6.00 Build 0)  -->
<svg version="1.1" id="Layer_1" xmlns="http://www.w3.org/2000/svg" xmlns:xlink="http://www.w3.org/1999/xlink" x="0px" y="0px"
	 viewBox="0 0 1108 732" style="enable-background:new 0 0 1108 732;" xml:space="preserve">
<style type="text/css">
	.st0{enable-background:new    ;}
	.st1{filter:url(#Adobe_OpacityMaskFilter);}
	.st2{fill:#FFFFFF;}
	.st3{mask:url(#Mask_Mask_1_1_);}
	.st4{fill:url(#SVGID_1_);}
	.st5{fill:#1C2228;}
	.st6{fill:#1A2128;}
	.st7{fill:url(#SVGID_2_);}
</style>
<g class="st0">
	<g id="masked" transform="matrix( 1, 0, 0, 1, -0.45,-17.35) ">
		<defs>
			<filter id="Adobe_OpacityMaskFilter" filterUnits="userSpaceOnUse" x="26.1" y="46.9" width="1056.7" height="672.8">
				<feColorMatrix  type="matrix" values="1 0 0 0 0  0 1 0 0 0  0 0 1 0 0  0 0 0 1 0"/>
			</filter>
		</defs>
		<mask maskUnits="userSpaceOnUse" x="26.1" y="46.9" width="1056.7" height="672.8" id="Mask_Mask_1_1_">
			<g transform="matrix( 1, 0, 0, 1, 0,0) " class="st1">
				<g>
					<g id="Mask_FlashAICB_crack__Clip_Group_0__0_2_MASK_0_FILL_1_">
						<path class="st2" d="M1027.7,152.7L1072,201l-40.2-62.3l-74.4-2.1l-28.5-33.9l42.6-38.5l-846.3,2
							c10.7,9.4,21.8,19.6,33.2,30.7c22.8,22.1,35.8,37.4,39.2,45.8c3.3,8.1,4.3,20.1,3.1,35.9l-31.2,48.6l-48.2,10.1l-50.2,34.1
							l-44.2,10.1l44.2-2l54.3-34.2l54.2-8l18.1-36.2l14.1,30.1l-14.1,34.1l-2,46.2l14.1-48.2l20.1-38.2l-15.6-29.2l41.8-12.9
							l38.2,92.4l56.3-4l48.2,142.8l-14,54.2l18.1,54.3l-28.1,42.2l-42.2,16L290,619.1l-40.2,4l-42.2,46.2l50.2-34.2l36.2,2
							l56.3-48.2l38.1-14v40.2l-28.1,32.1v56.3l10.1-52.2l30.1-38.2l4-70.4l22.1-28.2l-14.1-62.4l30.1-54.2l12.1-64.3l70.4-4
							l54.3-52.2l42.2,2l46.2,14l16,38.2l88.5,18.1l60.3,44.2l12,34.2l-6-46.2l-58.3-46.2l32.2-22.1l70.3-36.1l-82.5,32.1
							l-48.2,26.1L692,319.6l-16-42.2l-29.7-19.8l61.8-54.6l58.3-24.1l54.2-54.3l88.5-4l36.2,24.1L1027.7,152.7z"/>
					</g>
				</g>
			</g>
		</mask>
		<g class="st3">
			<g transform="matrix( 1, 0, 0, 1, 0,0) ">
				<g>
					<g id="FlashAICB_crack__Clip_Group_0__0_Layer2_0_FILL">
						
							<linearGradient id="SVGID_1_" gradientUnits="userSpaceOnUse" x1="549.7639" y1="696.4506" x2="549.7639" y2="236.4006" gradientTransform="matrix(1 0 0 -1 -0.45 757.35)">
							<stop  offset="0" style="stop-color:#223A3B"/>
							<stop  offset="1" style="stop-color:#2F5D60"/>
						</linearGradient>
						<path class="st4" d="M1027.7,152.7L1072,201l-40.2-62.3l-74.4-2.1l-28.5-33.9l42.6-38.5l-846.3,2
							c10.7,9.4,21.8,19.6,33.2,30.7c22.8,22.1,35.8,37.4,39.2,45.8c3.3,8.1,4.3,20.1,3.1,35.9l-31.2,48.6l-48.2,10.1l-50.2,34.1
							l-44.2,10.1l44.2-2l54.3-34.2l54.2-8l18.1-36.2l14.1,30.1l-14.1,34.1l-2,46.2l14.1-48.2l20.1-38.2l-15.6-29.2l41.8-12.9
							l38.2,92.4l56.3-4l48.2,142.8l-14,54.2l18.1,54.3l-28.1,42.2l-42.2,16L290,619.1l-40.2,4l-42.2,46.2l50.2-34.2l36.2,2
							l56.3-48.2l38.1-14v40.2l-28.1,32.1v56.3l10.1-52.2l30.1-38.2l4-70.4l22.1-28.2l-14.1-62.4l30.1-54.2l12.1-64.3l70.4-4
							l54.3-52.2l42.2,2l46.2,14l16,38.2l88.5,18.1l60.3,44.2l12,34.2l-6-46.2l-58.3-46.2l32.2-22.1l70.3-36.1l-82.5,32.1
							l-48.2,26.1L692,319.6l-16-42.2l-29.7-19.8l61.8-54.6l58.3-24.1l54.2-54.3l88.5-4l36.2,24.1L1027.7,152.7z"/>
					</g>
				</g>
			</g>
			<g transform="matrix( 1, 0, 0, 1, 0,0) ">
				<g>
					<g id="FlashAICB_crack__Clip_Group_0__0_Layer2_1_FILL">
						<path class="st2" d="M273,203.9l1.4,8.9l2.4-9.6l6.2,0.7l-5.9-3.1l4.5-5.5l-7.6,3.8l-3.5-9.7l0.7,11.1l-8,2.1L273,203.9z"/>
					</g>
				</g>
			</g>
			<g transform="matrix( 1, 0, 0, 1, 0,0) ">
				<g>
					<g id="FlashAICB_crack__Clip_Group_0__0_Layer2_2_FILL">
						<path class="st2" d="M437.6,128.8l11.5,4.6l-8.2-7.4l10.5-6.4l-12.9,4.1l-2.8-12.3l-2.2,12.8l-11.4-5l7.8,9.6l-15.6,5.5
							l20.2-4.1l-4.1,17.4L437.6,128.8z"/>
					</g>
				</g>
			</g>
			<g transform="matrix( 1, 0, 0, 1, 0,0) ">
				<g>
					<g id="FlashAICB_crack__Clip_Group_0__0_Layer2_3_FILL">
						<path class="st2" d="M457,329.9l-11.5-5l7.8,9.6l-15.5,5.5l20.1-4.1l-4.1,17.4l7.3-18.8l11.4,4.5l-8.2-7.3l10.6-6.4l-12.9,4.1
							l-2.8-12.3L457,329.9z"/>
					</g>
				</g>
			</g>
			<g transform="matrix( 1, 0, 0, 1, 0,0) ">
				<g>
					<g id="FlashAICB_crack__Clip_Group_0__0_Layer2_4_FILL">
						<path class="st2" d="M610.7,276.2l-15.5,5.5l20.1-4.2l-4.1,17.4l7.3-18.8l11.5,4.6l-8.2-7.3l10.5-6.4l-12.8,4.1l-2.8-12.4
							l-2.2,12.8l-11.5-5L610.7,276.2z"/>
					</g>
				</g>
			</g>
			<g transform="matrix( 1, 0, 0, 1, 0,0) ">
				<g>
					<g id="FlashAICB_crack__Clip_Group_0__0_Layer2_5_FILL">
						<path class="st2" d="M520.9,242.3l5.5-7.9l-9,6.6l-1-12.4l-1,13.4l-18.2,2.4l17.2,1.1l0.7,16.8l3.5-16.8l9.6,3.1L520.9,242.3z
							"/>
					</g>
				</g>
			</g>
			<g transform="matrix( 1, 0, 0, 1, 0,0) ">
				<g>
					<g id="FlashAICB_crack__Clip_Group_0__0_Layer2_6_FILL">
						<path class="st2" d="M899.4,111.1l-40.6,5.4l38.3,2.3l1.5,37.5l7.7-37.5l21.5,6.9l-16-13.8l12.2-17.6L904,108.8l-2.3-27.6
							L899.4,111.1z"/>
					</g>
				</g>
			</g>
			<g transform="matrix( 1, 0, 0, 1, 0,0) ">
				<g>
					<g id="FlashAICB_crack__Clip_Group_0__0_Layer2_7_FILL">
						<path class="st2" d="M711.5,137l-2.9-13.6l-0.4,15.5l-18.4,9.2l19.3-3.4l6.3,6.3l-2-11.1l6.8-5.4L711.5,137z"/>
					</g>
				</g>
			</g>
			<g transform="matrix( 1, 0, 0, 1, 0,0) ">
				<g>
					<g id="FlashAICB_crack__Clip_Group_0__0_Layer2_8_FILL">
						<path class="st2" d="M233.5,88.2l-4.4-5l-1,6.5l-6-0.5l7,3.5l-1,7.9l3.9-6.4l6,3.4l-5-6.9l10.9-3L233.5,88.2z"/>
					</g>
				</g>
			</g>
			<g transform="matrix( 1, 0, 0, 1, 0,0) ">
				<g>
					<g id="FlashAICB_crack__Clip_Group_0__0_Layer2_9_FILL">
						<path class="st2" d="M394.9,335.2l3.6,8.5l0.6-10.9h7.8l-8.4-3l3.6-11.4l-6.6,9l-12.6-5.5l10.2,9.1l-9.6,5.4L394.9,335.2z"/>
					</g>
				</g>
			</g>
			<g transform="matrix( 1, 0, 0, 1, 0,0) ">
				<g>
					<g id="FlashAICB_crack__Clip_Group_0__0_Layer2_10_FILL">
						<path class="st2" d="M528.8,81.5l-12.6-5.4l10.2,9.1l-9.7,5.4l11.5-1.2l3.6,8.4l0.6-10.9h7.8l-8.5-3l3.7-11.4L528.8,81.5z"/>
					</g>
				</g>
			</g>
			<g transform="matrix( 1, 0, 0, 1, 0,0) ">
				<g>
					<g id="FlashAICB_crack__Clip_Group_0__0_Layer2_11_FILL">
						<path class="st5" d="M203.1,181.8c0.9-2.1,1.3-5.4,1.2-9.9c-0.2-4.7-0.9-9.6-2.2-14.5c-3.3-12.8-9-21.4-17.1-25.9
							c-7.9-4.4-22.7-16.8-44.6-37.4C129.5,83.8,119.4,74,110,64.5c-0.8-3.2-3.3-6.4-7.7-9.4c-8.7-6.2-22-8.8-39.9-8
							S33.2,87.2,28.5,165c-2.4,38.9-3,77.7-1.8,116.4l43.2-5.1l54.2-34.2l51.6-12.8C191.7,203,200.9,187.1,203.1,181.8z"/>
					</g>
				</g>
			</g>
			<g transform="matrix( 1, 0, 0, 1, 0,0) ">
				<g>
					<g id="FlashAICB_crack__Clip_Group_0__0_Layer2_12_FILL">
						<path class="st5" d="M173,299c-0.8,0.8,2.6,2.8,10.3,5.8c3.9,1.5,7.8,2.9,11.8,4.2l7.4-42.2l7.4-16l1.8-19.7
							C187.2,275,174.3,297.7,173,299z"/>
					</g>
				</g>
			</g>
			<g transform="matrix( 1, 0, 0, 1, 0,0) ">
				<g>
					<g id="FlashAICB_crack__Clip_Group_0__0_Layer2_13_FILL">
						<path class="st5" d="M280.2,213.9l-24.3-31.1l27.7,98.7l18.1-0.6L280.2,213.9z"/>
					</g>
				</g>
			</g>
			<g transform="matrix( 1, 0, 0, 1, 0,0) ">
				<g>
					<g id="FlashAICB_crack__Clip_Group_0__0_Layer2_14_FILL">
						<path class="st5" d="M370.6,293l-20.3-21.7c-24.3,44.1-48.5,88.3-72.5,132.6c-48.1,88.5-71.4,133-70,133.6
							c1.1,0.4,1,22.9-0.2,67.5c-1.3,43.8-1.3,65.3,0,64.3c0.1,0,8.1-6.7,24.2-20.1c14.5-12,22.1-17.9,22.9-17.9l38.9-2.7l43.5-38.9
							l42.9-19.4l28.8-47.6l-16.8-54.2l14.8-55L370.6,293z"/>
					</g>
				</g>
			</g>
			<g transform="matrix( 1, 0, 0, 1, 0,0) ">
				<g>
					<g id="FlashAICB_crack__Clip_Group_0__0_Layer2_15_FILL">
						<path class="st5" d="M394.1,621.3l3.4-22.8l-9-23.6l-28.9,62.6c-19.1,41.9-28.4,63.3-27.9,64.2c0.6,0.8,7.4,4.1,20.6,9.8
							c6.6,2.9,13.1,5.6,19.6,8.3L394.1,621.3z"/>
					</g>
				</g>
			</g>
			<g transform="matrix( 1, 0, 0, 1, 0.45,17.35) ">
				<g transform="matrix( 1, 0, 0, 1, 641.25,229.15) ">
					<g transform="matrix( 1, 0, 0, 1, 0,0) ">
						<g>
							<g id="FlashAICB_crack__Path__21_0_Layer0_0_FILL_9_">
								<path class="st6" d="M206.6,234.1l3.4-81.8l-70.4-52.9L50.3,73.1L26.2,46.9c0.7,12.9,1.3,25.6,1.8,38.3
									c1,23.3,1.1,35.4,0.5,36.3c2.7,1.2,32.1,19.6,88.2,55.3C146.6,195.8,176.6,214.9,206.6,234.1z"/>
							</g>
						</g>
					</g>
				</g>
			</g>
			<g transform="matrix( 1, 0, 0, 1, 0,0) ">
				<g>
					<g id="FlashAICB_crack__Clip_Group_0__0_Layer2_17_FILL">
						<path class="st5" d="M810.1,293.6l-57.8,42.1l80-26.6l71.7-34.2c-5.2-3.9-10.6-7.8-16.1-11.7c-10.9-7.8-17-11.7-18.1-11.7
							C868.7,251.4,848.8,265.5,810.1,293.6z"/>
					</g>
				</g>
			</g>
			<g transform="matrix( 1, 0, 0, 1, 0,0) ">
				<g>
					<g id="FlashAICB_crack__Clip_Group_0__0_Layer2_18_FILL">
						<path class="st5" d="M1058.1,238.7c0.8,0.3,5.2-5.8,13.2-18.2c3.9-6.2,7.8-12.4,11.6-18.7l-40.8-52.9l-91.8-13.4l-41-14.9
							l-1.4,4c-0.9,3.4-1.3,6.8-1.2,10.3c0.2,11,5.2,20.4,14.8,28.1c18.3,14.6,46.3,31.5,84.2,50.8
							C1024.6,223.4,1042.1,231.8,1058.1,238.7z"/>
					</g>
				</g>
			</g>
			<g transform="matrix( 1, 0, 0, 1, 0,0) ">
				<g>
					<g id="FlashAICB_crack__Clip_Group_0__0_Layer2_19_FILL">
						<path class="st2" d="M368.8,188.4l-8.6-5.6l6.5,7.7l-9.5,3.2l12.5-0.3l-3,11.3l6.2-12.8l5.9,9.4l-2.4-10.4l11.6-2.4l-11.9,0.3
							l3-8.3l-6.6,7.4l-3.5-10.4L368.8,188.4z"/>
					</g>
				</g>
			</g>
			<g transform="matrix( 1, 0, 0, 1, 0,0) ">
				<g>
					<g id="FlashAICB_crack__Clip_Group_0__0_Layer2_20_FILL">
						<path class="st2" d="M576.3,156.2l-12.3-2.9l-3.5-12.4l-1.2,13.6l-12.3,1.1l11.8,2.9v11.2l7-11.8L576.3,156.2z"/>
					</g>
				</g>
			</g>
			<g transform="matrix( 1, 0, 0, 1, 0,0) ">
				<g>
					<g id="FlashAICB_crack__Clip_Group_0__0_Layer2_21_FILL">
						<path class="st2" d="M615,200.5l-8.7-2.1l-2.5-8.7l-0.8,9.5l-8.8,0.8l8.3,2.1v7.9l5-8.3L615,200.5z"/>
					</g>
				</g>
			</g>
			<g transform="matrix( 1, 0, 0, 1, 0,0) ">
				<g>
					<g id="FlashAICB_crack__Clip_Group_0__0_Layer2_22_FILL">
						<path class="st2" d="M404,484.2l-2.5-8.7l-0.9,9.5l-8.7,0.8l8.3,2.1v7.9l5-8.2l7.5-1.2L404,484.2z"/>
					</g>
				</g>
			</g>
			<g transform="matrix( 1, 0, 0, 1, 0,0) ">
				<g>
					<g id="FlashAICB_crack__Clip_Group_0__0_Layer2_23_FILL">
						<path class="st2" d="M776.6,334.9l-2.5-8.7l-0.8,9.5l-8.7,0.9l8.3,2.1v7.9l5-8.3l7.4-1.2L776.6,334.9z"/>
					</g>
				</g>
			</g>
			<g transform="matrix( 1, 0, 0, 1, 0,0) ">
				<g>
					<g id="FlashAICB_crack__Clip_Group_0__0_Layer2_24_FILL">
						<path class="st2" d="M399.9,566.7l-2.5-8.7l-0.9,9.6l-8.7,0.8l8.3,2.1v7.9l5-8.2l7.5-1.2L399.9,566.7z"/>
					</g>
				</g>
			</g>
			<g transform="matrix( 1, 0, 0, 1, 0,0) ">
				<g>
					<g id="FlashAICB_crack__Clip_Group_0__0_Layer2_25_FILL">
						<path class="st2" d="M308.6,144.1l-2.5-8.7l-0.9,9.5l-8.7,0.9l8.3,2.1v7.9l5-8.3l7.5-1.2L308.6,144.1z"/>
					</g>
				</g>
			</g>
			<g transform="matrix( 1, 0, 0, 1, 0,0) ">
				<g>
					<g id="FlashAICB_crack__Clip_Group_0__0_Layer2_26_FILL">
						<path class="st2" d="M328.4,255.2l-8.8-2.1l-2.5-8.7l-0.9,9.5l-8.7,0.8l8.3,2.1v7.9l5-8.3L328.4,255.2z"/>
					</g>
				</g>
			</g>
			<g transform="matrix( 1, 0, 0, 1, 0,0) ">
				<g>
					<g id="FlashAICB_crack__Clip_Group_0__0_Layer2_27_FILL">
						<path class="st2" d="M419.9,236.7l-2.5-8.7l-0.9,9.5l-8.7,0.8l8.3,2.1v7.8l5-8.2l7.5-1.2L419.9,236.7z"/>
					</g>
				</g>
			</g>
			<g transform="matrix( 1, 0, 0, 1, 0,0) ">
				<g>
					<g id="FlashAICB_crack__Clip_Group_0__0_Layer2_28_FILL">
						<path class="st2" d="M653.3,134.7l-2.5-8.7l-0.8,9.6l-8.7,0.8l8.3,2.1v7.8l5-8.2l7.5-1.2L653.3,134.7z"/>
					</g>
				</g>
			</g>
			<g transform="matrix( 1, 0, 0, 1, 0,0) ">
				<g>
					<g id="FlashAICB_crack__Clip_Group_0__0_Layer2_29_FILL">
						<path class="st2" d="M751.7,174.6v7.9l5-8.3l7.4-1.2l-8.7-2.1l-2.5-8.7l-0.9,9.5l-8.7,0.8L751.7,174.6z"/>
					</g>
				</g>
			</g>
			<g transform="matrix( 1, 0, 0, 1, 0,0) ">
				<g>
					<g id="FlashAICB_crack__Clip_Group_0__0_Layer2_30_FILL">
						<path class="st2" d="M756,101.6l7.5-1.2l-8.7-2.1l-2.5-8.8l-0.8,9.6l-8.8,0.8l8.3,2.1v7.9L756,101.6z"/>
					</g>
				</g>
			</g>
			<g transform="matrix( 1, 0, 0, 1, 0,0) ">
				<g>
					<g id="FlashAICB_crack__Clip_Group_0__0_Layer2_31_FILL">
						<path class="st2" d="M640.8,236.8l6.2,0.7l-5.9-3.1l4.5-5.6l-7.6,3.8l-3.5-9.6l0.7,11.1l-8,2l9.7,1.4l1.4,8.9L640.8,236.8z"/>
					</g>
				</g>
			</g>
			<g transform="matrix( 1, 0, 0, 1, 0,0) ">
				<g>
					<g id="FlashAICB_crack__Clip_Group_0__0_Layer2_32_FILL">
						<path class="st2" d="M451.6,206.1l-8,2.1l9.6,1.4l1.4,9l2.4-9.7l6.2,0.7l-5.8-3.1l4.5-5.6l-7.6,3.8l-3.5-9.7L451.6,206.1z"/>
					</g>
				</g>
			</g>
			<g transform="matrix( 1, 0, 0, 1, 0,0) ">
				<g>
					<g id="FlashAICB_crack__Clip_Group_0__0_Layer2_33_FILL">
						<path class="st2" d="M225.6,141.1l-7.5,3.8l-3.5-9.7l0.7,11.1l-7.9,2.1l9.7,1.4l1.4,8.9l2.4-9.6l6.2,0.7l-5.9-3.1L225.6,141.1
							z"/>
					</g>
				</g>
			</g>
			<g transform="matrix( 1, 0, 0, 1, 0,0) ">
				<g>
					<g id="FlashAICB_crack__Clip_Group_0__0_Layer2_34_FILL">
						<path class="st2" d="M356.2,86.1l1.4,8.9l2.4-9.6l6.2,0.7l-5.9-3.1l4.5-5.5l-7.6,3.8l-3.5-9.7l0.7,11.1l-8,2.1L356.2,86.1z"/>
					</g>
				</g>
			</g>
			<g transform="matrix( 1, 0, 0, 1, 0,0) ">
				<g>
					<g id="FlashAICB_crack__Clip_Group_0__0_Layer2_35_FILL">
						<path class="st2" d="M423.5,419l-7.9,2.1l9.6,1.4l1.4,9l2.4-9.7l6.2,0.7l-5.9-3.1l4.5-5.5l-7.6,3.8l-3.5-9.6L423.5,419z"/>
					</g>
				</g>
			</g>
			<g transform="matrix( 1, 0, 0, 1, 0,0) ">
				<g>
					<g id="FlashAICB_crack__Clip_Group_0__0_Layer2_36_FILL">
						<path class="st2" d="M827.4,94.2L820,83.5l2.9,12.1l-14.6,7.1l16-4l8.6,12.5L829,98l8.7-7.7L827.4,94.2z"/>
					</g>
				</g>
			</g>
			<g transform="matrix( 1, 0, 0, 1, 0,0) ">
				<g>
					<g id="FlashAICB_crack__Clip_Group_0__0_Layer2_37_FILL">
						<path class="st2" d="M622.1,81.3l-14.6,7.2l16-3.9l8.6,12.5l-3.9-13.3l8.7-7.7l-10.3,4l-7.3-10.8L622.1,81.3z"/>
					</g>
				</g>
			</g>
		</g>
	</g>
	<g id="topmask" transform="matrix( 1, 0, 0, 1, 522.65,639.25) ">
		<g transform="matrix( 1, 0, 0, 1, 0,0) ">
			<g>
				<g id="topmask_0_Layer0_0_FILL">
					
						<linearGradient id="SVGID_2_" gradientUnits="userSpaceOnUse" x1="-496.4361" y1="696.4506" x2="-496.4361" y2="236.4006" gradientTransform="matrix(1 0 0 -1 522.65 100.75)">
						<stop  offset="0.2549" style="stop-color:#FFFFFF"/>
						<stop  offset="1" style="stop-color:#FFFFFF;stop-opacity:0"/>
					</linearGradient>
					<path class="st7" d="M405.8-553.8l42.6-38.5l-846.3,2c10.7,9.4,21.8,19.6,33.1,30.7c22.8,22.1,35.8,37.4,39.2,45.8
						c3.3,8.1,4.3,20,3.1,35.8l-31.2,48.6l-48.2,10l-50.2,34.1l-44.2,10.1l44.2-2l54.3-34.2l54.2-8l18.1-36.2l14.1,30.1l-14.1,34.1
						l-2,46.2l14-48.2l20.1-38.2l-15.6-29.2l41.8-13l38.2,92.5l56.3-4l48.2,142.8l-14.1,54.3l18.1,54.3l-28.1,42.2l-42.2,16
						l-42.2,38.2l-40.2,4l-42.2,46.2l50.2-34.1l36.2,2l56.3-48.2l38.1-14v40.2l-28.1,32.2v56.3l10.1-52.2l30.1-38.2l4-70.4
						l22.1-28.1l-14-62.4l30.1-54.2l12.1-64.4l70.3-4l54.3-52.2l42.2,2l46.2,14l16.1,38.2l88.5,18.1l60.4,44.2l12,34.2l-6-46.3
						l-58.3-46.2l32.2-22.1l70.4-36.1l-82.5,32.1l-48.2,26.1L168.9-337l-16.1-42.2L123.2-399l61.8-54.6l58.3-24.1l54.2-54.3l88.4-4
						l36.2,24.1l82.4,8l44.3,48.2l-40.2-62.3l-74.4-2.1L405.8-553.8z"/>
				</g>
			</g>
		</g>
	</g>
</g>
</svg>
