<?xml version="1.0" encoding="utf-8"?>
<!-- Generator: Adobe Illustrator 20.1.0, SVG Export Plug-In . SVG Version: 6.00 Build 0)  -->
<svg version="1.1" id="Layer_1" xmlns="http://www.w3.org/2000/svg" xmlns:xlink="http://www.w3.org/1999/xlink" x="0px" y="0px"
	 viewBox="0 0 1114.4 689" style="enable-background:new 0 0 1114.4 689;" xml:space="preserve">
<style type="text/css">
	.st0{enable-background:new    ;}
	.st1{filter:url(#Adobe_OpacityMaskFilter);}
	.st2{fill:#FFFFFF;}
	.st3{mask:url(#Mask_Mask_1_1_);}
	.st4{fill:url(#SVGID_1_);}
	.st5{fill:#1C2228;}
	.st6{fill:#1A2128;}
</style>
<g class="st0">
	<g transform="matrix( 1, 0, 0, 1, -0.45,-17.35) ">
		<defs>
			<filter id="Adobe_OpacityMaskFilter" filterUnits="userSpaceOnUse" x="29.3" y="25.4" width="1056.7" height="672.8">
				<feColorMatrix  type="matrix" values="1 0 0 0 0  0 1 0 0 0  0 0 1 0 0  0 0 0 1 0"/>
			</filter>
		</defs>
		<mask maskUnits="userSpaceOnUse" x="29.3" y="25.4" width="1056.7" height="672.8" id="Mask_Mask_1_1_">
			<g transform="matrix( 1, 0, 0, 1, 0,0) " class="st1">
				<g>
					<g id="Mask_FlashAICB_crack__Clip_Group_0__0_2_MASK_0_FILL_1_">
						<path class="st2" d="M1030.9,131.2l44.2,48.2l-40.2-62.3l-74.4-2.1l-28.5-33.8l42.6-38.5l-846.3,2
							c10.7,9.4,21.8,19.6,33.2,30.7c22.8,22.1,35.8,37.4,39.2,45.8c3.3,8.1,4.3,20.1,3.1,35.8l-31.2,48.6l-48.2,10.1l-50.2,34.1
							l-44.2,10.1l44.2-2l54.3-34.2l54.2-8l18.1-36.2l14.1,30.1l-14.1,34.2l-2,46.3l14.1-48.3l20.1-38.2l-15.6-29.2l41.8-12.9
							l38.2,92.4l56.3-4l48.2,142.8l-14,54.2l18.1,54.3l-28.1,42.2l-42.2,16l-42.2,38.2l-40.2,4l-42.2,46.2l50.2-34.2l36.2,2
							l56.3-48.2l38.1-14v40.2l-28.1,32.1V682l10.1-52.2l30.1-38.2l4-70.4l22.1-28.1l-14.1-62.4l30.1-54.2l12.1-64.3l70.4-4
							l54.3-52.3l42.2,2l46.2,14.1l16,38.2l88.5,18.1l60.3,44.2l12,34.2l-6-46.2l-58.3-46.2l32.2-22.1l70.3-36.2L803.8,288
							l-48.2,26.1l-60.3-16.1l-16-42.2l-29.7-19.8l61.8-54.6l58.3-24.1l54.2-54.3l88.5-4l36.2,24.1L1030.9,131.2z"/>
					</g>
				</g>
			</g>
		</mask>
		<g class="st3">
			<g transform="matrix( 1, 0, 0, 1, 0,0) ">
				<g>
					<g id="FlashAICB_crack__Clip_Group_0__0_Layer2_0_FILL">
						
							<linearGradient id="SVGID_1_" gradientUnits="userSpaceOnUse" x1="552.9861" y1="652.8008" x2="552.9861" y2="192.7508" gradientTransform="matrix(1 0 0 -1 -0.45 692.1988)">
							<stop  offset="0" style="stop-color:#223A3B"/>
							<stop  offset="1" style="stop-color:#2F5D60"/>
						</linearGradient>
						<path class="st4" d="M1030.9,131.2l44.2,48.2l-40.2-62.3l-74.4-2.1l-28.5-33.8l42.6-38.5l-846.3,2
							c10.7,9.4,21.8,19.6,33.2,30.7c22.8,22.1,35.8,37.4,39.2,45.8c3.3,8.1,4.3,20.1,3.1,35.8l-31.2,48.6l-48.2,10.1l-50.2,34.1
							l-44.2,10.1l44.2-2l54.3-34.2l54.2-8l18.1-36.2l14.1,30.1l-14.1,34.2l-2,46.3l14.1-48.3l20.1-38.2l-15.6-29.2l41.8-12.9
							l38.2,92.4l56.3-4l48.2,142.8l-14,54.2l18.1,54.3l-28.1,42.2l-42.2,16l-42.2,38.2l-40.2,4l-42.2,46.2l50.2-34.2l36.2,2
							l56.3-48.2l38.1-14v40.2l-28.1,32.1V682l10.1-52.2l30.1-38.2l4-70.4l22.1-28.1l-14.1-62.4l30.1-54.2l12.1-64.3l70.4-4
							l54.3-52.3l42.2,2l46.2,14.1l16,38.2l88.5,18.1l60.3,44.2l12,34.2l-6-46.2l-58.3-46.2l32.2-22.1l70.3-36.2L803.8,288
							l-48.2,26.1l-60.3-16.1l-16-42.2l-29.7-19.8l61.8-54.6l58.3-24.1l54.2-54.3l88.5-4l36.2,24.1L1030.9,131.2z"/>
					</g>
				</g>
			</g>
			<g transform="matrix( 1, 0, 0, 1, 0,0) ">
				<g>
					<g id="FlashAICB_crack__Clip_Group_0__0_Layer2_1_FILL">
						<path class="st2" d="M276.2,182.4l1.4,8.9l2.4-9.6l6.2,0.7l-5.8-3.1l4.5-5.5l-7.6,3.8l-3.5-9.7l0.7,11.1l-8,2.1L276.2,182.4z"
							/>
					</g>
				</g>
			</g>
			<g transform="matrix( 1, 0, 0, 1, 0,0) ">
				<g>
					<g id="FlashAICB_crack__Clip_Group_0__0_Layer2_2_FILL">
						<path class="st2" d="M440.8,107.3l11.5,4.6l-8.2-7.3l10.5-6.4l-12.9,4.1L439,89.9l-2.2,12.8l-11.4-5l7.8,9.6l-15.6,5.5
							l20.2-4.2l-4.1,17.4L440.8,107.3z"/>
					</g>
				</g>
			</g>
			<g transform="matrix( 1, 0, 0, 1, 0,0) ">
				<g>
					<g id="FlashAICB_crack__Clip_Group_0__0_Layer2_3_FILL">
						<path class="st2" d="M460.2,308.4l-11.5-5l7.8,9.6l-15.5,5.5l20.1-4.1l-4.1,17.4l7.3-18.8l11.4,4.5l-8.2-7.3l10.6-6.4
							l-12.9,4.1l-2.8-12.3L460.2,308.4z"/>
					</g>
				</g>
			</g>
			<g transform="matrix( 1, 0, 0, 1, 0,0) ">
				<g>
					<g id="FlashAICB_crack__Clip_Group_0__0_Layer2_4_FILL">
						<path class="st2" d="M613.9,254.7l-15.5,5.5l20.1-4.1l-4.1,17.4l7.3-18.8l11.5,4.6l-8.2-7.4l10.5-6.4l-12.8,4.1l-2.8-12.4
							l-2.2,12.8l-11.5-5L613.9,254.7z"/>
					</g>
				</g>
			</g>
			<g transform="matrix( 1, 0, 0, 1, 0,0) ">
				<g>
					<g id="FlashAICB_crack__Clip_Group_0__0_Layer2_5_FILL">
						<path class="st2" d="M524.1,220.8l5.5-7.9l-9,6.6l-1-12.4l-1,13.4l-18.3,2.4l17.2,1.1l0.7,16.9l3.5-16.9l9.6,3.1L524.1,220.8z
							"/>
					</g>
				</g>
			</g>
			<g transform="matrix( 1, 0, 0, 1, 0,0) ">
				<g>
					<g id="FlashAICB_crack__Clip_Group_0__0_Layer2_6_FILL">
						<path class="st2" d="M902.6,89.6L862,95l38.3,2.3l1.5,37.5l7.7-37.5l21.5,6.9l-16-13.8l12.2-17.6l-19.9,14.6l-2.3-27.6
							L902.6,89.6z"/>
					</g>
				</g>
			</g>
			<g transform="matrix( 1, 0, 0, 1, 0,0) ">
				<g>
					<g id="FlashAICB_crack__Clip_Group_0__0_Layer2_7_FILL">
						<path class="st2" d="M714.7,115.5l-2.9-13.6l-0.4,15.4l-18.4,9.2l19.3-3.4l6.3,6.3l-2-11.1l6.8-5.3L714.7,115.5z"/>
					</g>
				</g>
			</g>
			<g transform="matrix( 1, 0, 0, 1, 0,0) ">
				<g>
					<g id="FlashAICB_crack__Clip_Group_0__0_Layer2_8_FILL">
						<path class="st2" d="M236.7,66.7l-4.4-5l-1,6.5l-6-0.5l7,3.5l-1,8l3.9-6.5l6,3.5l-5-7l10.9-3L236.7,66.7z"/>
					</g>
				</g>
			</g>
			<g transform="matrix( 1, 0, 0, 1, 0,0) ">
				<g>
					<g id="FlashAICB_crack__Clip_Group_0__0_Layer2_9_FILL">
						<path class="st2" d="M398.1,313.7l3.6,8.5l0.6-10.9h7.8l-8.4-3l3.6-11.4l-6.6,9l-12.6-5.5l10.2,9.1l-9.6,5.4L398.1,313.7z"/>
					</g>
				</g>
			</g>
			<g transform="matrix( 1, 0, 0, 1, 0,0) ">
				<g>
					<g id="FlashAICB_crack__Clip_Group_0__0_Layer2_10_FILL">
						<path class="st2" d="M532,60l-12.6-5.4l10.2,9l-9.7,5.5l11.5-1.2l3.6,8.5l0.6-10.9h7.8l-8.5-3l3.7-11.5L532,60z"/>
					</g>
				</g>
			</g>
			<g transform="matrix( 1, 0, 0, 1, 0,0) ">
				<g>
					<g id="FlashAICB_crack__Clip_Group_0__0_Layer2_11_FILL">
						<path class="st5" d="M206.3,160.3c0.9-2.1,1.3-5.4,1.2-9.9c-0.2-4.7-0.9-9.6-2.2-14.5c-3.3-12.8-9-21.4-17.1-25.9
							c-7.9-4.4-22.7-16.8-44.6-37.4c-10.9-10.3-21.1-20.1-30.4-29.6c-0.8-3.2-3.3-6.4-7.7-9.5c-8.7-6.2-22-8.8-39.9-8
							c-17.9,0.8-29.2,40.1-34,117.9c-2.4,38.9-3,77.7-1.8,116.4l43.1-5.1l54.2-34.2l51.6-12.8C195,181.5,204.1,165.6,206.3,160.3z"
							/>
					</g>
				</g>
			</g>
			<g transform="matrix( 1, 0, 0, 1, 0,0) ">
				<g>
					<g id="FlashAICB_crack__Clip_Group_0__0_Layer2_12_FILL">
						<path class="st5" d="M176.2,277.5c-0.8,0.8,2.6,2.8,10.3,5.8c3.9,1.5,7.8,2.9,11.8,4.2l7.4-42.3l7.4-16l1.8-19.7
							C190.4,253.5,177.5,276.2,176.2,277.5z"/>
					</g>
				</g>
			</g>
			<g transform="matrix( 1, 0, 0, 1, 0,0) ">
				<g>
					<g id="FlashAICB_crack__Clip_Group_0__0_Layer2_13_FILL">
						<path class="st5" d="M283.4,192.4L259,161.4l27.7,98.7l18.1-0.6L283.4,192.4z"/>
					</g>
				</g>
			</g>
			<g transform="matrix( 1, 0, 0, 1, 0,0) ">
				<g>
					<g id="FlashAICB_crack__Clip_Group_0__0_Layer2_14_FILL">
						<path class="st5" d="M373.8,271.5l-20.3-21.7c-24.3,44.1-48.5,88.3-72.5,132.6c-48.1,88.5-71.4,133-70,133.6
							c1.1,0.4,1,22.9-0.2,67.5c-1.3,43.8-1.3,65.3,0,64.3c0.1,0,8.1-6.7,24.2-20.1c14.5-12,22.1-17.9,22.9-17.9l38.9-2.7l43.5-38.9
							l42.9-19.4l28.8-47.6L395.3,447l14.8-55L373.8,271.5z"/>
					</g>
				</g>
			</g>
			<g transform="matrix( 1, 0, 0, 1, 0,0) ">
				<g>
					<g id="FlashAICB_crack__Clip_Group_0__0_Layer2_15_FILL">
						<path class="st5" d="M397.3,599.8l3.4-22.8l-9-23.6L362.8,616c-19.1,41.9-28.4,63.3-27.9,64.2c0.6,0.8,7.4,4.1,20.6,9.8
							c6.6,2.9,13.1,5.6,19.6,8.3L397.3,599.8z"/>
					</g>
				</g>
			</g>
			<g transform="matrix( 1, 0, 0, 1, 0.45,17.35) ">
				<g transform="matrix( 1, 0, 0, 1, 641.25,229.15) ">
					<g transform="matrix( 1, 0, 0, 1, 0,0) ">
						<g>
							<g id="FlashAICB_crack__Path__21_0_Layer0_0_FILL_9_">
								<path class="st6" d="M209.8,212.6l3.4-81.7l-70.3-52.9L53.5,51.6L29.4,25.4c0.7,12.9,1.3,25.6,1.9,38.3
									c1,23.3,1.1,35.4,0.5,36.3c2.7,1.2,32.1,19.6,88.2,55.2C149.9,174.3,179.8,193.4,209.8,212.6z"/>
							</g>
						</g>
					</g>
				</g>
			</g>
			<g transform="matrix( 1, 0, 0, 1, 0,0) ">
				<g>
					<g id="FlashAICB_crack__Clip_Group_0__0_Layer2_17_FILL">
						<path class="st5" d="M813.3,272.1l-57.8,42.1l80-26.6l71.7-34.2c-5.2-3.9-10.6-7.8-16.1-11.7c-10.9-7.8-17-11.8-18.1-11.8
							C871.9,229.9,852,244,813.3,272.1z"/>
					</g>
				</g>
			</g>
			<g transform="matrix( 1, 0, 0, 1, 0,0) ">
				<g>
					<g id="FlashAICB_crack__Clip_Group_0__0_Layer2_18_FILL">
						<path class="st5" d="M1061.3,217.2c0.8,0.3,5.2-5.8,13.2-18.2c3.9-6.2,7.8-12.4,11.6-18.7l-40.8-52.9L953.4,114l-41-14.9
							l-1.4,4c-0.9,3.4-1.3,6.8-1.2,10.2c0.2,11,5.2,20.4,14.8,28.1c18.3,14.6,46.3,31.5,84.2,50.8
							C1027.8,201.9,1045.3,210.3,1061.3,217.2z"/>
					</g>
				</g>
			</g>
			<g transform="matrix( 1, 0, 0, 1, 0,0) ">
				<g>
					<g id="FlashAICB_crack__Clip_Group_0__0_Layer2_19_FILL">
						<path class="st2" d="M372,166.9l-8.6-5.6l6.5,7.7l-9.5,3.2l12.5-0.3l-3,11.3l6.2-12.8l5.9,9.4l-2.4-10.4l11.6-2.4l-11.9,0.3
							l3-8.3l-6.6,7.4l-3.5-10.4L372,166.9z"/>
					</g>
				</g>
			</g>
			<g transform="matrix( 1, 0, 0, 1, 0,0) ">
				<g>
					<g id="FlashAICB_crack__Clip_Group_0__0_Layer2_20_FILL">
						<path class="st2" d="M579.5,134.7l-12.3-2.9l-3.5-12.3l-1.2,13.5l-12.3,1.2l11.8,2.9v11.1l7-11.8L579.5,134.7z"/>
					</g>
				</g>
			</g>
			<g transform="matrix( 1, 0, 0, 1, 0,0) ">
				<g>
					<g id="FlashAICB_crack__Clip_Group_0__0_Layer2_21_FILL">
						<path class="st2" d="M618.2,179l-8.7-2.1l-2.5-8.7l-0.8,9.5l-8.8,0.8l8.3,2.1v7.9l5-8.3L618.2,179z"/>
					</g>
				</g>
			</g>
			<g transform="matrix( 1, 0, 0, 1, 0,0) ">
				<g>
					<g id="FlashAICB_crack__Clip_Group_0__0_Layer2_22_FILL">
						<path class="st2" d="M407.2,462.7l-2.5-8.7l-0.9,9.5l-8.7,0.8l8.3,2.1v7.9l5-8.2l7.5-1.2L407.2,462.7z"/>
					</g>
				</g>
			</g>
			<g transform="matrix( 1, 0, 0, 1, 0,0) ">
				<g>
					<g id="FlashAICB_crack__Clip_Group_0__0_Layer2_23_FILL">
						<path class="st2" d="M779.8,313.4l-2.5-8.7l-0.8,9.5l-8.7,0.9l8.3,2.1v7.9l5-8.3l7.4-1.2L779.8,313.4z"/>
					</g>
				</g>
			</g>
			<g transform="matrix( 1, 0, 0, 1, 0,0) ">
				<g>
					<g id="FlashAICB_crack__Clip_Group_0__0_Layer2_24_FILL">
						<path class="st2" d="M403.1,545.2l-2.5-8.7l-0.9,9.6l-8.7,0.8l8.3,2.1v7.9l5-8.2l7.5-1.2L403.1,545.2z"/>
					</g>
				</g>
			</g>
			<g transform="matrix( 1, 0, 0, 1, 0,0) ">
				<g>
					<g id="FlashAICB_crack__Clip_Group_0__0_Layer2_25_FILL">
						<path class="st2" d="M311.8,122.6l-2.5-8.7l-0.9,9.5l-8.7,0.9l8.3,2.1v7.8l5-8.3l7.5-1.2L311.8,122.6z"/>
					</g>
				</g>
			</g>
			<g transform="matrix( 1, 0, 0, 1, 0,0) ">
				<g>
					<g id="FlashAICB_crack__Clip_Group_0__0_Layer2_26_FILL">
						<path class="st2" d="M331.6,233.7l-8.8-2.1l-2.5-8.7l-0.9,9.5l-8.7,0.8l8.3,2.1v7.9l5-8.3L331.6,233.7z"/>
					</g>
				</g>
			</g>
			<g transform="matrix( 1, 0, 0, 1, 0,0) ">
				<g>
					<g id="FlashAICB_crack__Clip_Group_0__0_Layer2_27_FILL">
						<path class="st2" d="M423.1,215.2l-2.5-8.7l-0.9,9.5l-8.7,0.8l8.3,2.1v7.8l5-8.2l7.5-1.2L423.1,215.2z"/>
					</g>
				</g>
			</g>
			<g transform="matrix( 1, 0, 0, 1, 0,0) ">
				<g>
					<g id="FlashAICB_crack__Clip_Group_0__0_Layer2_28_FILL">
						<path class="st2" d="M656.5,113.2l-2.5-8.7l-0.8,9.6l-8.7,0.8l8.3,2.1v7.8l5-8.2l7.5-1.2L656.5,113.2z"/>
					</g>
				</g>
			</g>
			<g transform="matrix( 1, 0, 0, 1, 0,0) ">
				<g>
					<g id="FlashAICB_crack__Clip_Group_0__0_Layer2_29_FILL">
						<path class="st2" d="M754.9,153.1v7.9l5-8.3l7.4-1.2l-8.7-2.1l-2.5-8.7l-0.9,9.5l-8.7,0.9L754.9,153.1z"/>
					</g>
				</g>
			</g>
			<g transform="matrix( 1, 0, 0, 1, 0,0) ">
				<g>
					<g id="FlashAICB_crack__Clip_Group_0__0_Layer2_30_FILL">
						<path class="st2" d="M759.2,80.1l7.5-1.2l-8.7-2.1l-2.5-8.8l-0.8,9.6l-8.8,0.8l8.3,2v7.9L759.2,80.1z"/>
					</g>
				</g>
			</g>
			<g transform="matrix( 1, 0, 0, 1, 0,0) ">
				<g>
					<g id="FlashAICB_crack__Clip_Group_0__0_Layer2_31_FILL">
						<path class="st2" d="M644,215.3l6.2,0.7l-5.9-3.1l4.5-5.6l-7.6,3.8l-3.5-9.6l0.7,11.1l-8,2l9.7,1.4l1.4,8.9L644,215.3z"/>
					</g>
				</g>
			</g>
			<g transform="matrix( 1, 0, 0, 1, 0,0) ">
				<g>
					<g id="FlashAICB_crack__Clip_Group_0__0_Layer2_32_FILL">
						<path class="st2" d="M454.8,184.6l-8,2.1l9.6,1.4l1.4,9l2.4-9.7l6.2,0.7l-5.8-3.1l4.5-5.6l-7.6,3.8l-3.5-9.7L454.8,184.6z"/>
					</g>
				</g>
			</g>
			<g transform="matrix( 1, 0, 0, 1, 0,0) ">
				<g>
					<g id="FlashAICB_crack__Clip_Group_0__0_Layer2_33_FILL">
						<path class="st2" d="M228.8,119.6l-7.5,3.8l-3.5-9.7l0.7,11.1l-7.9,2.1l9.7,1.3l1.4,8.9l2.4-9.6l6.2,0.7l-5.9-3.1L228.8,119.6
							z"/>
					</g>
				</g>
			</g>
			<g transform="matrix( 1, 0, 0, 1, 0,0) ">
				<g>
					<g id="FlashAICB_crack__Clip_Group_0__0_Layer2_34_FILL">
						<path class="st2" d="M359.4,64.6l1.4,8.9l2.4-9.7l6.2,0.7l-5.9-3.1L368,56l-7.6,3.8l-3.5-9.7l0.7,11l-8,2.1L359.4,64.6z"/>
					</g>
				</g>
			</g>
			<g transform="matrix( 1, 0, 0, 1, 0,0) ">
				<g>
					<g id="FlashAICB_crack__Clip_Group_0__0_Layer2_35_FILL">
						<path class="st2" d="M426.7,397.5l-7.9,2.1l9.6,1.4l1.4,9l2.4-9.7l6.2,0.7l-5.9-3.1l4.5-5.5l-7.6,3.8l-3.5-9.6L426.7,397.5z"
							/>
					</g>
				</g>
			</g>
			<g transform="matrix( 1, 0, 0, 1, 0,0) ">
				<g>
					<g id="FlashAICB_crack__Clip_Group_0__0_Layer2_36_FILL">
						<path class="st2" d="M830.6,72.7L823.2,62l2.9,12.1l-14.6,7.2l16-4l8.6,12.5l-3.9-13.3l8.7-7.7L830.6,72.7z"/>
					</g>
				</g>
			</g>
			<g transform="matrix( 1, 0, 0, 1, 0,0) ">
				<g>
					<g id="FlashAICB_crack__Clip_Group_0__0_Layer2_37_FILL">
						<path class="st2" d="M625.3,59.8l-14.6,7.2l16-4l8.6,12.5l-3.9-13.3l8.7-7.7l-10.3,4l-7.3-10.8L625.3,59.8z"/>
					</g>
				</g>
			</g>
		</g>
	</g>
</g>
</svg>
