
<svg xmlns="http://www.w3.org/2000/svg" version="1.1" xmlns:xlink="http://www.w3.org/1999/xlink" preserveAspectRatio="none" x="0px" y="0px" width="124px" height="328px" viewBox="0 0 124 328">
<defs>
<radialGradient id="Gradient_1" gradientUnits="userSpaceOnUse" cx="0" cy="0" r="170.72500000000002" fx="0" fy="0" gradientTransform="matrix( 0.9999999999999999, 0, 0, -0.9999999999999999, 63.3,216.45) " spreadMethod="pad">
<stop  offset="13.333333333333334%" stop-color="#211C15"/>

<stop  offset="84.70588235294117%" stop-color="#211C15" stop-opacity="0"/>
</radialGradient>

<radialGradient id="Gradient_2" gradientUnits="userSpaceOnUse" cx="0" cy="0" r="81.25000000000001" fx="0" fy="0" gradientTransform="matrix( 0.9999999999999999, 0, 0, -0.9999999999999999, 61.8,275.95) " spreadMethod="pad">
<stop  offset="32.549019607843135%" stop-color="#3F3932"/>

<stop  offset="46.27450980392157%" stop-color="#352F28" stop-opacity="0.6588235294117647"/>

<stop  offset="74.50980392156863%" stop-color="#26211A" stop-opacity="0.1568627450980392"/>

<stop  offset="100%" stop-color="#211C15" stop-opacity="0"/>
</radialGradient>

<g id="Layer0_0_MEMBER_0_MEMBER_0_FILL">
<path fill="url(#Gradient_1)" stroke="none" d="
M 93.55 283.75
Q 92.85 283.65 90.25 283.45 84.45 282.95 78.05 282.95
L 25.05 292.95
Q 23.5 295.45 20.1 297.65 18.15 298.95 14.2 301.05 13.05 301.75 11.45 302.4 9.55 303.2 8.55 303.6 6.65 304.05 5.6 304.35 3.65 304.85 3.25 305.85 4.35 305.75 6.4 306.2 7.55 306.45 9.6 306.95 11.65 307.35 12.2 308 12.85 308.8 11.55 310.35 10.1 312.05 5.8 312.9 1.45 313.8 0 315.45 0.4 315.95 1.1 315.9 2.05 315.9 2.45 316.05 2.75 316.2 3.2 316.8 3.65 317.35 4 317.5 4.55 317.7 5.9 317.6 7.55 317.5 7.9 317.55 10.25 317.8 15.1 318.5 17.8 318.75 21.45 320.5 26.35 322.9 27.55 323.3 32.8 325.05 37.5 324.5 38.2 324.4 41.4 323.85 43.75 323.4 45.45 323.45 46.55 323.5 48.45 323.95 50.3 324.45 51.55 324.45 54.45 324.45 55.65 324.55 57.7 324.75 59.55 325.45 64.75 327.45 66.15 327.8 69.75 328.7 73.05 327.85 74.05 327.6 76.65 327.6 79.05 327.6 80.2 327.1 80.7 326.9 81.6 326.2 82.5 325.5 83.05 325.3 84.1 324.9 85.7 324.9 86.6 324.9 88.4 324.95 90.45 324.95 94.15 325.95 97.9 327 99.85 327 101.25 327.05 103.5 326.55 106.15 326.05 107.05 325.95 107.9 325.85 109.65 325.85 111.15 325.8 112.1 325.1 112.55 324.8 113.3 323.75 113.95 322.8 114.65 322.45 115.55 321.95 117.35 321.8 119.6 321.6 120.15 321.45 122.95 320.8 124.05 319.8 125.55 318.35 124.15 315.95 123.5 314.85 121.9 312.95 120 310.75 119.45 310 117.8 308.05 116.85 306.95 115.2 304.85 115.15 303.6 115.1 302.15 117.05 301.3 119.45 300.3 120 299.45 120.8 298.1 119.65 297 117.9 295.75 117.15 294.95 116.6 294.3 116.35 294.1 116 293.75 115.2 293.35 113.55 292.7 112.7 292.35 109 290.8 107.55 289.85 107.3 289.7 106.9 289.2 106.45 288.7 106.2 288.55 105.35 288.15 103.3 288 100.8 287.85 100.4 287.75 98.75 287.35 98.15 286.55 97.1 285.15 96.6 284.8 95.6 284.1 93.55 283.75 Z"/>
</g>

<g id="Layer0_0_MEMBER_0_MEMBER_1_FILL">
<path fill="url(#Gradient_2)" stroke="none" d="
M 85.55 277.45
Q 82.75 277 81.3 276.75 78.75 276.35 77.05 276.45
L 27.55 288.45
Q 27.4 288.65 25.95 290.4 24.95 291.6 24.2 292.35 24.6 292.35 25.55 292.55 25.2 293.85 22.9 296.05 21 297.9 19.35 298.95 16.65 300.7 10.55 302.6 11.55 305.2 16.65 306 17.4 306.15 24 306.55 24.3 309.7 21.5 310.65 17.75 311.25 15.95 311.85 14.85 312 14.45 312.2 13.8 312.45 14.1 313.45 14.5 314.65 16.6 314.8 17.7 314.85 19.55 314.95 20.95 315.35 23.65 316.95 26.2 318.1 26.55 318.2 28.1 318.8 29.55 318.95 31.4 319.2 34.3 319.1 35.95 319.05 39.1 318.95 41.35 318.95 46.05 318.8 50.25 318.75 52.95 319.35 53.5 319.45 54.5 319.75 55.45 320 56.05 319.9 56.4 319.85 57.2 319.45 58 319.05 58.55 318.95 60.05 318.8 63.3 318.95 66.45 319.15 68.05 318.95 68.65 318.9 69.25 318.5 69.95 318.1 70.2 318.05 71.25 317.75 72.45 318.15 73.1 318.4 74.55 319 76.25 319.6 79.45 319.9 83.75 320.3 84.5 320.45 88 321.15 91.8 321.05 93.35 321.05 96.15 321.25 99.05 321.45 100.45 321.45 103.45 321.45 104.65 321.3 106.7 321 108.55 319.95 109.35 319.55 111.15 318.5 112.75 317.75 114 317.9 114.3 316.55 113.3 314.6 112.15 312.25 112.05 311.25 111.85 308.5 111.35 306.85 110.75 304.8 109.35 302.9 107.35 300.7 106.7 299.6 105.6 297.65 107.7 296.55 108.45 296.2 111.05 295.65 113.1 294.85 112.5 293.05 110.3 292.65 108.1 290.7 107.2 289.9 104.6 287 102.3 283.95 100.9 282.65 99.95 281.8 98.65 281.1 97 280.4 96.05 279.95 93.8 278.9 90.9 278.3 89.2 277.95 85.55 277.45 Z"/>
</g>

<g id="Layer0_0_MEMBER_1_FILL">
<path fill="#6C5C47" stroke="none" d="
M 104 307.8
Q 104 307.1 103.85 306.5 103.75 306.1 103.6 305.75 103.7 306.05 103.8 306.4 103.95 307.05 104 307.8
M 35.4 315.85
Q 35.95 315.95 36.6 316.05 36.05 315.95 35.5 315.85
L 35.4 315.85
M 27.5 311.2
Q 27.35 311.85 27.55 312.5 27.45 312.1 27.45 311.65 27.45 311.3212890625 27.6 310.95 27.54375 311.1125 27.5 311.2
M 23.5 300.7
Q 23.65 299.85 25.05 297.55
L 25.15 297.4
Q 24.85 297.8 24.55 298.3 23.6 299.85 23.5 300.7
M 47.15 316.4
L 44.9 316.45
Q 53.2 316.45 59.3 314.35
L 56.55 315.15
Q 52.1 316.25 47.15 316.4
M 59.25 291.95
L 59.25 292.2 59.3 292.65 59.25 291.95
M 41.8 240.1
Q 42.1 238.75 42.25 237.2
L 42.5 231.3 39.5 233.9
Q 37.4 235.25 35.5 235.75 35.671875 235.26875 35.75 234.75 35.316015625 236.7212890625 33.35 239 30.6 242.2 30.4 244.45 30.1 247.8 30 252.45 30 253.209375 30 254.2
L 30.05 251.9
Q 31.9 252.8 32.95 251.8 32.75 254.6 32.8 258.85 32.85 261.25 32.9 265.95 32.9 268.95 32.7 274.95 32.55 280.3 32.95 283.9 34.25 284.05 35.5 283.9 35.9 280.75 36.2 279.7 36.95 277.1 37.25 273.55 37.5 269.45 37.65 267.35 37.8 265.2 38.95 259.7 39.95 254.85 39.9 252 39.9 250.1 40.85 246.3 41.1 245.25 41.35 243.2 41.6 241 41.8 240.1
M 38.25 241.95
L 40.25 239.3 40.25 244.25
Q 40.25 245.5 39.85 247.55 39.35 249.85 39.3 250.9
L 38.6 258.85
Q 38.3 262.45 38.2 263.3 37.85 265.85 37.15 267.6 36.4 267.15 36.4 265.1 36.55 262.85 36.55 262.2 36.65 259.85 36.65 258.55 36.6 256.2 35.95 255.2 35.7 254.85 35.05 254.25 34.65 253.95 34.55 253.15 34.45 252.45 34.5 251.25 34.55 249.95 34.55 249.3 34.55 241.7 38.25 241.95
M 82.5 269.55
Q 82.35 268.05 81.65 265.3 80.95 262.35 80.75 261.05 79.8 254.6 79.9 251.95 79.5 254.85 79.5 258.95 79.5 261.3 79.55 265.95
L 79.55 280.3
Q 82.2 279.35 82.7 275.75 82.95 273.75 82.5 269.55
M 87.3 185.75
L 87.4 187.6
Q 87.371484375 186.4591796875 87.25 185.15 87.2884765625 185.4720703125 87.3 185.75
M 83.4 163.1
L 83.5 163.95
Q 83.4 162.6 83 159.9
L 83.4 163.1
M 80.9 107.8
Q 80.85 106.3 80.65 105.3 80.5 104.5 80.15 103.7 80.75 105.35 80.9 107.8
M 80 103.3
L 79.65 103.85 80 103.35 80 103.3
M 63.6 7.6
Q 63.5 7.4 63.2 7.2 62.85 8.85 61.9 11.45 61.1 14.4 61 18.55 60.9 20.95 60.9 25.8 60.85 27.45 60.55 29.65 60.35 30.95 59.9 33.45 59.75 34.5 59.7 37 59.7 39.3 59.45 40.5 59.25 41.4 58.4 43.35 57.95 44.35 57.65 45.15 59.85 43.55 61.55 43.6 62.3 43.6 63.45 43.9 64.65 44.2 65.2 44.6 65.85 45.1 65.95 45.95 65.95 46.25 65.85 47.55 64.85 47.55 64.4 47.6 63.65 47.6 63.25 48.2 62.95 48.7 62.95 51.3 62.9 52.05 62.55 53.8 62.35 55.4 62.6 56.25 62.8 56.9 63.7 57.7 64.7 58.55 64.95 59.05 65.25 59.7 65.25 61.7 65.25 63 64.6 65.05 63.9 67.25 63.85 68.25 62.7 68.3 61.7 69.65 61.15 70.45 60.3 71.95 59.3 73.45 58.8 74.6 58.65 75 58.45 76.2 58.2 77.2 57.7 77.25 57.55 76.85 57.5 76.05 57.45 75.15 57.35 74.75
L 57.05 74 56.95 65.35 56.9 69.45
Q 56.9 71.2 57.05 75
L 56.35 81.75 54.4 83.45
Q 54.4 90.6 52.8 96.95 52.2 99.3 52.3 103.15 52.4 109.25 52.4 109.45 52.3 112.3 51.3 116.65 50.7 119.1 49.5 123.7 49.2 125.05 49.05 126.8 49 127.85 48.9 130.05 48.8 131.45 48.2 133.8 47.5 136.3 47.4 137.45 46.75 143.35 46.85 153 46.891796875 159.6123046875 46.95 163.55 47.75 158.1 50.85 157.2 51.1 156.35 50.6 154.5 50.05 152.55 50.2 151.6 50.4 150.35 51.55 149.75 52.95 149.2 53.6 148.65 53.95 148.35 54.35 147.3 54.7 146.4 55.35 146.25 56 146.05 57.7 146.4 59.45 146.7 60.15 146.6 62.1 146.35 63.3 144.85 64 144.1 65.25 141.6
L 67.55 140.95
Q 67.55 145.3 67.35 146.75 66.85 150.05 64.9 151.9 64.1 152.7 62.65 153.5 61.85 154 60.2 154.85 59.05 155.5 58.65 156.05 58.05 156.8 58.3 157.9 60.65 158.3 62.8 157.05 62.55 157.8 61.55 159.3 60.9 160.25 60.15 162.25 59.45 163.6 58 164.65 57.5 165 55.25 166.25 52.5 167.8 51.05 168.95 49.15 170.5 47.75 172.65
L 44.6 177.15
Q 44.5 178.05 44.5 179.15 44.4 182.85 44.3 183.95 44.15 185.35 43.6 188.2 43.05 191 42.9 192.45
L 42.7 195.7
Q 41.45 199.6 41.3 200.35 41.05 201.8 40.95 203.9 40.95 204.4 40.95 205.2 41.05 202.2 41.2 201.25 41.9 199.4 43.3 197.6 44.9 195.6 45.4 195.05 46.65 193.7 47.9 192.9 49.25 192.15 51.2 192 51.5 191.95 54.6 191.95 55.05 191.95 55.95 191.95 56.75 191.9 57.25 191.55 57.7 191.25 58.25 190 58.85 188.65 59.25 188.25 60.5 186.9 61.9 186.7 63.45 186.4 64.55 187.7 65.35 188.55 65.65 189.7 65.85 190.5 65.9 191.95 66 195.65 65.7 197.6 65.2 200.55 63.55 202.6
L 64.25 200.35
Q 64.05 200.95 61.9 202.35 60.45 203.35 56.8 204.6 51.85 206.4 50.45 206.8 46.85 207.9 43.8 207.95 42.9 208 42.35 208 41.45 208.05 40.85 207.95 40.7 209.1 40.1 210.3 39 212.3 38.8 212.95 38.4 214.15 38.05 216.2 37.65 218.5 37.4 219.45 37.1 220.65 36.85 222.75 36.6 225 36.4 225.95 36.05 227.4 35.95 230.15 37.5 228.45 37.6 228.3 38.1 227.5 38.45 224.7 38.75 222.35 39.8 221.55 40.05 221.35 40.8 221.2 41.65 221 41.8 220.95 43.15 220.4 45.65 218.75 49.15 216.8 50.85 216.6 52.05 216.5 54.25 216.95 62.35 217.7 65.95 215.25 66.45 214.9 67.8 213.05 68.95 211.45 69.9 211.3
L 71.9 209.3
Q 72.3 217.85 69.9 222.6 68.2 225.85 64.05 225.95 62.4 226 61.7 225.65 60.75 225.2 60.55 223.8 60.55 222.6 60.55 221.95 60.6 220.75 59.95 220.25 59.05 219.6 57.15 220.25 56.1 220.7 54.2 222.2 53.2 223 51.6 224.25
L 43.2 230.7 42.55 231.3
Q 42.55 234.85 42.25 237.2
L 42.25 239.75
Q 42.25 242.3 42.45 247.65 42.6 252.45 42.15 255.5 41.95 256.95 42 259.55 42 262.4 41.9 263.65 41.75 265.75 40.85 269.35 39.8 273.35 39.6 275.05 38.9 280.05 39.95 281.3 40.2 281.6 40.9 281.75 41.25 281.85 41.9 281.95 45.25 282.6 48 282.6 48.2 282.6 49 282.7 49.75 282.75 49.95 282.65 50.25 282.5 50.35 282.15 50.45 281.7 50.6 281.55 50.75 281.35 52.25 279.95 53.15 279.1 53.5 278.05 54.9 273.9 54.9 267.85 54.8 264.65 54.75 263.05 54.7 260.1 54.9 258.2 55.45 252.5 55.55 249.8 55.55 250.5 55.65 251.45 55.9 253.25 55.9 253.85
L 55.85 260.45 55.9 259.5
Q 55.9 262.25 56.75 266.2 57.2 268.4 58.25 272.75 58.75 275.1 60.4 275.7 61.35 275.7 63.2 275.35 67.95 274.8 71.75 272.6 73.95 271.4 75.25 269.25 75.2 265.95 75.25 264.35 75.25 260.25 76.2 256.65 76.8 254.7 76.9 254.2 77.2 252.65 76.9 251.6 76.65 250.6 75.5 249.55 74.15 248.3 73.85 247.85 73.4 247.1 73.6 246.35 73.7 245.85 74.3 244.95 74.4 244.8 75.25 243.95 75.85 243.3 75.95 242.9 76.15 241.95 75.15 239.9 73.95 237.75 73.65 237.1 72.35 234.4 70.25 233.65 69.2 233.35 66.65 233.6 64.25 233.85 63.05 233.3 63.85 232.6 65.85 232.1 68.4 231.45 68.9 231.25
L 70.2 230.65
Q 71.6 229.9 72.8 228.05 73.8 226.5 74.35 224.65 74.9 222.7 74.8 219.55 74.6 215.95 74.55 214.3 74.55 212.55 73.65 210.55 72.55 208.2 71.15 208.15 71.05 208.7 70.3 209.4 69.3 210.4 69.2 210.55 68.55 211.5 68.4 211.65 68.05 212 67.25 212.35 66.35 212.75 64.9 213.15 63.05 213.65 62.5 213.85 60.3 214.6 56.9 214.6 56.4 214.6 55.1 214.5 52.6 215.1 51 214.35 51.95 214.2 55.1 214.5 56.25 214.2 58.8 213.15 61.15 212.15 62.2 211.95 64.2 211.5 65.4 210.4
L 64.25 210.55
Q 64.5 210.35 65.05 210.2 65.7 209.95 65.95 209.85 66.85 208.8 67.3 207.2 67.6 205.4 67.6 205.3
L 68.05 204.2
Q 68.8 200.35 69.5 198.2 69.95 197 70.1 196.4 70.45 195.4 70.55 194.6 70.85 192.05 68.4 188.2 65.85 184.15 65.85 181.9 66.05 181.9 67.3 182 68.5 182.1 69.2 182.05 70.2 181.85 70.85 181.55 71.05 180.05 70.85 178.25 70.75 177.45 70.3 175 70.1 172.95 69.9 171.95 69.85 171.8 69.95 171.3 70 170.85 69.85 170.7 69.75 170.5 69.15 170.25 68.5 170 68.3 169.8 68.85 168.7 70.95 165.95 72.7 163.55 73.25 161.9 73.45 161.3 73.55 160.6 73.7 159.85 73.8 158.15
L 73.9 156
Q 73.7 153.8 73.65 152.5 73.55 150.05 74.25 149.3
L 74.15 148.45
Q 74.25 149.05 74.65 150.25 74.65 149.4 74.5 148.55 74.35 147.45 73.9 146.5
L 73.9 146.45
Q 73.05 144.4 70.85 142 70.55 141.65 67 138.1 66.2 138.55 65.8 139.6 64.85 142.15 64.3 143.1 63.2 144.95 61.55 145.3 60.35 145.5 58.4 145.15 56.25 144.8 55.55 144.05 55.05 143.6 54.95 142.35 55.1 143.2 55.85 143.55 56.8 143.95 59.1 143.85 60 143.65 60.55 143.2 62.2 142.05 62.95 140.35
L 63.15 138.75
Q 63.55 136.8 63.55 133.1 63.55 131.65 63.7 131 63.9 130.05 64.55 129.05 65.5 127.6 65.75 126.15 66 125 65.9 122.95 65.9 121.9 65.7 120.5 65.4 118.7 64.95 118.35 64.55 118.05 63.35 118.3 62.1 118.65 61.7 118.65 60.55 118.75 59.4 118.55 60.9 118.15 62.5 116.7 64 115.35 64.55 113.95 65.9 110.3 65.9 107.55 65.9 106.45 66 106.05 66.15 105.45 66.65 104.8 67.5 103.8 67.8 103.35 68.2 102.65 68.25 101.6 68.3 100.7 68.3 100.2 68.25 99.4 67.95 98.95 67.3 98 64.7 97.75 61.8 97.65 60.95 97.55 62.05 96.95 63.85 96.85 64.85 96.75 66.95 96.7 67.4 96.3 68.6 95.9 69.9 95.45 70.3 95.2
L 71.15 94.6
Q 72.6 92.4 72.2 89 71.5 88.9 71.15 89 71.1 88.5 71.9 87.95 72.9 87.3 73.35 86.95
L 73.25 85.65 72.9 85.35 72.8 85.3 69.9 85.3
Q 66.4 85.25 62.85 84.7 61.75 84.6 61.1 84.5 59.95 84.35 59.55 84 60.3 83.85 62.25 83.9 63.95 83.95 64.9 83.55
L 66.6 82.7
Q 65.95 82.45 65.6 81.95 65.45 81.75 65.4 81.2 65.4 80.8 64.9 80.6 64.75 80.5 63.5 80.7
L 60 80.95
Q 62.35 79.55 63.35 78.9 65.1 77.75 65.65 75.7 66.65 72.1 66.75 71.7 67.25 69.55 67.25 67.65 67.25 65.9 67.1 63.25 66.9 59.55 66.9 59 66.85 58.15 67.3 57.15 67.8 55.9 67.9 55.4 68.35 53.2 67.8 49.55 66.95 44.2 66.9 43.6
L 63.2 41.75 64.05 42.2
Q 63.1 42.3 62.7 42.2
L 63.2 41.75 62.9 41.6
Q 64.75 38.2 65.3 34 65.7 31.1 65.55 25.95 65.5 24.2 64 20.7 62.65 17.5 62.9 15.3 63.55 12.05 63.55 10.2 63.85 8.15 63.6 7.6
M 57.25 98.6
Q 58.05 98.1 60.1 98.1 62.1 98.15 63.05 98.6 64.1 99.15 63.8 99.45 63.65 99.6 62.55 99.95 59.7 100.7 59.35 100.85 58.85 101.05 56.75 102.35 55.15 103.25 54 103.5 53.35 102.3 54.45 101 55.05 100.3 56.55 99.3
L 57.25 98.6
M 59.45 91.1
Q 56.7 91.55 55.85 91 58.6 88 60.4 86.85 61.85 85.95 64.15 85.85 65.5 85.8 68.25 85.95
L 69.25 86.6
Q 68.6 86.95 68.8 89.3 69.05 92.15 68.95 92.45 68.5 94.15 65.75 94.4 64.8 94.5 61.6 94.25 62.3 93.1 62.65 92.5 63.25 91.45 63.5 90.65 62.75 90.55 59.45 91.1
M 62.25 105.95
L 63.55 107.3
Q 63 110.25 61.7 112.25 60.45 114.25 58.05 116 56.55 117 55.25 117.3 52.5 118.25 51.55 118.2 51.6 116.55 53.25 113.95 54.5 111.9 56.15 110.15 57.1 109.15 59.15 107.95 61.45 106.6 62.25 105.95
M 63.55 120.3
L 62.25 123.3
Q 62.25 124.95 62.5 129.4 62.55 133.4 61.25 135.2 60.55 136.25 59.55 136.9 58.25 137.75 57.2 137.3 56.4 137 55.65 134.6 55.55 134.25 55.35 132.35 55.25 130.85 54.75 130.35 54.25 129.85 52.6 129.55 51.7 129.4 52.2 127.65 52.7 126.05 54.25 124.45 56.25 122.7 57.2 121.8 58.75 120.4 60.15 120 61.75 119.55 63.55 120.3
M 67.95 158.5
Q 69.75 156.45 70.25 154.6
L 70.55 155.95
Q 69.9 156.75 70 159.45 70.1 162.8 70 163.25 69.6 165.15 67.95 167.05 65.5 169.85 65.2 170.35 63 173.85 57.65 178.3 56.25 179.45 54.4 180.15 53.25 180.6 50.8 181.2 46.7 182.2 46.55 184.1 46.65 181.5 47.2 179.65 47.8 177.65 49.15 175.6 50.15 173.45 51.15 172.65 52.65 171.75 53.3 171.2 54 170.6 55.95 169.7 57.75 168.9 58.45 168.2 58.7 167.05 59.3 166.25
L 60.8 164.7 64.65 161.65
Q 67 159.6 67.95 158.5
M 68.9 173.6
Q 68.55 173.9 68.15 175.4 67.7 177.15 67.5 177.55 66.55 179.45 64.9 180.7 63.8 181.55 62.65 181.9 61.2 182.35 60.25 181.65 60.9 180.3 62.95 177.7 64.85 175.2 65.55 173.6
L 68.9 173.6
M 62.55 203.95
L 64.25 205.95
Q 61.7 208.45 60.4 209.25 58.15 210.6 55.6 210.25 55.1 208.75 58.55 207.4 62.3 205.85 62.55 203.95
M 46.55 233.95
L 48.9 232.95
Q 51.2 234.8 51.1 239.05 51 241.45 49.9 245.8 49.2 248.6 47.9 252.2 46.95 254.75 46.25 255.65 46.05 255.95 45.55 256.35 45.2 256.75 45.15 257.25 44.6 257.45 43.95 257.25 43.75 256.5 44.05 255.4 44.5 253.8 44.5 253.6 44.55 253.2 44.55 249.95 44.55 244.6 44.65 243.55 45.15 240.05 45.2 238.25 45.35 236.2 45.4 235.9 45.65 234.65 46.55 233.95
M 58.15 241.1
Q 59.05 240.2 59.5 239.6 59.8 239.25 60.35 238.3 60.85 237.35 61.2 237 62.05 236.15 63.9 235.8 64.95 235.6 66.9 235.3
L 67.9 237.3
Q 69.95 237.05 69.9 240.1 69.9 242.75 69 244.25 68.4 245.3 66.3 247.5 64.5 249.4 63.9 250.85 63.5 251.9 62.9 254 62.2 255.6 60.5 255.3 58.35 254.95 57.5 253.15 56.85 251.75 56.9 249.3 56.8 247.15 56.8 246.05 56.8 244.1 57.2 242.85 57.5 241.95 58.15 241.1
M 53 258.85
Q 53.15 257.65 53.5 257 53.85 258.8 53.75 261.6 53.7 263.2 53.55 266.3
L 52.9 276.6
Q 52.45 277.15 51.95 278.85 51.35 280.1 50.25 279.2 48.65 278 50.3 275.2 52.3 271.85 52.2 267.6 52.2 265.45 52.8 260.85 52.95 259.5 53 258.85
M 78.25 106.1
L 77.9 106.55 77.6 106.85
Q 78 106.6 78.25 106.1 Z"/>

<path fill="#3F3932" stroke="none" d="
M 43.15 307.4
Q 42.55 303.9 41.65 302.15 41.35 303.45 41.55 306.05 41.75 308.7 41.55 309.9 40.85 314 35.5 315.85 36.05 315.95 36.6 316.05
L 40.15 316.4
Q 41.4 316.45 44.9 316.45
L 47.15 316.4 46.35 315.2
Q 45.6 314.4 45.3 314.05 44.8 313.45 44.5 312.7 43.8 311.1 43.15 307.4
M 76.55 292.25
Q 76.65 294.3 77.35 296.1 77.5 296.5 78.35 297.95 79.05 299.15 79.2 299.9 79.5 301.4 79.4 303.9 79.25 307.55 79.25 307.9 79.25 311.85 78.3 314.55 77.6 316.6 77.2 318.35
L 77.05 318.95
Q 78.5 318.95 81.05 318.85 83.25 318.75 84.9 319 87.6 319.35 93.4 318.95 97 319 100.2 316.3 103.5 313.55 103.9 309.95
L 103.9 309.85 104 309.25 102.35 308.9
Q 97.6 307.5 97.25 303.3 97.05 304.15 96.55 305.2 96 306.35 95.4 306.9 95.1 307.25 94.3 307.7 93.6 308.1 93.3 308.45 94.05 308.75 95.4 308.7 97.15 308.6 97.5 308.65 97.5 309.8 95.95 310.95 95.1 311.55 93.45 312.45 91.8 313.6 91.7 313.65 90.85 314.1 89.65 313.95 88.2 313.8 87.2 312.1 86.45 310.7 86.2 308.85 86.1 307.95 86.2 304.95 86.3 303.25 86.25 302.35 86.15 299.9 83.9 297.5 80.7 294.8 79.25 293.4 76.7 290.95 76.55 288.3
L 76.55 292.25
M 55.55 269.3
Q 55.55 269.65 55.3 271.5 55.1 272.9 55.3 273.55 55.95 273.6 56.15 274.35 56.25 274.75 56.25 275.65 56.4 277.15 56.85 278.75 57.15 279.75 57.85 281.85 59.25 286.05 59.25 291.95
L 59.3 292.65 59.55 301.5
Q 59.75 307.05 59.25 310.65 58.95 312.85 56.55 315.15
L 59.3 314.35
Q 60.05 314.1 61.15 313.7
L 61.55 313.85 63.9 315 63.9 313.85
Q 63.95 311.7 64 310.65 64 308.7 63.8 307.45 63.55 306.1 62.75 304.45 61.8 302.55 61.35 301.55 60.25 299.15 60.25 296.65
L 60.25 288.75 60.25 284.05
Q 60.25 281.25 59.4 279.55 59.15 279 58.25 277.7 57.55 276.6 57.25 275.8 55.7 271.25 55.8 263.65 55.55 268.4 55.55 269.3
M 98.95 254.75
L 98.55 255.4
Q 98.55 255.45 97.45 256.95 96.75 258 96.6 258.65 96.4 259.55 96.45 261.05 96.5 261.85 96.6 263.45 96.6 266.6 95.55 271.15 95.45 271.7 95.1 272.85 94.8 273.9 94.9 274.6 95.75 274.75 97.1 274.35 98 274.3 97.9 275.95 97.9 276.7 97.55 278.2 97.2 279.6 97.2 280.45 97.3 282.8 98.3 284.5 100.65 288.4 101.15 293.95 101.25 295.2 101.25 303.95
L 103.8 306.4
Q 103.7 306.05 103.6 305.75
L 103.3 305.05
Q 102.9 304.25 102.3 303.5
L 101.75 302.8
Q 102.15 302.45 102.3 301.9 102.4 301.4 102.4 299.95 102.4 296.85 102.5 296 104.15 295.6 105.2 294.35 105.9 293.45 105.55 292.1 105.3 291.15 104.3 289.65
L 104 287.95
Q 103.85 286.6 103.3 284.35 102.65 281.85 102.5 280.85 101.95 276.7 101.9 273.45 101.9 271.8 101 270.95 99.6 269.7 99.25 268.95 98.25 266.9 98.5 262.35 98.9 257.35 98.9 255.45
L 98.9 255 98.95 254.9 98.95 254.75
M 86.55 229.6
Q 86.7 230.95 87.1 234.45 87.4 237.65 87.25 239.5 87.2 240.6 86.55 242
L 86.15 242.85 85.3 244.8
Q 84.7 246.15 84.9 247.3 85.05 248.2 85.55 249.5 85.85 250.2 87 252.25 88.3 254.55 88.75 255.7 89.05 256.6 89.95 257.95 90.9 259.35 91.15 259.95 91.4 257.55 91.6 256.7 92 255.35 93.2 253.9 94.5 252.35 94.55 249.95
L 94.6 248.4
Q 94.7 244.8 94.25 242.3 93.75 239.7 91.75 233.8 89.95 228.45 89.55 225.3
L 86.55 229.6
M 80.95 182.15
Q 80.55 183.4 80.2 185.6 79.25 190.3 76.55 194.55
L 75.75 195.7
Q 74.05 198.1 71.95 200.1 70.3 201.65 69 202.65 70.1 202.35 72.1 201.35 72.7 201 74.3 199.8 75.7 198.7 76.5 198.35 77.5 197.95 77.7 197.9 78.5 197.65 78.95 198.05 79.25 198.35 79.5 199.45 79.8 200.65 80.1 201.05
L 81.45 202.2
Q 82.25 202.9 82.5 203.6 83.05 205.1 83.5 207.65 84.2 211.1 84.35 211.8 84.7 213.3 86.05 215.05 88.15 217.8 88.3 218 88.95 219.05 90.3 221.5 91.65 223.65 92.9 224.55 92.95 223.55 92.55 221.85 91.9 219.15 91.9 219.1
L 91 213.3
Q 90.45 209.85 89.8 207.55 89 204.6 87.55 201.3 86.5 199.15 85.95 198.05 85 196.1 84.9 194.65 84.8 193.5 85.65 191.75 86.65 189.7 86.8 188.9
L 87.3 185.75
Q 87.2884765625 185.4720703125 87.25 185.15
L 87.2 184.6
Q 87.175 183.9208984375 87.1 183.2
L 85.55 173.6
Q 85.4 172.9 84.4 168.75 83.7 165.85 83.5 163.95
L 83.4 163.1 83.25 163.6
Q 82.95 167.2 83.3 173.15
L 83.5 175.9
Q 83.65 178.05 83.7 178.2 83.7 179.7 83.25 180.35 81.75 179.8 80.95 182.15
M 77.25 115.6
Q 76.45 122.25 76.4 122.3 75.4 126.1 72.25 127.05 69.5 127.85 69.25 129.85 70.2 129.45 71.8 129.5 72.75 129.5 74.5 129.6 75.8 129.6 76.1 129.5 76.55 129.4 77.3 128.65 78.4 127.55 78.8 126.8 79.35 125.9 79.5 124.55 79.85 121.65 79.7 117.6 79.4 112.9 79.25 110.6
L 77.25 115.6 Z"/>

<path fill="#4F4639" stroke="none" d="
M 30.25 287.9
Q 29.9 288.5 29.65 289.35 29.55 289.85 29.3 291 29.15 291.75 28.25 293.25 27.75 294 27.15 295.55 26.85 296.05 26.2 296.6 25.85 296.95 25.05 297.55 23.65 299.85 23.5 300.7 23.35 301.8 24.8 303.15 26 304.25 27.4 304.85 28 305.15 28.55 305.2 28.85 304.65 29.1 304.25
L 29.9 302.65
Q 30.55 301.35 30.9 300.7 31.45 299.55 31.65 298.65 31.9 297.7 31.9 294.55 31.9 293.3 32.15 291.55 32.5 289.65 32.6 288.7 33.1 284.45 32.15 283.1 31.95 283.55 31.3 285.55 30.8 287 30.25 287.9
M 29.05 279.75
Q 29.15 275.15 29.25 272.75 28.45 274.7 27.25 278.65 27.2095703125 278.65 27.2 278.65
L 27.2 278.7 27.1 279.6
Q 26.95 280.5 26.8 281.8 26.75 282.15 26.45 285.65 26.3 288.1 25.8 289.45 25.65 289.95 25.15 290.7 24.6 291.5 24.45 291.85 25.15 292.35 25.95 292.8 27.6 290.05 28.25 286.65 28.85 283.75 29.05 279.75
M 39.5 271.25
Q 39.6 270.2 39.75 269.7 38.6 271.75 38.05 274.9 37.75 276.75 37.55 280.3 37.35 284.2 38.2 285.9 38.4 286.25 39.3 287.6 40 288.65 40.2 289.35 40.4 290.1 40.35 291.3 40.3 292 40.25 293.3 40.25 295.7 39.85 297.15 39.4 298.85 38.15 300.65 37.8 301.15 37 301.9 36.25 302.65 35.9 303.1 35.4 303.75 35.25 304.9 35.05 306.2 34.85 306.65 34.2 308 31.1 308.55 29.7 308.7 28.95 309.05
L 28.25 309.45
Q 27.8 310.25 27.65 310.9
L 27.6 310.95
Q 27.45 311.3212890625 27.45 311.65 27.45 312.1 27.55 312.5
L 28.4 313.85
Q 29.5 315 31.7 315.35 32.95 315.55 35.4 315.85
L 35.5 315.85
Q 40.85 314 41.55 309.9 41.75 308.7 41.55 306.05 41.35 303.45 41.65 302.15 42.55 303.9 43.15 307.4 43.8 311.1 44.5 312.7 44.8 313.45 45.3 314.05 45.6 314.4 46.35 315.2
L 47.15 316.4
Q 52.1 316.25 56.55 315.15 58.95 312.85 59.25 310.65 59.75 307.05 59.55 301.5
L 59.3 292.65 59.25 292.2 59.25 292.8
Q 59.25 293.55 59.3 296.2 59.35 298.3 59.25 299.6 59 302.65 59 302.75 58.65 305 57.65 305.2
L 58.15 305.25
Q 58.7 306.95 57.65 308.95 56.65 310.9 55 311.6 53.75 312.15 52.05 311.9 50.95 311.75 49.05 311.1 46.25 310.1 45.55 309.2 44.85 308.3 44.9 305.65 45 303.85 44.95 302.8 44.8 300.9 44.05 300.25 44.45 299.5 44.35 297.8 44.15 295.6 44.2 295.2 44.55 293.6 44.55 292.7 44.25 290.4 44.55 289.65 44.75 289.15 45.15 288.9 45.7 288.7 46.05 288.45 46.8 288 48.55 286.35 49.65 285.25 50.1 284.7 50.6 284 51.1 282.75 49.15 283.55 45.3 282.9 43.15 282.65 41.8 282.4 39.25 281.95 38.7 281.2 38.25 280.6 38.35 278.5 38.55 276.25 38.55 275.65 38.6 274.9 39.25 272.8 39.4 272.3 39.5 271.25
M 83.2 296.35
Q 82.8 295.3 82.55 294.8 82.2 293.85 81.75 293.2 81.1 292.2 79.4 290.5 77.7 288.8 77 287.8 75.6 285.85 75.9 284 76.1 283 77.15 281.1 78.3 279.05 78.55 278.1 79.15 275.65 79.25 272.55
L 79.25 267.65
Q 79.2 266.2 78.5 263.95 77.7 261.4 77.55 260.25 77.4 258.75 77 257.85 77 258 76.7 260.85 76.55 262.65 76.55 263.85 76.55 266.3 76.35 266.95 75.9 268.2 75.25 269.25 73.95 271.4 71.75 272.6 67.95 274.8 63.2 275.35 61.35 275.7 60.4 275.7 58.7 275.7 57.85 274.8 57.35 275.55 58.8 276.4 59.8 276.95 60.95 277.25 63.1 277.9 64.85 277.95 65.4 277.95 67.4 277.65 69.1 277.4 69.85 277.6 70.65 277.8 71.95 279.5 73.15 280.95 73.55 281.95 73.9 282.9 73.85 283.4 73.8 283.9 73.2 285 72.9 285.55 71.75 286.85 70.75 287.95 70.5 288.65 70.05 290.05 71.25 292.9 72.75 296.35 72.85 297.2 73.15 299.5 71.95 301.25 70.75 303.1 68.5 303.3 67 303.5 65.6 303.15 63.9 302.7 63.3 301.65 62.9 300.95 62.65 299.6 62.25 297.85 62.15 297.55 61.2 294.5 60.95 292.3 60.75 290 60.5 289.3
L 60.25 288.75 60.25 296.65
Q 60.25 299.15 61.35 301.55 61.8 302.55 62.75 304.45 63.55 306.1 63.8 307.45 64 308.7 64 310.65 63.95 311.7 63.9 313.85
L 63.9 315
Q 65.05 315.6 65.5 315.7 67.5 317.55 69.3 318.1 71.7 318.95 77 318.95
L 77.05 318.95 77.2 318.35
Q 77.6 316.6 78.3 314.55 79.25 311.85 79.25 307.9 79.25 307.55 79.4 303.9 79.5 301.4 79.2 299.9 79.05 299.15 78.35 297.95 77.5 296.5 77.35 296.1 76.65 294.3 76.55 292.25
L 76.55 288.3
Q 76.7 290.95 79.25 293.4 80.7 294.8 83.9 297.5
L 83.2 296.35
M 85.3 244.8
L 86.15 242.85
Q 86 243.1 85.65 243.6 85.4 244.15 85.3 244.8
M 90.15 195.7
Q 89.55 194 89.3 192.95 88.95 191.4 87.4 187.6
L 87.3 185.75 86.8 188.9
Q 86.65 189.7 85.65 191.75 84.8 193.5 84.9 194.65 85 196.1 85.95 198.05 86.5 199.15 87.55 201.3 89 204.6 89.8 207.55 90.45 209.85 91 213.3
L 91.9 219.1
Q 91.9 219.15 92.55 221.85 92.95 223.55 92.9 224.55 91.65 223.65 90.3 221.5 88.95 219.05 88.3 218 88.15 217.8 86.05 215.05 84.7 213.3 84.35 211.8 84.2 211.1 83.5 207.65 83.05 205.1 82.5 203.6 82.25 202.9 81.45 202.2
L 80.1 201.05
Q 79.8 200.65 79.5 199.45 79.25 198.35 78.95 198.05 78.5 197.65 77.7 197.9 77.5 197.95 76.5 198.35 75.7 198.7 74.3 199.8 72.7 201 72.1 201.35 70.1 202.35 69 202.65 70.3 201.65 71.95 200.1 70.1 200.95 69.3 201.95 68.65 202.8 68.05 204.2
L 67.6 205.3
Q 67.6 205.4 67.3 207.2 67.2 208.25 66.9 208.95 66.55 209.6 65.95 209.85 65.7 209.95 65.05 210.2 64.5 210.35 64.25 210.55
L 65.4 210.4
Q 68.25 209.7 71 205.35 71.55 204.35 72.2 203.9
L 80.85 203.9
Q 81.4 205.85 81.8 209.1 82.3 213.05 82.55 214.3 82.8 215.4 83.1 215.95 83.4 216.45 84.4 217.5 84.95 218.15 86.45 219.7 87.75 221.15 87.95 222.25 88.1 222.85 88.1 224.15 88.1 225.65 87.85 226 87.55 226.5 85.55 227.45 84 228.65 83.7 229.05
L 84.75 229.25
Q 85.25 229.35 85.6 229.7 85.95 230.15 86.25 232.05 86.55 233.25 86.6 235 86.6 236 86.55 238 86.55 238.6 86.65 240 86.75 241.3 86.55 242 87.2 240.6 87.25 239.5 87.4 237.65 87.1 234.45 86.7 230.95 86.55 229.6
L 89.55 225.3
Q 89.95 228.45 91.75 233.8 93.75 239.7 94.25 242.3 94.7 244.8 94.6 248.4
L 94.55 249.95
Q 94.5 252.35 93.2 253.9 92 255.35 91.6 256.7 91.4 257.55 91.15 259.95 90.9 259.35 89.95 257.95 89.05 256.6 88.75 255.7 88.3 254.55 87 252.25 85.85 250.2 85.55 249.5
L 86.2 252.65 85.55 252.95
Q 85.85 252.95 86.25 253.15 86.75 256.25 87.55 257.5 88.05 258.25 89 258.85 90.3 262.85 90.3 266.9
L 90.25 274.25
Q 90.25 276 90.35 276.65 90.5 277.75 91.15 278.95 93.7 283.4 94.3 284.7 95.85 288.05 95.9 290.95 95.95 292.2 95.5 293.35 95.3 294 94.65 295.55 94 297.45 94.2 301.1
L 94.55 303
Q 94.8 304.25 94.6 304.9 94.35 305.65 93.55 306.25 93.05 306.6 92.05 307.3 91.05 308.15 90.75 308.2 90.35 308.25 89.15 307.65 86.75 306.45 86.25 305.2
L 86.2 304.95
Q 86.1 307.95 86.2 308.85 86.45 310.7 87.2 312.1 88.2 313.8 89.65 313.95 90.85 314.1 91.7 313.65 91.8 313.6 93.45 312.45 95.1 311.55 95.95 310.95 97.5 309.8 97.5 308.65 97.15 308.6 95.4 308.7 94.05 308.75 93.3 308.45 93.6 308.1 94.3 307.7 95.1 307.25 95.4 306.9 96 306.35 96.55 305.2 97.05 304.15 97.25 303.3 97.6 307.5 102.35 308.9
L 104 309.25
Q 104.05 308.5 104 307.8 103.95 307.05 103.8 306.4
L 101.25 303.95
Q 101.25 295.2 101.15 293.95 100.65 288.4 98.3 284.5 97.3 282.8 97.2 280.45 97.2 279.6 97.55 278.2 97.9 276.7 97.9 275.95 98 274.3 97.1 274.35 95.75 274.75 94.9 274.6 94.8 273.9 95.1 272.85 95.45 271.7 95.55 271.15 96.6 266.6 96.6 263.45 96.5 261.85 96.45 261.05 96.4 259.55 96.6 258.65 96.75 258 97.45 256.95 98.55 255.45 98.55 255.4
L 98.95 254.75 98.95 254.7
Q 99 253.7 99.05 252.75
L 99.2 248
Q 99.2 247.05 99.2 246.15 99.1 243.05 98.4 240.55 97.75 238.35 97.45 237.3 97 235.5 96.8 233.95 96.6 231.95 96.45 230.9 96.2 229.15 95.75 228 94.55 224.75 94.05 222.6 93.4 219.8 93.4 216.95 93.4 215.45 92.85 213.85 91.9 211.25 91.8 210.95 91.45 209.75 91.4 208 91.4 206 91.4 204.95 91.45 202.75 91.4 201.65 91.35 199.8 91.05 198.45 90.8 197.55 90.15 195.7
M 74.25 149.3
Q 73.55 150.05 73.65 152.5 73.7 153.8 73.9 156
L 73.8 158.15
Q 73.7 159.85 73.55 160.6 73.45 161.3 73.25 161.9 72.7 163.55 70.95 165.95 68.85 168.7 68.3 169.8 68.5 170 69.15 170.25 69.75 170.5 69.85 170.7 70 170.85 69.95 171.3 69.85 171.8 69.9 171.95 70.1 172.95 70.3 175 70.75 177.45 70.85 178.25 71.05 180.05 70.85 181.55 70.2 181.85 69.2 182.05 68.35 182.25 67.25 182.25 68.6 182.35 71.25 183.35 73.05 183.8 73.4 182.95 73.45 181.45 73.55 180.3 73.85 177.45 73.95 175.95 74.15 173.4 73.9 171.6 73.85 171.35 73 169.05 72.35 167.45 72.9 166.6 73 166.4 73.5 166.05 74.05 165.7 74.15 165.55 74.5 165.15 75.25 163.25 75.9 161.25 75.9 157.6 75.9 153.95 75.25 151.95
L 74.65 150.25
Q 74.25 149.05 74.15 148.45
L 74.25 149.3
M 63.85 1.15
L 63.65 1.65
Q 63.5916015625 1.813671875 63.55 2 63.6 3.5 64.45 8.1 65.2 11.9 64.9 14.2 64.85 14.65 64.6 15.6 64.35 16.55 64.3 17.05 64.2 18.15 64.6 19.4 65.3 21.7 65.3 21.75 66.25 25.6 66.25 31
L 66.25 34.6
Q 66.2 35.6 65.7 36.9 65.1 38.5 65 39.2 65.05 39.2 66.95 39.45 67.65 39.55 68 40.7
L 68.25 41.85 69.7 41.35
Q 70.4 43.3 70.85 47.65 70.95 50.2 70.9 50.95 70.85 51.85 70.4 53.9 69.95 55.85 69.9 56.9 69.8 57.9 69.9 59.95 69.85 60.5 69.6 61.1 69.15 62.2 69.15 62.25 68.9 63 68.9 65.5 68.9 69.85 68.85 70.4 68.8 71 68.25 73.15 67.85 74.85 67.9 75.85 68.6 74.65 68.9 74 69.15 73.45 69.5 70.65 69.8 68.35 70.55 67.7 72.2 68.95 72.05 72.55 71.9 75.4 70.9 77.6 70.2 79.05 67.75 82.75
L 67.45 83.25
Q 68.15 84.2 70 84.55 72.25 84.95 72.8 85.3
L 72.9 85.35 73.25 85.65 73.35 86.95
Q 73.4 88.65 73 91.2 72.55 93.4 71.15 94.6
L 70.3 95.2
Q 69.9 95.45 68.6 95.9 67.4 96.3 66.95 96.7
L 66.7 96.85
Q 71.2 97.6 72.15 97.65 72.65 97.65 74.55 97.35 76.05 97.1 76.85 97.35 77.15 99.8 76.85 100.55 76.5 101.35 75.55 101.5 74.5 101.55 73.95 101.65 73.8 102.1 74.2 104.75 74.55 106.8 73.35 107.55
L 74.15 107.65 73.65 108
Q 72.95 108.75 71.3 111.1 71.05 111.5 70.7 112.1 70.35 112.6 69.9 112.95 69.65 113.15 68.9 113.6 68.25 113.95 67.95 114.25 68.95 114.35 70.9 113.95 72.95 113.6 73.85 113.65 74.25 117.55 74.2 119.35 74.05 123.1 72.5 124.5 71.75 125.2 70 126 67.9 126.95 67.3 127.35 66.25 128.05 65.55 128.9 65.2 129.3 65.15 129.55 65.1 129.75 64.9 130.3 64.3 131.95 64 134.95 63.65 138.25 63.25 139.6
L 62.95 140.35
Q 62.2 142.05 60.55 143.2 60 143.65 59.1 143.85 58.6 143.95 56.65 143.95 57.95 144 60.4 144.25 62.4 144.15 63.55 142.45 64.85 140.65 65.95 137
L 66 136.9
Q 67 133.7 67.6 132.3 68.1 132.2 68.9 132.25 69.35 132.25 70.25 132.3 71.55 132.3 74.4 132.1 75.9 132.1 76.95 132.3 76.95 133.95 76.6 137.85 76.45 141.3 77.15 143.25 77.45 144.15 78.5 145.5 78.8 146.15 78.9 147.05 78.9 147.6 78.95 148.65 79.15 150.35 79.55 153.65 79.85 156.55 79.9 158.6 79.9 160 79.45 161.2 79.15 161.95 78.3 163.65 77.15 166.2 78 170 78.8 173.5 80.7 175.7
L 81.5 176.6
Q 81.15 180.2 79.3 184 78.9 184.8 78.75 185.6
L 78.55 187.3
Q 78.4 188.6 77.3 190.65 76.05 192.9 75.85 193.9 75.75 194.35 75.75 195.7
L 76.55 194.55
Q 79.25 190.3 80.2 185.6 80.55 183.4 80.95 182.15 81.75 179.8 83.25 180.35 83.7 179.7 83.7 178.2 83.65 178.05 83.5 175.9
L 83.3 173.15
Q 82.95 167.2 83.25 163.6
L 83.4 163.1 83 159.9
Q 82.9 159 83.05 156.1 83.2 153.6 82.9 152.3
L 82.9 149.1
Q 82.95 144.75 82.95 142.55 83 138.6 82.9 135.95 82.55 131.95 82.4 129.85 82.3 126.65 82.25 125 82.1 122 81.8 120.1 80.9 114.35 80.9 108.85
L 80.9 107.8
Q 80.75 105.35 80.15 103.7 80.1 103.5 80 103.3
L 80 103.35 79.65 103.85 80 103.3
Q 79.7 102.65 79.3 102 79.25 101.9 79.2 101.85
L 75.9 91.6
Q 75.6 89.55 75.5 87.25
L 75.4 84.6
Q 75.65 78.9 75.7 75.95 75.85 70.65 75.05 67.45 74.85 66.6 73.9 64 73.1 61.75 72.9 60.45 72.7 59.25 72.55 57.2 72.4 54.75 72.3 53.95 72 49.05 71.8 46.6 71.5 42.2 70.55 39.35 70.4 38.85 70.25 38.4 70.2 38.3 70.2 38.2
L 69.4 35.3
Q 68.75 32.4 68.55 29.2
L 68.4 25.45
Q 68.4 22.65 67.8 18.5 67.05 13.1 66.9 11.55 66.65 8.2 65.95 5.45 65.55 3.8 65.35 2.9 64.95 1.35 64.4 0.5
L 64.4 0.45 64.05 0
Q 63.9 0.55 63.9 1.05 63.85 1.1 63.85 1.15
M 77.9 106.55
L 78.25 106.1
Q 78 106.6 77.6 106.85
L 77.9 106.55
M 76.4 122.3
Q 76.45 122.25 77.25 115.6
L 79.25 110.6
Q 79.4 112.9 79.7 117.6 79.85 121.65 79.5 124.55 79.35 125.9 78.8 126.8 78.4 127.55 77.3 128.65 76.55 129.4 76.1 129.5 75.8 129.6 74.5 129.6 72.75 129.5 71.8 129.5 70.2 129.45 69.25 129.85 69.5 127.85 72.25 127.05 75.4 126.1 76.4 122.3 Z"/>

<path fill="#5E5140" stroke="none" d="
M 42.25 237.2
Q 42.1 238.75 41.8 240.1 41.6 241 41.35 243.2 41.1 245.25 40.85 246.3 39.9 250.1 39.9 252 39.95 254.85 38.95 259.7 37.8 265.2 37.65 267.35 37.5 269.45 37.25 273.55 36.95 277.1 36.2 279.7 35.9 280.75 35.5 283.9 34.25 284.05 32.95 283.9 32.55 280.3 32.7 274.95 32.9 268.95 32.9 265.95 32.85 261.25 32.8 258.85 32.75 254.6 32.95 251.8 31.9 252.8 30.05 251.9
L 30 254.2 29.9 260.55
Q 29.75 268.65 28.05 274.45
L 27.45 277.1
Q 27.3015625 277.842578125 27.2 278.65 27.2095703125 278.65 27.25 278.65 28.45 274.7 29.25 272.75 29.15 275.15 29.05 279.75 28.85 283.75 28.25 286.65 27.6 290.05 25.95 292.8 26.5 293.1 27.05 293.35
L 25.15 297.4 25.05 297.55
Q 25.85 296.95 26.2 296.6 26.85 296.05 27.15 295.55 27.75 294 28.25 293.25 29.15 291.75 29.3 291 29.55 289.85 29.65 289.35 29.9 288.5 30.25 287.9 30.8 287 31.3 285.55 31.95 283.55 32.15 283.1 33.1 284.45 32.6 288.7 32.5 289.65 32.15 291.55 31.9 293.3 31.9 294.55 31.9 297.7 31.65 298.65 31.45 299.55 30.9 300.7 30.55 301.35 29.9 302.65
L 29.1 304.25
Q 28.85 304.65 28.55 305.2 28.9 305.3 29.5 305.4
L 29.9 305.45
Q 29.5 306.95 28.8 308.35 28.75 308.4 28.75 308.45 28.7 308.5 28.7 308.55 28.7 308.6 28.7 308.65
L 28.25 309.45 28.95 309.05
Q 29.7 308.7 31.1 308.55 34.2 308 34.85 306.65 35.05 306.2 35.25 304.9 35.4 303.75 35.9 303.1 36.25 302.65 37 301.9 37.8 301.15 38.15 300.65 39.4 298.85 39.85 297.15 40.25 295.7 40.25 293.3 40.3 292 40.35 291.3 40.4 290.1 40.2 289.35 40 288.65 39.3 287.6 38.4 286.25 38.2 285.9 37.35 284.2 37.55 280.3 37.75 276.75 38.05 274.9 38.6 271.75 39.75 269.7 39.6 270.2 39.5 271.25 39.4 272.3 39.25 272.8 38.6 274.9 38.55 275.65 38.55 276.25 38.35 278.5 38.25 280.6 38.7 281.2 39.25 281.95 41.8 282.4 43.15 282.65 45.3 282.9 49.15 283.55 51.1 282.75 50.6 284 50.1 284.7 49.65 285.25 48.55 286.35 46.8 288 46.05 288.45 45.7 288.7 45.15 288.9 44.75 289.15 44.55 289.65 44.25 290.4 44.55 292.7 44.55 293.6 44.2 295.2 44.15 295.6 44.35 297.8 44.45 299.5 44.05 300.25 44.8 300.9 44.95 302.8 45 303.85 44.9 305.65 44.85 308.3 45.55 309.2 46.25 310.1 49.05 311.1 50.95 311.75 52.05 311.9 53.75 312.15 55 311.6 56.65 310.9 57.65 308.95 58.7 306.95 58.15 305.25
L 57.65 305.2
Q 58.65 305 59 302.75 59 302.65 59.25 299.6 59.35 298.3 59.3 296.2 59.25 293.55 59.25 292.8
L 59.25 292.2 59.25 291.95
Q 59.25 286.05 57.85 281.85 57.15 279.75 56.85 278.75 56.4 277.15 56.25 275.65 56.25 274.75 56.15 274.35 55.95 273.6 55.3 273.55 55.1 272.9 55.3 271.5 55.55 269.65 55.55 269.3 55.55 268.4 55.8 263.65 55.7 271.25 57.25 275.8 57.55 276.6 58.25 277.7 59.15 279 59.4 279.55 60.25 281.25 60.25 284.05
L 60.25 288.75 60.5 289.3
Q 60.75 290 60.95 292.3 61.2 294.5 62.15 297.55 62.25 297.85 62.65 299.6 62.9 300.95 63.3 301.65 63.9 302.7 65.6 303.15 67 303.5 68.5 303.3 70.75 303.1 71.95 301.25 73.15 299.5 72.85 297.2 72.75 296.35 71.25 292.9 70.05 290.05 70.5 288.65 70.75 287.95 71.75 286.85 72.9 285.55 73.2 285 73.8 283.9 73.85 283.4 73.9 282.9 73.55 281.95 73.15 280.95 71.95 279.5 70.65 277.8 69.85 277.6 69.1 277.4 67.4 277.65 65.4 277.95 64.85 277.95 63.1 277.9 60.95 277.25 59.8 276.95 58.8 276.4 57.35 275.55 57.85 274.8 58.7 275.7 60.4 275.7 58.75 275.1 58.25 272.75 57.2 268.4 56.75 266.2 55.9 262.25 55.9 259.5
L 55.85 260.45 55.9 253.85
Q 55.9 253.25 55.65 251.45 55.55 250.5 55.55 249.8 55.45 252.5 54.9 258.2 54.7 260.1 54.75 263.05 54.8 264.65 54.9 267.85 54.9 273.9 53.5 278.05 53.15 279.1 52.25 279.95 50.75 281.35 50.6 281.55 50.45 281.7 50.35 282.15 50.25 282.5 49.95 282.65 49.75 282.75 49 282.7 48.2 282.6 48 282.6 45.25 282.6 41.9 281.95 41.25 281.85 40.9 281.75 40.2 281.6 39.95 281.3 38.9 280.05 39.6 275.05 39.8 273.35 40.85 269.35 41.75 265.75 41.9 263.65 42 262.4 42 259.55 41.95 256.95 42.15 255.5 42.6 252.45 42.45 247.65 42.25 242.3 42.25 239.75
L 42.25 237.2
M 42.55 231.3
L 42.5 231.3 42.25 237.2
Q 42.55 234.85 42.55 231.3
M 51 214.35
Q 52.6 215.1 55.1 214.5 51.95 214.2 51 214.35
M 66.9 208.95
Q 67.2 208.25 67.3 207.2 66.85 208.8 65.95 209.85 66.55 209.6 66.9 208.95
M 87.95 222.25
Q 87.75 221.15 86.45 219.7 84.95 218.15 84.4 217.5 83.4 216.45 83.1 215.95 82.8 215.4 82.55 214.3 82.3 213.05 81.8 209.1 81.4 205.85 80.85 203.9
L 72.2 203.9
Q 71.55 204.35 71 205.35 68.25 209.7 65.4 210.4 64.2 211.5 62.2 211.95 61.15 212.15 58.8 213.15 56.25 214.2 55.1 214.5 56.4 214.6 56.9 214.6 60.3 214.6 62.5 213.85 63.05 213.65 64.9 213.15 66.35 212.75 67.25 212.35 68.05 212 68.4 211.65 68.55 211.5 69.2 210.55 69.3 210.4 70.3 209.4 71.05 208.7 71.15 208.15 72.55 208.2 73.65 210.55 74.55 212.55 74.55 214.3 74.6 215.95 74.8 219.55 74.9 222.7 74.35 224.65 73.8 226.5 72.8 228.05 71.6 229.9 70.2 230.65
L 68.9 231.25
Q 68.4 231.45 65.85 232.1 63.85 232.6 63.05 233.3 64.25 233.85 66.65 233.6 69.2 233.35 70.25 233.65 72.35 234.4 73.65 237.1 73.95 237.75 75.15 239.9 76.15 241.95 75.95 242.9 75.85 243.3 75.25 243.95 74.4 244.8 74.3 244.95 73.7 245.85 73.6 246.35 73.4 247.1 73.85 247.85 74.15 248.3 75.5 249.55 76.65 250.6 76.9 251.6 77.2 252.65 76.9 254.2 76.8 254.7 76.2 256.65 75.25 260.25 75.25 264.35 75.2 265.95 75.25 269.25 75.9 268.2 76.35 266.95 76.55 266.3 76.55 263.85 76.55 262.65 76.7 260.85 77 258 77 257.85 77.4 258.75 77.55 260.25 77.7 261.4 78.5 263.95 79.2 266.2 79.25 267.65
L 79.25 272.55
Q 79.15 275.65 78.55 278.1 78.3 279.05 77.15 281.1 76.1 283 75.9 284 75.6 285.85 77 287.8 77.7 288.8 79.4 290.5 81.1 292.2 81.75 293.2 82.2 293.85 82.55 294.8 82.8 295.3 83.2 296.35
L 83.9 297.5
Q 86.15 299.9 86.25 302.35 86.3 303.25 86.2 304.95
L 86.25 305.2
Q 86.75 306.45 89.15 307.65 90.35 308.25 90.75 308.2 91.05 308.15 92.05 307.3 93.05 306.6 93.55 306.25 94.35 305.65 94.6 304.9 94.8 304.25 94.55 303
L 94.2 301.1
Q 94 297.45 94.65 295.55 95.3 294 95.5 293.35 95.95 292.2 95.9 290.95 95.85 288.05 94.3 284.7 93.7 283.4 91.15 278.95 90.5 277.75 90.35 276.65 90.25 276 90.25 274.25
L 90.3 266.9
Q 90.3 262.85 89 258.85 88.05 258.25 87.55 257.5 86.75 256.25 86.25 253.15 85.85 252.95 85.55 252.95
L 86.2 252.65 85.55 249.5
Q 85.05 248.2 84.9 247.3 84.7 246.15 85.3 244.8 85.4 244.15 85.65 243.6 86 243.1 86.15 242.85
L 86.55 242
Q 86.75 241.3 86.65 240 86.55 238.6 86.55 238 86.6 236 86.6 235 86.55 233.25 86.25 232.05 85.95 230.15 85.6 229.7 85.25 229.35 84.75 229.25
L 83.7 229.05
Q 84 228.65 85.55 227.45 87.55 226.5 87.85 226 88.1 225.65 88.1 224.15 88.1 222.85 87.95 222.25
M 81.65 265.3
Q 82.35 268.05 82.5 269.55 82.95 273.75 82.7 275.75 82.2 279.35 79.55 280.3
L 79.55 265.95
Q 79.5 261.3 79.5 258.95 79.5 254.85 79.9 251.95 79.8 254.6 80.75 261.05 80.95 262.35 81.65 265.3
M 54.95 142.35
Q 55.05 143.6 55.55 144.05 56.25 144.8 58.4 145.15 60.35 145.5 61.55 145.3 63.2 144.95 64.3 143.1 64.85 142.15 65.8 139.6 66.2 138.55 67 138.1 70.55 141.65 70.85 142 73.05 144.4 73.9 146.45
L 73.9 146.5
Q 74.35 147.45 74.5 148.55 74.65 149.4 74.65 150.25
L 75.25 151.95
Q 75.9 153.95 75.9 157.6 75.9 161.25 75.25 163.25 74.5 165.15 74.15 165.55 74.05 165.7 73.5 166.05 73 166.4 72.9 166.6 72.35 167.45 73 169.05 73.85 171.35 73.9 171.6 74.15 173.4 73.95 175.95 73.85 177.45 73.55 180.3 73.45 181.45 73.4 182.95 73.05 183.8 71.25 183.35 68.6 182.35 67.25 182.25 68.35 182.25 69.2 182.05 68.5 182.1 67.3 182 66.05 181.9 65.85 181.9 65.85 184.15 68.4 188.2 70.85 192.05 70.55 194.6 70.45 195.4 70.1 196.4 69.95 197 69.5 198.2 68.8 200.35 68.05 204.2 68.65 202.8 69.3 201.95 70.1 200.95 71.95 200.1 74.05 198.1 75.75 195.7 75.75 194.35 75.85 193.9 76.05 192.9 77.3 190.65 78.4 188.6 78.55 187.3
L 78.75 185.6
Q 78.9 184.8 79.3 184 81.15 180.2 81.5 176.6
L 80.7 175.7
Q 78.8 173.5 78 170 77.15 166.2 78.3 163.65 79.15 161.95 79.45 161.2 79.9 160 79.9 158.6 79.85 156.55 79.55 153.65 79.15 150.35 78.95 148.65 78.9 147.6 78.9 147.05 78.8 146.15 78.5 145.5 77.45 144.15 77.15 143.25 76.45 141.3 76.6 137.85 76.95 133.95 76.95 132.3 75.9 132.1 74.4 132.1 71.55 132.3 70.25 132.3 69.35 132.25 68.9 132.25 68.1 132.2 67.6 132.3 67 133.7 66 136.9
L 65.95 137
Q 64.85 140.65 63.55 142.45 62.4 144.15 60.4 144.25 57.95 144 56.65 143.95 58.6 143.95 59.1 143.85 56.8 143.95 55.85 143.55 55.1 143.2 54.95 142.35
M 73 91.2
Q 73.4 88.65 73.35 86.95 72.9 87.3 71.9 87.95 71.1 88.5 71.15 89 71.5 88.9 72.2 89 72.6 92.4 71.15 94.6 72.55 93.4 73 91.2
M 60.95 97.55
Q 61.8 97.65 64.7 97.75 67.3 98 67.95 98.95 68.25 99.4 68.3 100.2 68.3 100.7 68.25 101.6 68.2 102.65 67.8 103.35 67.5 103.8 66.65 104.8 66.15 105.45 66 106.05 65.9 106.45 65.9 107.55 65.9 110.3 64.55 113.95 64 115.35 62.5 116.7 60.9 118.15 59.4 118.55 60.55 118.75 61.7 118.65 62.1 118.65 63.35 118.3 64.55 118.05 64.95 118.35 65.4 118.7 65.7 120.5 65.9 121.9 65.9 122.95 66 125 65.75 126.15 65.5 127.6 64.55 129.05 63.9 130.05 63.7 131 63.55 131.65 63.55 133.1 63.55 136.8 63.15 138.75
L 62.95 140.35 63.25 139.6
Q 63.65 138.25 64 134.95 64.3 131.95 64.9 130.3 65.1 129.75 65.15 129.55 65.2 129.3 65.55 128.9 66.25 128.05 67.3 127.35 67.9 126.95 70 126 71.75 125.2 72.5 124.5 74.05 123.1 74.2 119.35 74.25 117.55 73.85 113.65 72.95 113.6 70.9 113.95 68.95 114.35 67.95 114.25 68.25 113.95 68.9 113.6 69.65 113.15 69.9 112.95 70.35 112.6 70.7 112.1 71.05 111.5 71.3 111.1 72.95 108.75 73.65 108
L 74.15 107.65 73.35 107.55
Q 74.55 106.8 74.2 104.75 73.8 102.1 73.95 101.65 74.5 101.55 75.55 101.5 76.5 101.35 76.85 100.55 77.15 99.8 76.85 97.35 76.05 97.1 74.55 97.35 72.65 97.65 72.15 97.65 71.2 97.6 66.7 96.85
L 66.95 96.7
Q 64.85 96.75 63.85 96.85 62.05 96.95 60.95 97.55
M 62.7 42.2
Q 63.1 42.3 64.05 42.2
L 63.2 41.75 62.7 42.2
M 63.4 3.45
Q 63.4 3.55 63.4 3.7
L 63.4 4
Q 63.45 5.5 63.4 5.95 63.35 6.4 63.25 7 63.25 7.1 63.2 7.2 63.5 7.4 63.6 7.6 63.85 8.15 63.55 10.2 63.55 12.05 62.9 15.3 62.65 17.5 64 20.7 65.5 24.2 65.55 25.95 65.7 31.1 65.3 34 64.75 38.2 62.9 41.6
L 63.2 41.75 66.9 43.6
Q 66.95 44.2 67.8 49.55 68.35 53.2 67.9 55.4 67.8 55.9 67.3 57.15 66.85 58.15 66.9 59 66.9 59.55 67.1 63.25 67.25 65.9 67.25 67.65 67.25 69.55 66.75 71.7 66.65 72.1 65.65 75.7 65.1 77.75 63.35 78.9 62.35 79.55 60 80.95
L 63.5 80.7
Q 64.75 80.5 64.9 80.6 65.4 80.8 65.4 81.2 65.45 81.75 65.6 81.95 65.95 82.45 66.6 82.7
L 64.9 83.55
Q 63.95 83.95 62.25 83.9 60.3 83.85 59.55 84 59.95 84.35 61.1 84.5 61.75 84.6 62.85 84.7 66.4 85.25 69.9 85.3
L 72.8 85.3
Q 72.25 84.95 70 84.55 68.15 84.2 67.45 83.25
L 67.75 82.75
Q 70.2 79.05 70.9 77.6 71.9 75.4 72.05 72.55 72.2 68.95 70.55 67.7 69.8 68.35 69.5 70.65 69.15 73.45 68.9 74 68.6 74.65 67.9 75.85 67.85 74.85 68.25 73.15 68.8 71 68.85 70.4 68.9 69.85 68.9 65.5 68.9 63 69.15 62.25 69.15 62.2 69.6 61.1 69.85 60.5 69.9 59.95 69.8 57.9 69.9 56.9 69.95 55.85 70.4 53.9 70.85 51.85 70.9 50.95 70.95 50.2 70.85 47.65 70.4 43.3 69.7 41.35
L 68.25 41.85 68 40.7
Q 67.65 39.55 66.95 39.45 65.05 39.2 65 39.2 65.1 38.5 65.7 36.9 66.2 35.6 66.25 34.6
L 66.25 31
Q 66.25 25.6 65.3 21.75 65.3 21.7 64.6 19.4 64.2 18.15 64.3 17.05 64.35 16.55 64.6 15.6 64.85 14.65 64.9 14.2 65.2 11.9 64.45 8.1 63.6 3.5 63.55 2 63.4 2.60703125 63.4 3.45 Z"/>

<path fill="#76654E" stroke="none" d="
M 40.25 239.3
L 38.25 241.95
Q 34.55 241.7 34.55 249.3 34.55 249.95 34.5 251.25 34.45 252.45 34.55 253.15 34.65 253.95 35.05 254.25 35.7 254.85 35.95 255.2 36.6 256.2 36.65 258.55 36.65 259.85 36.55 262.2 36.55 262.85 36.4 265.1 36.4 267.15 37.15 267.6 37.85 265.85 38.2 263.3 38.3 262.45 38.6 258.85
L 39.3 250.9
Q 39.35 249.85 39.85 247.55 40.25 245.5 40.25 244.25
L 40.25 239.3
M 69.9 211.3
Q 68.95 211.45 67.8 213.05 66.45 214.9 65.95 215.25 62.35 217.7 54.25 216.95 52.05 216.5 50.85 216.6 49.15 216.8 45.65 218.75 43.15 220.4 41.8 220.95 41.65 221 40.8 221.2 40.05 221.35 39.8 221.55 38.75 222.35 38.45 224.7 38.1 227.5 37.6 228.3 37.5 228.45 35.95 230.15 35.9 231.6 35.9 233.45 35.9 233.75 35.9 234.05
L 35.75 234.75
Q 35.671875 235.26875 35.5 235.75 37.4 235.25 39.5 233.9
L 42.5 231.3 42.55 231.3 43.2 230.7 51.6 224.25
Q 53.2 223 54.2 222.2 56.1 220.7 57.15 220.25 59.05 219.6 59.95 220.25 60.6 220.75 60.55 221.95 60.55 222.6 60.55 223.8 60.75 225.2 61.7 225.65 62.4 226 64.05 225.95 68.2 225.85 69.9 222.6 72.3 217.85 71.9 209.3
L 69.9 211.3
M 47.9 192.9
Q 46.65 193.7 45.4 195.05 44.9 195.6 43.3 197.6 41.9 199.4 41.2 201.25 41.05 202.2 40.95 205.2
L 40.9 206.95
Q 40.9 207.05 40.9 207.15 40.9 207.3 40.9 207.45 40.9 207.7 40.85 207.95 41.45 208.05 42.35 208 42.9 208 43.8 207.95 46.85 207.9 50.45 206.8 51.85 206.4 56.8 204.6 60.45 203.35 61.9 202.35 64.05 200.95 64.25 200.35
L 63.55 202.6
Q 65.2 200.55 65.7 197.6 66 195.65 65.9 191.95 65.85 190.5 65.65 189.7 65.35 188.55 64.55 187.7 63.45 186.4 61.9 186.7 60.5 186.9 59.25 188.25 58.85 188.65 58.25 190 57.7 191.25 57.25 191.55 56.75 191.9 55.95 191.95 55.05 191.95 54.6 191.95 51.5 191.95 51.2 192 49.25 192.15 47.9 192.9
M 55.35 146.25
Q 54.7 146.4 54.35 147.3 53.95 148.35 53.6 148.65 52.95 149.2 51.55 149.75 50.4 150.35 50.2 151.6 50.05 152.55 50.6 154.5 51.1 156.35 50.85 157.2 47.75 158.1 46.95 163.55
L 46.95 167.35
Q 46.9 168.25 46.9 168.75
L 46.8 169.75
Q 46.65 170.6 45.9 172.05 45.15 173.5 44.95 174.45
L 44.85 175.05
Q 44.6 176.2 44.55 177.2
L 44.6 177.15 47.75 172.65
Q 49.15 170.5 51.05 168.95 52.5 167.8 55.25 166.25 57.5 165 58 164.65 59.45 163.6 60.15 162.25 60.9 160.25 61.55 159.3 62.55 157.8 62.8 157.05 60.65 158.3 58.3 157.9 58.05 156.8 58.65 156.05 59.05 155.5 60.2 154.85 61.85 154 62.65 153.5 64.1 152.7 64.9 151.9 66.85 150.05 67.35 146.75 67.55 145.3 67.55 140.95
L 65.25 141.6
Q 64 144.1 63.3 144.85 62.1 146.35 60.15 146.6 59.45 146.7 57.7 146.4 56 146.05 55.35 146.25
M 57.65 45.15
Q 57.4 45.85 57.3 46.35 56.9 48.4 56.9 53.05
L 56.95 65.35 57.05 74 57.35 74.75
Q 57.45 75.15 57.5 76.05 57.55 76.85 57.7 77.25 58.2 77.2 58.45 76.2 58.65 75 58.8 74.6 59.3 73.45 60.3 71.95 61.15 70.45 61.7 69.65 62.7 68.3 63.85 68.25 63.9 67.25 64.6 65.05 65.25 63 65.25 61.7 65.25 59.7 64.95 59.05 64.7 58.55 63.7 57.7 62.8 56.9 62.6 56.25 62.35 55.4 62.55 53.8 62.9 52.05 62.95 51.3 62.95 48.7 63.25 48.2 63.65 47.6 64.4 47.6 64.85 47.55 65.85 47.55 65.95 46.25 65.95 45.95 65.85 45.1 65.2 44.6 64.65 44.2 63.45 43.9 62.3 43.6 61.55 43.6 59.85 43.55 57.65 45.15
M 53.5 257
Q 53.15 257.65 53 258.85 52.95 259.5 52.8 260.85 52.2 265.45 52.2 267.6 52.3 271.85 50.3 275.2 48.65 278 50.25 279.2 51.35 280.1 51.95 278.85 52.45 277.15 52.9 276.6
L 53.55 266.3
Q 53.7 263.2 53.75 261.6 53.85 258.8 53.5 257
M 59.5 239.6
Q 59.05 240.2 58.15 241.1 57.5 241.95 57.2 242.85 56.8 244.1 56.8 246.05 56.8 247.15 56.9 249.3 56.85 251.75 57.5 253.15 58.35 254.95 60.5 255.3 62.2 255.6 62.9 254 63.5 251.9 63.9 250.85 64.5 249.4 66.3 247.5 68.4 245.3 69 244.25 69.9 242.75 69.9 240.1 69.95 237.05 67.9 237.3
L 66.9 235.3
Q 64.95 235.6 63.9 235.8 62.05 236.15 61.2 237 60.85 237.35 60.35 238.3 59.8 239.25 59.5 239.6
M 48.9 232.95
L 46.55 233.95
Q 45.65 234.65 45.4 235.9 45.35 236.2 45.2 238.25 45.15 240.05 44.65 243.55 44.55 244.6 44.55 249.95 44.55 253.2 44.5 253.6 44.5 253.8 44.05 255.4 43.75 256.5 43.95 257.25 44.6 257.45 45.15 257.25 45.2 256.75 45.55 256.35 46.05 255.95 46.25 255.65 46.95 254.75 47.9 252.2 49.2 248.6 49.9 245.8 51 241.45 51.1 239.05 51.2 234.8 48.9 232.95
M 64.25 205.95
L 62.55 203.95
Q 62.3 205.85 58.55 207.4 55.1 208.75 55.6 210.25 58.15 210.6 60.4 209.25 61.7 208.45 64.25 205.95
M 68.15 175.4
Q 68.55 173.9 68.9 173.6
L 65.55 173.6
Q 64.85 175.2 62.95 177.7 60.9 180.3 60.25 181.65 61.2 182.35 62.65 181.9 63.8 181.55 64.9 180.7 66.55 179.45 67.5 177.55 67.7 177.15 68.15 175.4
M 70.25 154.6
Q 69.75 156.45 67.95 158.5 67 159.6 64.65 161.65
L 60.8 164.7 59.3 166.25
Q 58.7 167.05 58.45 168.2 57.75 168.9 55.95 169.7 54 170.6 53.3 171.2 52.65 171.75 51.15 172.65 50.15 173.45 49.15 175.6 47.8 177.65 47.2 179.65 46.65 181.5 46.55 184.1 46.7 182.2 50.8 181.2 53.25 180.6 54.4 180.15 56.25 179.45 57.65 178.3 63 173.85 65.2 170.35 65.5 169.85 67.95 167.05 69.6 165.15 70 163.25 70.1 162.8 70 159.45 69.9 156.75 70.55 155.95
L 70.25 154.6
M 62.25 123.3
L 63.55 120.3
Q 61.75 119.55 60.15 120 58.75 120.4 57.2 121.8 56.25 122.7 54.25 124.45 52.7 126.05 52.2 127.65 51.7 129.4 52.6 129.55 54.25 129.85 54.75 130.35 55.25 130.85 55.35 132.35 55.55 134.25 55.65 134.6 56.4 137 57.2 137.3 58.25 137.75 59.55 136.9 60.55 136.25 61.25 135.2 62.55 133.4 62.5 129.4 62.25 124.95 62.25 123.3
M 63.55 107.3
L 62.25 105.95
Q 61.45 106.6 59.15 107.95 57.1 109.15 56.15 110.15 54.5 111.9 53.25 113.95 51.6 116.55 51.55 118.2 52.5 118.25 55.25 117.3 56.55 117 58.05 116 60.45 114.25 61.7 112.25 63 110.25 63.55 107.3
M 55.85 91
Q 56.7 91.55 59.45 91.1 62.75 90.55 63.5 90.65 63.25 91.45 62.65 92.5 62.3 93.1 61.6 94.25 64.8 94.5 65.75 94.4 68.5 94.15 68.95 92.45 69.05 92.15 68.8 89.3 68.6 86.95 69.25 86.6
L 68.25 85.95
Q 65.5 85.8 64.15 85.85 61.85 85.95 60.4 86.85 58.6 88 55.85 91
M 60.1 98.1
Q 58.05 98.1 57.25 98.6
L 56.55 99.3
Q 55.05 100.3 54.45 101 53.35 102.3 54 103.5 55.15 103.25 56.75 102.35 58.85 101.05 59.35 100.85 59.7 100.7 62.55 99.95 63.65 99.6 63.8 99.45 64.1 99.15 63.05 98.6 62.1 98.15 60.1 98.1 Z"/>
</g>
</defs>

<g transform="matrix( 1, 0, 0, 1, -0.15,0) ">
<use xlink:href="#Layer0_0_MEMBER_0_MEMBER_0_FILL"/>
</g>

<g transform="matrix( 1, 0, 0, 1, -0.15,0) ">
<use xlink:href="#Layer0_0_MEMBER_0_MEMBER_1_FILL"/>
</g>

<g transform="matrix( 1, 0, 0, 1, 0,0) ">
<use xlink:href="#Layer0_0_MEMBER_1_FILL"/>
</g>
</svg>
