<?xml version="1.0" encoding="utf-8"?>
<!-- Generator: Adobe Illustrator 20.1.0, SVG Export Plug-In . SVG Version: 6.00 Build 0)  -->
<svg version="1.1" id="Layer_1" xmlns="http://www.w3.org/2000/svg" xmlns:xlink="http://www.w3.org/1999/xlink" x="0px" y="0px"
	 viewBox="0 0 224 230" style="enable-background:new 0 0 224 230;" xml:space="preserve">
<style type="text/css">
	.st0{fill:url(#SVGID_1_);}
	.st1{fill:#E9C3BD;}
	.st2{fill:#A94950;}
	.st3{fill:url(#SVGID_2_);}
	.st4{fill:#83704C;}
	.st5{fill:#65583D;}
</style>
<g>
	<g transform="matrix( 1, 0, 0, 1, 0,0.1) ">
		<g>
			<g id="Layer0_0_MEMBER_0_FILL">
				
					<linearGradient id="SVGID_1_" gradientUnits="userSpaceOnUse" x1="107.9358" y1="408.1301" x2="107.9358" y2="380.0634" gradientTransform="matrix(1 0 0 -1 0 501.9)">
					<stop  offset="0" style="stop-color:#605439"/>
					<stop  offset="1" style="stop-color:#373226"/>
				</linearGradient>
				<path class="st0" d="M67.5,121.6l1.9,21.9l71.4,9.5l7.6-41.9l-9.5-22.9l-16.6,23.3l-12.4-17.6l-7.1,16.2l-7.2-9.5l-12,11.9
					L68,84.4L67.5,121.6z"/>
			</g>
		</g>
	</g>
	<g transform="matrix( 1, 0, 0, 1, 0,0.1) ">
		<g>
			<g id="Layer0_0_MEMBER_1_FILL">
				<path class="st1" d="M46.4,18.5L45.7,17c-1.1-1.2-2-1.5-2.7-1c-0.4,0.3-0.7,0.8-1,1.5c-0.1,0.4-0.2,0.7-0.3,1
					c-1.3-1.3-2.5-1.6-3.5-0.9c-0.6,0.5-1,1.3-1.1,2.4c-0.1,0.5-0.1,1,0,1.4c-1.9-0.8-3.4-0.7-4.6,0.4c-1.1,1-1.3,2.4-0.8,4.2
					c-0.4,0.1-0.9,0.4-1.4,0.7c-1,0.6-1.5,1.2-1.7,2c-0.3,1.1-0.1,2.3,0.8,3.4c-1,0.1-1.9,0.3-2.9,0.6c-1.8,0.6-2.8,1.4-2.9,2.5
					c-0.1,1.1,0.6,1.6,1.9,1.4c0.6-0.1,1.3-0.3,1.9-0.6c-1.6,1.1-3,2.3-4.2,3.4c-2.4,2.4-2.7,3.7-0.9,4c1.8,0.4,3.6-0.6,5.3-3
					l1.9-3.5c0.4,1.4,1,1.8,1.8,1.1c0.8-0.6,1.3-2.1,1.5-4.5c2,1.2,3.4,1.5,4,0.8c0.6-0.8,1.1-2,1.3-3.6c1.3,0.9,2.2,0.9,2.5-0.1
					c0.2-0.6,0.4-1.3,0.5-2.3l0.1-1.2c1.7,0.8,2.6,0.5,3-0.8l0.7-3.8c1,0.3,1.6-0.2,1.9-1.2C47,20.7,46.9,19.7,46.4,18.5z"/>
			</g>
		</g>
	</g>
	<g transform="matrix( 1, 0, 0, 1, 0,0.1) ">
		<g>
			<g id="Layer0_0_MEMBER_2_FILL">
				<path class="st1" d="M70.7,43.3c-1.5-0.3-2.5-0.1-3,0.6c-0.4,0.6-0.8,1.4-1,2.3c-0.1,0.4-0.2,0.7-0.2,1.1
					c-1.1-1.5-2.2-1.6-3.1-0.4c-0.9,1.2-1,2.9-0.4,5.1c-0.3-0.2-0.6-0.2-1-0.1c-0.8,0.2-1.4,1-2,2.4c-0.5,1.5-0.5,2.7-0.1,3.7
					c0.3,0.5,0.5,0.9,0.9,1.1c-0.3,0.3-0.5,0.6-0.8,1c-0.5,0.8-0.9,1.7-1.1,2.6c-0.3,1.5,0.4,2.2,2.1,2.1c-1.1,1-2,1.9-2.9,3
					c-1.8,2-2.2,3.3-1.1,3.9s2.4-0.4,4.2-2.9c1-1.2,1.8-2.5,2.5-3.8c0.5,1.3,1.1,1.7,1.7,1.1c0.6-0.6,1.2-2.6,1.7-6l1,1.4
					c0.8,0.8,1.4,0.6,2-0.6c0.9-1.8,1.2-3.9,1.1-6.1l1.5,1c1.1,0.4,1.8,0.1,2.1-1c0.3-1,0.4-2.1,0.6-3.3V50c1.1,0.8,1.8,0.6,2.1-0.7
					c0.2-0.8,0.2-1.5,0.1-2.3l-0.2-1c0.6-0.4,1.1-0.9,1.3-1.4c0.5-1.1-0.2-2.2-2.1-3.2c-0.4-0.3-0.9-0.6-1.4-0.9
					c-1-0.4-1.8-0.4-2.2,0.2c-0.4,0.6-0.6,1.2-0.6,2c0.1,0.4,0.2,0.7,0.3,1C72.2,43.6,71.5,43.4,70.7,43.3z"/>
			</g>
		</g>
	</g>
	<g transform="matrix( 1, 0, 0, 1, 0,0.1) ">
		<g>
			<g id="Layer0_0_MEMBER_3_FILL">
				<path class="st1" d="M128.1,25.5c-0.5-0.1-1,0-1.5,0.2c-1,0.4-1.4,1.3-1.2,2.7c0.1,1.4,1.2,1.8,3.3,1.2l0.1,1.6
					c0.2,1.1,0.5,1.8,1,2c0.7,0.4,1.5,0.3,2.5-0.4l0.5,2.1c0.5,1.4,1.2,2.1,2,2.2c1.3,0.2,2.2-0.2,2.6-1.1l1.1,2.1
					c0.9,1.3,1.7,1.8,2.4,1.4c1-0.5,0.4-2.4-1.9-5.5c0.6-1.8,0.6-3-0.2-3.7c-0.4-0.4-1.1-0.6-1.9-0.4l-1.1,0.4
					c0.5-2.2,0.2-3.6-1.1-4.1c-0.8-0.4-1.4-0.4-1.9-0.1l-0.5,0.6c-0.3-2.2-1.1-3.2-2.4-3c-0.8,0.1-1.3,0.4-1.5,1L128.1,25.5z"/>
			</g>
		</g>
	</g>
	<g transform="matrix( 1, 0, 0, 1, 0,0.1) ">
		<g>
			<g id="Layer0_0_MEMBER_4_FILL">
				<path class="st2" d="M95.4,21.4c4.7,7.4,8.1,16.7,10.3,27.8c2,10.1,2.4,27.7,1.3,52.9c-0.6,12.6-1.3,24.1-2.3,34.7l6-1.9
					c1.8-15.3,2.4-31.8,1.7-49.5c-1.3-35.4-7.9-59.3-19.8-71.4S68.3,0.3,55.1,9.5C48.4,14.2,43,20,38.8,27c2.9-4.1,6.6-8,11-11.9
					c8.8-7.7,17-10.8,24.5-9.5C82.6,7.1,89.7,12.4,95.4,21.4z"/>
			</g>
		</g>
	</g>
	<g transform="matrix( 1, 0, 0, 1, 0,0.1) ">
		<g>
			<g id="Layer0_0_MEMBER_5_FILL">
				<path class="st2" d="M93.4,41.5c5.2,4.2,8,21.1,8.6,50.6c0.3,14.8,0.1,29.1-0.7,43l5.4-4.4c0.8-12.8,1-26.2,0.4-40.1
					c-1-27.9-4.8-44.7-11.5-50.4c-6.6-5.7-12.9-5-18.8,2c-2.9,3.5-5.2,7.6-6.9,12.2c1.8-3.8,4.2-7.3,7.1-10.3
					C82.8,38.2,88.2,37.3,93.4,41.5z"/>
			</g>
		</g>
	</g>
	<g transform="matrix( 1, 0, 0, 1, 0,0.1) ">
		<g>
			<g id="Layer0_0_MEMBER_6_FILL">
				<path class="st2" d="M112.9,68.3c0.6-21.9,1.6-34.8,3-38.8c1.5-4,4.5-5.3,9-4c2.2,0.6,4.3,1.7,6.3,3.1c-1.2-1.4-2.8-2.6-4.7-3.4
					c-3.8-1.8-7.3-1.4-10.6,1.2s-5.2,9.9-5.6,21.9c-0.3,6-0.2,11.7,0.3,17.1l1.9,34.6C112.4,89.8,112.6,79.3,112.9,68.3z"/>
			</g>
		</g>
	</g>
	<g transform="matrix( 1, 0, 0, 1, 0,0.1) ">
		<g>
			<g id="Layer0_0_MEMBER_7_FILL">
				
					<linearGradient id="SVGID_2_" gradientUnits="userSpaceOnUse" x1="68.9434" y1="347.129" x2="146.3539" y2="349.6632" gradientTransform="matrix(1 0 0 -1 0 501.9)">
					<stop  offset="0" style="stop-color:#987D4E"/>
					<stop  offset="1" style="stop-color:#B59F75"/>
				</linearGradient>
				<path class="st3" d="M82.2,99.2L77,121.1L51.3,83.9l6.9,23.9c4.6,17.2,6.9,29.1,6.9,35.7c0,13-2,24.9-5.9,35.8
					c-4.1,11.3-9.5,18.8-16,22.3c-5.5,3-13.5,6-24,9.1c-5.2,1.5-9.9,2.8-14.1,3.7c21.6-3.4,39.7-5.6,54.3-6.6
					c9.1-0.6,13.1,2.3,12,8.7c-0.5,3.3-2,6.5-4.4,9.8c3.8-2.7,8.4-5.4,13.7-8c10.6-5.3,19.7-7.8,27.3-7.7s21.3,2.1,41.3,5.8
					c10,1.9,19.3,3.8,27.7,5.5c-4.1-1.2-8.3-2.7-12.5-4.6c-8.5-3.7-13.1-7.2-13.7-10.6c-0.6-3.4,10.6-2.3,33.5,3.2
					c11.5,2.7,23,5.8,34.6,9.2c-8-3.1-16.5-7.1-25.3-12c-17.8-9.9-28.8-19.6-33.2-28.9c-4.4-9.3-6.9-28.1-7.6-56.4
					c-0.3-14.2-0.2-27.4,0.4-39.7L132.7,112l-10.9-14.2l-20.5,21.9L82.2,99.2z"/>
			</g>
		</g>
	</g>
	<g transform="matrix( 1, 0, 0, 1, 0,0.1) ">
		<g>
			<g id="Layer0_0_MEMBER_8_MEMBER_0_FILL">
				<path class="st4" d="M70.3,128.6c2,5.4,3.7,10.2,4.9,14.4c1.9,6.6,3.2,12.2,3.8,16.6l5.2-36.6l1.6,21.1
					c1.8,16.1,4.7,28.8,8.4,38.3c3.5,8.8,8.1,18.2,13.8,28.1c7.5,0.2,21.3,2.1,41.3,5.8c10,1.9,19.3,3.8,27.7,5.5l-0.9-0.3h-0.3
					c-12.8-2.5-26.3-7.1-40.5-13.9c-15-7-25.2-13.8-30.5-20.5c-4.5-5.5-8-14.5-10.4-26.8c-1.8-12.9-3.3-21.2-4.2-25
					c-1.1-4.6-2.6-11.5-4.5-20.7l-2.5-12.3l-1.6,6.2c-1.1,4.6-1.8,8-2.1,10.3c-0.4,3.6-0.9,10.5-1.3,20.7c-0.6-3.2-1.9-6.8-3.8-10.8
					c-1.1-2.5-4.7-9.4-10.8-20.8l-8.8-16.4l6.2,20.1c4.2,14.4,6.6,24.1,7.1,29.2c0.8,7.6,0.2,16.4-1.7,26.4
					c-2.4,12.2-6.3,21.4-11.6,27.5c-4.9,5.7-11.9,10-20.9,12.9c-4.5,1.5-8.5,2.4-12,2.7c-5.2,0.9-9.7,2-13.6,3.3
					c12.2-2,24.7-3.7,37.5-5.1c5-2.6,9.3-5.5,12.9-8.8c8.7-8.3,13.8-19.6,15.1-33.9c0.9-9.1,0.4-16.8-1.3-23.1l-4.8-21.4L70.3,128.6
					z"/>
			</g>
		</g>
	</g>
	<g transform="matrix( 1, 0, 0, 1, 0,0.1) ">
		<g>
			<g id="Layer0_0_MEMBER_8_MEMBER_1_FILL">
				<path class="st5" d="M72.3,143c1.8,6.3,2.2,14,1.3,23.1c-1.3,14.3-6.4,25.7-15.1,33.9c-3.6,3.3-7.9,6.2-12.9,8.8l13.9-1.1
					c9.1-0.6,13.1,2.3,12,8.7c-0.5,3.3-2,6.5-4.4,9.8c3.8-2.7,8.4-5.4,13.7-8c10.6-5.3,19.7-7.8,27.3-7.7
					c-5.7-9.9-10.3-19.3-13.8-28.1c-3.8-9.5-6.6-22.3-8.4-38.3L84.1,123L79,159.6c-0.6-4.5-1.9-10-3.8-16.6c-1.2-4.2-2.8-9-4.9-14.4
					l-2.8-7L72.3,143z"/>
			</g>
		</g>
	</g>
	<g transform="matrix( 1, 0, 0, 1, 0,0.1) ">
		<g>
			<g id="Layer0_0_MEMBER_8_MEMBER_2_FILL">
				<path class="st4" d="M145.1,108.2l-4.5,35.1c-2.6,25.1-3,41.8-1.2,50.1c1.8,8.4,5.6,14.8,11.6,19.4c3,2.3,5.8,3.8,8.4,4.4
					l6.6,0.9c-9.5-4-14.6-7.8-15.2-11.3c-0.6-3.4,10.6-2.3,33.5,3.2c11.5,2.7,23,5.8,34.6,9.2c-16-5.6-29.4-11.6-40.2-18
					c-13.5-8.1-22-16.4-25.5-24.9c-3.1-7.7-5.4-21.4-6.9-41L145.1,108.2z"/>
			</g>
		</g>
	</g>
	<g transform="matrix( 1, 0, 0, 1, 0,0.1) ">
		<g>
			<g id="Layer0_0_MEMBER_8_MEMBER_3_FILL">
				<path class="st4" d="M129.8,114.9l-8.5,30l-4.3-32.4l-0.9,12.4c-0.4,9.4-0.5,16.8-0.1,22.4c0.4,5.5,2.6,14.8,6.8,27.8
					c2,6.5,4,12.4,6,17.8c-2.9-21.9-4-36.8-3.3-44.8c0.4-4.9,1.2-11.9,2.5-21L129.8,114.9z"/>
			</g>
		</g>
	</g>
	<g transform="matrix( 1, 0, 0, 1, 0,0.1) ">
		<g>
			<g id="Layer0_0_MEMBER_8_MEMBER_4_FILL">
				<path class="st4" d="M106.6,125l0.4-4.9l-3.7,9c-2.6,6.6-3.8,11.3-3.8,14.3l0.7,9.2c0.8,6.9,2,12.6,3.5,17
					c2.6,6.9,5.7,13.9,9.6,20.9c-1.6-7.1-3.1-14.6-4.6-22.6c-2.9-15.9-4.1-26-3.5-30.3C105.6,133.3,106.2,129.1,106.6,125z"/>
			</g>
		</g>
	</g>
</g>
</svg>
