<?xml version="1.0" encoding="utf-8"?>
<!-- Generator: Adobe Illustrator 20.1.0, SVG Export Plug-In . SVG Version: 6.00 Build 0)  -->
<svg version="1.1" id="Layer_1" xmlns="http://www.w3.org/2000/svg" xmlns:xlink="http://www.w3.org/1999/xlink" x="0px" y="0px"
	 viewBox="0 0 222 468.7" style="enable-background:new 0 0 222 468.7;" xml:space="preserve">
<style type="text/css">
	.st0{fill:#C48A6A;}
	.st1{fill:#C0815F;}
	.st2{fill:#B56C4C;}
	.st3{fill:#CD9E7E;}
	.st4{fill:#9B5E3A;}
	.st5{fill:#806E4D;}
	.st6{fill:#6C5E3F;}
	.st7{fill:#5B5037;}
	.st8{fill:#4F4631;}
</style>
<g>
	<g transform="matrix( 1, 0, 0, 1, 0,0) ">
		<g>
			<g id="Layer0_0_MEMBER_0_FILL">
				<path class="st0" d="M185.5,26.5c-3.8-3.1-8.7-4.1-14.7-3.1c-1.9,0.3-3.8,0.8-5.6,1.5l-2.2,1c-0.7-2.6-1.9-5.3-3.8-8.1
					c-3.6-5.7-8.2-9.2-13.8-10.6c-5.6-1.4-10.7-0.8-15.4,1.8c-1.5,0.8-2.8,1.8-4,2.8l-1.4,1.4c-1.8-1.8-4.1-3.4-6.9-5
					C112,4.8,106.8,3.6,102,4.5c-8.9,1.5-14.7,4.9-17.6,10c-0.9,1.6-1.4,3.3-1.6,5.1c-0.1,0.9-0.1,1.6,0,2.2
					c-4-1.4-8.6-2.5-13.7-3.4c-10.2-1.6-17.9-0.7-23.1,2.6c-5.2,3.3-7.9,8.1-8,14.4c-0.1,3.1,0.4,5.9,1.4,8.3
					c-3.3-0.1-7,0.3-11.1,1.2c-8.1,1.8-13.9,5.2-17.4,10.2c-3.5,5-2.8,11.5,1.9,19.5c2.4,4,5.1,7.5,8.2,10.5l-3.2,2.6
					c-2.5,2.2-4.7,4.5-6.7,6.8c-6.3,7.3-8.5,13.8-6.8,19.3c1.8,5.5,7.9,9.9,18.3,13c5.2,1.6,10.2,2.6,15.1,3l-1,4.9
					c-0.7,3.9-1.1,7.6-1.3,11c-0.5,10.9,1.6,17.1,6.5,18.8s10,2.4,15.2,2.2c2.6-0.1,4.8-0.4,6.4-0.8l1.6,4.4
					c1.4,3.5,2.8,6.7,4.3,9.7c4.9,9.4,9.6,14.3,14.1,14.6c4.5,0.3,8.7-0.3,12.4-1.8c1.9-0.7,3.3-1.5,4.3-2.2l1.6,3.2
					c1.3,2.6,2.8,4.9,4.3,6.9c5,6.7,10.1,9.7,15.3,9.2c5.2-0.6,11-2.4,17.3-5.5c3.2-1.6,5.8-3.1,8-4.5l3,1.4c2.6,1,5.2,1.7,7.9,2.2
					c8.6,1.4,16.1-0.2,22.4-4.9c5.8-4.3,8.6-10.6,8.4-18.9c-0.1-2.6-0.5-5.2-1.2-7.9l-1-3.2l3.3-0.9c2.6-0.9,5.1-2,7.2-3.3
					c7.1-4.1,10.8-9.3,11.2-15.8c0.4-6.4-1.2-12-4.7-16.8c-1.1-1.5-2.3-2.8-3.6-3.9l-1.7-1.3l2.5-1.3c2-1.1,3.8-2.4,5.4-3.9
					c5.3-4.8,7.9-10.3,7.9-16.8s-1.4-11.8-4.1-16.1c-0.9-1.3-1.9-2.5-2.9-3.5l-1.3-1.1l2.3-1.7c1.8-1.5,3.5-3.2,4.9-5
					c4.6-5.8,6.4-12,5.3-18.7s-4-10.8-8.9-12.3c-1.5-0.5-3.1-0.7-4.9-0.6l-2.1,0.2c-1.2-2-2.9-4.3-4.9-6.9
					C193.2,33.7,189.3,29.5,185.5,26.5z"/>
			</g>
		</g>
	</g>
	<g transform="matrix( 1, 0, 0, 1, 0,0) ">
		<g>
			<g id="Layer0_0_MEMBER_1_MEMBER_0_FILL">
				<path class="st1" d="M197.5,130.3c-0.5,3.1-1.2,6.1-2.2,9c-3.1,9.1-7.9,15.1-14.3,18c-6.5,2.9-13.1,3.6-20.1,1.9
					c-2.2-0.5-4.2-1.3-6.2-2.2l-2.2-1.2c-1.7,2.3-3.9,4.4-6.7,6.6c-5.6,4.3-11.2,6.1-16.8,5.4c-5.6-0.6-9.7-5.5-12.1-14.6
					c-0.8-2.8-1.3-5.9-1.7-9.3l-0.3-4.1c-1.2,1.3-3,2.2-5.2,2.9c-4.4,1.4-9,0.8-13.8-1.9c-4.8-2.7-6.7-8.9-5.6-18.7
					c0.3-3,0.9-6.2,1.8-9.7l1.2-4.1c-1.5,0.3-3.2,0.1-5.1-0.4c-3.8-1-6.6-3.4-8.4-7.1c-1.9-3.7-1.5-10.1,1-19.1l4.5-12.4
					c-4.6-1.7-8.8-4.2-12.6-7.4c-7.7-6.3-9.6-13.1-5.9-20.2c3.8-7.1,10.9-10.3,21.4-9.6c5.2,0.3,10.1,1.4,14.6,3.1
					c-1.4-0.8-2.7-2.1-3.8-3.9c-2.2-3.6-2.4-7.8-0.8-12.5c1.7-4.8,6.5-7.2,14.5-7.2c4,0,7.8,0.5,11.5,1.5c-1.8-1.8-4.1-3.4-6.9-5
					C112,4.8,106.8,3.6,102,4.5c-8.9,1.5-14.7,4.9-17.6,10c-0.9,1.6-1.4,3.3-1.6,5.1c-0.1,0.9-0.1,1.6,0,2.2
					c-4-1.4-8.6-2.5-13.7-3.4c-10.2-1.6-17.9-0.7-23.1,2.6c-5.2,3.3-7.9,8.1-8,14.4c-0.1,3.1,0.4,5.9,1.4,8.3
					c-3.3-0.1-7,0.3-11.1,1.2c-8.1,1.8-13.9,5.2-17.4,10.2c-3.5,5-2.8,11.5,1.9,19.5c2.4,4,5.1,7.5,8.2,10.5l-3.2,2.6
					c-2.5,2.2-4.7,4.5-6.7,6.8c-6.3,7.3-8.5,13.8-6.8,19.3c1.8,5.5,7.9,9.9,18.3,13c5.2,1.6,10.2,2.6,15.1,3l-1,4.9
					c-0.7,3.9-1.1,7.6-1.3,11c-0.5,10.9,1.6,17.1,6.5,18.8s10,2.4,15.2,2.2c2.6-0.1,4.8-0.4,6.4-0.8l1.6,4.4
					c1.4,3.5,2.8,6.7,4.3,9.7c4.9,9.4,9.6,14.3,14.1,14.6c4.5,0.3,8.7-0.3,12.4-1.8c1.9-0.7,3.3-1.5,4.3-2.2l1.6,3.2
					c1.3,2.6,2.8,4.9,4.3,6.9c5,6.7,10.1,9.7,15.3,9.2c5.2-0.6,11-2.4,17.3-5.5c3.2-1.6,5.8-3.1,8-4.5l3,1.4c2.6,1,5.2,1.7,7.9,2.2
					c8.6,1.4,16.1-0.2,22.4-4.9c5.8-4.3,8.6-10.6,8.4-18.9c-0.1-2.6-0.5-5.2-1.2-7.9l-1-3.2l3.3-0.9c2.6-0.9,5.1-2,7.2-3.3
					c7.1-4.1,10.8-9.3,11.2-15.8c0.3-6.2-1.1-11.6-4.4-16.3c-1.4-1.5-2.8-2.9-4.1-4.2l-1.5-1.5L197.5,130.3z"/>
			</g>
		</g>
	</g>
	<g transform="matrix( 1, 0, 0, 1, 0,0) ">
		<g>
			<g id="Layer0_0_MEMBER_2_FILL">
				<path class="st2" d="M76.5,168.3l-3.5-9.5l2.4,14.8c2.3,10,5.4,15.4,9.1,16.2c3.8,0.8,7.5,0.1,11.1-2.2l4.4-3.8
					c-1.4,0.8-3.1,1.3-5.1,1.5c-3.9,0.5-7.2-0.5-9.9-3C82.3,179.8,79.4,175.1,76.5,168.3z"/>
			</g>
		</g>
	</g>
	<g transform="matrix( 1, 0, 0, 1, 0,0) ">
		<g>
			<g id="Layer0_0_MEMBER_3_FILL">
				<path class="st2" d="M27.5,49.3c-2.3,0.7-4.6,1.8-6.9,3.2c-4.6,3-6.8,6.6-6.6,10.8c0.2,4.7,1.7,9.2,4.4,13.5
					c2.3,3.7,5,6.6,8.1,8.6c2.3,1.5,5.4,2.2,9.3,2c2,0,3.7-0.2,5.2-0.5c-1.7-0.6-3.6-1.5-5.8-2.8c-4.3-2.6-7.8-5.7-10.2-9.2
					c-3.1-4.4-4.5-8.8-4.2-13.1C21.1,57,23.3,52.9,27.5,49.3z"/>
			</g>
		</g>
	</g>
	<g transform="matrix( 1, 0, 0, 1, 0,0) ">
		<g>
			<g id="Layer0_0_MEMBER_4_FILL">
				<path class="st2" d="M26.5,120.2c-8.7-4.9-13.8-9.6-15.5-13.9l0.4,5.5c0.8,4,2.7,6.8,5.6,8.5c2.9,1.7,7.5,3.2,13.7,4.5
					c3.1,0.7,5.8,1.2,8.3,1.5C35,124.7,30.8,122.7,26.5,120.2z"/>
			</g>
		</g>
	</g>
	<g transform="matrix( 1, 0, 0, 1, 0,0) ">
		<g>
			<g id="Layer0_0_MEMBER_5_FILL">
				<path class="st2" d="M43.5,145.9l-1-3.6l-0.8,8.2c0.1,5.7,1.7,9.3,4.8,10.8c3.1,1.5,6.8,2.1,11,2.1c2.1,0,4-0.2,5.5-0.6
					c-1.3-0.2-2.9-0.6-4.8-1.4c-3.7-1.5-6.8-3.7-9.2-6.6C46.5,151.9,44.6,148.9,43.5,145.9z"/>
			</g>
		</g>
	</g>
	<g transform="matrix( 1, 0, 0, 1, 0,0) ">
		<g>
			<g id="Layer0_0_MEMBER_6_FILL">
				<path class="st2" d="M187,136.8c-5,3-9.2,4.5-12.5,4.5c-3.3,0-6.9-0.5-10.8-1.5l-4.8-1.5l3.4,5c3,3.3,6.4,5,10.1,5
					c3.8,0,8.4-2.7,13.9-8c2.7-2.7,5.1-5.3,7.1-8C191.6,133.8,189.5,135.3,187,136.8z"/>
			</g>
		</g>
	</g>
	<g transform="matrix( 1, 0, 0, 1, 0,0) ">
		<g>
			<g id="Layer0_0_MEMBER_7_FILL">
				<path class="st2" d="M109.9,95.3c-1.3-3.3-1.9-5.5-1.9-6.5l-0.4,2.9c-0.2,2.4-0.2,4.6-0.1,6.8c0.4,6.9,2.4,11.5,6,13.8
					c3.5,2.3,7.4,3.9,11.7,4.8c2.1,0.5,3.9,0.7,5.3,0.7c-1.5-0.7-3.2-1.8-5.2-3.1c-3.9-2.7-7-5.5-9.3-8.4
					C113.6,103.3,111.6,99.6,109.9,95.3z"/>
			</g>
		</g>
	</g>
	<g transform="matrix( 1, 0, 0, 1, 0,0) ">
		<g>
			<g id="Layer0_0_MEMBER_8_FILL">
				<path class="st3" d="M145.9,12.3c-4.1-1.2-7.1-0.2-8.9,2.9l5.4,2.8c3.8,2.4,6.4,5,7.6,7.7c1.3,2.7,2.1,6.3,2.6,10.7
					c0.2,2.2,0.4,4.1,0.4,5.8c1.2-1.7,2.1-3.8,2.9-6.3c1.6-5.1,1.4-9.8-0.4-14.2C153.3,16.7,150.1,13.6,145.9,12.3z"/>
			</g>
		</g>
	</g>
	<g transform="matrix( 1, 0, 0, 1, 0,0) ">
		<g>
			<g id="Layer0_0_MEMBER_9_FILL">
				<path class="st3" d="M191.7,60.3c-2.9-2.3-6-3.5-9.2-3.5l4.9,4.9c2.9,3.8,3.4,7.2,1.6,10.1c-1.9,2.9-3.5,5.8-4.9,8.6l-1.6,3.4
					l6.4-4c4.3-3.3,6.7-6.7,7.1-10C196.4,66.1,195,62.9,191.7,60.3z"/>
			</g>
		</g>
	</g>
	<g transform="matrix( 1, 0, 0, 1, 0,0) ">
		<g>
			<g id="Layer0_0_MEMBER_10_FILL">
				<path class="st2" d="M125,59.8l-1.2,6.6c-0.5,4.9,0.1,8.8,1.8,11.5c1.7,2.7,3.8,4.7,6.2,5.9c1.3,0.6,2.4,1,3.2,1.1
					c-1.8-2.8-3.6-6-5.4-9.5C126.1,68.3,124.6,63.1,125,59.8z"/>
			</g>
		</g>
	</g>
	<g transform="matrix( 1, 0, 0, 1, 0,0) ">
		<g>
			<g id="Layer0_0_MEMBER_11_MEMBER_0_MEMBER_0_FILL">
				<path class="st4" d="M126.1,45.4c0,0,0.7-0.8,2-2.4c1.3-1.9,2.2-3.9,2.6-5.8c0.4-2,0.3-3.9-0.4-5.9c-0.8-1.6-1.2-2.4-1.2-2.5
					c-0.7,0.2-1.5,0.6-2.2,1.2c-1.6,1.3-2.7,3.1-3.2,5.5c-0.5,2.4-0.3,4.8,0.8,7.2C124.8,43.8,125.4,44.7,126.1,45.4z"/>
			</g>
		</g>
	</g>
	<g transform="matrix( 1, 0, 0, 1, 0,0) ">
		<g>
			<g id="Layer0_0_MEMBER_12_MEMBER_0_MEMBER_0_FILL">
				<path class="st4" d="M78,39.9c0-0.9-0.2-1.9-0.5-3.1c-0.5-2.4-1.4-4.4-2.6-6c-1.1-1.7-2.7-2.9-4.8-3.7c-1.8-0.5-2.7-0.7-2.7-0.8
					l-0.7,2.5c-0.2,2,0.5,4.1,1.8,6.2c1.5,2,3.4,3.4,5.9,4.2C75.9,39.6,77,39.8,78,39.9z"/>
			</g>
		</g>
	</g>
	<g transform="matrix( 1, 0, 0, 1, 0,0) ">
		<g>
			<g id="Layer0_0_MEMBER_13_MEMBER_0_MEMBER_0_FILL">
				<path class="st4" d="M85.1,75.3c1.1-1.7,1.9-3.3,2.3-4.9c0.4-1.6,0.4-3.2,0-4.9c-0.5-1.4-0.8-2.2-0.8-2.2
					c-0.6,0.1-1.3,0.3-2.1,0.8c-1.5,0.9-2.5,2.5-3.1,4.6C80.8,70.8,81,72.9,82,75c0.5,1,1,1.8,1.5,2.4C84,76.8,84.5,76.1,85.1,75.3z
					"/>
			</g>
		</g>
	</g>
	<g transform="matrix( 1, 0, 0, 1, 0,0) ">
		<g>
			<g id="Layer0_0_MEMBER_14_MEMBER_0_MEMBER_0_FILL">
				<path class="st4" d="M40.5,107.9c-1.6-1.3-3.3-2-5.2-2.2c-1.2-0.2-2.4,0-3.5,0.7c-0.9,0.6-1.4,0.9-1.4,0.9l0.8,1.2
					c0.8,0.8,2,1.3,3.4,1.5c1.5,0.1,2.9-0.2,4.2-0.9L40.5,107.9z"/>
			</g>
		</g>
	</g>
	<g transform="matrix( 1, 0, 0, 1, 0,0) ">
		<g>
			<g id="Layer0_0_MEMBER_15_MEMBER_0_MEMBER_0_FILL">
				<path class="st4" d="M66.2,136.7c-1.7-2.8-3.7-5.1-6.2-6.7c-1.5-1-3.3-1.6-5.3-1.8c-1.7,0-2.6,0-2.7,0c0,0,0,0.8,0,2.5
					c0.4,2,1.7,3.8,3.8,5.2c2.2,1.4,4.6,1.9,7.2,1.6C64.3,137.4,65.4,137.1,66.2,136.7z"/>
			</g>
		</g>
	</g>
	<g transform="matrix( 1, 0, 0, 1, 0,0) ">
		<g>
			<g id="Layer0_0_MEMBER_16_MEMBER_0_MEMBER_0_FILL">
				<path class="st4" d="M92.6,174.5c-0.7-1.6-1.6-3-2.7-4c-0.7-0.6-1.6-1.1-2.6-1.4c-0.9-0.2-1.4-0.3-1.4-0.3c0,0-0.1,0.4-0.3,1.3
					c0,1.1,0.5,2.2,1.5,3.2c1,0.9,2.3,1.4,3.7,1.4C91.6,174.7,92.1,174.7,92.6,174.5z"/>
			</g>
		</g>
	</g>
	<g transform="matrix( 1, 0, 0, 1, 0,0) ">
		<g>
			<g id="Layer0_0_MEMBER_17_MEMBER_0_MEMBER_0_FILL">
				<path class="st4" d="M170,183.1c2.1-1.1,3.7-2.7,4.8-4.9c0.6-1.1,1-2.1,1.2-2.9c-0.6-0.4-1.5-0.8-2.7-0.9c-2.3-0.4-4.6,0-7,1.2
					c-2.4,1.3-4.2,3.2-5.6,5.8c-0.7,1.3-1.1,2.5-1.4,3.5c0,0,1.2,0.1,3.5,0.1C165.5,184.8,167.9,184.2,170,183.1z"/>
			</g>
		</g>
	</g>
	<g transform="matrix( 1, 0, 0, 1, 0,0) ">
		<g>
			<g id="Layer0_0_MEMBER_18_MEMBER_0_MEMBER_0_FILL">
				<path class="st4" d="M147.2,170c1.6-0.4,2.9-1.2,3.9-2.2c0.7-0.7,1.1-1.6,1.3-2.6c0-0.9,0.1-1.3,0.1-1.3
					c-0.3-0.1-0.7-0.1-1.2-0.1c-1,0.2-1.9,0.7-2.7,1.4c-0.8,0.9-1.3,2-1.4,3.2C147.1,169,147.1,169.5,147.2,170z"/>
			</g>
		</g>
	</g>
	<g transform="matrix( 1, 0, 0, 1, 0,0) ">
		<g>
			<g id="Layer0_0_MEMBER_19_MEMBER_0_MEMBER_0_FILL">
				<path class="st4" d="M189,98.7l0.5-3.9c-1-0.3-2.1-0.5-3.6-0.4c-2.8,0.2-5.5,1.2-8.1,3.2c-2.6,2-4.6,4.8-5.8,8.3
					c-0.6,1.8-1,3.3-1,4.7l4.3-0.6c3.4-0.7,6.3-2,8.7-3.8C186.5,104.2,188.2,101.7,189,98.7z"/>
			</g>
		</g>
	</g>
	<g transform="matrix( 1, 0, 0, 1, 0,0) ">
		<g>
			<g id="Layer0_0_MEMBER_20_MEMBER_0_MEMBER_0_FILL">
				<path class="st4" d="M167.1,61.2c0.9-1.5,1.4-3.2,1.2-5c-0.3-1.5-0.4-2.3-0.4-2.4c-0.6,0-1.3,0.1-2.1,0.4
					c-1.6,0.6-3,1.8-4.1,3.5c-1,1.8-1.5,3.8-1.4,6c0.1,1.1,0.2,2.1,0.5,2.9c0,0,0.8-0.5,2.3-1.3C164.9,64,166.2,62.7,167.1,61.2z"/>
			</g>
		</g>
	</g>
	<g transform="matrix( 1, 0, 0, 1, 0,0) ">
		<g>
			<g id="Layer0_0_MEMBER_21_MEMBER_0_MEMBER_0_FILL">
				<path class="st4" d="M56.1,76.3c-1.5-2.4-3-4.4-4.5-6.1c-1-1-2.3-1.8-3.9-2.6c-1.2-0.6-1.9-0.9-2.2-0.9c0.1-0.1-0.2,0.6-0.8,2.1
					c-0.3,1.9,0.4,3.8,2.1,5.8c1.9,1.8,4.1,2.6,6.5,2.4C54.5,77,55.4,76.7,56.1,76.3z"/>
			</g>
		</g>
	</g>
	<g transform="matrix( 1, 0, 0, 1, 0,0) ">
		<g>
			<g id="Layer0_0_MEMBER_22_MEMBER_0_MEMBER_0_FILL">
				<path class="st4" d="M70.5,107.5c-1.1-1.2-2.2-2.1-3.3-2.7c-0.7-0.4-1.5-0.7-2.5-0.9c-0.8-0.1-1.3-0.1-1.3-0.1
					c0,0,0,0.4-0.1,1.2c0.1,1.1,0.8,2,1.9,2.8c1.2,0.7,2.5,0.8,3.8,0.4C69.7,108,70.2,107.8,70.5,107.5z"/>
			</g>
		</g>
	</g>
	<g transform="matrix( 1, 0, 0, 1, 0,0) ">
		<g>
			<g id="Layer0_0_MEMBER_23_MEMBER_0_MEMBER_0_FILL">
				<path class="st4" d="M124.3,132.2c-0.8-1.4-1.9-2.7-3.3-3.9c-1.3-1-2-1.5-2-1.5l-1.5,2c-0.8,1.9-0.7,4.1,0.5,6.6
					c1.3,2.3,3.2,3.9,5.7,4.6c1.2,0.4,2.3,0.5,3.2,0.4C126.4,137.2,125.5,134.5,124.3,132.2z"/>
			</g>
		</g>
	</g>
	<g transform="matrix( 1, 0, 0, 1, 0,0) ">
		<g>
			<g id="Layer0_0_MEMBER_24_MEMBER_0_MEMBER_0_FILL">
				<path class="st4" d="M135.3,96.2c0.4-2,0.1-3.8-0.9-5.5c-0.6-1-1.4-1.8-2.5-2.3c-1-0.3-1.4-0.5-1.4-0.5l-0.5,1.3
					c-0.2,1.1,0,2.3,0.7,3.5c0.7,1.1,1.6,2.1,2.9,2.8C134.2,95.7,134.8,96,135.3,96.2z"/>
			</g>
		</g>
	</g>
	<g transform="matrix( 1, 0, 0, 1, 0,0) ">
		<g>
			<g id="Layer0_0_MEMBER_25_MEMBER_0_MEMBER_0_FILL">
				<path class="st4" d="M110,68.2c0.4-0.6,0.7-1.4,1.1-2.2c0.7-1.9,1.1-3.6,1-5.3c0-1.7-0.6-3.2-1.6-4.7c-1-1.1-1.5-1.7-1.5-1.7
					c-0.5,0.3-1,0.7-1.5,1.4c-1,1.4-1.5,3-1.5,5c0.1,2,0.8,3.9,2.1,5.6C108.7,67.1,109.4,67.8,110,68.2z"/>
			</g>
		</g>
	</g>
	<g transform="matrix( 1, 0, 0, 1, 0,0) ">
		<g>
			<g id="Layer0_0_MEMBER_26_MEMBER_0_MEMBER_0_FILL">
				<path class="st4" d="M173.9,45.5c0,0,0.7-0.4,2.1-1.2c1.6-1,2.9-2,3.9-3.1c1-1.1,1.8-2.5,2.2-4.2c0.2-1.4,0.4-2.2,0.4-2.2
					c-0.5-0.2-1.2-0.3-2.1-0.2c-1.7,0.1-3.4,0.9-4.9,2.5c-1.5,1.6-2.2,3.6-2.1,5.8C173.4,43.9,173.6,44.8,173.9,45.5z"/>
			</g>
		</g>
	</g>
	<g transform="matrix( 1, 0, 0, 1, 0,0) ">
		<g>
			<g id="Layer0_0_MEMBER_27_MEMBER_0_MEMBER_0_FILL">
				<path class="st4" d="M198.9,67.6c0.1,0.1,0.8-0.2,2.2-0.9c1.6-0.8,3-1.7,4-2.7c1.6-1.5,2.6-3.4,2.9-5.7
					c-0.4-0.3-1.1-0.5-1.9-0.5c-1.7-0.1-3.3,0.5-4.9,2c-1.5,1.5-2.3,3.2-2.4,5.3C198.6,66,198.7,66.9,198.9,67.6z"/>
			</g>
		</g>
	</g>
	<g transform="matrix( 1, 0, 0, 1, 0,0) ">
		<g>
			<g id="Layer0_0_MEMBER_28_MEMBER_0_MEMBER_0_FILL">
				<path class="st4" d="M168.1,97.1c1.6-1.6,2.5-3.6,2.9-5.9l0.1-2.9c-0.7-0.2-1.6-0.2-2.7,0c-2.1,0.4-4,1.4-5.7,3.2
					s-2.8,4-3.3,6.8c-0.3,1.4-0.4,2.6-0.3,3.6l3.1-0.9C164.5,100,166.5,98.7,168.1,97.1z"/>
			</g>
		</g>
	</g>
	<g transform="matrix( 1, 0, 0, 1, 0,0) ">
		<g>
			<g id="Layer0_0_MEMBER_29_MEMBER_0_MEMBER_0_FILL">
				<path class="st4" d="M149.7,131.2l2.2-0.2c1.8-0.3,3.3-0.9,4.6-1.8c1.2-0.9,2.1-2,2.6-3.5c0.3-1.3,0.4-2,0.4-2
					c-0.4-0.2-1-0.3-1.8-0.4c-1.5,0-2.9,0.5-4.2,1.5c-1.3,0.9-2.4,2.2-3.1,3.9C150,129.7,149.8,130.5,149.7,131.2z"/>
			</g>
		</g>
	</g>
	<g transform="matrix( 1, 0, 0, 1, 0,0) ">
		<g>
			<g id="Layer0_0_MEMBER_30_MEMBER_0_MEMBER_0_FILL">
				<path class="st4" d="M56.2,50.5c-1.3-1-2.9-1.7-4.8-2c-1.4-0.3-2.2-0.3-2.5-0.2c0,0,0,0.7-0.2,2.3c0.2,1.9,1.3,3.7,3.2,5.2
					c2,1.5,4.3,2.1,6.8,1.8c1.2-0.1,2.2-0.4,3-0.8C60.1,54.1,58.3,52.1,56.2,50.5z"/>
			</g>
		</g>
	</g>
	<g transform="matrix( 1, 0, 0, 1, 0,0) ">
		<g>
			<g id="Layer0_0_MEMBER_31_MEMBER_0_MEMBER_0_FILL">
				<path class="st4" d="M113.9,28.5c0.1-0.7,0.1-1.5,0-2.5c-0.1-1.9-0.6-3.6-1.3-5c-0.6-1.5-1.6-2.7-3.1-3.6c-1.4-0.7-2-1-2-1
					l-1,1.8c-0.4,1.6-0.2,3.3,0.6,5.2c0.9,1.8,2.4,3.2,4.3,4.2C112.3,28.1,113.2,28.4,113.9,28.5z"/>
			</g>
		</g>
	</g>
	<g transform="matrix( 1, 0, 0, 1, 0,0) ">
		<g>
			<g id="Layer0_0_MEMBER_32_MEMBER_0_MEMBER_0_FILL">
				<path class="st4" d="M83.6,140.5c-0.2-0.3-0.6-0.7-1.1-1.1c-0.9-0.8-1.9-1.3-2.9-1.6c-1-0.2-2-0.1-3,0.3l-1.1,0.7
					c0,0,0.2,0.4,0.6,1.1c0.6,0.7,1.5,1.2,2.6,1.4c1,0.3,2.2,0.3,3.3-0.1C82.6,141,83.1,140.7,83.6,140.5z"/>
			</g>
		</g>
	</g>
	<g transform="matrix( 1, 0, 0, 1, 0,0) ">
		<g>
			<g id="Layer0_0_MEMBER_33_FILL">
				<path class="st5" d="M117.5,171.8c-3.8-2.5-13.1-19.7-27.9-51.5c-7.4-15.9-14.4-31.6-21.1-47c3.8,10.9,8,23.3,12.6,37.5
					c9.3,28.2,16.2,50.4,20.6,66.7c3.1,11.5,5.8,27,8,46.6c2,17.4,3.4,36.1,4.3,56.1l-23-22.5l23,29.3c0.6,18,0.7,35.1,0.4,51.4
					c-0.3,16-1,28.8-2.1,38.4c-1.9,16.7-8.5,35.7-19.8,56.9c-5.6,10.6-11.1,19.6-16.4,26.9l11.2-4.6c8-2.9,13.6-3.9,16.8-3
					c3,0.9,4.1,3.1,3.2,6.5c-0.5,1.7-1.2,3.3-2.3,4.9c1.7-1.5,3.7-3.1,5.9-4.8c4.6-3.3,8.4-5.2,11.4-5.8c3.5-0.6,8.2,0.8,14,4.4
					c3,1.8,5.6,3.6,7.9,5.5c-1.3-1.9-2.4-3.9-3.4-6c-2-4.3-2.4-7-1.1-8.3c2-2,6.9-1,14.6,3.1c3.9,2,7.6,4.3,11.1,6.7
					c-5.2-5.8-10.4-13.2-15.7-22.2c-10.6-18.1-16.2-35.4-16.8-51.8c-0.6-16-1.1-35.4-1.6-58.4l11.9-17.5l-12,12
					c-0.8-36.3-1.1-62.3-0.9-78.1l21.4-15.8l-22,12.5c0-0.9,0.2-2.7,0.4-5.3c0.3-2.8,0.4-4.4,0.4-4.8c0.6-12.6,3.8-42.8,9.6-90.6
					c2.9-23.9,5.7-46.6,8.5-68c-3.7,17.8-7.7,35.3-12.1,52.6C127.5,158.3,121.2,174.3,117.5,171.8z"/>
			</g>
		</g>
	</g>
	<g transform="matrix( 1, 0, 0, 1, 0,0) ">
		<g>
			<g id="Layer0_0_MEMBER_34_MEMBER_0_FILL">
				<path class="st6" d="M115.9,175.3c-2.5,1.2-4.7,0-6.4-3.5c-2.1-4.2-9.5-21.8-22.4-52.9c-6.4-15.6-12.6-30.7-18.6-45.5
					c3.8,10.9,8,23.3,12.6,37.5c9.3,28.2,16.2,50.4,20.6,66.7c3.1,11.5,5.8,27,8,46.6c2,17.4,3.4,36.1,4.3,56.1l-23-22.5l23,29.3
					c0.6,18,0.7,35.1,0.4,51.4c-0.3,16-1,28.8-2.1,38.4c-1.9,16.7-8.5,35.7-19.8,56.9c-5.6,10.6-11.1,19.6-16.4,26.9l3.2-1.5
					c2.6-1.1,5.1-2.1,7.6-3c11.8-18.4,18.8-30.5,21-36.5c2.3-6.2,4.7-18.9,7.3-38.3c2.7-20.4,3.9-36,3.4-46.6
					c-0.3-6.1-0.8-20.8-1.5-44.1c-0.6-20.2-1.1-33.2-1.5-38.9c-0.5-7.8-1.7-19.5-3.6-35.2c-1.9-15.7-3.4-25.8-4.4-30.3
					c-0.8-3.7-2-8.6-3.5-14.6l-2-7.9l3.9,9.9c3,6.5,5.5,9.5,7.6,9.1c2.1-0.4,5-3.5,8.6-9.4l4.9-8.6l-3.8,22.2
					c-2.5,16.1-3.7,27.3-3.8,33.8c0,5.2,0.3,32.9,0.8,83.2c0.5,50.3,0.8,78.1,0.8,83.2c0,13.9,0.3,26.4,0.9,37.4
					c0.9,17.5,2.4,27.2,4.6,29.1l0.2,0.4c3.3,0.8,7.2,2.6,11.6,5.5c2.2,1.4,4.1,2.8,5.7,4.1c-3.7-3.8-7.2-9.4-10.4-16.9
					c-3.5-8.1-5.7-16.5-6.6-25.1c-1-8.7-2.1-32.8-3.5-72.4c-1.3-38.9-1.8-62.9-1.5-72.1c1.6-57.2,3.3-89.8,5-98l19.4-98.1
					c-2.2,10.2-4.7,20.8-7.3,31.9c-7.2,29.5-12.9,47.9-17.2,55.4C119.9,172,118,174.3,115.9,175.3z"/>
			</g>
		</g>
	</g>
	<g transform="matrix( 1, 0, 0, 1, 0,0) ">
		<g>
			<g id="Layer0_0_MEMBER_34_MEMBER_1_FILL">
				<path class="st7" d="M104,171.7c1.5,6,2.7,10.9,3.5,14.6c1,4.5,2.5,14.6,4.4,30.3c1.9,15.7,3.1,27.4,3.6,35.2
					c0.4,5.7,0.9,18.7,1.5,38.9c0.7,23.3,1.2,38,1.5,44.1c0.5,10.6-0.7,26.2-3.4,46.6c-2.6,19.4-5,32.1-7.3,38.3
					c-2.2,6-9.2,18.2-21,36.5c8.2-3,13.9-4.1,17.2-3.1c3,0.9,4.1,3.1,3.2,6.5c-0.5,1.7-1.2,3.3-2.3,4.9c1.7-1.5,3.7-3.1,5.9-4.8
					c4.6-3.3,8.4-5.2,11.4-5.8c1.3-0.2,2.8-0.1,4.7,0.2l-0.2-0.4c-2.2-1.9-3.7-11.6-4.6-29.1c-0.6-11-0.9-23.5-0.9-37.4
					c0-5.2-0.2-32.9-0.8-83.2c-0.5-50.3-0.7-78.1-0.8-83.2c0-6.5,1.3-17.7,3.8-33.8l3.8-22.2l-4.9,8.6c-3.7,5.8-6.5,9-8.6,9.4
					c-2.1,0.4-4.6-2.6-7.6-9.1l-3.9-9.9L104,171.7z"/>
			</g>
		</g>
	</g>
	<g transform="matrix( 1, 0, 0, 1, 0,0) ">
		<g>
			<g id="Layer0_0_MEMBER_35_FILL">
				<path class="st7" d="M127.3,291.5c-0.3-5.9-0.9-11.7-1.8-17.3l-1.2-6.7l1.4,57.6c1,39.7,1.5,62.9,1.6,69.4
					c0.1,8.5,1.7,19.5,4.7,33c1.5,6.7,2.9,12.6,4.4,17.7c-0.2-2-0.3-4-0.2-6.1c0.1-4.2,0.7-6.5,1.9-6.9c1.3-0.4,3.3,1.2,6.1,4.8
					c1.4,1.8,2.7,3.6,3.9,5.5c-2.8-4.9-5.7-10.9-8.6-18c-5.8-14.2-9-26.9-9.4-38c0-0.8-0.3-14-0.9-39.8
					C128.4,322.4,127.9,304,127.3,291.5z"/>
			</g>
		</g>
	</g>
	<g transform="matrix( 1, 0, 0, 1, 0,0) ">
		<g>
			<g id="Layer0_0_MEMBER_36_MEMBER_0_FILL">
				<path class="st8" d="M119.6,446.5c-1.2-5.1-1.9-17.1-1.9-35.8l0.3-26.6l-2,16.6c-1.8,12.2-3.8,21.3-6,27.1
					c-2.9,7.7-8.2,16.4-15.8,26c4.5-1.1,7.7-1.3,9.7-0.8c3,0.9,4.1,3.1,3.2,6.5c-0.5,1.7-1.2,3.3-2.3,4.9c1.6-1.4,3.4-2.9,5.6-4.5
					c4.3-3.2,7.9-5.1,10.9-5.9C120.7,451.2,120.1,448.6,119.6,446.5z"/>
			</g>
		</g>
	</g>
	<g transform="matrix( 1, 0, 0, 1, 0,0) ">
		<g>
			<g id="Layer0_0_MEMBER_37_MEMBER_0_MEMBER_0_FILL">
				<path class="st4" d="M96.4,248c-1.3-0.8-2-1.2-1.9-1.2c0,0-0.4,0.6-1.2,1.8c-0.6,1.5-0.8,3.1-0.6,4.9c0.3,1.8,1.1,3.5,2.3,5.2
					c0.6,0.9,1.3,1.6,1.9,2c0.4-0.6,0.8-1.3,1.2-2.3c0.8-2,1-3.9,0.8-5.7C98.7,250.8,97.8,249.3,96.4,248z"/>
			</g>
		</g>
	</g>
	<g transform="matrix( 1, 0, 0, 1, 0,0) ">
		<g>
			<g id="Layer0_0_MEMBER_38_MEMBER_0_MEMBER_0_FILL">
				<path class="st4" d="M94,263.4c-0.5-0.3-1.1-0.7-1.9-1c-1.5-0.7-2.9-1.1-4.3-1.1c-1.4,0-2.7,0.4-3.9,1.2
					c-0.6,0.4-1.1,0.9-1.4,1.2l1.1,1.3c1.1,0.8,2.4,1.2,4,1.2s3.1-0.5,4.6-1.5L94,263.4z"/>
			</g>
		</g>
	</g>
	<g transform="matrix( 1, 0, 0, 1, 0,0) ">
		<g>
			<g id="Layer0_0_MEMBER_39_MEMBER_0_MEMBER_0_FILL">
				<path class="st4" d="M90.6,256.5c-0.8-1.3-1.8-2.3-3-2.9c-0.7-0.4-1.5-0.7-2.4-0.8c-0.8,0-1.2-0.1-1.2-0.1v1.1
					c0.2,0.9,0.8,1.8,1.8,2.4c1,0.6,2.1,0.8,3.3,0.6C89.7,256.9,90.2,256.7,90.6,256.5z"/>
			</g>
		</g>
	</g>
	<g transform="matrix( 1, 0, 0, 1, 0,0) ">
		<g>
			<g id="Layer0_0_MEMBER_40_MEMBER_0_MEMBER_0_FILL">
				<path class="st4" d="M139.5,239.2l1.4,0.9c1.2,0.7,2.3,1.1,3.4,1.2c1,0.3,2.1,0.2,3.2-0.3c0.6-0.2,1.1-0.5,1.4-0.8
					c-0.1-0.4-0.3-0.8-0.7-1.2c-0.7-0.9-1.8-1.5-3.2-1.9c-1.5-0.2-2.9,0.1-4.1,0.9C140.3,238.4,139.8,238.8,139.5,239.2z"/>
			</g>
		</g>
	</g>
	<g transform="matrix( 1, 0, 0, 1, 0,0) ">
		<g>
			<g id="Layer0_0_MEMBER_41_MEMBER_0_MEMBER_0_FILL">
				<path class="st4" d="M142.8,231c1.8-0.6,3.1-1.7,4.1-3.1c0.7-0.9,1.1-1.9,1.1-3.1c-0.1-1-0.1-1.5-0.1-1.6
					c-0.4-0.1-0.8,0-1.4,0.1c-1.1,0.3-2,1-2.8,2c-0.8,1.1-1.2,2.4-1.2,3.8C142.5,229.9,142.6,230.5,142.8,231z"/>
			</g>
		</g>
	</g>
	<g transform="matrix( 1, 0, 0, 1, 0,0) ">
		<g>
			<g id="Layer0_0_MEMBER_42_MEMBER_0_MEMBER_0_FILL">
				<path class="st4" d="M141.1,315.1c1.7,0.3,3.3,0.1,4.8-0.6c1-0.4,1.8-1,2.4-1.9c0.5-0.8,0.7-1.3,0.7-1.3
					c-0.3-0.2-0.7-0.4-1.2-0.6c-1-0.3-2.1-0.2-3.3,0.2c-1.2,0.5-2.1,1.4-2.8,2.6C141.4,314.1,141.2,314.6,141.1,315.1z"/>
			</g>
		</g>
	</g>
	<g transform="matrix( 1, 0, 0, 1, 0,0) ">
		<g>
			<g id="Layer0_0_MEMBER_43_MEMBER_0_MEMBER_0_FILL">
				<path class="st4" d="M138.2,312.8c0.7-0.8,1.2-1.7,1.5-2.7c0.1-0.6,0.2-1.2,0.1-1.9c-0.2-0.5-0.2-0.8-0.2-0.9l-0.9,0.2
					c-0.7,0.4-1.1,1-1.3,1.8C136.9,310.7,137.2,311.9,138.2,312.8z"/>
			</g>
		</g>
	</g>
	<g transform="matrix( 1, 0, 0, 1, 0,0) ">
		<g>
			<g id="Layer0_0_MEMBER_44_MEMBER_0_MEMBER_0_FILL">
				<path class="st4" d="M143.7,308c1.8-0.4,3.3-1.2,4.4-2.4c0.8-0.7,1.3-1.6,1.6-2.8c0.1-1,0.2-1.5,0.2-1.6
					c-0.3-0.1-0.8-0.2-1.4-0.1c-1.1,0.1-2.1,0.6-3.1,1.5c-1,1-1.6,2.2-1.8,3.6C143.6,306.9,143.6,307.5,143.7,308z"/>
			</g>
		</g>
	</g>
</g>
</svg>
