<?xml version="1.0" encoding="utf-8"?>
<!-- Generator: Adobe Illustrator 20.1.0, SVG Export Plug-In . SVG Version: 6.00 Build 0)  -->
<svg version="1.1" id="Layer_1" xmlns="http://www.w3.org/2000/svg" xmlns:xlink="http://www.w3.org/1999/xlink" x="0px" y="0px"
	 viewBox="0 0 297.3 417.3" style="enable-background:new 0 0 297.3 417.3;" xml:space="preserve">
<style type="text/css">
	.st0{enable-background:new    ;}
	.st1{fill:#806E4D;}
	.st2{fill:#6B5D3E;}
	.st3{fill:#4D4430;}
	.st4{fill:#B36940;}
	.st5{fill:#9B5E3A;}
	.st6{fill:#965732;}
	.st7{fill:#794A2C;}
</style>
<g class="st0">
	<g transform="matrix( 1, 0, 0, 1, 0,0) ">
		<g>
			<g id="Layer0_0_MEMBER_0_FILL">
				<path class="st1" d="M154.3,285.5l-8.9,8.8l11.3,13.4c8,9.7,13.1,16.4,15.4,20c2.3,3.7,1,9.1-4,16.2c-2.5,3.5-5.3,6.7-8.2,9.5
					l36.7,20l-7.2,10.6c-5.6,7.5-10.2,12.1-13.9,13.9c-6,3-13,5.2-21.1,6.7h31.2l-6.7,10.1l11.2-6c8.1-3.9,14.1-5.7,17.8-5.2
					c5.9,0.7,11.1,1.9,15.6,3.4l-14.4-20c-2.3-3.3-2.1-7.9,0.6-14l4.9-8.2l-32.2-17.9c1.5-2,2.6-4.7,3.4-8.1
					c1.4-6.8,0.3-13.8-3.4-20.7c-3.7-7-9.5-14.5-17.3-22.5L154.3,285.5z"/>
			</g>
		</g>
	</g>
	<g transform="matrix( 1, 0, 0, 1, 0,0) ">
		<g>
			<g id="Layer0_0_MEMBER_1_MEMBER_0_FILL">
				<path class="st2" d="M159.8,292.2l-9,8.6c11.2,13.2,18.3,22.2,21.2,26.9c2.3,3.7,1,9.1-4,16.2c-2.5,3.5-5.3,6.7-8.2,9.5l36.7,20
					l-7.2,10.6c-5.6,7.5-10.2,12.1-13.9,13.9c-6,3-13,5.2-21.1,6.7H168c7.8-2.3,14-5.5,18.6-9.5c3.7-3.3,6.5-6.9,8.6-11l1.9-5.2
					l-0.5,8.9c0.1,6.8,1.1,12.3,3.2,16.7c3.3-1,6-1.4,7.9-1.1l4.4,0.7c-4.3-3.5-7.6-8.8-10-15.8c-1.6-4.9-1.7-10.3-0.1-16.4l2.8-7.5
					L176,350c1.5-1.5,2.8-3.6,4-6.4c2.3-5.6,2.6-11.6,1-18.1c-1.2-4.7-5-11.7-11.6-20.9L159.8,292.2 M196,365.1l-0.6,5l-26.1-18.3
					L196,365.1z"/>
			</g>
		</g>
	</g>
	<g transform="matrix( 1, 0, 0, 1, 0,0) ">
		<g transform="matrix( 1, 0, 0, 1, 81.25,185.15) ">
			<g transform="matrix( 1, 0, 0, 1, 0,0) ">
				<g>
					<g id="tree_front_01_ai_Assets_Layer_1__Path__3_0_Layer0_0_FILL_9_">
						<path class="st2" d="M115.4,202.8c0-3.4,0.2-6.4,0.5-8.9c-0.3,1.4-0.9,3.2-1.9,5.2c-2.1,4.1-5,7.7-8.6,11
							c-4.6,4-10.8,7.1-18.6,9.5h17.5l-6.7,10.1c7.7-4.7,14.7-8.1,21-10.1C116.5,215.1,115.5,209.6,115.4,202.8z"/>
					</g>
				</g>
			</g>
		</g>
	</g>
	<g transform="matrix( 1, 0, 0, 1, 0,0) ">
		<g>
			<g id="Layer0_0_MEMBER_1_MEMBER_2_FILL">
				<path class="st3" d="M196.6,388l0.5-8.9l-1.9,5.2c-2.1,4.1-5,7.7-8.6,11c-4.6,4-10.8,7.1-18.6,9.5h17.5l-6.7,10.1
					c2-1.2,4.3-2.5,7-4c5.4-2.8,10.1-4.9,14-6.1C197.8,400.3,196.7,394.7,196.6,388z"/>
			</g>
		</g>
	</g>
	<g transform="matrix( 1, 0, 0, 1, 0,0) ">
		<g transform="matrix( 1, 0, 0, 1, 81.9,171.75) ">
			<g transform="matrix( 1, 0, 0, 1, 0,0) ">
				<g>
					<g id="tree_front_01_ai_Assets_Layer_1__Path__1_0_Layer0_0_FILL_9_">
						<polygon class="st2" points="87.4,180 113.5,198.3 114.1,193.3 						"/>
					</g>
				</g>
			</g>
		</g>
	</g>
	<g transform="matrix( 1, 0, 0, 1, 0,0) ">
		<g>
			<g id="Layer0_0_MEMBER_1_MEMBER_4_FILL">
				<path class="st3" d="M169.3,351.8l26.1,18.3l0.6-5L169.3,351.8z"/>
			</g>
		</g>
	</g>
	<g transform="matrix( 1, 0, 0, 1, 0,0) ">
		<g>
			<g id="Layer0_0_MEMBER_2_FILL">
				<path class="st3" d="M160.4,297.7l-5,6.7l6.6,5.3c4.7,4.1,7.9,7.5,9.6,10.3c1.9,3.3,3.2,6.5,3.8,9.7c0.5,3,0.4,5.4-0.4,7.1
					c-1.2,2.2-2.5,5.4-4,9.5c1.3-0.9,2.5-2.4,3.8-4.3c2.4-3.9,3.4-8.4,2.9-13.5c-0.5-5.1-3.5-11.8-9-19.9L160.4,297.7z"/>
			</g>
		</g>
	</g>
	<g transform="matrix( 1, 0, 0, 1, 0,0) ">
		<g>
			<g id="Layer0_0_MEMBER_3_FILL">
				<path class="st4" d="M173.2,196.4l15.8,3.5c11,2.1,17.6,2.4,19.9,1c-12.5-12.9-25.6-28.6-39.1-47l-16.6-23.7l20,4.4l-33.4-43.4
					l16.8,5.6c-3.9-5.8-9.1-12.4-15.8-20c-13.1-15.2-26.5-27.5-39.9-36.8c-13.5-9.3-33.7-18.3-60.6-27C26.8,8.6,14.7,5.2,3.9,2.7
					c19.9,12.5,33.1,28.5,39.6,47.8c3.3,9.7,4.5,18.1,3.8,25.2l12.3-33.4l-2.2,86.9l20-47.9l4.6,24.2c3.2,18.6,5,33.9,5.5,45.9
					c0.4,10.8-1.4,32.6-5.3,65.4c-1.9,16.4-3.9,31.7-5.9,45.9l26.7-61.2l-1.8,15.6c-2,14.8-5.1,33.4-9.4,55.7
					C87.7,295,71.6,315.8,43.6,335c-14,9.7-27.5,17.1-40.8,22.3c4.3-0.1,9.4-0.6,15.4-1.4c12-1.6,22.4-3.9,31.3-6.9
					c16.3-5.6,21.1-3.8,14.6,5.3c-3.3,4.6-8.1,9.7-14.6,15.3c6.3-1,13.7-2.7,22.2-5.2c16.9-4.8,30.7-10.7,41.4-17.7
					c10.7-7,22.1-16.9,34.1-29.7l14.8-17.1l14.4,6c11.2,4.3,20.5,7.1,27.8,8.5c7.4,1.4,20,1.7,37.8,0.7c8.9-0.5,17.1-1.1,24.5-1.8
					c-7.7-3.2-14.4-6.5-20.1-10.1c-11.5-6.9-12.6-11-3.3-12.2c10.7-1.4,22.5-5.2,35.3-11.3c6.4-3.1,11.7-6.1,16-8.8
					c-19.4,0.5-34.6-1.1-45.6-4.8c-11.7-4.1-23.6-12.1-35.7-24.1c-8.9-8.9-18.2-19.2-27.9-30.9L173.2,196.4z"/>
			</g>
		</g>
	</g>
	<g transform="matrix( 1, 0, 0, 1, 0,0) ">
		<g>
			<g id="Layer0_0_MEMBER_4_MEMBER_0_FILL">
				<path class="st5" d="M50.3,43.1c0.6-0.9,0.8-2.4,0.7-4.4c-0.3-4.1-2.5-9-6.7-14.6C38.9,17,26.1,10.3,5.9,4
					c19,12.5,31.7,28.2,37.9,47.1c3.1,9.5,4.3,17.7,3.6,24.6l12.3-33.4l-2.2,86.9l20-47.9l4.6,24.2c3.2,18.6,5,33.9,5.5,45.9
					c0.4,10.8-1.4,32.6-5.3,65.4c-1.9,16.4-3.9,31.7-5.9,45.9l26.7-61.2l-1.8,15.6c-2,14.8-5.1,33.4-9.4,55.7
					C87.7,295,71.6,315.8,43.6,335c-14,9.7-27.5,17.1-40.8,22.3c4.3-0.1,9.4-0.6,15.4-1.4c12-1.6,22.4-3.9,31.3-6.9
					c16.3-5.6,21.1-3.8,14.6,5.3c-3.3,4.6-8.1,9.7-14.6,15.3c6.3-1,13.7-2.7,22.2-5.2c16.9-4.8,30.7-10.7,41.4-17.7
					c10.7-7,22.1-16.9,34.1-29.7l14.8-17.1l14.4,6c11.2,4.3,20.5,7.1,27.8,8.5c7.4,1.4,20,1.7,37.8,0.7c8.9-0.5,17.1-1.1,24.5-1.8
					c-7.7-3.2-14.4-6.5-20.1-10.1c-11.5-6.9-12.6-11-3.3-12.2c10.7-1.4,22.5-5.2,35.3-11.3c6.4-3.1,11.7-6.1,16-8.8l-3.5,0.1
					l-0.4,0.2c-9.1,4.5-25.2,7.7-48.3,9.6l-31.9,1.3l1.9,5.1c2,4.1,4.7,7.7,8.1,10.8c5.6,5,10.3,8.4,14.1,10.1
					c-2.1,0.3-4.7,0.3-7.8,0.2c-6.2-0.3-12-1.5-17.2-3.6c-5.2-2.1-14.7-6.7-28.5-13.9l-19.1-10.3l-18.4,16.6
					c-13.3,11-22.8,16.3-28.5,16c-5.3-0.3-6.4-7.7-3.5-22.1c2.1-8.9,3.7-15.8,4.8-20.6c2-8.7,3.2-16,3.8-21.6
					c1.4-15,2.5-35,3.4-60.2l0.8-33.3l-14.2,13.4c0.8-2.9,1.6-6.7,2.2-11.5c1.2-9.5,1.3-18.8,0.3-27.8c-1.1-9-6.3-24.8-15.6-47.4
					L83.5,50.8L69.4,75l-6.7-50.1L50.3,43.1z"/>
			</g>
		</g>
	</g>
	<g transform="matrix( 1, 0, 0, 1, 0,0) ">
		<g>
			<g id="Layer0_0_MEMBER_5_MEMBER_0_MEMBER_0_FILL">
				<path class="st6" d="M152,216.7c-2.4,11.2-3.8,18-4.2,20.1c-1.6-3.3-4.2-9.6-8-18.8c2.8,9.6,5.8,19.3,9.1,29.1
					C149.7,236.7,150.7,226.6,152,216.7z"/>
			</g>
		</g>
	</g>
	<g transform="matrix( 1, 0, 0, 1, 0,0) ">
		<g>
			<g id="Layer0_0_MEMBER_6_MEMBER_0_MEMBER_0_FILL">
				<path class="st6" d="M191.7,232.8c0.4,0.7,2,3.7,4.9,8.8c2,3.5,3.5,6.5,4.5,8.9c-2.2-1.4-5-3-8.4-4.7c-3.9-1.8-6.7-3.1-8.5-4.1
					c8.1,4.8,15.8,10.2,23.3,16.3C203,249.8,197.8,241.4,191.7,232.8z"/>
			</g>
		</g>
	</g>
	<g transform="matrix( 1, 0, 0, 1, 0,0) ">
		<g>
			<g id="Layer0_0_MEMBER_7_MEMBER_0_MEMBER_0_FILL">
				<path class="st6" d="M134.7,262.9c-0.1,0.2-1.3,2.1-3.5,5.6c-1.5,2.4-2.6,4.4-3.3,6.2c-0.5-1.9-0.8-4.2-0.9-6.9
					c-0.1-3.1-0.2-5.5-0.3-7.2c-0.7,6.8-0.6,13.8,0.3,21C129,275,131.6,268.8,134.7,262.9z"/>
			</g>
		</g>
	</g>
	<g transform="matrix( 1, 0, 0, 1, 0,0) ">
		<g>
			<g id="Layer0_0_MEMBER_8_MEMBER_0_MEMBER_0_FILL">
				<path class="st6" d="M141.8,114.7c-1.5-1-5.8-3.6-12.9-7.8c4,2.9,9.9,7.5,17.8,13.7c-3.5-6.7-7.3-13.4-11.3-20.1
					C138.5,107.2,140.7,111.9,141.8,114.7z"/>
			</g>
		</g>
	</g>
	<g transform="matrix( 1, 0, 0, 1, 0,0) ">
		<g>
			<g id="Layer0_0_MEMBER_9_MEMBER_0_MEMBER_0_FILL">
				<path class="st6" d="M146.8,149.2c4.4,7,7,13.2,7.9,18.8c-3.6-3.9-8.6-7.1-15-9.8c7.9,3.9,14.1,10.1,18.6,18.6
					C157.4,166.4,153.6,157.1,146.8,149.2z"/>
			</g>
		</g>
	</g>
	<g transform="matrix( 1, 0, 0, 1, 0,0) ">
		<g>
			<g id="Layer0_0_MEMBER_10_MEMBER_0_MEMBER_0_FILL">
				<path class="st6" d="M125.9,131.2c-2.2,3.6-3.8,7-4.7,10.3c-1.3-3.5-2-7.5-2.2-12c-0.4,5.2,0.4,11.2,2.5,17.9
					C122.3,140.5,123.7,135.1,125.9,131.2z"/>
			</g>
		</g>
	</g>
	<g transform="matrix( 1, 0, 0, 1, 0,0) ">
		<g>
			<g id="Layer0_0_MEMBER_11_MEMBER_0_MEMBER_0_FILL">
				<path class="st6" d="M188.2,265.7c0.6,1.6,1.5,4,2.5,7.2c1,2.9,2,5.3,2.9,7.2c-1.9-1-4.1-2.4-6.5-4.2c-2.8-2.1-5-3.7-6.5-4.8
					c5.6,5.4,11.7,10.3,18.2,14.7C194.8,279.5,191.3,272.7,188.2,265.7z"/>
			</g>
		</g>
	</g>
	<g transform="matrix( 1, 0, 0, 1, 0,0) ">
		<g>
			<g id="Layer0_0_MEMBER_12_MEMBER_0_MEMBER_0_FILL">
				<path class="st6" d="M77.4,33.3c-0.5,1.6-1.3,4.1-2.3,7.3c-0.1-0.2-0.8-2.6-2.1-7.1c0.8,3.6,1.4,7.2,1.8,10.9
					C75.9,40.8,76.8,37.1,77.4,33.3z"/>
			</g>
		</g>
	</g>
	<g transform="matrix( 1, 0, 0, 1, 0,0) ">
		<g>
			<g id="Layer0_0_MEMBER_13_MEMBER_0_MEMBER_0_FILL">
				<path class="st6" d="M95.5,45.1c1.3,3,2,4.7,2.2,5c-0.1-0.1-1.8-1-4.9-2.8c2.2,1.8,4.5,3.4,6.9,4.9C98,49.7,96.6,47.4,95.5,45.1
					z"/>
			</g>
		</g>
	</g>
	<g transform="matrix( 1, 0, 0, 1, 0,0) ">
		<g>
			<g id="Layer0_0_MEMBER_14_MEMBER_0_MEMBER_0_FILL">
				<path class="st7" d="M108.8,292.4L96,307.3l2-19.2c-1.9,8.5-3.9,17.9-5.9,28.2C96.9,309.3,102.5,301.4,108.8,292.4z"/>
			</g>
		</g>
	</g>
	<g transform="matrix( 1, 0, 0, 1, 0,0) ">
		<g>
			<g id="Layer0_0_MEMBER_15_MEMBER_0_MEMBER_0_FILL">
				<path class="st7" d="M98.8,340.5c-0.2,0.1-2,1.3-5.5,3.6c-2.2,1.5-4,2.8-5.3,4c0.4-1.8,1.1-3.9,2-6.3c1.2-2.7,2-4.8,2.5-6.2
					c-3.2,5.5-6,11.5-8.3,18C88.5,349,93.3,344.6,98.8,340.5z"/>
			</g>
		</g>
	</g>
	<g transform="matrix( 1, 0, 0, 1, 0,0) ">
		<g>
			<g id="Layer0_0_MEMBER_16_MEMBER_0_MEMBER_0_FILL">
				<path class="st7" d="M57.4,335.8l-6,4.3l2.4-6.8l-4.8,9.7L57.4,335.8z"/>
			</g>
		</g>
	</g>
	<g transform="matrix( 1, 0, 0, 1, 0,0) ">
		<g>
			<g id="Layer0_0_MEMBER_17_MEMBER_0_MEMBER_0_FILL">
				<path class="st7" d="M104,173.5c-1.2,2.3-3,5.7-5.3,10.3c-2.1,4.1-4,7.4-5.7,9.9c0-3-0.3-6.6-0.8-10.9
					c-0.7-4.8-1.3-8.4-1.5-10.7c0.6,10.4,0.3,21.1-0.8,32.2C95.3,194.5,100.1,184.3,104,173.5z"/>
			</g>
		</g>
	</g>
	<g transform="matrix( 1, 0, 0, 1, 0,0) ">
		<g>
			<g id="Layer0_0_MEMBER_18_MEMBER_0_MEMBER_0_FILL">
				<path class="st7" d="M115.1,216.4c-0.2,0.4-1.3,2.3-3.2,5.6c-1.3,2.2-2.2,4.2-2.7,5.8c-0.5-1.7-0.8-3.8-1.1-6.4
					c-0.3-4.1-0.5-6.3-0.6-6.6c-0.4,6.2,0,12.7,1.2,19.5C110.2,228,112.3,222,115.1,216.4z"/>
			</g>
		</g>
	</g>
	<g transform="matrix( 1, 0, 0, 1, 0,0) ">
		<g>
			<g id="Layer0_0_MEMBER_19_MEMBER_0_MEMBER_0_FILL">
				<path class="st7" d="M98.6,107.9c-0.3,2.4-0.7,4.5-1.2,6.1c-0.5-1.6-1.4-3.4-2.4-5.5c-1.2-2.3-2.1-4-2.6-5.2
					c2.1,4.9,3.9,10.5,5.4,16.8c1.1-6.2,1.7-12.4,1.7-18.5C99.3,101.9,99,104,98.6,107.9z"/>
			</g>
		</g>
	</g>
	<g transform="matrix( 1, 0, 0, 1, 0,0) ">
		<g>
			<g id="Layer0_0_MEMBER_20_MEMBER_0_MEMBER_0_FILL">
				<path class="st7" d="M67.7,82.3c-2.4,4.4-3.7,6.9-4,7.5c-0.2-1-0.5-3.8-1-8.4c-0.1,4.5,0,8.7,0.4,12.6
					C64.4,90.1,65.9,86.2,67.7,82.3z"/>
			</g>
		</g>
	</g>
	<g transform="matrix( 1, 0, 0, 1, 0,0) ">
		<g>
			<g id="Layer0_0_MEMBER_21_MEMBER_0_MEMBER_0_FILL">
				<path class="st7" d="M49.8,44.1c-0.3,2.6-0.6,4.1-0.7,4.7c-0.1-0.5-0.8-1.8-1.9-3.9c0.9,2,1.5,4.1,1.9,6.2
					C49.6,48.6,49.8,46.3,49.8,44.1z"/>
			</g>
		</g>
	</g>
	<g transform="matrix( 1, 0, 0, 1, 0,0) ">
		<g transform="matrix( 1, 0, 0, 1, 72.15,63.15) ">
			<g transform="matrix( 1, 0, 0, 1, 0,0) ">
				<g>
					<g id="tree_front_01_ai_Assets_Layer_1__Path__2_0_Layer0_0_FILL_11_">
						<path class="st4" d="M93.7,121.3c0.6-0.4,1.2-1.3,1.8-2.6c1.2-2.8,1.6-6.5,1.4-11.2c-0.1-4.7,3.7-2.9,11.4,5.2
							c3.9,4.1,7.7,8.6,11.6,13.6L77.3,67.9c5,11.4,8.9,21,11.7,28.8c1.8,4.9,3,10.5,3.9,16.8C93.4,116.5,93.6,119.2,93.7,121.3z"/>
					</g>
				</g>
			</g>
		</g>
	</g>
	<g transform="matrix( 1, 0, 0, 1, 0,0) ">
		<g transform="matrix( 1, 0, 0, 1, 51,22.7) ">
			<g transform="matrix( 1, 0, 0, 1, 0,0) ">
				<g>
					<g id="tree_front_01_ai_Assets_Layer_1__Path__1_0_0_Layer0_0_FILL_11_">
						<path class="st4" d="M64.2,51.9c0.6,4.1,0.9,10.3,0.9,18.5c0.1-4.8,0.3-9.6,0.6-14.3c0.7-10.8,1.7-15.9,3.2-15.4
							c2.2,0.9,10,8.4,23.4,22.6C85.8,53.4,79.8,46,74.3,41c-5.6-4.9-11.8-9.9-18.8-14.9C60.8,38.9,63.7,47.5,64.2,51.9z"/>
					</g>
				</g>
			</g>
		</g>
	</g>
	<g transform="matrix( 1, 0, 0, 1, 0,0) ">
		<g transform="matrix( 1, 0, 0, 1, 75.05,100.55) ">
			<g transform="matrix( 1, 0, 0, 1, 0,0) ">
				<g>
					<g id="tree_front_01_ai_Assets_Layer_1__Path__0_Layer0_0_FILL_11_">
						<path class="st4" d="M91.7,122.5c-1.4-5.6-2.5-11-3.6-16.1l-2.2,25c-0.7,7.8-2.6,17.1-5.6,27.8c0.7-1.3,1.6-2.7,2.7-4.3
							c2.2-3.1,4.5-5.2,6.7-6.3c2.3-1.2,7.6,0.3,15.8,4.3c4.1,2,7.9,4.1,11.5,6.3c-10-6.7-16.3-12.1-18.9-16.2
							C96.5,140.7,94.4,133.8,91.7,122.5z"/>
					</g>
				</g>
			</g>
		</g>
	</g>
</g>
</svg>
