<?xml version="1.0" encoding="utf-8"?>
<!-- Generator: Adobe Illustrator 20.1.0, SVG Export Plug-In . SVG Version: 6.00 Build 0)  -->
<svg version="1.1" id="Layer_1" xmlns="http://www.w3.org/2000/svg" xmlns:xlink="http://www.w3.org/1999/xlink" x="0px" y="0px"
	 viewBox="0 0 172 278.7" style="enable-background:new 0 0 172 278.7;" xml:space="preserve">
<style type="text/css">
	.st0{fill:#66926C;}
	.st1{fill:#CCC869;}
	.st2{fill:#A5BA7E;}
	.st3{fill:#A2BDA2;}
	.st4{fill:#89AA8B;}
	.st5{fill:#6B8B6F;}
	.st6{fill:#C2D6C1;}
</style>
<g>
	<g transform="matrix( 1, 0, 0, 1, 0,0) ">
		<g>
			<g id="Layer0_0_MEMBER_0_FILL">
				<path class="st0" d="M83,20.8c-2.5-0.2-5.5-0.2-9,0.1c-7,0.6-12.9,2.4-17.6,5.3C51,29.5,47.1,35,44.7,43
					c-1.9,6.2-2.7,12.7-2.4,19.3c0.2,5.5,1.2,11.4,2.8,17.6c0.8,3.2,1.6,5.8,2.4,7.8l7.9,1c-1.7-1.8-3.3-4.2-5-7.4
					c-3.3-6.4-4.9-13.2-4.9-20.3c0-8,1.3-15.2,3.8-21.3c2.2-5.5,5.2-9.9,8.8-13c2.9-2.4,7.9-4.1,15-5.1C76.7,21.2,80,20.9,83,20.8z"
					/>
			</g>
		</g>
	</g>
	<g transform="matrix( 1, 0, 0, 1, 0,0) ">
		<g>
			<g id="Layer0_0_MEMBER_1_MEMBER_0_FILL">
				<path class="st1" d="M86.6,21.7l-4.9-0.3l2.2,4.7c2.2,3.4,5.2,5.7,9,6.7c3.8,1.1,8.2,0.8,13.2-1c2.5-0.9,4.6-1.9,6.4-3
					c-1.2-1.6-2.7-3.1-4.6-4.6c-3.7-3-7.2-4.1-10.4-3.5C94.1,21.6,90.5,21.8,86.6,21.7z"/>
			</g>
		</g>
	</g>
	<g transform="matrix( 1, 0, 0, 1, 0,0) ">
		<g>
			<g id="Layer0_0_MEMBER_1_MEMBER_1_MEMBER_0_MEMBER_0_MEMBER_0_FILL">
				<path class="st2" d="M83,22.5c-0.1,0.1,1.7,0.9,5.4,2.4c4,1.6,6.9,2.4,8.7,2.5c0.6,0.1,3.6,0.2,8.9,0.3c3.8,0,5.7,0.4,5.6,1
					c0.2-0.6-1.4-1.1-4.9-1.6c-0.1,0-3.3-0.3-9.5-0.9c-2.3-0.3-5.4-1.1-9.2-2.2L83,22.5z"/>
			</g>
		</g>
	</g>
	<g transform="matrix( 1, 0, 0, 1, 0,0) ">
		<g>
			<g id="Layer0_0_MEMBER_1_MEMBER_2_MEMBER_0_MEMBER_0_MEMBER_0_FILL">
				<path class="st2" d="M85.9,24l1.7,3.9c0.3,0.8,1.5,1.6,3.3,2.5c-1.5-0.8-2.6-1.8-3.1-2.7L85.9,24z"/>
			</g>
		</g>
	</g>
	<g transform="matrix( 1, 0, 0, 1, 0,0) ">
		<g>
			<g id="Layer0_0_MEMBER_1_MEMBER_6_MEMBER_0_MEMBER_0_MEMBER_0_FILL">
				<path class="st2" d="M91.3,25.6c0,0,0.1,0.4,0.4,1.3c0.3,0.9,0.7,1.6,1,1.9c0.3,0.5,1.3,1.2,2.7,1.9c-1.2-0.7-2.1-1.4-2.6-2.1
					c-0.3-0.4-0.6-1.1-1-1.9L91.3,25.6z"/>
			</g>
		</g>
	</g>
	<g transform="matrix( 1, 0, 0, 1, 0,0) ">
		<g>
			<g id="Layer0_0_MEMBER_1_MEMBER_7_MEMBER_0_MEMBER_0_MEMBER_0_FILL">
				<path class="st2" d="M95.8,26.9c0,0,0.3,0.4,1,1.3c0.7,0.9,1.3,1.6,1.7,1.9c0.5,0.6,1.8,1.2,3.8,1.9c-1.6-0.6-2.8-1.4-3.6-2.1
					L95.8,26.9z"/>
			</g>
		</g>
	</g>
	<g transform="matrix( 1, 0, 0, 1, 0,0) ">
		<g>
			<g id="Layer0_0_MEMBER_1_MEMBER_8_MEMBER_0_MEMBER_0_MEMBER_0_FILL">
				<path class="st2" d="M100.1,27.5c0,0,0.2,0.4,0.9,1.1c0.7,0.7,1.3,1.2,1.7,1.5c0.5,0.4,1.6,0.9,3.3,1.5
					c-1.4-0.6-2.4-1.2-3.2-1.8c-0.5-0.3-1.1-0.8-1.8-1.4C100.3,27.8,100,27.5,100.1,27.5z"/>
			</g>
		</g>
	</g>
	<g transform="matrix( 1, 0, 0, 1, 0,0) ">
		<g>
			<g id="Layer0_0_MEMBER_2_MEMBER_0_FILL">
				<path class="st1" d="M65.5,18.7c4.1-2.8,6.4-4.4,6.9-4.9c1.4-1.3,2.2-3.4,2.5-6.4c0.1-1.5,0.1-2.9,0-4.1
					c-2.1,0.6-4.3,1.4-6.7,2.3c-4.7,1.9-7.9,3.7-9.4,5.5c-1.5,1.8-1.7,4.4-0.4,7.8c0.6,1.7,1.4,3.3,2.3,4.7
					C60.9,22.4,62.5,20.8,65.5,18.7z"/>
			</g>
		</g>
	</g>
	<g transform="matrix( 1, 0, 0, 1, 0,0) ">
		<g>
			<g id="Layer0_0_MEMBER_2_MEMBER_1_MEMBER_0_MEMBER_0_MEMBER_0_FILL">
				<path class="st2" d="M67.1,13.1c1.5-0.5,3.3-2.1,5.3-4.7c2-2.6,2.6-4,2-4.3c0.4,0.3-0.2,1.5-2,3.6c-2,2.3-4,3.8-5.9,4.7
					c-2.9,1.9-4.6,3.8-5.1,5.7c-0.3,0.9-0.4,1.9-0.3,3l0.1,1.1c0-0.3,0-0.8,0-1.3c0-1.1,0.3-2.1,0.9-3C63,16.3,64.6,14.8,67.1,13.1z
					"/>
			</g>
		</g>
	</g>
	<g transform="matrix( 1, 0, 0, 1, 0,0) ">
		<g>
			<g id="Layer0_0_MEMBER_2_MEMBER_2_MEMBER_0_MEMBER_0_MEMBER_0_FILL">
				<path class="st2" d="M67.5,12.8c0,0,0.3,0.1,1,0.3c0.7,0.1,1.2,0.2,1.5,0.2c0.5,0,1.4-0.2,2.5-0.7c-1,0.4-1.8,0.6-2.5,0.5
					L67.5,12.8z"/>
			</g>
		</g>
	</g>
	<g transform="matrix( 1, 0, 0, 1, 0,0) ">
		<g>
			<g id="Layer0_0_MEMBER_2_MEMBER_3_MEMBER_0_MEMBER_0_MEMBER_0_FILL">
				<path class="st2" d="M61.7,17.7c-1.1-0.5-1.8-1-2.1-1.3c-0.3-0.1-0.6-0.5-1-1.1c-0.1-0.1-0.1-0.2-0.1-0.3c0,0.1,0,0.2,0.1,0.2
					c0.3,0.6,0.6,1,1,1.3C59.9,17,60.7,17.4,61.7,17.7z"/>
			</g>
		</g>
	</g>
	<g transform="matrix( 1, 0, 0, 1, 0,0) ">
		<g>
			<g id="Layer0_0_MEMBER_2_MEMBER_6_MEMBER_0_MEMBER_0_MEMBER_0_FILL">
				<path class="st2" d="M64.7,14.3c-0.5-1.2-0.8-2.1-0.9-2.6c-0.1-0.3-0.1-0.9,0-1.6c0-0.4,0.1-0.6,0.1-0.8L63.7,10
					c-0.1,0.7-0.2,1.3-0.1,1.8C63.8,12.5,64.1,13.4,64.7,14.3z"/>
			</g>
		</g>
	</g>
	<g transform="matrix( 1, 0, 0, 1, 0,0) ">
		<g>
			<g id="Layer0_0_MEMBER_3_MEMBER_0_MEMBER_0_FILL">
				<path class="st1" d="M56.4,28.8l0.7,0.6c0.6,0.4,1.2,0.6,1.8,0.7c1,0.2,1.8,0,2.5-0.7c-0.2-0.8-0.9-1.3-2.1-1.5
					c-0.7-0.1-1.4,0-2.1,0.3L56.4,28.8z"/>
			</g>
		</g>
	</g>
	<g transform="matrix( 1, 0, 0, 1, 0,0) ">
		<g>
			<g id="Layer0_0_MEMBER_4_MEMBER_0_MEMBER_0_FILL">
				<path class="st1" d="M48.5,34.4c0.3-1.5,0.1-2.8-0.6-4.1c-0.4-0.8-1-1.4-1.8-1.8L45,28.1l-0.4,1c-0.1,0.8,0,1.7,0.4,2.5
					C45.8,33,47,34,48.5,34.4z"/>
			</g>
		</g>
	</g>
	<g transform="matrix( 1, 0, 0, 1, 0,0) ">
		<g>
			<g id="Layer0_0_MEMBER_5_MEMBER_0_MEMBER_0_FILL">
				<path class="st1" d="M49.4,40l0.8,0.5c0.6,0.3,1.3,0.5,1.9,0.5c1.1,0,1.9-0.3,2.5-1c-0.3-0.8-1.1-1.2-2.3-1.3
					c-0.7,0-1.4,0.1-2.1,0.6L49.4,40z"/>
			</g>
		</g>
	</g>
	<g transform="matrix( 1, 0, 0, 1, 0,0) ">
		<g>
			<g id="Layer0_0_MEMBER_6_MEMBER_0_MEMBER_0_FILL">
				<path class="st1" d="M52,34.5l0.4,0.3c0.3,0.1,0.7,0.2,1,0.2c0.4,0,0.8-0.1,1.2-0.5c-0.1-0.3-0.5-0.5-1.1-0.6
					c-0.3,0-0.7,0.1-1,0.3L52,34.5z"/>
			</g>
		</g>
	</g>
	<g transform="matrix( 1, 0, 0, 1, 0,0) ">
		<g>
			<g id="Layer0_0_MEMBER_7_MEMBER_0_MEMBER_0_FILL">
				<path class="st1" d="M52.4,29.3c0.2-0.7,0.2-1.4,0-2c-0.1-0.4-0.3-0.8-0.7-1.1l-0.5-0.4L51,26.3c-0.2,0.4-0.2,0.9-0.1,1.4
					C51.1,28.5,51.7,29,52.4,29.3z"/>
			</g>
		</g>
	</g>
	<g transform="matrix( 1, 0, 0, 1, 0,0) ">
		<g>
			<g id="Layer0_0_MEMBER_8_MEMBER_1_FILL">
				<path class="st3" d="M157.9,141.6c-5-4.8-10.4-8.9-16.2-12.1c-11.7-6.5-19.4-5.7-23.3,2.3c-1.4,3-2.6,6.5-3.4,10.5
					c-5.2-10.2-14.1-20.5-26.6-31.1c-6.4-5.2-11-9-13.9-11.4c-4.8-4-8.3-7.3-10.4-10c-6.2-7.8-9.7-15.4-10.4-22.8
					c-0.8-8.1,1.5-16.5,7-25.1c4.7-7.4,13.1-8.5,25.2-3.3c6,2.6,11.6,6,16.6,10c-4.6-4.8-10.1-8.8-16.2-12
					c-12.4-6.3-22.4-5.4-30,2.9s-10.9,17.6-10,27.9c0.4,5.2,1.7,9.5,3.6,13c-1.2-0.9-2.5-2.3-3.9-4.3c-2.8-4-4.6-8.6-5.5-13.9
					c-0.5-3.6,0.2-8.9,2.4-15.9c1.9-6.3,1.9-12.4,0.1-18.1c-2-6.6-8.9-11.2-20.6-13.6c-5.8-1.2-11.5-1.8-16.9-1.7
					c7.8,0.6,14.9,2.4,21.4,5.3c12.9,5.9,16,14.5,9.2,25.8c-7.2,12-5.3,25.9,5.7,41.6c6.5,9.3,19.2,22.4,38.2,39.3
					c6.8,6,12.1,13.7,15.9,23.1c3.6,8.6,5.7,18,6.3,28.2c-2.8-6.3-6.1-11.2-9.9-14.7c-5.7-5.1-11.9-6.3-18.7-3.6
					c-7.6,3.1-11.7,9.8-12.3,20.3c-0.3,6.2-0.6,9.9-0.8,10.9c-0.7,3.5-2.5,5.7-5.2,6.8c-5.7,2.3-10.3,2.5-13.9,0.4
					c2.7,1.9,5.5,2.9,8.4,3c4.1,0.1,8.1-1.5,11.9-5c2.5-2.3,4.2-5.3,5.1-9c0.3-1.2,0.7-4.3,1.2-9.5c0.3-3.7,1.1-6.3,2.2-7.9
					c1.6-2.3,4.3-3.7,8.2-4.1c5-0.6,9.5,5.3,13.6,17.8c2.5,7.8,4.7,17.4,6.4,28.8c-1.7,5.7-3.8,10.6-6.1,14.7
					c-6.4,11.1-14.4,21-24,29.6c-4.8,4.3-9,7.6-12.5,9.6l11.9-3.7c8.8-2.2,15.5-2.4,20-0.7c5.3,1.9,7.4,5.1,6.2,9.5
					c-0.5,2.2-1.6,4.2-3.3,6.1c2.2-2.3,4.9-4.6,8.1-6.9c6.4-4.6,12.1-7,17-7.2c4.7-0.2,10,1.8,15.8,5.9c3.3,2.3,6,4.6,8.2,7
					c-1.4-1.6-2.5-3.4-3.2-5.4c-1.3-3.7-0.6-6.9,2.1-9.6c3.3-3.3,8.9-4.3,17-3c4,0.6,7.8,1.6,11.1,3c-2.8-1.9-6-4.2-9.7-6.9
					c-7.3-5.3-13-10-17-13.9c-6.5-6.3-10.7-17.4-12.7-33.3c-0.9-9.5-1.7-16.8-2.3-21.9c-1-9.1-2.4-17-4-23.7
					c-0.4-13.9,0.3-22.8,2.1-26.7c2.1-4.3,8.5-4.1,19.2,0.6C147.8,135.6,152.9,138.4,157.9,141.6z"/>
			</g>
		</g>
	</g>
	<g transform="matrix( 1, 0, 0, 1, 0,0) ">
		<g>
			<g id="Layer0_0_MEMBER_9_MEMBER_0_FILL">
				<path class="st4" d="M35.1,23.6c5.3,5.4,5.6,12.2,0.7,20.2c-7.2,12-5.3,25.9,5.7,41.6c6.5,9.3,19.2,22.4,38.2,39.3
					c6.8,6,12.1,13.7,15.9,23.1c3.6,8.6,5.7,18,6.3,28.2c2.3,8.1,3.8,13.8,4.4,17.1c0.6-6.4,0.8-13.7,0.5-21.7
					c-0.5-16.1-3.1-28.2-7.6-36.4c-4-7.3-13.8-17.6-29.3-30.8C53.4,90.2,43.8,81.3,41.2,77.7c-4.3-6-6.3-12.5-5.9-19.3
					c0.1-3.1,1.1-7.4,3-12.9c2-3.8,3.2-6.8,3.8-9c0.9-4-0.3-8-3.8-12.1c-3.4-4-10.6-7.2-21.6-9.6C25.1,16.8,31.3,19.7,35.1,23.6
					 M48.2,88.1c6.6,6.6,12,11.9,16.3,15.9c3.5,3.2,9.6,8.5,18.3,15.9c7.5,6.8,12.3,12.8,14.7,17.9c2.3,5.1,4.2,13,5.6,23.9
					c0.7,5.4,1.2,10.3,1.4,14.7c-0.7-4.1-1.7-8.6-2.8-13.6c-2.3-9.8-4.5-16.8-6.4-20.9c-3-6.1-8.2-12.8-15.6-20.1
					c-0.6-0.6-6.1-5.5-16.6-14.7c-3.9-3.4-8.9-9-15.1-16.7l-8.2-10.7L48.2,88.1z"/>
			</g>
		</g>
	</g>
	<g transform="matrix( 1, 0, 0, 1, 0,0) ">
		<g>
			<g id="Layer0_0_MEMBER_9_MEMBER_1_FILL">
				<path class="st4" d="M78.3,163.8c5-0.6,9.5,5.3,13.6,17.8c2.5,7.8,4.7,17.4,6.4,28.8c-1.7,5.7-3.8,10.6-6.1,14.7
					c-6.4,11.1-14.4,21-24,29.6c-4.8,4.3-9,7.6-12.5,9.6l4-1.5c3.3-1.1,6.5-2,9.6-2.7c13.4-14,21.6-23.5,24.6-28.4
					c3-4.9,4.9-8.9,5.9-12c0.7-2.6,1-5.5,0.8-8.7c-0.1-2.5-1.2-8-3.3-16.4l-3-12.1l12.2,38.9c1.5,4.4,2.7,10.6,3.7,18.5l3-21.1
					l1.6,17c1.7,12.3,4,21.2,7.1,26.5c5.2,1.6,10.7,5.1,16.4,10.5c-7-7.1-12.4-14.9-16.2-23.3c-2.8-6-4.7-17-5.9-32.8l-0.8-22l-3,14
					c-2.1,9.1-3.6,12.9-4.4,11.6c-0.2-0.4-2-7.6-5.3-21.6c-3.3-13.7-6-22.4-8.4-26.2c-3-4.9-6.5-8.2-10.4-9.9c-4-1.7-7.8-1.4-11.5,1
					c-3.1,2-5.1,5.1-6.1,9.2c-0.5,2.3-0.9,5.3-1,9c-0.4,3.5-1.8,6.9-4.2,10.4c-2.6,3.8-5.4,5.9-8.4,6.2c-3.8,0.4-6.9,0-9.4-1.2
					c-1-0.4-1.7-0.7-2.1-0.9c2.7,1.9,5.5,2.9,8.4,3c4.1,0.1,8.1-1.5,11.9-5c2.5-2.3,4.2-5.3,5.1-9c0.3-1.2,0.7-4.3,1.2-9.5
					c0.3-3.7,1.1-6.3,2.2-7.9C71.7,165.6,74.4,164.3,78.3,163.8z"/>
			</g>
		</g>
	</g>
	<g transform="matrix( 1, 0, 0, 1, 0,0) ">
		<g>
			<g id="Layer0_0_MEMBER_9_MEMBER_2_FILL">
				<path class="st4" d="M154.3,139.4c-11.4-8.1-20-12-25.7-11.8c-4.9,0.1-7.8,4.2-8.7,12.2c-0.7,6.1-0.3,12.6,1.3,19.6
					c-0.4-13.9,0.3-22.8,2.1-26.7c1.7-3.6,6.3-4,14-1.5C142.2,132.9,147.9,135.6,154.3,139.4z"/>
			</g>
		</g>
	</g>
	<g transform="matrix( 1, 0, 0, 1, 0,0) ">
		<g>
			<g id="Layer0_0_MEMBER_9_MEMBER_3_FILL">
				<path class="st4" d="M120.4,172.5l1.2,21.3c1,15.6,2,26.7,2.9,33.5c0.9,6.8,2.8,13.8,5.6,21c1.4,3.6,2.8,6.4,4,8.7
					c0-1.3,0.2-2.6,0.8-3.9c1.1-2.5,3.3-3.4,6.6-2.8c-1.6-0.9-3.4-2.6-5.3-5c-4-4.7-6.9-10.7-8.7-18c-1.8-7.3-3.6-18.6-5.2-33.9
					L120.4,172.5z"/>
			</g>
		</g>
	</g>
	<g transform="matrix( 1, 0, 0, 1, 0,0) ">
		<g>
			<g id="Layer0_0_MEMBER_9_MEMBER_4_FILL">
				<path class="st4" d="M77.1,33.2L77.1,33.2c-8.4-2-15.4,0.1-21,6.1c-7.6,8.2-10.9,17.6-10,27.9c0.4,5.2,1.7,9.5,3.6,13
					c2,2.3,4.1,4,6.3,5.1c-0.6-0.7-1.3-1.9-2.1-3.4c-1.7-3-3.1-6.4-4.1-10.3c-2.5-9,0-19,7.4-30c2.9-4.3,7.1-7,12.7-8.1
					C72.5,33,74.9,32.9,77.1,33.2z"/>
			</g>
		</g>
	</g>
	<g transform="matrix( 1, 0, 0, 1, 0,0) ">
		<g>
			<g id="Layer0_0_MEMBER_9_MEMBER_5_FILL">
				<path class="st5" d="M100.4,211c0.2,3.2-0.1,6.1-0.8,8.7c-0.9,3.1-2.9,7.1-5.9,12c-3,5-11.2,14.5-24.6,28.4
					c8-1.7,14.1-1.8,18.3-0.3c5.3,1.9,7.4,5.1,6.2,9.5c-0.5,2.2-1.6,4.2-3.3,6.1c2.2-2.3,4.9-4.6,8.1-6.9c6.4-4.6,12.1-7,17-7.2
					c2.1-0.1,4.1,0.2,6.1,0.9c-3.1-5.3-5.4-14.2-7.1-26.5l-1.6-17l-3,21.1c-1-7.9-2.2-14.1-3.7-18.5l-12.2-38.9l3,12.1
					C99.2,203.1,100.3,208.5,100.4,211z"/>
			</g>
		</g>
	</g>
	<g transform="matrix( 1, 0, 0, 1, 0,0) ">
		<g>
			<g id="Layer0_0_MEMBER_9_MEMBER_6_FILL">
				<path class="st5" d="M47.9,90.2c6.2,7.8,11.3,13.3,15.1,16.7c10.5,9.2,16,14.1,16.6,14.7c7.4,7.3,12.6,14,15.6,20.1
					c2,4.1,4.1,11.1,6.4,20.9c1.1,4.9,2.1,9.5,2.8,13.6c-0.2-4.4-0.7-9.3-1.4-14.7c-1.4-10.8-3.3-18.8-5.6-23.9
					c-2.3-5.1-7.2-11-14.7-17.9c-8.7-7.4-14.8-12.6-18.3-15.9c-4.3-4-9.7-9.3-16.3-15.9l-8.5-8.6L47.9,90.2z"/>
			</g>
		</g>
	</g>
	<g transform="matrix( 1, 0, 0, 1, 0,0) ">
		<g>
			<g id="Layer0_0_MEMBER_9_MEMBER_7_FILL">
				<path class="st6" d="M98.4,172.7c-2.6-6.9-7.6-11.3-15-13.2l4.9,3.2c3.5,2.5,5.7,4.6,6.6,6.4c1.5,3,3.2,7.4,5.2,13.3
					C100.3,179.4,99.7,176.2,98.4,172.7z"/>
			</g>
		</g>
	</g>
	<g transform="matrix( 1, 0, 0, 1, 0,0) ">
		<g>
			<g id="Layer0_0_MEMBER_9_MEMBER_8_FILL">
				<path class="st6" d="M95.2,121.7l-14.4-12.6l10,9.7c7.2,7.6,12,14,14.4,19.2s4.4,13.2,5.8,23.8c0.6,5.3,1.1,10.1,1.3,14.4
					c0.6-4.5,1.5-7.1,2.6-7.9l1.5,0.1c0-0.9,0-2.5-0.3-4.8c-0.6-4.5-1.7-10.2-3.4-17C111,139.8,105.2,131.5,95.2,121.7z"/>
			</g>
		</g>
	</g>
</g>
</svg>
